G04 #@! TF.FileFunction,Legend,Top*
%FSLAX46Y46*%
G04 Gerber Fmt 4.6, Leading zero omitted, Abs format (unit mm)*
G04 Created by KiCad (PCBNEW (2015-07-11 BZR 5925, Git c291b88)-product) date 9/9/2015 4:31:28 PM*
%MOMM*%
G01*
G04 APERTURE LIST*
%ADD10C,0.100000*%
%ADD11C,0.300000*%
%ADD12C,0.500000*%
%ADD13C,0.200000*%
%ADD14C,0.150000*%
%ADD15C,0.175000*%
%ADD16C,0.162500*%
G04 APERTURE END LIST*
D10*
D11*
X73500000Y-112778571D02*
X73500000Y-111278571D01*
X74071428Y-111278571D01*
X74214286Y-111350000D01*
X74285714Y-111421429D01*
X74357143Y-111564286D01*
X74357143Y-111778571D01*
X74285714Y-111921429D01*
X74214286Y-111992857D01*
X74071428Y-112064286D01*
X73500000Y-112064286D01*
X74857143Y-111278571D02*
X75214286Y-112778571D01*
X75500000Y-111707143D01*
X75785714Y-112778571D01*
X76142857Y-111278571D01*
X77571429Y-112778571D02*
X77071429Y-112064286D01*
X76714286Y-112778571D02*
X76714286Y-111278571D01*
X77285714Y-111278571D01*
X77428572Y-111350000D01*
X77500000Y-111421429D01*
X77571429Y-111564286D01*
X77571429Y-111778571D01*
X77500000Y-111921429D01*
X77428572Y-111992857D01*
X77285714Y-112064286D01*
X76714286Y-112064286D01*
D12*
X41299999Y-151904762D02*
X41299999Y-149904762D01*
X41966666Y-149904762D02*
X42633333Y-151904762D01*
X43300000Y-149904762D01*
X43966666Y-151904762D02*
X43966666Y-149904762D01*
X47585715Y-151714286D02*
X47490477Y-151809524D01*
X47204762Y-151904762D01*
X47014286Y-151904762D01*
X46728572Y-151809524D01*
X46538096Y-151619048D01*
X46442857Y-151428571D01*
X46347619Y-151047619D01*
X46347619Y-150761905D01*
X46442857Y-150380952D01*
X46538096Y-150190476D01*
X46728572Y-150000000D01*
X47014286Y-149904762D01*
X47204762Y-149904762D01*
X47490477Y-150000000D01*
X47585715Y-150095238D01*
X48347619Y-151333333D02*
X49300000Y-151333333D01*
X48157143Y-151904762D02*
X48823810Y-149904762D01*
X49490477Y-151904762D01*
X50157143Y-151904762D02*
X50157143Y-149904762D01*
X51300001Y-151904762D01*
X51300001Y-149904762D01*
D13*
X58300000Y-131600000D02*
X58300000Y-127800000D01*
X56000000Y-131600000D02*
X56000000Y-127800000D01*
X53200000Y-127800000D02*
X53200000Y-131600000D01*
X53200000Y-128100000D02*
X53200000Y-127800000D01*
X46200000Y-128100000D02*
X53200000Y-128100000D01*
X46200000Y-131600000D02*
X46200000Y-128100000D01*
X60200000Y-131600000D02*
X46200000Y-131600000D01*
X60200000Y-131300000D02*
X60200000Y-131600000D01*
X61000000Y-131300000D02*
X60200000Y-131300000D01*
X61000000Y-128100000D02*
X61000000Y-131300000D01*
D14*
X47285714Y-128952857D02*
X47742857Y-128952857D01*
X47514286Y-129181429D02*
X47514286Y-128724286D01*
X48314285Y-128581429D02*
X48028571Y-128581429D01*
X48000000Y-128867143D01*
X48028571Y-128838571D01*
X48085714Y-128810000D01*
X48228571Y-128810000D01*
X48285714Y-128838571D01*
X48314285Y-128867143D01*
X48342857Y-128924286D01*
X48342857Y-129067143D01*
X48314285Y-129124286D01*
X48285714Y-129152857D01*
X48228571Y-129181429D01*
X48085714Y-129181429D01*
X48028571Y-129152857D01*
X48000000Y-129124286D01*
X48514286Y-128581429D02*
X48714286Y-129181429D01*
X48914286Y-128581429D01*
X49542858Y-129152857D02*
X49628572Y-129181429D01*
X49771429Y-129181429D01*
X49828572Y-129152857D01*
X49857143Y-129124286D01*
X49885715Y-129067143D01*
X49885715Y-129010000D01*
X49857143Y-128952857D01*
X49828572Y-128924286D01*
X49771429Y-128895714D01*
X49657143Y-128867143D01*
X49600001Y-128838571D01*
X49571429Y-128810000D01*
X49542858Y-128752857D01*
X49542858Y-128695714D01*
X49571429Y-128638571D01*
X49600001Y-128610000D01*
X49657143Y-128581429D01*
X49800001Y-128581429D01*
X49885715Y-128610000D01*
X50257144Y-128581429D02*
X50371430Y-128581429D01*
X50428572Y-128610000D01*
X50485715Y-128667143D01*
X50514287Y-128781429D01*
X50514287Y-128981429D01*
X50485715Y-129095714D01*
X50428572Y-129152857D01*
X50371430Y-129181429D01*
X50257144Y-129181429D01*
X50200001Y-129152857D01*
X50142858Y-129095714D01*
X50114287Y-128981429D01*
X50114287Y-128781429D01*
X50142858Y-128667143D01*
X50200001Y-128610000D01*
X50257144Y-128581429D01*
X50771429Y-128581429D02*
X50771429Y-129067143D01*
X50800001Y-129124286D01*
X50828572Y-129152857D01*
X50885715Y-129181429D01*
X51000001Y-129181429D01*
X51057143Y-129152857D01*
X51085715Y-129124286D01*
X51114286Y-129067143D01*
X51114286Y-128581429D01*
X51742857Y-129181429D02*
X51542857Y-128895714D01*
X51400000Y-129181429D02*
X51400000Y-128581429D01*
X51628572Y-128581429D01*
X51685714Y-128610000D01*
X51714286Y-128638571D01*
X51742857Y-128695714D01*
X51742857Y-128781429D01*
X51714286Y-128838571D01*
X51685714Y-128867143D01*
X51628572Y-128895714D01*
X51400000Y-128895714D01*
X52342857Y-129124286D02*
X52314286Y-129152857D01*
X52228572Y-129181429D01*
X52171429Y-129181429D01*
X52085714Y-129152857D01*
X52028572Y-129095714D01*
X52000000Y-129038571D01*
X51971429Y-128924286D01*
X51971429Y-128838571D01*
X52000000Y-128724286D01*
X52028572Y-128667143D01*
X52085714Y-128610000D01*
X52171429Y-128581429D01*
X52228572Y-128581429D01*
X52314286Y-128610000D01*
X52342857Y-128638571D01*
X52600000Y-128867143D02*
X52800000Y-128867143D01*
X52885714Y-129181429D02*
X52600000Y-129181429D01*
X52600000Y-128581429D01*
X52885714Y-128581429D01*
X46428573Y-129571429D02*
X46428573Y-130057143D01*
X46457145Y-130114286D01*
X46485716Y-130142857D01*
X46542859Y-130171429D01*
X46657145Y-130171429D01*
X46714287Y-130142857D01*
X46742859Y-130114286D01*
X46771430Y-130057143D01*
X46771430Y-129571429D01*
X47028573Y-130142857D02*
X47114287Y-130171429D01*
X47257144Y-130171429D01*
X47314287Y-130142857D01*
X47342858Y-130114286D01*
X47371430Y-130057143D01*
X47371430Y-130000000D01*
X47342858Y-129942857D01*
X47314287Y-129914286D01*
X47257144Y-129885714D01*
X47142858Y-129857143D01*
X47085716Y-129828571D01*
X47057144Y-129800000D01*
X47028573Y-129742857D01*
X47028573Y-129685714D01*
X47057144Y-129628571D01*
X47085716Y-129600000D01*
X47142858Y-129571429D01*
X47285716Y-129571429D01*
X47371430Y-129600000D01*
X47628573Y-129857143D02*
X47828573Y-129857143D01*
X47914287Y-130171429D02*
X47628573Y-130171429D01*
X47628573Y-129571429D01*
X47914287Y-129571429D01*
X48742859Y-129571429D02*
X48857145Y-129571429D01*
X48914287Y-129600000D01*
X48971430Y-129657143D01*
X49000002Y-129771429D01*
X49000002Y-129971429D01*
X48971430Y-130085714D01*
X48914287Y-130142857D01*
X48857145Y-130171429D01*
X48742859Y-130171429D01*
X48685716Y-130142857D01*
X48628573Y-130085714D01*
X48600002Y-129971429D01*
X48600002Y-129771429D01*
X48628573Y-129657143D01*
X48685716Y-129600000D01*
X48742859Y-129571429D01*
X49257144Y-130171429D02*
X49257144Y-129571429D01*
X49600001Y-130171429D01*
X49600001Y-129571429D01*
X50171429Y-130171429D02*
X49885715Y-130171429D01*
X49885715Y-129571429D01*
X50485715Y-129885714D02*
X50485715Y-130171429D01*
X50285715Y-129571429D02*
X50485715Y-129885714D01*
X50685715Y-129571429D01*
X51457144Y-129571429D02*
X51571430Y-129571429D01*
X51628572Y-129600000D01*
X51685715Y-129657143D01*
X51714287Y-129771429D01*
X51714287Y-129971429D01*
X51685715Y-130085714D01*
X51628572Y-130142857D01*
X51571430Y-130171429D01*
X51457144Y-130171429D01*
X51400001Y-130142857D01*
X51342858Y-130085714D01*
X51314287Y-129971429D01*
X51314287Y-129771429D01*
X51342858Y-129657143D01*
X51400001Y-129600000D01*
X51457144Y-129571429D01*
X51971429Y-130171429D02*
X51971429Y-129571429D01*
X52314286Y-130171429D01*
X52314286Y-129571429D01*
X52600000Y-129857143D02*
X52800000Y-129857143D01*
X52885714Y-130171429D02*
X52600000Y-130171429D01*
X52600000Y-129571429D01*
X52885714Y-129571429D01*
X46857142Y-131161429D02*
X46857142Y-130561429D01*
X47199999Y-131161429D01*
X47199999Y-130561429D01*
X47828570Y-131104286D02*
X47799999Y-131132857D01*
X47714285Y-131161429D01*
X47657142Y-131161429D01*
X47571427Y-131132857D01*
X47514285Y-131075714D01*
X47485713Y-131018571D01*
X47457142Y-130904286D01*
X47457142Y-130818571D01*
X47485713Y-130704286D01*
X47514285Y-130647143D01*
X47571427Y-130590000D01*
X47657142Y-130561429D01*
X47714285Y-130561429D01*
X47799999Y-130590000D01*
X47828570Y-130618571D01*
X48742856Y-130847143D02*
X48542856Y-130847143D01*
X48542856Y-131161429D02*
X48542856Y-130561429D01*
X48828570Y-130561429D01*
X49171428Y-130561429D02*
X49285714Y-130561429D01*
X49342856Y-130590000D01*
X49399999Y-130647143D01*
X49428571Y-130761429D01*
X49428571Y-130961429D01*
X49399999Y-131075714D01*
X49342856Y-131132857D01*
X49285714Y-131161429D01*
X49171428Y-131161429D01*
X49114285Y-131132857D01*
X49057142Y-131075714D01*
X49028571Y-130961429D01*
X49028571Y-130761429D01*
X49057142Y-130647143D01*
X49114285Y-130590000D01*
X49171428Y-130561429D01*
X50028570Y-131161429D02*
X49828570Y-130875714D01*
X49685713Y-131161429D02*
X49685713Y-130561429D01*
X49914285Y-130561429D01*
X49971427Y-130590000D01*
X49999999Y-130618571D01*
X50028570Y-130675714D01*
X50028570Y-130761429D01*
X49999999Y-130818571D01*
X49971427Y-130847143D01*
X49914285Y-130875714D01*
X49685713Y-130875714D01*
X50742856Y-130932857D02*
X51199999Y-130932857D01*
X50971428Y-131161429D02*
X50971428Y-130704286D01*
X51799999Y-131161429D02*
X51457142Y-131161429D01*
X51628570Y-131161429D02*
X51628570Y-130561429D01*
X51571427Y-130647143D01*
X51514285Y-130704286D01*
X51457142Y-130732857D01*
X52028571Y-130618571D02*
X52057142Y-130590000D01*
X52114285Y-130561429D01*
X52257142Y-130561429D01*
X52314285Y-130590000D01*
X52342856Y-130618571D01*
X52371428Y-130675714D01*
X52371428Y-130732857D01*
X52342856Y-130818571D01*
X51999999Y-131161429D01*
X52371428Y-131161429D01*
X52542857Y-130561429D02*
X52742857Y-131161429D01*
X52942857Y-130561429D01*
D15*
X97516668Y-154716667D02*
X97183335Y-154716667D01*
X97183335Y-154016667D01*
X97883335Y-154016667D02*
X98016668Y-154016667D01*
X98083335Y-154050000D01*
X98150002Y-154116667D01*
X98183335Y-154250000D01*
X98183335Y-154483333D01*
X98150002Y-154616667D01*
X98083335Y-154683333D01*
X98016668Y-154716667D01*
X97883335Y-154716667D01*
X97816668Y-154683333D01*
X97750002Y-154616667D01*
X97716668Y-154483333D01*
X97716668Y-154250000D01*
X97750002Y-154116667D01*
X97816668Y-154050000D01*
X97883335Y-154016667D01*
X98616668Y-154016667D02*
X98750001Y-154016667D01*
X98816668Y-154050000D01*
X98883335Y-154116667D01*
X98916668Y-154250000D01*
X98916668Y-154483333D01*
X98883335Y-154616667D01*
X98816668Y-154683333D01*
X98750001Y-154716667D01*
X98616668Y-154716667D01*
X98550001Y-154683333D01*
X98483335Y-154616667D01*
X98450001Y-154483333D01*
X98450001Y-154250000D01*
X98483335Y-154116667D01*
X98550001Y-154050000D01*
X98616668Y-154016667D01*
X99216668Y-154716667D02*
X99216668Y-154016667D01*
X99483334Y-154016667D01*
X99550001Y-154050000D01*
X99583334Y-154083333D01*
X99616668Y-154150000D01*
X99616668Y-154250000D01*
X99583334Y-154316667D01*
X99550001Y-154350000D01*
X99483334Y-154383333D01*
X99216668Y-154383333D01*
X100650001Y-154016667D02*
X100650001Y-154516667D01*
X100616667Y-154616667D01*
X100550001Y-154683333D01*
X100450001Y-154716667D01*
X100383334Y-154716667D01*
X100983334Y-154016667D02*
X100983334Y-154583333D01*
X101016667Y-154650000D01*
X101050000Y-154683333D01*
X101116667Y-154716667D01*
X101250000Y-154716667D01*
X101316667Y-154683333D01*
X101350000Y-154650000D01*
X101383334Y-154583333D01*
X101383334Y-154016667D01*
X101716667Y-154716667D02*
X101716667Y-154016667D01*
X101950000Y-154516667D01*
X102183333Y-154016667D01*
X102183333Y-154716667D01*
X102516667Y-154716667D02*
X102516667Y-154016667D01*
X102783333Y-154016667D01*
X102850000Y-154050000D01*
X102883333Y-154083333D01*
X102916667Y-154150000D01*
X102916667Y-154250000D01*
X102883333Y-154316667D01*
X102850000Y-154350000D01*
X102783333Y-154383333D01*
X102516667Y-154383333D01*
X103216667Y-154350000D02*
X103450000Y-154350000D01*
X103550000Y-154716667D02*
X103216667Y-154716667D01*
X103216667Y-154016667D01*
X103550000Y-154016667D01*
X104250000Y-154716667D02*
X104016666Y-154383333D01*
X103850000Y-154716667D02*
X103850000Y-154016667D01*
X104116666Y-154016667D01*
X104183333Y-154050000D01*
X104216666Y-154083333D01*
X104250000Y-154150000D01*
X104250000Y-154250000D01*
X104216666Y-154316667D01*
X104183333Y-154350000D01*
X104116666Y-154383333D01*
X103850000Y-154383333D01*
D16*
X53526548Y-130033333D02*
X54052738Y-130033333D01*
X54114643Y-130000000D01*
X54145595Y-129966667D01*
X54176548Y-129900000D01*
X54176548Y-129766667D01*
X54145595Y-129700000D01*
X54114643Y-129666667D01*
X54052738Y-129633333D01*
X53526548Y-129633333D01*
X54145595Y-129333334D02*
X54176548Y-129233334D01*
X54176548Y-129066667D01*
X54145595Y-129000000D01*
X54114643Y-128966667D01*
X54052738Y-128933334D01*
X53990833Y-128933334D01*
X53928929Y-128966667D01*
X53897976Y-129000000D01*
X53867024Y-129066667D01*
X53836071Y-129200000D01*
X53805119Y-129266667D01*
X53774167Y-129300000D01*
X53712262Y-129333334D01*
X53650357Y-129333334D01*
X53588452Y-129300000D01*
X53557500Y-129266667D01*
X53526548Y-129200000D01*
X53526548Y-129033334D01*
X53557500Y-128933334D01*
X53836071Y-128400000D02*
X53867024Y-128300000D01*
X53897976Y-128266667D01*
X53959881Y-128233333D01*
X54052738Y-128233333D01*
X54114643Y-128266667D01*
X54145595Y-128300000D01*
X54176548Y-128366667D01*
X54176548Y-128633333D01*
X53526548Y-128633333D01*
X53526548Y-128400000D01*
X53557500Y-128333333D01*
X53588452Y-128300000D01*
X53650357Y-128266667D01*
X53712262Y-128266667D01*
X53774167Y-128300000D01*
X53805119Y-128333333D01*
X53836071Y-128400000D01*
X53836071Y-128633333D01*
X54908571Y-130399999D02*
X54939524Y-130299999D01*
X54970476Y-130266666D01*
X55032381Y-130233332D01*
X55125238Y-130233332D01*
X55187143Y-130266666D01*
X55218095Y-130299999D01*
X55249048Y-130366666D01*
X55249048Y-130633332D01*
X54599048Y-130633332D01*
X54599048Y-130399999D01*
X54630000Y-130333332D01*
X54660952Y-130299999D01*
X54722857Y-130266666D01*
X54784762Y-130266666D01*
X54846667Y-130299999D01*
X54877619Y-130333332D01*
X54908571Y-130399999D01*
X54908571Y-130633332D01*
X54599048Y-129799999D02*
X54599048Y-129666666D01*
X54630000Y-129599999D01*
X54691905Y-129533332D01*
X54815714Y-129499999D01*
X55032381Y-129499999D01*
X55156190Y-129533332D01*
X55218095Y-129599999D01*
X55249048Y-129666666D01*
X55249048Y-129799999D01*
X55218095Y-129866666D01*
X55156190Y-129933332D01*
X55032381Y-129966666D01*
X54815714Y-129966666D01*
X54691905Y-129933332D01*
X54630000Y-129866666D01*
X54599048Y-129799999D01*
X54599048Y-129066666D02*
X54599048Y-128933333D01*
X54630000Y-128866666D01*
X54691905Y-128799999D01*
X54815714Y-128766666D01*
X55032381Y-128766666D01*
X55156190Y-128799999D01*
X55218095Y-128866666D01*
X55249048Y-128933333D01*
X55249048Y-129066666D01*
X55218095Y-129133333D01*
X55156190Y-129199999D01*
X55032381Y-129233333D01*
X54815714Y-129233333D01*
X54691905Y-129199999D01*
X54630000Y-129133333D01*
X54599048Y-129066666D01*
X54599048Y-128566666D02*
X54599048Y-128166666D01*
X55249048Y-128366666D02*
X54599048Y-128366666D01*
X57146429Y-130733334D02*
X57146429Y-130200001D01*
X57394048Y-130466668D02*
X56898810Y-130466668D01*
X57394048Y-129500001D02*
X57394048Y-129900001D01*
X57394048Y-129700001D02*
X56744048Y-129700001D01*
X56836905Y-129766667D01*
X56898810Y-129833334D01*
X56929762Y-129900001D01*
X56805952Y-129233334D02*
X56775000Y-129200000D01*
X56744048Y-129133334D01*
X56744048Y-128966667D01*
X56775000Y-128900000D01*
X56805952Y-128866667D01*
X56867857Y-128833334D01*
X56929762Y-128833334D01*
X57022619Y-128866667D01*
X57394048Y-129266667D01*
X57394048Y-128833334D01*
X56744048Y-128633333D02*
X57394048Y-128400000D01*
X56744048Y-128166667D01*
X59539048Y-131399999D02*
X58889048Y-131399999D01*
X58889048Y-131233333D01*
X58920000Y-131133333D01*
X58981905Y-131066666D01*
X59043810Y-131033333D01*
X59167619Y-130999999D01*
X59260476Y-130999999D01*
X59384286Y-131033333D01*
X59446190Y-131066666D01*
X59508095Y-131133333D01*
X59539048Y-131233333D01*
X59539048Y-131399999D01*
X59198571Y-130699999D02*
X59198571Y-130466666D01*
X59539048Y-130366666D02*
X59539048Y-130699999D01*
X58889048Y-130699999D01*
X58889048Y-130366666D01*
X59198571Y-129833333D02*
X59229524Y-129733333D01*
X59260476Y-129700000D01*
X59322381Y-129666666D01*
X59415238Y-129666666D01*
X59477143Y-129700000D01*
X59508095Y-129733333D01*
X59539048Y-129800000D01*
X59539048Y-130066666D01*
X58889048Y-130066666D01*
X58889048Y-129833333D01*
X58920000Y-129766666D01*
X58950952Y-129733333D01*
X59012857Y-129700000D01*
X59074762Y-129700000D01*
X59136667Y-129733333D01*
X59167619Y-129766666D01*
X59198571Y-129833333D01*
X59198571Y-130066666D01*
X58889048Y-129366666D02*
X59415238Y-129366666D01*
X59477143Y-129333333D01*
X59508095Y-129300000D01*
X59539048Y-129233333D01*
X59539048Y-129100000D01*
X59508095Y-129033333D01*
X59477143Y-129000000D01*
X59415238Y-128966666D01*
X58889048Y-128966666D01*
X58920000Y-128266667D02*
X58889048Y-128333333D01*
X58889048Y-128433333D01*
X58920000Y-128533333D01*
X58981905Y-128600000D01*
X59043810Y-128633333D01*
X59167619Y-128666667D01*
X59260476Y-128666667D01*
X59384286Y-128633333D01*
X59446190Y-128600000D01*
X59508095Y-128533333D01*
X59539048Y-128433333D01*
X59539048Y-128366667D01*
X59508095Y-128266667D01*
X59477143Y-128233333D01*
X59260476Y-128233333D01*
X59260476Y-128366667D01*
X59961548Y-130033333D02*
X60487738Y-130033333D01*
X60549643Y-130000000D01*
X60580595Y-129966667D01*
X60611548Y-129900000D01*
X60611548Y-129766667D01*
X60580595Y-129700000D01*
X60549643Y-129666667D01*
X60487738Y-129633333D01*
X59961548Y-129633333D01*
X60580595Y-129333334D02*
X60611548Y-129233334D01*
X60611548Y-129066667D01*
X60580595Y-129000000D01*
X60549643Y-128966667D01*
X60487738Y-128933334D01*
X60425833Y-128933334D01*
X60363929Y-128966667D01*
X60332976Y-129000000D01*
X60302024Y-129066667D01*
X60271071Y-129200000D01*
X60240119Y-129266667D01*
X60209167Y-129300000D01*
X60147262Y-129333334D01*
X60085357Y-129333334D01*
X60023452Y-129300000D01*
X59992500Y-129266667D01*
X59961548Y-129200000D01*
X59961548Y-129033334D01*
X59992500Y-128933334D01*
X60271071Y-128400000D02*
X60302024Y-128300000D01*
X60332976Y-128266667D01*
X60394881Y-128233333D01*
X60487738Y-128233333D01*
X60549643Y-128266667D01*
X60580595Y-128300000D01*
X60611548Y-128366667D01*
X60611548Y-128633333D01*
X59961548Y-128633333D01*
X59961548Y-128400000D01*
X59992500Y-128333333D01*
X60023452Y-128300000D01*
X60085357Y-128266667D01*
X60147262Y-128266667D01*
X60209167Y-128300000D01*
X60240119Y-128333333D01*
X60271071Y-128400000D01*
X60271071Y-128633333D01*
D11*
X104750001Y-128278571D02*
X104250001Y-127564286D01*
X103892858Y-128278571D02*
X103892858Y-126778571D01*
X104464286Y-126778571D01*
X104607144Y-126850000D01*
X104678572Y-126921429D01*
X104750001Y-127064286D01*
X104750001Y-127278571D01*
X104678572Y-127421429D01*
X104607144Y-127492857D01*
X104464286Y-127564286D01*
X103892858Y-127564286D01*
X105250001Y-126778571D02*
X106250001Y-128278571D01*
X106250001Y-126778571D02*
X105250001Y-128278571D01*
X103857143Y-121278571D02*
X104714286Y-121278571D01*
X104285715Y-122778571D02*
X104285715Y-121278571D01*
X105071429Y-121278571D02*
X106071429Y-122778571D01*
X106071429Y-121278571D02*
X105071429Y-122778571D01*
D15*
X97383334Y-117683333D02*
X97483334Y-117716667D01*
X97650001Y-117716667D01*
X97716668Y-117683333D01*
X97750001Y-117650000D01*
X97783334Y-117583333D01*
X97783334Y-117516667D01*
X97750001Y-117450000D01*
X97716668Y-117416667D01*
X97650001Y-117383333D01*
X97516668Y-117350000D01*
X97450001Y-117316667D01*
X97416668Y-117283333D01*
X97383334Y-117216667D01*
X97383334Y-117150000D01*
X97416668Y-117083333D01*
X97450001Y-117050000D01*
X97516668Y-117016667D01*
X97683334Y-117016667D01*
X97783334Y-117050000D01*
X98083335Y-117350000D02*
X98316668Y-117350000D01*
X98416668Y-117716667D02*
X98083335Y-117716667D01*
X98083335Y-117016667D01*
X98416668Y-117016667D01*
X99116668Y-117716667D02*
X98883334Y-117383333D01*
X98716668Y-117716667D02*
X98716668Y-117016667D01*
X98983334Y-117016667D01*
X99050001Y-117050000D01*
X99083334Y-117083333D01*
X99116668Y-117150000D01*
X99116668Y-117250000D01*
X99083334Y-117316667D01*
X99050001Y-117350000D01*
X98983334Y-117383333D01*
X98716668Y-117383333D01*
X99416668Y-117716667D02*
X99416668Y-117016667D01*
X99716667Y-117516667D02*
X100050001Y-117516667D01*
X99650001Y-117716667D02*
X99883334Y-117016667D01*
X100116667Y-117716667D01*
X100683334Y-117716667D02*
X100350001Y-117716667D01*
X100350001Y-117016667D01*
X101450001Y-117716667D02*
X101450001Y-117016667D01*
X101616667Y-117016667D01*
X101716667Y-117050000D01*
X101783334Y-117116667D01*
X101816667Y-117183333D01*
X101850001Y-117316667D01*
X101850001Y-117416667D01*
X101816667Y-117550000D01*
X101783334Y-117616667D01*
X101716667Y-117683333D01*
X101616667Y-117716667D01*
X101450001Y-117716667D01*
X102150001Y-117350000D02*
X102383334Y-117350000D01*
X102483334Y-117716667D02*
X102150001Y-117716667D01*
X102150001Y-117016667D01*
X102483334Y-117016667D01*
X103016667Y-117350000D02*
X103116667Y-117383333D01*
X103150000Y-117416667D01*
X103183334Y-117483333D01*
X103183334Y-117583333D01*
X103150000Y-117650000D01*
X103116667Y-117683333D01*
X103050000Y-117716667D01*
X102783334Y-117716667D01*
X102783334Y-117016667D01*
X103016667Y-117016667D01*
X103083334Y-117050000D01*
X103116667Y-117083333D01*
X103150000Y-117150000D01*
X103150000Y-117216667D01*
X103116667Y-117283333D01*
X103083334Y-117316667D01*
X103016667Y-117350000D01*
X102783334Y-117350000D01*
X103483334Y-117016667D02*
X103483334Y-117583333D01*
X103516667Y-117650000D01*
X103550000Y-117683333D01*
X103616667Y-117716667D01*
X103750000Y-117716667D01*
X103816667Y-117683333D01*
X103850000Y-117650000D01*
X103883334Y-117583333D01*
X103883334Y-117016667D01*
X104583333Y-117050000D02*
X104516667Y-117016667D01*
X104416667Y-117016667D01*
X104316667Y-117050000D01*
X104250000Y-117116667D01*
X104216667Y-117183333D01*
X104183333Y-117316667D01*
X104183333Y-117416667D01*
X104216667Y-117550000D01*
X104250000Y-117616667D01*
X104316667Y-117683333D01*
X104416667Y-117716667D01*
X104483333Y-117716667D01*
X104583333Y-117683333D01*
X104616667Y-117650000D01*
X104616667Y-117416667D01*
X104483333Y-117416667D01*
D11*
X41392857Y-117335714D02*
X41464286Y-117121428D01*
X41535714Y-117050000D01*
X41678571Y-116978571D01*
X41892857Y-116978571D01*
X42035714Y-117050000D01*
X42107143Y-117121428D01*
X42178571Y-117264286D01*
X42178571Y-117835714D01*
X40678571Y-117835714D01*
X40678571Y-117335714D01*
X40750000Y-117192857D01*
X40821429Y-117121428D01*
X40964286Y-117050000D01*
X41107143Y-117050000D01*
X41250000Y-117121428D01*
X41321429Y-117192857D01*
X41392857Y-117335714D01*
X41392857Y-117835714D01*
X40678571Y-116050000D02*
X40678571Y-115764286D01*
X40750000Y-115621428D01*
X40892857Y-115478571D01*
X41178571Y-115407143D01*
X41678571Y-115407143D01*
X41964286Y-115478571D01*
X42107143Y-115621428D01*
X42178571Y-115764286D01*
X42178571Y-116050000D01*
X42107143Y-116192857D01*
X41964286Y-116335714D01*
X41678571Y-116407143D01*
X41178571Y-116407143D01*
X40892857Y-116335714D01*
X40750000Y-116192857D01*
X40678571Y-116050000D01*
X40678571Y-114478571D02*
X40678571Y-114192857D01*
X40750000Y-114049999D01*
X40892857Y-113907142D01*
X41178571Y-113835714D01*
X41678571Y-113835714D01*
X41964286Y-113907142D01*
X42107143Y-114049999D01*
X42178571Y-114192857D01*
X42178571Y-114478571D01*
X42107143Y-114621428D01*
X41964286Y-114764285D01*
X41678571Y-114835714D01*
X41178571Y-114835714D01*
X40892857Y-114764285D01*
X40750000Y-114621428D01*
X40678571Y-114478571D01*
X40678571Y-113407142D02*
X40678571Y-112549999D01*
X42178571Y-112978570D02*
X40678571Y-112978570D01*
X79907143Y-117742856D02*
X79907143Y-116599999D01*
X80478571Y-117171428D02*
X79335714Y-117171428D01*
X80478571Y-115099999D02*
X80478571Y-115957142D01*
X80478571Y-115528570D02*
X78978571Y-115528570D01*
X79192857Y-115671427D01*
X79335714Y-115814285D01*
X79407143Y-115957142D01*
X79121429Y-114528571D02*
X79050000Y-114457142D01*
X78978571Y-114314285D01*
X78978571Y-113957142D01*
X79050000Y-113814285D01*
X79121429Y-113742856D01*
X79264286Y-113671428D01*
X79407143Y-113671428D01*
X79621429Y-113742856D01*
X80478571Y-114599999D01*
X80478571Y-113671428D01*
X78978571Y-113242857D02*
X80478571Y-112742857D01*
X78978571Y-112242857D01*
X64050000Y-119278571D02*
X64050000Y-120350000D01*
X63978572Y-120564286D01*
X63835715Y-120707143D01*
X63621429Y-120778571D01*
X63478572Y-120778571D01*
X64550000Y-119278571D02*
X65407143Y-119278571D01*
X64978572Y-120778571D02*
X64978572Y-119278571D01*
X65835714Y-120350000D02*
X66550000Y-120350000D01*
X65692857Y-120778571D02*
X66192857Y-119278571D01*
X66692857Y-120778571D01*
X67978571Y-119350000D02*
X67835714Y-119278571D01*
X67621428Y-119278571D01*
X67407143Y-119350000D01*
X67264285Y-119492857D01*
X67192857Y-119635714D01*
X67121428Y-119921429D01*
X67121428Y-120135714D01*
X67192857Y-120421429D01*
X67264285Y-120564286D01*
X67407143Y-120707143D01*
X67621428Y-120778571D01*
X67764285Y-120778571D01*
X67978571Y-120707143D01*
X68050000Y-120635714D01*
X68050000Y-120135714D01*
X67764285Y-120135714D01*
X63471428Y-112450000D02*
X64185714Y-112450000D01*
X63328571Y-112878571D02*
X63828571Y-111378571D01*
X64328571Y-112878571D01*
X64828571Y-112307143D02*
X65971428Y-112307143D01*
X66542857Y-111378571D02*
X66900000Y-112878571D01*
X67185714Y-111807143D01*
X67471428Y-112878571D01*
X67828571Y-111378571D01*
X68400000Y-112878571D02*
X68400000Y-111378571D01*
X69971429Y-112878571D02*
X69471429Y-112164286D01*
X69114286Y-112878571D02*
X69114286Y-111378571D01*
X69685714Y-111378571D01*
X69828572Y-111450000D01*
X69900000Y-111521429D01*
X69971429Y-111664286D01*
X69971429Y-111878571D01*
X69900000Y-112021429D01*
X69828572Y-112092857D01*
X69685714Y-112164286D01*
X69114286Y-112164286D01*
X70614286Y-112092857D02*
X71114286Y-112092857D01*
X71328572Y-112878571D02*
X70614286Y-112878571D01*
X70614286Y-111378571D01*
X71328572Y-111378571D01*
D15*
X61115857Y-150433333D02*
X60335857Y-150433333D01*
X61190143Y-150266667D02*
X61190143Y-149733334D01*
X61115857Y-149166667D02*
X60744429Y-149400001D01*
X61115857Y-149566667D02*
X60335857Y-149566667D01*
X60335857Y-149300001D01*
X60373000Y-149233334D01*
X60410143Y-149200001D01*
X60484429Y-149166667D01*
X60595857Y-149166667D01*
X60670143Y-149200001D01*
X60707286Y-149233334D01*
X60744429Y-149300001D01*
X60744429Y-149566667D01*
X60335857Y-148933334D02*
X61115857Y-148466667D01*
X60335857Y-148466667D02*
X61115857Y-148933334D01*
X63649857Y-150433333D02*
X62869857Y-150433333D01*
X63724143Y-150266667D02*
X63724143Y-149733334D01*
X62869857Y-149666667D02*
X62869857Y-149266667D01*
X63649857Y-149466667D02*
X62869857Y-149466667D01*
X62869857Y-149100001D02*
X63649857Y-148633334D01*
X62869857Y-148633334D02*
X63649857Y-149100001D01*
X66183857Y-150433333D02*
X65403857Y-150433333D01*
X65961000Y-150200000D01*
X65403857Y-149966667D01*
X66183857Y-149966667D01*
X65403857Y-149500000D02*
X65403857Y-149366667D01*
X65441000Y-149300000D01*
X65515286Y-149233333D01*
X65663857Y-149200000D01*
X65923857Y-149200000D01*
X66072429Y-149233333D01*
X66146714Y-149300000D01*
X66183857Y-149366667D01*
X66183857Y-149500000D01*
X66146714Y-149566667D01*
X66072429Y-149633333D01*
X65923857Y-149666667D01*
X65663857Y-149666667D01*
X65515286Y-149633333D01*
X65441000Y-149566667D01*
X65403857Y-149500000D01*
X66146714Y-148933334D02*
X66183857Y-148833334D01*
X66183857Y-148666667D01*
X66146714Y-148600000D01*
X66109571Y-148566667D01*
X66035286Y-148533334D01*
X65961000Y-148533334D01*
X65886714Y-148566667D01*
X65849571Y-148600000D01*
X65812429Y-148666667D01*
X65775286Y-148800000D01*
X65738143Y-148866667D01*
X65701000Y-148900000D01*
X65626714Y-148933334D01*
X65552429Y-148933334D01*
X65478143Y-148900000D01*
X65441000Y-148866667D01*
X65403857Y-148800000D01*
X65403857Y-148633334D01*
X65441000Y-148533334D01*
X66183857Y-148233333D02*
X65403857Y-148233333D01*
X68717857Y-150433333D02*
X67937857Y-150433333D01*
X68495000Y-150200000D01*
X67937857Y-149966667D01*
X68717857Y-149966667D01*
X68717857Y-149633333D02*
X67937857Y-149633333D01*
X68680714Y-149333334D02*
X68717857Y-149233334D01*
X68717857Y-149066667D01*
X68680714Y-149000000D01*
X68643571Y-148966667D01*
X68569286Y-148933334D01*
X68495000Y-148933334D01*
X68420714Y-148966667D01*
X68383571Y-149000000D01*
X68346429Y-149066667D01*
X68309286Y-149200000D01*
X68272143Y-149266667D01*
X68235000Y-149300000D01*
X68160714Y-149333334D01*
X68086429Y-149333334D01*
X68012143Y-149300000D01*
X67975000Y-149266667D01*
X67937857Y-149200000D01*
X67937857Y-149033334D01*
X67975000Y-148933334D01*
X67937857Y-148500000D02*
X67937857Y-148366667D01*
X67975000Y-148300000D01*
X68049286Y-148233333D01*
X68197857Y-148200000D01*
X68457857Y-148200000D01*
X68606429Y-148233333D01*
X68680714Y-148300000D01*
X68717857Y-148366667D01*
X68717857Y-148500000D01*
X68680714Y-148566667D01*
X68606429Y-148633333D01*
X68457857Y-148666667D01*
X68197857Y-148666667D01*
X68049286Y-148633333D01*
X67975000Y-148566667D01*
X67937857Y-148500000D01*
X71214714Y-150466667D02*
X71251857Y-150366667D01*
X71251857Y-150200000D01*
X71214714Y-150133333D01*
X71177571Y-150100000D01*
X71103286Y-150066667D01*
X71029000Y-150066667D01*
X70954714Y-150100000D01*
X70917571Y-150133333D01*
X70880429Y-150200000D01*
X70843286Y-150333333D01*
X70806143Y-150400000D01*
X70769000Y-150433333D01*
X70694714Y-150466667D01*
X70620429Y-150466667D01*
X70546143Y-150433333D01*
X70509000Y-150400000D01*
X70471857Y-150333333D01*
X70471857Y-150166667D01*
X70509000Y-150066667D01*
X71177571Y-149366666D02*
X71214714Y-149400000D01*
X71251857Y-149500000D01*
X71251857Y-149566666D01*
X71214714Y-149666666D01*
X71140429Y-149733333D01*
X71066143Y-149766666D01*
X70917571Y-149800000D01*
X70806143Y-149800000D01*
X70657571Y-149766666D01*
X70583286Y-149733333D01*
X70509000Y-149666666D01*
X70471857Y-149566666D01*
X70471857Y-149500000D01*
X70509000Y-149400000D01*
X70546143Y-149366666D01*
X71251857Y-148733333D02*
X71251857Y-149066666D01*
X70471857Y-149066666D01*
X71251857Y-148499999D02*
X70471857Y-148499999D01*
X71251857Y-148099999D02*
X70806143Y-148399999D01*
X70471857Y-148099999D02*
X70917571Y-148499999D01*
X73785857Y-150433333D02*
X73005857Y-150433333D01*
X73711571Y-149700000D02*
X73748714Y-149733334D01*
X73785857Y-149833334D01*
X73785857Y-149900000D01*
X73748714Y-150000000D01*
X73674429Y-150066667D01*
X73600143Y-150100000D01*
X73451571Y-150133334D01*
X73340143Y-150133334D01*
X73191571Y-150100000D01*
X73117286Y-150066667D01*
X73043000Y-150000000D01*
X73005857Y-149900000D01*
X73005857Y-149833334D01*
X73043000Y-149733334D01*
X73080143Y-149700000D01*
X73748714Y-149433334D02*
X73785857Y-149333334D01*
X73785857Y-149166667D01*
X73748714Y-149100000D01*
X73711571Y-149066667D01*
X73637286Y-149033334D01*
X73563000Y-149033334D01*
X73488714Y-149066667D01*
X73451571Y-149100000D01*
X73414429Y-149166667D01*
X73377286Y-149300000D01*
X73340143Y-149366667D01*
X73303000Y-149400000D01*
X73228714Y-149433334D01*
X73154429Y-149433334D01*
X73080143Y-149400000D01*
X73043000Y-149366667D01*
X73005857Y-149300000D01*
X73005857Y-149133334D01*
X73043000Y-149033334D01*
X76245571Y-150033333D02*
X76282714Y-150066667D01*
X76319857Y-150166667D01*
X76319857Y-150233333D01*
X76282714Y-150333333D01*
X76208429Y-150400000D01*
X76134143Y-150433333D01*
X75985571Y-150466667D01*
X75874143Y-150466667D01*
X75725571Y-150433333D01*
X75651286Y-150400000D01*
X75577000Y-150333333D01*
X75539857Y-150233333D01*
X75539857Y-150166667D01*
X75577000Y-150066667D01*
X75614143Y-150033333D01*
X76245571Y-149333333D02*
X76282714Y-149366667D01*
X76319857Y-149466667D01*
X76319857Y-149533333D01*
X76282714Y-149633333D01*
X76208429Y-149700000D01*
X76134143Y-149733333D01*
X75985571Y-149766667D01*
X75874143Y-149766667D01*
X75725571Y-149733333D01*
X75651286Y-149700000D01*
X75577000Y-149633333D01*
X75539857Y-149533333D01*
X75539857Y-149466667D01*
X75577000Y-149366667D01*
X75614143Y-149333333D01*
X76282714Y-149066667D02*
X76319857Y-148966667D01*
X76319857Y-148800000D01*
X76282714Y-148733333D01*
X76245571Y-148700000D01*
X76171286Y-148666667D01*
X76097000Y-148666667D01*
X76022714Y-148700000D01*
X75985571Y-148733333D01*
X75948429Y-148800000D01*
X75911286Y-148933333D01*
X75874143Y-149000000D01*
X75837000Y-149033333D01*
X75762714Y-149066667D01*
X75688429Y-149066667D01*
X75614143Y-149033333D01*
X75577000Y-149000000D01*
X75539857Y-148933333D01*
X75539857Y-148766667D01*
X75577000Y-148666667D01*
X78853857Y-150033333D02*
X78482429Y-150266667D01*
X78853857Y-150433333D02*
X78073857Y-150433333D01*
X78073857Y-150166667D01*
X78111000Y-150100000D01*
X78148143Y-150066667D01*
X78222429Y-150033333D01*
X78333857Y-150033333D01*
X78408143Y-150066667D01*
X78445286Y-150100000D01*
X78482429Y-150166667D01*
X78482429Y-150433333D01*
X78073857Y-149800000D02*
X78853857Y-149333333D01*
X78073857Y-149333333D02*
X78853857Y-149800000D01*
X78853857Y-149066666D02*
X78073857Y-149066666D01*
X78073857Y-148900000D01*
X78111000Y-148800000D01*
X78185286Y-148733333D01*
X78259571Y-148700000D01*
X78408143Y-148666666D01*
X78519571Y-148666666D01*
X78668143Y-148700000D01*
X78742429Y-148733333D01*
X78816714Y-148800000D01*
X78853857Y-148900000D01*
X78853857Y-149066666D01*
X80607857Y-150533333D02*
X80607857Y-150133333D01*
X81387857Y-150333333D02*
X80607857Y-150333333D01*
X80607857Y-149966667D02*
X81387857Y-149500000D01*
X80607857Y-149500000D02*
X81387857Y-149966667D01*
X81387857Y-149233333D02*
X80607857Y-149233333D01*
X80607857Y-149066667D01*
X80645000Y-148966667D01*
X80719286Y-148900000D01*
X80793571Y-148866667D01*
X80942143Y-148833333D01*
X81053571Y-148833333D01*
X81202143Y-148866667D01*
X81276429Y-148900000D01*
X81350714Y-148966667D01*
X81387857Y-149066667D01*
X81387857Y-149233333D01*
X83847571Y-150033333D02*
X83884714Y-150066667D01*
X83921857Y-150166667D01*
X83921857Y-150233333D01*
X83884714Y-150333333D01*
X83810429Y-150400000D01*
X83736143Y-150433333D01*
X83587571Y-150466667D01*
X83476143Y-150466667D01*
X83327571Y-150433333D01*
X83253286Y-150400000D01*
X83179000Y-150333333D01*
X83141857Y-150233333D01*
X83141857Y-150166667D01*
X83179000Y-150066667D01*
X83216143Y-150033333D01*
X83996143Y-149900000D02*
X83996143Y-149366667D01*
X83141857Y-149300000D02*
X83141857Y-148900000D01*
X83921857Y-149100000D02*
X83141857Y-149100000D01*
X83141857Y-148733334D02*
X83921857Y-148266667D01*
X83141857Y-148266667D02*
X83921857Y-148733334D01*
X86381571Y-150033333D02*
X86418714Y-150066667D01*
X86455857Y-150166667D01*
X86455857Y-150233333D01*
X86418714Y-150333333D01*
X86344429Y-150400000D01*
X86270143Y-150433333D01*
X86121571Y-150466667D01*
X86010143Y-150466667D01*
X85861571Y-150433333D01*
X85787286Y-150400000D01*
X85713000Y-150333333D01*
X85675857Y-150233333D01*
X85675857Y-150166667D01*
X85713000Y-150066667D01*
X85750143Y-150033333D01*
X86530143Y-149900000D02*
X86530143Y-149366667D01*
X86455857Y-148800000D02*
X86084429Y-149033334D01*
X86455857Y-149200000D02*
X85675857Y-149200000D01*
X85675857Y-148933334D01*
X85713000Y-148866667D01*
X85750143Y-148833334D01*
X85824429Y-148800000D01*
X85935857Y-148800000D01*
X86010143Y-148833334D01*
X86047286Y-148866667D01*
X86084429Y-148933334D01*
X86084429Y-149200000D01*
X85675857Y-148566667D02*
X86455857Y-148100000D01*
X85675857Y-148100000D02*
X86455857Y-148566667D01*
X88247000Y-150066667D02*
X88209857Y-150133333D01*
X88209857Y-150233333D01*
X88247000Y-150333333D01*
X88321286Y-150400000D01*
X88395571Y-150433333D01*
X88544143Y-150466667D01*
X88655571Y-150466667D01*
X88804143Y-150433333D01*
X88878429Y-150400000D01*
X88952714Y-150333333D01*
X88989857Y-150233333D01*
X88989857Y-150166667D01*
X88952714Y-150066667D01*
X88915571Y-150033333D01*
X88655571Y-150033333D01*
X88655571Y-150166667D01*
X88989857Y-149733333D02*
X88209857Y-149733333D01*
X88989857Y-149333333D01*
X88209857Y-149333333D01*
X88989857Y-149000000D02*
X88209857Y-149000000D01*
X88209857Y-148833334D01*
X88247000Y-148733334D01*
X88321286Y-148666667D01*
X88395571Y-148633334D01*
X88544143Y-148600000D01*
X88655571Y-148600000D01*
X88804143Y-148633334D01*
X88878429Y-148666667D01*
X88952714Y-148733334D01*
X88989857Y-148833334D01*
X88989857Y-149000000D01*
D14*
X27935000Y-151009000D02*
X27935000Y-133864000D01*
X38730000Y-133229000D02*
X38730000Y-151644000D01*
X38730000Y-132594000D02*
X38730000Y-133229000D01*
X35555000Y-132594000D02*
X35555000Y-152279000D01*
X35555000Y-126879000D02*
X35555000Y-132594000D01*
X34285000Y-157994000D02*
X34285000Y-126879000D01*
X34285000Y-133864000D02*
X27935000Y-133864000D01*
X35555000Y-126879000D02*
X34285000Y-126879000D01*
X38730000Y-132594000D02*
X35555000Y-132594000D01*
X40000000Y-135134000D02*
X40000000Y-133229000D01*
X40000000Y-133229000D02*
X38730000Y-133229000D01*
X34285000Y-151009000D02*
X27935000Y-151009000D01*
X35555000Y-152279000D02*
X35555000Y-157994000D01*
X35555000Y-157994000D02*
X34285000Y-157994000D01*
X38730000Y-151644000D02*
X38730000Y-152279000D01*
X38730000Y-152279000D02*
X35555000Y-152279000D01*
X40000000Y-149739000D02*
X40000000Y-151644000D01*
X40000000Y-151644000D02*
X38730000Y-151644000D01*
X44500000Y-119675000D02*
X43500000Y-119675000D01*
X43500000Y-118325000D02*
X44500000Y-118325000D01*
X98500000Y-119675000D02*
X97500000Y-119675000D01*
X97500000Y-118325000D02*
X98500000Y-118325000D01*
X97500000Y-120825000D02*
X98500000Y-120825000D01*
X98500000Y-122175000D02*
X97500000Y-122175000D01*
X61000000Y-135825000D02*
X62000000Y-135825000D01*
X62000000Y-137175000D02*
X61000000Y-137175000D01*
X61000000Y-138325000D02*
X62000000Y-138325000D01*
X62000000Y-139675000D02*
X61000000Y-139675000D01*
X44100000Y-134675000D02*
X43100000Y-134675000D01*
X43100000Y-133325000D02*
X44100000Y-133325000D01*
X48400000Y-121600000D02*
X52100000Y-121600000D01*
X48400000Y-123400000D02*
X52100000Y-123400000D01*
X49500000Y-118325000D02*
X50500000Y-118325000D01*
X50500000Y-119675000D02*
X49500000Y-119675000D01*
X96700000Y-146525000D02*
X97700000Y-146525000D01*
X97700000Y-147875000D02*
X96700000Y-147875000D01*
X71700000Y-147175000D02*
X70700000Y-147175000D01*
X70700000Y-145825000D02*
X71700000Y-145825000D01*
X93000000Y-120825000D02*
X94000000Y-120825000D01*
X94000000Y-122175000D02*
X93000000Y-122175000D01*
X85000000Y-142175000D02*
X84000000Y-142175000D01*
X84000000Y-140825000D02*
X85000000Y-140825000D01*
X43000000Y-121025000D02*
X45000000Y-121025000D01*
X45000000Y-123975000D02*
X43000000Y-123975000D01*
X94500000Y-116975000D02*
X92500000Y-116975000D01*
X92500000Y-114025000D02*
X94500000Y-114025000D01*
X45000000Y-127975000D02*
X43000000Y-127975000D01*
X43000000Y-125025000D02*
X45000000Y-125025000D01*
X84000000Y-143325000D02*
X85000000Y-143325000D01*
X85000000Y-144675000D02*
X84000000Y-144675000D01*
X84000000Y-145825000D02*
X85000000Y-145825000D01*
X85000000Y-147175000D02*
X84000000Y-147175000D01*
X82500000Y-128325000D02*
X83500000Y-128325000D01*
X83500000Y-129675000D02*
X82500000Y-129675000D01*
X88000000Y-129675000D02*
X87000000Y-129675000D01*
X87000000Y-128325000D02*
X88000000Y-128325000D01*
X104500000Y-129825000D02*
X105500000Y-129825000D01*
X105500000Y-131175000D02*
X104500000Y-131175000D01*
X104500000Y-132825000D02*
X105500000Y-132825000D01*
X105500000Y-134175000D02*
X104500000Y-134175000D01*
X44000000Y-132175000D02*
X43000000Y-132175000D01*
X43000000Y-130825000D02*
X44000000Y-130825000D01*
X88000000Y-135675000D02*
X87000000Y-135675000D01*
X87000000Y-134325000D02*
X88000000Y-134325000D01*
X88000000Y-132675000D02*
X87000000Y-132675000D01*
X87000000Y-131325000D02*
X88000000Y-131325000D01*
X75000000Y-116825000D02*
X76000000Y-116825000D01*
X76000000Y-118175000D02*
X75000000Y-118175000D01*
X94330960Y-150839220D02*
X94330960Y-150229620D01*
X94330960Y-150229620D02*
X93899160Y-150219460D01*
X89800880Y-113999500D02*
X80799120Y-113999500D01*
X89800880Y-110499380D02*
X80799120Y-110499380D01*
X80799120Y-110499380D02*
X80799120Y-125000240D01*
X80799120Y-125000240D02*
X89800880Y-125000240D01*
X89800880Y-125000240D02*
X89800880Y-110499380D01*
X76070000Y-121190000D02*
X63370000Y-121190000D01*
X63370000Y-121190000D02*
X63370000Y-126270000D01*
X63370000Y-126270000D02*
X73530000Y-126270000D01*
X76070000Y-121190000D02*
X76070000Y-123730000D01*
X74800000Y-126550000D02*
X76350000Y-126550000D01*
X76070000Y-123730000D02*
X73530000Y-123730000D01*
X73530000Y-123730000D02*
X73530000Y-126270000D01*
X76350000Y-126550000D02*
X76350000Y-125000000D01*
X63450000Y-118370000D02*
X68530000Y-118370000D01*
X71350000Y-118650000D02*
X69800000Y-118650000D01*
X71070000Y-115830000D02*
X68530000Y-115830000D01*
X68530000Y-115830000D02*
X68530000Y-118370000D01*
X63450000Y-118370000D02*
X63450000Y-113290000D01*
X63450000Y-113290000D02*
X68530000Y-113290000D01*
X71350000Y-118650000D02*
X71350000Y-117100000D01*
X71070000Y-113290000D02*
X71070000Y-115830000D01*
X68530000Y-113290000D02*
X71070000Y-113290000D01*
X104500000Y-124750000D02*
X104500000Y-126250000D01*
X104500000Y-126250000D02*
X104750000Y-126250000D01*
X104750000Y-126250000D02*
X104750000Y-124750000D01*
X104750000Y-124750000D02*
X104500000Y-124750000D01*
X105600000Y-126375000D02*
X104400000Y-126375000D01*
X104400000Y-124625000D02*
X105600000Y-124625000D01*
X104500000Y-119250000D02*
X104500000Y-120750000D01*
X104500000Y-120750000D02*
X104750000Y-120750000D01*
X104750000Y-120750000D02*
X104750000Y-119250000D01*
X104750000Y-119250000D02*
X104500000Y-119250000D01*
X105600000Y-120875000D02*
X104400000Y-120875000D01*
X104400000Y-119125000D02*
X105600000Y-119125000D01*
X82500000Y-134250000D02*
X82500000Y-135750000D01*
X82500000Y-135750000D02*
X82750000Y-135750000D01*
X82750000Y-135750000D02*
X82750000Y-134250000D01*
X82750000Y-134250000D02*
X82500000Y-134250000D01*
X83600000Y-135875000D02*
X82400000Y-135875000D01*
X82400000Y-134125000D02*
X83600000Y-134125000D01*
X82500000Y-131250000D02*
X82500000Y-132750000D01*
X82500000Y-132750000D02*
X82750000Y-132750000D01*
X82750000Y-132750000D02*
X82750000Y-131250000D01*
X82750000Y-131250000D02*
X82500000Y-131250000D01*
X83600000Y-132875000D02*
X82400000Y-132875000D01*
X82400000Y-131125000D02*
X83600000Y-131125000D01*
X76000000Y-114750000D02*
X76000000Y-113250000D01*
X76000000Y-113250000D02*
X75750000Y-113250000D01*
X75750000Y-113250000D02*
X75750000Y-114750000D01*
X75750000Y-114750000D02*
X76000000Y-114750000D01*
X74900000Y-113125000D02*
X76100000Y-113125000D01*
X76100000Y-114875000D02*
X74900000Y-114875000D01*
X50000000Y-127750000D02*
X50000000Y-126250000D01*
X50000000Y-126250000D02*
X49750000Y-126250000D01*
X49750000Y-126250000D02*
X49750000Y-127750000D01*
X49750000Y-127750000D02*
X50000000Y-127750000D01*
X48900000Y-126125000D02*
X50100000Y-126125000D01*
X50100000Y-127875000D02*
X48900000Y-127875000D01*
X94000000Y-119750000D02*
X94000000Y-118250000D01*
X94000000Y-118250000D02*
X93750000Y-118250000D01*
X93750000Y-118250000D02*
X93750000Y-119750000D01*
X93750000Y-119750000D02*
X94000000Y-119750000D01*
X92900000Y-118125000D02*
X94100000Y-118125000D01*
X94100000Y-119875000D02*
X92900000Y-119875000D01*
X59500000Y-128050000D02*
X61050000Y-128050000D01*
X61050000Y-128050000D02*
X61050000Y-124950000D01*
X61050000Y-124950000D02*
X59500000Y-124950000D01*
X58230000Y-127770000D02*
X53150000Y-127770000D01*
X53150000Y-127770000D02*
X53150000Y-125230000D01*
X53150000Y-125230000D02*
X58230000Y-125230000D01*
X58230000Y-125230000D02*
X58230000Y-127770000D01*
X51350900Y-110282540D02*
X42650900Y-110282540D01*
X51350900Y-116687540D02*
X42650900Y-116687540D01*
X42650900Y-116687540D02*
X42650900Y-110282540D01*
X42650900Y-111512540D02*
X51350900Y-111512540D01*
X51350900Y-110282540D02*
X51350900Y-116687540D01*
X105350900Y-110282540D02*
X96650900Y-110282540D01*
X105350900Y-116687540D02*
X96650900Y-116687540D01*
X96650900Y-116687540D02*
X96650900Y-110282540D01*
X96650900Y-111512540D02*
X105350900Y-111512540D01*
X105350900Y-110282540D02*
X105350900Y-116687540D01*
X87330000Y-150930000D02*
X59390000Y-150930000D01*
X59390000Y-150930000D02*
X59390000Y-153470000D01*
X59390000Y-153470000D02*
X87330000Y-153470000D01*
X90150000Y-150650000D02*
X88600000Y-150650000D01*
X87330000Y-150930000D02*
X87330000Y-153470000D01*
X88600000Y-153750000D02*
X90150000Y-153750000D01*
X90150000Y-153750000D02*
X90150000Y-150650000D01*
X65500000Y-143325000D02*
X66500000Y-143325000D01*
X66500000Y-144675000D02*
X65500000Y-144675000D01*
X65500000Y-128825000D02*
X66500000Y-128825000D01*
X66500000Y-130175000D02*
X65500000Y-130175000D01*
X61000000Y-140825000D02*
X62000000Y-140825000D01*
X62000000Y-142175000D02*
X61000000Y-142175000D01*
X65500000Y-145825000D02*
X66500000Y-145825000D01*
X66500000Y-147175000D02*
X65500000Y-147175000D01*
X62000000Y-144675000D02*
X61000000Y-144675000D01*
X61000000Y-143325000D02*
X62000000Y-143325000D01*
X79175000Y-132825000D02*
X78100000Y-132825000D01*
X79175000Y-143175000D02*
X78100000Y-143175000D01*
X68825000Y-143175000D02*
X69900000Y-143175000D01*
X68825000Y-132825000D02*
X69900000Y-132825000D01*
X79175000Y-132825000D02*
X79175000Y-133900000D01*
X68825000Y-132825000D02*
X68825000Y-133900000D01*
X68825000Y-143175000D02*
X68825000Y-142100000D01*
X79175000Y-143175000D02*
X79175000Y-142100000D01*
X78100000Y-132825000D02*
X78100000Y-131800000D01*
X91175000Y-131875000D02*
X91825000Y-131875000D01*
X91175000Y-126125000D02*
X91825000Y-126125000D01*
X101825000Y-126125000D02*
X101175000Y-126125000D01*
X101825000Y-131875000D02*
X101175000Y-131875000D01*
X91175000Y-131875000D02*
X91175000Y-126125000D01*
X101825000Y-131875000D02*
X101825000Y-126125000D01*
X91825000Y-131875000D02*
X91825000Y-133475000D01*
X50625000Y-136175000D02*
X50625000Y-136825000D01*
X56375000Y-136175000D02*
X56375000Y-136825000D01*
X56375000Y-146825000D02*
X56375000Y-146175000D01*
X50625000Y-146825000D02*
X50625000Y-146175000D01*
X50625000Y-136175000D02*
X56375000Y-136175000D01*
X50625000Y-146825000D02*
X56375000Y-146825000D01*
X50625000Y-136825000D02*
X49025000Y-136825000D01*
X99925000Y-137025000D02*
X99275000Y-137025000D01*
X99925000Y-142775000D02*
X99275000Y-142775000D01*
X89275000Y-142775000D02*
X89925000Y-142775000D01*
X89275000Y-137025000D02*
X89925000Y-137025000D01*
X99925000Y-137025000D02*
X99925000Y-142775000D01*
X89275000Y-137025000D02*
X89275000Y-142775000D01*
X99275000Y-137025000D02*
X99275000Y-135425000D01*
X61800000Y-135000000D02*
X63100000Y-135000000D01*
X63100000Y-135000000D02*
X63200000Y-134900000D01*
X63200000Y-134900000D02*
X63200000Y-133400000D01*
X60200000Y-134600000D02*
X60200000Y-131400000D01*
X60200000Y-131400000D02*
X62800000Y-131400000D01*
X62800000Y-131400000D02*
X62800000Y-134600000D01*
X62800000Y-134600000D02*
X60200000Y-134600000D01*
X99760110Y-151449780D02*
X102260110Y-151449780D01*
X102260110Y-151449780D02*
X102260110Y-152549780D01*
X102260110Y-152549780D02*
X99760110Y-152549780D01*
X99760110Y-152549780D02*
X99760110Y-151449780D01*
X99510110Y-152799780D02*
X102510110Y-152799780D01*
X99510110Y-151199780D02*
X102510110Y-151199780D01*
X102510110Y-151199780D02*
X102510110Y-152799780D01*
X99510110Y-151199780D02*
X99510110Y-152799780D01*
X98010110Y-153749780D02*
X104010110Y-153749780D01*
X98010110Y-150249780D02*
X104010110Y-150249780D01*
X98010110Y-150249780D02*
X98010110Y-153749780D01*
X104010110Y-150249780D02*
X104010110Y-153749780D01*
X70500000Y-128825000D02*
X71500000Y-128825000D01*
X71500000Y-130175000D02*
X70500000Y-130175000D01*
X53000000Y-132825000D02*
X54000000Y-132825000D01*
X54000000Y-134175000D02*
X53000000Y-134175000D01*
X30308381Y-142833333D02*
X31022667Y-142833333D01*
X31165524Y-142880953D01*
X31260762Y-142976191D01*
X31308381Y-143119048D01*
X31308381Y-143214286D01*
X30403619Y-142404762D02*
X30356000Y-142357143D01*
X30308381Y-142261905D01*
X30308381Y-142023809D01*
X30356000Y-141928571D01*
X30403619Y-141880952D01*
X30498857Y-141833333D01*
X30594095Y-141833333D01*
X30736952Y-141880952D01*
X31308381Y-142452381D01*
X31308381Y-141833333D01*
X42414286Y-119100000D02*
X42442857Y-119128571D01*
X42471429Y-119214285D01*
X42471429Y-119271428D01*
X42442857Y-119357143D01*
X42385714Y-119414285D01*
X42328571Y-119442857D01*
X42214286Y-119471428D01*
X42128571Y-119471428D01*
X42014286Y-119442857D01*
X41957143Y-119414285D01*
X41900000Y-119357143D01*
X41871429Y-119271428D01*
X41871429Y-119214285D01*
X41900000Y-119128571D01*
X41928571Y-119100000D01*
X42471429Y-118528571D02*
X42471429Y-118871428D01*
X42471429Y-118700000D02*
X41871429Y-118700000D01*
X41957143Y-118757143D01*
X42014286Y-118814285D01*
X42042857Y-118871428D01*
X46071429Y-119428571D02*
X46071429Y-119771428D01*
X46071429Y-119600000D02*
X45471429Y-119600000D01*
X45557143Y-119657143D01*
X45614286Y-119714285D01*
X45642857Y-119771428D01*
X45471429Y-119057142D02*
X45471429Y-118999999D01*
X45500000Y-118942856D01*
X45528571Y-118914285D01*
X45585714Y-118885714D01*
X45700000Y-118857142D01*
X45842857Y-118857142D01*
X45957143Y-118885714D01*
X46014286Y-118914285D01*
X46042857Y-118942856D01*
X46071429Y-118999999D01*
X46071429Y-119057142D01*
X46042857Y-119114285D01*
X46014286Y-119142856D01*
X45957143Y-119171428D01*
X45842857Y-119199999D01*
X45700000Y-119199999D01*
X45585714Y-119171428D01*
X45528571Y-119142856D01*
X45500000Y-119114285D01*
X45471429Y-119057142D01*
X46071429Y-118599999D02*
X45471429Y-118599999D01*
X46071429Y-118257142D01*
X45471429Y-118257142D01*
X96414286Y-119100000D02*
X96442857Y-119128571D01*
X96471429Y-119214285D01*
X96471429Y-119271428D01*
X96442857Y-119357143D01*
X96385714Y-119414285D01*
X96328571Y-119442857D01*
X96214286Y-119471428D01*
X96128571Y-119471428D01*
X96014286Y-119442857D01*
X95957143Y-119414285D01*
X95900000Y-119357143D01*
X95871429Y-119271428D01*
X95871429Y-119214285D01*
X95900000Y-119128571D01*
X95928571Y-119100000D01*
X95928571Y-118871428D02*
X95900000Y-118842857D01*
X95871429Y-118785714D01*
X95871429Y-118642857D01*
X95900000Y-118585714D01*
X95928571Y-118557143D01*
X95985714Y-118528571D01*
X96042857Y-118528571D01*
X96128571Y-118557143D01*
X96471429Y-118900000D01*
X96471429Y-118528571D01*
X100071429Y-119428571D02*
X100071429Y-119771428D01*
X100071429Y-119600000D02*
X99471429Y-119600000D01*
X99557143Y-119657143D01*
X99614286Y-119714285D01*
X99642857Y-119771428D01*
X99471429Y-119057142D02*
X99471429Y-118999999D01*
X99500000Y-118942856D01*
X99528571Y-118914285D01*
X99585714Y-118885714D01*
X99700000Y-118857142D01*
X99842857Y-118857142D01*
X99957143Y-118885714D01*
X100014286Y-118914285D01*
X100042857Y-118942856D01*
X100071429Y-118999999D01*
X100071429Y-119057142D01*
X100042857Y-119114285D01*
X100014286Y-119142856D01*
X99957143Y-119171428D01*
X99842857Y-119199999D01*
X99700000Y-119199999D01*
X99585714Y-119171428D01*
X99528571Y-119142856D01*
X99500000Y-119114285D01*
X99471429Y-119057142D01*
X100071429Y-118599999D02*
X99471429Y-118599999D01*
X100071429Y-118257142D01*
X99471429Y-118257142D01*
X96414286Y-121600000D02*
X96442857Y-121628571D01*
X96471429Y-121714285D01*
X96471429Y-121771428D01*
X96442857Y-121857143D01*
X96385714Y-121914285D01*
X96328571Y-121942857D01*
X96214286Y-121971428D01*
X96128571Y-121971428D01*
X96014286Y-121942857D01*
X95957143Y-121914285D01*
X95900000Y-121857143D01*
X95871429Y-121771428D01*
X95871429Y-121714285D01*
X95900000Y-121628571D01*
X95928571Y-121600000D01*
X95871429Y-121400000D02*
X95871429Y-121028571D01*
X96100000Y-121228571D01*
X96100000Y-121142857D01*
X96128571Y-121085714D01*
X96157143Y-121057143D01*
X96214286Y-121028571D01*
X96357143Y-121028571D01*
X96414286Y-121057143D01*
X96442857Y-121085714D01*
X96471429Y-121142857D01*
X96471429Y-121314285D01*
X96442857Y-121371428D01*
X96414286Y-121400000D01*
X100071429Y-122314286D02*
X100071429Y-122657143D01*
X100071429Y-122485715D02*
X99471429Y-122485715D01*
X99557143Y-122542858D01*
X99614286Y-122600000D01*
X99642857Y-122657143D01*
X99471429Y-121942857D02*
X99471429Y-121885714D01*
X99500000Y-121828571D01*
X99528571Y-121800000D01*
X99585714Y-121771429D01*
X99700000Y-121742857D01*
X99842857Y-121742857D01*
X99957143Y-121771429D01*
X100014286Y-121800000D01*
X100042857Y-121828571D01*
X100071429Y-121885714D01*
X100071429Y-121942857D01*
X100042857Y-122000000D01*
X100014286Y-122028571D01*
X99957143Y-122057143D01*
X99842857Y-122085714D01*
X99700000Y-122085714D01*
X99585714Y-122057143D01*
X99528571Y-122028571D01*
X99500000Y-122000000D01*
X99471429Y-121942857D01*
X99471429Y-121371428D02*
X99471429Y-121314285D01*
X99500000Y-121257142D01*
X99528571Y-121228571D01*
X99585714Y-121200000D01*
X99700000Y-121171428D01*
X99842857Y-121171428D01*
X99957143Y-121200000D01*
X100014286Y-121228571D01*
X100042857Y-121257142D01*
X100071429Y-121314285D01*
X100071429Y-121371428D01*
X100042857Y-121428571D01*
X100014286Y-121457142D01*
X99957143Y-121485714D01*
X99842857Y-121514285D01*
X99700000Y-121514285D01*
X99585714Y-121485714D01*
X99528571Y-121457142D01*
X99500000Y-121428571D01*
X99471429Y-121371428D01*
X100071429Y-120914285D02*
X99471429Y-120914285D01*
X100071429Y-120571428D01*
X99471429Y-120571428D01*
X59914286Y-136600000D02*
X59942857Y-136628571D01*
X59971429Y-136714285D01*
X59971429Y-136771428D01*
X59942857Y-136857143D01*
X59885714Y-136914285D01*
X59828571Y-136942857D01*
X59714286Y-136971428D01*
X59628571Y-136971428D01*
X59514286Y-136942857D01*
X59457143Y-136914285D01*
X59400000Y-136857143D01*
X59371429Y-136771428D01*
X59371429Y-136714285D01*
X59400000Y-136628571D01*
X59428571Y-136600000D01*
X59571429Y-136085714D02*
X59971429Y-136085714D01*
X59342857Y-136228571D02*
X59771429Y-136371428D01*
X59771429Y-136000000D01*
X63571429Y-137314286D02*
X63571429Y-137657143D01*
X63571429Y-137485715D02*
X62971429Y-137485715D01*
X63057143Y-137542858D01*
X63114286Y-137600000D01*
X63142857Y-137657143D01*
X62971429Y-136942857D02*
X62971429Y-136885714D01*
X63000000Y-136828571D01*
X63028571Y-136800000D01*
X63085714Y-136771429D01*
X63200000Y-136742857D01*
X63342857Y-136742857D01*
X63457143Y-136771429D01*
X63514286Y-136800000D01*
X63542857Y-136828571D01*
X63571429Y-136885714D01*
X63571429Y-136942857D01*
X63542857Y-137000000D01*
X63514286Y-137028571D01*
X63457143Y-137057143D01*
X63342857Y-137085714D01*
X63200000Y-137085714D01*
X63085714Y-137057143D01*
X63028571Y-137028571D01*
X63000000Y-137000000D01*
X62971429Y-136942857D01*
X62971429Y-136371428D02*
X62971429Y-136314285D01*
X63000000Y-136257142D01*
X63028571Y-136228571D01*
X63085714Y-136200000D01*
X63200000Y-136171428D01*
X63342857Y-136171428D01*
X63457143Y-136200000D01*
X63514286Y-136228571D01*
X63542857Y-136257142D01*
X63571429Y-136314285D01*
X63571429Y-136371428D01*
X63542857Y-136428571D01*
X63514286Y-136457142D01*
X63457143Y-136485714D01*
X63342857Y-136514285D01*
X63200000Y-136514285D01*
X63085714Y-136485714D01*
X63028571Y-136457142D01*
X63000000Y-136428571D01*
X62971429Y-136371428D01*
X63571429Y-135914285D02*
X62971429Y-135914285D01*
X63571429Y-135571428D01*
X62971429Y-135571428D01*
X59914286Y-139100000D02*
X59942857Y-139128571D01*
X59971429Y-139214285D01*
X59971429Y-139271428D01*
X59942857Y-139357143D01*
X59885714Y-139414285D01*
X59828571Y-139442857D01*
X59714286Y-139471428D01*
X59628571Y-139471428D01*
X59514286Y-139442857D01*
X59457143Y-139414285D01*
X59400000Y-139357143D01*
X59371429Y-139271428D01*
X59371429Y-139214285D01*
X59400000Y-139128571D01*
X59428571Y-139100000D01*
X59371429Y-138557143D02*
X59371429Y-138842857D01*
X59657143Y-138871428D01*
X59628571Y-138842857D01*
X59600000Y-138785714D01*
X59600000Y-138642857D01*
X59628571Y-138585714D01*
X59657143Y-138557143D01*
X59714286Y-138528571D01*
X59857143Y-138528571D01*
X59914286Y-138557143D01*
X59942857Y-138585714D01*
X59971429Y-138642857D01*
X59971429Y-138785714D01*
X59942857Y-138842857D01*
X59914286Y-138871428D01*
X63571429Y-139714286D02*
X63571429Y-140057143D01*
X63571429Y-139885715D02*
X62971429Y-139885715D01*
X63057143Y-139942858D01*
X63114286Y-140000000D01*
X63142857Y-140057143D01*
X62971429Y-139342857D02*
X62971429Y-139285714D01*
X63000000Y-139228571D01*
X63028571Y-139200000D01*
X63085714Y-139171429D01*
X63200000Y-139142857D01*
X63342857Y-139142857D01*
X63457143Y-139171429D01*
X63514286Y-139200000D01*
X63542857Y-139228571D01*
X63571429Y-139285714D01*
X63571429Y-139342857D01*
X63542857Y-139400000D01*
X63514286Y-139428571D01*
X63457143Y-139457143D01*
X63342857Y-139485714D01*
X63200000Y-139485714D01*
X63085714Y-139457143D01*
X63028571Y-139428571D01*
X63000000Y-139400000D01*
X62971429Y-139342857D01*
X62971429Y-138771428D02*
X62971429Y-138714285D01*
X63000000Y-138657142D01*
X63028571Y-138628571D01*
X63085714Y-138600000D01*
X63200000Y-138571428D01*
X63342857Y-138571428D01*
X63457143Y-138600000D01*
X63514286Y-138628571D01*
X63542857Y-138657142D01*
X63571429Y-138714285D01*
X63571429Y-138771428D01*
X63542857Y-138828571D01*
X63514286Y-138857142D01*
X63457143Y-138885714D01*
X63342857Y-138914285D01*
X63200000Y-138914285D01*
X63085714Y-138885714D01*
X63028571Y-138857142D01*
X63000000Y-138828571D01*
X62971429Y-138771428D01*
X63571429Y-138314285D02*
X62971429Y-138314285D01*
X63571429Y-137971428D01*
X62971429Y-137971428D01*
X41914286Y-134100000D02*
X41942857Y-134128571D01*
X41971429Y-134214285D01*
X41971429Y-134271428D01*
X41942857Y-134357143D01*
X41885714Y-134414285D01*
X41828571Y-134442857D01*
X41714286Y-134471428D01*
X41628571Y-134471428D01*
X41514286Y-134442857D01*
X41457143Y-134414285D01*
X41400000Y-134357143D01*
X41371429Y-134271428D01*
X41371429Y-134214285D01*
X41400000Y-134128571D01*
X41428571Y-134100000D01*
X41371429Y-133585714D02*
X41371429Y-133700000D01*
X41400000Y-133757143D01*
X41428571Y-133785714D01*
X41514286Y-133842857D01*
X41628571Y-133871428D01*
X41857143Y-133871428D01*
X41914286Y-133842857D01*
X41942857Y-133814285D01*
X41971429Y-133757143D01*
X41971429Y-133642857D01*
X41942857Y-133585714D01*
X41914286Y-133557143D01*
X41857143Y-133528571D01*
X41714286Y-133528571D01*
X41657143Y-133557143D01*
X41628571Y-133585714D01*
X41600000Y-133642857D01*
X41600000Y-133757143D01*
X41628571Y-133814285D01*
X41657143Y-133842857D01*
X41714286Y-133871428D01*
X45771429Y-134428571D02*
X45771429Y-134771428D01*
X45771429Y-134600000D02*
X45171429Y-134600000D01*
X45257143Y-134657143D01*
X45314286Y-134714285D01*
X45342857Y-134771428D01*
X45171429Y-134057142D02*
X45171429Y-133999999D01*
X45200000Y-133942856D01*
X45228571Y-133914285D01*
X45285714Y-133885714D01*
X45400000Y-133857142D01*
X45542857Y-133857142D01*
X45657143Y-133885714D01*
X45714286Y-133914285D01*
X45742857Y-133942856D01*
X45771429Y-133999999D01*
X45771429Y-134057142D01*
X45742857Y-134114285D01*
X45714286Y-134142856D01*
X45657143Y-134171428D01*
X45542857Y-134199999D01*
X45400000Y-134199999D01*
X45285714Y-134171428D01*
X45228571Y-134142856D01*
X45200000Y-134114285D01*
X45171429Y-134057142D01*
X45771429Y-133599999D02*
X45171429Y-133599999D01*
X45771429Y-133257142D01*
X45171429Y-133257142D01*
X47514286Y-122600000D02*
X47542857Y-122628571D01*
X47571429Y-122714285D01*
X47571429Y-122771428D01*
X47542857Y-122857143D01*
X47485714Y-122914285D01*
X47428571Y-122942857D01*
X47314286Y-122971428D01*
X47228571Y-122971428D01*
X47114286Y-122942857D01*
X47057143Y-122914285D01*
X47000000Y-122857143D01*
X46971429Y-122771428D01*
X46971429Y-122714285D01*
X47000000Y-122628571D01*
X47028571Y-122600000D01*
X46971429Y-122400000D02*
X46971429Y-122000000D01*
X47571429Y-122257143D01*
X52671429Y-122985714D02*
X53071429Y-122985714D01*
X52442857Y-123128571D02*
X52871429Y-123271428D01*
X52871429Y-122900000D01*
X52471429Y-122671428D02*
X52957143Y-122671428D01*
X53014286Y-122642856D01*
X53042857Y-122614285D01*
X53071429Y-122557142D01*
X53071429Y-122442856D01*
X53042857Y-122385714D01*
X53014286Y-122357142D01*
X52957143Y-122328571D01*
X52471429Y-122328571D01*
X52471429Y-122100000D02*
X52471429Y-121700000D01*
X53071429Y-121957143D01*
X48414286Y-119100000D02*
X48442857Y-119128571D01*
X48471429Y-119214285D01*
X48471429Y-119271428D01*
X48442857Y-119357143D01*
X48385714Y-119414285D01*
X48328571Y-119442857D01*
X48214286Y-119471428D01*
X48128571Y-119471428D01*
X48014286Y-119442857D01*
X47957143Y-119414285D01*
X47900000Y-119357143D01*
X47871429Y-119271428D01*
X47871429Y-119214285D01*
X47900000Y-119128571D01*
X47928571Y-119100000D01*
X48128571Y-118757143D02*
X48100000Y-118814285D01*
X48071429Y-118842857D01*
X48014286Y-118871428D01*
X47985714Y-118871428D01*
X47928571Y-118842857D01*
X47900000Y-118814285D01*
X47871429Y-118757143D01*
X47871429Y-118642857D01*
X47900000Y-118585714D01*
X47928571Y-118557143D01*
X47985714Y-118528571D01*
X48014286Y-118528571D01*
X48071429Y-118557143D01*
X48100000Y-118585714D01*
X48128571Y-118642857D01*
X48128571Y-118757143D01*
X48157143Y-118814285D01*
X48185714Y-118842857D01*
X48242857Y-118871428D01*
X48357143Y-118871428D01*
X48414286Y-118842857D01*
X48442857Y-118814285D01*
X48471429Y-118757143D01*
X48471429Y-118642857D01*
X48442857Y-118585714D01*
X48414286Y-118557143D01*
X48357143Y-118528571D01*
X48242857Y-118528571D01*
X48185714Y-118557143D01*
X48157143Y-118585714D01*
X48128571Y-118642857D01*
X52071429Y-119714286D02*
X52071429Y-120057143D01*
X52071429Y-119885715D02*
X51471429Y-119885715D01*
X51557143Y-119942858D01*
X51614286Y-120000000D01*
X51642857Y-120057143D01*
X51471429Y-119342857D02*
X51471429Y-119285714D01*
X51500000Y-119228571D01*
X51528571Y-119200000D01*
X51585714Y-119171429D01*
X51700000Y-119142857D01*
X51842857Y-119142857D01*
X51957143Y-119171429D01*
X52014286Y-119200000D01*
X52042857Y-119228571D01*
X52071429Y-119285714D01*
X52071429Y-119342857D01*
X52042857Y-119400000D01*
X52014286Y-119428571D01*
X51957143Y-119457143D01*
X51842857Y-119485714D01*
X51700000Y-119485714D01*
X51585714Y-119457143D01*
X51528571Y-119428571D01*
X51500000Y-119400000D01*
X51471429Y-119342857D01*
X51471429Y-118771428D02*
X51471429Y-118714285D01*
X51500000Y-118657142D01*
X51528571Y-118628571D01*
X51585714Y-118600000D01*
X51700000Y-118571428D01*
X51842857Y-118571428D01*
X51957143Y-118600000D01*
X52014286Y-118628571D01*
X52042857Y-118657142D01*
X52071429Y-118714285D01*
X52071429Y-118771428D01*
X52042857Y-118828571D01*
X52014286Y-118857142D01*
X51957143Y-118885714D01*
X51842857Y-118914285D01*
X51700000Y-118914285D01*
X51585714Y-118885714D01*
X51528571Y-118857142D01*
X51500000Y-118828571D01*
X51471429Y-118771428D01*
X52071429Y-118314285D02*
X51471429Y-118314285D01*
X52071429Y-117971428D01*
X51471429Y-117971428D01*
X95614286Y-147300000D02*
X95642857Y-147328571D01*
X95671429Y-147414285D01*
X95671429Y-147471428D01*
X95642857Y-147557143D01*
X95585714Y-147614285D01*
X95528571Y-147642857D01*
X95414286Y-147671428D01*
X95328571Y-147671428D01*
X95214286Y-147642857D01*
X95157143Y-147614285D01*
X95100000Y-147557143D01*
X95071429Y-147471428D01*
X95071429Y-147414285D01*
X95100000Y-147328571D01*
X95128571Y-147300000D01*
X95671429Y-147014285D02*
X95671429Y-146900000D01*
X95642857Y-146842857D01*
X95614286Y-146814285D01*
X95528571Y-146757143D01*
X95414286Y-146728571D01*
X95185714Y-146728571D01*
X95128571Y-146757143D01*
X95100000Y-146785714D01*
X95071429Y-146842857D01*
X95071429Y-146957143D01*
X95100000Y-147014285D01*
X95128571Y-147042857D01*
X95185714Y-147071428D01*
X95328571Y-147071428D01*
X95385714Y-147042857D01*
X95414286Y-147014285D01*
X95442857Y-146957143D01*
X95442857Y-146842857D01*
X95414286Y-146785714D01*
X95385714Y-146757143D01*
X95328571Y-146728571D01*
X99371429Y-147914286D02*
X99371429Y-148257143D01*
X99371429Y-148085715D02*
X98771429Y-148085715D01*
X98857143Y-148142858D01*
X98914286Y-148200000D01*
X98942857Y-148257143D01*
X98771429Y-147542857D02*
X98771429Y-147485714D01*
X98800000Y-147428571D01*
X98828571Y-147400000D01*
X98885714Y-147371429D01*
X99000000Y-147342857D01*
X99142857Y-147342857D01*
X99257143Y-147371429D01*
X99314286Y-147400000D01*
X99342857Y-147428571D01*
X99371429Y-147485714D01*
X99371429Y-147542857D01*
X99342857Y-147600000D01*
X99314286Y-147628571D01*
X99257143Y-147657143D01*
X99142857Y-147685714D01*
X99000000Y-147685714D01*
X98885714Y-147657143D01*
X98828571Y-147628571D01*
X98800000Y-147600000D01*
X98771429Y-147542857D01*
X98771429Y-146971428D02*
X98771429Y-146914285D01*
X98800000Y-146857142D01*
X98828571Y-146828571D01*
X98885714Y-146800000D01*
X99000000Y-146771428D01*
X99142857Y-146771428D01*
X99257143Y-146800000D01*
X99314286Y-146828571D01*
X99342857Y-146857142D01*
X99371429Y-146914285D01*
X99371429Y-146971428D01*
X99342857Y-147028571D01*
X99314286Y-147057142D01*
X99257143Y-147085714D01*
X99142857Y-147114285D01*
X99000000Y-147114285D01*
X98885714Y-147085714D01*
X98828571Y-147057142D01*
X98800000Y-147028571D01*
X98771429Y-146971428D01*
X99371429Y-146514285D02*
X98771429Y-146514285D01*
X99371429Y-146171428D01*
X98771429Y-146171428D01*
X69614286Y-146985715D02*
X69642857Y-147014286D01*
X69671429Y-147100000D01*
X69671429Y-147157143D01*
X69642857Y-147242858D01*
X69585714Y-147300000D01*
X69528571Y-147328572D01*
X69414286Y-147357143D01*
X69328571Y-147357143D01*
X69214286Y-147328572D01*
X69157143Y-147300000D01*
X69100000Y-147242858D01*
X69071429Y-147157143D01*
X69071429Y-147100000D01*
X69100000Y-147014286D01*
X69128571Y-146985715D01*
X69671429Y-146414286D02*
X69671429Y-146757143D01*
X69671429Y-146585715D02*
X69071429Y-146585715D01*
X69157143Y-146642858D01*
X69214286Y-146700000D01*
X69242857Y-146757143D01*
X69071429Y-146042857D02*
X69071429Y-145985714D01*
X69100000Y-145928571D01*
X69128571Y-145900000D01*
X69185714Y-145871429D01*
X69300000Y-145842857D01*
X69442857Y-145842857D01*
X69557143Y-145871429D01*
X69614286Y-145900000D01*
X69642857Y-145928571D01*
X69671429Y-145985714D01*
X69671429Y-146042857D01*
X69642857Y-146100000D01*
X69614286Y-146128571D01*
X69557143Y-146157143D01*
X69442857Y-146185714D01*
X69300000Y-146185714D01*
X69185714Y-146157143D01*
X69128571Y-146128571D01*
X69100000Y-146100000D01*
X69071429Y-146042857D01*
X73271429Y-147214286D02*
X73271429Y-147557143D01*
X73271429Y-147385715D02*
X72671429Y-147385715D01*
X72757143Y-147442858D01*
X72814286Y-147500000D01*
X72842857Y-147557143D01*
X72671429Y-146842857D02*
X72671429Y-146785714D01*
X72700000Y-146728571D01*
X72728571Y-146700000D01*
X72785714Y-146671429D01*
X72900000Y-146642857D01*
X73042857Y-146642857D01*
X73157143Y-146671429D01*
X73214286Y-146700000D01*
X73242857Y-146728571D01*
X73271429Y-146785714D01*
X73271429Y-146842857D01*
X73242857Y-146900000D01*
X73214286Y-146928571D01*
X73157143Y-146957143D01*
X73042857Y-146985714D01*
X72900000Y-146985714D01*
X72785714Y-146957143D01*
X72728571Y-146928571D01*
X72700000Y-146900000D01*
X72671429Y-146842857D01*
X72671429Y-146271428D02*
X72671429Y-146214285D01*
X72700000Y-146157142D01*
X72728571Y-146128571D01*
X72785714Y-146100000D01*
X72900000Y-146071428D01*
X73042857Y-146071428D01*
X73157143Y-146100000D01*
X73214286Y-146128571D01*
X73242857Y-146157142D01*
X73271429Y-146214285D01*
X73271429Y-146271428D01*
X73242857Y-146328571D01*
X73214286Y-146357142D01*
X73157143Y-146385714D01*
X73042857Y-146414285D01*
X72900000Y-146414285D01*
X72785714Y-146385714D01*
X72728571Y-146357142D01*
X72700000Y-146328571D01*
X72671429Y-146271428D01*
X73271429Y-145814285D02*
X72671429Y-145814285D01*
X73271429Y-145471428D01*
X72671429Y-145471428D01*
X91914286Y-121885715D02*
X91942857Y-121914286D01*
X91971429Y-122000000D01*
X91971429Y-122057143D01*
X91942857Y-122142858D01*
X91885714Y-122200000D01*
X91828571Y-122228572D01*
X91714286Y-122257143D01*
X91628571Y-122257143D01*
X91514286Y-122228572D01*
X91457143Y-122200000D01*
X91400000Y-122142858D01*
X91371429Y-122057143D01*
X91371429Y-122000000D01*
X91400000Y-121914286D01*
X91428571Y-121885715D01*
X91971429Y-121314286D02*
X91971429Y-121657143D01*
X91971429Y-121485715D02*
X91371429Y-121485715D01*
X91457143Y-121542858D01*
X91514286Y-121600000D01*
X91542857Y-121657143D01*
X91971429Y-120742857D02*
X91971429Y-121085714D01*
X91971429Y-120914286D02*
X91371429Y-120914286D01*
X91457143Y-120971429D01*
X91514286Y-121028571D01*
X91542857Y-121085714D01*
X95571429Y-122214286D02*
X95571429Y-122557143D01*
X95571429Y-122385715D02*
X94971429Y-122385715D01*
X95057143Y-122442858D01*
X95114286Y-122500000D01*
X95142857Y-122557143D01*
X94971429Y-121842857D02*
X94971429Y-121785714D01*
X95000000Y-121728571D01*
X95028571Y-121700000D01*
X95085714Y-121671429D01*
X95200000Y-121642857D01*
X95342857Y-121642857D01*
X95457143Y-121671429D01*
X95514286Y-121700000D01*
X95542857Y-121728571D01*
X95571429Y-121785714D01*
X95571429Y-121842857D01*
X95542857Y-121900000D01*
X95514286Y-121928571D01*
X95457143Y-121957143D01*
X95342857Y-121985714D01*
X95200000Y-121985714D01*
X95085714Y-121957143D01*
X95028571Y-121928571D01*
X95000000Y-121900000D01*
X94971429Y-121842857D01*
X94971429Y-121271428D02*
X94971429Y-121214285D01*
X95000000Y-121157142D01*
X95028571Y-121128571D01*
X95085714Y-121100000D01*
X95200000Y-121071428D01*
X95342857Y-121071428D01*
X95457143Y-121100000D01*
X95514286Y-121128571D01*
X95542857Y-121157142D01*
X95571429Y-121214285D01*
X95571429Y-121271428D01*
X95542857Y-121328571D01*
X95514286Y-121357142D01*
X95457143Y-121385714D01*
X95342857Y-121414285D01*
X95200000Y-121414285D01*
X95085714Y-121385714D01*
X95028571Y-121357142D01*
X95000000Y-121328571D01*
X94971429Y-121271428D01*
X95571429Y-120814285D02*
X94971429Y-120814285D01*
X95571429Y-120471428D01*
X94971429Y-120471428D01*
X82914286Y-141885715D02*
X82942857Y-141914286D01*
X82971429Y-142000000D01*
X82971429Y-142057143D01*
X82942857Y-142142858D01*
X82885714Y-142200000D01*
X82828571Y-142228572D01*
X82714286Y-142257143D01*
X82628571Y-142257143D01*
X82514286Y-142228572D01*
X82457143Y-142200000D01*
X82400000Y-142142858D01*
X82371429Y-142057143D01*
X82371429Y-142000000D01*
X82400000Y-141914286D01*
X82428571Y-141885715D01*
X82971429Y-141314286D02*
X82971429Y-141657143D01*
X82971429Y-141485715D02*
X82371429Y-141485715D01*
X82457143Y-141542858D01*
X82514286Y-141600000D01*
X82542857Y-141657143D01*
X82428571Y-141085714D02*
X82400000Y-141057143D01*
X82371429Y-141000000D01*
X82371429Y-140857143D01*
X82400000Y-140800000D01*
X82428571Y-140771429D01*
X82485714Y-140742857D01*
X82542857Y-140742857D01*
X82628571Y-140771429D01*
X82971429Y-141114286D01*
X82971429Y-140742857D01*
X86671429Y-142214286D02*
X86671429Y-142557143D01*
X86671429Y-142385715D02*
X86071429Y-142385715D01*
X86157143Y-142442858D01*
X86214286Y-142500000D01*
X86242857Y-142557143D01*
X86071429Y-141842857D02*
X86071429Y-141785714D01*
X86100000Y-141728571D01*
X86128571Y-141700000D01*
X86185714Y-141671429D01*
X86300000Y-141642857D01*
X86442857Y-141642857D01*
X86557143Y-141671429D01*
X86614286Y-141700000D01*
X86642857Y-141728571D01*
X86671429Y-141785714D01*
X86671429Y-141842857D01*
X86642857Y-141900000D01*
X86614286Y-141928571D01*
X86557143Y-141957143D01*
X86442857Y-141985714D01*
X86300000Y-141985714D01*
X86185714Y-141957143D01*
X86128571Y-141928571D01*
X86100000Y-141900000D01*
X86071429Y-141842857D01*
X86071429Y-141271428D02*
X86071429Y-141214285D01*
X86100000Y-141157142D01*
X86128571Y-141128571D01*
X86185714Y-141100000D01*
X86300000Y-141071428D01*
X86442857Y-141071428D01*
X86557143Y-141100000D01*
X86614286Y-141128571D01*
X86642857Y-141157142D01*
X86671429Y-141214285D01*
X86671429Y-141271428D01*
X86642857Y-141328571D01*
X86614286Y-141357142D01*
X86557143Y-141385714D01*
X86442857Y-141414285D01*
X86300000Y-141414285D01*
X86185714Y-141385714D01*
X86128571Y-141357142D01*
X86100000Y-141328571D01*
X86071429Y-141271428D01*
X86671429Y-140814285D02*
X86071429Y-140814285D01*
X86671429Y-140471428D01*
X86071429Y-140471428D01*
X41557143Y-122700000D02*
X41557143Y-122900000D01*
X41871429Y-122900000D02*
X41271429Y-122900000D01*
X41271429Y-122614286D01*
X41871429Y-122071428D02*
X41871429Y-122414285D01*
X41871429Y-122242857D02*
X41271429Y-122242857D01*
X41357143Y-122300000D01*
X41414286Y-122357142D01*
X41442857Y-122414285D01*
X90917143Y-115700000D02*
X90917143Y-115900000D01*
X91231429Y-115900000D02*
X90631429Y-115900000D01*
X90631429Y-115614286D01*
X90688571Y-115414285D02*
X90660000Y-115385714D01*
X90631429Y-115328571D01*
X90631429Y-115185714D01*
X90660000Y-115128571D01*
X90688571Y-115100000D01*
X90745714Y-115071428D01*
X90802857Y-115071428D01*
X90888571Y-115100000D01*
X91231429Y-115442857D01*
X91231429Y-115071428D01*
X41557143Y-126700000D02*
X41557143Y-126900000D01*
X41871429Y-126900000D02*
X41271429Y-126900000D01*
X41271429Y-126614286D01*
X41271429Y-126442857D02*
X41271429Y-126071428D01*
X41500000Y-126271428D01*
X41500000Y-126185714D01*
X41528571Y-126128571D01*
X41557143Y-126100000D01*
X41614286Y-126071428D01*
X41757143Y-126071428D01*
X41814286Y-126100000D01*
X41842857Y-126128571D01*
X41871429Y-126185714D01*
X41871429Y-126357142D01*
X41842857Y-126414285D01*
X41814286Y-126442857D01*
X82971429Y-144100000D02*
X82685714Y-144300000D01*
X82971429Y-144442857D02*
X82371429Y-144442857D01*
X82371429Y-144214285D01*
X82400000Y-144157143D01*
X82428571Y-144128571D01*
X82485714Y-144100000D01*
X82571429Y-144100000D01*
X82628571Y-144128571D01*
X82657143Y-144157143D01*
X82685714Y-144214285D01*
X82685714Y-144442857D01*
X82371429Y-143585714D02*
X82371429Y-143700000D01*
X82400000Y-143757143D01*
X82428571Y-143785714D01*
X82514286Y-143842857D01*
X82628571Y-143871428D01*
X82857143Y-143871428D01*
X82914286Y-143842857D01*
X82942857Y-143814285D01*
X82971429Y-143757143D01*
X82971429Y-143642857D01*
X82942857Y-143585714D01*
X82914286Y-143557143D01*
X82857143Y-143528571D01*
X82714286Y-143528571D01*
X82657143Y-143557143D01*
X82628571Y-143585714D01*
X82600000Y-143642857D01*
X82600000Y-143757143D01*
X82628571Y-143814285D01*
X82657143Y-143842857D01*
X82714286Y-143871428D01*
X86271429Y-144457143D02*
X86671429Y-144457143D01*
X86042857Y-144600000D02*
X86471429Y-144742857D01*
X86471429Y-144371429D01*
X86071429Y-144200000D02*
X86071429Y-143800000D01*
X86671429Y-144057143D01*
X86071429Y-143457142D02*
X86071429Y-143399999D01*
X86100000Y-143342856D01*
X86128571Y-143314285D01*
X86185714Y-143285714D01*
X86300000Y-143257142D01*
X86442857Y-143257142D01*
X86557143Y-143285714D01*
X86614286Y-143314285D01*
X86642857Y-143342856D01*
X86671429Y-143399999D01*
X86671429Y-143457142D01*
X86642857Y-143514285D01*
X86614286Y-143542856D01*
X86557143Y-143571428D01*
X86442857Y-143599999D01*
X86300000Y-143599999D01*
X86185714Y-143571428D01*
X86128571Y-143542856D01*
X86100000Y-143514285D01*
X86071429Y-143457142D01*
X82971429Y-146600000D02*
X82685714Y-146800000D01*
X82971429Y-146942857D02*
X82371429Y-146942857D01*
X82371429Y-146714285D01*
X82400000Y-146657143D01*
X82428571Y-146628571D01*
X82485714Y-146600000D01*
X82571429Y-146600000D01*
X82628571Y-146628571D01*
X82657143Y-146657143D01*
X82685714Y-146714285D01*
X82685714Y-146942857D01*
X82371429Y-146400000D02*
X82371429Y-146000000D01*
X82971429Y-146257143D01*
X86271429Y-146957143D02*
X86671429Y-146957143D01*
X86042857Y-147100000D02*
X86471429Y-147242857D01*
X86471429Y-146871429D01*
X86071429Y-146700000D02*
X86071429Y-146300000D01*
X86671429Y-146557143D01*
X86071429Y-145957142D02*
X86071429Y-145899999D01*
X86100000Y-145842856D01*
X86128571Y-145814285D01*
X86185714Y-145785714D01*
X86300000Y-145757142D01*
X86442857Y-145757142D01*
X86557143Y-145785714D01*
X86614286Y-145814285D01*
X86642857Y-145842856D01*
X86671429Y-145899999D01*
X86671429Y-145957142D01*
X86642857Y-146014285D01*
X86614286Y-146042856D01*
X86557143Y-146071428D01*
X86442857Y-146099999D01*
X86300000Y-146099999D01*
X86185714Y-146071428D01*
X86128571Y-146042856D01*
X86100000Y-146014285D01*
X86071429Y-145957142D01*
X81471429Y-129100000D02*
X81185714Y-129300000D01*
X81471429Y-129442857D02*
X80871429Y-129442857D01*
X80871429Y-129214285D01*
X80900000Y-129157143D01*
X80928571Y-129128571D01*
X80985714Y-129100000D01*
X81071429Y-129100000D01*
X81128571Y-129128571D01*
X81157143Y-129157143D01*
X81185714Y-129214285D01*
X81185714Y-129442857D01*
X81128571Y-128757143D02*
X81100000Y-128814285D01*
X81071429Y-128842857D01*
X81014286Y-128871428D01*
X80985714Y-128871428D01*
X80928571Y-128842857D01*
X80900000Y-128814285D01*
X80871429Y-128757143D01*
X80871429Y-128642857D01*
X80900000Y-128585714D01*
X80928571Y-128557143D01*
X80985714Y-128528571D01*
X81014286Y-128528571D01*
X81071429Y-128557143D01*
X81100000Y-128585714D01*
X81128571Y-128642857D01*
X81128571Y-128757143D01*
X81157143Y-128814285D01*
X81185714Y-128842857D01*
X81242857Y-128871428D01*
X81357143Y-128871428D01*
X81414286Y-128842857D01*
X81442857Y-128814285D01*
X81471429Y-128757143D01*
X81471429Y-128642857D01*
X81442857Y-128585714D01*
X81414286Y-128557143D01*
X81357143Y-128528571D01*
X81242857Y-128528571D01*
X81185714Y-128557143D01*
X81157143Y-128585714D01*
X81128571Y-128642857D01*
X84771429Y-129457143D02*
X85171429Y-129457143D01*
X84542857Y-129600000D02*
X84971429Y-129742857D01*
X84971429Y-129371429D01*
X84571429Y-129200000D02*
X84571429Y-128800000D01*
X85171429Y-129057143D01*
X84571429Y-128457142D02*
X84571429Y-128399999D01*
X84600000Y-128342856D01*
X84628571Y-128314285D01*
X84685714Y-128285714D01*
X84800000Y-128257142D01*
X84942857Y-128257142D01*
X85057143Y-128285714D01*
X85114286Y-128314285D01*
X85142857Y-128342856D01*
X85171429Y-128399999D01*
X85171429Y-128457142D01*
X85142857Y-128514285D01*
X85114286Y-128542856D01*
X85057143Y-128571428D01*
X84942857Y-128599999D01*
X84800000Y-128599999D01*
X84685714Y-128571428D01*
X84628571Y-128542856D01*
X84600000Y-128514285D01*
X84571429Y-128457142D01*
X85971429Y-129000000D02*
X85685714Y-129200000D01*
X85971429Y-129342857D02*
X85371429Y-129342857D01*
X85371429Y-129114285D01*
X85400000Y-129057143D01*
X85428571Y-129028571D01*
X85485714Y-129000000D01*
X85571429Y-129000000D01*
X85628571Y-129028571D01*
X85657143Y-129057143D01*
X85685714Y-129114285D01*
X85685714Y-129342857D01*
X85971429Y-128714285D02*
X85971429Y-128600000D01*
X85942857Y-128542857D01*
X85914286Y-128514285D01*
X85828571Y-128457143D01*
X85714286Y-128428571D01*
X85485714Y-128428571D01*
X85428571Y-128457143D01*
X85400000Y-128485714D01*
X85371429Y-128542857D01*
X85371429Y-128657143D01*
X85400000Y-128714285D01*
X85428571Y-128742857D01*
X85485714Y-128771428D01*
X85628571Y-128771428D01*
X85685714Y-128742857D01*
X85714286Y-128714285D01*
X85742857Y-128657143D01*
X85742857Y-128542857D01*
X85714286Y-128485714D01*
X85685714Y-128457143D01*
X85628571Y-128428571D01*
X89271429Y-129471429D02*
X89671429Y-129471429D01*
X89042857Y-129614286D02*
X89471429Y-129757143D01*
X89471429Y-129385715D01*
X89671429Y-129157143D02*
X89071429Y-129157143D01*
X89671429Y-128814286D02*
X89328571Y-129071429D01*
X89071429Y-128814286D02*
X89414286Y-129157143D01*
X89071429Y-128614286D02*
X89071429Y-128214286D01*
X89671429Y-128471429D01*
X103471429Y-130885715D02*
X103185714Y-131085715D01*
X103471429Y-131228572D02*
X102871429Y-131228572D01*
X102871429Y-131000000D01*
X102900000Y-130942858D01*
X102928571Y-130914286D01*
X102985714Y-130885715D01*
X103071429Y-130885715D01*
X103128571Y-130914286D01*
X103157143Y-130942858D01*
X103185714Y-131000000D01*
X103185714Y-131228572D01*
X103471429Y-130314286D02*
X103471429Y-130657143D01*
X103471429Y-130485715D02*
X102871429Y-130485715D01*
X102957143Y-130542858D01*
X103014286Y-130600000D01*
X103042857Y-130657143D01*
X102871429Y-129942857D02*
X102871429Y-129885714D01*
X102900000Y-129828571D01*
X102928571Y-129800000D01*
X102985714Y-129771429D01*
X103100000Y-129742857D01*
X103242857Y-129742857D01*
X103357143Y-129771429D01*
X103414286Y-129800000D01*
X103442857Y-129828571D01*
X103471429Y-129885714D01*
X103471429Y-129942857D01*
X103442857Y-130000000D01*
X103414286Y-130028571D01*
X103357143Y-130057143D01*
X103242857Y-130085714D01*
X103100000Y-130085714D01*
X102985714Y-130057143D01*
X102928571Y-130028571D01*
X102900000Y-130000000D01*
X102871429Y-129942857D01*
X106771429Y-130957143D02*
X107171429Y-130957143D01*
X106542857Y-131100000D02*
X106971429Y-131242857D01*
X106971429Y-130871429D01*
X106571429Y-130700000D02*
X106571429Y-130300000D01*
X107171429Y-130557143D01*
X106571429Y-129957142D02*
X106571429Y-129899999D01*
X106600000Y-129842856D01*
X106628571Y-129814285D01*
X106685714Y-129785714D01*
X106800000Y-129757142D01*
X106942857Y-129757142D01*
X107057143Y-129785714D01*
X107114286Y-129814285D01*
X107142857Y-129842856D01*
X107171429Y-129899999D01*
X107171429Y-129957142D01*
X107142857Y-130014285D01*
X107114286Y-130042856D01*
X107057143Y-130071428D01*
X106942857Y-130099999D01*
X106800000Y-130099999D01*
X106685714Y-130071428D01*
X106628571Y-130042856D01*
X106600000Y-130014285D01*
X106571429Y-129957142D01*
X103471429Y-133785715D02*
X103185714Y-133985715D01*
X103471429Y-134128572D02*
X102871429Y-134128572D01*
X102871429Y-133900000D01*
X102900000Y-133842858D01*
X102928571Y-133814286D01*
X102985714Y-133785715D01*
X103071429Y-133785715D01*
X103128571Y-133814286D01*
X103157143Y-133842858D01*
X103185714Y-133900000D01*
X103185714Y-134128572D01*
X103471429Y-133214286D02*
X103471429Y-133557143D01*
X103471429Y-133385715D02*
X102871429Y-133385715D01*
X102957143Y-133442858D01*
X103014286Y-133500000D01*
X103042857Y-133557143D01*
X103471429Y-132642857D02*
X103471429Y-132985714D01*
X103471429Y-132814286D02*
X102871429Y-132814286D01*
X102957143Y-132871429D01*
X103014286Y-132928571D01*
X103042857Y-132985714D01*
X106671429Y-133957143D02*
X107071429Y-133957143D01*
X106442857Y-134100000D02*
X106871429Y-134242857D01*
X106871429Y-133871429D01*
X106471429Y-133700000D02*
X106471429Y-133300000D01*
X107071429Y-133557143D01*
X106471429Y-132957142D02*
X106471429Y-132899999D01*
X106500000Y-132842856D01*
X106528571Y-132814285D01*
X106585714Y-132785714D01*
X106700000Y-132757142D01*
X106842857Y-132757142D01*
X106957143Y-132785714D01*
X107014286Y-132814285D01*
X107042857Y-132842856D01*
X107071429Y-132899999D01*
X107071429Y-132957142D01*
X107042857Y-133014285D01*
X107014286Y-133042856D01*
X106957143Y-133071428D01*
X106842857Y-133099999D01*
X106700000Y-133099999D01*
X106585714Y-133071428D01*
X106528571Y-133042856D01*
X106500000Y-133014285D01*
X106471429Y-132957142D01*
X41871429Y-131885715D02*
X41585714Y-132085715D01*
X41871429Y-132228572D02*
X41271429Y-132228572D01*
X41271429Y-132000000D01*
X41300000Y-131942858D01*
X41328571Y-131914286D01*
X41385714Y-131885715D01*
X41471429Y-131885715D01*
X41528571Y-131914286D01*
X41557143Y-131942858D01*
X41585714Y-132000000D01*
X41585714Y-132228572D01*
X41871429Y-131314286D02*
X41871429Y-131657143D01*
X41871429Y-131485715D02*
X41271429Y-131485715D01*
X41357143Y-131542858D01*
X41414286Y-131600000D01*
X41442857Y-131657143D01*
X41328571Y-131085714D02*
X41300000Y-131057143D01*
X41271429Y-131000000D01*
X41271429Y-130857143D01*
X41300000Y-130800000D01*
X41328571Y-130771429D01*
X41385714Y-130742857D01*
X41442857Y-130742857D01*
X41528571Y-130771429D01*
X41871429Y-131114286D01*
X41871429Y-130742857D01*
X45271429Y-131957143D02*
X45671429Y-131957143D01*
X45042857Y-132100000D02*
X45471429Y-132242857D01*
X45471429Y-131871429D01*
X45071429Y-131700000D02*
X45071429Y-131300000D01*
X45671429Y-131557143D01*
X45071429Y-130957142D02*
X45071429Y-130899999D01*
X45100000Y-130842856D01*
X45128571Y-130814285D01*
X45185714Y-130785714D01*
X45300000Y-130757142D01*
X45442857Y-130757142D01*
X45557143Y-130785714D01*
X45614286Y-130814285D01*
X45642857Y-130842856D01*
X45671429Y-130899999D01*
X45671429Y-130957142D01*
X45642857Y-131014285D01*
X45614286Y-131042856D01*
X45557143Y-131071428D01*
X45442857Y-131099999D01*
X45300000Y-131099999D01*
X45185714Y-131071428D01*
X45128571Y-131042856D01*
X45100000Y-131014285D01*
X45071429Y-130957142D01*
X85971429Y-135385715D02*
X85685714Y-135585715D01*
X85971429Y-135728572D02*
X85371429Y-135728572D01*
X85371429Y-135500000D01*
X85400000Y-135442858D01*
X85428571Y-135414286D01*
X85485714Y-135385715D01*
X85571429Y-135385715D01*
X85628571Y-135414286D01*
X85657143Y-135442858D01*
X85685714Y-135500000D01*
X85685714Y-135728572D01*
X85971429Y-134814286D02*
X85971429Y-135157143D01*
X85971429Y-134985715D02*
X85371429Y-134985715D01*
X85457143Y-135042858D01*
X85514286Y-135100000D01*
X85542857Y-135157143D01*
X85371429Y-134614286D02*
X85371429Y-134242857D01*
X85600000Y-134442857D01*
X85600000Y-134357143D01*
X85628571Y-134300000D01*
X85657143Y-134271429D01*
X85714286Y-134242857D01*
X85857143Y-134242857D01*
X85914286Y-134271429D01*
X85942857Y-134300000D01*
X85971429Y-134357143D01*
X85971429Y-134528571D01*
X85942857Y-134585714D01*
X85914286Y-134614286D01*
X89271429Y-135457143D02*
X89671429Y-135457143D01*
X89042857Y-135600000D02*
X89471429Y-135742857D01*
X89471429Y-135371429D01*
X89071429Y-135200000D02*
X89071429Y-134800000D01*
X89671429Y-135057143D01*
X89071429Y-134457142D02*
X89071429Y-134399999D01*
X89100000Y-134342856D01*
X89128571Y-134314285D01*
X89185714Y-134285714D01*
X89300000Y-134257142D01*
X89442857Y-134257142D01*
X89557143Y-134285714D01*
X89614286Y-134314285D01*
X89642857Y-134342856D01*
X89671429Y-134399999D01*
X89671429Y-134457142D01*
X89642857Y-134514285D01*
X89614286Y-134542856D01*
X89557143Y-134571428D01*
X89442857Y-134599999D01*
X89300000Y-134599999D01*
X89185714Y-134571428D01*
X89128571Y-134542856D01*
X89100000Y-134514285D01*
X89071429Y-134457142D01*
X85971429Y-132285715D02*
X85685714Y-132485715D01*
X85971429Y-132628572D02*
X85371429Y-132628572D01*
X85371429Y-132400000D01*
X85400000Y-132342858D01*
X85428571Y-132314286D01*
X85485714Y-132285715D01*
X85571429Y-132285715D01*
X85628571Y-132314286D01*
X85657143Y-132342858D01*
X85685714Y-132400000D01*
X85685714Y-132628572D01*
X85971429Y-131714286D02*
X85971429Y-132057143D01*
X85971429Y-131885715D02*
X85371429Y-131885715D01*
X85457143Y-131942858D01*
X85514286Y-132000000D01*
X85542857Y-132057143D01*
X85571429Y-131200000D02*
X85971429Y-131200000D01*
X85342857Y-131342857D02*
X85771429Y-131485714D01*
X85771429Y-131114286D01*
X89271429Y-132457143D02*
X89671429Y-132457143D01*
X89042857Y-132600000D02*
X89471429Y-132742857D01*
X89471429Y-132371429D01*
X89071429Y-132200000D02*
X89071429Y-131800000D01*
X89671429Y-132057143D01*
X89071429Y-131457142D02*
X89071429Y-131399999D01*
X89100000Y-131342856D01*
X89128571Y-131314285D01*
X89185714Y-131285714D01*
X89300000Y-131257142D01*
X89442857Y-131257142D01*
X89557143Y-131285714D01*
X89614286Y-131314285D01*
X89642857Y-131342856D01*
X89671429Y-131399999D01*
X89671429Y-131457142D01*
X89642857Y-131514285D01*
X89614286Y-131542856D01*
X89557143Y-131571428D01*
X89442857Y-131599999D01*
X89300000Y-131599999D01*
X89185714Y-131571428D01*
X89128571Y-131542856D01*
X89100000Y-131514285D01*
X89071429Y-131457142D01*
X73971429Y-117885715D02*
X73685714Y-118085715D01*
X73971429Y-118228572D02*
X73371429Y-118228572D01*
X73371429Y-118000000D01*
X73400000Y-117942858D01*
X73428571Y-117914286D01*
X73485714Y-117885715D01*
X73571429Y-117885715D01*
X73628571Y-117914286D01*
X73657143Y-117942858D01*
X73685714Y-118000000D01*
X73685714Y-118228572D01*
X73971429Y-117314286D02*
X73971429Y-117657143D01*
X73971429Y-117485715D02*
X73371429Y-117485715D01*
X73457143Y-117542858D01*
X73514286Y-117600000D01*
X73542857Y-117657143D01*
X73371429Y-116771429D02*
X73371429Y-117057143D01*
X73657143Y-117085714D01*
X73628571Y-117057143D01*
X73600000Y-117000000D01*
X73600000Y-116857143D01*
X73628571Y-116800000D01*
X73657143Y-116771429D01*
X73714286Y-116742857D01*
X73857143Y-116742857D01*
X73914286Y-116771429D01*
X73942857Y-116800000D01*
X73971429Y-116857143D01*
X73971429Y-117000000D01*
X73942857Y-117057143D01*
X73914286Y-117085714D01*
X77271429Y-117957143D02*
X77671429Y-117957143D01*
X77042857Y-118100000D02*
X77471429Y-118242857D01*
X77471429Y-117871429D01*
X77071429Y-117700000D02*
X77071429Y-117300000D01*
X77671429Y-117557143D01*
X77071429Y-116957142D02*
X77071429Y-116899999D01*
X77100000Y-116842856D01*
X77128571Y-116814285D01*
X77185714Y-116785714D01*
X77300000Y-116757142D01*
X77442857Y-116757142D01*
X77557143Y-116785714D01*
X77614286Y-116814285D01*
X77642857Y-116842856D01*
X77671429Y-116899999D01*
X77671429Y-116957142D01*
X77642857Y-117014285D01*
X77614286Y-117042856D01*
X77557143Y-117071428D01*
X77442857Y-117099999D01*
X77300000Y-117099999D01*
X77185714Y-117071428D01*
X77128571Y-117042856D01*
X77100000Y-117014285D01*
X77071429Y-116957142D01*
X52452381Y-114261905D02*
X53261905Y-114261905D01*
X53357143Y-114214286D01*
X53404762Y-114166667D01*
X53452381Y-114071429D01*
X53452381Y-113880952D01*
X53404762Y-113785714D01*
X53357143Y-113738095D01*
X53261905Y-113690476D01*
X52452381Y-113690476D01*
X52452381Y-113309524D02*
X52452381Y-112690476D01*
X52833333Y-113023810D01*
X52833333Y-112880952D01*
X52880952Y-112785714D01*
X52928571Y-112738095D01*
X53023810Y-112690476D01*
X53261905Y-112690476D01*
X53357143Y-112738095D01*
X53404762Y-112785714D01*
X53452381Y-112880952D01*
X53452381Y-113166667D01*
X53404762Y-113261905D01*
X53357143Y-113309524D01*
X94271429Y-151957143D02*
X94757143Y-151957143D01*
X94814286Y-151928571D01*
X94842857Y-151900000D01*
X94871429Y-151842857D01*
X94871429Y-151728571D01*
X94842857Y-151671429D01*
X94814286Y-151642857D01*
X94757143Y-151614286D01*
X94271429Y-151614286D01*
X94471429Y-151071429D02*
X94871429Y-151071429D01*
X94242857Y-151214286D02*
X94671429Y-151357143D01*
X94671429Y-150985715D01*
X91742857Y-153242857D02*
X91771429Y-153157143D01*
X91771429Y-153014286D01*
X91742857Y-152957143D01*
X91714286Y-152928572D01*
X91657143Y-152900000D01*
X91600000Y-152900000D01*
X91542857Y-152928572D01*
X91514286Y-152957143D01*
X91485714Y-153014286D01*
X91457143Y-153128572D01*
X91428571Y-153185714D01*
X91400000Y-153214286D01*
X91342857Y-153242857D01*
X91285714Y-153242857D01*
X91228571Y-153214286D01*
X91200000Y-153185714D01*
X91171429Y-153128572D01*
X91171429Y-152985714D01*
X91200000Y-152900000D01*
X91771429Y-152642857D02*
X91171429Y-152642857D01*
X91600000Y-152442857D01*
X91171429Y-152242857D01*
X91771429Y-152242857D01*
X91457143Y-151757143D02*
X91457143Y-151957143D01*
X91771429Y-151957143D02*
X91171429Y-151957143D01*
X91171429Y-151671429D01*
X91171429Y-151328571D02*
X91171429Y-151271428D01*
X91200000Y-151214285D01*
X91228571Y-151185714D01*
X91285714Y-151157143D01*
X91400000Y-151128571D01*
X91542857Y-151128571D01*
X91657143Y-151157143D01*
X91714286Y-151185714D01*
X91742857Y-151214285D01*
X91771429Y-151271428D01*
X91771429Y-151328571D01*
X91742857Y-151385714D01*
X91714286Y-151414285D01*
X91657143Y-151442857D01*
X91542857Y-151471428D01*
X91400000Y-151471428D01*
X91285714Y-151442857D01*
X91228571Y-151414285D01*
X91200000Y-151385714D01*
X91171429Y-151328571D01*
X91171429Y-150585714D02*
X91171429Y-150871428D01*
X91457143Y-150899999D01*
X91428571Y-150871428D01*
X91400000Y-150814285D01*
X91400000Y-150671428D01*
X91428571Y-150614285D01*
X91457143Y-150585714D01*
X91514286Y-150557142D01*
X91657143Y-150557142D01*
X91714286Y-150585714D01*
X91742857Y-150614285D01*
X91771429Y-150671428D01*
X91771429Y-150814285D01*
X91742857Y-150871428D01*
X91714286Y-150899999D01*
X103371429Y-125942857D02*
X102771429Y-125942857D01*
X102771429Y-125800000D01*
X102800000Y-125714285D01*
X102857143Y-125657143D01*
X102914286Y-125628571D01*
X103028571Y-125600000D01*
X103114286Y-125600000D01*
X103228571Y-125628571D01*
X103285714Y-125657143D01*
X103342857Y-125714285D01*
X103371429Y-125800000D01*
X103371429Y-125942857D01*
X103371429Y-125028571D02*
X103371429Y-125371428D01*
X103371429Y-125200000D02*
X102771429Y-125200000D01*
X102857143Y-125257143D01*
X102914286Y-125314285D01*
X102942857Y-125371428D01*
X103371429Y-120442857D02*
X102771429Y-120442857D01*
X102771429Y-120300000D01*
X102800000Y-120214285D01*
X102857143Y-120157143D01*
X102914286Y-120128571D01*
X103028571Y-120100000D01*
X103114286Y-120100000D01*
X103228571Y-120128571D01*
X103285714Y-120157143D01*
X103342857Y-120214285D01*
X103371429Y-120300000D01*
X103371429Y-120442857D01*
X102828571Y-119871428D02*
X102800000Y-119842857D01*
X102771429Y-119785714D01*
X102771429Y-119642857D01*
X102800000Y-119585714D01*
X102828571Y-119557143D01*
X102885714Y-119528571D01*
X102942857Y-119528571D01*
X103028571Y-119557143D01*
X103371429Y-119900000D01*
X103371429Y-119528571D01*
X81371429Y-135342857D02*
X80771429Y-135342857D01*
X80771429Y-135200000D01*
X80800000Y-135114285D01*
X80857143Y-135057143D01*
X80914286Y-135028571D01*
X81028571Y-135000000D01*
X81114286Y-135000000D01*
X81228571Y-135028571D01*
X81285714Y-135057143D01*
X81342857Y-135114285D01*
X81371429Y-135200000D01*
X81371429Y-135342857D01*
X80971429Y-134485714D02*
X81371429Y-134485714D01*
X80742857Y-134628571D02*
X81171429Y-134771428D01*
X81171429Y-134400000D01*
X81371429Y-132442857D02*
X80771429Y-132442857D01*
X80771429Y-132300000D01*
X80800000Y-132214285D01*
X80857143Y-132157143D01*
X80914286Y-132128571D01*
X81028571Y-132100000D01*
X81114286Y-132100000D01*
X81228571Y-132128571D01*
X81285714Y-132157143D01*
X81342857Y-132214285D01*
X81371429Y-132300000D01*
X81371429Y-132442857D01*
X80771429Y-131557143D02*
X80771429Y-131842857D01*
X81057143Y-131871428D01*
X81028571Y-131842857D01*
X81000000Y-131785714D01*
X81000000Y-131642857D01*
X81028571Y-131585714D01*
X81057143Y-131557143D01*
X81114286Y-131528571D01*
X81257143Y-131528571D01*
X81314286Y-131557143D01*
X81342857Y-131585714D01*
X81371429Y-131642857D01*
X81371429Y-131785714D01*
X81342857Y-131842857D01*
X81314286Y-131871428D01*
X73971429Y-114442857D02*
X73371429Y-114442857D01*
X73371429Y-114300000D01*
X73400000Y-114214285D01*
X73457143Y-114157143D01*
X73514286Y-114128571D01*
X73628571Y-114100000D01*
X73714286Y-114100000D01*
X73828571Y-114128571D01*
X73885714Y-114157143D01*
X73942857Y-114214285D01*
X73971429Y-114300000D01*
X73971429Y-114442857D01*
X73371429Y-113585714D02*
X73371429Y-113700000D01*
X73400000Y-113757143D01*
X73428571Y-113785714D01*
X73514286Y-113842857D01*
X73628571Y-113871428D01*
X73857143Y-113871428D01*
X73914286Y-113842857D01*
X73942857Y-113814285D01*
X73971429Y-113757143D01*
X73971429Y-113642857D01*
X73942857Y-113585714D01*
X73914286Y-113557143D01*
X73857143Y-113528571D01*
X73714286Y-113528571D01*
X73657143Y-113557143D01*
X73628571Y-113585714D01*
X73600000Y-113642857D01*
X73600000Y-113757143D01*
X73628571Y-113814285D01*
X73657143Y-113842857D01*
X73714286Y-113871428D01*
X47657143Y-127500000D02*
X47657143Y-127700000D01*
X47971429Y-127700000D02*
X47371429Y-127700000D01*
X47371429Y-127414286D01*
X47657143Y-126985714D02*
X47685714Y-126900000D01*
X47714286Y-126871428D01*
X47771429Y-126842857D01*
X47857143Y-126842857D01*
X47914286Y-126871428D01*
X47942857Y-126900000D01*
X47971429Y-126957142D01*
X47971429Y-127185714D01*
X47371429Y-127185714D01*
X47371429Y-126985714D01*
X47400000Y-126928571D01*
X47428571Y-126900000D01*
X47485714Y-126871428D01*
X47542857Y-126871428D01*
X47600000Y-126900000D01*
X47628571Y-126928571D01*
X47657143Y-126985714D01*
X47657143Y-127185714D01*
X47971429Y-126271428D02*
X47971429Y-126614285D01*
X47971429Y-126442857D02*
X47371429Y-126442857D01*
X47457143Y-126500000D01*
X47514286Y-126557142D01*
X47542857Y-126614285D01*
X51128571Y-127742857D02*
X51100000Y-127714286D01*
X51071429Y-127657143D01*
X51071429Y-127514286D01*
X51100000Y-127457143D01*
X51128571Y-127428572D01*
X51185714Y-127400000D01*
X51242857Y-127400000D01*
X51328571Y-127428572D01*
X51671429Y-127771429D01*
X51671429Y-127400000D01*
X51128571Y-127171428D02*
X51100000Y-127142857D01*
X51071429Y-127085714D01*
X51071429Y-126942857D01*
X51100000Y-126885714D01*
X51128571Y-126857143D01*
X51185714Y-126828571D01*
X51242857Y-126828571D01*
X51328571Y-126857143D01*
X51671429Y-127200000D01*
X51671429Y-126828571D01*
X51071429Y-126457142D02*
X51071429Y-126399999D01*
X51100000Y-126342856D01*
X51128571Y-126314285D01*
X51185714Y-126285714D01*
X51300000Y-126257142D01*
X51442857Y-126257142D01*
X51557143Y-126285714D01*
X51614286Y-126314285D01*
X51642857Y-126342856D01*
X51671429Y-126399999D01*
X51671429Y-126457142D01*
X51642857Y-126514285D01*
X51614286Y-126542856D01*
X51557143Y-126571428D01*
X51442857Y-126599999D01*
X51300000Y-126599999D01*
X51185714Y-126571428D01*
X51128571Y-126542856D01*
X51100000Y-126514285D01*
X51071429Y-126457142D01*
X91657143Y-119400000D02*
X91657143Y-119600000D01*
X91971429Y-119600000D02*
X91371429Y-119600000D01*
X91371429Y-119314286D01*
X91657143Y-118885714D02*
X91685714Y-118800000D01*
X91714286Y-118771428D01*
X91771429Y-118742857D01*
X91857143Y-118742857D01*
X91914286Y-118771428D01*
X91942857Y-118800000D01*
X91971429Y-118857142D01*
X91971429Y-119085714D01*
X91371429Y-119085714D01*
X91371429Y-118885714D01*
X91400000Y-118828571D01*
X91428571Y-118800000D01*
X91485714Y-118771428D01*
X91542857Y-118771428D01*
X91600000Y-118800000D01*
X91628571Y-118828571D01*
X91657143Y-118885714D01*
X91657143Y-119085714D01*
X91428571Y-118514285D02*
X91400000Y-118485714D01*
X91371429Y-118428571D01*
X91371429Y-118285714D01*
X91400000Y-118228571D01*
X91428571Y-118200000D01*
X91485714Y-118171428D01*
X91542857Y-118171428D01*
X91628571Y-118200000D01*
X91971429Y-118542857D01*
X91971429Y-118171428D01*
X95028571Y-119742857D02*
X95000000Y-119714286D01*
X94971429Y-119657143D01*
X94971429Y-119514286D01*
X95000000Y-119457143D01*
X95028571Y-119428572D01*
X95085714Y-119400000D01*
X95142857Y-119400000D01*
X95228571Y-119428572D01*
X95571429Y-119771429D01*
X95571429Y-119400000D01*
X95028571Y-119171428D02*
X95000000Y-119142857D01*
X94971429Y-119085714D01*
X94971429Y-118942857D01*
X95000000Y-118885714D01*
X95028571Y-118857143D01*
X95085714Y-118828571D01*
X95142857Y-118828571D01*
X95228571Y-118857143D01*
X95571429Y-119200000D01*
X95571429Y-118828571D01*
X94971429Y-118457142D02*
X94971429Y-118399999D01*
X95000000Y-118342856D01*
X95028571Y-118314285D01*
X95085714Y-118285714D01*
X95200000Y-118257142D01*
X95342857Y-118257142D01*
X95457143Y-118285714D01*
X95514286Y-118314285D01*
X95542857Y-118342856D01*
X95571429Y-118399999D01*
X95571429Y-118457142D01*
X95542857Y-118514285D01*
X95514286Y-118542856D01*
X95457143Y-118571428D01*
X95342857Y-118599999D01*
X95200000Y-118599999D01*
X95085714Y-118571428D01*
X95028571Y-118542856D01*
X95000000Y-118514285D01*
X94971429Y-118457142D01*
X61252381Y-127633333D02*
X61966667Y-127633333D01*
X62109524Y-127680953D01*
X62204762Y-127776191D01*
X62252381Y-127919048D01*
X62252381Y-128014286D01*
X62252381Y-126633333D02*
X62252381Y-127204762D01*
X62252381Y-126919048D02*
X61252381Y-126919048D01*
X61395238Y-127014286D01*
X61490476Y-127109524D01*
X61538095Y-127204762D01*
X96271429Y-112142857D02*
X95671429Y-112142857D01*
X95671429Y-111914285D01*
X95700000Y-111857143D01*
X95728571Y-111828571D01*
X95785714Y-111800000D01*
X95871429Y-111800000D01*
X95928571Y-111828571D01*
X95957143Y-111857143D01*
X95985714Y-111914285D01*
X95985714Y-112142857D01*
X95728571Y-111571428D02*
X95700000Y-111542857D01*
X95671429Y-111485714D01*
X95671429Y-111342857D01*
X95700000Y-111285714D01*
X95728571Y-111257143D01*
X95785714Y-111228571D01*
X95842857Y-111228571D01*
X95928571Y-111257143D01*
X96271429Y-111600000D01*
X96271429Y-111228571D01*
X59442857Y-154752381D02*
X59442857Y-153752381D01*
X59680952Y-153752381D01*
X59823810Y-153800000D01*
X59919048Y-153895238D01*
X59966667Y-153990476D01*
X60014286Y-154180952D01*
X60014286Y-154323810D01*
X59966667Y-154514286D01*
X59919048Y-154609524D01*
X59823810Y-154704762D01*
X59680952Y-154752381D01*
X59442857Y-154752381D01*
X60442857Y-154752381D02*
X60442857Y-153752381D01*
X60871428Y-154466667D02*
X61347619Y-154466667D01*
X60776190Y-154752381D02*
X61109523Y-153752381D01*
X61442857Y-154752381D01*
X62300000Y-153800000D02*
X62204762Y-153752381D01*
X62061905Y-153752381D01*
X61919047Y-153800000D01*
X61823809Y-153895238D01*
X61776190Y-153990476D01*
X61728571Y-154180952D01*
X61728571Y-154323810D01*
X61776190Y-154514286D01*
X61823809Y-154609524D01*
X61919047Y-154704762D01*
X62061905Y-154752381D01*
X62157143Y-154752381D01*
X62300000Y-154704762D01*
X62347619Y-154657143D01*
X62347619Y-154323810D01*
X62157143Y-154323810D01*
X63538095Y-154752381D02*
X63538095Y-153752381D01*
X63919048Y-153752381D01*
X64014286Y-153800000D01*
X64061905Y-153847619D01*
X64109524Y-153942857D01*
X64109524Y-154085714D01*
X64061905Y-154180952D01*
X64014286Y-154228571D01*
X63919048Y-154276190D01*
X63538095Y-154276190D01*
X64680952Y-154752381D02*
X64585714Y-154704762D01*
X64538095Y-154657143D01*
X64490476Y-154561905D01*
X64490476Y-154276190D01*
X64538095Y-154180952D01*
X64585714Y-154133333D01*
X64680952Y-154085714D01*
X64823810Y-154085714D01*
X64919048Y-154133333D01*
X64966667Y-154180952D01*
X65014286Y-154276190D01*
X65014286Y-154561905D01*
X64966667Y-154657143D01*
X64919048Y-154704762D01*
X64823810Y-154752381D01*
X64680952Y-154752381D01*
X65442857Y-154752381D02*
X65442857Y-154085714D01*
X65442857Y-154276190D02*
X65490476Y-154180952D01*
X65538095Y-154133333D01*
X65633333Y-154085714D01*
X65728572Y-154085714D01*
X65919048Y-154085714D02*
X66300000Y-154085714D01*
X66061905Y-153752381D02*
X66061905Y-154609524D01*
X66109524Y-154704762D01*
X66204762Y-154752381D01*
X66300000Y-154752381D01*
X64471429Y-144100000D02*
X64185714Y-144300000D01*
X64471429Y-144442857D02*
X63871429Y-144442857D01*
X63871429Y-144214285D01*
X63900000Y-144157143D01*
X63928571Y-144128571D01*
X63985714Y-144100000D01*
X64071429Y-144100000D01*
X64128571Y-144128571D01*
X64157143Y-144157143D01*
X64185714Y-144214285D01*
X64185714Y-144442857D01*
X64471429Y-143528571D02*
X64471429Y-143871428D01*
X64471429Y-143700000D02*
X63871429Y-143700000D01*
X63957143Y-143757143D01*
X64014286Y-143814285D01*
X64042857Y-143871428D01*
X67628571Y-144457143D02*
X67600000Y-144428572D01*
X67571429Y-144371429D01*
X67571429Y-144228572D01*
X67600000Y-144171429D01*
X67628571Y-144142858D01*
X67685714Y-144114286D01*
X67742857Y-144114286D01*
X67828571Y-144142858D01*
X68171429Y-144485715D01*
X68171429Y-144114286D01*
X67628571Y-143885714D02*
X67600000Y-143857143D01*
X67571429Y-143800000D01*
X67571429Y-143657143D01*
X67600000Y-143600000D01*
X67628571Y-143571429D01*
X67685714Y-143542857D01*
X67742857Y-143542857D01*
X67828571Y-143571429D01*
X68171429Y-143914286D01*
X68171429Y-143542857D01*
X64471429Y-129600000D02*
X64185714Y-129800000D01*
X64471429Y-129942857D02*
X63871429Y-129942857D01*
X63871429Y-129714285D01*
X63900000Y-129657143D01*
X63928571Y-129628571D01*
X63985714Y-129600000D01*
X64071429Y-129600000D01*
X64128571Y-129628571D01*
X64157143Y-129657143D01*
X64185714Y-129714285D01*
X64185714Y-129942857D01*
X63928571Y-129371428D02*
X63900000Y-129342857D01*
X63871429Y-129285714D01*
X63871429Y-129142857D01*
X63900000Y-129085714D01*
X63928571Y-129057143D01*
X63985714Y-129028571D01*
X64042857Y-129028571D01*
X64128571Y-129057143D01*
X64471429Y-129400000D01*
X64471429Y-129028571D01*
X67628571Y-129957143D02*
X67600000Y-129928572D01*
X67571429Y-129871429D01*
X67571429Y-129728572D01*
X67600000Y-129671429D01*
X67628571Y-129642858D01*
X67685714Y-129614286D01*
X67742857Y-129614286D01*
X67828571Y-129642858D01*
X68171429Y-129985715D01*
X68171429Y-129614286D01*
X67628571Y-129385714D02*
X67600000Y-129357143D01*
X67571429Y-129300000D01*
X67571429Y-129157143D01*
X67600000Y-129100000D01*
X67628571Y-129071429D01*
X67685714Y-129042857D01*
X67742857Y-129042857D01*
X67828571Y-129071429D01*
X68171429Y-129414286D01*
X68171429Y-129042857D01*
X59971429Y-141600000D02*
X59685714Y-141800000D01*
X59971429Y-141942857D02*
X59371429Y-141942857D01*
X59371429Y-141714285D01*
X59400000Y-141657143D01*
X59428571Y-141628571D01*
X59485714Y-141600000D01*
X59571429Y-141600000D01*
X59628571Y-141628571D01*
X59657143Y-141657143D01*
X59685714Y-141714285D01*
X59685714Y-141942857D01*
X59371429Y-141400000D02*
X59371429Y-141028571D01*
X59600000Y-141228571D01*
X59600000Y-141142857D01*
X59628571Y-141085714D01*
X59657143Y-141057143D01*
X59714286Y-141028571D01*
X59857143Y-141028571D01*
X59914286Y-141057143D01*
X59942857Y-141085714D01*
X59971429Y-141142857D01*
X59971429Y-141314285D01*
X59942857Y-141371428D01*
X59914286Y-141400000D01*
X63028571Y-141957143D02*
X63000000Y-141928572D01*
X62971429Y-141871429D01*
X62971429Y-141728572D01*
X63000000Y-141671429D01*
X63028571Y-141642858D01*
X63085714Y-141614286D01*
X63142857Y-141614286D01*
X63228571Y-141642858D01*
X63571429Y-141985715D01*
X63571429Y-141614286D01*
X63028571Y-141385714D02*
X63000000Y-141357143D01*
X62971429Y-141300000D01*
X62971429Y-141157143D01*
X63000000Y-141100000D01*
X63028571Y-141071429D01*
X63085714Y-141042857D01*
X63142857Y-141042857D01*
X63228571Y-141071429D01*
X63571429Y-141414286D01*
X63571429Y-141042857D01*
X64671429Y-146600000D02*
X64385714Y-146800000D01*
X64671429Y-146942857D02*
X64071429Y-146942857D01*
X64071429Y-146714285D01*
X64100000Y-146657143D01*
X64128571Y-146628571D01*
X64185714Y-146600000D01*
X64271429Y-146600000D01*
X64328571Y-146628571D01*
X64357143Y-146657143D01*
X64385714Y-146714285D01*
X64385714Y-146942857D01*
X64271429Y-146085714D02*
X64671429Y-146085714D01*
X64042857Y-146228571D02*
X64471429Y-146371428D01*
X64471429Y-146000000D01*
X67871429Y-147257143D02*
X67271429Y-147257143D01*
X67271429Y-147114286D01*
X67300000Y-147028571D01*
X67357143Y-146971429D01*
X67414286Y-146942857D01*
X67528571Y-146914286D01*
X67614286Y-146914286D01*
X67728571Y-146942857D01*
X67785714Y-146971429D01*
X67842857Y-147028571D01*
X67871429Y-147114286D01*
X67871429Y-147257143D01*
X67871429Y-146657143D02*
X67271429Y-146657143D01*
X67871429Y-146314286D01*
X67271429Y-146314286D01*
X67842857Y-146057143D02*
X67871429Y-145971429D01*
X67871429Y-145828572D01*
X67842857Y-145771429D01*
X67814286Y-145742858D01*
X67757143Y-145714286D01*
X67700000Y-145714286D01*
X67642857Y-145742858D01*
X67614286Y-145771429D01*
X67585714Y-145828572D01*
X67557143Y-145942858D01*
X67528571Y-146000000D01*
X67500000Y-146028572D01*
X67442857Y-146057143D01*
X67385714Y-146057143D01*
X67328571Y-146028572D01*
X67300000Y-146000000D01*
X67271429Y-145942858D01*
X67271429Y-145800000D01*
X67300000Y-145714286D01*
X63671429Y-144100000D02*
X63385714Y-144300000D01*
X63671429Y-144442857D02*
X63071429Y-144442857D01*
X63071429Y-144214285D01*
X63100000Y-144157143D01*
X63128571Y-144128571D01*
X63185714Y-144100000D01*
X63271429Y-144100000D01*
X63328571Y-144128571D01*
X63357143Y-144157143D01*
X63385714Y-144214285D01*
X63385714Y-144442857D01*
X63071429Y-143557143D02*
X63071429Y-143842857D01*
X63357143Y-143871428D01*
X63328571Y-143842857D01*
X63300000Y-143785714D01*
X63300000Y-143642857D01*
X63328571Y-143585714D01*
X63357143Y-143557143D01*
X63414286Y-143528571D01*
X63557143Y-143528571D01*
X63614286Y-143557143D01*
X63642857Y-143585714D01*
X63671429Y-143642857D01*
X63671429Y-143785714D01*
X63642857Y-143842857D01*
X63614286Y-143871428D01*
X59971429Y-144757143D02*
X59371429Y-144757143D01*
X59371429Y-144614286D01*
X59400000Y-144528571D01*
X59457143Y-144471429D01*
X59514286Y-144442857D01*
X59628571Y-144414286D01*
X59714286Y-144414286D01*
X59828571Y-144442857D01*
X59885714Y-144471429D01*
X59942857Y-144528571D01*
X59971429Y-144614286D01*
X59971429Y-144757143D01*
X59971429Y-144157143D02*
X59371429Y-144157143D01*
X59971429Y-143814286D01*
X59371429Y-143814286D01*
X59942857Y-143557143D02*
X59971429Y-143471429D01*
X59971429Y-143328572D01*
X59942857Y-143271429D01*
X59914286Y-143242858D01*
X59857143Y-143214286D01*
X59800000Y-143214286D01*
X59742857Y-143242858D01*
X59714286Y-143271429D01*
X59685714Y-143328572D01*
X59657143Y-143442858D01*
X59628571Y-143500000D01*
X59600000Y-143528572D01*
X59542857Y-143557143D01*
X59485714Y-143557143D01*
X59428571Y-143528572D01*
X59400000Y-143500000D01*
X59371429Y-143442858D01*
X59371429Y-143300000D01*
X59400000Y-143214286D01*
X78452381Y-132261905D02*
X79261905Y-132261905D01*
X79357143Y-132214286D01*
X79404762Y-132166667D01*
X79452381Y-132071429D01*
X79452381Y-131880952D01*
X79404762Y-131785714D01*
X79357143Y-131738095D01*
X79261905Y-131690476D01*
X78452381Y-131690476D01*
X79452381Y-130690476D02*
X79452381Y-131261905D01*
X79452381Y-130976191D02*
X78452381Y-130976191D01*
X78595238Y-131071429D01*
X78690476Y-131166667D01*
X78738095Y-131261905D01*
X90452381Y-133761905D02*
X91261905Y-133761905D01*
X91357143Y-133714286D01*
X91404762Y-133666667D01*
X91452381Y-133571429D01*
X91452381Y-133380952D01*
X91404762Y-133285714D01*
X91357143Y-133238095D01*
X91261905Y-133190476D01*
X90452381Y-133190476D01*
X90547619Y-132761905D02*
X90500000Y-132714286D01*
X90452381Y-132619048D01*
X90452381Y-132380952D01*
X90500000Y-132285714D01*
X90547619Y-132238095D01*
X90642857Y-132190476D01*
X90738095Y-132190476D01*
X90880952Y-132238095D01*
X91452381Y-132809524D01*
X91452381Y-132190476D01*
X48738095Y-135452381D02*
X48738095Y-136261905D01*
X48785714Y-136357143D01*
X48833333Y-136404762D01*
X48928571Y-136452381D01*
X49119048Y-136452381D01*
X49214286Y-136404762D01*
X49261905Y-136357143D01*
X49309524Y-136261905D01*
X49309524Y-135452381D01*
X50261905Y-135452381D02*
X49785714Y-135452381D01*
X49738095Y-135928571D01*
X49785714Y-135880952D01*
X49880952Y-135833333D01*
X50119048Y-135833333D01*
X50214286Y-135880952D01*
X50261905Y-135928571D01*
X50309524Y-136023810D01*
X50309524Y-136261905D01*
X50261905Y-136357143D01*
X50214286Y-136404762D01*
X50119048Y-136452381D01*
X49880952Y-136452381D01*
X49785714Y-136404762D01*
X49738095Y-136357143D01*
X99652381Y-136561905D02*
X100461905Y-136561905D01*
X100557143Y-136514286D01*
X100604762Y-136466667D01*
X100652381Y-136371429D01*
X100652381Y-136180952D01*
X100604762Y-136085714D01*
X100557143Y-136038095D01*
X100461905Y-135990476D01*
X99652381Y-135990476D01*
X99652381Y-135085714D02*
X99652381Y-135276191D01*
X99700000Y-135371429D01*
X99747619Y-135419048D01*
X99890476Y-135514286D01*
X100080952Y-135561905D01*
X100461905Y-135561905D01*
X100557143Y-135514286D01*
X100604762Y-135466667D01*
X100652381Y-135371429D01*
X100652381Y-135180952D01*
X100604762Y-135085714D01*
X100557143Y-135038095D01*
X100461905Y-134990476D01*
X100223810Y-134990476D01*
X100128571Y-135038095D01*
X100080952Y-135085714D01*
X100033333Y-135180952D01*
X100033333Y-135371429D01*
X100080952Y-135466667D01*
X100128571Y-135514286D01*
X100223810Y-135561905D01*
X63371429Y-134685715D02*
X63971429Y-134285715D01*
X63371429Y-134285715D02*
X63971429Y-134685715D01*
X63971429Y-133742857D02*
X63971429Y-134085714D01*
X63971429Y-133914286D02*
X63371429Y-133914286D01*
X63457143Y-133971429D01*
X63514286Y-134028571D01*
X63542857Y-134085714D01*
X95700000Y-150742857D02*
X95785714Y-150771429D01*
X95928571Y-150771429D01*
X95985714Y-150742857D01*
X96014285Y-150714286D01*
X96042857Y-150657143D01*
X96042857Y-150600000D01*
X96014285Y-150542857D01*
X95985714Y-150514286D01*
X95928571Y-150485714D01*
X95814285Y-150457143D01*
X95757143Y-150428571D01*
X95728571Y-150400000D01*
X95700000Y-150342857D01*
X95700000Y-150285714D01*
X95728571Y-150228571D01*
X95757143Y-150200000D01*
X95814285Y-150171429D01*
X95957143Y-150171429D01*
X96042857Y-150200000D01*
X96242857Y-150171429D02*
X96385714Y-150771429D01*
X96500000Y-150342857D01*
X96614286Y-150771429D01*
X96757143Y-150171429D01*
X97300000Y-150771429D02*
X96957143Y-150771429D01*
X97128571Y-150771429D02*
X97128571Y-150171429D01*
X97071428Y-150257143D01*
X97014286Y-150314286D01*
X96957143Y-150342857D01*
X69414286Y-129885715D02*
X69442857Y-129914286D01*
X69471429Y-130000000D01*
X69471429Y-130057143D01*
X69442857Y-130142858D01*
X69385714Y-130200000D01*
X69328571Y-130228572D01*
X69214286Y-130257143D01*
X69128571Y-130257143D01*
X69014286Y-130228572D01*
X68957143Y-130200000D01*
X68900000Y-130142858D01*
X68871429Y-130057143D01*
X68871429Y-130000000D01*
X68900000Y-129914286D01*
X68928571Y-129885715D01*
X69471429Y-129314286D02*
X69471429Y-129657143D01*
X69471429Y-129485715D02*
X68871429Y-129485715D01*
X68957143Y-129542858D01*
X69014286Y-129600000D01*
X69042857Y-129657143D01*
X68871429Y-129114286D02*
X68871429Y-128742857D01*
X69100000Y-128942857D01*
X69100000Y-128857143D01*
X69128571Y-128800000D01*
X69157143Y-128771429D01*
X69214286Y-128742857D01*
X69357143Y-128742857D01*
X69414286Y-128771429D01*
X69442857Y-128800000D01*
X69471429Y-128857143D01*
X69471429Y-129028571D01*
X69442857Y-129085714D01*
X69414286Y-129114286D01*
X73071429Y-130214286D02*
X73071429Y-130557143D01*
X73071429Y-130385715D02*
X72471429Y-130385715D01*
X72557143Y-130442858D01*
X72614286Y-130500000D01*
X72642857Y-130557143D01*
X72471429Y-129842857D02*
X72471429Y-129785714D01*
X72500000Y-129728571D01*
X72528571Y-129700000D01*
X72585714Y-129671429D01*
X72700000Y-129642857D01*
X72842857Y-129642857D01*
X72957143Y-129671429D01*
X73014286Y-129700000D01*
X73042857Y-129728571D01*
X73071429Y-129785714D01*
X73071429Y-129842857D01*
X73042857Y-129900000D01*
X73014286Y-129928571D01*
X72957143Y-129957143D01*
X72842857Y-129985714D01*
X72700000Y-129985714D01*
X72585714Y-129957143D01*
X72528571Y-129928571D01*
X72500000Y-129900000D01*
X72471429Y-129842857D01*
X72471429Y-129271428D02*
X72471429Y-129214285D01*
X72500000Y-129157142D01*
X72528571Y-129128571D01*
X72585714Y-129100000D01*
X72700000Y-129071428D01*
X72842857Y-129071428D01*
X72957143Y-129100000D01*
X73014286Y-129128571D01*
X73042857Y-129157142D01*
X73071429Y-129214285D01*
X73071429Y-129271428D01*
X73042857Y-129328571D01*
X73014286Y-129357142D01*
X72957143Y-129385714D01*
X72842857Y-129414285D01*
X72700000Y-129414285D01*
X72585714Y-129385714D01*
X72528571Y-129357142D01*
X72500000Y-129328571D01*
X72471429Y-129271428D01*
X73071429Y-128814285D02*
X72471429Y-128814285D01*
X73071429Y-128471428D01*
X72471429Y-128471428D01*
X51914286Y-133885715D02*
X51942857Y-133914286D01*
X51971429Y-134000000D01*
X51971429Y-134057143D01*
X51942857Y-134142858D01*
X51885714Y-134200000D01*
X51828571Y-134228572D01*
X51714286Y-134257143D01*
X51628571Y-134257143D01*
X51514286Y-134228572D01*
X51457143Y-134200000D01*
X51400000Y-134142858D01*
X51371429Y-134057143D01*
X51371429Y-134000000D01*
X51400000Y-133914286D01*
X51428571Y-133885715D01*
X51971429Y-133314286D02*
X51971429Y-133657143D01*
X51971429Y-133485715D02*
X51371429Y-133485715D01*
X51457143Y-133542858D01*
X51514286Y-133600000D01*
X51542857Y-133657143D01*
X51571429Y-132800000D02*
X51971429Y-132800000D01*
X51342857Y-132942857D02*
X51771429Y-133085714D01*
X51771429Y-132714286D01*
X55671429Y-134214286D02*
X55671429Y-134557143D01*
X55671429Y-134385715D02*
X55071429Y-134385715D01*
X55157143Y-134442858D01*
X55214286Y-134500000D01*
X55242857Y-134557143D01*
X55071429Y-133842857D02*
X55071429Y-133785714D01*
X55100000Y-133728571D01*
X55128571Y-133700000D01*
X55185714Y-133671429D01*
X55300000Y-133642857D01*
X55442857Y-133642857D01*
X55557143Y-133671429D01*
X55614286Y-133700000D01*
X55642857Y-133728571D01*
X55671429Y-133785714D01*
X55671429Y-133842857D01*
X55642857Y-133900000D01*
X55614286Y-133928571D01*
X55557143Y-133957143D01*
X55442857Y-133985714D01*
X55300000Y-133985714D01*
X55185714Y-133957143D01*
X55128571Y-133928571D01*
X55100000Y-133900000D01*
X55071429Y-133842857D01*
X55071429Y-133271428D02*
X55071429Y-133214285D01*
X55100000Y-133157142D01*
X55128571Y-133128571D01*
X55185714Y-133100000D01*
X55300000Y-133071428D01*
X55442857Y-133071428D01*
X55557143Y-133100000D01*
X55614286Y-133128571D01*
X55642857Y-133157142D01*
X55671429Y-133214285D01*
X55671429Y-133271428D01*
X55642857Y-133328571D01*
X55614286Y-133357142D01*
X55557143Y-133385714D01*
X55442857Y-133414285D01*
X55300000Y-133414285D01*
X55185714Y-133385714D01*
X55128571Y-133357142D01*
X55100000Y-133328571D01*
X55071429Y-133271428D01*
X55671429Y-132814285D02*
X55071429Y-132814285D01*
X55671429Y-132471428D01*
X55071429Y-132471428D01*
M02*
