M48
;DRILL file {KiCad (2015-07-11 BZR 5925, Git c291b88)-product} date 9/9/2015 4:31:31 PM
;FORMAT={-:-/ absolute / inch / decimal}
FMAT,2
INCH,TZ
T1C0.016
T2C0.020
T3C0.033
T4C0.040
T5C0.051
T6C0.118
T7C0.118
%
G90
G05
M72
T1
X1.6693Y-5.9921
X1.6811Y-5.1024
X1.7165Y-5.3189
X1.7953Y-5.3189
X1.7992Y-5.6654
X1.815Y-5.6299
X1.8346Y-5.0787
X1.8346Y-5.8465
X1.8543Y-5.2126
X1.8819Y-5.3898
X2.0315Y-5.3071
X2.0472Y-5.6535
X2.0669Y-5.4724
X2.1417Y-5.5748
X2.1772Y-5.4606
X2.1772Y-5.5591
X2.1811Y-5.0984
X2.185Y-5.5236
X2.1929Y-5.378
X2.2008Y-6.0039
X2.2402Y-5.9055
X2.2441Y-6.063
X2.2559Y-5.1693
X2.2559Y-5.3071
X2.2717Y-5.9173
X2.2835Y-5.1378
X2.2953Y-5.1063
X2.3071Y-5.9094
X2.3307Y-5.6575
X2.3583Y-5.6339
X2.3858Y-5.4213
X2.4449Y-5.7953
X2.4567Y-5.622
X2.4961Y-5.7402
X2.5118Y-5.1929
X2.5197Y-5.3268
X2.5315Y-5.8228
X2.5472Y-5.3071
X2.5748Y-5.2795
X2.6024Y-5.4646
X2.6063Y-5.5866
X2.6929Y-5.0669
X2.7126Y-5.2244
X2.7559Y-4.9803
X2.7677Y-5.5945
X2.7835Y-5.0472
X2.815Y-5.3071
X2.8346Y-5.0551
X2.8465Y-5.9055
X2.8543Y-5.563
X2.8858Y-5.6063
X2.8898Y-5.9016
X2.9173Y-5.878
X2.937Y-5.8189
X2.9606Y-5.2638
X3.0039Y-4.5512
X3.0118Y-4.8701
X3.0118Y-5.7087
X3.0433Y-4.9961
X3.0433Y-5.0591
X3.0512Y-5.3976
X3.0669Y-5.8346
X3.0709Y-5.8937
X3.0748Y-5.0866
X3.0748Y-5.5591
X3.0748Y-5.5945
X3.0945Y-5.5315
X3.1102Y-5.7677
X3.1299Y-5.7047
X3.1339Y-5.6181
X3.1457Y-5.2165
X3.1693Y-4.9724
X3.1693Y-5.6299
X3.1969Y-5.8268
X3.2008Y-5.6535
X3.2047Y-5.3819
X3.2047Y-5.5709
X3.2047Y-5.7323
X3.2283Y-5.8031
X3.311Y-5.5315
X3.3386Y-5.3937
X3.3465Y-5.1457
X3.3898Y-5.2638
X3.3976Y-5.4528
X3.4449Y-5.7874
X3.4528Y-5.5669
X3.4606Y-5.6811
X3.4646Y-5.1339
X3.4803Y-5.7835
X3.4961Y-5.5669
X3.5236Y-5.3937
X3.5315Y-5.3543
X3.5315Y-5.5551
X3.5315Y-5.8425
X3.5433Y-5.248
X3.5512Y-5.5276
X3.5591Y-4.8071
X3.563Y-6.0433
X3.6102Y-5.8189
X3.6339Y-5.2992
X3.6457Y-5.4252
X3.6457Y-5.7559
X3.6654Y-5.5748
X3.6654Y-5.9016
X3.6693Y-5.3031
X3.6772Y-5.8701
X3.6969Y-4.8819
X3.6969Y-5.0079
X3.7008Y-5.122
X3.7205Y-5.9567
X3.7283Y-4.8543
X3.7283Y-5.878
X3.7402Y-5.7795
X3.7756Y-5.2953
X3.7756Y-5.7283
X3.811Y-5.4764
X3.8228Y-5.7283
X3.8701Y-6.0197
X3.8898Y-5.0157
X3.9291Y-5.122
X3.9724Y-5.2913
X3.9764Y-4.685
X3.9803Y-5.748
X3.9843Y-5.1535
X3.9882Y-4.7559
X3.9961Y-6.0039
X4.Y-5.4685
X4.Y-5.5157
X4.Y-5.5591
X4.0236Y-5.6378
X4.0315Y-4.8465
X4.0354Y-4.8819
X4.0866Y-5.315
X4.0984Y-5.185
X4.1063Y-5.0591
X4.1181Y-5.8898
X4.2047Y-5.315
T2
X1.622Y-5.0354
X1.622Y-5.3071
X2.0394Y-4.9094
X3.6024Y-5.0787
T3
X1.752Y-4.5536
X1.9489Y-4.5536
X3.878Y-4.5536
X4.0748Y-4.5536
T4
X2.1425Y-4.9803
X2.2425Y-4.9803
X2.3425Y-4.9803
X2.3882Y-5.9921
X2.4882Y-5.9921
X2.5449Y-4.8213
X2.5449Y-4.9213
X2.548Y-4.5102
X2.548Y-4.6102
X2.5882Y-5.9921
X2.6449Y-4.8213
X2.6449Y-4.9213
X2.648Y-4.5102
X2.648Y-4.6102
X2.6882Y-5.9921
X2.7449Y-4.8213
X2.7449Y-4.9213
X2.748Y-4.5102
X2.748Y-4.6102
X2.7882Y-5.9921
X2.8449Y-4.8213
X2.8449Y-4.9213
X2.8882Y-5.9921
X2.9449Y-4.8213
X2.9449Y-4.9213
X2.9882Y-5.9921
X3.0882Y-5.9921
X3.1882Y-5.9921
X3.2882Y-5.9921
X3.3882Y-5.9921
X3.4882Y-5.9921
T5
X1.7126Y-4.4395
X1.9882Y-4.4395
X3.8386Y-4.4395
X4.1142Y-4.4395
T6
X3.1733Y-4.7717
T7
X3.3583Y-4.6536
X3.3583Y-4.8898
T0
M30
