G04 #@! TF.FileFunction,Soldermask,Bot*
%FSLAX46Y46*%
G04 Gerber Fmt 4.6, Leading zero omitted, Abs format (unit mm)*
G04 Created by KiCad (PCBNEW (2015-07-11 BZR 5925, Git c291b88)-product) date 9/9/2015 4:31:28 PM*
%MOMM*%
G01*
G04 APERTURE LIST*
%ADD10C,0.100000*%
%ADD11R,5.080000X1.778000*%
%ADD12R,3.500120X3.500120*%
%ADD13R,1.727200X1.727200*%
%ADD14O,1.727200X1.727200*%
%ADD15R,1.727200X2.032000*%
%ADD16O,1.727200X2.032000*%
%ADD17C,1.800000*%
%ADD18C,1.250000*%
G04 APERTURE END LIST*
D10*
D11*
X105460000Y-139706000D03*
X105460000Y-142500000D03*
X105460000Y-145294000D03*
X105460000Y-148088000D03*
X105460000Y-136912000D03*
X42540000Y-146691000D03*
X42540000Y-143897000D03*
X42540000Y-141103000D03*
X42540000Y-138309000D03*
D12*
X85300000Y-124200140D03*
X85300000Y-118200660D03*
X80601000Y-121200400D03*
D13*
X74800000Y-125000000D03*
D14*
X74800000Y-122460000D03*
X72260000Y-125000000D03*
X72260000Y-122460000D03*
X69720000Y-125000000D03*
X69720000Y-122460000D03*
X67180000Y-125000000D03*
X67180000Y-122460000D03*
X64640000Y-125000000D03*
X64640000Y-122460000D03*
D13*
X69800000Y-117100000D03*
D14*
X69800000Y-114560000D03*
X67260000Y-117100000D03*
X67260000Y-114560000D03*
X64720000Y-117100000D03*
X64720000Y-114560000D03*
D15*
X59500000Y-126500000D03*
D16*
X56960000Y-126500000D03*
X54420000Y-126500000D03*
D17*
X50500900Y-112762540D03*
D18*
X49500900Y-115662540D03*
X44500900Y-115662540D03*
D17*
X43500900Y-112762540D03*
X104500900Y-112762540D03*
D18*
X103500900Y-115662540D03*
X98500900Y-115662540D03*
D17*
X97500900Y-112762540D03*
D15*
X88600000Y-152200000D03*
D16*
X86060000Y-152200000D03*
X83520000Y-152200000D03*
X80980000Y-152200000D03*
X78440000Y-152200000D03*
X75900000Y-152200000D03*
X73360000Y-152200000D03*
X70820000Y-152200000D03*
X68280000Y-152200000D03*
X65740000Y-152200000D03*
X63200000Y-152200000D03*
X60660000Y-152200000D03*
M02*
