G04 #@! TF.FileFunction,Legend,Top*
%FSLAX46Y46*%
G04 Gerber Fmt 4.6, Leading zero omitted, Abs format (unit mm)*
G04 Created by KiCad (PCBNEW (2015-07-11 BZR 5925, Git c291b88)-product) date 8/6/2015 4:30:13 PM*
%MOMM*%
G01*
G04 APERTURE LIST*
%ADD10C,0.100000*%
%ADD11C,0.150000*%
G04 APERTURE END LIST*
D10*
D11*
X88657142Y-96871429D02*
X88657142Y-97357143D01*
X88685714Y-97414286D01*
X88714285Y-97442857D01*
X88771428Y-97471429D01*
X88885714Y-97471429D01*
X88942856Y-97442857D01*
X88971428Y-97414286D01*
X88999999Y-97357143D01*
X88999999Y-96871429D01*
X89285713Y-97071429D02*
X89285713Y-97471429D01*
X89285713Y-97128571D02*
X89314285Y-97100000D01*
X89371427Y-97071429D01*
X89457142Y-97071429D01*
X89514285Y-97100000D01*
X89542856Y-97157143D01*
X89542856Y-97471429D01*
X89914284Y-97471429D02*
X89857142Y-97442857D01*
X89828570Y-97385714D01*
X89828570Y-96871429D01*
X90399999Y-97471429D02*
X90399999Y-97157143D01*
X90371428Y-97100000D01*
X90314285Y-97071429D01*
X90199999Y-97071429D01*
X90142856Y-97100000D01*
X90399999Y-97442857D02*
X90342856Y-97471429D01*
X90199999Y-97471429D01*
X90142856Y-97442857D01*
X90114285Y-97385714D01*
X90114285Y-97328571D01*
X90142856Y-97271429D01*
X90199999Y-97242857D01*
X90342856Y-97242857D01*
X90399999Y-97214286D01*
X90685713Y-97471429D02*
X90685713Y-96871429D01*
X90685713Y-97100000D02*
X90742856Y-97071429D01*
X90857142Y-97071429D01*
X90914285Y-97100000D01*
X90942856Y-97128571D01*
X90971427Y-97185714D01*
X90971427Y-97357143D01*
X90942856Y-97414286D01*
X90914285Y-97442857D01*
X90857142Y-97471429D01*
X90742856Y-97471429D01*
X90685713Y-97442857D01*
X91457142Y-97442857D02*
X91399999Y-97471429D01*
X91285713Y-97471429D01*
X91228570Y-97442857D01*
X91199999Y-97385714D01*
X91199999Y-97157143D01*
X91228570Y-97100000D01*
X91285713Y-97071429D01*
X91399999Y-97071429D01*
X91457142Y-97100000D01*
X91485713Y-97157143D01*
X91485713Y-97214286D01*
X91199999Y-97271429D01*
X91828570Y-97471429D02*
X91771428Y-97442857D01*
X91742856Y-97385714D01*
X91742856Y-96871429D01*
X92285714Y-97442857D02*
X92228571Y-97471429D01*
X92114285Y-97471429D01*
X92057142Y-97442857D01*
X92028571Y-97385714D01*
X92028571Y-97157143D01*
X92057142Y-97100000D01*
X92114285Y-97071429D01*
X92228571Y-97071429D01*
X92285714Y-97100000D01*
X92314285Y-97157143D01*
X92314285Y-97214286D01*
X92028571Y-97271429D01*
X92828571Y-97471429D02*
X92828571Y-96871429D01*
X92828571Y-97442857D02*
X92771428Y-97471429D01*
X92657142Y-97471429D01*
X92600000Y-97442857D01*
X92571428Y-97414286D01*
X92542857Y-97357143D01*
X92542857Y-97185714D01*
X92571428Y-97128571D01*
X92600000Y-97100000D01*
X92657142Y-97071429D01*
X92771428Y-97071429D01*
X92828571Y-97100000D01*
X93914285Y-97414286D02*
X93885714Y-97442857D01*
X93800000Y-97471429D01*
X93742857Y-97471429D01*
X93657142Y-97442857D01*
X93600000Y-97385714D01*
X93571428Y-97328571D01*
X93542857Y-97214286D01*
X93542857Y-97128571D01*
X93571428Y-97014286D01*
X93600000Y-96957143D01*
X93657142Y-96900000D01*
X93742857Y-96871429D01*
X93800000Y-96871429D01*
X93885714Y-96900000D01*
X93914285Y-96928571D01*
X94200000Y-96871429D02*
X94142857Y-96985714D01*
X94428571Y-97442857D02*
X94485714Y-97471429D01*
X94599999Y-97471429D01*
X94657142Y-97442857D01*
X94685714Y-97385714D01*
X94685714Y-97357143D01*
X94657142Y-97300000D01*
X94599999Y-97271429D01*
X94514285Y-97271429D01*
X94457142Y-97242857D01*
X94428571Y-97185714D01*
X94428571Y-97157143D01*
X94457142Y-97100000D01*
X94514285Y-97071429D01*
X94599999Y-97071429D01*
X94657142Y-97100000D01*
X95657142Y-97471429D02*
X95657142Y-97157143D01*
X95628571Y-97100000D01*
X95571428Y-97071429D01*
X95457142Y-97071429D01*
X95399999Y-97100000D01*
X95657142Y-97442857D02*
X95599999Y-97471429D01*
X95457142Y-97471429D01*
X95399999Y-97442857D01*
X95371428Y-97385714D01*
X95371428Y-97328571D01*
X95399999Y-97271429D01*
X95457142Y-97242857D01*
X95599999Y-97242857D01*
X95657142Y-97214286D01*
X95942856Y-97471429D02*
X95942856Y-97071429D01*
X95942856Y-97185714D02*
X95971428Y-97128571D01*
X95999999Y-97100000D01*
X96057142Y-97071429D01*
X96114285Y-97071429D01*
X96542857Y-97442857D02*
X96485714Y-97471429D01*
X96371428Y-97471429D01*
X96314285Y-97442857D01*
X96285714Y-97385714D01*
X96285714Y-97157143D01*
X96314285Y-97100000D01*
X96371428Y-97071429D01*
X96485714Y-97071429D01*
X96542857Y-97100000D01*
X96571428Y-97157143D01*
X96571428Y-97214286D01*
X96285714Y-97271429D01*
X97600000Y-97471429D02*
X97257143Y-97471429D01*
X97428571Y-97471429D02*
X97428571Y-96871429D01*
X97371428Y-96957143D01*
X97314286Y-97014286D01*
X97257143Y-97042857D01*
X97971429Y-96871429D02*
X98028572Y-96871429D01*
X98085715Y-96900000D01*
X98114286Y-96928571D01*
X98142857Y-96985714D01*
X98171429Y-97100000D01*
X98171429Y-97242857D01*
X98142857Y-97357143D01*
X98114286Y-97414286D01*
X98085715Y-97442857D01*
X98028572Y-97471429D01*
X97971429Y-97471429D01*
X97914286Y-97442857D01*
X97885715Y-97414286D01*
X97857143Y-97357143D01*
X97828572Y-97242857D01*
X97828572Y-97100000D01*
X97857143Y-96985714D01*
X97885715Y-96928571D01*
X97914286Y-96900000D01*
X97971429Y-96871429D01*
X98542858Y-96871429D02*
X98600001Y-96871429D01*
X98657144Y-96900000D01*
X98685715Y-96928571D01*
X98714286Y-96985714D01*
X98742858Y-97100000D01*
X98742858Y-97242857D01*
X98714286Y-97357143D01*
X98685715Y-97414286D01*
X98657144Y-97442857D01*
X98600001Y-97471429D01*
X98542858Y-97471429D01*
X98485715Y-97442857D01*
X98457144Y-97414286D01*
X98428572Y-97357143D01*
X98400001Y-97242857D01*
X98400001Y-97100000D01*
X98428572Y-96985714D01*
X98457144Y-96928571D01*
X98485715Y-96900000D01*
X98542858Y-96871429D01*
X99000001Y-97471429D02*
X99000001Y-96871429D01*
X99342858Y-97471429D01*
X99342858Y-96871429D01*
X71600000Y-105075000D02*
X70600000Y-105075000D01*
X70600000Y-103725000D02*
X71600000Y-103725000D01*
X70600000Y-108125000D02*
X71600000Y-108125000D01*
X71600000Y-109475000D02*
X70600000Y-109475000D01*
X100000000Y-100025000D02*
X101000000Y-100025000D01*
X101000000Y-101375000D02*
X100000000Y-101375000D01*
X100000000Y-104325000D02*
X101000000Y-104325000D01*
X101000000Y-105675000D02*
X100000000Y-105675000D01*
X71500000Y-102875000D02*
X70500000Y-102875000D01*
X70500000Y-101525000D02*
X71500000Y-101525000D01*
X81110000Y-101770000D02*
X81110000Y-98070000D01*
X82910000Y-101770000D02*
X82910000Y-98070000D01*
X83715000Y-99460000D02*
X83715000Y-98460000D01*
X85065000Y-98460000D02*
X85065000Y-99460000D01*
X85065000Y-101360000D02*
X85065000Y-102360000D01*
X83715000Y-102360000D02*
X83715000Y-101360000D01*
X93375000Y-108700000D02*
X93375000Y-109700000D01*
X92025000Y-109700000D02*
X92025000Y-108700000D01*
X85000000Y-105075000D02*
X84000000Y-105075000D01*
X84000000Y-103725000D02*
X85000000Y-103725000D01*
X93700000Y-107275000D02*
X92700000Y-107275000D01*
X92700000Y-105925000D02*
X93700000Y-105925000D01*
X82475000Y-112000000D02*
X82475000Y-113000000D01*
X81125000Y-113000000D02*
X81125000Y-112000000D01*
X79006320Y-98600000D02*
X79006320Y-98799800D01*
X78549280Y-98650000D02*
X78549280Y-98799000D01*
X74403840Y-98600000D02*
X74403840Y-98749000D01*
X79001240Y-102200000D02*
X79001240Y-102051000D01*
X78549280Y-102200000D02*
X78549280Y-102051000D01*
X74398760Y-102200000D02*
X74398760Y-102051000D01*
X78549280Y-98451020D02*
X78549280Y-98649140D01*
X78549280Y-102398980D02*
X78549280Y-102200860D01*
X74403840Y-98403560D02*
X74403840Y-98601680D01*
X79006320Y-98403560D02*
X74403840Y-98403560D01*
X79006320Y-98403560D02*
X79006320Y-98601680D01*
X79001240Y-102398980D02*
X79001240Y-102200860D01*
X79001240Y-102398980D02*
X74398760Y-102398980D01*
X74398760Y-102398980D02*
X74398760Y-102200860D01*
X73325000Y-106600000D02*
X73325000Y-104600000D01*
X76275000Y-104600000D02*
X76275000Y-106600000D01*
X83575000Y-106175000D02*
X84350000Y-106175000D01*
X90825000Y-113425000D02*
X90050000Y-113425000D01*
X90825000Y-106175000D02*
X90050000Y-106175000D01*
X83575000Y-113425000D02*
X83575000Y-112650000D01*
X90825000Y-113425000D02*
X90825000Y-112650000D01*
X90825000Y-106175000D02*
X90825000Y-106950000D01*
X83575000Y-106175000D02*
X83575000Y-106950000D01*
X82475000Y-105400000D02*
X82475000Y-106400000D01*
X81125000Y-106400000D02*
X81125000Y-105400000D01*
X71600000Y-107275000D02*
X70600000Y-107275000D01*
X70600000Y-105925000D02*
X71600000Y-105925000D01*
X71600000Y-111675000D02*
X70600000Y-111675000D01*
X70600000Y-110325000D02*
X71600000Y-110325000D01*
X100000000Y-102225000D02*
X101000000Y-102225000D01*
X101000000Y-103575000D02*
X100000000Y-103575000D01*
X99500000Y-106625000D02*
X100500000Y-106625000D01*
X100500000Y-107975000D02*
X99500000Y-107975000D01*
X70600000Y-112525000D02*
X71600000Y-112525000D01*
X71600000Y-113875000D02*
X70600000Y-113875000D01*
X95900000Y-105925000D02*
X96900000Y-105925000D01*
X96900000Y-107275000D02*
X95900000Y-107275000D01*
X91925000Y-113000000D02*
X91925000Y-112000000D01*
X93275000Y-112000000D02*
X93275000Y-113000000D01*
X77589000Y-113205000D02*
G75*
G03X77589000Y-113205000I-127000J0D01*
G01*
X78097000Y-113840000D02*
X78097000Y-108760000D01*
X74795000Y-113840000D02*
X74795000Y-108760000D01*
X78605000Y-113840000D02*
X78605000Y-108760000D01*
X78605000Y-113840000D02*
X74795000Y-113840000D01*
X78605000Y-108760000D02*
X74795000Y-108760000D01*
X97165000Y-109395000D02*
G75*
G03X97165000Y-109395000I-127000J0D01*
G01*
X96403000Y-108760000D02*
X96403000Y-113840000D01*
X99705000Y-108760000D02*
X99705000Y-113840000D01*
X95895000Y-108760000D02*
X95895000Y-113840000D01*
X95895000Y-108760000D02*
X99705000Y-108760000D01*
X95895000Y-113840000D02*
X99705000Y-113840000D01*
X80600000Y-105300000D02*
G75*
G03X80600000Y-105300000I-100000J0D01*
G01*
X80250000Y-105850000D02*
X80250000Y-105350000D01*
X77350000Y-105850000D02*
X80250000Y-105850000D01*
X77350000Y-105350000D02*
X77350000Y-105850000D01*
X80250000Y-105350000D02*
X77350000Y-105350000D01*
X69839220Y-97869040D02*
X69229620Y-97869040D01*
X69229620Y-97869040D02*
X69219460Y-98300840D01*
X81125000Y-109700000D02*
X81125000Y-108700000D01*
X82475000Y-108700000D02*
X82475000Y-109700000D01*
X50035000Y-114409000D02*
X50035000Y-97264000D01*
X60830000Y-96629000D02*
X60830000Y-115044000D01*
X60830000Y-95994000D02*
X60830000Y-96629000D01*
X57655000Y-95994000D02*
X57655000Y-115679000D01*
X57655000Y-90279000D02*
X57655000Y-95994000D01*
X56385000Y-121394000D02*
X56385000Y-90279000D01*
X56385000Y-97264000D02*
X50035000Y-97264000D01*
X57655000Y-90279000D02*
X56385000Y-90279000D01*
X60830000Y-95994000D02*
X57655000Y-95994000D01*
X62100000Y-98534000D02*
X62100000Y-96629000D01*
X62100000Y-96629000D02*
X60830000Y-96629000D01*
X56385000Y-114409000D02*
X50035000Y-114409000D01*
X57655000Y-115679000D02*
X57655000Y-121394000D01*
X57655000Y-121394000D02*
X56385000Y-121394000D01*
X60830000Y-115044000D02*
X60830000Y-115679000D01*
X60830000Y-115679000D02*
X57655000Y-115679000D01*
X62100000Y-113139000D02*
X62100000Y-115044000D01*
X62100000Y-115044000D02*
X60830000Y-115044000D01*
X120065000Y-97291000D02*
X120065000Y-114436000D01*
X109270000Y-115071000D02*
X109270000Y-96656000D01*
X109270000Y-115706000D02*
X109270000Y-115071000D01*
X112445000Y-115706000D02*
X112445000Y-96021000D01*
X112445000Y-121421000D02*
X112445000Y-115706000D01*
X113715000Y-90306000D02*
X113715000Y-121421000D01*
X113715000Y-114436000D02*
X120065000Y-114436000D01*
X112445000Y-121421000D02*
X113715000Y-121421000D01*
X109270000Y-115706000D02*
X112445000Y-115706000D01*
X108000000Y-113166000D02*
X108000000Y-115071000D01*
X108000000Y-115071000D02*
X109270000Y-115071000D01*
X113715000Y-97291000D02*
X120065000Y-97291000D01*
X112445000Y-96021000D02*
X112445000Y-90306000D01*
X112445000Y-90306000D02*
X113715000Y-90306000D01*
X109270000Y-96656000D02*
X109270000Y-96021000D01*
X109270000Y-96021000D02*
X112445000Y-96021000D01*
X108000000Y-98561000D02*
X108000000Y-96656000D01*
X108000000Y-96656000D02*
X109270000Y-96656000D01*
X69714286Y-104500000D02*
X69742857Y-104528571D01*
X69771429Y-104614285D01*
X69771429Y-104671428D01*
X69742857Y-104757143D01*
X69685714Y-104814285D01*
X69628571Y-104842857D01*
X69514286Y-104871428D01*
X69428571Y-104871428D01*
X69314286Y-104842857D01*
X69257143Y-104814285D01*
X69200000Y-104757143D01*
X69171429Y-104671428D01*
X69171429Y-104614285D01*
X69200000Y-104528571D01*
X69228571Y-104500000D01*
X69771429Y-103928571D02*
X69771429Y-104271428D01*
X69771429Y-104100000D02*
X69171429Y-104100000D01*
X69257143Y-104157143D01*
X69314286Y-104214285D01*
X69342857Y-104271428D01*
X72371429Y-105128572D02*
X72371429Y-105414286D01*
X72657143Y-105442857D01*
X72628571Y-105414286D01*
X72600000Y-105357143D01*
X72600000Y-105214286D01*
X72628571Y-105157143D01*
X72657143Y-105128572D01*
X72714286Y-105100000D01*
X72857143Y-105100000D01*
X72914286Y-105128572D01*
X72942857Y-105157143D01*
X72971429Y-105214286D01*
X72971429Y-105357143D01*
X72942857Y-105414286D01*
X72914286Y-105442857D01*
X72371429Y-104585714D02*
X72371429Y-104700000D01*
X72400000Y-104757143D01*
X72428571Y-104785714D01*
X72514286Y-104842857D01*
X72628571Y-104871428D01*
X72857143Y-104871428D01*
X72914286Y-104842857D01*
X72942857Y-104814285D01*
X72971429Y-104757143D01*
X72971429Y-104642857D01*
X72942857Y-104585714D01*
X72914286Y-104557143D01*
X72857143Y-104528571D01*
X72714286Y-104528571D01*
X72657143Y-104557143D01*
X72628571Y-104585714D01*
X72600000Y-104642857D01*
X72600000Y-104757143D01*
X72628571Y-104814285D01*
X72657143Y-104842857D01*
X72714286Y-104871428D01*
X72371429Y-104157142D02*
X72371429Y-104099999D01*
X72400000Y-104042856D01*
X72428571Y-104014285D01*
X72485714Y-103985714D01*
X72600000Y-103957142D01*
X72742857Y-103957142D01*
X72857143Y-103985714D01*
X72914286Y-104014285D01*
X72942857Y-104042856D01*
X72971429Y-104099999D01*
X72971429Y-104157142D01*
X72942857Y-104214285D01*
X72914286Y-104242856D01*
X72857143Y-104271428D01*
X72742857Y-104299999D01*
X72600000Y-104299999D01*
X72485714Y-104271428D01*
X72428571Y-104242856D01*
X72400000Y-104214285D01*
X72371429Y-104157142D01*
X72971429Y-103699999D02*
X72371429Y-103699999D01*
X72371429Y-103471427D01*
X72400000Y-103414285D01*
X72428571Y-103385713D01*
X72485714Y-103357142D01*
X72571429Y-103357142D01*
X72628571Y-103385713D01*
X72657143Y-103414285D01*
X72685714Y-103471427D01*
X72685714Y-103699999D01*
X69714286Y-108900000D02*
X69742857Y-108928571D01*
X69771429Y-109014285D01*
X69771429Y-109071428D01*
X69742857Y-109157143D01*
X69685714Y-109214285D01*
X69628571Y-109242857D01*
X69514286Y-109271428D01*
X69428571Y-109271428D01*
X69314286Y-109242857D01*
X69257143Y-109214285D01*
X69200000Y-109157143D01*
X69171429Y-109071428D01*
X69171429Y-109014285D01*
X69200000Y-108928571D01*
X69228571Y-108900000D01*
X69228571Y-108671428D02*
X69200000Y-108642857D01*
X69171429Y-108585714D01*
X69171429Y-108442857D01*
X69200000Y-108385714D01*
X69228571Y-108357143D01*
X69285714Y-108328571D01*
X69342857Y-108328571D01*
X69428571Y-108357143D01*
X69771429Y-108700000D01*
X69771429Y-108328571D01*
X72371429Y-109528572D02*
X72371429Y-109814286D01*
X72657143Y-109842857D01*
X72628571Y-109814286D01*
X72600000Y-109757143D01*
X72600000Y-109614286D01*
X72628571Y-109557143D01*
X72657143Y-109528572D01*
X72714286Y-109500000D01*
X72857143Y-109500000D01*
X72914286Y-109528572D01*
X72942857Y-109557143D01*
X72971429Y-109614286D01*
X72971429Y-109757143D01*
X72942857Y-109814286D01*
X72914286Y-109842857D01*
X72371429Y-108985714D02*
X72371429Y-109100000D01*
X72400000Y-109157143D01*
X72428571Y-109185714D01*
X72514286Y-109242857D01*
X72628571Y-109271428D01*
X72857143Y-109271428D01*
X72914286Y-109242857D01*
X72942857Y-109214285D01*
X72971429Y-109157143D01*
X72971429Y-109042857D01*
X72942857Y-108985714D01*
X72914286Y-108957143D01*
X72857143Y-108928571D01*
X72714286Y-108928571D01*
X72657143Y-108957143D01*
X72628571Y-108985714D01*
X72600000Y-109042857D01*
X72600000Y-109157143D01*
X72628571Y-109214285D01*
X72657143Y-109242857D01*
X72714286Y-109271428D01*
X72371429Y-108557142D02*
X72371429Y-108499999D01*
X72400000Y-108442856D01*
X72428571Y-108414285D01*
X72485714Y-108385714D01*
X72600000Y-108357142D01*
X72742857Y-108357142D01*
X72857143Y-108385714D01*
X72914286Y-108414285D01*
X72942857Y-108442856D01*
X72971429Y-108499999D01*
X72971429Y-108557142D01*
X72942857Y-108614285D01*
X72914286Y-108642856D01*
X72857143Y-108671428D01*
X72742857Y-108699999D01*
X72600000Y-108699999D01*
X72485714Y-108671428D01*
X72428571Y-108642856D01*
X72400000Y-108614285D01*
X72371429Y-108557142D01*
X72971429Y-108099999D02*
X72371429Y-108099999D01*
X72371429Y-107871427D01*
X72400000Y-107814285D01*
X72428571Y-107785713D01*
X72485714Y-107757142D01*
X72571429Y-107757142D01*
X72628571Y-107785713D01*
X72657143Y-107814285D01*
X72685714Y-107871427D01*
X72685714Y-108099999D01*
X99114286Y-100800000D02*
X99142857Y-100828571D01*
X99171429Y-100914285D01*
X99171429Y-100971428D01*
X99142857Y-101057143D01*
X99085714Y-101114285D01*
X99028571Y-101142857D01*
X98914286Y-101171428D01*
X98828571Y-101171428D01*
X98714286Y-101142857D01*
X98657143Y-101114285D01*
X98600000Y-101057143D01*
X98571429Y-100971428D01*
X98571429Y-100914285D01*
X98600000Y-100828571D01*
X98628571Y-100800000D01*
X98571429Y-100600000D02*
X98571429Y-100228571D01*
X98800000Y-100428571D01*
X98800000Y-100342857D01*
X98828571Y-100285714D01*
X98857143Y-100257143D01*
X98914286Y-100228571D01*
X99057143Y-100228571D01*
X99114286Y-100257143D01*
X99142857Y-100285714D01*
X99171429Y-100342857D01*
X99171429Y-100514285D01*
X99142857Y-100571428D01*
X99114286Y-100600000D01*
X101771429Y-101428572D02*
X101771429Y-101714286D01*
X102057143Y-101742857D01*
X102028571Y-101714286D01*
X102000000Y-101657143D01*
X102000000Y-101514286D01*
X102028571Y-101457143D01*
X102057143Y-101428572D01*
X102114286Y-101400000D01*
X102257143Y-101400000D01*
X102314286Y-101428572D01*
X102342857Y-101457143D01*
X102371429Y-101514286D01*
X102371429Y-101657143D01*
X102342857Y-101714286D01*
X102314286Y-101742857D01*
X101771429Y-100885714D02*
X101771429Y-101000000D01*
X101800000Y-101057143D01*
X101828571Y-101085714D01*
X101914286Y-101142857D01*
X102028571Y-101171428D01*
X102257143Y-101171428D01*
X102314286Y-101142857D01*
X102342857Y-101114285D01*
X102371429Y-101057143D01*
X102371429Y-100942857D01*
X102342857Y-100885714D01*
X102314286Y-100857143D01*
X102257143Y-100828571D01*
X102114286Y-100828571D01*
X102057143Y-100857143D01*
X102028571Y-100885714D01*
X102000000Y-100942857D01*
X102000000Y-101057143D01*
X102028571Y-101114285D01*
X102057143Y-101142857D01*
X102114286Y-101171428D01*
X101771429Y-100457142D02*
X101771429Y-100399999D01*
X101800000Y-100342856D01*
X101828571Y-100314285D01*
X101885714Y-100285714D01*
X102000000Y-100257142D01*
X102142857Y-100257142D01*
X102257143Y-100285714D01*
X102314286Y-100314285D01*
X102342857Y-100342856D01*
X102371429Y-100399999D01*
X102371429Y-100457142D01*
X102342857Y-100514285D01*
X102314286Y-100542856D01*
X102257143Y-100571428D01*
X102142857Y-100599999D01*
X102000000Y-100599999D01*
X101885714Y-100571428D01*
X101828571Y-100542856D01*
X101800000Y-100514285D01*
X101771429Y-100457142D01*
X102371429Y-99999999D02*
X101771429Y-99999999D01*
X101771429Y-99771427D01*
X101800000Y-99714285D01*
X101828571Y-99685713D01*
X101885714Y-99657142D01*
X101971429Y-99657142D01*
X102028571Y-99685713D01*
X102057143Y-99714285D01*
X102085714Y-99771427D01*
X102085714Y-99999999D01*
X99114286Y-105100000D02*
X99142857Y-105128571D01*
X99171429Y-105214285D01*
X99171429Y-105271428D01*
X99142857Y-105357143D01*
X99085714Y-105414285D01*
X99028571Y-105442857D01*
X98914286Y-105471428D01*
X98828571Y-105471428D01*
X98714286Y-105442857D01*
X98657143Y-105414285D01*
X98600000Y-105357143D01*
X98571429Y-105271428D01*
X98571429Y-105214285D01*
X98600000Y-105128571D01*
X98628571Y-105100000D01*
X98771429Y-104585714D02*
X99171429Y-104585714D01*
X98542857Y-104728571D02*
X98971429Y-104871428D01*
X98971429Y-104500000D01*
X101771429Y-105728572D02*
X101771429Y-106014286D01*
X102057143Y-106042857D01*
X102028571Y-106014286D01*
X102000000Y-105957143D01*
X102000000Y-105814286D01*
X102028571Y-105757143D01*
X102057143Y-105728572D01*
X102114286Y-105700000D01*
X102257143Y-105700000D01*
X102314286Y-105728572D01*
X102342857Y-105757143D01*
X102371429Y-105814286D01*
X102371429Y-105957143D01*
X102342857Y-106014286D01*
X102314286Y-106042857D01*
X101771429Y-105185714D02*
X101771429Y-105300000D01*
X101800000Y-105357143D01*
X101828571Y-105385714D01*
X101914286Y-105442857D01*
X102028571Y-105471428D01*
X102257143Y-105471428D01*
X102314286Y-105442857D01*
X102342857Y-105414285D01*
X102371429Y-105357143D01*
X102371429Y-105242857D01*
X102342857Y-105185714D01*
X102314286Y-105157143D01*
X102257143Y-105128571D01*
X102114286Y-105128571D01*
X102057143Y-105157143D01*
X102028571Y-105185714D01*
X102000000Y-105242857D01*
X102000000Y-105357143D01*
X102028571Y-105414285D01*
X102057143Y-105442857D01*
X102114286Y-105471428D01*
X101771429Y-104757142D02*
X101771429Y-104699999D01*
X101800000Y-104642856D01*
X101828571Y-104614285D01*
X101885714Y-104585714D01*
X102000000Y-104557142D01*
X102142857Y-104557142D01*
X102257143Y-104585714D01*
X102314286Y-104614285D01*
X102342857Y-104642856D01*
X102371429Y-104699999D01*
X102371429Y-104757142D01*
X102342857Y-104814285D01*
X102314286Y-104842856D01*
X102257143Y-104871428D01*
X102142857Y-104899999D01*
X102000000Y-104899999D01*
X101885714Y-104871428D01*
X101828571Y-104842856D01*
X101800000Y-104814285D01*
X101771429Y-104757142D01*
X102371429Y-104299999D02*
X101771429Y-104299999D01*
X101771429Y-104071427D01*
X101800000Y-104014285D01*
X101828571Y-103985713D01*
X101885714Y-103957142D01*
X101971429Y-103957142D01*
X102028571Y-103985713D01*
X102057143Y-104014285D01*
X102085714Y-104071427D01*
X102085714Y-104299999D01*
X69714286Y-102400000D02*
X69742857Y-102428571D01*
X69771429Y-102514285D01*
X69771429Y-102571428D01*
X69742857Y-102657143D01*
X69685714Y-102714285D01*
X69628571Y-102742857D01*
X69514286Y-102771428D01*
X69428571Y-102771428D01*
X69314286Y-102742857D01*
X69257143Y-102714285D01*
X69200000Y-102657143D01*
X69171429Y-102571428D01*
X69171429Y-102514285D01*
X69200000Y-102428571D01*
X69228571Y-102400000D01*
X69171429Y-101857143D02*
X69171429Y-102142857D01*
X69457143Y-102171428D01*
X69428571Y-102142857D01*
X69400000Y-102085714D01*
X69400000Y-101942857D01*
X69428571Y-101885714D01*
X69457143Y-101857143D01*
X69514286Y-101828571D01*
X69657143Y-101828571D01*
X69714286Y-101857143D01*
X69742857Y-101885714D01*
X69771429Y-101942857D01*
X69771429Y-102085714D01*
X69742857Y-102142857D01*
X69714286Y-102171428D01*
X72871429Y-102628571D02*
X72871429Y-102971428D01*
X72871429Y-102800000D02*
X72271429Y-102800000D01*
X72357143Y-102857143D01*
X72414286Y-102914285D01*
X72442857Y-102971428D01*
X72271429Y-102257142D02*
X72271429Y-102199999D01*
X72300000Y-102142856D01*
X72328571Y-102114285D01*
X72385714Y-102085714D01*
X72500000Y-102057142D01*
X72642857Y-102057142D01*
X72757143Y-102085714D01*
X72814286Y-102114285D01*
X72842857Y-102142856D01*
X72871429Y-102199999D01*
X72871429Y-102257142D01*
X72842857Y-102314285D01*
X72814286Y-102342856D01*
X72757143Y-102371428D01*
X72642857Y-102399999D01*
X72500000Y-102399999D01*
X72385714Y-102371428D01*
X72328571Y-102342856D01*
X72300000Y-102314285D01*
X72271429Y-102257142D01*
X72871429Y-101799999D02*
X72271429Y-101799999D01*
X72871429Y-101457142D01*
X72271429Y-101457142D01*
X81800000Y-97714286D02*
X81771429Y-97742857D01*
X81685715Y-97771429D01*
X81628572Y-97771429D01*
X81542857Y-97742857D01*
X81485715Y-97685714D01*
X81457143Y-97628571D01*
X81428572Y-97514286D01*
X81428572Y-97428571D01*
X81457143Y-97314286D01*
X81485715Y-97257143D01*
X81542857Y-97200000D01*
X81628572Y-97171429D01*
X81685715Y-97171429D01*
X81771429Y-97200000D01*
X81800000Y-97228571D01*
X82314286Y-97171429D02*
X82200000Y-97171429D01*
X82142857Y-97200000D01*
X82114286Y-97228571D01*
X82057143Y-97314286D01*
X82028572Y-97428571D01*
X82028572Y-97657143D01*
X82057143Y-97714286D01*
X82085715Y-97742857D01*
X82142857Y-97771429D01*
X82257143Y-97771429D01*
X82314286Y-97742857D01*
X82342857Y-97714286D01*
X82371429Y-97657143D01*
X82371429Y-97514286D01*
X82342857Y-97457143D01*
X82314286Y-97428571D01*
X82257143Y-97400000D01*
X82142857Y-97400000D01*
X82085715Y-97428571D01*
X82057143Y-97457143D01*
X82028572Y-97514286D01*
X85914286Y-98300000D02*
X85942857Y-98328571D01*
X85971429Y-98414285D01*
X85971429Y-98471428D01*
X85942857Y-98557143D01*
X85885714Y-98614285D01*
X85828571Y-98642857D01*
X85714286Y-98671428D01*
X85628571Y-98671428D01*
X85514286Y-98642857D01*
X85457143Y-98614285D01*
X85400000Y-98557143D01*
X85371429Y-98471428D01*
X85371429Y-98414285D01*
X85400000Y-98328571D01*
X85428571Y-98300000D01*
X85371429Y-98100000D02*
X85371429Y-97700000D01*
X85971429Y-97957143D01*
X85914286Y-101200000D02*
X85942857Y-101228571D01*
X85971429Y-101314285D01*
X85971429Y-101371428D01*
X85942857Y-101457143D01*
X85885714Y-101514285D01*
X85828571Y-101542857D01*
X85714286Y-101571428D01*
X85628571Y-101571428D01*
X85514286Y-101542857D01*
X85457143Y-101514285D01*
X85400000Y-101457143D01*
X85371429Y-101371428D01*
X85371429Y-101314285D01*
X85400000Y-101228571D01*
X85428571Y-101200000D01*
X85628571Y-100857143D02*
X85600000Y-100914285D01*
X85571429Y-100942857D01*
X85514286Y-100971428D01*
X85485714Y-100971428D01*
X85428571Y-100942857D01*
X85400000Y-100914285D01*
X85371429Y-100857143D01*
X85371429Y-100742857D01*
X85400000Y-100685714D01*
X85428571Y-100657143D01*
X85485714Y-100628571D01*
X85514286Y-100628571D01*
X85571429Y-100657143D01*
X85600000Y-100685714D01*
X85628571Y-100742857D01*
X85628571Y-100857143D01*
X85657143Y-100914285D01*
X85685714Y-100942857D01*
X85742857Y-100971428D01*
X85857143Y-100971428D01*
X85914286Y-100942857D01*
X85942857Y-100914285D01*
X85971429Y-100857143D01*
X85971429Y-100742857D01*
X85942857Y-100685714D01*
X85914286Y-100657143D01*
X85857143Y-100628571D01*
X85742857Y-100628571D01*
X85685714Y-100657143D01*
X85657143Y-100685714D01*
X85628571Y-100742857D01*
X92600000Y-108014286D02*
X92571429Y-108042857D01*
X92485715Y-108071429D01*
X92428572Y-108071429D01*
X92342857Y-108042857D01*
X92285715Y-107985714D01*
X92257143Y-107928571D01*
X92228572Y-107814286D01*
X92228572Y-107728571D01*
X92257143Y-107614286D01*
X92285715Y-107557143D01*
X92342857Y-107500000D01*
X92428572Y-107471429D01*
X92485715Y-107471429D01*
X92571429Y-107500000D01*
X92600000Y-107528571D01*
X92885715Y-108071429D02*
X93000000Y-108071429D01*
X93057143Y-108042857D01*
X93085715Y-108014286D01*
X93142857Y-107928571D01*
X93171429Y-107814286D01*
X93171429Y-107585714D01*
X93142857Y-107528571D01*
X93114286Y-107500000D01*
X93057143Y-107471429D01*
X92942857Y-107471429D01*
X92885715Y-107500000D01*
X92857143Y-107528571D01*
X92828572Y-107585714D01*
X92828572Y-107728571D01*
X92857143Y-107785714D01*
X92885715Y-107814286D01*
X92942857Y-107842857D01*
X93057143Y-107842857D01*
X93114286Y-107814286D01*
X93142857Y-107785714D01*
X93171429Y-107728571D01*
X83214286Y-104785715D02*
X83242857Y-104814286D01*
X83271429Y-104900000D01*
X83271429Y-104957143D01*
X83242857Y-105042858D01*
X83185714Y-105100000D01*
X83128571Y-105128572D01*
X83014286Y-105157143D01*
X82928571Y-105157143D01*
X82814286Y-105128572D01*
X82757143Y-105100000D01*
X82700000Y-105042858D01*
X82671429Y-104957143D01*
X82671429Y-104900000D01*
X82700000Y-104814286D01*
X82728571Y-104785715D01*
X83271429Y-104214286D02*
X83271429Y-104557143D01*
X83271429Y-104385715D02*
X82671429Y-104385715D01*
X82757143Y-104442858D01*
X82814286Y-104500000D01*
X82842857Y-104557143D01*
X82671429Y-103842857D02*
X82671429Y-103785714D01*
X82700000Y-103728571D01*
X82728571Y-103700000D01*
X82785714Y-103671429D01*
X82900000Y-103642857D01*
X83042857Y-103642857D01*
X83157143Y-103671429D01*
X83214286Y-103700000D01*
X83242857Y-103728571D01*
X83271429Y-103785714D01*
X83271429Y-103842857D01*
X83242857Y-103900000D01*
X83214286Y-103928571D01*
X83157143Y-103957143D01*
X83042857Y-103985714D01*
X82900000Y-103985714D01*
X82785714Y-103957143D01*
X82728571Y-103928571D01*
X82700000Y-103900000D01*
X82671429Y-103842857D01*
X92814285Y-105614286D02*
X92785714Y-105642857D01*
X92700000Y-105671429D01*
X92642857Y-105671429D01*
X92557142Y-105642857D01*
X92500000Y-105585714D01*
X92471428Y-105528571D01*
X92442857Y-105414286D01*
X92442857Y-105328571D01*
X92471428Y-105214286D01*
X92500000Y-105157143D01*
X92557142Y-105100000D01*
X92642857Y-105071429D01*
X92700000Y-105071429D01*
X92785714Y-105100000D01*
X92814285Y-105128571D01*
X93385714Y-105671429D02*
X93042857Y-105671429D01*
X93214285Y-105671429D02*
X93214285Y-105071429D01*
X93157142Y-105157143D01*
X93100000Y-105214286D01*
X93042857Y-105242857D01*
X93957143Y-105671429D02*
X93614286Y-105671429D01*
X93785714Y-105671429D02*
X93785714Y-105071429D01*
X93728571Y-105157143D01*
X93671429Y-105214286D01*
X93614286Y-105242857D01*
X81414285Y-111114286D02*
X81385714Y-111142857D01*
X81300000Y-111171429D01*
X81242857Y-111171429D01*
X81157142Y-111142857D01*
X81100000Y-111085714D01*
X81071428Y-111028571D01*
X81042857Y-110914286D01*
X81042857Y-110828571D01*
X81071428Y-110714286D01*
X81100000Y-110657143D01*
X81157142Y-110600000D01*
X81242857Y-110571429D01*
X81300000Y-110571429D01*
X81385714Y-110600000D01*
X81414285Y-110628571D01*
X81985714Y-111171429D02*
X81642857Y-111171429D01*
X81814285Y-111171429D02*
X81814285Y-110571429D01*
X81757142Y-110657143D01*
X81700000Y-110714286D01*
X81642857Y-110742857D01*
X82214286Y-110628571D02*
X82242857Y-110600000D01*
X82300000Y-110571429D01*
X82442857Y-110571429D01*
X82500000Y-110600000D01*
X82528571Y-110628571D01*
X82557143Y-110685714D01*
X82557143Y-110742857D01*
X82528571Y-110828571D01*
X82185714Y-111171429D01*
X82557143Y-111171429D01*
X76357143Y-97771429D02*
X76357143Y-97171429D01*
X76500000Y-97171429D01*
X76585715Y-97200000D01*
X76642857Y-97257143D01*
X76671429Y-97314286D01*
X76700000Y-97428571D01*
X76700000Y-97514286D01*
X76671429Y-97628571D01*
X76642857Y-97685714D01*
X76585715Y-97742857D01*
X76500000Y-97771429D01*
X76357143Y-97771429D01*
X77271429Y-97771429D02*
X76928572Y-97771429D01*
X77100000Y-97771429D02*
X77100000Y-97171429D01*
X77042857Y-97257143D01*
X76985715Y-97314286D01*
X76928572Y-97342857D01*
X74600000Y-103017143D02*
X74400000Y-103017143D01*
X74400000Y-103331429D02*
X74400000Y-102731429D01*
X74685714Y-102731429D01*
X75228572Y-103331429D02*
X74885715Y-103331429D01*
X75057143Y-103331429D02*
X75057143Y-102731429D01*
X75000000Y-102817143D01*
X74942858Y-102874286D01*
X74885715Y-102902857D01*
X83614286Y-114371429D02*
X83614286Y-113771429D01*
X84242857Y-114314286D02*
X84214286Y-114342857D01*
X84128572Y-114371429D01*
X84071429Y-114371429D01*
X83985714Y-114342857D01*
X83928572Y-114285714D01*
X83900000Y-114228571D01*
X83871429Y-114114286D01*
X83871429Y-114028571D01*
X83900000Y-113914286D01*
X83928572Y-113857143D01*
X83985714Y-113800000D01*
X84071429Y-113771429D01*
X84128572Y-113771429D01*
X84214286Y-113800000D01*
X84242857Y-113828571D01*
X84814286Y-114371429D02*
X84471429Y-114371429D01*
X84642857Y-114371429D02*
X84642857Y-113771429D01*
X84585714Y-113857143D01*
X84528572Y-113914286D01*
X84471429Y-113942857D01*
X81700000Y-103671429D02*
X81500000Y-103385714D01*
X81357143Y-103671429D02*
X81357143Y-103071429D01*
X81585715Y-103071429D01*
X81642857Y-103100000D01*
X81671429Y-103128571D01*
X81700000Y-103185714D01*
X81700000Y-103271429D01*
X81671429Y-103328571D01*
X81642857Y-103357143D01*
X81585715Y-103385714D01*
X81357143Y-103385714D01*
X82271429Y-103671429D02*
X81928572Y-103671429D01*
X82100000Y-103671429D02*
X82100000Y-103071429D01*
X82042857Y-103157143D01*
X81985715Y-103214286D01*
X81928572Y-103242857D01*
X81057143Y-104028571D02*
X81085714Y-104000000D01*
X81142857Y-103971429D01*
X81285714Y-103971429D01*
X81342857Y-104000000D01*
X81371428Y-104028571D01*
X81400000Y-104085714D01*
X81400000Y-104142857D01*
X81371428Y-104228571D01*
X81028571Y-104571429D01*
X81400000Y-104571429D01*
X81628572Y-104028571D02*
X81657143Y-104000000D01*
X81714286Y-103971429D01*
X81857143Y-103971429D01*
X81914286Y-104000000D01*
X81942857Y-104028571D01*
X81971429Y-104085714D01*
X81971429Y-104142857D01*
X81942857Y-104228571D01*
X81600000Y-104571429D01*
X81971429Y-104571429D01*
X82342858Y-103971429D02*
X82400001Y-103971429D01*
X82457144Y-104000000D01*
X82485715Y-104028571D01*
X82514286Y-104085714D01*
X82542858Y-104200000D01*
X82542858Y-104342857D01*
X82514286Y-104457143D01*
X82485715Y-104514286D01*
X82457144Y-104542857D01*
X82400001Y-104571429D01*
X82342858Y-104571429D01*
X82285715Y-104542857D01*
X82257144Y-104514286D01*
X82228572Y-104457143D01*
X82200001Y-104342857D01*
X82200001Y-104200000D01*
X82228572Y-104085714D01*
X82257144Y-104028571D01*
X82285715Y-104000000D01*
X82342858Y-103971429D01*
X69771429Y-106700000D02*
X69485714Y-106900000D01*
X69771429Y-107042857D02*
X69171429Y-107042857D01*
X69171429Y-106814285D01*
X69200000Y-106757143D01*
X69228571Y-106728571D01*
X69285714Y-106700000D01*
X69371429Y-106700000D01*
X69428571Y-106728571D01*
X69457143Y-106757143D01*
X69485714Y-106814285D01*
X69485714Y-107042857D01*
X69228571Y-106471428D02*
X69200000Y-106442857D01*
X69171429Y-106385714D01*
X69171429Y-106242857D01*
X69200000Y-106185714D01*
X69228571Y-106157143D01*
X69285714Y-106128571D01*
X69342857Y-106128571D01*
X69428571Y-106157143D01*
X69771429Y-106500000D01*
X69771429Y-106128571D01*
X72971429Y-107000000D02*
X72971429Y-107342857D01*
X72971429Y-107171429D02*
X72371429Y-107171429D01*
X72457143Y-107228572D01*
X72514286Y-107285714D01*
X72542857Y-107342857D01*
X72371429Y-106628571D02*
X72371429Y-106571428D01*
X72400000Y-106514285D01*
X72428571Y-106485714D01*
X72485714Y-106457143D01*
X72600000Y-106428571D01*
X72742857Y-106428571D01*
X72857143Y-106457143D01*
X72914286Y-106485714D01*
X72942857Y-106514285D01*
X72971429Y-106571428D01*
X72971429Y-106628571D01*
X72942857Y-106685714D01*
X72914286Y-106714285D01*
X72857143Y-106742857D01*
X72742857Y-106771428D01*
X72600000Y-106771428D01*
X72485714Y-106742857D01*
X72428571Y-106714285D01*
X72400000Y-106685714D01*
X72371429Y-106628571D01*
X72371429Y-106057142D02*
X72371429Y-105999999D01*
X72400000Y-105942856D01*
X72428571Y-105914285D01*
X72485714Y-105885714D01*
X72600000Y-105857142D01*
X72742857Y-105857142D01*
X72857143Y-105885714D01*
X72914286Y-105914285D01*
X72942857Y-105942856D01*
X72971429Y-105999999D01*
X72971429Y-106057142D01*
X72942857Y-106114285D01*
X72914286Y-106142856D01*
X72857143Y-106171428D01*
X72742857Y-106199999D01*
X72600000Y-106199999D01*
X72485714Y-106171428D01*
X72428571Y-106142856D01*
X72400000Y-106114285D01*
X72371429Y-106057142D01*
X69771429Y-111100000D02*
X69485714Y-111300000D01*
X69771429Y-111442857D02*
X69171429Y-111442857D01*
X69171429Y-111214285D01*
X69200000Y-111157143D01*
X69228571Y-111128571D01*
X69285714Y-111100000D01*
X69371429Y-111100000D01*
X69428571Y-111128571D01*
X69457143Y-111157143D01*
X69485714Y-111214285D01*
X69485714Y-111442857D01*
X69171429Y-110900000D02*
X69171429Y-110528571D01*
X69400000Y-110728571D01*
X69400000Y-110642857D01*
X69428571Y-110585714D01*
X69457143Y-110557143D01*
X69514286Y-110528571D01*
X69657143Y-110528571D01*
X69714286Y-110557143D01*
X69742857Y-110585714D01*
X69771429Y-110642857D01*
X69771429Y-110814285D01*
X69742857Y-110871428D01*
X69714286Y-110900000D01*
X72971429Y-111300000D02*
X72971429Y-111642857D01*
X72971429Y-111471429D02*
X72371429Y-111471429D01*
X72457143Y-111528572D01*
X72514286Y-111585714D01*
X72542857Y-111642857D01*
X72371429Y-110928571D02*
X72371429Y-110871428D01*
X72400000Y-110814285D01*
X72428571Y-110785714D01*
X72485714Y-110757143D01*
X72600000Y-110728571D01*
X72742857Y-110728571D01*
X72857143Y-110757143D01*
X72914286Y-110785714D01*
X72942857Y-110814285D01*
X72971429Y-110871428D01*
X72971429Y-110928571D01*
X72942857Y-110985714D01*
X72914286Y-111014285D01*
X72857143Y-111042857D01*
X72742857Y-111071428D01*
X72600000Y-111071428D01*
X72485714Y-111042857D01*
X72428571Y-111014285D01*
X72400000Y-110985714D01*
X72371429Y-110928571D01*
X72371429Y-110357142D02*
X72371429Y-110299999D01*
X72400000Y-110242856D01*
X72428571Y-110214285D01*
X72485714Y-110185714D01*
X72600000Y-110157142D01*
X72742857Y-110157142D01*
X72857143Y-110185714D01*
X72914286Y-110214285D01*
X72942857Y-110242856D01*
X72971429Y-110299999D01*
X72971429Y-110357142D01*
X72942857Y-110414285D01*
X72914286Y-110442856D01*
X72857143Y-110471428D01*
X72742857Y-110499999D01*
X72600000Y-110499999D01*
X72485714Y-110471428D01*
X72428571Y-110442856D01*
X72400000Y-110414285D01*
X72371429Y-110357142D01*
X99171429Y-103000000D02*
X98885714Y-103200000D01*
X99171429Y-103342857D02*
X98571429Y-103342857D01*
X98571429Y-103114285D01*
X98600000Y-103057143D01*
X98628571Y-103028571D01*
X98685714Y-103000000D01*
X98771429Y-103000000D01*
X98828571Y-103028571D01*
X98857143Y-103057143D01*
X98885714Y-103114285D01*
X98885714Y-103342857D01*
X98771429Y-102485714D02*
X99171429Y-102485714D01*
X98542857Y-102628571D02*
X98971429Y-102771428D01*
X98971429Y-102400000D01*
X102371429Y-103300000D02*
X102371429Y-103642857D01*
X102371429Y-103471429D02*
X101771429Y-103471429D01*
X101857143Y-103528572D01*
X101914286Y-103585714D01*
X101942857Y-103642857D01*
X101771429Y-102928571D02*
X101771429Y-102871428D01*
X101800000Y-102814285D01*
X101828571Y-102785714D01*
X101885714Y-102757143D01*
X102000000Y-102728571D01*
X102142857Y-102728571D01*
X102257143Y-102757143D01*
X102314286Y-102785714D01*
X102342857Y-102814285D01*
X102371429Y-102871428D01*
X102371429Y-102928571D01*
X102342857Y-102985714D01*
X102314286Y-103014285D01*
X102257143Y-103042857D01*
X102142857Y-103071428D01*
X102000000Y-103071428D01*
X101885714Y-103042857D01*
X101828571Y-103014285D01*
X101800000Y-102985714D01*
X101771429Y-102928571D01*
X101771429Y-102357142D02*
X101771429Y-102299999D01*
X101800000Y-102242856D01*
X101828571Y-102214285D01*
X101885714Y-102185714D01*
X102000000Y-102157142D01*
X102142857Y-102157142D01*
X102257143Y-102185714D01*
X102314286Y-102214285D01*
X102342857Y-102242856D01*
X102371429Y-102299999D01*
X102371429Y-102357142D01*
X102342857Y-102414285D01*
X102314286Y-102442856D01*
X102257143Y-102471428D01*
X102142857Y-102499999D01*
X102000000Y-102499999D01*
X101885714Y-102471428D01*
X101828571Y-102442856D01*
X101800000Y-102414285D01*
X101771429Y-102357142D01*
X98671429Y-107400000D02*
X98385714Y-107600000D01*
X98671429Y-107742857D02*
X98071429Y-107742857D01*
X98071429Y-107514285D01*
X98100000Y-107457143D01*
X98128571Y-107428571D01*
X98185714Y-107400000D01*
X98271429Y-107400000D01*
X98328571Y-107428571D01*
X98357143Y-107457143D01*
X98385714Y-107514285D01*
X98385714Y-107742857D01*
X98071429Y-106857143D02*
X98071429Y-107142857D01*
X98357143Y-107171428D01*
X98328571Y-107142857D01*
X98300000Y-107085714D01*
X98300000Y-106942857D01*
X98328571Y-106885714D01*
X98357143Y-106857143D01*
X98414286Y-106828571D01*
X98557143Y-106828571D01*
X98614286Y-106857143D01*
X98642857Y-106885714D01*
X98671429Y-106942857D01*
X98671429Y-107085714D01*
X98642857Y-107142857D01*
X98614286Y-107171428D01*
X101871429Y-107700000D02*
X101871429Y-108042857D01*
X101871429Y-107871429D02*
X101271429Y-107871429D01*
X101357143Y-107928572D01*
X101414286Y-107985714D01*
X101442857Y-108042857D01*
X101271429Y-107328571D02*
X101271429Y-107271428D01*
X101300000Y-107214285D01*
X101328571Y-107185714D01*
X101385714Y-107157143D01*
X101500000Y-107128571D01*
X101642857Y-107128571D01*
X101757143Y-107157143D01*
X101814286Y-107185714D01*
X101842857Y-107214285D01*
X101871429Y-107271428D01*
X101871429Y-107328571D01*
X101842857Y-107385714D01*
X101814286Y-107414285D01*
X101757143Y-107442857D01*
X101642857Y-107471428D01*
X101500000Y-107471428D01*
X101385714Y-107442857D01*
X101328571Y-107414285D01*
X101300000Y-107385714D01*
X101271429Y-107328571D01*
X101271429Y-106757142D02*
X101271429Y-106699999D01*
X101300000Y-106642856D01*
X101328571Y-106614285D01*
X101385714Y-106585714D01*
X101500000Y-106557142D01*
X101642857Y-106557142D01*
X101757143Y-106585714D01*
X101814286Y-106614285D01*
X101842857Y-106642856D01*
X101871429Y-106699999D01*
X101871429Y-106757142D01*
X101842857Y-106814285D01*
X101814286Y-106842856D01*
X101757143Y-106871428D01*
X101642857Y-106899999D01*
X101500000Y-106899999D01*
X101385714Y-106871428D01*
X101328571Y-106842856D01*
X101300000Y-106814285D01*
X101271429Y-106757142D01*
X69771429Y-113300000D02*
X69485714Y-113500000D01*
X69771429Y-113642857D02*
X69171429Y-113642857D01*
X69171429Y-113414285D01*
X69200000Y-113357143D01*
X69228571Y-113328571D01*
X69285714Y-113300000D01*
X69371429Y-113300000D01*
X69428571Y-113328571D01*
X69457143Y-113357143D01*
X69485714Y-113414285D01*
X69485714Y-113642857D01*
X69171429Y-112785714D02*
X69171429Y-112900000D01*
X69200000Y-112957143D01*
X69228571Y-112985714D01*
X69314286Y-113042857D01*
X69428571Y-113071428D01*
X69657143Y-113071428D01*
X69714286Y-113042857D01*
X69742857Y-113014285D01*
X69771429Y-112957143D01*
X69771429Y-112842857D01*
X69742857Y-112785714D01*
X69714286Y-112757143D01*
X69657143Y-112728571D01*
X69514286Y-112728571D01*
X69457143Y-112757143D01*
X69428571Y-112785714D01*
X69400000Y-112842857D01*
X69400000Y-112957143D01*
X69428571Y-113014285D01*
X69457143Y-113042857D01*
X69514286Y-113071428D01*
X72571429Y-113671429D02*
X72971429Y-113671429D01*
X72342857Y-113814286D02*
X72771429Y-113957143D01*
X72771429Y-113585715D01*
X72971429Y-113357143D02*
X72371429Y-113357143D01*
X72971429Y-113014286D02*
X72628571Y-113271429D01*
X72371429Y-113014286D02*
X72714286Y-113357143D01*
X72371429Y-112814286D02*
X72371429Y-112414286D01*
X72971429Y-112671429D01*
X96400000Y-105671429D02*
X96200000Y-105385714D01*
X96057143Y-105671429D02*
X96057143Y-105071429D01*
X96285715Y-105071429D01*
X96342857Y-105100000D01*
X96371429Y-105128571D01*
X96400000Y-105185714D01*
X96400000Y-105271429D01*
X96371429Y-105328571D01*
X96342857Y-105357143D01*
X96285715Y-105385714D01*
X96057143Y-105385714D01*
X96600000Y-105071429D02*
X97000000Y-105071429D01*
X96742857Y-105671429D01*
X95928571Y-107671429D02*
X95928571Y-108071429D01*
X95785714Y-107442857D02*
X95642857Y-107871429D01*
X96014285Y-107871429D01*
X96242857Y-108071429D02*
X96242857Y-107471429D01*
X96585714Y-108071429D02*
X96328571Y-107728571D01*
X96585714Y-107471429D02*
X96242857Y-107814286D01*
X96785714Y-107471429D02*
X97185714Y-107471429D01*
X96928571Y-108071429D01*
X92500000Y-111271429D02*
X92300000Y-110985714D01*
X92157143Y-111271429D02*
X92157143Y-110671429D01*
X92385715Y-110671429D01*
X92442857Y-110700000D01*
X92471429Y-110728571D01*
X92500000Y-110785714D01*
X92500000Y-110871429D01*
X92471429Y-110928571D01*
X92442857Y-110957143D01*
X92385715Y-110985714D01*
X92157143Y-110985714D01*
X92842857Y-110928571D02*
X92785715Y-110900000D01*
X92757143Y-110871429D01*
X92728572Y-110814286D01*
X92728572Y-110785714D01*
X92757143Y-110728571D01*
X92785715Y-110700000D01*
X92842857Y-110671429D01*
X92957143Y-110671429D01*
X93014286Y-110700000D01*
X93042857Y-110728571D01*
X93071429Y-110785714D01*
X93071429Y-110814286D01*
X93042857Y-110871429D01*
X93014286Y-110900000D01*
X92957143Y-110928571D01*
X92842857Y-110928571D01*
X92785715Y-110957143D01*
X92757143Y-110985714D01*
X92728572Y-111042857D01*
X92728572Y-111157143D01*
X92757143Y-111214286D01*
X92785715Y-111242857D01*
X92842857Y-111271429D01*
X92957143Y-111271429D01*
X93014286Y-111242857D01*
X93042857Y-111214286D01*
X93071429Y-111157143D01*
X93071429Y-111042857D01*
X93042857Y-110985714D01*
X93014286Y-110957143D01*
X92957143Y-110928571D01*
X91857143Y-113928571D02*
X91885714Y-113900000D01*
X91942857Y-113871429D01*
X92085714Y-113871429D01*
X92142857Y-113900000D01*
X92171428Y-113928571D01*
X92200000Y-113985714D01*
X92200000Y-114042857D01*
X92171428Y-114128571D01*
X91828571Y-114471429D01*
X92200000Y-114471429D01*
X92428572Y-113928571D02*
X92457143Y-113900000D01*
X92514286Y-113871429D01*
X92657143Y-113871429D01*
X92714286Y-113900000D01*
X92742857Y-113928571D01*
X92771429Y-113985714D01*
X92771429Y-114042857D01*
X92742857Y-114128571D01*
X92400000Y-114471429D01*
X92771429Y-114471429D01*
X93142858Y-113871429D02*
X93200001Y-113871429D01*
X93257144Y-113900000D01*
X93285715Y-113928571D01*
X93314286Y-113985714D01*
X93342858Y-114100000D01*
X93342858Y-114242857D01*
X93314286Y-114357143D01*
X93285715Y-114414286D01*
X93257144Y-114442857D01*
X93200001Y-114471429D01*
X93142858Y-114471429D01*
X93085715Y-114442857D01*
X93057144Y-114414286D01*
X93028572Y-114357143D01*
X93000001Y-114242857D01*
X93000001Y-114100000D01*
X93028572Y-113985714D01*
X93057144Y-113928571D01*
X93085715Y-113900000D01*
X93142858Y-113871429D01*
X78942857Y-113871429D02*
X78942857Y-114357143D01*
X78971429Y-114414286D01*
X79000000Y-114442857D01*
X79057143Y-114471429D01*
X79171429Y-114471429D01*
X79228571Y-114442857D01*
X79257143Y-114414286D01*
X79285714Y-114357143D01*
X79285714Y-113871429D01*
X79885714Y-114471429D02*
X79542857Y-114471429D01*
X79714285Y-114471429D02*
X79714285Y-113871429D01*
X79657142Y-113957143D01*
X79600000Y-114014286D01*
X79542857Y-114042857D01*
X94542857Y-108171429D02*
X94542857Y-108657143D01*
X94571429Y-108714286D01*
X94600000Y-108742857D01*
X94657143Y-108771429D01*
X94771429Y-108771429D01*
X94828571Y-108742857D01*
X94857143Y-108714286D01*
X94885714Y-108657143D01*
X94885714Y-108171429D01*
X95142857Y-108228571D02*
X95171428Y-108200000D01*
X95228571Y-108171429D01*
X95371428Y-108171429D01*
X95428571Y-108200000D01*
X95457142Y-108228571D01*
X95485714Y-108285714D01*
X95485714Y-108342857D01*
X95457142Y-108428571D01*
X95114285Y-108771429D01*
X95485714Y-108771429D01*
X86942857Y-100371429D02*
X86942857Y-100857143D01*
X86971429Y-100914286D01*
X87000000Y-100942857D01*
X87057143Y-100971429D01*
X87171429Y-100971429D01*
X87228571Y-100942857D01*
X87257143Y-100914286D01*
X87285714Y-100857143D01*
X87285714Y-100371429D01*
X87514285Y-100371429D02*
X87885714Y-100371429D01*
X87685714Y-100600000D01*
X87771428Y-100600000D01*
X87828571Y-100628571D01*
X87857142Y-100657143D01*
X87885714Y-100714286D01*
X87885714Y-100857143D01*
X87857142Y-100914286D01*
X87828571Y-100942857D01*
X87771428Y-100971429D01*
X87600000Y-100971429D01*
X87542857Y-100942857D01*
X87514285Y-100914286D01*
X79342857Y-102971429D02*
X79342857Y-103457143D01*
X79371429Y-103514286D01*
X79400000Y-103542857D01*
X79457143Y-103571429D01*
X79571429Y-103571429D01*
X79628571Y-103542857D01*
X79657143Y-103514286D01*
X79685714Y-103457143D01*
X79685714Y-102971429D01*
X80228571Y-103171429D02*
X80228571Y-103571429D01*
X80085714Y-102942857D02*
X79942857Y-103371429D01*
X80314285Y-103371429D01*
X69242857Y-97071429D02*
X69242857Y-97557143D01*
X69271429Y-97614286D01*
X69300000Y-97642857D01*
X69357143Y-97671429D01*
X69471429Y-97671429D01*
X69528571Y-97642857D01*
X69557143Y-97614286D01*
X69585714Y-97557143D01*
X69585714Y-97071429D01*
X70157142Y-97071429D02*
X69871428Y-97071429D01*
X69842857Y-97357143D01*
X69871428Y-97328571D01*
X69928571Y-97300000D01*
X70071428Y-97300000D01*
X70128571Y-97328571D01*
X70157142Y-97357143D01*
X70185714Y-97414286D01*
X70185714Y-97557143D01*
X70157142Y-97614286D01*
X70128571Y-97642857D01*
X70071428Y-97671429D01*
X69928571Y-97671429D01*
X69871428Y-97642857D01*
X69842857Y-97614286D01*
X81414285Y-107814286D02*
X81385714Y-107842857D01*
X81300000Y-107871429D01*
X81242857Y-107871429D01*
X81157142Y-107842857D01*
X81100000Y-107785714D01*
X81071428Y-107728571D01*
X81042857Y-107614286D01*
X81042857Y-107528571D01*
X81071428Y-107414286D01*
X81100000Y-107357143D01*
X81157142Y-107300000D01*
X81242857Y-107271429D01*
X81300000Y-107271429D01*
X81385714Y-107300000D01*
X81414285Y-107328571D01*
X81985714Y-107871429D02*
X81642857Y-107871429D01*
X81814285Y-107871429D02*
X81814285Y-107271429D01*
X81757142Y-107357143D01*
X81700000Y-107414286D01*
X81642857Y-107442857D01*
X82185714Y-107271429D02*
X82557143Y-107271429D01*
X82357143Y-107500000D01*
X82442857Y-107500000D01*
X82500000Y-107528571D01*
X82528571Y-107557143D01*
X82557143Y-107614286D01*
X82557143Y-107757143D01*
X82528571Y-107814286D01*
X82500000Y-107842857D01*
X82442857Y-107871429D01*
X82271429Y-107871429D01*
X82214286Y-107842857D01*
X82185714Y-107814286D01*
X52408381Y-106233333D02*
X53122667Y-106233333D01*
X53265524Y-106280953D01*
X53360762Y-106376191D01*
X53408381Y-106519048D01*
X53408381Y-106614286D01*
X53408381Y-105233333D02*
X53408381Y-105804762D01*
X53408381Y-105519048D02*
X52408381Y-105519048D01*
X52551238Y-105614286D01*
X52646476Y-105709524D01*
X52694095Y-105804762D01*
X116596381Y-106133333D02*
X117310667Y-106133333D01*
X117453524Y-106180953D01*
X117548762Y-106276191D01*
X117596381Y-106419048D01*
X117596381Y-106514286D01*
X116691619Y-105704762D02*
X116644000Y-105657143D01*
X116596381Y-105561905D01*
X116596381Y-105323809D01*
X116644000Y-105228571D01*
X116691619Y-105180952D01*
X116786857Y-105133333D01*
X116882095Y-105133333D01*
X117024952Y-105180952D01*
X117596381Y-105752381D01*
X117596381Y-105133333D01*
M02*
