G04 #@! TF.FileFunction,Copper,L1,Top,Signal*
%FSLAX46Y46*%
G04 Gerber Fmt 4.6, Leading zero omitted, Abs format (unit mm)*
G04 Created by KiCad (PCBNEW (2015-07-11 BZR 5925, Git c291b88)-product) date 8/6/2015 4:30:13 PM*
%MOMM*%
G01*
G04 APERTURE LIST*
%ADD10C,0.100000*%
%ADD11R,0.500000X0.900000*%
%ADD12R,1.230000X1.800000*%
%ADD13R,0.900000X0.500000*%
%ADD14R,2.499360X2.301240*%
%ADD15R,2.500000X0.900000*%
%ADD16R,0.250000X0.700000*%
%ADD17R,0.700000X0.250000*%
%ADD18R,1.287500X1.287500*%
%ADD19O,1.473200X0.609600*%
%ADD20R,2.780000X1.550000*%
%ADD21R,6.730000X6.740000*%
%ADD22R,0.650000X1.060000*%
%ADD23R,0.749300X0.398780*%
%ADD24R,5.080000X1.778000*%
%ADD25C,0.600000*%
%ADD26C,0.750000*%
%ADD27C,0.250000*%
%ADD28C,0.500000*%
%ADD29C,0.254000*%
G04 APERTURE END LIST*
D10*
D11*
X70350000Y-104400000D03*
X71850000Y-104400000D03*
X71850000Y-108800000D03*
X70350000Y-108800000D03*
X101250000Y-100700000D03*
X99750000Y-100700000D03*
X101250000Y-105000000D03*
X99750000Y-105000000D03*
X70250000Y-102200000D03*
X71750000Y-102200000D03*
D12*
X82010000Y-101480000D03*
X82010000Y-98860000D03*
D13*
X84390000Y-98210000D03*
X84390000Y-99710000D03*
X84390000Y-102610000D03*
X84390000Y-101110000D03*
X92700000Y-109950000D03*
X92700000Y-108450000D03*
D11*
X83750000Y-104400000D03*
X85250000Y-104400000D03*
X92450000Y-106600000D03*
X93950000Y-106600000D03*
D13*
X81800000Y-113250000D03*
X81800000Y-111750000D03*
D14*
X78848840Y-100400000D03*
X74551160Y-100400000D03*
D15*
X74800000Y-104150000D03*
X74800000Y-107050000D03*
D16*
X84700000Y-113200000D03*
X85200000Y-113200000D03*
X85700000Y-113200000D03*
X86200000Y-113200000D03*
X86700000Y-113200000D03*
X87200000Y-113200000D03*
X87700000Y-113200000D03*
X88200000Y-113200000D03*
X88700000Y-113200000D03*
X89200000Y-113200000D03*
X89700000Y-113200000D03*
D17*
X90600000Y-112300000D03*
X90600000Y-111800000D03*
X90600000Y-111300000D03*
X90600000Y-110800000D03*
X90600000Y-110300000D03*
X90600000Y-109800000D03*
X90600000Y-109300000D03*
X90600000Y-108800000D03*
X90600000Y-108300000D03*
X90600000Y-107800000D03*
X90600000Y-107300000D03*
D16*
X89700000Y-106400000D03*
X89200000Y-106400000D03*
X88700000Y-106400000D03*
X88200000Y-106400000D03*
X87700000Y-106400000D03*
X87200000Y-106400000D03*
X86700000Y-106400000D03*
X86200000Y-106400000D03*
X85700000Y-106400000D03*
X85200000Y-106400000D03*
X84700000Y-106400000D03*
D17*
X83800000Y-107300000D03*
X83800000Y-107800000D03*
X83800000Y-108300000D03*
X83800000Y-108800000D03*
X83800000Y-109300000D03*
X83800000Y-109800000D03*
X83800000Y-110300000D03*
X83800000Y-110800000D03*
X83800000Y-111300000D03*
X83800000Y-111800000D03*
X83800000Y-112300000D03*
D18*
X89131250Y-107868750D03*
X87843750Y-107868750D03*
X86556250Y-107868750D03*
X85268750Y-107868750D03*
X89131250Y-109156250D03*
X87843750Y-109156250D03*
X86556250Y-109156250D03*
X85268750Y-109156250D03*
X89131250Y-110443750D03*
X87843750Y-110443750D03*
X86556250Y-110443750D03*
X85268750Y-110443750D03*
X89131250Y-111731250D03*
X87843750Y-111731250D03*
X86556250Y-111731250D03*
X85268750Y-111731250D03*
D13*
X81800000Y-106650000D03*
X81800000Y-105150000D03*
D11*
X70350000Y-106600000D03*
X71850000Y-106600000D03*
X70350000Y-111000000D03*
X71850000Y-111000000D03*
X101250000Y-102900000D03*
X99750000Y-102900000D03*
X100750000Y-107300000D03*
X99250000Y-107300000D03*
X71850000Y-113200000D03*
X70350000Y-113200000D03*
X97150000Y-106600000D03*
X95650000Y-106600000D03*
D13*
X92600000Y-111750000D03*
X92600000Y-113250000D03*
D19*
X79494000Y-113205000D03*
X79494000Y-111935000D03*
X79494000Y-110665000D03*
X79494000Y-109395000D03*
X73906000Y-109395000D03*
X73906000Y-110665000D03*
X73906000Y-111935000D03*
X73906000Y-113205000D03*
X95006000Y-109395000D03*
X95006000Y-110665000D03*
X95006000Y-111935000D03*
X95006000Y-113205000D03*
X100594000Y-113205000D03*
X100594000Y-111935000D03*
X100594000Y-110665000D03*
X100594000Y-109395000D03*
D20*
X87990000Y-103490000D03*
D21*
X94625000Y-101310000D03*
D20*
X87990000Y-99130000D03*
D22*
X79750000Y-104500000D03*
X78800000Y-104500000D03*
X77850000Y-104500000D03*
X77850000Y-106700000D03*
X79750000Y-106700000D03*
D23*
X70050040Y-98549760D03*
X70050040Y-99200000D03*
X70050040Y-99850240D03*
X71949960Y-99850240D03*
X71949960Y-99200000D03*
X71949960Y-98549760D03*
D13*
X81800000Y-108450000D03*
X81800000Y-109950000D03*
D24*
X64640000Y-103106000D03*
X64640000Y-105900000D03*
X64640000Y-108694000D03*
X64640000Y-111488000D03*
X64640000Y-100312000D03*
X105460000Y-108594000D03*
X105460000Y-105800000D03*
X105460000Y-103006000D03*
X105460000Y-100212000D03*
X105460000Y-111388000D03*
D25*
X106100000Y-98400000D03*
X103100000Y-97800000D03*
X99800000Y-103900000D03*
X69000000Y-108000000D03*
X68200000Y-104600000D03*
X68200000Y-105600000D03*
X68500000Y-112300000D03*
X68500000Y-114000000D03*
X66600000Y-114000000D03*
X64800000Y-113900000D03*
X102200000Y-102600000D03*
X102200000Y-103500000D03*
X102200000Y-104400000D03*
X73800000Y-105500000D03*
X77800000Y-112900000D03*
X75600000Y-109400000D03*
X81800000Y-110800000D03*
X86300000Y-105500000D03*
X64700000Y-98000000D03*
X66700000Y-97900000D03*
X68600000Y-98900000D03*
X73300000Y-98500000D03*
X74500000Y-98500000D03*
X87200000Y-101400000D03*
X88700000Y-101400000D03*
X90100000Y-101400000D03*
X83300000Y-101700000D03*
X83300000Y-100500000D03*
X75400000Y-102400000D03*
X73500000Y-102400000D03*
X74400000Y-102400000D03*
X87843750Y-110443750D03*
X86556250Y-110443750D03*
X87843750Y-109156250D03*
X86556250Y-109156250D03*
X80500000Y-105600000D03*
X95200000Y-108200000D03*
X99700000Y-99400000D03*
X96600000Y-110900000D03*
D26*
X69900000Y-103300000D03*
X98000000Y-105400000D03*
X99200000Y-98200000D03*
X80200000Y-98200000D03*
D25*
X92800000Y-114100000D03*
X90600000Y-113200000D03*
X78100000Y-111300000D03*
X91600000Y-112500000D03*
X80700000Y-111300000D03*
X91500000Y-111600000D03*
X71800000Y-100900000D03*
X72000000Y-107700000D03*
X78400000Y-108200000D03*
X83800000Y-106500000D03*
X68100000Y-103000000D03*
X82800000Y-107300000D03*
X77400000Y-107900000D03*
X72800000Y-106000000D03*
X72700000Y-100700000D03*
X67900000Y-107300000D03*
X71000000Y-110500000D03*
X68700000Y-109400000D03*
X69200000Y-99900000D03*
X71500000Y-97700000D03*
X76600000Y-101300000D03*
X81100000Y-104100000D03*
X102300000Y-105900000D03*
X99200000Y-110100000D03*
X99100000Y-108600000D03*
X102300000Y-107200000D03*
D27*
X105360000Y-106747000D02*
X105313000Y-106700000D01*
X70350000Y-104400000D02*
X71850000Y-105900000D01*
X71850000Y-105900000D02*
X71850000Y-106600000D01*
X99700000Y-99400000D02*
X101500000Y-99400000D01*
X105700000Y-98000000D02*
X105300000Y-98000000D01*
X106100000Y-98400000D02*
X105700000Y-98000000D01*
X101500000Y-99400000D02*
X103100000Y-97800000D01*
X99750000Y-105000000D02*
X99750000Y-103950000D01*
X99750000Y-103950000D02*
X99800000Y-103900000D01*
X70350000Y-108800000D02*
X69800000Y-108800000D01*
X69800000Y-108800000D02*
X69000000Y-108000000D01*
X64640000Y-105900000D02*
X67900000Y-105900000D01*
X68200000Y-104600000D02*
X68200000Y-104400000D01*
X67900000Y-105900000D02*
X68200000Y-105600000D01*
X64640000Y-111488000D02*
X64640000Y-113740000D01*
X68300000Y-112100000D02*
X68200000Y-112100000D01*
X68500000Y-112300000D02*
X68300000Y-112100000D01*
X66600000Y-114000000D02*
X68500000Y-114000000D01*
X64640000Y-113740000D02*
X64800000Y-113900000D01*
X102200000Y-104400000D02*
X102200000Y-103500000D01*
X102200000Y-102600000D02*
X102200000Y-102500000D01*
X105460000Y-105800000D02*
X103600000Y-105800000D01*
X103600000Y-105800000D02*
X102200000Y-104400000D01*
X71850000Y-104400000D02*
X72400000Y-104400000D01*
X73500000Y-105500000D02*
X73800000Y-105500000D01*
X72400000Y-104400000D02*
X73500000Y-105500000D01*
X79494000Y-111935000D02*
X78765000Y-111935000D01*
X78765000Y-111935000D02*
X77800000Y-112900000D01*
X75600000Y-109400000D02*
X75700000Y-109500000D01*
X75700000Y-109500000D02*
X76600000Y-109500000D01*
X81800000Y-110800000D02*
X81800000Y-111750000D01*
X81800000Y-109950000D02*
X81800000Y-110800000D01*
X86200000Y-106400000D02*
X86200000Y-105600000D01*
X86200000Y-105600000D02*
X86300000Y-105500000D01*
X85250000Y-104400000D02*
X86300000Y-105450000D01*
X86300000Y-105450000D02*
X86300000Y-105500000D01*
X70050040Y-99200000D02*
X68900000Y-99200000D01*
X66600000Y-98000000D02*
X64700000Y-98000000D01*
X66700000Y-97900000D02*
X66600000Y-98000000D01*
X68900000Y-99200000D02*
X68600000Y-98900000D01*
X74551160Y-100400000D02*
X74551160Y-98551160D01*
X74551160Y-98551160D02*
X74500000Y-98500000D01*
X94625000Y-101310000D02*
X93535000Y-102400000D01*
X93535000Y-102400000D02*
X90400000Y-102400000D01*
X94625000Y-101310000D02*
X93715000Y-100300000D01*
X93715000Y-100300000D02*
X90400000Y-100300000D01*
X94625000Y-101310000D02*
X90190000Y-101310000D01*
X88700000Y-101400000D02*
X87200000Y-101400000D01*
X90190000Y-101310000D02*
X90100000Y-101400000D01*
X82010000Y-101480000D02*
X83280000Y-101480000D01*
X83300000Y-101700000D02*
X83300000Y-101900000D01*
X83300000Y-101460000D02*
X83300000Y-100500000D01*
X83280000Y-101480000D02*
X83300000Y-101460000D01*
X74400000Y-102400000D02*
X75400000Y-102400000D01*
X74551160Y-100400000D02*
X74551160Y-102248840D01*
X73500000Y-102400000D02*
X73500000Y-102200000D01*
X74551160Y-102248840D02*
X74400000Y-102400000D01*
X78800000Y-104500000D02*
X78800000Y-105100000D01*
X79300000Y-105600000D02*
X80500000Y-105600000D01*
X78800000Y-105100000D02*
X79300000Y-105600000D01*
X88200000Y-113200000D02*
X88200000Y-112087500D01*
X88200000Y-112087500D02*
X87843750Y-111731250D01*
X90600000Y-109300000D02*
X89275000Y-109300000D01*
X89275000Y-109300000D02*
X89131250Y-109156250D01*
X86200000Y-106400000D02*
X86200000Y-107512500D01*
X86200000Y-107512500D02*
X86556250Y-107868750D01*
X83800000Y-109300000D02*
X85125000Y-109300000D01*
X85125000Y-109300000D02*
X85268750Y-109156250D01*
X93950000Y-106600000D02*
X93950000Y-107850000D01*
X94300000Y-108200000D02*
X95200000Y-108200000D01*
X93950000Y-107850000D02*
X94300000Y-108200000D01*
X99750000Y-100700000D02*
X99700000Y-100650000D01*
X99700000Y-100650000D02*
X99700000Y-99400000D01*
X90600000Y-109300000D02*
X91236398Y-109300000D01*
X92086398Y-107600000D02*
X93900000Y-107600000D01*
X91800000Y-107886398D02*
X92086398Y-107600000D01*
X91800000Y-108400000D02*
X91800000Y-107886398D01*
X91800000Y-108736398D02*
X91800000Y-108400000D01*
X91236398Y-109300000D02*
X91800000Y-108736398D01*
X95006000Y-110665000D02*
X96365000Y-110665000D01*
X96365000Y-110665000D02*
X96600000Y-110900000D01*
X71850000Y-108800000D02*
X71850000Y-111000000D01*
X99750000Y-102900000D02*
X99800000Y-102900000D01*
X99800000Y-102900000D02*
X101250000Y-100700000D01*
X101250000Y-105000000D02*
X101250000Y-105550000D01*
X101250000Y-105550000D02*
X99500000Y-107300000D01*
X99500000Y-107300000D02*
X99250000Y-107300000D01*
D28*
X70250000Y-102950000D02*
X70250000Y-102200000D01*
X69900000Y-103300000D02*
X70250000Y-102950000D01*
X98000000Y-105400000D02*
X98500000Y-105400000D01*
X98800000Y-98600000D02*
X99200000Y-98200000D01*
X98800000Y-105100000D02*
X98800000Y-98600000D01*
X98500000Y-105400000D02*
X98800000Y-105100000D01*
X98000000Y-105400000D02*
X98100000Y-105400000D01*
X80200000Y-98200000D02*
X78848840Y-99551160D01*
X78848840Y-99551160D02*
X78848840Y-100400000D01*
X74800000Y-104150000D02*
X75098840Y-104150000D01*
X75098840Y-104150000D02*
X78848840Y-100400000D01*
X70250000Y-102200000D02*
X70250000Y-102250000D01*
X70250000Y-102250000D02*
X71300000Y-103300000D01*
X73950000Y-103300000D02*
X74800000Y-104150000D01*
X71300000Y-103300000D02*
X73950000Y-103300000D01*
X84390000Y-98210000D02*
X87070000Y-98210000D01*
X87070000Y-98210000D02*
X87990000Y-99130000D01*
X82010000Y-98860000D02*
X82660000Y-98210000D01*
X82660000Y-98210000D02*
X84390000Y-98210000D01*
X74800000Y-107050000D02*
X74800000Y-106700000D01*
X74800000Y-106700000D02*
X76700000Y-104800000D01*
X76700000Y-104800000D02*
X76700000Y-103800000D01*
X76700000Y-103800000D02*
X78300000Y-102200000D01*
X78300000Y-102200000D02*
X80400000Y-102200000D01*
X80400000Y-102200000D02*
X80800000Y-101800000D01*
X80800000Y-101800000D02*
X80800000Y-100070000D01*
X80800000Y-100070000D02*
X82010000Y-98860000D01*
D27*
X96400000Y-107200000D02*
X96400000Y-108900000D01*
X96400000Y-108900000D02*
X98000000Y-110500000D01*
X92800000Y-105200000D02*
X90600000Y-105200000D01*
X97665000Y-111935000D02*
X98000000Y-111600000D01*
X95006000Y-111935000D02*
X97665000Y-111935000D01*
X98000000Y-111600000D02*
X98000000Y-110500000D01*
X96400000Y-107200000D02*
X96400000Y-105800000D01*
X96400000Y-105800000D02*
X95800000Y-105200000D01*
X95800000Y-105200000D02*
X92800000Y-105200000D01*
X90600000Y-105200000D02*
X88890000Y-103490000D01*
X88890000Y-103490000D02*
X87990000Y-103490000D01*
X81800000Y-108450000D02*
X81800000Y-108500000D01*
X81800000Y-108500000D02*
X79635000Y-110665000D01*
X79635000Y-110665000D02*
X79494000Y-110665000D01*
X77850000Y-104500000D02*
X77850000Y-105050000D01*
X79750000Y-108450000D02*
X81800000Y-108450000D01*
X78800000Y-107500000D02*
X79750000Y-108450000D01*
X78800000Y-106000000D02*
X78800000Y-107500000D01*
X77850000Y-105050000D02*
X78800000Y-106000000D01*
D28*
X79750000Y-104500000D02*
X79750000Y-103650000D01*
X79750000Y-103650000D02*
X80200000Y-103200000D01*
X87990000Y-103490000D02*
X87110000Y-102610000D01*
X87110000Y-102610000D02*
X84390000Y-102610000D01*
X84390000Y-102610000D02*
X83390000Y-102610000D01*
X83390000Y-102610000D02*
X83290000Y-102610000D01*
X83290000Y-102610000D02*
X82700000Y-103200000D01*
X82700000Y-103200000D02*
X80200000Y-103200000D01*
X80200000Y-103200000D02*
X78431374Y-103200000D01*
X78431374Y-103200000D02*
X77850000Y-103781374D01*
X77850000Y-103781374D02*
X77850000Y-104500000D01*
D27*
X92700000Y-109950000D02*
X92950000Y-109950000D01*
X92950000Y-109950000D02*
X94935000Y-111935000D01*
X94935000Y-111935000D02*
X95006000Y-111935000D01*
X90450000Y-105750000D02*
X92150000Y-105750000D01*
X92450000Y-106050000D02*
X92450000Y-106600000D01*
X92150000Y-105750000D02*
X92450000Y-106050000D01*
X86550000Y-104850000D02*
X89550000Y-104850000D01*
X89550000Y-104850000D02*
X90450000Y-105750000D01*
X86550000Y-104850000D02*
X86400000Y-104700000D01*
X82900000Y-108400000D02*
X82900000Y-108300000D01*
X81800000Y-107200000D02*
X81800000Y-106650000D01*
X82900000Y-108300000D02*
X81800000Y-107200000D01*
X82900000Y-110100000D02*
X82900000Y-108400000D01*
X81800000Y-113250000D02*
X83350000Y-113250000D01*
X88700000Y-113700000D02*
X88700000Y-113200000D01*
X88400000Y-114000000D02*
X88700000Y-113700000D01*
X84100000Y-114000000D02*
X88400000Y-114000000D01*
X83350000Y-113250000D02*
X84100000Y-114000000D01*
X83800000Y-109800000D02*
X83200000Y-109800000D01*
X82900000Y-112150000D02*
X81800000Y-113250000D01*
X82900000Y-110100000D02*
X82900000Y-112150000D01*
X83200000Y-109800000D02*
X82900000Y-110100000D01*
X83750000Y-104400000D02*
X84650000Y-103500000D01*
X86100000Y-104400000D02*
X86400000Y-104700000D01*
X86100000Y-103800000D02*
X86100000Y-104400000D01*
X85800000Y-103500000D02*
X86100000Y-103800000D01*
X84650000Y-103500000D02*
X85800000Y-103500000D01*
X83750000Y-104400000D02*
X83900000Y-104400000D01*
X83900000Y-104400000D02*
X85000000Y-105500000D01*
X85700000Y-105800000D02*
X85700000Y-106400000D01*
X85400000Y-105500000D02*
X85700000Y-105800000D01*
X85000000Y-105500000D02*
X85400000Y-105500000D01*
D28*
X81700000Y-106650000D02*
X82250000Y-106650000D01*
X83750000Y-105150000D02*
X83750000Y-104400000D01*
X82250000Y-106650000D02*
X83750000Y-105150000D01*
X79750000Y-106700000D02*
X81650000Y-106700000D01*
X81650000Y-106700000D02*
X81700000Y-106650000D01*
D27*
X90600000Y-108800000D02*
X91100000Y-108800000D01*
X91100000Y-108800000D02*
X91300000Y-108600000D01*
X91300000Y-108600000D02*
X91300000Y-107750000D01*
X91300000Y-107750000D02*
X92450000Y-106600000D01*
X92600000Y-113250000D02*
X92600000Y-113300000D01*
X89200000Y-113200000D02*
X89200000Y-113900000D01*
X91850000Y-114000000D02*
X92600000Y-113250000D01*
X89300000Y-114000000D02*
X91850000Y-114000000D01*
X89200000Y-113900000D02*
X89300000Y-114000000D01*
X105460000Y-111388000D02*
X104812000Y-111388000D01*
X104812000Y-111388000D02*
X101600000Y-114600000D01*
X101600000Y-114600000D02*
X93300000Y-114600000D01*
X93300000Y-114600000D02*
X92800000Y-114100000D01*
X90600000Y-113200000D02*
X89700000Y-113200000D01*
X78100000Y-110200000D02*
X78905000Y-109395000D01*
X78100000Y-111300000D02*
X78100000Y-110200000D01*
X78905000Y-109395000D02*
X79494000Y-109395000D01*
X90600000Y-112300000D02*
X91400000Y-112300000D01*
X91400000Y-112300000D02*
X91600000Y-112500000D01*
X80700000Y-112700000D02*
X80195000Y-113205000D01*
X80700000Y-111300000D02*
X80700000Y-112700000D01*
X80195000Y-113205000D02*
X79494000Y-113205000D01*
X90600000Y-111800000D02*
X91300000Y-111800000D01*
X91300000Y-111800000D02*
X91500000Y-111600000D01*
X95006000Y-113205000D02*
X94805000Y-113205000D01*
X94805000Y-113205000D02*
X93600000Y-112000000D01*
X93600000Y-112000000D02*
X93600000Y-111400000D01*
X93600000Y-111400000D02*
X93100000Y-110900000D01*
X93100000Y-110900000D02*
X91700000Y-110900000D01*
X91700000Y-110900000D02*
X91100000Y-110300000D01*
X91100000Y-110300000D02*
X90600000Y-110300000D01*
X90600000Y-109800000D02*
X91400000Y-109800000D01*
X92000000Y-109200000D02*
X94811000Y-109200000D01*
X91400000Y-109800000D02*
X92000000Y-109200000D01*
X94811000Y-109200000D02*
X95006000Y-109395000D01*
X83800000Y-107300000D02*
X83800000Y-106500000D01*
X71949960Y-100750040D02*
X71800000Y-100900000D01*
X72000000Y-107700000D02*
X72900000Y-108600000D01*
X72900000Y-108600000D02*
X77800000Y-108600000D01*
X71949960Y-100750040D02*
X71949960Y-99850240D01*
X78000000Y-108600000D02*
X77800000Y-108600000D01*
X78400000Y-108200000D02*
X78000000Y-108600000D01*
X68100000Y-103000000D02*
X69900000Y-101200000D01*
X69900000Y-101200000D02*
X70600200Y-101200000D01*
X70600200Y-101200000D02*
X71949960Y-99850240D01*
X83800000Y-107800000D02*
X83300000Y-107800000D01*
X83300000Y-107800000D02*
X82800000Y-107300000D01*
X77400000Y-107900000D02*
X77200000Y-108100000D01*
X77200000Y-108100000D02*
X73400000Y-108100000D01*
X73400000Y-108100000D02*
X72800000Y-107500000D01*
X72800000Y-107500000D02*
X72800000Y-106000000D01*
X72700000Y-100700000D02*
X72700000Y-99300000D01*
X72700000Y-99300000D02*
X72600000Y-99200000D01*
X72600000Y-99200000D02*
X71949960Y-99200000D01*
X64640000Y-103106000D02*
X66694000Y-103106000D01*
X66694000Y-103106000D02*
X69200000Y-100600000D01*
X69200000Y-100600000D02*
X70400000Y-100600000D01*
X70400000Y-100600000D02*
X71100000Y-99900000D01*
X71100000Y-99900000D02*
X71100000Y-99300000D01*
X71100000Y-99300000D02*
X71200000Y-99200000D01*
X71200000Y-99200000D02*
X71949960Y-99200000D01*
X68600000Y-106600000D02*
X70350000Y-106600000D01*
X67900000Y-107300000D02*
X68600000Y-106600000D01*
X69500000Y-112100000D02*
X69700000Y-112300000D01*
X71100000Y-107350000D02*
X71100000Y-109500000D01*
X71100000Y-109500000D02*
X70700000Y-109900000D01*
X70700000Y-109900000D02*
X69400000Y-109900000D01*
X69400000Y-109900000D02*
X68600000Y-110700000D01*
X68600000Y-110700000D02*
X68600000Y-111200000D01*
X68600000Y-111200000D02*
X69500000Y-112100000D01*
X70350000Y-106600000D02*
X71100000Y-107350000D01*
X73541000Y-112300000D02*
X73906000Y-111935000D01*
X69700000Y-112300000D02*
X73541000Y-112300000D01*
X64640000Y-108694000D02*
X67994000Y-108694000D01*
X71000000Y-110500000D02*
X70500000Y-111000000D01*
X67994000Y-108694000D02*
X68700000Y-109400000D01*
X70500000Y-111000000D02*
X70350000Y-111000000D01*
X70350000Y-111000000D02*
X70400000Y-111000000D01*
X70400000Y-111000000D02*
X71200000Y-111800000D01*
X72300000Y-111800000D02*
X73435000Y-110665000D01*
X71200000Y-111800000D02*
X72300000Y-111800000D01*
X73435000Y-110665000D02*
X73906000Y-110665000D01*
X73906000Y-110665000D02*
X73635000Y-110665000D01*
X64640000Y-100312000D02*
X68788000Y-100312000D01*
X68788000Y-100312000D02*
X69200000Y-99900000D01*
X70050040Y-99850240D02*
X69249760Y-99850240D01*
X69249760Y-99850240D02*
X69200000Y-99900000D01*
X71500000Y-97700000D02*
X75400000Y-97700000D01*
X75400000Y-97700000D02*
X76249760Y-98549760D01*
X81800000Y-104800000D02*
X81800000Y-105150000D01*
X81800000Y-104800000D02*
X81100000Y-104100000D01*
X76600000Y-98900000D02*
X76249760Y-98549760D01*
X76600000Y-101300000D02*
X76600000Y-98900000D01*
X102300000Y-105900000D02*
X100900000Y-107300000D01*
X100900000Y-107300000D02*
X100750000Y-107300000D01*
X100750000Y-107300000D02*
X101900000Y-108450000D01*
X101435000Y-110665000D02*
X100594000Y-110665000D01*
X101900000Y-110200000D02*
X101435000Y-110665000D01*
X101900000Y-108450000D02*
X101900000Y-110200000D01*
X105460000Y-103006000D02*
X104206000Y-103006000D01*
X104206000Y-103006000D02*
X102800000Y-101600000D01*
X101250000Y-102150000D02*
X101250000Y-102900000D01*
X101800000Y-101600000D02*
X101250000Y-102150000D01*
X102800000Y-101600000D02*
X101800000Y-101600000D01*
X98500000Y-107100000D02*
X98500000Y-108000000D01*
X101250000Y-103450000D02*
X100500000Y-104200000D01*
X100500000Y-104200000D02*
X100500000Y-105500000D01*
X100500000Y-105500000D02*
X99800000Y-106200000D01*
X99800000Y-106200000D02*
X99000000Y-106200000D01*
X99000000Y-106200000D02*
X98500000Y-106700000D01*
X98500000Y-106700000D02*
X98500000Y-107100000D01*
X101250000Y-102900000D02*
X101250000Y-103450000D01*
X99835000Y-111935000D02*
X100594000Y-111935000D01*
X99200000Y-111300000D02*
X99835000Y-111935000D01*
X99200000Y-110100000D02*
X99200000Y-111300000D01*
X98500000Y-108000000D02*
X99100000Y-108600000D01*
X101356000Y-103006000D02*
X101250000Y-102900000D01*
X101250000Y-102900000D02*
X101250000Y-103150000D01*
X101165000Y-111935000D02*
X100594000Y-111935000D01*
X101250000Y-102850000D02*
X101250000Y-102900000D01*
X93500000Y-112650000D02*
X92600000Y-111750000D01*
X93500000Y-113300000D02*
X93500000Y-112650000D01*
X94300000Y-114100000D02*
X93500000Y-113300000D01*
X101400000Y-114100000D02*
X94300000Y-114100000D01*
X102400000Y-113100000D02*
X101400000Y-114100000D01*
X102400000Y-111900000D02*
X102400000Y-113100000D01*
X102400000Y-107300000D02*
X102400000Y-111900000D01*
X102300000Y-107200000D02*
X102400000Y-107300000D01*
X71750000Y-113200000D02*
X73901000Y-113200000D01*
X73901000Y-113200000D02*
X73906000Y-113205000D01*
X97150000Y-106600000D02*
X97150000Y-108050000D01*
X98495000Y-109395000D02*
X100594000Y-109395000D01*
X97150000Y-108050000D02*
X98495000Y-109395000D01*
X100594000Y-109395000D02*
X99995000Y-109395000D01*
D29*
G36*
X78558278Y-108912895D02*
X78410482Y-109134086D01*
X78399185Y-109190879D01*
X77745032Y-109845032D01*
X77636212Y-110007893D01*
X77597999Y-110200000D01*
X77598000Y-110200005D01*
X77598000Y-110844537D01*
X77526402Y-110916010D01*
X77423118Y-111164746D01*
X77422883Y-111434073D01*
X77525733Y-111682989D01*
X77716010Y-111873598D01*
X77964746Y-111976882D01*
X78234073Y-111977117D01*
X78322400Y-111940621D01*
X78322400Y-111962002D01*
X78431726Y-111962002D01*
X78336219Y-112077321D01*
X78368381Y-112193165D01*
X78519990Y-112439026D01*
X78742542Y-112599773D01*
X78558278Y-112722895D01*
X78410482Y-112944086D01*
X78358583Y-113205000D01*
X78410482Y-113465914D01*
X78558278Y-113687105D01*
X78779469Y-113834901D01*
X79040383Y-113886800D01*
X79947617Y-113886800D01*
X80208531Y-113834901D01*
X80429722Y-113687105D01*
X80486205Y-113602573D01*
X80549968Y-113559968D01*
X80965614Y-113144321D01*
X80965614Y-113500000D01*
X80993505Y-113643749D01*
X81076498Y-113770091D01*
X81201788Y-113854663D01*
X81350000Y-113884386D01*
X82250000Y-113884386D01*
X82393749Y-113856495D01*
X82520091Y-113773502D01*
X82534605Y-113752000D01*
X83142064Y-113752000D01*
X83745030Y-114354965D01*
X83745032Y-114354968D01*
X83815421Y-114402000D01*
X83907892Y-114463788D01*
X84100000Y-114502000D01*
X88399995Y-114502000D01*
X88400000Y-114502001D01*
X88592107Y-114463788D01*
X88754968Y-114354968D01*
X88850000Y-114259936D01*
X88945030Y-114354965D01*
X88945032Y-114354968D01*
X89015421Y-114402000D01*
X89107892Y-114463788D01*
X89300000Y-114502000D01*
X91849995Y-114502000D01*
X91850000Y-114502001D01*
X92042107Y-114463788D01*
X92179788Y-114371793D01*
X92225733Y-114482989D01*
X92416010Y-114673598D01*
X92664746Y-114776882D01*
X92767036Y-114776971D01*
X92863065Y-114873000D01*
X64776869Y-114873000D01*
X64401935Y-114498065D01*
X64401932Y-114498063D01*
X63239620Y-113335750D01*
X69665000Y-113335750D01*
X69665000Y-113736527D01*
X69731225Y-113896408D01*
X69853592Y-114018775D01*
X70013473Y-114085000D01*
X70214250Y-114085000D01*
X70323000Y-113976250D01*
X70323000Y-113227000D01*
X70377000Y-113227000D01*
X70377000Y-113976250D01*
X70485750Y-114085000D01*
X70686527Y-114085000D01*
X70846408Y-114018775D01*
X70968775Y-113896408D01*
X71035000Y-113736527D01*
X71035000Y-113335750D01*
X70926250Y-113227000D01*
X70377000Y-113227000D01*
X70323000Y-113227000D01*
X70323000Y-113227000D01*
X69773750Y-113227000D01*
X69665000Y-113335750D01*
X63239620Y-113335750D01*
X62715870Y-112812000D01*
X64504250Y-112812000D01*
X64613000Y-112703250D01*
X64613000Y-111515000D01*
X64667000Y-111515000D01*
X64667000Y-112703250D01*
X64775750Y-112812000D01*
X67266527Y-112812000D01*
X67426408Y-112745775D01*
X67548775Y-112623408D01*
X67615000Y-112463527D01*
X67615000Y-111623750D01*
X67506250Y-111515000D01*
X64667000Y-111515000D01*
X64613000Y-111515000D01*
X64613000Y-111515000D01*
X64593000Y-111515000D01*
X64593000Y-111461000D01*
X64613000Y-111461000D01*
X64613000Y-110272750D01*
X64667000Y-110272750D01*
X64667000Y-111461000D01*
X67506250Y-111461000D01*
X67615000Y-111352250D01*
X67615000Y-110512473D01*
X67548775Y-110352592D01*
X67426408Y-110230225D01*
X67266527Y-110164000D01*
X64775750Y-110164000D01*
X64667000Y-110272750D01*
X64613000Y-110272750D01*
X64613000Y-110272750D01*
X64504250Y-110164000D01*
X62327000Y-110164000D01*
X62327000Y-109967386D01*
X67180000Y-109967386D01*
X67323749Y-109939495D01*
X67450091Y-109856502D01*
X67534663Y-109731212D01*
X67564386Y-109583000D01*
X67564386Y-109196000D01*
X67786064Y-109196000D01*
X68022971Y-109432907D01*
X68022883Y-109534073D01*
X68125733Y-109782989D01*
X68316010Y-109973598D01*
X68528311Y-110061753D01*
X68245032Y-110345032D01*
X68136212Y-110507893D01*
X68097999Y-110700000D01*
X68098000Y-110700005D01*
X68098000Y-111199995D01*
X68097999Y-111200000D01*
X68136212Y-111392107D01*
X68245032Y-111554968D01*
X69145030Y-112454965D01*
X69145032Y-112454968D01*
X69345030Y-112654965D01*
X69345032Y-112654968D01*
X69479823Y-112745032D01*
X69507893Y-112763788D01*
X69665000Y-112795039D01*
X69665000Y-113064250D01*
X69773750Y-113173000D01*
X70323000Y-113173000D01*
X70323000Y-113153000D01*
X70377000Y-113153000D01*
X70377000Y-113173000D01*
X70926250Y-113173000D01*
X71035000Y-113064250D01*
X71035000Y-112802000D01*
X71215614Y-112802000D01*
X71215614Y-113650000D01*
X71243505Y-113793749D01*
X71326498Y-113920091D01*
X71451788Y-114004663D01*
X71600000Y-114034386D01*
X72100000Y-114034386D01*
X72243749Y-114006495D01*
X72370091Y-113923502D01*
X72454663Y-113798212D01*
X72473958Y-113702000D01*
X72992570Y-113702000D01*
X73191469Y-113834901D01*
X73452383Y-113886800D01*
X74359617Y-113886800D01*
X74620531Y-113834901D01*
X74841722Y-113687105D01*
X74989518Y-113465914D01*
X75041417Y-113205000D01*
X74989518Y-112944086D01*
X74841722Y-112722895D01*
X74620531Y-112575099D01*
X74594897Y-112570000D01*
X74620531Y-112564901D01*
X74841722Y-112417105D01*
X74989518Y-112195914D01*
X75041417Y-111935000D01*
X74989518Y-111674086D01*
X74841722Y-111452895D01*
X74620531Y-111305099D01*
X74594897Y-111300000D01*
X74620531Y-111294901D01*
X74841722Y-111147105D01*
X74989518Y-110925914D01*
X75041417Y-110665000D01*
X74989518Y-110404086D01*
X74841722Y-110182895D01*
X74620531Y-110035099D01*
X74594897Y-110030000D01*
X74620531Y-110024901D01*
X74841722Y-109877105D01*
X74989518Y-109655914D01*
X75041417Y-109395000D01*
X74989518Y-109134086D01*
X74968079Y-109102000D01*
X77999995Y-109102000D01*
X78000000Y-109102001D01*
X78192107Y-109063788D01*
X78354968Y-108954968D01*
X78432907Y-108877029D01*
X78534073Y-108877117D01*
X78737811Y-108792934D01*
X78558278Y-108912895D01*
X78558278Y-108912895D01*
G37*
X78558278Y-108912895D02*
X78410482Y-109134086D01*
X78399185Y-109190879D01*
X77745032Y-109845032D01*
X77636212Y-110007893D01*
X77597999Y-110200000D01*
X77598000Y-110200005D01*
X77598000Y-110844537D01*
X77526402Y-110916010D01*
X77423118Y-111164746D01*
X77422883Y-111434073D01*
X77525733Y-111682989D01*
X77716010Y-111873598D01*
X77964746Y-111976882D01*
X78234073Y-111977117D01*
X78322400Y-111940621D01*
X78322400Y-111962002D01*
X78431726Y-111962002D01*
X78336219Y-112077321D01*
X78368381Y-112193165D01*
X78519990Y-112439026D01*
X78742542Y-112599773D01*
X78558278Y-112722895D01*
X78410482Y-112944086D01*
X78358583Y-113205000D01*
X78410482Y-113465914D01*
X78558278Y-113687105D01*
X78779469Y-113834901D01*
X79040383Y-113886800D01*
X79947617Y-113886800D01*
X80208531Y-113834901D01*
X80429722Y-113687105D01*
X80486205Y-113602573D01*
X80549968Y-113559968D01*
X80965614Y-113144321D01*
X80965614Y-113500000D01*
X80993505Y-113643749D01*
X81076498Y-113770091D01*
X81201788Y-113854663D01*
X81350000Y-113884386D01*
X82250000Y-113884386D01*
X82393749Y-113856495D01*
X82520091Y-113773502D01*
X82534605Y-113752000D01*
X83142064Y-113752000D01*
X83745030Y-114354965D01*
X83745032Y-114354968D01*
X83815421Y-114402000D01*
X83907892Y-114463788D01*
X84100000Y-114502000D01*
X88399995Y-114502000D01*
X88400000Y-114502001D01*
X88592107Y-114463788D01*
X88754968Y-114354968D01*
X88850000Y-114259936D01*
X88945030Y-114354965D01*
X88945032Y-114354968D01*
X89015421Y-114402000D01*
X89107892Y-114463788D01*
X89300000Y-114502000D01*
X91849995Y-114502000D01*
X91850000Y-114502001D01*
X92042107Y-114463788D01*
X92179788Y-114371793D01*
X92225733Y-114482989D01*
X92416010Y-114673598D01*
X92664746Y-114776882D01*
X92767036Y-114776971D01*
X92863065Y-114873000D01*
X64776869Y-114873000D01*
X64401935Y-114498065D01*
X64401932Y-114498063D01*
X63239620Y-113335750D01*
X69665000Y-113335750D01*
X69665000Y-113736527D01*
X69731225Y-113896408D01*
X69853592Y-114018775D01*
X70013473Y-114085000D01*
X70214250Y-114085000D01*
X70323000Y-113976250D01*
X70323000Y-113227000D01*
X70377000Y-113227000D01*
X70377000Y-113976250D01*
X70485750Y-114085000D01*
X70686527Y-114085000D01*
X70846408Y-114018775D01*
X70968775Y-113896408D01*
X71035000Y-113736527D01*
X71035000Y-113335750D01*
X70926250Y-113227000D01*
X70377000Y-113227000D01*
X70323000Y-113227000D01*
X70323000Y-113227000D01*
X69773750Y-113227000D01*
X69665000Y-113335750D01*
X63239620Y-113335750D01*
X62715870Y-112812000D01*
X64504250Y-112812000D01*
X64613000Y-112703250D01*
X64613000Y-111515000D01*
X64667000Y-111515000D01*
X64667000Y-112703250D01*
X64775750Y-112812000D01*
X67266527Y-112812000D01*
X67426408Y-112745775D01*
X67548775Y-112623408D01*
X67615000Y-112463527D01*
X67615000Y-111623750D01*
X67506250Y-111515000D01*
X64667000Y-111515000D01*
X64613000Y-111515000D01*
X64613000Y-111515000D01*
X64593000Y-111515000D01*
X64593000Y-111461000D01*
X64613000Y-111461000D01*
X64613000Y-110272750D01*
X64667000Y-110272750D01*
X64667000Y-111461000D01*
X67506250Y-111461000D01*
X67615000Y-111352250D01*
X67615000Y-110512473D01*
X67548775Y-110352592D01*
X67426408Y-110230225D01*
X67266527Y-110164000D01*
X64775750Y-110164000D01*
X64667000Y-110272750D01*
X64613000Y-110272750D01*
X64613000Y-110272750D01*
X64504250Y-110164000D01*
X62327000Y-110164000D01*
X62327000Y-109967386D01*
X67180000Y-109967386D01*
X67323749Y-109939495D01*
X67450091Y-109856502D01*
X67534663Y-109731212D01*
X67564386Y-109583000D01*
X67564386Y-109196000D01*
X67786064Y-109196000D01*
X68022971Y-109432907D01*
X68022883Y-109534073D01*
X68125733Y-109782989D01*
X68316010Y-109973598D01*
X68528311Y-110061753D01*
X68245032Y-110345032D01*
X68136212Y-110507893D01*
X68097999Y-110700000D01*
X68098000Y-110700005D01*
X68098000Y-111199995D01*
X68097999Y-111200000D01*
X68136212Y-111392107D01*
X68245032Y-111554968D01*
X69145030Y-112454965D01*
X69145032Y-112454968D01*
X69345030Y-112654965D01*
X69345032Y-112654968D01*
X69479823Y-112745032D01*
X69507893Y-112763788D01*
X69665000Y-112795039D01*
X69665000Y-113064250D01*
X69773750Y-113173000D01*
X70323000Y-113173000D01*
X70323000Y-113153000D01*
X70377000Y-113153000D01*
X70377000Y-113173000D01*
X70926250Y-113173000D01*
X71035000Y-113064250D01*
X71035000Y-112802000D01*
X71215614Y-112802000D01*
X71215614Y-113650000D01*
X71243505Y-113793749D01*
X71326498Y-113920091D01*
X71451788Y-114004663D01*
X71600000Y-114034386D01*
X72100000Y-114034386D01*
X72243749Y-114006495D01*
X72370091Y-113923502D01*
X72454663Y-113798212D01*
X72473958Y-113702000D01*
X72992570Y-113702000D01*
X73191469Y-113834901D01*
X73452383Y-113886800D01*
X74359617Y-113886800D01*
X74620531Y-113834901D01*
X74841722Y-113687105D01*
X74989518Y-113465914D01*
X75041417Y-113205000D01*
X74989518Y-112944086D01*
X74841722Y-112722895D01*
X74620531Y-112575099D01*
X74594897Y-112570000D01*
X74620531Y-112564901D01*
X74841722Y-112417105D01*
X74989518Y-112195914D01*
X75041417Y-111935000D01*
X74989518Y-111674086D01*
X74841722Y-111452895D01*
X74620531Y-111305099D01*
X74594897Y-111300000D01*
X74620531Y-111294901D01*
X74841722Y-111147105D01*
X74989518Y-110925914D01*
X75041417Y-110665000D01*
X74989518Y-110404086D01*
X74841722Y-110182895D01*
X74620531Y-110035099D01*
X74594897Y-110030000D01*
X74620531Y-110024901D01*
X74841722Y-109877105D01*
X74989518Y-109655914D01*
X75041417Y-109395000D01*
X74989518Y-109134086D01*
X74968079Y-109102000D01*
X77999995Y-109102000D01*
X78000000Y-109102001D01*
X78192107Y-109063788D01*
X78354968Y-108954968D01*
X78432907Y-108877029D01*
X78534073Y-108877117D01*
X78737811Y-108792934D01*
X78558278Y-108912895D01*
G36*
X82398000Y-109290463D02*
X82336527Y-109265000D01*
X81935750Y-109265000D01*
X81827000Y-109373750D01*
X81827000Y-109923000D01*
X81847000Y-109923000D01*
X81847000Y-109977000D01*
X81827000Y-109977000D01*
X81827000Y-110526250D01*
X81935750Y-110635000D01*
X82336527Y-110635000D01*
X82398000Y-110609537D01*
X82398000Y-111090463D01*
X82336527Y-111065000D01*
X81935750Y-111065000D01*
X81827000Y-111173750D01*
X81827000Y-111723000D01*
X81847000Y-111723000D01*
X81847000Y-111777000D01*
X81827000Y-111777000D01*
X81827000Y-112326250D01*
X81920407Y-112419657D01*
X81724450Y-112615614D01*
X81350000Y-112615614D01*
X81206251Y-112643505D01*
X81202000Y-112646297D01*
X81202000Y-112409537D01*
X81263473Y-112435000D01*
X81664250Y-112435000D01*
X81773000Y-112326250D01*
X81773000Y-111777000D01*
X81753000Y-111777000D01*
X81753000Y-111723000D01*
X81773000Y-111723000D01*
X81773000Y-111173750D01*
X81664250Y-111065000D01*
X81335415Y-111065000D01*
X81274267Y-110917011D01*
X81083990Y-110726402D01*
X80835254Y-110623118D01*
X80621049Y-110622931D01*
X80582219Y-110427717D01*
X80915000Y-110094936D01*
X80915000Y-110286527D01*
X80981225Y-110446408D01*
X81103592Y-110568775D01*
X81263473Y-110635000D01*
X81664250Y-110635000D01*
X81773000Y-110526250D01*
X81773000Y-109977000D01*
X81753000Y-109977000D01*
X81753000Y-109923000D01*
X81773000Y-109923000D01*
X81773000Y-109373750D01*
X81704593Y-109305343D01*
X81925549Y-109084386D01*
X82250000Y-109084386D01*
X82393749Y-109056495D01*
X82398000Y-109053703D01*
X82398000Y-109290463D01*
X82398000Y-109290463D01*
G37*
X82398000Y-109290463D02*
X82336527Y-109265000D01*
X81935750Y-109265000D01*
X81827000Y-109373750D01*
X81827000Y-109923000D01*
X81847000Y-109923000D01*
X81847000Y-109977000D01*
X81827000Y-109977000D01*
X81827000Y-110526250D01*
X81935750Y-110635000D01*
X82336527Y-110635000D01*
X82398000Y-110609537D01*
X82398000Y-111090463D01*
X82336527Y-111065000D01*
X81935750Y-111065000D01*
X81827000Y-111173750D01*
X81827000Y-111723000D01*
X81847000Y-111723000D01*
X81847000Y-111777000D01*
X81827000Y-111777000D01*
X81827000Y-112326250D01*
X81920407Y-112419657D01*
X81724450Y-112615614D01*
X81350000Y-112615614D01*
X81206251Y-112643505D01*
X81202000Y-112646297D01*
X81202000Y-112409537D01*
X81263473Y-112435000D01*
X81664250Y-112435000D01*
X81773000Y-112326250D01*
X81773000Y-111777000D01*
X81753000Y-111777000D01*
X81753000Y-111723000D01*
X81773000Y-111723000D01*
X81773000Y-111173750D01*
X81664250Y-111065000D01*
X81335415Y-111065000D01*
X81274267Y-110917011D01*
X81083990Y-110726402D01*
X80835254Y-110623118D01*
X80621049Y-110622931D01*
X80582219Y-110427717D01*
X80915000Y-110094936D01*
X80915000Y-110286527D01*
X80981225Y-110446408D01*
X81103592Y-110568775D01*
X81263473Y-110635000D01*
X81664250Y-110635000D01*
X81773000Y-110526250D01*
X81773000Y-109977000D01*
X81753000Y-109977000D01*
X81753000Y-109923000D01*
X81773000Y-109923000D01*
X81773000Y-109373750D01*
X81704593Y-109305343D01*
X81925549Y-109084386D01*
X82250000Y-109084386D01*
X82393749Y-109056495D01*
X82398000Y-109053703D01*
X82398000Y-109290463D01*
G36*
X79521000Y-111908000D02*
X79541000Y-111908000D01*
X79541000Y-111962000D01*
X79521000Y-111962000D01*
X79521000Y-111982000D01*
X79467000Y-111982000D01*
X79467000Y-111962000D01*
X79447000Y-111962000D01*
X79447000Y-111908000D01*
X79467000Y-111908000D01*
X79467000Y-111888000D01*
X79521000Y-111888000D01*
X79521000Y-111908000D01*
X79521000Y-111908000D01*
G37*
X79521000Y-111908000D02*
X79541000Y-111908000D01*
X79541000Y-111962000D01*
X79521000Y-111962000D01*
X79521000Y-111982000D01*
X79467000Y-111982000D01*
X79467000Y-111962000D01*
X79447000Y-111962000D01*
X79447000Y-111908000D01*
X79467000Y-111908000D01*
X79467000Y-111888000D01*
X79521000Y-111888000D01*
X79521000Y-111908000D01*
G36*
X89158250Y-107841750D02*
X89178250Y-107841750D01*
X89178250Y-107895750D01*
X89158250Y-107895750D01*
X89158250Y-109129250D01*
X89178250Y-109129250D01*
X89178250Y-109183250D01*
X89158250Y-109183250D01*
X89158250Y-110416750D01*
X89178250Y-110416750D01*
X89178250Y-110470750D01*
X89158250Y-110470750D01*
X89158250Y-111704250D01*
X89178250Y-111704250D01*
X89178250Y-111758250D01*
X89158250Y-111758250D01*
X89158250Y-111778250D01*
X89104250Y-111778250D01*
X89104250Y-111758250D01*
X87870750Y-111758250D01*
X87870750Y-111778250D01*
X87816750Y-111778250D01*
X87816750Y-111758250D01*
X86583250Y-111758250D01*
X86583250Y-111778250D01*
X86529250Y-111778250D01*
X86529250Y-111758250D01*
X85295750Y-111758250D01*
X85295750Y-111778250D01*
X85241750Y-111778250D01*
X85241750Y-111758250D01*
X85221750Y-111758250D01*
X85221750Y-111704250D01*
X85241750Y-111704250D01*
X85241750Y-110470750D01*
X85295750Y-110470750D01*
X85295750Y-111704250D01*
X86529250Y-111704250D01*
X86529250Y-110470750D01*
X86583250Y-110470750D01*
X86583250Y-111704250D01*
X87816750Y-111704250D01*
X87816750Y-110470750D01*
X87870750Y-110470750D01*
X87870750Y-111704250D01*
X89104250Y-111704250D01*
X89104250Y-110470750D01*
X87870750Y-110470750D01*
X87816750Y-110470750D01*
X87816750Y-110470750D01*
X86583250Y-110470750D01*
X86529250Y-110470750D01*
X86529250Y-110470750D01*
X85295750Y-110470750D01*
X85241750Y-110470750D01*
X85241750Y-110470750D01*
X85221750Y-110470750D01*
X85221750Y-110416750D01*
X85241750Y-110416750D01*
X85241750Y-109183250D01*
X85295750Y-109183250D01*
X85295750Y-110416750D01*
X86529250Y-110416750D01*
X86529250Y-109183250D01*
X86583250Y-109183250D01*
X86583250Y-110416750D01*
X87816750Y-110416750D01*
X87816750Y-109183250D01*
X87870750Y-109183250D01*
X87870750Y-110416750D01*
X89104250Y-110416750D01*
X89104250Y-109183250D01*
X87870750Y-109183250D01*
X87816750Y-109183250D01*
X87816750Y-109183250D01*
X86583250Y-109183250D01*
X86529250Y-109183250D01*
X86529250Y-109183250D01*
X85295750Y-109183250D01*
X85241750Y-109183250D01*
X85241750Y-109183250D01*
X85221750Y-109183250D01*
X85221750Y-109129250D01*
X85241750Y-109129250D01*
X85241750Y-107895750D01*
X85295750Y-107895750D01*
X85295750Y-109129250D01*
X86529250Y-109129250D01*
X86529250Y-107895750D01*
X86583250Y-107895750D01*
X86583250Y-109129250D01*
X87816750Y-109129250D01*
X87816750Y-107895750D01*
X87870750Y-107895750D01*
X87870750Y-109129250D01*
X89104250Y-109129250D01*
X89104250Y-107895750D01*
X87870750Y-107895750D01*
X87816750Y-107895750D01*
X87816750Y-107895750D01*
X86583250Y-107895750D01*
X86529250Y-107895750D01*
X86529250Y-107895750D01*
X85295750Y-107895750D01*
X85241750Y-107895750D01*
X85241750Y-107895750D01*
X85221750Y-107895750D01*
X85221750Y-107841750D01*
X85241750Y-107841750D01*
X85241750Y-107821750D01*
X85295750Y-107821750D01*
X85295750Y-107841750D01*
X86529250Y-107841750D01*
X86529250Y-107821750D01*
X86583250Y-107821750D01*
X86583250Y-107841750D01*
X87816750Y-107841750D01*
X87816750Y-107821750D01*
X87870750Y-107821750D01*
X87870750Y-107841750D01*
X89104250Y-107841750D01*
X89104250Y-107821750D01*
X89158250Y-107821750D01*
X89158250Y-107841750D01*
X89158250Y-107841750D01*
G37*
X89158250Y-107841750D02*
X89178250Y-107841750D01*
X89178250Y-107895750D01*
X89158250Y-107895750D01*
X89158250Y-109129250D01*
X89178250Y-109129250D01*
X89178250Y-109183250D01*
X89158250Y-109183250D01*
X89158250Y-110416750D01*
X89178250Y-110416750D01*
X89178250Y-110470750D01*
X89158250Y-110470750D01*
X89158250Y-111704250D01*
X89178250Y-111704250D01*
X89178250Y-111758250D01*
X89158250Y-111758250D01*
X89158250Y-111778250D01*
X89104250Y-111778250D01*
X89104250Y-111758250D01*
X87870750Y-111758250D01*
X87870750Y-111778250D01*
X87816750Y-111778250D01*
X87816750Y-111758250D01*
X86583250Y-111758250D01*
X86583250Y-111778250D01*
X86529250Y-111778250D01*
X86529250Y-111758250D01*
X85295750Y-111758250D01*
X85295750Y-111778250D01*
X85241750Y-111778250D01*
X85241750Y-111758250D01*
X85221750Y-111758250D01*
X85221750Y-111704250D01*
X85241750Y-111704250D01*
X85241750Y-110470750D01*
X85295750Y-110470750D01*
X85295750Y-111704250D01*
X86529250Y-111704250D01*
X86529250Y-110470750D01*
X86583250Y-110470750D01*
X86583250Y-111704250D01*
X87816750Y-111704250D01*
X87816750Y-110470750D01*
X87870750Y-110470750D01*
X87870750Y-111704250D01*
X89104250Y-111704250D01*
X89104250Y-110470750D01*
X87870750Y-110470750D01*
X87816750Y-110470750D01*
X87816750Y-110470750D01*
X86583250Y-110470750D01*
X86529250Y-110470750D01*
X86529250Y-110470750D01*
X85295750Y-110470750D01*
X85241750Y-110470750D01*
X85241750Y-110470750D01*
X85221750Y-110470750D01*
X85221750Y-110416750D01*
X85241750Y-110416750D01*
X85241750Y-109183250D01*
X85295750Y-109183250D01*
X85295750Y-110416750D01*
X86529250Y-110416750D01*
X86529250Y-109183250D01*
X86583250Y-109183250D01*
X86583250Y-110416750D01*
X87816750Y-110416750D01*
X87816750Y-109183250D01*
X87870750Y-109183250D01*
X87870750Y-110416750D01*
X89104250Y-110416750D01*
X89104250Y-109183250D01*
X87870750Y-109183250D01*
X87816750Y-109183250D01*
X87816750Y-109183250D01*
X86583250Y-109183250D01*
X86529250Y-109183250D01*
X86529250Y-109183250D01*
X85295750Y-109183250D01*
X85241750Y-109183250D01*
X85241750Y-109183250D01*
X85221750Y-109183250D01*
X85221750Y-109129250D01*
X85241750Y-109129250D01*
X85241750Y-107895750D01*
X85295750Y-107895750D01*
X85295750Y-109129250D01*
X86529250Y-109129250D01*
X86529250Y-107895750D01*
X86583250Y-107895750D01*
X86583250Y-109129250D01*
X87816750Y-109129250D01*
X87816750Y-107895750D01*
X87870750Y-107895750D01*
X87870750Y-109129250D01*
X89104250Y-109129250D01*
X89104250Y-107895750D01*
X87870750Y-107895750D01*
X87816750Y-107895750D01*
X87816750Y-107895750D01*
X86583250Y-107895750D01*
X86529250Y-107895750D01*
X86529250Y-107895750D01*
X85295750Y-107895750D01*
X85241750Y-107895750D01*
X85241750Y-107895750D01*
X85221750Y-107895750D01*
X85221750Y-107841750D01*
X85241750Y-107841750D01*
X85241750Y-107821750D01*
X85295750Y-107821750D01*
X85295750Y-107841750D01*
X86529250Y-107841750D01*
X86529250Y-107821750D01*
X86583250Y-107821750D01*
X86583250Y-107841750D01*
X87816750Y-107841750D01*
X87816750Y-107821750D01*
X87870750Y-107821750D01*
X87870750Y-107841750D01*
X89104250Y-107841750D01*
X89104250Y-107821750D01*
X89158250Y-107821750D01*
X89158250Y-107841750D01*
G36*
X97498000Y-110707935D02*
X97498000Y-111392065D01*
X97457064Y-111433000D01*
X95911947Y-111433000D01*
X95757458Y-111329773D01*
X95980010Y-111169026D01*
X96131619Y-110923165D01*
X96163781Y-110807321D01*
X96068272Y-110692000D01*
X95033000Y-110692000D01*
X95033000Y-110712000D01*
X94979000Y-110712000D01*
X94979000Y-110692000D01*
X94959000Y-110692000D01*
X94959000Y-110638000D01*
X94979000Y-110638000D01*
X94979000Y-110618000D01*
X95033000Y-110618000D01*
X95033000Y-110638000D01*
X96068272Y-110638000D01*
X96163781Y-110522679D01*
X96131619Y-110406835D01*
X95980010Y-110160974D01*
X95757458Y-110000227D01*
X95941722Y-109877105D01*
X96089518Y-109655914D01*
X96141417Y-109395000D01*
X96130579Y-109340515D01*
X97498000Y-110707935D01*
X97498000Y-110707935D01*
G37*
X97498000Y-110707935D02*
X97498000Y-111392065D01*
X97457064Y-111433000D01*
X95911947Y-111433000D01*
X95757458Y-111329773D01*
X95980010Y-111169026D01*
X96131619Y-110923165D01*
X96163781Y-110807321D01*
X96068272Y-110692000D01*
X95033000Y-110692000D01*
X95033000Y-110712000D01*
X94979000Y-110712000D01*
X94979000Y-110692000D01*
X94959000Y-110692000D01*
X94959000Y-110638000D01*
X94979000Y-110638000D01*
X94979000Y-110618000D01*
X95033000Y-110618000D01*
X95033000Y-110638000D01*
X96068272Y-110638000D01*
X96163781Y-110522679D01*
X96131619Y-110406835D01*
X95980010Y-110160974D01*
X95757458Y-110000227D01*
X95941722Y-109877105D01*
X96089518Y-109655914D01*
X96141417Y-109395000D01*
X96130579Y-109340515D01*
X97498000Y-110707935D01*
G36*
X69743505Y-107193749D02*
X69826498Y-107320091D01*
X69951788Y-107404663D01*
X70100000Y-107434386D01*
X70474451Y-107434386D01*
X70598000Y-107557935D01*
X70598000Y-107915000D01*
X70485750Y-107915000D01*
X70377000Y-108023750D01*
X70377000Y-108773000D01*
X70397000Y-108773000D01*
X70397000Y-108827000D01*
X70377000Y-108827000D01*
X70377000Y-108847000D01*
X70323000Y-108847000D01*
X70323000Y-108827000D01*
X69773750Y-108827000D01*
X69665000Y-108935750D01*
X69665000Y-109336527D01*
X69690463Y-109398000D01*
X69400005Y-109398000D01*
X69400000Y-109397999D01*
X69376998Y-109402574D01*
X69377117Y-109265927D01*
X69274267Y-109017011D01*
X69083990Y-108826402D01*
X68835254Y-108723118D01*
X68732964Y-108723029D01*
X68348968Y-108339032D01*
X68235886Y-108263473D01*
X69665000Y-108263473D01*
X69665000Y-108664250D01*
X69773750Y-108773000D01*
X70323000Y-108773000D01*
X70323000Y-108023750D01*
X70214250Y-107915000D01*
X70013473Y-107915000D01*
X69853592Y-107981225D01*
X69731225Y-108103592D01*
X69665000Y-108263473D01*
X68235886Y-108263473D01*
X68186107Y-108230212D01*
X67994000Y-108191999D01*
X67993995Y-108192000D01*
X67564386Y-108192000D01*
X67564386Y-107893685D01*
X67764746Y-107976882D01*
X68034073Y-107977117D01*
X68282989Y-107874267D01*
X68473598Y-107683990D01*
X68576882Y-107435254D01*
X68576971Y-107332964D01*
X68807935Y-107102000D01*
X69725703Y-107102000D01*
X69743505Y-107193749D01*
X69743505Y-107193749D01*
G37*
X69743505Y-107193749D02*
X69826498Y-107320091D01*
X69951788Y-107404663D01*
X70100000Y-107434386D01*
X70474451Y-107434386D01*
X70598000Y-107557935D01*
X70598000Y-107915000D01*
X70485750Y-107915000D01*
X70377000Y-108023750D01*
X70377000Y-108773000D01*
X70397000Y-108773000D01*
X70397000Y-108827000D01*
X70377000Y-108827000D01*
X70377000Y-108847000D01*
X70323000Y-108847000D01*
X70323000Y-108827000D01*
X69773750Y-108827000D01*
X69665000Y-108935750D01*
X69665000Y-109336527D01*
X69690463Y-109398000D01*
X69400005Y-109398000D01*
X69400000Y-109397999D01*
X69376998Y-109402574D01*
X69377117Y-109265927D01*
X69274267Y-109017011D01*
X69083990Y-108826402D01*
X68835254Y-108723118D01*
X68732964Y-108723029D01*
X68348968Y-108339032D01*
X68235886Y-108263473D01*
X69665000Y-108263473D01*
X69665000Y-108664250D01*
X69773750Y-108773000D01*
X70323000Y-108773000D01*
X70323000Y-108023750D01*
X70214250Y-107915000D01*
X70013473Y-107915000D01*
X69853592Y-107981225D01*
X69731225Y-108103592D01*
X69665000Y-108263473D01*
X68235886Y-108263473D01*
X68186107Y-108230212D01*
X67994000Y-108191999D01*
X67993995Y-108192000D01*
X67564386Y-108192000D01*
X67564386Y-107893685D01*
X67764746Y-107976882D01*
X68034073Y-107977117D01*
X68282989Y-107874267D01*
X68473598Y-107683990D01*
X68576882Y-107435254D01*
X68576971Y-107332964D01*
X68807935Y-107102000D01*
X69725703Y-107102000D01*
X69743505Y-107193749D01*
G36*
X95622998Y-105732934D02*
X95622998Y-105823748D01*
X95514250Y-105715000D01*
X95313473Y-105715000D01*
X95153592Y-105781225D01*
X95031225Y-105903592D01*
X94965000Y-106063473D01*
X94965000Y-106464250D01*
X95073750Y-106573000D01*
X95623000Y-106573000D01*
X95623000Y-106553000D01*
X95677000Y-106553000D01*
X95677000Y-106573000D01*
X95697000Y-106573000D01*
X95697000Y-106627000D01*
X95677000Y-106627000D01*
X95677000Y-107376250D01*
X95785750Y-107485000D01*
X95898000Y-107485000D01*
X95898000Y-108883681D01*
X95720531Y-108765099D01*
X95459617Y-108713200D01*
X94887420Y-108713200D01*
X94811000Y-108697999D01*
X94810995Y-108698000D01*
X93585000Y-108698000D01*
X93585000Y-108585750D01*
X93476250Y-108477000D01*
X92727000Y-108477000D01*
X92727000Y-108497000D01*
X92673000Y-108497000D01*
X92673000Y-108477000D01*
X91923750Y-108477000D01*
X91815000Y-108585750D01*
X91815000Y-108734798D01*
X91807892Y-108736212D01*
X91769850Y-108761631D01*
X91770392Y-108758908D01*
X91802001Y-108600000D01*
X91802000Y-108599995D01*
X91802000Y-108113473D01*
X91815000Y-108113473D01*
X91815000Y-108314250D01*
X91923750Y-108423000D01*
X92673000Y-108423000D01*
X92673000Y-107873750D01*
X92727000Y-107873750D01*
X92727000Y-108423000D01*
X93476250Y-108423000D01*
X93585000Y-108314250D01*
X93585000Y-108113473D01*
X93518775Y-107953592D01*
X93396408Y-107831225D01*
X93236527Y-107765000D01*
X92835750Y-107765000D01*
X92727000Y-107873750D01*
X92673000Y-107873750D01*
X92673000Y-107873750D01*
X92564250Y-107765000D01*
X92163473Y-107765000D01*
X92003592Y-107831225D01*
X91881225Y-107953592D01*
X91815000Y-108113473D01*
X91802000Y-108113473D01*
X91802000Y-107957936D01*
X92325549Y-107434386D01*
X92700000Y-107434386D01*
X92843749Y-107406495D01*
X92970091Y-107323502D01*
X93054663Y-107198212D01*
X93084386Y-107050000D01*
X93084386Y-106735750D01*
X93265000Y-106735750D01*
X93265000Y-107136527D01*
X93331225Y-107296408D01*
X93453592Y-107418775D01*
X93613473Y-107485000D01*
X93814250Y-107485000D01*
X93923000Y-107376250D01*
X93923000Y-106627000D01*
X93977000Y-106627000D01*
X93977000Y-107376250D01*
X94085750Y-107485000D01*
X94286527Y-107485000D01*
X94446408Y-107418775D01*
X94568775Y-107296408D01*
X94635000Y-107136527D01*
X94635000Y-106735750D01*
X94965000Y-106735750D01*
X94965000Y-107136527D01*
X95031225Y-107296408D01*
X95153592Y-107418775D01*
X95313473Y-107485000D01*
X95514250Y-107485000D01*
X95623000Y-107376250D01*
X95623000Y-106627000D01*
X95073750Y-106627000D01*
X94965000Y-106735750D01*
X94635000Y-106735750D01*
X94635000Y-106735750D01*
X94526250Y-106627000D01*
X93977000Y-106627000D01*
X93923000Y-106627000D01*
X93923000Y-106627000D01*
X93373750Y-106627000D01*
X93265000Y-106735750D01*
X93084386Y-106735750D01*
X93084386Y-106150000D01*
X93067598Y-106063473D01*
X93265000Y-106063473D01*
X93265000Y-106464250D01*
X93373750Y-106573000D01*
X93923000Y-106573000D01*
X93923000Y-105823750D01*
X93977000Y-105823750D01*
X93977000Y-106573000D01*
X94526250Y-106573000D01*
X94635000Y-106464250D01*
X94635000Y-106063473D01*
X94568775Y-105903592D01*
X94446408Y-105781225D01*
X94286527Y-105715000D01*
X94085750Y-105715000D01*
X93977000Y-105823750D01*
X93923000Y-105823750D01*
X93923000Y-105823750D01*
X93814250Y-105715000D01*
X93613473Y-105715000D01*
X93453592Y-105781225D01*
X93331225Y-105903592D01*
X93265000Y-106063473D01*
X93067598Y-106063473D01*
X93056495Y-106006251D01*
X92973502Y-105879909D01*
X92891526Y-105824574D01*
X92809624Y-105702000D01*
X95592064Y-105702000D01*
X95622998Y-105732934D01*
X95622998Y-105732934D01*
G37*
X95622998Y-105732934D02*
X95622998Y-105823748D01*
X95514250Y-105715000D01*
X95313473Y-105715000D01*
X95153592Y-105781225D01*
X95031225Y-105903592D01*
X94965000Y-106063473D01*
X94965000Y-106464250D01*
X95073750Y-106573000D01*
X95623000Y-106573000D01*
X95623000Y-106553000D01*
X95677000Y-106553000D01*
X95677000Y-106573000D01*
X95697000Y-106573000D01*
X95697000Y-106627000D01*
X95677000Y-106627000D01*
X95677000Y-107376250D01*
X95785750Y-107485000D01*
X95898000Y-107485000D01*
X95898000Y-108883681D01*
X95720531Y-108765099D01*
X95459617Y-108713200D01*
X94887420Y-108713200D01*
X94811000Y-108697999D01*
X94810995Y-108698000D01*
X93585000Y-108698000D01*
X93585000Y-108585750D01*
X93476250Y-108477000D01*
X92727000Y-108477000D01*
X92727000Y-108497000D01*
X92673000Y-108497000D01*
X92673000Y-108477000D01*
X91923750Y-108477000D01*
X91815000Y-108585750D01*
X91815000Y-108734798D01*
X91807892Y-108736212D01*
X91769850Y-108761631D01*
X91770392Y-108758908D01*
X91802001Y-108600000D01*
X91802000Y-108599995D01*
X91802000Y-108113473D01*
X91815000Y-108113473D01*
X91815000Y-108314250D01*
X91923750Y-108423000D01*
X92673000Y-108423000D01*
X92673000Y-107873750D01*
X92727000Y-107873750D01*
X92727000Y-108423000D01*
X93476250Y-108423000D01*
X93585000Y-108314250D01*
X93585000Y-108113473D01*
X93518775Y-107953592D01*
X93396408Y-107831225D01*
X93236527Y-107765000D01*
X92835750Y-107765000D01*
X92727000Y-107873750D01*
X92673000Y-107873750D01*
X92673000Y-107873750D01*
X92564250Y-107765000D01*
X92163473Y-107765000D01*
X92003592Y-107831225D01*
X91881225Y-107953592D01*
X91815000Y-108113473D01*
X91802000Y-108113473D01*
X91802000Y-107957936D01*
X92325549Y-107434386D01*
X92700000Y-107434386D01*
X92843749Y-107406495D01*
X92970091Y-107323502D01*
X93054663Y-107198212D01*
X93084386Y-107050000D01*
X93084386Y-106735750D01*
X93265000Y-106735750D01*
X93265000Y-107136527D01*
X93331225Y-107296408D01*
X93453592Y-107418775D01*
X93613473Y-107485000D01*
X93814250Y-107485000D01*
X93923000Y-107376250D01*
X93923000Y-106627000D01*
X93977000Y-106627000D01*
X93977000Y-107376250D01*
X94085750Y-107485000D01*
X94286527Y-107485000D01*
X94446408Y-107418775D01*
X94568775Y-107296408D01*
X94635000Y-107136527D01*
X94635000Y-106735750D01*
X94965000Y-106735750D01*
X94965000Y-107136527D01*
X95031225Y-107296408D01*
X95153592Y-107418775D01*
X95313473Y-107485000D01*
X95514250Y-107485000D01*
X95623000Y-107376250D01*
X95623000Y-106627000D01*
X95073750Y-106627000D01*
X94965000Y-106735750D01*
X94635000Y-106735750D01*
X94635000Y-106735750D01*
X94526250Y-106627000D01*
X93977000Y-106627000D01*
X93923000Y-106627000D01*
X93923000Y-106627000D01*
X93373750Y-106627000D01*
X93265000Y-106735750D01*
X93084386Y-106735750D01*
X93084386Y-106150000D01*
X93067598Y-106063473D01*
X93265000Y-106063473D01*
X93265000Y-106464250D01*
X93373750Y-106573000D01*
X93923000Y-106573000D01*
X93923000Y-105823750D01*
X93977000Y-105823750D01*
X93977000Y-106573000D01*
X94526250Y-106573000D01*
X94635000Y-106464250D01*
X94635000Y-106063473D01*
X94568775Y-105903592D01*
X94446408Y-105781225D01*
X94286527Y-105715000D01*
X94085750Y-105715000D01*
X93977000Y-105823750D01*
X93923000Y-105823750D01*
X93923000Y-105823750D01*
X93814250Y-105715000D01*
X93613473Y-105715000D01*
X93453592Y-105781225D01*
X93331225Y-105903592D01*
X93265000Y-106063473D01*
X93067598Y-106063473D01*
X93056495Y-106006251D01*
X92973502Y-105879909D01*
X92891526Y-105824574D01*
X92809624Y-105702000D01*
X95592064Y-105702000D01*
X95622998Y-105732934D01*
G36*
X69564635Y-102570805D02*
X69446297Y-102619701D01*
X69220494Y-102845110D01*
X69098140Y-103139772D01*
X69097861Y-103458828D01*
X69219701Y-103753703D01*
X69445110Y-103979506D01*
X69715614Y-104091829D01*
X69715614Y-104850000D01*
X69743505Y-104993749D01*
X69826498Y-105120091D01*
X69951788Y-105204663D01*
X70100000Y-105234386D01*
X70474450Y-105234386D01*
X71244755Y-106004690D01*
X71215614Y-106150000D01*
X71215614Y-106755679D01*
X70984386Y-106524450D01*
X70984386Y-106150000D01*
X70956495Y-106006251D01*
X70873502Y-105879909D01*
X70748212Y-105795337D01*
X70600000Y-105765614D01*
X70100000Y-105765614D01*
X69956251Y-105793505D01*
X69829909Y-105876498D01*
X69745337Y-106001788D01*
X69726042Y-106098000D01*
X68600000Y-106098000D01*
X68407893Y-106136212D01*
X68245032Y-106245032D01*
X68245030Y-106245035D01*
X67867093Y-106622971D01*
X67765927Y-106622883D01*
X67615000Y-106685245D01*
X67615000Y-106035750D01*
X67506250Y-105927000D01*
X64667000Y-105927000D01*
X64667000Y-107115250D01*
X64775750Y-107224000D01*
X67223066Y-107224000D01*
X67222887Y-107429215D01*
X67180000Y-107420614D01*
X62327000Y-107420614D01*
X62327000Y-107224000D01*
X64504250Y-107224000D01*
X64613000Y-107115250D01*
X64613000Y-105927000D01*
X64593000Y-105927000D01*
X64593000Y-105873000D01*
X64613000Y-105873000D01*
X64613000Y-104684750D01*
X64667000Y-104684750D01*
X64667000Y-105873000D01*
X67506250Y-105873000D01*
X67615000Y-105764250D01*
X67615000Y-104924473D01*
X67548775Y-104764592D01*
X67426408Y-104642225D01*
X67266527Y-104576000D01*
X64775750Y-104576000D01*
X64667000Y-104684750D01*
X64613000Y-104684750D01*
X64613000Y-104684750D01*
X64504250Y-104576000D01*
X62327000Y-104576000D01*
X62327000Y-104379386D01*
X67180000Y-104379386D01*
X67323749Y-104351495D01*
X67450091Y-104268502D01*
X67534663Y-104143212D01*
X67564386Y-103995000D01*
X67564386Y-103421709D01*
X67716010Y-103573598D01*
X67964746Y-103676882D01*
X68234073Y-103677117D01*
X68482989Y-103574267D01*
X68673598Y-103383990D01*
X68776882Y-103135254D01*
X68776971Y-103032965D01*
X69564635Y-102245300D01*
X69564635Y-102570805D01*
X69564635Y-102570805D01*
G37*
X69564635Y-102570805D02*
X69446297Y-102619701D01*
X69220494Y-102845110D01*
X69098140Y-103139772D01*
X69097861Y-103458828D01*
X69219701Y-103753703D01*
X69445110Y-103979506D01*
X69715614Y-104091829D01*
X69715614Y-104850000D01*
X69743505Y-104993749D01*
X69826498Y-105120091D01*
X69951788Y-105204663D01*
X70100000Y-105234386D01*
X70474450Y-105234386D01*
X71244755Y-106004690D01*
X71215614Y-106150000D01*
X71215614Y-106755679D01*
X70984386Y-106524450D01*
X70984386Y-106150000D01*
X70956495Y-106006251D01*
X70873502Y-105879909D01*
X70748212Y-105795337D01*
X70600000Y-105765614D01*
X70100000Y-105765614D01*
X69956251Y-105793505D01*
X69829909Y-105876498D01*
X69745337Y-106001788D01*
X69726042Y-106098000D01*
X68600000Y-106098000D01*
X68407893Y-106136212D01*
X68245032Y-106245032D01*
X68245030Y-106245035D01*
X67867093Y-106622971D01*
X67765927Y-106622883D01*
X67615000Y-106685245D01*
X67615000Y-106035750D01*
X67506250Y-105927000D01*
X64667000Y-105927000D01*
X64667000Y-107115250D01*
X64775750Y-107224000D01*
X67223066Y-107224000D01*
X67222887Y-107429215D01*
X67180000Y-107420614D01*
X62327000Y-107420614D01*
X62327000Y-107224000D01*
X64504250Y-107224000D01*
X64613000Y-107115250D01*
X64613000Y-105927000D01*
X64593000Y-105927000D01*
X64593000Y-105873000D01*
X64613000Y-105873000D01*
X64613000Y-104684750D01*
X64667000Y-104684750D01*
X64667000Y-105873000D01*
X67506250Y-105873000D01*
X67615000Y-105764250D01*
X67615000Y-104924473D01*
X67548775Y-104764592D01*
X67426408Y-104642225D01*
X67266527Y-104576000D01*
X64775750Y-104576000D01*
X64667000Y-104684750D01*
X64613000Y-104684750D01*
X64613000Y-104684750D01*
X64504250Y-104576000D01*
X62327000Y-104576000D01*
X62327000Y-104379386D01*
X67180000Y-104379386D01*
X67323749Y-104351495D01*
X67450091Y-104268502D01*
X67534663Y-104143212D01*
X67564386Y-103995000D01*
X67564386Y-103421709D01*
X67716010Y-103573598D01*
X67964746Y-103676882D01*
X68234073Y-103677117D01*
X68482989Y-103574267D01*
X68673598Y-103383990D01*
X68776882Y-103135254D01*
X68776971Y-103032965D01*
X69564635Y-102245300D01*
X69564635Y-102570805D01*
G36*
X71040923Y-103925466D02*
X71165000Y-103950147D01*
X71165000Y-104264250D01*
X71273750Y-104373000D01*
X71823000Y-104373000D01*
X71823000Y-104353000D01*
X71877000Y-104353000D01*
X71877000Y-104373000D01*
X72426250Y-104373000D01*
X72535000Y-104264250D01*
X72535000Y-103977000D01*
X73114635Y-103977000D01*
X73114635Y-104600000D01*
X73146224Y-104762814D01*
X73240224Y-104905912D01*
X73382132Y-105001700D01*
X73550000Y-105035365D01*
X75507213Y-105035365D01*
X74377943Y-106164635D01*
X73550000Y-106164635D01*
X73457206Y-106182639D01*
X73476882Y-106135254D01*
X73477117Y-105865927D01*
X73374267Y-105617011D01*
X73183990Y-105426402D01*
X72935254Y-105323118D01*
X72665927Y-105322883D01*
X72417011Y-105425733D01*
X72241994Y-105600445D01*
X72204968Y-105545032D01*
X72204965Y-105545030D01*
X71877002Y-105217067D01*
X71877002Y-105176252D01*
X71985750Y-105285000D01*
X72186527Y-105285000D01*
X72346408Y-105218775D01*
X72468775Y-105096408D01*
X72535000Y-104936527D01*
X72535000Y-104535750D01*
X72426250Y-104427000D01*
X71877000Y-104427000D01*
X71877000Y-104447000D01*
X71823000Y-104447000D01*
X71823000Y-104427000D01*
X71273750Y-104427000D01*
X71180343Y-104520407D01*
X70984386Y-104324450D01*
X70984386Y-103950000D01*
X70970495Y-103878408D01*
X71040923Y-103925466D01*
X71040923Y-103925466D01*
G37*
X71040923Y-103925466D02*
X71165000Y-103950147D01*
X71165000Y-104264250D01*
X71273750Y-104373000D01*
X71823000Y-104373000D01*
X71823000Y-104353000D01*
X71877000Y-104353000D01*
X71877000Y-104373000D01*
X72426250Y-104373000D01*
X72535000Y-104264250D01*
X72535000Y-103977000D01*
X73114635Y-103977000D01*
X73114635Y-104600000D01*
X73146224Y-104762814D01*
X73240224Y-104905912D01*
X73382132Y-105001700D01*
X73550000Y-105035365D01*
X75507213Y-105035365D01*
X74377943Y-106164635D01*
X73550000Y-106164635D01*
X73457206Y-106182639D01*
X73476882Y-106135254D01*
X73477117Y-105865927D01*
X73374267Y-105617011D01*
X73183990Y-105426402D01*
X72935254Y-105323118D01*
X72665927Y-105322883D01*
X72417011Y-105425733D01*
X72241994Y-105600445D01*
X72204968Y-105545032D01*
X72204965Y-105545030D01*
X71877002Y-105217067D01*
X71877002Y-105176252D01*
X71985750Y-105285000D01*
X72186527Y-105285000D01*
X72346408Y-105218775D01*
X72468775Y-105096408D01*
X72535000Y-104936527D01*
X72535000Y-104535750D01*
X72426250Y-104427000D01*
X71877000Y-104427000D01*
X71877000Y-104447000D01*
X71823000Y-104447000D01*
X71823000Y-104427000D01*
X71273750Y-104427000D01*
X71180343Y-104520407D01*
X70984386Y-104324450D01*
X70984386Y-103950000D01*
X70970495Y-103878408D01*
X71040923Y-103925466D01*
G36*
X80525733Y-104482989D02*
X80716010Y-104673598D01*
X80964746Y-104776882D01*
X80990300Y-104776904D01*
X80965614Y-104900000D01*
X80965614Y-105400000D01*
X80993505Y-105543749D01*
X81076498Y-105670091D01*
X81201788Y-105754663D01*
X81350000Y-105784386D01*
X82228902Y-105784386D01*
X81997674Y-106015614D01*
X81350000Y-106015614D01*
X81206251Y-106043505D01*
X81161350Y-106073000D01*
X80440566Y-106073000D01*
X80431495Y-106026251D01*
X80348502Y-105899909D01*
X80223212Y-105815337D01*
X80075000Y-105785614D01*
X79425000Y-105785614D01*
X79281251Y-105813505D01*
X79266793Y-105823002D01*
X79263788Y-105807893D01*
X79154968Y-105645032D01*
X78974936Y-105465000D01*
X79211527Y-105465000D01*
X79363497Y-105402052D01*
X79425000Y-105414386D01*
X80075000Y-105414386D01*
X80218749Y-105386495D01*
X80345091Y-105303502D01*
X80429663Y-105178212D01*
X80459386Y-105030000D01*
X80459386Y-104322417D01*
X80525733Y-104482989D01*
X80525733Y-104482989D01*
G37*
X80525733Y-104482989D02*
X80716010Y-104673598D01*
X80964746Y-104776882D01*
X80990300Y-104776904D01*
X80965614Y-104900000D01*
X80965614Y-105400000D01*
X80993505Y-105543749D01*
X81076498Y-105670091D01*
X81201788Y-105754663D01*
X81350000Y-105784386D01*
X82228902Y-105784386D01*
X81997674Y-106015614D01*
X81350000Y-106015614D01*
X81206251Y-106043505D01*
X81161350Y-106073000D01*
X80440566Y-106073000D01*
X80431495Y-106026251D01*
X80348502Y-105899909D01*
X80223212Y-105815337D01*
X80075000Y-105785614D01*
X79425000Y-105785614D01*
X79281251Y-105813505D01*
X79266793Y-105823002D01*
X79263788Y-105807893D01*
X79154968Y-105645032D01*
X78974936Y-105465000D01*
X79211527Y-105465000D01*
X79363497Y-105402052D01*
X79425000Y-105414386D01*
X80075000Y-105414386D01*
X80218749Y-105386495D01*
X80345091Y-105303502D01*
X80429663Y-105178212D01*
X80459386Y-105030000D01*
X80459386Y-104322417D01*
X80525733Y-104482989D01*
G36*
X86195032Y-105204968D02*
X86357892Y-105313788D01*
X86550000Y-105352001D01*
X86550005Y-105352000D01*
X89342064Y-105352000D01*
X89655679Y-105665614D01*
X89575000Y-105665614D01*
X89447935Y-105690268D01*
X89325000Y-105665614D01*
X89075000Y-105665614D01*
X88947935Y-105690268D01*
X88825000Y-105665614D01*
X88575000Y-105665614D01*
X88447935Y-105690268D01*
X88325000Y-105665614D01*
X88075000Y-105665614D01*
X87947935Y-105690268D01*
X87825000Y-105665614D01*
X87575000Y-105665614D01*
X87447935Y-105690268D01*
X87325000Y-105665614D01*
X87075000Y-105665614D01*
X86947935Y-105690268D01*
X86825000Y-105665614D01*
X86575000Y-105665614D01*
X86546888Y-105671068D01*
X86411527Y-105615000D01*
X86335750Y-105615000D01*
X86227000Y-105723750D01*
X86227000Y-105891917D01*
X86220337Y-105901788D01*
X86202000Y-105993224D01*
X86202000Y-105800005D01*
X86202001Y-105800000D01*
X86163788Y-105607892D01*
X86054968Y-105445032D01*
X85787560Y-105177624D01*
X85868775Y-105096408D01*
X85932537Y-104942473D01*
X86195032Y-105204968D01*
X86195032Y-105204968D01*
G37*
X86195032Y-105204968D02*
X86357892Y-105313788D01*
X86550000Y-105352001D01*
X86550005Y-105352000D01*
X89342064Y-105352000D01*
X89655679Y-105665614D01*
X89575000Y-105665614D01*
X89447935Y-105690268D01*
X89325000Y-105665614D01*
X89075000Y-105665614D01*
X88947935Y-105690268D01*
X88825000Y-105665614D01*
X88575000Y-105665614D01*
X88447935Y-105690268D01*
X88325000Y-105665614D01*
X88075000Y-105665614D01*
X87947935Y-105690268D01*
X87825000Y-105665614D01*
X87575000Y-105665614D01*
X87447935Y-105690268D01*
X87325000Y-105665614D01*
X87075000Y-105665614D01*
X86947935Y-105690268D01*
X86825000Y-105665614D01*
X86575000Y-105665614D01*
X86546888Y-105671068D01*
X86411527Y-105615000D01*
X86335750Y-105615000D01*
X86227000Y-105723750D01*
X86227000Y-105891917D01*
X86220337Y-105901788D01*
X86202000Y-105993224D01*
X86202000Y-105800005D01*
X86202001Y-105800000D01*
X86163788Y-105607892D01*
X86054968Y-105445032D01*
X85787560Y-105177624D01*
X85868775Y-105096408D01*
X85932537Y-104942473D01*
X86195032Y-105204968D01*
G36*
X102535614Y-102117000D02*
X102535614Y-103895000D01*
X102563505Y-104038749D01*
X102646498Y-104165091D01*
X102771788Y-104249663D01*
X102920000Y-104279386D01*
X107773000Y-104279386D01*
X107773000Y-104476000D01*
X105595750Y-104476000D01*
X105487000Y-104584750D01*
X105487000Y-105773000D01*
X105507000Y-105773000D01*
X105507000Y-105827000D01*
X105487000Y-105827000D01*
X105487000Y-105847000D01*
X105433000Y-105847000D01*
X105433000Y-105827000D01*
X105413000Y-105827000D01*
X105413000Y-105773000D01*
X105433000Y-105773000D01*
X105433000Y-104584750D01*
X105324250Y-104476000D01*
X102833473Y-104476000D01*
X102673592Y-104542225D01*
X102551225Y-104664592D01*
X102485000Y-104824473D01*
X102485000Y-105243774D01*
X102435254Y-105223118D01*
X102165927Y-105222883D01*
X101917011Y-105325733D01*
X101884386Y-105358301D01*
X101884386Y-104550000D01*
X101856495Y-104406251D01*
X101773502Y-104279909D01*
X101648212Y-104195337D01*
X101500000Y-104165614D01*
X101244321Y-104165614D01*
X101604965Y-103804970D01*
X101604968Y-103804968D01*
X101677445Y-103696498D01*
X101691900Y-103674865D01*
X101770091Y-103623502D01*
X101854663Y-103498212D01*
X101884386Y-103350000D01*
X101884386Y-102450000D01*
X101856495Y-102306251D01*
X101835558Y-102274378D01*
X102007935Y-102102000D01*
X102538622Y-102102000D01*
X102535614Y-102117000D01*
X102535614Y-102117000D01*
G37*
X102535614Y-102117000D02*
X102535614Y-103895000D01*
X102563505Y-104038749D01*
X102646498Y-104165091D01*
X102771788Y-104249663D01*
X102920000Y-104279386D01*
X107773000Y-104279386D01*
X107773000Y-104476000D01*
X105595750Y-104476000D01*
X105487000Y-104584750D01*
X105487000Y-105773000D01*
X105507000Y-105773000D01*
X105507000Y-105827000D01*
X105487000Y-105827000D01*
X105487000Y-105847000D01*
X105433000Y-105847000D01*
X105433000Y-105827000D01*
X105413000Y-105827000D01*
X105413000Y-105773000D01*
X105433000Y-105773000D01*
X105433000Y-104584750D01*
X105324250Y-104476000D01*
X102833473Y-104476000D01*
X102673592Y-104542225D01*
X102551225Y-104664592D01*
X102485000Y-104824473D01*
X102485000Y-105243774D01*
X102435254Y-105223118D01*
X102165927Y-105222883D01*
X101917011Y-105325733D01*
X101884386Y-105358301D01*
X101884386Y-104550000D01*
X101856495Y-104406251D01*
X101773502Y-104279909D01*
X101648212Y-104195337D01*
X101500000Y-104165614D01*
X101244321Y-104165614D01*
X101604965Y-103804970D01*
X101604968Y-103804968D01*
X101677445Y-103696498D01*
X101691900Y-103674865D01*
X101770091Y-103623502D01*
X101854663Y-103498212D01*
X101884386Y-103350000D01*
X101884386Y-102450000D01*
X101856495Y-102306251D01*
X101835558Y-102274378D01*
X102007935Y-102102000D01*
X102538622Y-102102000D01*
X102535614Y-102117000D01*
G36*
X100615614Y-103350000D02*
X100619587Y-103370477D01*
X100145032Y-103845032D01*
X100036212Y-104007893D01*
X100014907Y-104115000D01*
X99885750Y-104115000D01*
X99777000Y-104223750D01*
X99777000Y-104973000D01*
X99797000Y-104973000D01*
X99797000Y-105027000D01*
X99777000Y-105027000D01*
X99777000Y-105047000D01*
X99723000Y-105047000D01*
X99723000Y-105027000D01*
X99703000Y-105027000D01*
X99703000Y-104973000D01*
X99723000Y-104973000D01*
X99723000Y-104223750D01*
X99614250Y-104115000D01*
X99477000Y-104115000D01*
X99477000Y-103729773D01*
X99500000Y-103734386D01*
X100000000Y-103734386D01*
X100143749Y-103706495D01*
X100270091Y-103623502D01*
X100354663Y-103498212D01*
X100384386Y-103350000D01*
X100384386Y-102925553D01*
X100615614Y-102574724D01*
X100615614Y-103350000D01*
X100615614Y-103350000D01*
G37*
X100615614Y-103350000D02*
X100619587Y-103370477D01*
X100145032Y-103845032D01*
X100036212Y-104007893D01*
X100014907Y-104115000D01*
X99885750Y-104115000D01*
X99777000Y-104223750D01*
X99777000Y-104973000D01*
X99797000Y-104973000D01*
X99797000Y-105027000D01*
X99777000Y-105027000D01*
X99777000Y-105047000D01*
X99723000Y-105047000D01*
X99723000Y-105027000D01*
X99703000Y-105027000D01*
X99703000Y-104973000D01*
X99723000Y-104973000D01*
X99723000Y-104223750D01*
X99614250Y-104115000D01*
X99477000Y-104115000D01*
X99477000Y-103729773D01*
X99500000Y-103734386D01*
X100000000Y-103734386D01*
X100143749Y-103706495D01*
X100270091Y-103623502D01*
X100354663Y-103498212D01*
X100384386Y-103350000D01*
X100384386Y-102925553D01*
X100615614Y-102574724D01*
X100615614Y-103350000D01*
G36*
X107434745Y-98938614D02*
X102920000Y-98938614D01*
X102776251Y-98966505D01*
X102649909Y-99049498D01*
X102565337Y-99174788D01*
X102535614Y-99323000D01*
X102535614Y-101098000D01*
X101884386Y-101098000D01*
X101884386Y-100250000D01*
X101856495Y-100106251D01*
X101773502Y-99979909D01*
X101648212Y-99895337D01*
X101500000Y-99865614D01*
X101000000Y-99865614D01*
X100856251Y-99893505D01*
X100729909Y-99976498D01*
X100645337Y-100101788D01*
X100615614Y-100250000D01*
X100615614Y-100750309D01*
X100435000Y-101024345D01*
X100435000Y-100835750D01*
X100326250Y-100727000D01*
X99777000Y-100727000D01*
X99777000Y-101476250D01*
X99885750Y-101585000D01*
X100065477Y-101585000D01*
X99748709Y-102065614D01*
X99500000Y-102065614D01*
X99477000Y-102070077D01*
X99477000Y-101585000D01*
X99614250Y-101585000D01*
X99723000Y-101476250D01*
X99723000Y-100727000D01*
X99703000Y-100727000D01*
X99703000Y-100673000D01*
X99723000Y-100673000D01*
X99723000Y-99923750D01*
X99777000Y-99923750D01*
X99777000Y-100673000D01*
X100326250Y-100673000D01*
X100435000Y-100564250D01*
X100435000Y-100163473D01*
X100368775Y-100003592D01*
X100246408Y-99881225D01*
X100086527Y-99815000D01*
X99885750Y-99815000D01*
X99777000Y-99923750D01*
X99723000Y-99923750D01*
X99723000Y-99923750D01*
X99614250Y-99815000D01*
X99477000Y-99815000D01*
X99477000Y-98953311D01*
X99653703Y-98880299D01*
X99879506Y-98654890D01*
X100001860Y-98360228D01*
X100002139Y-98041172D01*
X99880299Y-97746297D01*
X99654890Y-97520494D01*
X99360228Y-97398140D01*
X99041172Y-97397861D01*
X98746297Y-97519701D01*
X98520494Y-97745110D01*
X98425000Y-97975086D01*
X98425000Y-97853473D01*
X98358775Y-97693592D01*
X98236408Y-97571225D01*
X98076527Y-97505000D01*
X94760750Y-97505000D01*
X94652000Y-97613750D01*
X94652000Y-101283000D01*
X94672000Y-101283000D01*
X94672000Y-101337000D01*
X94652000Y-101337000D01*
X94652000Y-101357000D01*
X94598000Y-101357000D01*
X94598000Y-101337000D01*
X90933750Y-101337000D01*
X90825000Y-101445750D01*
X90825000Y-104698000D01*
X90807935Y-104698000D01*
X89764386Y-103654450D01*
X89764386Y-102715000D01*
X89736495Y-102571251D01*
X89653502Y-102444909D01*
X89528212Y-102360337D01*
X89380000Y-102330614D01*
X87717326Y-102330614D01*
X87553356Y-102166644D01*
X87446637Y-102095337D01*
X87349943Y-102030728D01*
X87110000Y-101983000D01*
X84876830Y-101983000D01*
X84840000Y-101975614D01*
X83940000Y-101975614D01*
X83901933Y-101983000D01*
X83290000Y-101983000D01*
X83060000Y-102028750D01*
X83060000Y-101615750D01*
X82951250Y-101507000D01*
X82037000Y-101507000D01*
X82037000Y-101527000D01*
X81983000Y-101527000D01*
X81983000Y-101507000D01*
X81963000Y-101507000D01*
X81963000Y-101453000D01*
X81983000Y-101453000D01*
X81983000Y-101433000D01*
X82037000Y-101433000D01*
X82037000Y-101453000D01*
X82951250Y-101453000D01*
X83060000Y-101344250D01*
X83060000Y-101245750D01*
X83505000Y-101245750D01*
X83505000Y-101446527D01*
X83571225Y-101606408D01*
X83693592Y-101728775D01*
X83853473Y-101795000D01*
X84254250Y-101795000D01*
X84363000Y-101686250D01*
X84363000Y-101137000D01*
X84417000Y-101137000D01*
X84417000Y-101686250D01*
X84525750Y-101795000D01*
X84926527Y-101795000D01*
X85086408Y-101728775D01*
X85208775Y-101606408D01*
X85275000Y-101446527D01*
X85275000Y-101245750D01*
X85166250Y-101137000D01*
X84417000Y-101137000D01*
X84363000Y-101137000D01*
X84363000Y-101137000D01*
X83613750Y-101137000D01*
X83505000Y-101245750D01*
X83060000Y-101245750D01*
X83060000Y-100773473D01*
X83505000Y-100773473D01*
X83505000Y-100974250D01*
X83613750Y-101083000D01*
X84363000Y-101083000D01*
X84363000Y-100533750D01*
X84417000Y-100533750D01*
X84417000Y-101083000D01*
X85166250Y-101083000D01*
X85275000Y-100974250D01*
X85275000Y-100773473D01*
X85208775Y-100613592D01*
X85086408Y-100491225D01*
X84926527Y-100425000D01*
X84525750Y-100425000D01*
X84417000Y-100533750D01*
X84363000Y-100533750D01*
X84363000Y-100533750D01*
X84254250Y-100425000D01*
X83853473Y-100425000D01*
X83693592Y-100491225D01*
X83571225Y-100613592D01*
X83505000Y-100773473D01*
X83060000Y-100773473D01*
X83060000Y-100493473D01*
X82993775Y-100333592D01*
X82871408Y-100211225D01*
X82766731Y-100167866D01*
X82787814Y-100163776D01*
X82930912Y-100069776D01*
X83026700Y-99927868D01*
X83043168Y-99845750D01*
X83505000Y-99845750D01*
X83505000Y-100046527D01*
X83571225Y-100206408D01*
X83693592Y-100328775D01*
X83853473Y-100395000D01*
X84254250Y-100395000D01*
X84363000Y-100286250D01*
X84363000Y-99737000D01*
X84417000Y-99737000D01*
X84417000Y-100286250D01*
X84525750Y-100395000D01*
X84926527Y-100395000D01*
X85086408Y-100328775D01*
X85208775Y-100206408D01*
X85275000Y-100046527D01*
X85275000Y-99845750D01*
X85166250Y-99737000D01*
X84417000Y-99737000D01*
X84363000Y-99737000D01*
X84363000Y-99737000D01*
X83613750Y-99737000D01*
X83505000Y-99845750D01*
X83043168Y-99845750D01*
X83060365Y-99760000D01*
X83060365Y-99373473D01*
X83505000Y-99373473D01*
X83505000Y-99574250D01*
X83613750Y-99683000D01*
X84363000Y-99683000D01*
X84363000Y-99133750D01*
X84417000Y-99133750D01*
X84417000Y-99683000D01*
X85166250Y-99683000D01*
X85275000Y-99574250D01*
X85275000Y-99373473D01*
X85208775Y-99213592D01*
X85086408Y-99091225D01*
X84926527Y-99025000D01*
X84525750Y-99025000D01*
X84417000Y-99133750D01*
X84363000Y-99133750D01*
X84363000Y-99133750D01*
X84254250Y-99025000D01*
X83853473Y-99025000D01*
X83693592Y-99091225D01*
X83571225Y-99213592D01*
X83505000Y-99373473D01*
X83060365Y-99373473D01*
X83060365Y-98887000D01*
X83898289Y-98887000D01*
X83940000Y-98895365D01*
X84840000Y-98895365D01*
X84883114Y-98887000D01*
X86164635Y-98887000D01*
X86164635Y-99905000D01*
X86196224Y-100067814D01*
X86290224Y-100210912D01*
X86432132Y-100306700D01*
X86600000Y-100340365D01*
X89380000Y-100340365D01*
X89542814Y-100308776D01*
X89685912Y-100214776D01*
X89781700Y-100072868D01*
X89815365Y-99905000D01*
X89815365Y-98355000D01*
X89783776Y-98192186D01*
X89689776Y-98049088D01*
X89547868Y-97953300D01*
X89380000Y-97919635D01*
X87737057Y-97919635D01*
X87670895Y-97853473D01*
X90825000Y-97853473D01*
X90825000Y-101174250D01*
X90933750Y-101283000D01*
X94598000Y-101283000D01*
X94598000Y-97613750D01*
X94489250Y-97505000D01*
X91173473Y-97505000D01*
X91013592Y-97571225D01*
X90891225Y-97693592D01*
X90825000Y-97853473D01*
X87670895Y-97853473D01*
X87548711Y-97731289D01*
X87501884Y-97700000D01*
X87329077Y-97584534D01*
X87070000Y-97533000D01*
X84881711Y-97533000D01*
X84840000Y-97524635D01*
X83940000Y-97524635D01*
X83896886Y-97533000D01*
X82666711Y-97533000D01*
X82625000Y-97524635D01*
X81395000Y-97524635D01*
X81232186Y-97556224D01*
X81089088Y-97650224D01*
X80993300Y-97792132D01*
X80962564Y-97945394D01*
X80880299Y-97746297D01*
X80654890Y-97520494D01*
X80360228Y-97398140D01*
X80041172Y-97397861D01*
X79746297Y-97519701D01*
X79520494Y-97745110D01*
X79398140Y-98039772D01*
X79398136Y-98044442D01*
X78628563Y-98814015D01*
X77599160Y-98814015D01*
X77436346Y-98845604D01*
X77293248Y-98939604D01*
X77197460Y-99081512D01*
X77163795Y-99249380D01*
X77163795Y-100906521D01*
X77102000Y-100844618D01*
X77102000Y-98900000D01*
X77096860Y-98874160D01*
X77063788Y-98707892D01*
X77002537Y-98616224D01*
X76954968Y-98545032D01*
X76954965Y-98545030D01*
X76604728Y-98194792D01*
X75754968Y-97345032D01*
X75592107Y-97236212D01*
X75400000Y-97197999D01*
X75399995Y-97198000D01*
X71955463Y-97198000D01*
X71883990Y-97126402D01*
X71635254Y-97023118D01*
X71365927Y-97022883D01*
X71117011Y-97125733D01*
X70926402Y-97316010D01*
X70823118Y-97564746D01*
X70822883Y-97834073D01*
X70925733Y-98082989D01*
X71116010Y-98273598D01*
X71199378Y-98308215D01*
X71190924Y-98350370D01*
X71190924Y-98699805D01*
X71007892Y-98736212D01*
X70957661Y-98769776D01*
X70845032Y-98845032D01*
X70845030Y-98845035D01*
X70835172Y-98854892D01*
X70803301Y-98777948D01*
X70809076Y-98749150D01*
X70809076Y-98350370D01*
X70781185Y-98206621D01*
X70698192Y-98080279D01*
X70572902Y-97995707D01*
X70424690Y-97965984D01*
X69675390Y-97965984D01*
X69531641Y-97993875D01*
X69405299Y-98076868D01*
X69320727Y-98202158D01*
X69291004Y-98350370D01*
X69291004Y-98749150D01*
X69296651Y-98778256D01*
X69240390Y-98914083D01*
X69240390Y-99064250D01*
X69349140Y-99173000D01*
X70023040Y-99173000D01*
X70023040Y-99153000D01*
X70077040Y-99153000D01*
X70077040Y-99173000D01*
X70097040Y-99173000D01*
X70097040Y-99227000D01*
X70077040Y-99227000D01*
X70077040Y-99247000D01*
X70023040Y-99247000D01*
X70023040Y-99227000D01*
X69349140Y-99227000D01*
X69347809Y-99228331D01*
X69335254Y-99223118D01*
X69065927Y-99222883D01*
X68817011Y-99325733D01*
X68626402Y-99516010D01*
X68523118Y-99764746D01*
X68523079Y-99810000D01*
X67564386Y-99810000D01*
X67564386Y-99423000D01*
X67536495Y-99279251D01*
X67453502Y-99152909D01*
X67328212Y-99068337D01*
X67180000Y-99038614D01*
X62665256Y-99038614D01*
X63801932Y-97901937D01*
X63801935Y-97901935D01*
X64776870Y-96927000D01*
X105423130Y-96927000D01*
X107434745Y-98938614D01*
X107434745Y-98938614D01*
G37*
X107434745Y-98938614D02*
X102920000Y-98938614D01*
X102776251Y-98966505D01*
X102649909Y-99049498D01*
X102565337Y-99174788D01*
X102535614Y-99323000D01*
X102535614Y-101098000D01*
X101884386Y-101098000D01*
X101884386Y-100250000D01*
X101856495Y-100106251D01*
X101773502Y-99979909D01*
X101648212Y-99895337D01*
X101500000Y-99865614D01*
X101000000Y-99865614D01*
X100856251Y-99893505D01*
X100729909Y-99976498D01*
X100645337Y-100101788D01*
X100615614Y-100250000D01*
X100615614Y-100750309D01*
X100435000Y-101024345D01*
X100435000Y-100835750D01*
X100326250Y-100727000D01*
X99777000Y-100727000D01*
X99777000Y-101476250D01*
X99885750Y-101585000D01*
X100065477Y-101585000D01*
X99748709Y-102065614D01*
X99500000Y-102065614D01*
X99477000Y-102070077D01*
X99477000Y-101585000D01*
X99614250Y-101585000D01*
X99723000Y-101476250D01*
X99723000Y-100727000D01*
X99703000Y-100727000D01*
X99703000Y-100673000D01*
X99723000Y-100673000D01*
X99723000Y-99923750D01*
X99777000Y-99923750D01*
X99777000Y-100673000D01*
X100326250Y-100673000D01*
X100435000Y-100564250D01*
X100435000Y-100163473D01*
X100368775Y-100003592D01*
X100246408Y-99881225D01*
X100086527Y-99815000D01*
X99885750Y-99815000D01*
X99777000Y-99923750D01*
X99723000Y-99923750D01*
X99723000Y-99923750D01*
X99614250Y-99815000D01*
X99477000Y-99815000D01*
X99477000Y-98953311D01*
X99653703Y-98880299D01*
X99879506Y-98654890D01*
X100001860Y-98360228D01*
X100002139Y-98041172D01*
X99880299Y-97746297D01*
X99654890Y-97520494D01*
X99360228Y-97398140D01*
X99041172Y-97397861D01*
X98746297Y-97519701D01*
X98520494Y-97745110D01*
X98425000Y-97975086D01*
X98425000Y-97853473D01*
X98358775Y-97693592D01*
X98236408Y-97571225D01*
X98076527Y-97505000D01*
X94760750Y-97505000D01*
X94652000Y-97613750D01*
X94652000Y-101283000D01*
X94672000Y-101283000D01*
X94672000Y-101337000D01*
X94652000Y-101337000D01*
X94652000Y-101357000D01*
X94598000Y-101357000D01*
X94598000Y-101337000D01*
X90933750Y-101337000D01*
X90825000Y-101445750D01*
X90825000Y-104698000D01*
X90807935Y-104698000D01*
X89764386Y-103654450D01*
X89764386Y-102715000D01*
X89736495Y-102571251D01*
X89653502Y-102444909D01*
X89528212Y-102360337D01*
X89380000Y-102330614D01*
X87717326Y-102330614D01*
X87553356Y-102166644D01*
X87446637Y-102095337D01*
X87349943Y-102030728D01*
X87110000Y-101983000D01*
X84876830Y-101983000D01*
X84840000Y-101975614D01*
X83940000Y-101975614D01*
X83901933Y-101983000D01*
X83290000Y-101983000D01*
X83060000Y-102028750D01*
X83060000Y-101615750D01*
X82951250Y-101507000D01*
X82037000Y-101507000D01*
X82037000Y-101527000D01*
X81983000Y-101527000D01*
X81983000Y-101507000D01*
X81963000Y-101507000D01*
X81963000Y-101453000D01*
X81983000Y-101453000D01*
X81983000Y-101433000D01*
X82037000Y-101433000D01*
X82037000Y-101453000D01*
X82951250Y-101453000D01*
X83060000Y-101344250D01*
X83060000Y-101245750D01*
X83505000Y-101245750D01*
X83505000Y-101446527D01*
X83571225Y-101606408D01*
X83693592Y-101728775D01*
X83853473Y-101795000D01*
X84254250Y-101795000D01*
X84363000Y-101686250D01*
X84363000Y-101137000D01*
X84417000Y-101137000D01*
X84417000Y-101686250D01*
X84525750Y-101795000D01*
X84926527Y-101795000D01*
X85086408Y-101728775D01*
X85208775Y-101606408D01*
X85275000Y-101446527D01*
X85275000Y-101245750D01*
X85166250Y-101137000D01*
X84417000Y-101137000D01*
X84363000Y-101137000D01*
X84363000Y-101137000D01*
X83613750Y-101137000D01*
X83505000Y-101245750D01*
X83060000Y-101245750D01*
X83060000Y-100773473D01*
X83505000Y-100773473D01*
X83505000Y-100974250D01*
X83613750Y-101083000D01*
X84363000Y-101083000D01*
X84363000Y-100533750D01*
X84417000Y-100533750D01*
X84417000Y-101083000D01*
X85166250Y-101083000D01*
X85275000Y-100974250D01*
X85275000Y-100773473D01*
X85208775Y-100613592D01*
X85086408Y-100491225D01*
X84926527Y-100425000D01*
X84525750Y-100425000D01*
X84417000Y-100533750D01*
X84363000Y-100533750D01*
X84363000Y-100533750D01*
X84254250Y-100425000D01*
X83853473Y-100425000D01*
X83693592Y-100491225D01*
X83571225Y-100613592D01*
X83505000Y-100773473D01*
X83060000Y-100773473D01*
X83060000Y-100493473D01*
X82993775Y-100333592D01*
X82871408Y-100211225D01*
X82766731Y-100167866D01*
X82787814Y-100163776D01*
X82930912Y-100069776D01*
X83026700Y-99927868D01*
X83043168Y-99845750D01*
X83505000Y-99845750D01*
X83505000Y-100046527D01*
X83571225Y-100206408D01*
X83693592Y-100328775D01*
X83853473Y-100395000D01*
X84254250Y-100395000D01*
X84363000Y-100286250D01*
X84363000Y-99737000D01*
X84417000Y-99737000D01*
X84417000Y-100286250D01*
X84525750Y-100395000D01*
X84926527Y-100395000D01*
X85086408Y-100328775D01*
X85208775Y-100206408D01*
X85275000Y-100046527D01*
X85275000Y-99845750D01*
X85166250Y-99737000D01*
X84417000Y-99737000D01*
X84363000Y-99737000D01*
X84363000Y-99737000D01*
X83613750Y-99737000D01*
X83505000Y-99845750D01*
X83043168Y-99845750D01*
X83060365Y-99760000D01*
X83060365Y-99373473D01*
X83505000Y-99373473D01*
X83505000Y-99574250D01*
X83613750Y-99683000D01*
X84363000Y-99683000D01*
X84363000Y-99133750D01*
X84417000Y-99133750D01*
X84417000Y-99683000D01*
X85166250Y-99683000D01*
X85275000Y-99574250D01*
X85275000Y-99373473D01*
X85208775Y-99213592D01*
X85086408Y-99091225D01*
X84926527Y-99025000D01*
X84525750Y-99025000D01*
X84417000Y-99133750D01*
X84363000Y-99133750D01*
X84363000Y-99133750D01*
X84254250Y-99025000D01*
X83853473Y-99025000D01*
X83693592Y-99091225D01*
X83571225Y-99213592D01*
X83505000Y-99373473D01*
X83060365Y-99373473D01*
X83060365Y-98887000D01*
X83898289Y-98887000D01*
X83940000Y-98895365D01*
X84840000Y-98895365D01*
X84883114Y-98887000D01*
X86164635Y-98887000D01*
X86164635Y-99905000D01*
X86196224Y-100067814D01*
X86290224Y-100210912D01*
X86432132Y-100306700D01*
X86600000Y-100340365D01*
X89380000Y-100340365D01*
X89542814Y-100308776D01*
X89685912Y-100214776D01*
X89781700Y-100072868D01*
X89815365Y-99905000D01*
X89815365Y-98355000D01*
X89783776Y-98192186D01*
X89689776Y-98049088D01*
X89547868Y-97953300D01*
X89380000Y-97919635D01*
X87737057Y-97919635D01*
X87670895Y-97853473D01*
X90825000Y-97853473D01*
X90825000Y-101174250D01*
X90933750Y-101283000D01*
X94598000Y-101283000D01*
X94598000Y-97613750D01*
X94489250Y-97505000D01*
X91173473Y-97505000D01*
X91013592Y-97571225D01*
X90891225Y-97693592D01*
X90825000Y-97853473D01*
X87670895Y-97853473D01*
X87548711Y-97731289D01*
X87501884Y-97700000D01*
X87329077Y-97584534D01*
X87070000Y-97533000D01*
X84881711Y-97533000D01*
X84840000Y-97524635D01*
X83940000Y-97524635D01*
X83896886Y-97533000D01*
X82666711Y-97533000D01*
X82625000Y-97524635D01*
X81395000Y-97524635D01*
X81232186Y-97556224D01*
X81089088Y-97650224D01*
X80993300Y-97792132D01*
X80962564Y-97945394D01*
X80880299Y-97746297D01*
X80654890Y-97520494D01*
X80360228Y-97398140D01*
X80041172Y-97397861D01*
X79746297Y-97519701D01*
X79520494Y-97745110D01*
X79398140Y-98039772D01*
X79398136Y-98044442D01*
X78628563Y-98814015D01*
X77599160Y-98814015D01*
X77436346Y-98845604D01*
X77293248Y-98939604D01*
X77197460Y-99081512D01*
X77163795Y-99249380D01*
X77163795Y-100906521D01*
X77102000Y-100844618D01*
X77102000Y-98900000D01*
X77096860Y-98874160D01*
X77063788Y-98707892D01*
X77002537Y-98616224D01*
X76954968Y-98545032D01*
X76954965Y-98545030D01*
X76604728Y-98194792D01*
X75754968Y-97345032D01*
X75592107Y-97236212D01*
X75400000Y-97197999D01*
X75399995Y-97198000D01*
X71955463Y-97198000D01*
X71883990Y-97126402D01*
X71635254Y-97023118D01*
X71365927Y-97022883D01*
X71117011Y-97125733D01*
X70926402Y-97316010D01*
X70823118Y-97564746D01*
X70822883Y-97834073D01*
X70925733Y-98082989D01*
X71116010Y-98273598D01*
X71199378Y-98308215D01*
X71190924Y-98350370D01*
X71190924Y-98699805D01*
X71007892Y-98736212D01*
X70957661Y-98769776D01*
X70845032Y-98845032D01*
X70845030Y-98845035D01*
X70835172Y-98854892D01*
X70803301Y-98777948D01*
X70809076Y-98749150D01*
X70809076Y-98350370D01*
X70781185Y-98206621D01*
X70698192Y-98080279D01*
X70572902Y-97995707D01*
X70424690Y-97965984D01*
X69675390Y-97965984D01*
X69531641Y-97993875D01*
X69405299Y-98076868D01*
X69320727Y-98202158D01*
X69291004Y-98350370D01*
X69291004Y-98749150D01*
X69296651Y-98778256D01*
X69240390Y-98914083D01*
X69240390Y-99064250D01*
X69349140Y-99173000D01*
X70023040Y-99173000D01*
X70023040Y-99153000D01*
X70077040Y-99153000D01*
X70077040Y-99173000D01*
X70097040Y-99173000D01*
X70097040Y-99227000D01*
X70077040Y-99227000D01*
X70077040Y-99247000D01*
X70023040Y-99247000D01*
X70023040Y-99227000D01*
X69349140Y-99227000D01*
X69347809Y-99228331D01*
X69335254Y-99223118D01*
X69065927Y-99222883D01*
X68817011Y-99325733D01*
X68626402Y-99516010D01*
X68523118Y-99764746D01*
X68523079Y-99810000D01*
X67564386Y-99810000D01*
X67564386Y-99423000D01*
X67536495Y-99279251D01*
X67453502Y-99152909D01*
X67328212Y-99068337D01*
X67180000Y-99038614D01*
X62665256Y-99038614D01*
X63801932Y-97901937D01*
X63801935Y-97901935D01*
X64776870Y-96927000D01*
X105423130Y-96927000D01*
X107434745Y-98938614D01*
G36*
X78827000Y-104473000D02*
X78847000Y-104473000D01*
X78847000Y-104527000D01*
X78827000Y-104527000D01*
X78827000Y-104547000D01*
X78773000Y-104547000D01*
X78773000Y-104527000D01*
X78753000Y-104527000D01*
X78753000Y-104473000D01*
X78773000Y-104473000D01*
X78773000Y-104453000D01*
X78827000Y-104453000D01*
X78827000Y-104473000D01*
X78827000Y-104473000D01*
G37*
X78827000Y-104473000D02*
X78847000Y-104473000D01*
X78847000Y-104527000D01*
X78827000Y-104527000D01*
X78827000Y-104547000D01*
X78773000Y-104547000D01*
X78773000Y-104527000D01*
X78753000Y-104527000D01*
X78753000Y-104473000D01*
X78773000Y-104473000D01*
X78773000Y-104453000D01*
X78827000Y-104453000D01*
X78827000Y-104473000D01*
G36*
X85277000Y-104373000D02*
X85297000Y-104373000D01*
X85297000Y-104427000D01*
X85277000Y-104427000D01*
X85277000Y-104447000D01*
X85223000Y-104447000D01*
X85223000Y-104427000D01*
X85203000Y-104427000D01*
X85203000Y-104373000D01*
X85223000Y-104373000D01*
X85223000Y-104353000D01*
X85277000Y-104353000D01*
X85277000Y-104373000D01*
X85277000Y-104373000D01*
G37*
X85277000Y-104373000D02*
X85297000Y-104373000D01*
X85297000Y-104427000D01*
X85277000Y-104427000D01*
X85277000Y-104447000D01*
X85223000Y-104447000D01*
X85223000Y-104427000D01*
X85203000Y-104427000D01*
X85203000Y-104373000D01*
X85223000Y-104373000D01*
X85223000Y-104353000D01*
X85277000Y-104353000D01*
X85277000Y-104373000D01*
G36*
X75804444Y-98814380D02*
X74686910Y-98814380D01*
X74578160Y-98923130D01*
X74578160Y-100373000D01*
X74598160Y-100373000D01*
X74598160Y-100427000D01*
X74578160Y-100427000D01*
X74578160Y-101876870D01*
X74686910Y-101985620D01*
X75887367Y-101985620D01*
X76047248Y-101919395D01*
X76154581Y-101812062D01*
X76216010Y-101873598D01*
X76358608Y-101932810D01*
X75026783Y-103264635D01*
X74872058Y-103264635D01*
X74428711Y-102821289D01*
X74416027Y-102812814D01*
X74209077Y-102674534D01*
X73950000Y-102623000D01*
X72435000Y-102623000D01*
X72435000Y-102335750D01*
X72326250Y-102227000D01*
X71777000Y-102227000D01*
X71777000Y-102247000D01*
X71723000Y-102247000D01*
X71723000Y-102227000D01*
X71703000Y-102227000D01*
X71703000Y-102173000D01*
X71723000Y-102173000D01*
X71723000Y-102153000D01*
X71777000Y-102153000D01*
X71777000Y-102173000D01*
X72326250Y-102173000D01*
X72435000Y-102064250D01*
X72435000Y-101663473D01*
X72368775Y-101503592D01*
X72261288Y-101396105D01*
X72364033Y-101293539D01*
X72564746Y-101376882D01*
X72834073Y-101377117D01*
X72866480Y-101363727D01*
X72866480Y-101637147D01*
X72932705Y-101797028D01*
X73055072Y-101919395D01*
X73214953Y-101985620D01*
X74415410Y-101985620D01*
X74524160Y-101876870D01*
X74524160Y-100427000D01*
X74504160Y-100427000D01*
X74504160Y-100373000D01*
X74524160Y-100373000D01*
X74524160Y-98923130D01*
X74415410Y-98814380D01*
X73214953Y-98814380D01*
X73055072Y-98880605D01*
X73022806Y-98912871D01*
X72954968Y-98845032D01*
X72792107Y-98736212D01*
X72708996Y-98719680D01*
X72708996Y-98350370D01*
X72681105Y-98206621D01*
X72678070Y-98202000D01*
X75192064Y-98202000D01*
X75804444Y-98814380D01*
X75804444Y-98814380D01*
G37*
X75804444Y-98814380D02*
X74686910Y-98814380D01*
X74578160Y-98923130D01*
X74578160Y-100373000D01*
X74598160Y-100373000D01*
X74598160Y-100427000D01*
X74578160Y-100427000D01*
X74578160Y-101876870D01*
X74686910Y-101985620D01*
X75887367Y-101985620D01*
X76047248Y-101919395D01*
X76154581Y-101812062D01*
X76216010Y-101873598D01*
X76358608Y-101932810D01*
X75026783Y-103264635D01*
X74872058Y-103264635D01*
X74428711Y-102821289D01*
X74416027Y-102812814D01*
X74209077Y-102674534D01*
X73950000Y-102623000D01*
X72435000Y-102623000D01*
X72435000Y-102335750D01*
X72326250Y-102227000D01*
X71777000Y-102227000D01*
X71777000Y-102247000D01*
X71723000Y-102247000D01*
X71723000Y-102227000D01*
X71703000Y-102227000D01*
X71703000Y-102173000D01*
X71723000Y-102173000D01*
X71723000Y-102153000D01*
X71777000Y-102153000D01*
X71777000Y-102173000D01*
X72326250Y-102173000D01*
X72435000Y-102064250D01*
X72435000Y-101663473D01*
X72368775Y-101503592D01*
X72261288Y-101396105D01*
X72364033Y-101293539D01*
X72564746Y-101376882D01*
X72834073Y-101377117D01*
X72866480Y-101363727D01*
X72866480Y-101637147D01*
X72932705Y-101797028D01*
X73055072Y-101919395D01*
X73214953Y-101985620D01*
X74415410Y-101985620D01*
X74524160Y-101876870D01*
X74524160Y-100427000D01*
X74504160Y-100427000D01*
X74504160Y-100373000D01*
X74524160Y-100373000D01*
X74524160Y-98923130D01*
X74415410Y-98814380D01*
X73214953Y-98814380D01*
X73055072Y-98880605D01*
X73022806Y-98912871D01*
X72954968Y-98845032D01*
X72792107Y-98736212D01*
X72708996Y-98719680D01*
X72708996Y-98350370D01*
X72681105Y-98206621D01*
X72678070Y-98202000D01*
X75192064Y-98202000D01*
X75804444Y-98814380D01*
M02*
