G04 #@! TF.FileFunction,Legend,Bot*
%FSLAX46Y46*%
G04 Gerber Fmt 4.6, Leading zero omitted, Abs format (unit mm)*
G04 Created by KiCad (PCBNEW (2015-07-11 BZR 5925, Git c291b88)-product) date 8/6/2015 4:30:13 PM*
%MOMM*%
G01*
G04 APERTURE LIST*
%ADD10C,0.100000*%
%ADD11C,0.300000*%
G04 APERTURE END LIST*
D10*
D11*
X95142856Y-102635714D02*
X95214285Y-102707143D01*
X95428571Y-102778571D01*
X95571428Y-102778571D01*
X95785713Y-102707143D01*
X95928571Y-102564286D01*
X95999999Y-102421429D01*
X96071428Y-102135714D01*
X96071428Y-101921429D01*
X95999999Y-101635714D01*
X95928571Y-101492857D01*
X95785713Y-101350000D01*
X95571428Y-101278571D01*
X95428571Y-101278571D01*
X95214285Y-101350000D01*
X95142856Y-101421429D01*
X94571428Y-102350000D02*
X93857142Y-102350000D01*
X94714285Y-102778571D02*
X94214285Y-101278571D01*
X93714285Y-102778571D01*
X93214285Y-102778571D02*
X93214285Y-101278571D01*
X92357142Y-102778571D01*
X92357142Y-101278571D01*
X91142856Y-101992857D02*
X90928570Y-102064286D01*
X90857142Y-102135714D01*
X90785713Y-102278571D01*
X90785713Y-102492857D01*
X90857142Y-102635714D01*
X90928570Y-102707143D01*
X91071428Y-102778571D01*
X91642856Y-102778571D01*
X91642856Y-101278571D01*
X91142856Y-101278571D01*
X90999999Y-101350000D01*
X90928570Y-101421429D01*
X90857142Y-101564286D01*
X90857142Y-101707143D01*
X90928570Y-101850000D01*
X90999999Y-101921429D01*
X91142856Y-101992857D01*
X91642856Y-101992857D01*
X90142856Y-101278571D02*
X90142856Y-102492857D01*
X90071428Y-102635714D01*
X89999999Y-102707143D01*
X89857142Y-102778571D01*
X89571428Y-102778571D01*
X89428570Y-102707143D01*
X89357142Y-102635714D01*
X89285713Y-102492857D01*
X89285713Y-101278571D01*
X88642856Y-102707143D02*
X88428570Y-102778571D01*
X88071427Y-102778571D01*
X87928570Y-102707143D01*
X87857141Y-102635714D01*
X87785713Y-102492857D01*
X87785713Y-102350000D01*
X87857141Y-102207143D01*
X87928570Y-102135714D01*
X88071427Y-102064286D01*
X88357141Y-101992857D01*
X88499999Y-101921429D01*
X88571427Y-101850000D01*
X88642856Y-101707143D01*
X88642856Y-101564286D01*
X88571427Y-101421429D01*
X88499999Y-101350000D01*
X88357141Y-101278571D01*
X87999999Y-101278571D01*
X87785713Y-101350000D01*
X85499999Y-101992857D02*
X85999999Y-101992857D01*
X85999999Y-102778571D02*
X85999999Y-101278571D01*
X85285713Y-101278571D01*
X84714285Y-102778571D02*
X84714285Y-101778571D01*
X84714285Y-101278571D02*
X84785714Y-101350000D01*
X84714285Y-101421429D01*
X84642857Y-101350000D01*
X84714285Y-101278571D01*
X84714285Y-101421429D01*
X83999999Y-102778571D02*
X83999999Y-101778571D01*
X83999999Y-102064286D02*
X83928571Y-101921429D01*
X83857142Y-101850000D01*
X83714285Y-101778571D01*
X83571428Y-101778571D01*
X82500000Y-102707143D02*
X82642857Y-102778571D01*
X82928571Y-102778571D01*
X83071428Y-102707143D01*
X83142857Y-102564286D01*
X83142857Y-101992857D01*
X83071428Y-101850000D01*
X82928571Y-101778571D01*
X82642857Y-101778571D01*
X82500000Y-101850000D01*
X82428571Y-101992857D01*
X82428571Y-102135714D01*
X83142857Y-102278571D01*
X81928571Y-101778571D02*
X81642857Y-102778571D01*
X81357143Y-102064286D01*
X81071428Y-102778571D01*
X80785714Y-101778571D01*
X79571428Y-102778571D02*
X79571428Y-101992857D01*
X79642857Y-101850000D01*
X79785714Y-101778571D01*
X80071428Y-101778571D01*
X80214285Y-101850000D01*
X79571428Y-102707143D02*
X79714285Y-102778571D01*
X80071428Y-102778571D01*
X80214285Y-102707143D01*
X80285714Y-102564286D01*
X80285714Y-102421429D01*
X80214285Y-102278571D01*
X80071428Y-102207143D01*
X79714285Y-102207143D01*
X79571428Y-102135714D01*
X78642856Y-102778571D02*
X78785714Y-102707143D01*
X78857142Y-102564286D01*
X78857142Y-101278571D01*
X77857142Y-102778571D02*
X78000000Y-102707143D01*
X78071428Y-102564286D01*
X78071428Y-101278571D01*
X76357143Y-101278571D02*
X75857143Y-102778571D01*
X75357143Y-101278571D01*
X74071429Y-102778571D02*
X74928572Y-102778571D01*
X74500000Y-102778571D02*
X74500000Y-101278571D01*
X74642857Y-101492857D01*
X74785715Y-101635714D01*
X74928572Y-101707143D01*
X73428572Y-102635714D02*
X73357144Y-102707143D01*
X73428572Y-102778571D01*
X73500001Y-102707143D01*
X73428572Y-102635714D01*
X73428572Y-102778571D01*
X72428572Y-101278571D02*
X72285715Y-101278571D01*
X72142858Y-101350000D01*
X72071429Y-101421429D01*
X72000000Y-101564286D01*
X71928572Y-101850000D01*
X71928572Y-102207143D01*
X72000000Y-102492857D01*
X72071429Y-102635714D01*
X72142858Y-102707143D01*
X72285715Y-102778571D01*
X72428572Y-102778571D01*
X72571429Y-102707143D01*
X72642858Y-102635714D01*
X72714286Y-102492857D01*
X72785715Y-102207143D01*
X72785715Y-101850000D01*
X72714286Y-101564286D01*
X72642858Y-101421429D01*
X72571429Y-101350000D01*
X72428572Y-101278571D01*
X96857142Y-103678571D02*
X96571428Y-103678571D01*
X96428570Y-103750000D01*
X96285713Y-103892857D01*
X96214285Y-104178571D01*
X96214285Y-104678571D01*
X96285713Y-104964286D01*
X96428570Y-105107143D01*
X96571428Y-105178571D01*
X96857142Y-105178571D01*
X96999999Y-105107143D01*
X97142856Y-104964286D01*
X97214285Y-104678571D01*
X97214285Y-104178571D01*
X97142856Y-103892857D01*
X96999999Y-103750000D01*
X96857142Y-103678571D01*
X95571427Y-104178571D02*
X95571427Y-105678571D01*
X95571427Y-104250000D02*
X95428570Y-104178571D01*
X95142856Y-104178571D01*
X94999999Y-104250000D01*
X94928570Y-104321429D01*
X94857141Y-104464286D01*
X94857141Y-104892857D01*
X94928570Y-105035714D01*
X94999999Y-105107143D01*
X95142856Y-105178571D01*
X95428570Y-105178571D01*
X95571427Y-105107143D01*
X93642856Y-105107143D02*
X93785713Y-105178571D01*
X94071427Y-105178571D01*
X94214284Y-105107143D01*
X94285713Y-104964286D01*
X94285713Y-104392857D01*
X94214284Y-104250000D01*
X94071427Y-104178571D01*
X93785713Y-104178571D01*
X93642856Y-104250000D01*
X93571427Y-104392857D01*
X93571427Y-104535714D01*
X94285713Y-104678571D01*
X92928570Y-104178571D02*
X92928570Y-105178571D01*
X92928570Y-104321429D02*
X92857142Y-104250000D01*
X92714284Y-104178571D01*
X92499999Y-104178571D01*
X92357142Y-104250000D01*
X92285713Y-104392857D01*
X92285713Y-105178571D01*
X90499999Y-105107143D02*
X90285713Y-105178571D01*
X89928570Y-105178571D01*
X89785713Y-105107143D01*
X89714284Y-105035714D01*
X89642856Y-104892857D01*
X89642856Y-104750000D01*
X89714284Y-104607143D01*
X89785713Y-104535714D01*
X89928570Y-104464286D01*
X90214284Y-104392857D01*
X90357142Y-104321429D01*
X90428570Y-104250000D01*
X90499999Y-104107143D01*
X90499999Y-103964286D01*
X90428570Y-103821429D01*
X90357142Y-103750000D01*
X90214284Y-103678571D01*
X89857142Y-103678571D01*
X89642856Y-103750000D01*
X88785713Y-105178571D02*
X88928571Y-105107143D01*
X88999999Y-105035714D01*
X89071428Y-104892857D01*
X89071428Y-104464286D01*
X88999999Y-104321429D01*
X88928571Y-104250000D01*
X88785713Y-104178571D01*
X88571428Y-104178571D01*
X88428571Y-104250000D01*
X88357142Y-104321429D01*
X88285713Y-104464286D01*
X88285713Y-104892857D01*
X88357142Y-105035714D01*
X88428571Y-105107143D01*
X88571428Y-105178571D01*
X88785713Y-105178571D01*
X86999999Y-104178571D02*
X86999999Y-105178571D01*
X87642856Y-104178571D02*
X87642856Y-104964286D01*
X87571428Y-105107143D01*
X87428570Y-105178571D01*
X87214285Y-105178571D01*
X87071428Y-105107143D01*
X86999999Y-105035714D01*
X86285713Y-105178571D02*
X86285713Y-104178571D01*
X86285713Y-104464286D02*
X86214285Y-104321429D01*
X86142856Y-104250000D01*
X85999999Y-104178571D01*
X85857142Y-104178571D01*
X84714285Y-105107143D02*
X84857142Y-105178571D01*
X85142856Y-105178571D01*
X85285714Y-105107143D01*
X85357142Y-105035714D01*
X85428571Y-104892857D01*
X85428571Y-104464286D01*
X85357142Y-104321429D01*
X85285714Y-104250000D01*
X85142856Y-104178571D01*
X84857142Y-104178571D01*
X84714285Y-104250000D01*
X83500000Y-105107143D02*
X83642857Y-105178571D01*
X83928571Y-105178571D01*
X84071428Y-105107143D01*
X84142857Y-104964286D01*
X84142857Y-104392857D01*
X84071428Y-104250000D01*
X83928571Y-104178571D01*
X83642857Y-104178571D01*
X83500000Y-104250000D01*
X83428571Y-104392857D01*
X83428571Y-104535714D01*
X84142857Y-104678571D01*
X81642857Y-105178571D02*
X81642857Y-103678571D01*
X81642857Y-104392857D02*
X80785714Y-104392857D01*
X80785714Y-105178571D02*
X80785714Y-103678571D01*
X79428571Y-105178571D02*
X79428571Y-104392857D01*
X79500000Y-104250000D01*
X79642857Y-104178571D01*
X79928571Y-104178571D01*
X80071428Y-104250000D01*
X79428571Y-105107143D02*
X79571428Y-105178571D01*
X79928571Y-105178571D01*
X80071428Y-105107143D01*
X80142857Y-104964286D01*
X80142857Y-104821429D01*
X80071428Y-104678571D01*
X79928571Y-104607143D01*
X79571428Y-104607143D01*
X79428571Y-104535714D01*
X78714285Y-105178571D02*
X78714285Y-104178571D01*
X78714285Y-104464286D02*
X78642857Y-104321429D01*
X78571428Y-104250000D01*
X78428571Y-104178571D01*
X78285714Y-104178571D01*
X77142857Y-105178571D02*
X77142857Y-103678571D01*
X77142857Y-105107143D02*
X77285714Y-105178571D01*
X77571428Y-105178571D01*
X77714286Y-105107143D01*
X77785714Y-105035714D01*
X77857143Y-104892857D01*
X77857143Y-104464286D01*
X77785714Y-104321429D01*
X77714286Y-104250000D01*
X77571428Y-104178571D01*
X77285714Y-104178571D01*
X77142857Y-104250000D01*
X76571428Y-104178571D02*
X76285714Y-105178571D01*
X76000000Y-104464286D01*
X75714285Y-105178571D01*
X75428571Y-104178571D01*
X74214285Y-105178571D02*
X74214285Y-104392857D01*
X74285714Y-104250000D01*
X74428571Y-104178571D01*
X74714285Y-104178571D01*
X74857142Y-104250000D01*
X74214285Y-105107143D02*
X74357142Y-105178571D01*
X74714285Y-105178571D01*
X74857142Y-105107143D01*
X74928571Y-104964286D01*
X74928571Y-104821429D01*
X74857142Y-104678571D01*
X74714285Y-104607143D01*
X74357142Y-104607143D01*
X74214285Y-104535714D01*
X73499999Y-105178571D02*
X73499999Y-104178571D01*
X73499999Y-104464286D02*
X73428571Y-104321429D01*
X73357142Y-104250000D01*
X73214285Y-104178571D01*
X73071428Y-104178571D01*
X72000000Y-105107143D02*
X72142857Y-105178571D01*
X72428571Y-105178571D01*
X72571428Y-105107143D01*
X72642857Y-104964286D01*
X72642857Y-104392857D01*
X72571428Y-104250000D01*
X72428571Y-104178571D01*
X72142857Y-104178571D01*
X72000000Y-104250000D01*
X71928571Y-104392857D01*
X71928571Y-104535714D01*
X72642857Y-104678571D01*
X97250000Y-106078571D02*
X97250000Y-107150000D01*
X97321428Y-107364286D01*
X97464285Y-107507143D01*
X97678571Y-107578571D01*
X97821428Y-107578571D01*
X95892857Y-107578571D02*
X95892857Y-106792857D01*
X95964286Y-106650000D01*
X96107143Y-106578571D01*
X96392857Y-106578571D01*
X96535714Y-106650000D01*
X95892857Y-107507143D02*
X96035714Y-107578571D01*
X96392857Y-107578571D01*
X96535714Y-107507143D01*
X96607143Y-107364286D01*
X96607143Y-107221429D01*
X96535714Y-107078571D01*
X96392857Y-107007143D01*
X96035714Y-107007143D01*
X95892857Y-106935714D01*
X94535714Y-106578571D02*
X94535714Y-107792857D01*
X94607143Y-107935714D01*
X94678571Y-108007143D01*
X94821428Y-108078571D01*
X95035714Y-108078571D01*
X95178571Y-108007143D01*
X94535714Y-107507143D02*
X94678571Y-107578571D01*
X94964285Y-107578571D01*
X95107143Y-107507143D01*
X95178571Y-107435714D01*
X95250000Y-107292857D01*
X95250000Y-106864286D01*
X95178571Y-106721429D01*
X95107143Y-106650000D01*
X94964285Y-106578571D01*
X94678571Y-106578571D01*
X94535714Y-106650000D01*
X93178571Y-106578571D02*
X93178571Y-107578571D01*
X93821428Y-106578571D02*
X93821428Y-107364286D01*
X93750000Y-107507143D01*
X93607142Y-107578571D01*
X93392857Y-107578571D01*
X93250000Y-107507143D01*
X93178571Y-107435714D01*
X91821428Y-107578571D02*
X91821428Y-106792857D01*
X91892857Y-106650000D01*
X92035714Y-106578571D01*
X92321428Y-106578571D01*
X92464285Y-106650000D01*
X91821428Y-107507143D02*
X91964285Y-107578571D01*
X92321428Y-107578571D01*
X92464285Y-107507143D01*
X92535714Y-107364286D01*
X92535714Y-107221429D01*
X92464285Y-107078571D01*
X92321428Y-107007143D01*
X91964285Y-107007143D01*
X91821428Y-106935714D01*
X91107142Y-107578571D02*
X91107142Y-106578571D01*
X91107142Y-106864286D02*
X91035714Y-106721429D01*
X90964285Y-106650000D01*
X90821428Y-106578571D01*
X90678571Y-106578571D01*
X88321428Y-107578571D02*
X89035714Y-107578571D01*
X89035714Y-106078571D01*
X87178571Y-107578571D02*
X87178571Y-106792857D01*
X87250000Y-106650000D01*
X87392857Y-106578571D01*
X87678571Y-106578571D01*
X87821428Y-106650000D01*
X87178571Y-107507143D02*
X87321428Y-107578571D01*
X87678571Y-107578571D01*
X87821428Y-107507143D01*
X87892857Y-107364286D01*
X87892857Y-107221429D01*
X87821428Y-107078571D01*
X87678571Y-107007143D01*
X87321428Y-107007143D01*
X87178571Y-106935714D01*
X86464285Y-106578571D02*
X86464285Y-107578571D01*
X86464285Y-106721429D02*
X86392857Y-106650000D01*
X86249999Y-106578571D01*
X86035714Y-106578571D01*
X85892857Y-106650000D01*
X85821428Y-106792857D01*
X85821428Y-107578571D01*
X84464285Y-107578571D02*
X84464285Y-106078571D01*
X84464285Y-107507143D02*
X84607142Y-107578571D01*
X84892856Y-107578571D01*
X85035714Y-107507143D01*
X85107142Y-107435714D01*
X85178571Y-107292857D01*
X85178571Y-106864286D01*
X85107142Y-106721429D01*
X85035714Y-106650000D01*
X84892856Y-106578571D01*
X84607142Y-106578571D01*
X84464285Y-106650000D01*
X81749999Y-107578571D02*
X82249999Y-106864286D01*
X82607142Y-107578571D02*
X82607142Y-106078571D01*
X82035714Y-106078571D01*
X81892856Y-106150000D01*
X81821428Y-106221429D01*
X81749999Y-106364286D01*
X81749999Y-106578571D01*
X81821428Y-106721429D01*
X81892856Y-106792857D01*
X82035714Y-106864286D01*
X82607142Y-106864286D01*
X80892856Y-107578571D02*
X81035714Y-107507143D01*
X81107142Y-107435714D01*
X81178571Y-107292857D01*
X81178571Y-106864286D01*
X81107142Y-106721429D01*
X81035714Y-106650000D01*
X80892856Y-106578571D01*
X80678571Y-106578571D01*
X80535714Y-106650000D01*
X80464285Y-106721429D01*
X80392856Y-106864286D01*
X80392856Y-107292857D01*
X80464285Y-107435714D01*
X80535714Y-107507143D01*
X80678571Y-107578571D01*
X80892856Y-107578571D01*
X79892856Y-106578571D02*
X79535713Y-107578571D01*
X79178571Y-106578571D01*
X78035714Y-107507143D02*
X78178571Y-107578571D01*
X78464285Y-107578571D01*
X78607142Y-107507143D01*
X78678571Y-107364286D01*
X78678571Y-106792857D01*
X78607142Y-106650000D01*
X78464285Y-106578571D01*
X78178571Y-106578571D01*
X78035714Y-106650000D01*
X77964285Y-106792857D01*
X77964285Y-106935714D01*
X78678571Y-107078571D01*
X77321428Y-107578571D02*
X77321428Y-106578571D01*
X77321428Y-106864286D02*
X77250000Y-106721429D01*
X77178571Y-106650000D01*
X77035714Y-106578571D01*
X76892857Y-106578571D01*
X74964286Y-106078571D02*
X74678572Y-106078571D01*
X74535714Y-106150000D01*
X74392857Y-106292857D01*
X74321429Y-106578571D01*
X74321429Y-107078571D01*
X74392857Y-107364286D01*
X74535714Y-107507143D01*
X74678572Y-107578571D01*
X74964286Y-107578571D01*
X75107143Y-107507143D01*
X75250000Y-107364286D01*
X75321429Y-107078571D01*
X75321429Y-106578571D01*
X75250000Y-106292857D01*
X75107143Y-106150000D01*
X74964286Y-106078571D01*
X73750000Y-107507143D02*
X73535714Y-107578571D01*
X73178571Y-107578571D01*
X73035714Y-107507143D01*
X72964285Y-107435714D01*
X72892857Y-107292857D01*
X72892857Y-107150000D01*
X72964285Y-107007143D01*
X73035714Y-106935714D01*
X73178571Y-106864286D01*
X73464285Y-106792857D01*
X73607143Y-106721429D01*
X73678571Y-106650000D01*
X73750000Y-106507143D01*
X73750000Y-106364286D01*
X73678571Y-106221429D01*
X73607143Y-106150000D01*
X73464285Y-106078571D01*
X73107143Y-106078571D01*
X72892857Y-106150000D01*
X72464286Y-106078571D02*
X71607143Y-106078571D01*
X72035714Y-107578571D02*
X72035714Y-106078571D01*
X70250000Y-107435714D02*
X70321429Y-107507143D01*
X70535715Y-107578571D01*
X70678572Y-107578571D01*
X70892857Y-107507143D01*
X71035715Y-107364286D01*
X71107143Y-107221429D01*
X71178572Y-106935714D01*
X71178572Y-106721429D01*
X71107143Y-106435714D01*
X71035715Y-106292857D01*
X70892857Y-106150000D01*
X70678572Y-106078571D01*
X70535715Y-106078571D01*
X70321429Y-106150000D01*
X70250000Y-106221429D01*
X93607142Y-108478571D02*
X93607142Y-109550000D01*
X93678570Y-109764286D01*
X93821427Y-109907143D01*
X94035713Y-109978571D01*
X94178570Y-109978571D01*
X92321428Y-109907143D02*
X92464285Y-109978571D01*
X92749999Y-109978571D01*
X92892856Y-109907143D01*
X92964285Y-109764286D01*
X92964285Y-109192857D01*
X92892856Y-109050000D01*
X92749999Y-108978571D01*
X92464285Y-108978571D01*
X92321428Y-109050000D01*
X92249999Y-109192857D01*
X92249999Y-109335714D01*
X92964285Y-109478571D01*
X91678571Y-109907143D02*
X91535714Y-109978571D01*
X91249999Y-109978571D01*
X91107142Y-109907143D01*
X91035714Y-109764286D01*
X91035714Y-109692857D01*
X91107142Y-109550000D01*
X91249999Y-109478571D01*
X91464285Y-109478571D01*
X91607142Y-109407143D01*
X91678571Y-109264286D01*
X91678571Y-109192857D01*
X91607142Y-109050000D01*
X91464285Y-108978571D01*
X91249999Y-108978571D01*
X91107142Y-109050000D01*
X90464285Y-109907143D02*
X90321428Y-109978571D01*
X90035713Y-109978571D01*
X89892856Y-109907143D01*
X89821428Y-109764286D01*
X89821428Y-109692857D01*
X89892856Y-109550000D01*
X90035713Y-109478571D01*
X90249999Y-109478571D01*
X90392856Y-109407143D01*
X90464285Y-109264286D01*
X90464285Y-109192857D01*
X90392856Y-109050000D01*
X90249999Y-108978571D01*
X90035713Y-108978571D01*
X89892856Y-109050000D01*
X88607142Y-109907143D02*
X88749999Y-109978571D01*
X89035713Y-109978571D01*
X89178570Y-109907143D01*
X89249999Y-109764286D01*
X89249999Y-109192857D01*
X89178570Y-109050000D01*
X89035713Y-108978571D01*
X88749999Y-108978571D01*
X88607142Y-109050000D01*
X88535713Y-109192857D01*
X88535713Y-109335714D01*
X89249999Y-109478571D01*
X86249999Y-109192857D02*
X86035713Y-109264286D01*
X85964285Y-109335714D01*
X85892856Y-109478571D01*
X85892856Y-109692857D01*
X85964285Y-109835714D01*
X86035713Y-109907143D01*
X86178571Y-109978571D01*
X86749999Y-109978571D01*
X86749999Y-108478571D01*
X86249999Y-108478571D01*
X86107142Y-108550000D01*
X86035713Y-108621429D01*
X85964285Y-108764286D01*
X85964285Y-108907143D01*
X86035713Y-109050000D01*
X86107142Y-109121429D01*
X86249999Y-109192857D01*
X86749999Y-109192857D01*
X84607142Y-109978571D02*
X84607142Y-109192857D01*
X84678571Y-109050000D01*
X84821428Y-108978571D01*
X85107142Y-108978571D01*
X85249999Y-109050000D01*
X84607142Y-109907143D02*
X84749999Y-109978571D01*
X85107142Y-109978571D01*
X85249999Y-109907143D01*
X85321428Y-109764286D01*
X85321428Y-109621429D01*
X85249999Y-109478571D01*
X85107142Y-109407143D01*
X84749999Y-109407143D01*
X84607142Y-109335714D01*
X83892856Y-108978571D02*
X83892856Y-109978571D01*
X83892856Y-109121429D02*
X83821428Y-109050000D01*
X83678570Y-108978571D01*
X83464285Y-108978571D01*
X83321428Y-109050000D01*
X83249999Y-109192857D01*
X83249999Y-109978571D01*
X82535713Y-109978571D02*
X82535713Y-108478571D01*
X82392856Y-109407143D02*
X81964285Y-109978571D01*
X81964285Y-108978571D02*
X82535713Y-109550000D01*
X81392856Y-109907143D02*
X81249999Y-109978571D01*
X80964284Y-109978571D01*
X80821427Y-109907143D01*
X80749999Y-109764286D01*
X80749999Y-109692857D01*
X80821427Y-109550000D01*
X80964284Y-109478571D01*
X81178570Y-109478571D01*
X81321427Y-109407143D01*
X81392856Y-109264286D01*
X81392856Y-109192857D01*
X81321427Y-109050000D01*
X81178570Y-108978571D01*
X80964284Y-108978571D01*
X80821427Y-109050000D01*
X79035713Y-108621429D02*
X78964284Y-108550000D01*
X78821427Y-108478571D01*
X78464284Y-108478571D01*
X78321427Y-108550000D01*
X78249998Y-108621429D01*
X78178570Y-108764286D01*
X78178570Y-108907143D01*
X78249998Y-109121429D01*
X79107141Y-109978571D01*
X78178570Y-109978571D01*
X77249999Y-108478571D02*
X77107142Y-108478571D01*
X76964285Y-108550000D01*
X76892856Y-108621429D01*
X76821427Y-108764286D01*
X76749999Y-109050000D01*
X76749999Y-109407143D01*
X76821427Y-109692857D01*
X76892856Y-109835714D01*
X76964285Y-109907143D01*
X77107142Y-109978571D01*
X77249999Y-109978571D01*
X77392856Y-109907143D01*
X77464285Y-109835714D01*
X77535713Y-109692857D01*
X77607142Y-109407143D01*
X77607142Y-109050000D01*
X77535713Y-108764286D01*
X77464285Y-108621429D01*
X77392856Y-108550000D01*
X77249999Y-108478571D01*
X75321428Y-109978571D02*
X76178571Y-109978571D01*
X75749999Y-109978571D02*
X75749999Y-108478571D01*
X75892856Y-108692857D01*
X76035714Y-108835714D01*
X76178571Y-108907143D01*
X73964285Y-108478571D02*
X74678571Y-108478571D01*
X74750000Y-109192857D01*
X74678571Y-109121429D01*
X74535714Y-109050000D01*
X74178571Y-109050000D01*
X74035714Y-109121429D01*
X73964285Y-109192857D01*
X73892857Y-109335714D01*
X73892857Y-109692857D01*
X73964285Y-109835714D01*
X74035714Y-109907143D01*
X74178571Y-109978571D01*
X74535714Y-109978571D01*
X74678571Y-109907143D01*
X74750000Y-109835714D01*
M02*
