M48
;DRILL file {KiCad (2015-07-11 BZR 5925, Git c291b88)-product} date 8/6/2015 4:30:15 PM
;FORMAT={-:-/ absolute / inch / decimal}
FMAT,2
INCH,TZ
T1C0.016
T2C0.020
%
G90
G05
M72
T1
X2.5472Y-3.8583
X2.5512Y-4.4843
X2.622Y-4.4882
X2.626Y-3.8543
X2.6732Y-4.2244
X2.6811Y-4.0551
X2.685Y-4.1181
X2.685Y-4.1575
X2.6969Y-4.4213
X2.6969Y-4.4882
X2.7008Y-3.8937
X2.7047Y-4.3071
X2.7165Y-4.252
X2.7244Y-3.9331
X2.7953Y-4.3504
X2.815Y-3.8465
X2.8268Y-3.9724
X2.8346Y-4.2402
X2.8622Y-3.9646
X2.8661Y-4.1732
X2.8858Y-3.878
X2.8937Y-4.0315
X2.9055Y-4.1535
X2.9291Y-4.0315
X2.9331Y-3.878
X2.9685Y-4.0315
X2.9764Y-4.3071
X3.0157Y-3.9882
X3.0472Y-4.248
X3.063Y-4.4449
X3.0748Y-4.3819
X3.0866Y-4.2598
X3.1693Y-4.1575
X3.1772Y-4.3819
X3.1929Y-4.0984
X3.2205Y-4.3622
X3.2598Y-4.2244
X3.2795Y-3.9567
X3.2795Y-4.0039
X3.2992Y-4.1929
X3.3976Y-4.1535
X3.4077Y-4.2975
X3.4077Y-4.3482
X3.4331Y-3.9921
X3.4584Y-4.2975
X3.4584Y-4.3482
X3.4921Y-3.9921
X3.5472Y-3.9921
X3.5669Y-4.4567
X3.6024Y-4.3937
X3.6063Y-4.4291
X3.6535Y-4.4921
X3.748Y-4.2598
X3.8031Y-4.3661
X3.9016Y-4.2756
X3.9055Y-4.3346
X3.9252Y-3.9134
X3.9291Y-4.0906
X4.0236Y-4.0394
X4.0236Y-4.0748
X4.0236Y-4.1102
X4.0276Y-4.1693
X4.0276Y-4.2205
X4.0591Y-3.8504
X4.1772Y-3.874
T2
X2.752Y-4.0669
X3.1575Y-3.8661
X3.8583Y-4.1496
X3.9055Y-3.8661
T0
M30
