G04 #@! TF.FileFunction,Copper,L2,Bot,Signal*
%FSLAX46Y46*%
G04 Gerber Fmt 4.6, Leading zero omitted, Abs format (unit mm)*
G04 Created by KiCad (PCBNEW (2015-07-11 BZR 5925, Git c291b88)-product) date 8/6/2015 4:30:13 PM*
%MOMM*%
G01*
G04 APERTURE LIST*
%ADD10C,0.100000*%
%ADD11R,5.080000X1.778000*%
%ADD12C,0.600000*%
%ADD13C,0.750000*%
%ADD14C,0.250000*%
%ADD15C,0.500000*%
%ADD16C,0.254000*%
G04 APERTURE END LIST*
D10*
D11*
X64640000Y-110091000D03*
X64640000Y-107297000D03*
X64640000Y-104503000D03*
X64640000Y-101709000D03*
X105460000Y-101609000D03*
X105460000Y-104403000D03*
X105460000Y-107197000D03*
X105460000Y-109991000D03*
D12*
X106100000Y-98400000D03*
X103100000Y-97800000D03*
X99800000Y-103900000D03*
X69000000Y-108000000D03*
X68200000Y-104600000D03*
X68200000Y-105600000D03*
X68500000Y-112300000D03*
X68500000Y-114000000D03*
X66600000Y-114000000D03*
X64800000Y-113900000D03*
X102200000Y-102600000D03*
X102200000Y-103500000D03*
X102200000Y-104400000D03*
X73800000Y-105500000D03*
X77800000Y-112900000D03*
X75600000Y-109400000D03*
X81800000Y-110800000D03*
X86300000Y-105500000D03*
X64700000Y-98000000D03*
X66700000Y-97900000D03*
X68600000Y-98900000D03*
X73300000Y-98500000D03*
X74500000Y-98500000D03*
X87200000Y-101400000D03*
X88700000Y-101400000D03*
X90100000Y-101400000D03*
X83300000Y-101700000D03*
X83300000Y-100500000D03*
X75400000Y-102400000D03*
X73500000Y-102400000D03*
X74400000Y-102400000D03*
X87843750Y-110443750D03*
X86556250Y-110443750D03*
X87843750Y-109156250D03*
X86556250Y-109156250D03*
X80500000Y-105600000D03*
X95200000Y-108200000D03*
X99700000Y-99400000D03*
X96600000Y-110900000D03*
D13*
X69900000Y-103300000D03*
X98000000Y-105400000D03*
X99200000Y-98200000D03*
X80200000Y-98200000D03*
D12*
X92800000Y-114100000D03*
X90600000Y-113200000D03*
X78100000Y-111300000D03*
X91600000Y-112500000D03*
X80700000Y-111300000D03*
X91500000Y-111600000D03*
X71800000Y-100900000D03*
X72000000Y-107700000D03*
X78400000Y-108200000D03*
X83800000Y-106500000D03*
X68100000Y-103000000D03*
X82800000Y-107300000D03*
X77400000Y-107900000D03*
X72800000Y-106000000D03*
X72700000Y-100700000D03*
X67900000Y-107300000D03*
X71000000Y-110500000D03*
X68700000Y-109400000D03*
X69200000Y-99900000D03*
X71500000Y-97700000D03*
X76600000Y-101300000D03*
X81100000Y-104100000D03*
X102300000Y-105900000D03*
X99200000Y-110100000D03*
X99100000Y-108600000D03*
X102300000Y-107200000D03*
D14*
X103700000Y-98400000D02*
X106100000Y-98400000D01*
X103100000Y-97800000D02*
X103700000Y-98400000D01*
X99800000Y-103900000D02*
X100000000Y-103700000D01*
X69100000Y-107900000D02*
X69400000Y-107900000D01*
X69000000Y-108000000D02*
X69100000Y-107900000D01*
X68200000Y-105600000D02*
X68200000Y-104600000D01*
X68500000Y-114000000D02*
X68500000Y-112300000D01*
X64900000Y-114000000D02*
X66600000Y-114000000D01*
X64800000Y-113900000D02*
X64900000Y-114000000D01*
X102200000Y-103500000D02*
X102200000Y-102600000D01*
X102200000Y-104400000D02*
X102100000Y-104300000D01*
X102100000Y-104300000D02*
X102100000Y-103900000D01*
X73900000Y-105600000D02*
X74500000Y-105600000D01*
X73800000Y-105500000D02*
X73900000Y-105600000D01*
X77800000Y-112900000D02*
X75600000Y-110700000D01*
X75600000Y-110700000D02*
X75600000Y-109400000D01*
X81800000Y-110800000D02*
X82400000Y-110800000D01*
X86300000Y-105500000D02*
X86800000Y-105500000D01*
X64900000Y-98200000D02*
X64900000Y-98400000D01*
X64700000Y-98000000D02*
X64900000Y-98200000D01*
X67600000Y-97900000D02*
X66700000Y-97900000D01*
X68600000Y-98900000D02*
X67600000Y-97900000D01*
X74500000Y-98500000D02*
X73300000Y-98500000D01*
X87200000Y-101400000D02*
X86700000Y-101400000D01*
X90100000Y-101400000D02*
X88700000Y-101400000D01*
X83300000Y-100500000D02*
X83300000Y-101700000D01*
X75500000Y-102300000D02*
X75700000Y-102300000D01*
X75400000Y-102400000D02*
X75500000Y-102300000D01*
X74400000Y-102400000D02*
X73500000Y-102400000D01*
X87843750Y-110443750D02*
X87800000Y-110400000D01*
X86800000Y-110400000D02*
X86600000Y-110400000D01*
X86600000Y-110400000D02*
X86556250Y-110443750D01*
X87843750Y-109156250D02*
X87800000Y-109200000D01*
X86900000Y-109000000D02*
X86712500Y-109000000D01*
X86712500Y-109000000D02*
X86556250Y-109156250D01*
X80500000Y-105600000D02*
X80500000Y-105800000D01*
X95200000Y-108200000D02*
X95700000Y-108200000D01*
X99700000Y-99400000D02*
X99600000Y-99300000D01*
X96600000Y-110900000D02*
X96600000Y-111200000D01*
D15*
X64640000Y-101709000D02*
X68309000Y-101709000D01*
X68309000Y-101709000D02*
X69900000Y-103300000D01*
X105460000Y-109991000D02*
X102591000Y-109991000D01*
X102591000Y-109991000D02*
X98000000Y-105400000D01*
X99200000Y-98200000D02*
X80200000Y-98200000D01*
D14*
X92800000Y-114100000D02*
X91900000Y-113200000D01*
X91900000Y-113200000D02*
X90600000Y-113200000D01*
X88900000Y-112300000D02*
X79100000Y-112300000D01*
X91400000Y-112300000D02*
X88900000Y-112300000D01*
X79100000Y-112300000D02*
X78100000Y-111300000D01*
X91600000Y-112500000D02*
X91400000Y-112300000D01*
X88900000Y-111800000D02*
X81200000Y-111800000D01*
X91300000Y-111800000D02*
X88900000Y-111800000D01*
X81200000Y-111800000D02*
X80700000Y-111300000D01*
X91500000Y-111600000D02*
X91300000Y-111800000D01*
X71800000Y-100900000D02*
X72100000Y-101200000D01*
X72100000Y-101200000D02*
X72100000Y-107600000D01*
X72100000Y-107600000D02*
X72000000Y-107700000D01*
X78600000Y-108000000D02*
X78400000Y-108200000D01*
X83000000Y-108000000D02*
X78600000Y-108000000D01*
X83800000Y-107200000D02*
X83000000Y-108000000D01*
X83800000Y-106500000D02*
X83800000Y-107200000D01*
X64640000Y-104503000D02*
X66597000Y-104503000D01*
X66597000Y-104503000D02*
X68100000Y-103000000D01*
X82600000Y-107500000D02*
X81600000Y-107500000D01*
X82800000Y-107300000D02*
X82600000Y-107500000D01*
X78500000Y-107500000D02*
X77800000Y-107500000D01*
X81600000Y-107500000D02*
X78500000Y-107500000D01*
X77800000Y-107500000D02*
X77400000Y-107900000D01*
X72800000Y-106000000D02*
X72700000Y-105900000D01*
X72700000Y-105900000D02*
X72700000Y-100700000D01*
X64640000Y-107297000D02*
X67897000Y-107297000D01*
X67897000Y-107297000D02*
X67900000Y-107300000D01*
X69800000Y-110500000D02*
X71000000Y-110500000D01*
X68700000Y-109400000D02*
X69800000Y-110500000D01*
X69200000Y-99900000D02*
X71400000Y-97700000D01*
X71400000Y-97700000D02*
X71500000Y-97700000D01*
X78300000Y-101300000D02*
X76600000Y-101300000D01*
X81100000Y-104100000D02*
X78300000Y-101300000D01*
X105460000Y-104403000D02*
X103797000Y-104403000D01*
X103797000Y-104403000D02*
X102300000Y-105900000D01*
X105460000Y-104403000D02*
X103197000Y-104403000D01*
X99200000Y-108700000D02*
X99200000Y-110100000D01*
X99100000Y-108600000D02*
X99200000Y-108700000D01*
X105460000Y-107197000D02*
X102303000Y-107197000D01*
X102303000Y-107197000D02*
X102300000Y-107200000D01*
D16*
G36*
X107773000Y-99276869D02*
X107773000Y-100335614D01*
X102920000Y-100335614D01*
X102776251Y-100363505D01*
X102649909Y-100446498D01*
X102565337Y-100571788D01*
X102535614Y-100720000D01*
X102535614Y-102498000D01*
X102563505Y-102641749D01*
X102646498Y-102768091D01*
X102771788Y-102852663D01*
X102920000Y-102882386D01*
X107773000Y-102882386D01*
X107773000Y-103129614D01*
X102920000Y-103129614D01*
X102776251Y-103157505D01*
X102649909Y-103240498D01*
X102565337Y-103365788D01*
X102535614Y-103514000D01*
X102535614Y-104954450D01*
X102267093Y-105222971D01*
X102165927Y-105222883D01*
X101917011Y-105325733D01*
X101726402Y-105516010D01*
X101623118Y-105764746D01*
X101622883Y-106034073D01*
X101725733Y-106282989D01*
X101916010Y-106473598D01*
X102100152Y-106550060D01*
X101917011Y-106625733D01*
X101726402Y-106816010D01*
X101623118Y-107064746D01*
X101622883Y-107334073D01*
X101725733Y-107582989D01*
X101916010Y-107773598D01*
X102164746Y-107876882D01*
X102434073Y-107877117D01*
X102535614Y-107835161D01*
X102535614Y-108086000D01*
X102563505Y-108229749D01*
X102646498Y-108356091D01*
X102771788Y-108440663D01*
X102920000Y-108470386D01*
X107773000Y-108470386D01*
X107773000Y-108666635D01*
X102920000Y-108666635D01*
X102757186Y-108698224D01*
X102614088Y-108792224D01*
X102518300Y-108934132D01*
X102513832Y-108956409D01*
X98802136Y-105244714D01*
X98802139Y-105241172D01*
X98680299Y-104946297D01*
X98454890Y-104720494D01*
X98160228Y-104598140D01*
X97841172Y-104597861D01*
X97546297Y-104719701D01*
X97320494Y-104945110D01*
X97198140Y-105239772D01*
X97197861Y-105558828D01*
X97319701Y-105853703D01*
X97545110Y-106079506D01*
X97839772Y-106201860D01*
X97844442Y-106201864D01*
X102112288Y-110469711D01*
X102222106Y-110543088D01*
X102331923Y-110616466D01*
X102484635Y-110646843D01*
X102484635Y-110880000D01*
X102516224Y-111042814D01*
X102610224Y-111185912D01*
X102752132Y-111281700D01*
X102920000Y-111315365D01*
X107773000Y-111315365D01*
X107773000Y-112323131D01*
X105598065Y-114498065D01*
X105598063Y-114498068D01*
X105223130Y-114873000D01*
X64776869Y-114873000D01*
X64401935Y-114498065D01*
X64401932Y-114498063D01*
X62327000Y-112423130D01*
X62327000Y-111434073D01*
X77422883Y-111434073D01*
X77525733Y-111682989D01*
X77716010Y-111873598D01*
X77964746Y-111976882D01*
X78067036Y-111976971D01*
X78745030Y-112654965D01*
X78745032Y-112654968D01*
X78866623Y-112736212D01*
X78907893Y-112763788D01*
X79100000Y-112802001D01*
X79100005Y-112802000D01*
X90040436Y-112802000D01*
X90026402Y-112816010D01*
X89923118Y-113064746D01*
X89922883Y-113334073D01*
X90025733Y-113582989D01*
X90216010Y-113773598D01*
X90464746Y-113876882D01*
X90734073Y-113877117D01*
X90982989Y-113774267D01*
X91055382Y-113702000D01*
X91692064Y-113702000D01*
X92122971Y-114132907D01*
X92122883Y-114234073D01*
X92225733Y-114482989D01*
X92416010Y-114673598D01*
X92664746Y-114776882D01*
X92934073Y-114777117D01*
X93182989Y-114674267D01*
X93373598Y-114483990D01*
X93476882Y-114235254D01*
X93477117Y-113965927D01*
X93374267Y-113717011D01*
X93183990Y-113526402D01*
X92935254Y-113423118D01*
X92832964Y-113423029D01*
X92254968Y-112845032D01*
X92203934Y-112810932D01*
X92276882Y-112635254D01*
X92277117Y-112365927D01*
X92174267Y-112117011D01*
X92057510Y-112000050D01*
X92073598Y-111983990D01*
X92176882Y-111735254D01*
X92177117Y-111465927D01*
X92074267Y-111217011D01*
X91883990Y-111026402D01*
X91635254Y-110923118D01*
X91365927Y-110922883D01*
X91117011Y-111025733D01*
X90926402Y-111216010D01*
X90892357Y-111298000D01*
X81407935Y-111298000D01*
X81377029Y-111267093D01*
X81377117Y-111165927D01*
X81274267Y-110917011D01*
X81083990Y-110726402D01*
X80835254Y-110623118D01*
X80565927Y-110622883D01*
X80317011Y-110725733D01*
X80126402Y-110916010D01*
X80023118Y-111164746D01*
X80022883Y-111434073D01*
X80125733Y-111682989D01*
X80240544Y-111798000D01*
X79307935Y-111798000D01*
X78777029Y-111267093D01*
X78777117Y-111165927D01*
X78674267Y-110917011D01*
X78483990Y-110726402D01*
X78235254Y-110623118D01*
X77965927Y-110622883D01*
X77717011Y-110725733D01*
X77526402Y-110916010D01*
X77423118Y-111164746D01*
X77422883Y-111434073D01*
X62327000Y-111434073D01*
X62327000Y-111364386D01*
X67180000Y-111364386D01*
X67323749Y-111336495D01*
X67450091Y-111253502D01*
X67534663Y-111128212D01*
X67564386Y-110980000D01*
X67564386Y-109534073D01*
X68022883Y-109534073D01*
X68125733Y-109782989D01*
X68316010Y-109973598D01*
X68564746Y-110076882D01*
X68667035Y-110076971D01*
X69445032Y-110854968D01*
X69607893Y-110963788D01*
X69800000Y-111002001D01*
X69800005Y-111002000D01*
X70544537Y-111002000D01*
X70616010Y-111073598D01*
X70864746Y-111176882D01*
X71134073Y-111177117D01*
X71382989Y-111074267D01*
X71573598Y-110883990D01*
X71676882Y-110635254D01*
X71677117Y-110365927D01*
X71574267Y-110117011D01*
X71383990Y-109926402D01*
X71135254Y-109823118D01*
X70865927Y-109822883D01*
X70617011Y-109925733D01*
X70544618Y-109998000D01*
X70007936Y-109998000D01*
X69377029Y-109367093D01*
X69377117Y-109265927D01*
X69274267Y-109017011D01*
X69083990Y-108826402D01*
X68835254Y-108723118D01*
X68565927Y-108722883D01*
X68317011Y-108825733D01*
X68126402Y-109016010D01*
X68023118Y-109264746D01*
X68022883Y-109534073D01*
X67564386Y-109534073D01*
X67564386Y-109202000D01*
X67536495Y-109058251D01*
X67453502Y-108931909D01*
X67328212Y-108847337D01*
X67180000Y-108817614D01*
X62327000Y-108817614D01*
X62327000Y-108570386D01*
X67180000Y-108570386D01*
X67323749Y-108542495D01*
X67450091Y-108459502D01*
X67534663Y-108334212D01*
X67564386Y-108186000D01*
X67564386Y-107893685D01*
X67764746Y-107976882D01*
X68034073Y-107977117D01*
X68282989Y-107874267D01*
X68473598Y-107683990D01*
X68576882Y-107435254D01*
X68577117Y-107165927D01*
X68474267Y-106917011D01*
X68283990Y-106726402D01*
X68035254Y-106623118D01*
X67765927Y-106622883D01*
X67564386Y-106706158D01*
X67564386Y-106408000D01*
X67536495Y-106264251D01*
X67453502Y-106137909D01*
X67328212Y-106053337D01*
X67180000Y-106023614D01*
X62327000Y-106023614D01*
X62327000Y-105776386D01*
X67180000Y-105776386D01*
X67323749Y-105748495D01*
X67450091Y-105665502D01*
X67534663Y-105540212D01*
X67564386Y-105392000D01*
X67564386Y-104245550D01*
X68132907Y-103677029D01*
X68234073Y-103677117D01*
X68482989Y-103574267D01*
X68673598Y-103383990D01*
X68776882Y-103135254D01*
X68776883Y-103134305D01*
X69097864Y-103455286D01*
X69097861Y-103458828D01*
X69219701Y-103753703D01*
X69445110Y-103979506D01*
X69739772Y-104101860D01*
X70058828Y-104102139D01*
X70353703Y-103980299D01*
X70579506Y-103754890D01*
X70701860Y-103460228D01*
X70702139Y-103141172D01*
X70580299Y-102846297D01*
X70354890Y-102620494D01*
X70060228Y-102498140D01*
X70055558Y-102498136D01*
X68787711Y-101230289D01*
X68742380Y-101200000D01*
X68568077Y-101083534D01*
X68319422Y-101034073D01*
X71122883Y-101034073D01*
X71225733Y-101282989D01*
X71416010Y-101473598D01*
X71598000Y-101549167D01*
X71598000Y-107144711D01*
X71426402Y-107316010D01*
X71323118Y-107564746D01*
X71322883Y-107834073D01*
X71425733Y-108082989D01*
X71616010Y-108273598D01*
X71864746Y-108376882D01*
X72134073Y-108377117D01*
X72382989Y-108274267D01*
X72573598Y-108083990D01*
X72594325Y-108034073D01*
X76722883Y-108034073D01*
X76825733Y-108282989D01*
X77016010Y-108473598D01*
X77264746Y-108576882D01*
X77534073Y-108577117D01*
X77781128Y-108475036D01*
X77825733Y-108582989D01*
X78016010Y-108773598D01*
X78264746Y-108876882D01*
X78534073Y-108877117D01*
X78782989Y-108774267D01*
X78823253Y-108734073D01*
X98422883Y-108734073D01*
X98525733Y-108982989D01*
X98698000Y-109155557D01*
X98698000Y-109644537D01*
X98626402Y-109716010D01*
X98523118Y-109964746D01*
X98522883Y-110234073D01*
X98625733Y-110482989D01*
X98816010Y-110673598D01*
X99064746Y-110776882D01*
X99334073Y-110777117D01*
X99582989Y-110674267D01*
X99773598Y-110483990D01*
X99876882Y-110235254D01*
X99877117Y-109965927D01*
X99774267Y-109717011D01*
X99702000Y-109644618D01*
X99702000Y-108915590D01*
X99776882Y-108735254D01*
X99777117Y-108465927D01*
X99674267Y-108217011D01*
X99483990Y-108026402D01*
X99235254Y-107923118D01*
X98965927Y-107922883D01*
X98717011Y-108025733D01*
X98526402Y-108216010D01*
X98423118Y-108464746D01*
X98422883Y-108734073D01*
X78823253Y-108734073D01*
X78973598Y-108583990D01*
X79007643Y-108502000D01*
X82999995Y-108502000D01*
X83000000Y-108502001D01*
X83192107Y-108463788D01*
X83354968Y-108354968D01*
X84154965Y-107554970D01*
X84154968Y-107554968D01*
X84263788Y-107392107D01*
X84275332Y-107334073D01*
X84302001Y-107200000D01*
X84302000Y-107199995D01*
X84302000Y-106955463D01*
X84373598Y-106883990D01*
X84476882Y-106635254D01*
X84477117Y-106365927D01*
X84374267Y-106117011D01*
X84183990Y-105926402D01*
X83935254Y-105823118D01*
X83665927Y-105822883D01*
X83417011Y-105925733D01*
X83226402Y-106116010D01*
X83123118Y-106364746D01*
X83122883Y-106634073D01*
X83156278Y-106714895D01*
X82935254Y-106623118D01*
X82665927Y-106622883D01*
X82417011Y-106725733D01*
X82226402Y-106916010D01*
X82192357Y-106998000D01*
X77800000Y-106998000D01*
X77607892Y-107036212D01*
X77542660Y-107079800D01*
X77445032Y-107145032D01*
X77445030Y-107145035D01*
X77367094Y-107222971D01*
X77265927Y-107222883D01*
X77017011Y-107325733D01*
X76826402Y-107516010D01*
X76723118Y-107764746D01*
X76722883Y-108034073D01*
X72594325Y-108034073D01*
X72676882Y-107835254D01*
X72677117Y-107565927D01*
X72602000Y-107384130D01*
X72602000Y-106650828D01*
X72664746Y-106676882D01*
X72934073Y-106677117D01*
X73182989Y-106574267D01*
X73373598Y-106383990D01*
X73476882Y-106135254D01*
X73477117Y-105865927D01*
X73374267Y-105617011D01*
X73202000Y-105444443D01*
X73202000Y-101434073D01*
X75922883Y-101434073D01*
X76025733Y-101682989D01*
X76216010Y-101873598D01*
X76464746Y-101976882D01*
X76734073Y-101977117D01*
X76982989Y-101874267D01*
X77055382Y-101802000D01*
X78092064Y-101802000D01*
X80422971Y-104132907D01*
X80422883Y-104234073D01*
X80525733Y-104482989D01*
X80716010Y-104673598D01*
X80964746Y-104776882D01*
X81234073Y-104777117D01*
X81482989Y-104674267D01*
X81673598Y-104483990D01*
X81776882Y-104235254D01*
X81777117Y-103965927D01*
X81674267Y-103717011D01*
X81483990Y-103526402D01*
X81235254Y-103423118D01*
X81132965Y-103423029D01*
X78654968Y-100945032D01*
X78492107Y-100836212D01*
X78300000Y-100797999D01*
X78299995Y-100798000D01*
X77055463Y-100798000D01*
X76983990Y-100726402D01*
X76735254Y-100623118D01*
X76465927Y-100622883D01*
X76217011Y-100725733D01*
X76026402Y-100916010D01*
X75923118Y-101164746D01*
X75922883Y-101434073D01*
X73202000Y-101434073D01*
X73202000Y-101155463D01*
X73273598Y-101083990D01*
X73376882Y-100835254D01*
X73377117Y-100565927D01*
X73274267Y-100317011D01*
X73083990Y-100126402D01*
X72835254Y-100023118D01*
X72565927Y-100022883D01*
X72317011Y-100125733D01*
X72135967Y-100306461D01*
X71935254Y-100223118D01*
X71665927Y-100222883D01*
X71417011Y-100325733D01*
X71226402Y-100516010D01*
X71123118Y-100764746D01*
X71122883Y-101034073D01*
X68319422Y-101034073D01*
X68309000Y-101032000D01*
X67615365Y-101032000D01*
X67615365Y-100820000D01*
X67583776Y-100657186D01*
X67489776Y-100514088D01*
X67347868Y-100418300D01*
X67180000Y-100384635D01*
X62327000Y-100384635D01*
X62327000Y-100034073D01*
X68522883Y-100034073D01*
X68625733Y-100282989D01*
X68816010Y-100473598D01*
X69064746Y-100576882D01*
X69334073Y-100577117D01*
X69582989Y-100474267D01*
X69773598Y-100283990D01*
X69876882Y-100035254D01*
X69876971Y-99932965D01*
X71432994Y-98376942D01*
X71634073Y-98377117D01*
X71678335Y-98358828D01*
X79397861Y-98358828D01*
X79519701Y-98653703D01*
X79745110Y-98879506D01*
X80039772Y-99001860D01*
X80358828Y-99002139D01*
X80653703Y-98880299D01*
X80657008Y-98877000D01*
X98742608Y-98877000D01*
X98745110Y-98879506D01*
X99039772Y-99001860D01*
X99358828Y-99002139D01*
X99653703Y-98880299D01*
X99879506Y-98654890D01*
X100001860Y-98360228D01*
X100002139Y-98041172D01*
X99880299Y-97746297D01*
X99654890Y-97520494D01*
X99360228Y-97398140D01*
X99041172Y-97397861D01*
X98746297Y-97519701D01*
X98742992Y-97523000D01*
X80657392Y-97523000D01*
X80654890Y-97520494D01*
X80360228Y-97398140D01*
X80041172Y-97397861D01*
X79746297Y-97519701D01*
X79520494Y-97745110D01*
X79398140Y-98039772D01*
X79397861Y-98358828D01*
X71678335Y-98358828D01*
X71882989Y-98274267D01*
X72073598Y-98083990D01*
X72176882Y-97835254D01*
X72177117Y-97565927D01*
X72074267Y-97317011D01*
X71883990Y-97126402D01*
X71635254Y-97023118D01*
X71365927Y-97022883D01*
X71117011Y-97125733D01*
X70926402Y-97316010D01*
X70823118Y-97564746D01*
X70823116Y-97566949D01*
X69167093Y-99222971D01*
X69065927Y-99222883D01*
X68817011Y-99325733D01*
X68626402Y-99516010D01*
X68523118Y-99764746D01*
X68522883Y-100034073D01*
X62327000Y-100034073D01*
X62327000Y-99376870D01*
X63801932Y-97901937D01*
X63801935Y-97901935D01*
X64776870Y-96927000D01*
X105423130Y-96927000D01*
X107773000Y-99276869D01*
X107773000Y-99276869D01*
G37*
X107773000Y-99276869D02*
X107773000Y-100335614D01*
X102920000Y-100335614D01*
X102776251Y-100363505D01*
X102649909Y-100446498D01*
X102565337Y-100571788D01*
X102535614Y-100720000D01*
X102535614Y-102498000D01*
X102563505Y-102641749D01*
X102646498Y-102768091D01*
X102771788Y-102852663D01*
X102920000Y-102882386D01*
X107773000Y-102882386D01*
X107773000Y-103129614D01*
X102920000Y-103129614D01*
X102776251Y-103157505D01*
X102649909Y-103240498D01*
X102565337Y-103365788D01*
X102535614Y-103514000D01*
X102535614Y-104954450D01*
X102267093Y-105222971D01*
X102165927Y-105222883D01*
X101917011Y-105325733D01*
X101726402Y-105516010D01*
X101623118Y-105764746D01*
X101622883Y-106034073D01*
X101725733Y-106282989D01*
X101916010Y-106473598D01*
X102100152Y-106550060D01*
X101917011Y-106625733D01*
X101726402Y-106816010D01*
X101623118Y-107064746D01*
X101622883Y-107334073D01*
X101725733Y-107582989D01*
X101916010Y-107773598D01*
X102164746Y-107876882D01*
X102434073Y-107877117D01*
X102535614Y-107835161D01*
X102535614Y-108086000D01*
X102563505Y-108229749D01*
X102646498Y-108356091D01*
X102771788Y-108440663D01*
X102920000Y-108470386D01*
X107773000Y-108470386D01*
X107773000Y-108666635D01*
X102920000Y-108666635D01*
X102757186Y-108698224D01*
X102614088Y-108792224D01*
X102518300Y-108934132D01*
X102513832Y-108956409D01*
X98802136Y-105244714D01*
X98802139Y-105241172D01*
X98680299Y-104946297D01*
X98454890Y-104720494D01*
X98160228Y-104598140D01*
X97841172Y-104597861D01*
X97546297Y-104719701D01*
X97320494Y-104945110D01*
X97198140Y-105239772D01*
X97197861Y-105558828D01*
X97319701Y-105853703D01*
X97545110Y-106079506D01*
X97839772Y-106201860D01*
X97844442Y-106201864D01*
X102112288Y-110469711D01*
X102222106Y-110543088D01*
X102331923Y-110616466D01*
X102484635Y-110646843D01*
X102484635Y-110880000D01*
X102516224Y-111042814D01*
X102610224Y-111185912D01*
X102752132Y-111281700D01*
X102920000Y-111315365D01*
X107773000Y-111315365D01*
X107773000Y-112323131D01*
X105598065Y-114498065D01*
X105598063Y-114498068D01*
X105223130Y-114873000D01*
X64776869Y-114873000D01*
X64401935Y-114498065D01*
X64401932Y-114498063D01*
X62327000Y-112423130D01*
X62327000Y-111434073D01*
X77422883Y-111434073D01*
X77525733Y-111682989D01*
X77716010Y-111873598D01*
X77964746Y-111976882D01*
X78067036Y-111976971D01*
X78745030Y-112654965D01*
X78745032Y-112654968D01*
X78866623Y-112736212D01*
X78907893Y-112763788D01*
X79100000Y-112802001D01*
X79100005Y-112802000D01*
X90040436Y-112802000D01*
X90026402Y-112816010D01*
X89923118Y-113064746D01*
X89922883Y-113334073D01*
X90025733Y-113582989D01*
X90216010Y-113773598D01*
X90464746Y-113876882D01*
X90734073Y-113877117D01*
X90982989Y-113774267D01*
X91055382Y-113702000D01*
X91692064Y-113702000D01*
X92122971Y-114132907D01*
X92122883Y-114234073D01*
X92225733Y-114482989D01*
X92416010Y-114673598D01*
X92664746Y-114776882D01*
X92934073Y-114777117D01*
X93182989Y-114674267D01*
X93373598Y-114483990D01*
X93476882Y-114235254D01*
X93477117Y-113965927D01*
X93374267Y-113717011D01*
X93183990Y-113526402D01*
X92935254Y-113423118D01*
X92832964Y-113423029D01*
X92254968Y-112845032D01*
X92203934Y-112810932D01*
X92276882Y-112635254D01*
X92277117Y-112365927D01*
X92174267Y-112117011D01*
X92057510Y-112000050D01*
X92073598Y-111983990D01*
X92176882Y-111735254D01*
X92177117Y-111465927D01*
X92074267Y-111217011D01*
X91883990Y-111026402D01*
X91635254Y-110923118D01*
X91365927Y-110922883D01*
X91117011Y-111025733D01*
X90926402Y-111216010D01*
X90892357Y-111298000D01*
X81407935Y-111298000D01*
X81377029Y-111267093D01*
X81377117Y-111165927D01*
X81274267Y-110917011D01*
X81083990Y-110726402D01*
X80835254Y-110623118D01*
X80565927Y-110622883D01*
X80317011Y-110725733D01*
X80126402Y-110916010D01*
X80023118Y-111164746D01*
X80022883Y-111434073D01*
X80125733Y-111682989D01*
X80240544Y-111798000D01*
X79307935Y-111798000D01*
X78777029Y-111267093D01*
X78777117Y-111165927D01*
X78674267Y-110917011D01*
X78483990Y-110726402D01*
X78235254Y-110623118D01*
X77965927Y-110622883D01*
X77717011Y-110725733D01*
X77526402Y-110916010D01*
X77423118Y-111164746D01*
X77422883Y-111434073D01*
X62327000Y-111434073D01*
X62327000Y-111364386D01*
X67180000Y-111364386D01*
X67323749Y-111336495D01*
X67450091Y-111253502D01*
X67534663Y-111128212D01*
X67564386Y-110980000D01*
X67564386Y-109534073D01*
X68022883Y-109534073D01*
X68125733Y-109782989D01*
X68316010Y-109973598D01*
X68564746Y-110076882D01*
X68667035Y-110076971D01*
X69445032Y-110854968D01*
X69607893Y-110963788D01*
X69800000Y-111002001D01*
X69800005Y-111002000D01*
X70544537Y-111002000D01*
X70616010Y-111073598D01*
X70864746Y-111176882D01*
X71134073Y-111177117D01*
X71382989Y-111074267D01*
X71573598Y-110883990D01*
X71676882Y-110635254D01*
X71677117Y-110365927D01*
X71574267Y-110117011D01*
X71383990Y-109926402D01*
X71135254Y-109823118D01*
X70865927Y-109822883D01*
X70617011Y-109925733D01*
X70544618Y-109998000D01*
X70007936Y-109998000D01*
X69377029Y-109367093D01*
X69377117Y-109265927D01*
X69274267Y-109017011D01*
X69083990Y-108826402D01*
X68835254Y-108723118D01*
X68565927Y-108722883D01*
X68317011Y-108825733D01*
X68126402Y-109016010D01*
X68023118Y-109264746D01*
X68022883Y-109534073D01*
X67564386Y-109534073D01*
X67564386Y-109202000D01*
X67536495Y-109058251D01*
X67453502Y-108931909D01*
X67328212Y-108847337D01*
X67180000Y-108817614D01*
X62327000Y-108817614D01*
X62327000Y-108570386D01*
X67180000Y-108570386D01*
X67323749Y-108542495D01*
X67450091Y-108459502D01*
X67534663Y-108334212D01*
X67564386Y-108186000D01*
X67564386Y-107893685D01*
X67764746Y-107976882D01*
X68034073Y-107977117D01*
X68282989Y-107874267D01*
X68473598Y-107683990D01*
X68576882Y-107435254D01*
X68577117Y-107165927D01*
X68474267Y-106917011D01*
X68283990Y-106726402D01*
X68035254Y-106623118D01*
X67765927Y-106622883D01*
X67564386Y-106706158D01*
X67564386Y-106408000D01*
X67536495Y-106264251D01*
X67453502Y-106137909D01*
X67328212Y-106053337D01*
X67180000Y-106023614D01*
X62327000Y-106023614D01*
X62327000Y-105776386D01*
X67180000Y-105776386D01*
X67323749Y-105748495D01*
X67450091Y-105665502D01*
X67534663Y-105540212D01*
X67564386Y-105392000D01*
X67564386Y-104245550D01*
X68132907Y-103677029D01*
X68234073Y-103677117D01*
X68482989Y-103574267D01*
X68673598Y-103383990D01*
X68776882Y-103135254D01*
X68776883Y-103134305D01*
X69097864Y-103455286D01*
X69097861Y-103458828D01*
X69219701Y-103753703D01*
X69445110Y-103979506D01*
X69739772Y-104101860D01*
X70058828Y-104102139D01*
X70353703Y-103980299D01*
X70579506Y-103754890D01*
X70701860Y-103460228D01*
X70702139Y-103141172D01*
X70580299Y-102846297D01*
X70354890Y-102620494D01*
X70060228Y-102498140D01*
X70055558Y-102498136D01*
X68787711Y-101230289D01*
X68742380Y-101200000D01*
X68568077Y-101083534D01*
X68319422Y-101034073D01*
X71122883Y-101034073D01*
X71225733Y-101282989D01*
X71416010Y-101473598D01*
X71598000Y-101549167D01*
X71598000Y-107144711D01*
X71426402Y-107316010D01*
X71323118Y-107564746D01*
X71322883Y-107834073D01*
X71425733Y-108082989D01*
X71616010Y-108273598D01*
X71864746Y-108376882D01*
X72134073Y-108377117D01*
X72382989Y-108274267D01*
X72573598Y-108083990D01*
X72594325Y-108034073D01*
X76722883Y-108034073D01*
X76825733Y-108282989D01*
X77016010Y-108473598D01*
X77264746Y-108576882D01*
X77534073Y-108577117D01*
X77781128Y-108475036D01*
X77825733Y-108582989D01*
X78016010Y-108773598D01*
X78264746Y-108876882D01*
X78534073Y-108877117D01*
X78782989Y-108774267D01*
X78823253Y-108734073D01*
X98422883Y-108734073D01*
X98525733Y-108982989D01*
X98698000Y-109155557D01*
X98698000Y-109644537D01*
X98626402Y-109716010D01*
X98523118Y-109964746D01*
X98522883Y-110234073D01*
X98625733Y-110482989D01*
X98816010Y-110673598D01*
X99064746Y-110776882D01*
X99334073Y-110777117D01*
X99582989Y-110674267D01*
X99773598Y-110483990D01*
X99876882Y-110235254D01*
X99877117Y-109965927D01*
X99774267Y-109717011D01*
X99702000Y-109644618D01*
X99702000Y-108915590D01*
X99776882Y-108735254D01*
X99777117Y-108465927D01*
X99674267Y-108217011D01*
X99483990Y-108026402D01*
X99235254Y-107923118D01*
X98965927Y-107922883D01*
X98717011Y-108025733D01*
X98526402Y-108216010D01*
X98423118Y-108464746D01*
X98422883Y-108734073D01*
X78823253Y-108734073D01*
X78973598Y-108583990D01*
X79007643Y-108502000D01*
X82999995Y-108502000D01*
X83000000Y-108502001D01*
X83192107Y-108463788D01*
X83354968Y-108354968D01*
X84154965Y-107554970D01*
X84154968Y-107554968D01*
X84263788Y-107392107D01*
X84275332Y-107334073D01*
X84302001Y-107200000D01*
X84302000Y-107199995D01*
X84302000Y-106955463D01*
X84373598Y-106883990D01*
X84476882Y-106635254D01*
X84477117Y-106365927D01*
X84374267Y-106117011D01*
X84183990Y-105926402D01*
X83935254Y-105823118D01*
X83665927Y-105822883D01*
X83417011Y-105925733D01*
X83226402Y-106116010D01*
X83123118Y-106364746D01*
X83122883Y-106634073D01*
X83156278Y-106714895D01*
X82935254Y-106623118D01*
X82665927Y-106622883D01*
X82417011Y-106725733D01*
X82226402Y-106916010D01*
X82192357Y-106998000D01*
X77800000Y-106998000D01*
X77607892Y-107036212D01*
X77542660Y-107079800D01*
X77445032Y-107145032D01*
X77445030Y-107145035D01*
X77367094Y-107222971D01*
X77265927Y-107222883D01*
X77017011Y-107325733D01*
X76826402Y-107516010D01*
X76723118Y-107764746D01*
X76722883Y-108034073D01*
X72594325Y-108034073D01*
X72676882Y-107835254D01*
X72677117Y-107565927D01*
X72602000Y-107384130D01*
X72602000Y-106650828D01*
X72664746Y-106676882D01*
X72934073Y-106677117D01*
X73182989Y-106574267D01*
X73373598Y-106383990D01*
X73476882Y-106135254D01*
X73477117Y-105865927D01*
X73374267Y-105617011D01*
X73202000Y-105444443D01*
X73202000Y-101434073D01*
X75922883Y-101434073D01*
X76025733Y-101682989D01*
X76216010Y-101873598D01*
X76464746Y-101976882D01*
X76734073Y-101977117D01*
X76982989Y-101874267D01*
X77055382Y-101802000D01*
X78092064Y-101802000D01*
X80422971Y-104132907D01*
X80422883Y-104234073D01*
X80525733Y-104482989D01*
X80716010Y-104673598D01*
X80964746Y-104776882D01*
X81234073Y-104777117D01*
X81482989Y-104674267D01*
X81673598Y-104483990D01*
X81776882Y-104235254D01*
X81777117Y-103965927D01*
X81674267Y-103717011D01*
X81483990Y-103526402D01*
X81235254Y-103423118D01*
X81132965Y-103423029D01*
X78654968Y-100945032D01*
X78492107Y-100836212D01*
X78300000Y-100797999D01*
X78299995Y-100798000D01*
X77055463Y-100798000D01*
X76983990Y-100726402D01*
X76735254Y-100623118D01*
X76465927Y-100622883D01*
X76217011Y-100725733D01*
X76026402Y-100916010D01*
X75923118Y-101164746D01*
X75922883Y-101434073D01*
X73202000Y-101434073D01*
X73202000Y-101155463D01*
X73273598Y-101083990D01*
X73376882Y-100835254D01*
X73377117Y-100565927D01*
X73274267Y-100317011D01*
X73083990Y-100126402D01*
X72835254Y-100023118D01*
X72565927Y-100022883D01*
X72317011Y-100125733D01*
X72135967Y-100306461D01*
X71935254Y-100223118D01*
X71665927Y-100222883D01*
X71417011Y-100325733D01*
X71226402Y-100516010D01*
X71123118Y-100764746D01*
X71122883Y-101034073D01*
X68319422Y-101034073D01*
X68309000Y-101032000D01*
X67615365Y-101032000D01*
X67615365Y-100820000D01*
X67583776Y-100657186D01*
X67489776Y-100514088D01*
X67347868Y-100418300D01*
X67180000Y-100384635D01*
X62327000Y-100384635D01*
X62327000Y-100034073D01*
X68522883Y-100034073D01*
X68625733Y-100282989D01*
X68816010Y-100473598D01*
X69064746Y-100576882D01*
X69334073Y-100577117D01*
X69582989Y-100474267D01*
X69773598Y-100283990D01*
X69876882Y-100035254D01*
X69876971Y-99932965D01*
X71432994Y-98376942D01*
X71634073Y-98377117D01*
X71678335Y-98358828D01*
X79397861Y-98358828D01*
X79519701Y-98653703D01*
X79745110Y-98879506D01*
X80039772Y-99001860D01*
X80358828Y-99002139D01*
X80653703Y-98880299D01*
X80657008Y-98877000D01*
X98742608Y-98877000D01*
X98745110Y-98879506D01*
X99039772Y-99001860D01*
X99358828Y-99002139D01*
X99653703Y-98880299D01*
X99879506Y-98654890D01*
X100001860Y-98360228D01*
X100002139Y-98041172D01*
X99880299Y-97746297D01*
X99654890Y-97520494D01*
X99360228Y-97398140D01*
X99041172Y-97397861D01*
X98746297Y-97519701D01*
X98742992Y-97523000D01*
X80657392Y-97523000D01*
X80654890Y-97520494D01*
X80360228Y-97398140D01*
X80041172Y-97397861D01*
X79746297Y-97519701D01*
X79520494Y-97745110D01*
X79398140Y-98039772D01*
X79397861Y-98358828D01*
X71678335Y-98358828D01*
X71882989Y-98274267D01*
X72073598Y-98083990D01*
X72176882Y-97835254D01*
X72177117Y-97565927D01*
X72074267Y-97317011D01*
X71883990Y-97126402D01*
X71635254Y-97023118D01*
X71365927Y-97022883D01*
X71117011Y-97125733D01*
X70926402Y-97316010D01*
X70823118Y-97564746D01*
X70823116Y-97566949D01*
X69167093Y-99222971D01*
X69065927Y-99222883D01*
X68817011Y-99325733D01*
X68626402Y-99516010D01*
X68523118Y-99764746D01*
X68522883Y-100034073D01*
X62327000Y-100034073D01*
X62327000Y-99376870D01*
X63801932Y-97901937D01*
X63801935Y-97901935D01*
X64776870Y-96927000D01*
X105423130Y-96927000D01*
X107773000Y-99276869D01*
M02*
