G04 #@! TF.FileFunction,Legend,Bot*
%FSLAX46Y46*%
G04 Gerber Fmt 4.6, Leading zero omitted, Abs format (unit mm)*
G04 Created by KiCad (PCBNEW (2015-07-11 BZR 5925, Git c291b88)-product) date 8/13/2015 4:45:21 PM*
%MOMM*%
G01*
G04 APERTURE LIST*
%ADD10C,0.100000*%
%ADD11C,0.300000*%
G04 APERTURE END LIST*
D10*
D11*
X100607142Y-118907143D02*
X99464285Y-118907143D01*
X93035714Y-118907143D02*
X91892857Y-118907143D01*
X92464286Y-119478571D02*
X92464286Y-118335714D01*
X97178571Y-121878571D02*
X98035714Y-121878571D01*
X97607142Y-121878571D02*
X97607142Y-120378571D01*
X97749999Y-120592857D01*
X97892857Y-120735714D01*
X98035714Y-120807143D01*
X96607143Y-120521429D02*
X96535714Y-120450000D01*
X96392857Y-120378571D01*
X96035714Y-120378571D01*
X95892857Y-120450000D01*
X95821428Y-120521429D01*
X95750000Y-120664286D01*
X95750000Y-120807143D01*
X95821428Y-121021429D01*
X96678571Y-121878571D01*
X95750000Y-121878571D01*
X95321429Y-120378571D02*
X94821429Y-121878571D01*
X94321429Y-120378571D01*
X89742856Y-124135714D02*
X89814285Y-124207143D01*
X90028571Y-124278571D01*
X90171428Y-124278571D01*
X90385713Y-124207143D01*
X90528571Y-124064286D01*
X90599999Y-123921429D01*
X90671428Y-123635714D01*
X90671428Y-123421429D01*
X90599999Y-123135714D01*
X90528571Y-122992857D01*
X90385713Y-122850000D01*
X90171428Y-122778571D01*
X90028571Y-122778571D01*
X89814285Y-122850000D01*
X89742856Y-122921429D01*
X89171428Y-123850000D02*
X88457142Y-123850000D01*
X89314285Y-124278571D02*
X88814285Y-122778571D01*
X88314285Y-124278571D01*
X87814285Y-124278571D02*
X87814285Y-122778571D01*
X86957142Y-124278571D01*
X86957142Y-122778571D01*
X85742856Y-123492857D02*
X85528570Y-123564286D01*
X85457142Y-123635714D01*
X85385713Y-123778571D01*
X85385713Y-123992857D01*
X85457142Y-124135714D01*
X85528570Y-124207143D01*
X85671428Y-124278571D01*
X86242856Y-124278571D01*
X86242856Y-122778571D01*
X85742856Y-122778571D01*
X85599999Y-122850000D01*
X85528570Y-122921429D01*
X85457142Y-123064286D01*
X85457142Y-123207143D01*
X85528570Y-123350000D01*
X85599999Y-123421429D01*
X85742856Y-123492857D01*
X86242856Y-123492857D01*
X84742856Y-122778571D02*
X84742856Y-123992857D01*
X84671428Y-124135714D01*
X84599999Y-124207143D01*
X84457142Y-124278571D01*
X84171428Y-124278571D01*
X84028570Y-124207143D01*
X83957142Y-124135714D01*
X83885713Y-123992857D01*
X83885713Y-122778571D01*
X83242856Y-124207143D02*
X83028570Y-124278571D01*
X82671427Y-124278571D01*
X82528570Y-124207143D01*
X82457141Y-124135714D01*
X82385713Y-123992857D01*
X82385713Y-123850000D01*
X82457141Y-123707143D01*
X82528570Y-123635714D01*
X82671427Y-123564286D01*
X82957141Y-123492857D01*
X83099999Y-123421429D01*
X83171427Y-123350000D01*
X83242856Y-123207143D01*
X83242856Y-123064286D01*
X83171427Y-122921429D01*
X83099999Y-122850000D01*
X82957141Y-122778571D01*
X82599999Y-122778571D01*
X82385713Y-122850000D01*
X80099999Y-123492857D02*
X80599999Y-123492857D01*
X80599999Y-124278571D02*
X80599999Y-122778571D01*
X79885713Y-122778571D01*
X79314285Y-124278571D02*
X79314285Y-123278571D01*
X79314285Y-122778571D02*
X79385714Y-122850000D01*
X79314285Y-122921429D01*
X79242857Y-122850000D01*
X79314285Y-122778571D01*
X79314285Y-122921429D01*
X78599999Y-124278571D02*
X78599999Y-123278571D01*
X78599999Y-123564286D02*
X78528571Y-123421429D01*
X78457142Y-123350000D01*
X78314285Y-123278571D01*
X78171428Y-123278571D01*
X77100000Y-124207143D02*
X77242857Y-124278571D01*
X77528571Y-124278571D01*
X77671428Y-124207143D01*
X77742857Y-124064286D01*
X77742857Y-123492857D01*
X77671428Y-123350000D01*
X77528571Y-123278571D01*
X77242857Y-123278571D01*
X77100000Y-123350000D01*
X77028571Y-123492857D01*
X77028571Y-123635714D01*
X77742857Y-123778571D01*
X76528571Y-123278571D02*
X76242857Y-124278571D01*
X75957143Y-123564286D01*
X75671428Y-124278571D01*
X75385714Y-123278571D01*
X74171428Y-124278571D02*
X74171428Y-123492857D01*
X74242857Y-123350000D01*
X74385714Y-123278571D01*
X74671428Y-123278571D01*
X74814285Y-123350000D01*
X74171428Y-124207143D02*
X74314285Y-124278571D01*
X74671428Y-124278571D01*
X74814285Y-124207143D01*
X74885714Y-124064286D01*
X74885714Y-123921429D01*
X74814285Y-123778571D01*
X74671428Y-123707143D01*
X74314285Y-123707143D01*
X74171428Y-123635714D01*
X73242856Y-124278571D02*
X73385714Y-124207143D01*
X73457142Y-124064286D01*
X73457142Y-122778571D01*
X72457142Y-124278571D02*
X72600000Y-124207143D01*
X72671428Y-124064286D01*
X72671428Y-122778571D01*
X70957143Y-122778571D02*
X70457143Y-124278571D01*
X69957143Y-122778571D01*
X68671429Y-124278571D02*
X69528572Y-124278571D01*
X69100000Y-124278571D02*
X69100000Y-122778571D01*
X69242857Y-122992857D01*
X69385715Y-123135714D01*
X69528572Y-123207143D01*
X68028572Y-124135714D02*
X67957144Y-124207143D01*
X68028572Y-124278571D01*
X68100001Y-124207143D01*
X68028572Y-124135714D01*
X68028572Y-124278571D01*
X66528572Y-124278571D02*
X67385715Y-124278571D01*
X66957143Y-124278571D02*
X66957143Y-122778571D01*
X67100000Y-122992857D01*
X67242858Y-123135714D01*
X67385715Y-123207143D01*
X91457142Y-125178571D02*
X91171428Y-125178571D01*
X91028570Y-125250000D01*
X90885713Y-125392857D01*
X90814285Y-125678571D01*
X90814285Y-126178571D01*
X90885713Y-126464286D01*
X91028570Y-126607143D01*
X91171428Y-126678571D01*
X91457142Y-126678571D01*
X91599999Y-126607143D01*
X91742856Y-126464286D01*
X91814285Y-126178571D01*
X91814285Y-125678571D01*
X91742856Y-125392857D01*
X91599999Y-125250000D01*
X91457142Y-125178571D01*
X90171427Y-125678571D02*
X90171427Y-127178571D01*
X90171427Y-125750000D02*
X90028570Y-125678571D01*
X89742856Y-125678571D01*
X89599999Y-125750000D01*
X89528570Y-125821429D01*
X89457141Y-125964286D01*
X89457141Y-126392857D01*
X89528570Y-126535714D01*
X89599999Y-126607143D01*
X89742856Y-126678571D01*
X90028570Y-126678571D01*
X90171427Y-126607143D01*
X88242856Y-126607143D02*
X88385713Y-126678571D01*
X88671427Y-126678571D01*
X88814284Y-126607143D01*
X88885713Y-126464286D01*
X88885713Y-125892857D01*
X88814284Y-125750000D01*
X88671427Y-125678571D01*
X88385713Y-125678571D01*
X88242856Y-125750000D01*
X88171427Y-125892857D01*
X88171427Y-126035714D01*
X88885713Y-126178571D01*
X87528570Y-125678571D02*
X87528570Y-126678571D01*
X87528570Y-125821429D02*
X87457142Y-125750000D01*
X87314284Y-125678571D01*
X87099999Y-125678571D01*
X86957142Y-125750000D01*
X86885713Y-125892857D01*
X86885713Y-126678571D01*
X85099999Y-126607143D02*
X84885713Y-126678571D01*
X84528570Y-126678571D01*
X84385713Y-126607143D01*
X84314284Y-126535714D01*
X84242856Y-126392857D01*
X84242856Y-126250000D01*
X84314284Y-126107143D01*
X84385713Y-126035714D01*
X84528570Y-125964286D01*
X84814284Y-125892857D01*
X84957142Y-125821429D01*
X85028570Y-125750000D01*
X85099999Y-125607143D01*
X85099999Y-125464286D01*
X85028570Y-125321429D01*
X84957142Y-125250000D01*
X84814284Y-125178571D01*
X84457142Y-125178571D01*
X84242856Y-125250000D01*
X83385713Y-126678571D02*
X83528571Y-126607143D01*
X83599999Y-126535714D01*
X83671428Y-126392857D01*
X83671428Y-125964286D01*
X83599999Y-125821429D01*
X83528571Y-125750000D01*
X83385713Y-125678571D01*
X83171428Y-125678571D01*
X83028571Y-125750000D01*
X82957142Y-125821429D01*
X82885713Y-125964286D01*
X82885713Y-126392857D01*
X82957142Y-126535714D01*
X83028571Y-126607143D01*
X83171428Y-126678571D01*
X83385713Y-126678571D01*
X81599999Y-125678571D02*
X81599999Y-126678571D01*
X82242856Y-125678571D02*
X82242856Y-126464286D01*
X82171428Y-126607143D01*
X82028570Y-126678571D01*
X81814285Y-126678571D01*
X81671428Y-126607143D01*
X81599999Y-126535714D01*
X80885713Y-126678571D02*
X80885713Y-125678571D01*
X80885713Y-125964286D02*
X80814285Y-125821429D01*
X80742856Y-125750000D01*
X80599999Y-125678571D01*
X80457142Y-125678571D01*
X79314285Y-126607143D02*
X79457142Y-126678571D01*
X79742856Y-126678571D01*
X79885714Y-126607143D01*
X79957142Y-126535714D01*
X80028571Y-126392857D01*
X80028571Y-125964286D01*
X79957142Y-125821429D01*
X79885714Y-125750000D01*
X79742856Y-125678571D01*
X79457142Y-125678571D01*
X79314285Y-125750000D01*
X78100000Y-126607143D02*
X78242857Y-126678571D01*
X78528571Y-126678571D01*
X78671428Y-126607143D01*
X78742857Y-126464286D01*
X78742857Y-125892857D01*
X78671428Y-125750000D01*
X78528571Y-125678571D01*
X78242857Y-125678571D01*
X78100000Y-125750000D01*
X78028571Y-125892857D01*
X78028571Y-126035714D01*
X78742857Y-126178571D01*
X76242857Y-126678571D02*
X76242857Y-125178571D01*
X76242857Y-125892857D02*
X75385714Y-125892857D01*
X75385714Y-126678571D02*
X75385714Y-125178571D01*
X74028571Y-126678571D02*
X74028571Y-125892857D01*
X74100000Y-125750000D01*
X74242857Y-125678571D01*
X74528571Y-125678571D01*
X74671428Y-125750000D01*
X74028571Y-126607143D02*
X74171428Y-126678571D01*
X74528571Y-126678571D01*
X74671428Y-126607143D01*
X74742857Y-126464286D01*
X74742857Y-126321429D01*
X74671428Y-126178571D01*
X74528571Y-126107143D01*
X74171428Y-126107143D01*
X74028571Y-126035714D01*
X73314285Y-126678571D02*
X73314285Y-125678571D01*
X73314285Y-125964286D02*
X73242857Y-125821429D01*
X73171428Y-125750000D01*
X73028571Y-125678571D01*
X72885714Y-125678571D01*
X71742857Y-126678571D02*
X71742857Y-125178571D01*
X71742857Y-126607143D02*
X71885714Y-126678571D01*
X72171428Y-126678571D01*
X72314286Y-126607143D01*
X72385714Y-126535714D01*
X72457143Y-126392857D01*
X72457143Y-125964286D01*
X72385714Y-125821429D01*
X72314286Y-125750000D01*
X72171428Y-125678571D01*
X71885714Y-125678571D01*
X71742857Y-125750000D01*
X71171428Y-125678571D02*
X70885714Y-126678571D01*
X70600000Y-125964286D01*
X70314285Y-126678571D01*
X70028571Y-125678571D01*
X68814285Y-126678571D02*
X68814285Y-125892857D01*
X68885714Y-125750000D01*
X69028571Y-125678571D01*
X69314285Y-125678571D01*
X69457142Y-125750000D01*
X68814285Y-126607143D02*
X68957142Y-126678571D01*
X69314285Y-126678571D01*
X69457142Y-126607143D01*
X69528571Y-126464286D01*
X69528571Y-126321429D01*
X69457142Y-126178571D01*
X69314285Y-126107143D01*
X68957142Y-126107143D01*
X68814285Y-126035714D01*
X68099999Y-126678571D02*
X68099999Y-125678571D01*
X68099999Y-125964286D02*
X68028571Y-125821429D01*
X67957142Y-125750000D01*
X67814285Y-125678571D01*
X67671428Y-125678571D01*
X66600000Y-126607143D02*
X66742857Y-126678571D01*
X67028571Y-126678571D01*
X67171428Y-126607143D01*
X67242857Y-126464286D01*
X67242857Y-125892857D01*
X67171428Y-125750000D01*
X67028571Y-125678571D01*
X66742857Y-125678571D01*
X66600000Y-125750000D01*
X66528571Y-125892857D01*
X66528571Y-126035714D01*
X67242857Y-126178571D01*
X91850000Y-127578571D02*
X91850000Y-128650000D01*
X91921428Y-128864286D01*
X92064285Y-129007143D01*
X92278571Y-129078571D01*
X92421428Y-129078571D01*
X90492857Y-129078571D02*
X90492857Y-128292857D01*
X90564286Y-128150000D01*
X90707143Y-128078571D01*
X90992857Y-128078571D01*
X91135714Y-128150000D01*
X90492857Y-129007143D02*
X90635714Y-129078571D01*
X90992857Y-129078571D01*
X91135714Y-129007143D01*
X91207143Y-128864286D01*
X91207143Y-128721429D01*
X91135714Y-128578571D01*
X90992857Y-128507143D01*
X90635714Y-128507143D01*
X90492857Y-128435714D01*
X89135714Y-128078571D02*
X89135714Y-129292857D01*
X89207143Y-129435714D01*
X89278571Y-129507143D01*
X89421428Y-129578571D01*
X89635714Y-129578571D01*
X89778571Y-129507143D01*
X89135714Y-129007143D02*
X89278571Y-129078571D01*
X89564285Y-129078571D01*
X89707143Y-129007143D01*
X89778571Y-128935714D01*
X89850000Y-128792857D01*
X89850000Y-128364286D01*
X89778571Y-128221429D01*
X89707143Y-128150000D01*
X89564285Y-128078571D01*
X89278571Y-128078571D01*
X89135714Y-128150000D01*
X87778571Y-128078571D02*
X87778571Y-129078571D01*
X88421428Y-128078571D02*
X88421428Y-128864286D01*
X88350000Y-129007143D01*
X88207142Y-129078571D01*
X87992857Y-129078571D01*
X87850000Y-129007143D01*
X87778571Y-128935714D01*
X86421428Y-129078571D02*
X86421428Y-128292857D01*
X86492857Y-128150000D01*
X86635714Y-128078571D01*
X86921428Y-128078571D01*
X87064285Y-128150000D01*
X86421428Y-129007143D02*
X86564285Y-129078571D01*
X86921428Y-129078571D01*
X87064285Y-129007143D01*
X87135714Y-128864286D01*
X87135714Y-128721429D01*
X87064285Y-128578571D01*
X86921428Y-128507143D01*
X86564285Y-128507143D01*
X86421428Y-128435714D01*
X85707142Y-129078571D02*
X85707142Y-128078571D01*
X85707142Y-128364286D02*
X85635714Y-128221429D01*
X85564285Y-128150000D01*
X85421428Y-128078571D01*
X85278571Y-128078571D01*
X82921428Y-129078571D02*
X83635714Y-129078571D01*
X83635714Y-127578571D01*
X81778571Y-129078571D02*
X81778571Y-128292857D01*
X81850000Y-128150000D01*
X81992857Y-128078571D01*
X82278571Y-128078571D01*
X82421428Y-128150000D01*
X81778571Y-129007143D02*
X81921428Y-129078571D01*
X82278571Y-129078571D01*
X82421428Y-129007143D01*
X82492857Y-128864286D01*
X82492857Y-128721429D01*
X82421428Y-128578571D01*
X82278571Y-128507143D01*
X81921428Y-128507143D01*
X81778571Y-128435714D01*
X81064285Y-128078571D02*
X81064285Y-129078571D01*
X81064285Y-128221429D02*
X80992857Y-128150000D01*
X80849999Y-128078571D01*
X80635714Y-128078571D01*
X80492857Y-128150000D01*
X80421428Y-128292857D01*
X80421428Y-129078571D01*
X79064285Y-129078571D02*
X79064285Y-127578571D01*
X79064285Y-129007143D02*
X79207142Y-129078571D01*
X79492856Y-129078571D01*
X79635714Y-129007143D01*
X79707142Y-128935714D01*
X79778571Y-128792857D01*
X79778571Y-128364286D01*
X79707142Y-128221429D01*
X79635714Y-128150000D01*
X79492856Y-128078571D01*
X79207142Y-128078571D01*
X79064285Y-128150000D01*
X76349999Y-129078571D02*
X76849999Y-128364286D01*
X77207142Y-129078571D02*
X77207142Y-127578571D01*
X76635714Y-127578571D01*
X76492856Y-127650000D01*
X76421428Y-127721429D01*
X76349999Y-127864286D01*
X76349999Y-128078571D01*
X76421428Y-128221429D01*
X76492856Y-128292857D01*
X76635714Y-128364286D01*
X77207142Y-128364286D01*
X75492856Y-129078571D02*
X75635714Y-129007143D01*
X75707142Y-128935714D01*
X75778571Y-128792857D01*
X75778571Y-128364286D01*
X75707142Y-128221429D01*
X75635714Y-128150000D01*
X75492856Y-128078571D01*
X75278571Y-128078571D01*
X75135714Y-128150000D01*
X75064285Y-128221429D01*
X74992856Y-128364286D01*
X74992856Y-128792857D01*
X75064285Y-128935714D01*
X75135714Y-129007143D01*
X75278571Y-129078571D01*
X75492856Y-129078571D01*
X74492856Y-128078571D02*
X74135713Y-129078571D01*
X73778571Y-128078571D01*
X72635714Y-129007143D02*
X72778571Y-129078571D01*
X73064285Y-129078571D01*
X73207142Y-129007143D01*
X73278571Y-128864286D01*
X73278571Y-128292857D01*
X73207142Y-128150000D01*
X73064285Y-128078571D01*
X72778571Y-128078571D01*
X72635714Y-128150000D01*
X72564285Y-128292857D01*
X72564285Y-128435714D01*
X73278571Y-128578571D01*
X71921428Y-129078571D02*
X71921428Y-128078571D01*
X71921428Y-128364286D02*
X71850000Y-128221429D01*
X71778571Y-128150000D01*
X71635714Y-128078571D01*
X71492857Y-128078571D01*
X69564286Y-127578571D02*
X69278572Y-127578571D01*
X69135714Y-127650000D01*
X68992857Y-127792857D01*
X68921429Y-128078571D01*
X68921429Y-128578571D01*
X68992857Y-128864286D01*
X69135714Y-129007143D01*
X69278572Y-129078571D01*
X69564286Y-129078571D01*
X69707143Y-129007143D01*
X69850000Y-128864286D01*
X69921429Y-128578571D01*
X69921429Y-128078571D01*
X69850000Y-127792857D01*
X69707143Y-127650000D01*
X69564286Y-127578571D01*
X68350000Y-129007143D02*
X68135714Y-129078571D01*
X67778571Y-129078571D01*
X67635714Y-129007143D01*
X67564285Y-128935714D01*
X67492857Y-128792857D01*
X67492857Y-128650000D01*
X67564285Y-128507143D01*
X67635714Y-128435714D01*
X67778571Y-128364286D01*
X68064285Y-128292857D01*
X68207143Y-128221429D01*
X68278571Y-128150000D01*
X68350000Y-128007143D01*
X68350000Y-127864286D01*
X68278571Y-127721429D01*
X68207143Y-127650000D01*
X68064285Y-127578571D01*
X67707143Y-127578571D01*
X67492857Y-127650000D01*
X67064286Y-127578571D02*
X66207143Y-127578571D01*
X66635714Y-129078571D02*
X66635714Y-127578571D01*
X64850000Y-128935714D02*
X64921429Y-129007143D01*
X65135715Y-129078571D01*
X65278572Y-129078571D01*
X65492857Y-129007143D01*
X65635715Y-128864286D01*
X65707143Y-128721429D01*
X65778572Y-128435714D01*
X65778572Y-128221429D01*
X65707143Y-127935714D01*
X65635715Y-127792857D01*
X65492857Y-127650000D01*
X65278572Y-127578571D01*
X65135715Y-127578571D01*
X64921429Y-127650000D01*
X64850000Y-127721429D01*
X88207142Y-129978571D02*
X88207142Y-131050000D01*
X88278570Y-131264286D01*
X88421427Y-131407143D01*
X88635713Y-131478571D01*
X88778570Y-131478571D01*
X86921428Y-131407143D02*
X87064285Y-131478571D01*
X87349999Y-131478571D01*
X87492856Y-131407143D01*
X87564285Y-131264286D01*
X87564285Y-130692857D01*
X87492856Y-130550000D01*
X87349999Y-130478571D01*
X87064285Y-130478571D01*
X86921428Y-130550000D01*
X86849999Y-130692857D01*
X86849999Y-130835714D01*
X87564285Y-130978571D01*
X86278571Y-131407143D02*
X86135714Y-131478571D01*
X85849999Y-131478571D01*
X85707142Y-131407143D01*
X85635714Y-131264286D01*
X85635714Y-131192857D01*
X85707142Y-131050000D01*
X85849999Y-130978571D01*
X86064285Y-130978571D01*
X86207142Y-130907143D01*
X86278571Y-130764286D01*
X86278571Y-130692857D01*
X86207142Y-130550000D01*
X86064285Y-130478571D01*
X85849999Y-130478571D01*
X85707142Y-130550000D01*
X85064285Y-131407143D02*
X84921428Y-131478571D01*
X84635713Y-131478571D01*
X84492856Y-131407143D01*
X84421428Y-131264286D01*
X84421428Y-131192857D01*
X84492856Y-131050000D01*
X84635713Y-130978571D01*
X84849999Y-130978571D01*
X84992856Y-130907143D01*
X85064285Y-130764286D01*
X85064285Y-130692857D01*
X84992856Y-130550000D01*
X84849999Y-130478571D01*
X84635713Y-130478571D01*
X84492856Y-130550000D01*
X83207142Y-131407143D02*
X83349999Y-131478571D01*
X83635713Y-131478571D01*
X83778570Y-131407143D01*
X83849999Y-131264286D01*
X83849999Y-130692857D01*
X83778570Y-130550000D01*
X83635713Y-130478571D01*
X83349999Y-130478571D01*
X83207142Y-130550000D01*
X83135713Y-130692857D01*
X83135713Y-130835714D01*
X83849999Y-130978571D01*
X80849999Y-130692857D02*
X80635713Y-130764286D01*
X80564285Y-130835714D01*
X80492856Y-130978571D01*
X80492856Y-131192857D01*
X80564285Y-131335714D01*
X80635713Y-131407143D01*
X80778571Y-131478571D01*
X81349999Y-131478571D01*
X81349999Y-129978571D01*
X80849999Y-129978571D01*
X80707142Y-130050000D01*
X80635713Y-130121429D01*
X80564285Y-130264286D01*
X80564285Y-130407143D01*
X80635713Y-130550000D01*
X80707142Y-130621429D01*
X80849999Y-130692857D01*
X81349999Y-130692857D01*
X79207142Y-131478571D02*
X79207142Y-130692857D01*
X79278571Y-130550000D01*
X79421428Y-130478571D01*
X79707142Y-130478571D01*
X79849999Y-130550000D01*
X79207142Y-131407143D02*
X79349999Y-131478571D01*
X79707142Y-131478571D01*
X79849999Y-131407143D01*
X79921428Y-131264286D01*
X79921428Y-131121429D01*
X79849999Y-130978571D01*
X79707142Y-130907143D01*
X79349999Y-130907143D01*
X79207142Y-130835714D01*
X78492856Y-130478571D02*
X78492856Y-131478571D01*
X78492856Y-130621429D02*
X78421428Y-130550000D01*
X78278570Y-130478571D01*
X78064285Y-130478571D01*
X77921428Y-130550000D01*
X77849999Y-130692857D01*
X77849999Y-131478571D01*
X77135713Y-131478571D02*
X77135713Y-129978571D01*
X76992856Y-130907143D02*
X76564285Y-131478571D01*
X76564285Y-130478571D02*
X77135713Y-131050000D01*
X75992856Y-131407143D02*
X75849999Y-131478571D01*
X75564284Y-131478571D01*
X75421427Y-131407143D01*
X75349999Y-131264286D01*
X75349999Y-131192857D01*
X75421427Y-131050000D01*
X75564284Y-130978571D01*
X75778570Y-130978571D01*
X75921427Y-130907143D01*
X75992856Y-130764286D01*
X75992856Y-130692857D01*
X75921427Y-130550000D01*
X75778570Y-130478571D01*
X75564284Y-130478571D01*
X75421427Y-130550000D01*
X73635713Y-130121429D02*
X73564284Y-130050000D01*
X73421427Y-129978571D01*
X73064284Y-129978571D01*
X72921427Y-130050000D01*
X72849998Y-130121429D01*
X72778570Y-130264286D01*
X72778570Y-130407143D01*
X72849998Y-130621429D01*
X73707141Y-131478571D01*
X72778570Y-131478571D01*
X71849999Y-129978571D02*
X71707142Y-129978571D01*
X71564285Y-130050000D01*
X71492856Y-130121429D01*
X71421427Y-130264286D01*
X71349999Y-130550000D01*
X71349999Y-130907143D01*
X71421427Y-131192857D01*
X71492856Y-131335714D01*
X71564285Y-131407143D01*
X71707142Y-131478571D01*
X71849999Y-131478571D01*
X71992856Y-131407143D01*
X72064285Y-131335714D01*
X72135713Y-131192857D01*
X72207142Y-130907143D01*
X72207142Y-130550000D01*
X72135713Y-130264286D01*
X72064285Y-130121429D01*
X71992856Y-130050000D01*
X71849999Y-129978571D01*
X69921428Y-131478571D02*
X70778571Y-131478571D01*
X70349999Y-131478571D02*
X70349999Y-129978571D01*
X70492856Y-130192857D01*
X70635714Y-130335714D01*
X70778571Y-130407143D01*
X68564285Y-129978571D02*
X69278571Y-129978571D01*
X69350000Y-130692857D01*
X69278571Y-130621429D01*
X69135714Y-130550000D01*
X68778571Y-130550000D01*
X68635714Y-130621429D01*
X68564285Y-130692857D01*
X68492857Y-130835714D01*
X68492857Y-131192857D01*
X68564285Y-131335714D01*
X68635714Y-131407143D01*
X68778571Y-131478571D01*
X69135714Y-131478571D01*
X69278571Y-131407143D01*
X69350000Y-131335714D01*
M02*
