G04 #@! TF.FileFunction,Copper,L1,Top,Signal*
%FSLAX46Y46*%
G04 Gerber Fmt 4.6, Leading zero omitted, Abs format (unit mm)*
G04 Created by KiCad (PCBNEW (2015-07-11 BZR 5925, Git c291b88)-product) date 8/13/2015 2:59:00 PM*
%MOMM*%
G01*
G04 APERTURE LIST*
%ADD10C,0.100000*%
%ADD11R,0.900000X0.500000*%
%ADD12R,1.800000X1.230000*%
%ADD13R,2.301240X2.499360*%
%ADD14R,0.900000X2.500000*%
%ADD15O,1.473200X0.609600*%
%ADD16R,2.780000X1.550000*%
%ADD17R,6.730000X6.740000*%
%ADD18R,0.749300X0.398780*%
%ADD19R,5.080000X1.778000*%
%ADD20R,1.000000X0.250000*%
%ADD21R,0.250000X1.000000*%
%ADD22O,1.506220X3.014980*%
%ADD23C,0.600000*%
%ADD24C,0.750000*%
%ADD25C,0.250000*%
%ADD26C,0.500000*%
%ADD27C,0.254000*%
G04 APERTURE END LIST*
D10*
D11*
X64500000Y-129550000D03*
X64500000Y-131050000D03*
X62300000Y-125550000D03*
X62300000Y-127050000D03*
X89200000Y-125150000D03*
X89200000Y-126650000D03*
X94000000Y-129150000D03*
X94000000Y-130650000D03*
X71200000Y-117350000D03*
X71200000Y-118850000D03*
D12*
X72390000Y-122200000D03*
X75010000Y-122200000D03*
D11*
X78400000Y-117350000D03*
X78400000Y-118850000D03*
X78400000Y-122650000D03*
X78400000Y-121150000D03*
X86500000Y-133450000D03*
X86500000Y-131950000D03*
X70700000Y-131750000D03*
X70700000Y-133250000D03*
X70600000Y-127950000D03*
X70600000Y-129450000D03*
X70700000Y-136750000D03*
X70700000Y-135250000D03*
D13*
X67700000Y-118151160D03*
X67700000Y-122448840D03*
D14*
X73350000Y-118400000D03*
X76250000Y-118400000D03*
D11*
X67700000Y-126950000D03*
X67700000Y-125450000D03*
X62300000Y-131050000D03*
X62300000Y-129550000D03*
X64500000Y-127050000D03*
X64500000Y-125550000D03*
X91600000Y-126650000D03*
X91600000Y-125150000D03*
X91600000Y-130650000D03*
X91600000Y-129150000D03*
X67700000Y-131050000D03*
X67700000Y-129550000D03*
X89200000Y-130650000D03*
X89200000Y-129150000D03*
X86500000Y-129350000D03*
X86500000Y-127850000D03*
D15*
X67794000Y-136905000D03*
X67794000Y-135635000D03*
X67794000Y-134365000D03*
X67794000Y-133095000D03*
X62206000Y-133095000D03*
X62206000Y-134365000D03*
X62206000Y-135635000D03*
X62206000Y-136905000D03*
X89206000Y-133195000D03*
X89206000Y-134465000D03*
X89206000Y-135735000D03*
X89206000Y-137005000D03*
X94794000Y-137005000D03*
X94794000Y-135735000D03*
X94794000Y-134465000D03*
X94794000Y-133195000D03*
D16*
X82000000Y-122380000D03*
D17*
X88635000Y-120200000D03*
D16*
X82000000Y-118020000D03*
D18*
X62250040Y-120049760D03*
X62250040Y-120700000D03*
X62250040Y-121350240D03*
X64149960Y-121350240D03*
X64149960Y-120700000D03*
X64149960Y-120049760D03*
D11*
X86500000Y-136750000D03*
X86500000Y-135250000D03*
D19*
X55840000Y-124806000D03*
X55840000Y-127600000D03*
X55840000Y-130394000D03*
X55840000Y-133188000D03*
X55840000Y-122012000D03*
X100860000Y-130194000D03*
X100860000Y-127400000D03*
X100860000Y-124606000D03*
X100860000Y-121812000D03*
X100860000Y-132988000D03*
D20*
X72900000Y-127250000D03*
X72900000Y-127750000D03*
X72900000Y-128250000D03*
X72900000Y-128750000D03*
X72900000Y-129250000D03*
X72900000Y-129750000D03*
X72900000Y-130250000D03*
X72900000Y-130750000D03*
X72900000Y-131250000D03*
X72900000Y-131750000D03*
X72900000Y-132250000D03*
X72900000Y-132750000D03*
X72900000Y-133250000D03*
X72900000Y-133750000D03*
X72900000Y-134250000D03*
X72900000Y-134750000D03*
D21*
X74850000Y-136700000D03*
X75350000Y-136700000D03*
X75850000Y-136700000D03*
X76350000Y-136700000D03*
X76850000Y-136700000D03*
X77350000Y-136700000D03*
X77850000Y-136700000D03*
X78350000Y-136700000D03*
X78850000Y-136700000D03*
X79350000Y-136700000D03*
X79850000Y-136700000D03*
X80350000Y-136700000D03*
X80850000Y-136700000D03*
X81350000Y-136700000D03*
X81850000Y-136700000D03*
X82350000Y-136700000D03*
D20*
X84300000Y-134750000D03*
X84300000Y-134250000D03*
X84300000Y-133750000D03*
X84300000Y-133250000D03*
X84300000Y-132750000D03*
X84300000Y-132250000D03*
X84300000Y-131750000D03*
X84300000Y-131250000D03*
X84300000Y-130750000D03*
X84300000Y-130250000D03*
X84300000Y-129750000D03*
X84300000Y-129250000D03*
X84300000Y-128750000D03*
X84300000Y-128250000D03*
X84300000Y-127750000D03*
X84300000Y-127250000D03*
D21*
X82350000Y-125300000D03*
X81850000Y-125300000D03*
X81350000Y-125300000D03*
X80850000Y-125300000D03*
X80350000Y-125300000D03*
X79850000Y-125300000D03*
X79350000Y-125300000D03*
X78850000Y-125300000D03*
X78350000Y-125300000D03*
X77850000Y-125300000D03*
X77350000Y-125300000D03*
X76850000Y-125300000D03*
X76350000Y-125300000D03*
X75850000Y-125300000D03*
X75350000Y-125300000D03*
X74850000Y-125300000D03*
D22*
X95280000Y-118300000D03*
X97820000Y-118300000D03*
D23*
X93400000Y-123600000D03*
X93200000Y-120800000D03*
X93200000Y-118100000D03*
X93400000Y-127800000D03*
X54900000Y-135500000D03*
X64600000Y-138300000D03*
X97100000Y-133500000D03*
X99150000Y-134900000D03*
X102150000Y-134750000D03*
X81500000Y-135500000D03*
X82000000Y-127300000D03*
X76000000Y-133500000D03*
X78900000Y-135400000D03*
X78400000Y-123900000D03*
X77800000Y-127400000D03*
X79700000Y-120000000D03*
X71200000Y-120600000D03*
X60500000Y-120000000D03*
X59400000Y-125900000D03*
X59400000Y-126900000D03*
X59400000Y-128000000D03*
X72500000Y-123500000D03*
X69700000Y-122700000D03*
X87800000Y-136300000D03*
X89200000Y-128200000D03*
X95400000Y-132100000D03*
X97300000Y-126700000D03*
X97300000Y-127700000D03*
X97300000Y-128800000D03*
X87700000Y-133000000D03*
X82600000Y-132900000D03*
X74400000Y-134900000D03*
X69400000Y-135300000D03*
X69100000Y-129500000D03*
D24*
X96400000Y-132000000D03*
X69900000Y-117100000D03*
D23*
X63600000Y-118100000D03*
X84100000Y-118100000D03*
X97350000Y-123200000D03*
X95450000Y-123550000D03*
X84600000Y-119200000D03*
X64400000Y-118800000D03*
X85100000Y-137600000D03*
X82000000Y-133800000D03*
X84100000Y-137600000D03*
X81000000Y-133900000D03*
X90500000Y-133800000D03*
X83000000Y-131900000D03*
X59700000Y-129500000D03*
X95500000Y-126600000D03*
X97300000Y-125300000D03*
X95400000Y-125500000D03*
X92800000Y-131600000D03*
X89200000Y-131500000D03*
X95450000Y-124600000D03*
X63550000Y-133750000D03*
X65900000Y-125550000D03*
X65900000Y-124000000D03*
X59400000Y-124900000D03*
X62600000Y-124050000D03*
X66650000Y-126250000D03*
X60400000Y-136000000D03*
X63650000Y-134750000D03*
D25*
X62300000Y-129550000D02*
X64500000Y-129550000D01*
X91100000Y-120200000D02*
X93200000Y-118100000D01*
X93400000Y-121000000D02*
X93400000Y-123600000D01*
X93200000Y-120800000D02*
X93400000Y-121000000D01*
X55840000Y-127600000D02*
X59100000Y-127600000D01*
X59100000Y-127600000D02*
X59400000Y-127300000D01*
X93400000Y-127800000D02*
X94100000Y-127800000D01*
X57700000Y-138300000D02*
X54900000Y-135500000D01*
X64600000Y-138300000D02*
X57700000Y-138300000D01*
X100860000Y-132988000D02*
X100860000Y-134410000D01*
X97100000Y-134050000D02*
X97100000Y-133500000D01*
X97950000Y-134900000D02*
X97100000Y-134050000D01*
X99150000Y-134900000D02*
X97950000Y-134900000D01*
X101200000Y-134750000D02*
X102150000Y-134750000D01*
X100860000Y-134410000D02*
X101200000Y-134750000D01*
X72900000Y-129750000D02*
X71850000Y-129750000D01*
X71550000Y-129450000D02*
X70600000Y-129450000D01*
X71850000Y-129750000D02*
X71550000Y-129450000D01*
X74850000Y-136700000D02*
X73700000Y-136700000D01*
X74400000Y-135000000D02*
X74400000Y-134900000D01*
X73700000Y-135700000D02*
X74400000Y-135000000D01*
X73700000Y-136700000D02*
X73700000Y-135700000D01*
X81350000Y-136700000D02*
X81350000Y-135650000D01*
X81350000Y-135650000D02*
X81500000Y-135500000D01*
X89206000Y-134465000D02*
X88665000Y-134465000D01*
X88665000Y-134465000D02*
X88000000Y-133800000D01*
X79350000Y-136700000D02*
X79350000Y-135850000D01*
X82000000Y-127500000D02*
X82000000Y-127300000D01*
X76000000Y-133500000D02*
X82000000Y-127500000D01*
X79350000Y-135850000D02*
X78900000Y-135400000D01*
X78400000Y-123900000D02*
X78800000Y-123900000D01*
X80850000Y-125300000D02*
X80850000Y-126150000D01*
X80850000Y-126150000D02*
X79600000Y-127400000D01*
X79600000Y-127400000D02*
X77800000Y-127400000D01*
X88635000Y-120200000D02*
X91100000Y-120200000D01*
X78400000Y-121150000D02*
X78400000Y-120000000D01*
X78400000Y-120000000D02*
X79700000Y-120000000D01*
X71200000Y-118850000D02*
X71200000Y-120600000D01*
X62250040Y-120700000D02*
X61200000Y-120700000D01*
X61200000Y-120700000D02*
X60500000Y-120000000D01*
X59400000Y-126900000D02*
X59400000Y-127300000D01*
X59400000Y-127300000D02*
X59400000Y-128000000D01*
X72390000Y-122200000D02*
X72390000Y-123390000D01*
X72390000Y-123390000D02*
X72500000Y-123500000D01*
X67700000Y-122448840D02*
X69448840Y-122448840D01*
X69448840Y-122448840D02*
X69700000Y-122700000D01*
X86500000Y-135250000D02*
X87450000Y-135250000D01*
X87450000Y-135250000D02*
X87800000Y-135600000D01*
X87800000Y-135600000D02*
X87800000Y-136300000D01*
X89200000Y-129150000D02*
X89200000Y-128200000D01*
X94000000Y-130650000D02*
X95550000Y-130650000D01*
X95550000Y-130650000D02*
X95400000Y-130800000D01*
X95400000Y-130800000D02*
X95400000Y-132100000D01*
X100860000Y-127400000D02*
X98000000Y-127400000D01*
X98000000Y-127400000D02*
X97300000Y-126700000D01*
X97300000Y-127700000D02*
X97300000Y-128800000D01*
X86500000Y-131950000D02*
X87250000Y-131950000D01*
X87700000Y-132400000D02*
X87700000Y-133000000D01*
X87250000Y-131950000D02*
X87700000Y-132400000D01*
X84300000Y-133250000D02*
X82950000Y-133250000D01*
X82950000Y-133250000D02*
X82600000Y-132900000D01*
X72900000Y-134250000D02*
X73750000Y-134250000D01*
X73750000Y-134250000D02*
X74400000Y-134900000D01*
X70700000Y-135250000D02*
X69450000Y-135250000D01*
X69450000Y-135250000D02*
X69400000Y-135300000D01*
X67700000Y-129550000D02*
X69050000Y-129550000D01*
X69050000Y-129550000D02*
X69100000Y-129500000D01*
X100860000Y-132988000D02*
X98588000Y-132988000D01*
X56501760Y-121350240D02*
X55840000Y-122012000D01*
X62300000Y-125550000D02*
X64500000Y-125550000D01*
X91600000Y-125150000D02*
X89200000Y-125150000D01*
X94000000Y-129150000D02*
X91600000Y-129150000D01*
D26*
X96400000Y-120800000D02*
X96400000Y-119700000D01*
X96400000Y-119700000D02*
X95000000Y-118300000D01*
X96400000Y-132000000D02*
X96400000Y-130900000D01*
X71200000Y-117350000D02*
X72300000Y-117350000D01*
X72300000Y-117350000D02*
X73350000Y-118400000D01*
X69900000Y-117100000D02*
X68751160Y-117100000D01*
X68751160Y-117100000D02*
X67700000Y-118151160D01*
X70150000Y-117350000D02*
X71200000Y-117350000D01*
X69900000Y-117100000D02*
X70150000Y-117350000D01*
X96400000Y-130900000D02*
X96400000Y-120800000D01*
X75010000Y-122200000D02*
X76250000Y-120960000D01*
X76250000Y-120960000D02*
X76250000Y-118400000D01*
X78400000Y-117350000D02*
X81330000Y-117350000D01*
X81330000Y-117350000D02*
X82000000Y-118020000D01*
X76250000Y-118400000D02*
X77300000Y-117350000D01*
X77300000Y-117350000D02*
X78400000Y-117350000D01*
D25*
X70700000Y-131750000D02*
X70700000Y-132000000D01*
X70700000Y-132000000D02*
X69300000Y-133400000D01*
X81350000Y-125300000D02*
X81350000Y-126450000D01*
X74900000Y-128700000D02*
X74450000Y-129150000D01*
X79100000Y-128700000D02*
X74900000Y-128700000D01*
X81350000Y-126450000D02*
X79100000Y-128700000D01*
X70600000Y-127950000D02*
X68700000Y-127950000D01*
X68700000Y-127950000D02*
X67700000Y-126950000D01*
X72900000Y-128750000D02*
X71400000Y-128750000D01*
X71400000Y-128750000D02*
X70600000Y-127950000D01*
X72900000Y-128750000D02*
X74050000Y-128750000D01*
X74050000Y-128750000D02*
X74450000Y-129150000D01*
X74450000Y-129150000D02*
X74450000Y-133750000D01*
X69300000Y-133400000D02*
X68335000Y-134365000D01*
X68335000Y-134365000D02*
X67794000Y-134365000D01*
X72900000Y-133750000D02*
X72150000Y-133750000D01*
X71700000Y-132750000D02*
X70700000Y-131750000D01*
X71700000Y-133300000D02*
X71700000Y-132750000D01*
X72150000Y-133750000D02*
X71700000Y-133300000D01*
X82000000Y-122380000D02*
X78670000Y-122380000D01*
X78670000Y-122380000D02*
X78400000Y-122650000D01*
X81350000Y-125300000D02*
X81350000Y-123030000D01*
X81350000Y-123030000D02*
X82000000Y-122380000D01*
X79850000Y-136700000D02*
X79850000Y-134700000D01*
X79850000Y-134700000D02*
X79800000Y-134650000D01*
X78600000Y-134650000D02*
X79800000Y-134650000D01*
X79800000Y-134650000D02*
X82150000Y-134650000D01*
X83050000Y-133750000D02*
X84300000Y-133750000D01*
X82150000Y-134650000D02*
X83050000Y-133750000D01*
X75350000Y-134650000D02*
X78600000Y-134650000D01*
X78600000Y-134650000D02*
X78650000Y-134650000D01*
X75350000Y-136700000D02*
X75350000Y-134650000D01*
X74450000Y-133750000D02*
X72900000Y-133750000D01*
X75350000Y-134650000D02*
X74450000Y-133750000D01*
X86500000Y-133450000D02*
X86500000Y-133600000D01*
X86500000Y-133600000D02*
X86350000Y-133750000D01*
X89206000Y-135735000D02*
X88785000Y-135735000D01*
X88785000Y-135735000D02*
X86800000Y-133750000D01*
X86800000Y-133750000D02*
X86350000Y-133750000D01*
X86350000Y-133750000D02*
X84300000Y-133750000D01*
X86400000Y-127750000D02*
X85900000Y-127750000D01*
X85900000Y-127750000D02*
X84300000Y-127750000D01*
X86400000Y-127750000D02*
X86500000Y-127850000D01*
X63600000Y-118699800D02*
X63600000Y-118100000D01*
X83900000Y-125700000D02*
X83100000Y-126500000D01*
X83100000Y-126500000D02*
X83100000Y-127300000D01*
X83100000Y-127300000D02*
X83550000Y-127750000D01*
X83550000Y-127750000D02*
X84300000Y-127750000D01*
X62250040Y-120049760D02*
X63600000Y-118699800D01*
X84100000Y-118100000D02*
X83900000Y-118300000D01*
X83900000Y-118300000D02*
X83900000Y-125700000D01*
X84300000Y-127250000D02*
X86550000Y-127250000D01*
X97350000Y-123200000D02*
X98738000Y-121812000D01*
X95400000Y-123550000D02*
X95450000Y-123550000D01*
X94500000Y-124450000D02*
X95400000Y-123550000D01*
X88600000Y-124450000D02*
X94500000Y-124450000D01*
X88300000Y-124750000D02*
X88600000Y-124450000D01*
X88300000Y-125500000D02*
X88300000Y-124750000D01*
X86550000Y-127250000D02*
X88300000Y-125500000D01*
X98738000Y-121812000D02*
X100860000Y-121812000D01*
X64149960Y-120049760D02*
X64149960Y-119050040D01*
X84600000Y-126950000D02*
X84300000Y-127250000D01*
X84600000Y-119200000D02*
X84600000Y-126950000D01*
X64149960Y-119050040D02*
X64400000Y-118800000D01*
X84300000Y-128750000D02*
X82600002Y-128750000D01*
X66400000Y-134000000D02*
X67305000Y-133095000D01*
X66400000Y-137300000D02*
X66400000Y-134000000D01*
X67700000Y-138600000D02*
X66400000Y-137300000D01*
X84100000Y-138600000D02*
X67700000Y-138600000D01*
X85100000Y-137600000D02*
X84100000Y-138600000D01*
X81600000Y-133400000D02*
X82000000Y-133800000D01*
X81600000Y-129750002D02*
X81600000Y-133400000D01*
X82600002Y-128750000D02*
X81600000Y-129750002D01*
X67305000Y-133095000D02*
X67794000Y-133095000D01*
X81000000Y-133100000D02*
X81000000Y-129600000D01*
X68989000Y-138100000D02*
X83600000Y-138100000D01*
X83600000Y-138100000D02*
X84100000Y-137600000D01*
X81000000Y-133900000D02*
X81000000Y-133100000D01*
X67794000Y-136905000D02*
X68989000Y-138100000D01*
X82350000Y-128250000D02*
X84300000Y-128250000D01*
X81000000Y-129600000D02*
X82350000Y-128250000D01*
X84300000Y-131750000D02*
X83150000Y-131750000D01*
X90500000Y-136000000D02*
X89495000Y-137005000D01*
X90500000Y-133800000D02*
X90500000Y-136000000D01*
X83150000Y-131750000D02*
X83000000Y-131900000D01*
X89495000Y-137005000D02*
X89206000Y-137005000D01*
X84300000Y-131250000D02*
X87261000Y-131250000D01*
X87261000Y-131250000D02*
X89206000Y-133195000D01*
X62206000Y-135635000D02*
X61135000Y-135635000D01*
X60400000Y-131900000D02*
X61250000Y-131050000D01*
X60400000Y-134900000D02*
X60400000Y-131900000D01*
X61135000Y-135635000D02*
X60400000Y-134900000D01*
X61250000Y-131050000D02*
X61000000Y-131300000D01*
X59700000Y-129500000D02*
X61250000Y-131050000D01*
X61250000Y-131050000D02*
X62300000Y-131050000D01*
X61535000Y-135635000D02*
X62206000Y-135635000D01*
X63250000Y-131950000D02*
X63250000Y-130550000D01*
X60850002Y-133650002D02*
X60850002Y-132849998D01*
X60850002Y-132849998D02*
X61500000Y-132200000D01*
X61500000Y-132200000D02*
X63000000Y-132200000D01*
X63000000Y-132200000D02*
X63250000Y-131950000D01*
X61565000Y-134365000D02*
X60850002Y-133650002D01*
X61850000Y-130350000D02*
X60200000Y-128700000D01*
X63050000Y-130350000D02*
X61850000Y-130350000D01*
X63250000Y-130550000D02*
X63050000Y-130350000D01*
X62206000Y-134365000D02*
X61565000Y-134365000D01*
X55840000Y-130394000D02*
X57706000Y-130394000D01*
X57706000Y-130394000D02*
X59400000Y-128700000D01*
X59400000Y-128700000D02*
X60200000Y-128700000D01*
X60200000Y-128700000D02*
X61800000Y-128700000D01*
X61800000Y-128700000D02*
X62850000Y-128700000D01*
X62850000Y-128700000D02*
X64500000Y-127050000D01*
X62206000Y-134365000D02*
X62485000Y-134365000D01*
X100616000Y-129950000D02*
X100860000Y-130194000D01*
X92350000Y-129900000D02*
X91600000Y-130650000D01*
X95200000Y-129900000D02*
X92350000Y-129900000D01*
X95500000Y-129600000D02*
X95200000Y-129900000D01*
X95500000Y-126600000D02*
X95500000Y-129600000D01*
X91600000Y-130650000D02*
X91600000Y-132100000D01*
X93965000Y-134465000D02*
X94794000Y-134465000D01*
X91600000Y-132100000D02*
X93965000Y-134465000D01*
X91600000Y-126650000D02*
X94250000Y-126650000D01*
X97994000Y-124606000D02*
X100860000Y-124606000D01*
X97300000Y-125300000D02*
X97994000Y-124606000D01*
X94250000Y-126650000D02*
X95400000Y-125500000D01*
X94794000Y-135735000D02*
X94235000Y-135735000D01*
X94235000Y-135735000D02*
X90400000Y-131900000D01*
X90400000Y-131900000D02*
X90400000Y-127750000D01*
X90400000Y-127750000D02*
X91600000Y-126550000D01*
X66400000Y-132950000D02*
X67700000Y-131650000D01*
X67700000Y-131650000D02*
X67700000Y-131050000D01*
X62206000Y-136905000D02*
X62695000Y-136905000D01*
X62695000Y-136905000D02*
X66400000Y-133200000D01*
X66400000Y-133200000D02*
X66400000Y-132950000D01*
X94794000Y-133195000D02*
X94395000Y-133195000D01*
X94395000Y-133195000D02*
X92800000Y-131600000D01*
X89200000Y-131500000D02*
X89200000Y-130650000D01*
X95450000Y-124600000D02*
X95150000Y-124600000D01*
X95150000Y-124600000D02*
X93850000Y-125900000D01*
X93850000Y-125900000D02*
X88650000Y-125900000D01*
X88650000Y-125900000D02*
X87450000Y-127100000D01*
X87450000Y-127100000D02*
X87450000Y-128400000D01*
X87450000Y-128400000D02*
X86500000Y-129350000D01*
X80350000Y-136700000D02*
X80350000Y-137550000D01*
X71550000Y-137600000D02*
X70700000Y-136750000D01*
X80300000Y-137600000D02*
X71550000Y-137600000D01*
X80350000Y-137550000D02*
X80300000Y-137600000D01*
X86500000Y-136750000D02*
X83750000Y-136750000D01*
X80850000Y-137550000D02*
X80850000Y-136700000D01*
X80900000Y-137600000D02*
X80850000Y-137550000D01*
X82900000Y-137600000D02*
X80900000Y-137600000D01*
X83750000Y-136750000D02*
X82900000Y-137600000D01*
X64149960Y-122249960D02*
X64149960Y-123949960D01*
X64400000Y-124200000D02*
X66400000Y-124200000D01*
X64149960Y-123949960D02*
X64400000Y-124200000D01*
X65900000Y-124000000D02*
X66100000Y-124200000D01*
X66100000Y-124200000D02*
X66400000Y-124200000D01*
X73750000Y-124200000D02*
X74850000Y-125300000D01*
X66400000Y-124200000D02*
X73750000Y-124200000D01*
X63550000Y-133750000D02*
X65900000Y-131400000D01*
X65900000Y-131400000D02*
X65900000Y-125550000D01*
X64149960Y-122249960D02*
X64149960Y-121350240D01*
X63150000Y-121699998D02*
X63400000Y-121949998D01*
X63400000Y-121949998D02*
X63400000Y-124800000D01*
X64149960Y-120700000D02*
X63600000Y-120700000D01*
X63150000Y-121150000D02*
X63150000Y-121699998D01*
X63600000Y-120700000D02*
X63150000Y-121150000D01*
X72900000Y-128250000D02*
X72150000Y-128250000D01*
X72150000Y-128250000D02*
X68700000Y-124800000D01*
X68700000Y-124800000D02*
X63400000Y-124800000D01*
X59500000Y-124800000D02*
X59400000Y-124900000D01*
X63400000Y-124800000D02*
X59500000Y-124800000D01*
X66450000Y-126700000D02*
X66650000Y-126500000D01*
X62250040Y-123700040D02*
X62250040Y-121350240D01*
X62600000Y-124050000D02*
X62250040Y-123700040D01*
X66650000Y-126500000D02*
X66650000Y-126250000D01*
X55840000Y-133188000D02*
X57588000Y-133188000D01*
X57588000Y-133188000D02*
X60400000Y-136000000D01*
X66450000Y-126700000D02*
X67700000Y-125450000D01*
X66450000Y-131900000D02*
X66450000Y-126700000D01*
X63650000Y-134700000D02*
X66450000Y-131900000D01*
X63650000Y-134750000D02*
X63650000Y-134700000D01*
X55840000Y-124806000D02*
X56496000Y-124150000D01*
X57194000Y-124806000D02*
X55840000Y-124806000D01*
D27*
G36*
X65898000Y-137299995D02*
X65897999Y-137300000D01*
X65936212Y-137492107D01*
X66045032Y-137654968D01*
X67345030Y-138954965D01*
X67345032Y-138954968D01*
X67372019Y-138973000D01*
X56176869Y-138973000D01*
X53727000Y-136523130D01*
X53727000Y-134461386D01*
X58151450Y-134461386D01*
X59722971Y-136032906D01*
X59722883Y-136134073D01*
X59825733Y-136382989D01*
X60016010Y-136573598D01*
X60264746Y-136676882D01*
X60534073Y-136677117D01*
X60782989Y-136574267D01*
X60973598Y-136383990D01*
X61076882Y-136135254D01*
X61076891Y-136125442D01*
X61135000Y-136137001D01*
X61135005Y-136137000D01*
X61300053Y-136137000D01*
X61491469Y-136264901D01*
X61517103Y-136270000D01*
X61491469Y-136275099D01*
X61270278Y-136422895D01*
X61122482Y-136644086D01*
X61070583Y-136905000D01*
X61122482Y-137165914D01*
X61270278Y-137387105D01*
X61491469Y-137534901D01*
X61752383Y-137586800D01*
X62659617Y-137586800D01*
X62920531Y-137534901D01*
X63141722Y-137387105D01*
X63289518Y-137165914D01*
X63325645Y-136984291D01*
X65898000Y-134411935D01*
X65898000Y-137299995D01*
X65898000Y-137299995D01*
G37*
X65898000Y-137299995D02*
X65897999Y-137300000D01*
X65936212Y-137492107D01*
X66045032Y-137654968D01*
X67345030Y-138954965D01*
X67345032Y-138954968D01*
X67372019Y-138973000D01*
X56176869Y-138973000D01*
X53727000Y-136523130D01*
X53727000Y-134461386D01*
X58151450Y-134461386D01*
X59722971Y-136032906D01*
X59722883Y-136134073D01*
X59825733Y-136382989D01*
X60016010Y-136573598D01*
X60264746Y-136676882D01*
X60534073Y-136677117D01*
X60782989Y-136574267D01*
X60973598Y-136383990D01*
X61076882Y-136135254D01*
X61076891Y-136125442D01*
X61135000Y-136137001D01*
X61135005Y-136137000D01*
X61300053Y-136137000D01*
X61491469Y-136264901D01*
X61517103Y-136270000D01*
X61491469Y-136275099D01*
X61270278Y-136422895D01*
X61122482Y-136644086D01*
X61070583Y-136905000D01*
X61122482Y-137165914D01*
X61270278Y-137387105D01*
X61491469Y-137534901D01*
X61752383Y-137586800D01*
X62659617Y-137586800D01*
X62920531Y-137534901D01*
X63141722Y-137387105D01*
X63289518Y-137165914D01*
X63325645Y-136984291D01*
X65898000Y-134411935D01*
X65898000Y-137299995D01*
G36*
X97963505Y-125638749D02*
X98046498Y-125765091D01*
X98171788Y-125849663D01*
X98320000Y-125879386D01*
X102973000Y-125879386D01*
X102973000Y-126076000D01*
X100995750Y-126076000D01*
X100887000Y-126184750D01*
X100887000Y-127373000D01*
X100907000Y-127373000D01*
X100907000Y-127427000D01*
X100887000Y-127427000D01*
X100887000Y-128615250D01*
X100995750Y-128724000D01*
X102973000Y-128724000D01*
X102973000Y-128920614D01*
X98320000Y-128920614D01*
X98176251Y-128948505D01*
X98049909Y-129031498D01*
X97965337Y-129156788D01*
X97935614Y-129305000D01*
X97935614Y-131083000D01*
X97963505Y-131226749D01*
X98046498Y-131353091D01*
X98171788Y-131437663D01*
X98320000Y-131467386D01*
X102973000Y-131467386D01*
X102973000Y-131664000D01*
X100995750Y-131664000D01*
X100887000Y-131772750D01*
X100887000Y-132961000D01*
X100907000Y-132961000D01*
X100907000Y-133015000D01*
X100887000Y-133015000D01*
X100887000Y-134203250D01*
X100995750Y-134312000D01*
X102973000Y-134312000D01*
X102973000Y-136523131D01*
X100523130Y-138973000D01*
X84427981Y-138973000D01*
X84454968Y-138954968D01*
X85132907Y-138277029D01*
X85234073Y-138277117D01*
X85482989Y-138174267D01*
X85673598Y-137983990D01*
X85776882Y-137735254D01*
X85777117Y-137465927D01*
X85688724Y-137252000D01*
X85764614Y-137252000D01*
X85776498Y-137270091D01*
X85901788Y-137354663D01*
X86050000Y-137384386D01*
X86950000Y-137384386D01*
X87093749Y-137356495D01*
X87220091Y-137273502D01*
X87304663Y-137148212D01*
X87334386Y-137000000D01*
X87334386Y-136500000D01*
X87306495Y-136356251D01*
X87223502Y-136229909D01*
X87098212Y-136145337D01*
X86950000Y-136115614D01*
X86050000Y-136115614D01*
X85906251Y-136143505D01*
X85779909Y-136226498D01*
X85765395Y-136248000D01*
X83750005Y-136248000D01*
X83750000Y-136247999D01*
X83557893Y-136286212D01*
X83395032Y-136395032D01*
X83395030Y-136395035D01*
X82859386Y-136930678D01*
X82859386Y-136200000D01*
X82831495Y-136056251D01*
X82748502Y-135929909D01*
X82623212Y-135845337D01*
X82475000Y-135815614D01*
X82225000Y-135815614D01*
X82097935Y-135840268D01*
X81975000Y-135815614D01*
X81725000Y-135815614D01*
X81696888Y-135821068D01*
X81561527Y-135765000D01*
X81485750Y-135765000D01*
X81377000Y-135873750D01*
X81377000Y-136041917D01*
X81370337Y-136051788D01*
X81350155Y-136152424D01*
X81331495Y-136056251D01*
X81323000Y-136043319D01*
X81323000Y-135873750D01*
X81214250Y-135765000D01*
X81138473Y-135765000D01*
X81002814Y-135821192D01*
X80975000Y-135815614D01*
X80725000Y-135815614D01*
X80597935Y-135840268D01*
X80475000Y-135815614D01*
X80352000Y-135815614D01*
X80352000Y-135385750D01*
X85615000Y-135385750D01*
X85615000Y-135586527D01*
X85681225Y-135746408D01*
X85803592Y-135868775D01*
X85963473Y-135935000D01*
X86364250Y-135935000D01*
X86473000Y-135826250D01*
X86473000Y-135277000D01*
X86527000Y-135277000D01*
X86527000Y-135826250D01*
X86635750Y-135935000D01*
X87036527Y-135935000D01*
X87196408Y-135868775D01*
X87318775Y-135746408D01*
X87385000Y-135586527D01*
X87385000Y-135385750D01*
X87276250Y-135277000D01*
X86527000Y-135277000D01*
X86473000Y-135277000D01*
X86473000Y-135277000D01*
X85723750Y-135277000D01*
X85615000Y-135385750D01*
X80352000Y-135385750D01*
X80352000Y-135152000D01*
X82149995Y-135152000D01*
X82150000Y-135152001D01*
X82342107Y-135113788D01*
X82504968Y-135004968D01*
X83257935Y-134252000D01*
X83415614Y-134252000D01*
X83415614Y-134375000D01*
X83440268Y-134502065D01*
X83415614Y-134625000D01*
X83415614Y-134875000D01*
X83443505Y-135018749D01*
X83526498Y-135145091D01*
X83651788Y-135229663D01*
X83800000Y-135259386D01*
X84800000Y-135259386D01*
X84943749Y-135231495D01*
X85070091Y-135148502D01*
X85154663Y-135023212D01*
X85176670Y-134913473D01*
X85615000Y-134913473D01*
X85615000Y-135114250D01*
X85723750Y-135223000D01*
X86473000Y-135223000D01*
X86473000Y-134673750D01*
X86364250Y-134565000D01*
X85963473Y-134565000D01*
X85803592Y-134631225D01*
X85681225Y-134753592D01*
X85615000Y-134913473D01*
X85176670Y-134913473D01*
X85184386Y-134875000D01*
X85184386Y-134625000D01*
X85159732Y-134497935D01*
X85184386Y-134375000D01*
X85184386Y-134252000D01*
X86349995Y-134252000D01*
X86350000Y-134252001D01*
X86350005Y-134252000D01*
X86592064Y-134252000D01*
X86905064Y-134565000D01*
X86635750Y-134565000D01*
X86527000Y-134673750D01*
X86527000Y-135223000D01*
X87276250Y-135223000D01*
X87385000Y-135114250D01*
X87385000Y-135044936D01*
X88071326Y-135731262D01*
X88070583Y-135735000D01*
X88122482Y-135995914D01*
X88270278Y-136217105D01*
X88491469Y-136364901D01*
X88517103Y-136370000D01*
X88491469Y-136375099D01*
X88270278Y-136522895D01*
X88122482Y-136744086D01*
X88070583Y-137005000D01*
X88122482Y-137265914D01*
X88270278Y-137487105D01*
X88491469Y-137634901D01*
X88752383Y-137686800D01*
X89659617Y-137686800D01*
X89920531Y-137634901D01*
X90141722Y-137487105D01*
X90289518Y-137265914D01*
X90341417Y-137005000D01*
X90318773Y-136891162D01*
X90854965Y-136354970D01*
X90854968Y-136354968D01*
X90963788Y-136192107D01*
X90973091Y-136145337D01*
X91002001Y-136000000D01*
X91002000Y-135999995D01*
X91002000Y-134255463D01*
X91073598Y-134183990D01*
X91176882Y-133935254D01*
X91177117Y-133665927D01*
X91074267Y-133417011D01*
X90883990Y-133226402D01*
X90635254Y-133123118D01*
X90365927Y-133122883D01*
X90330023Y-133137718D01*
X90289518Y-132934086D01*
X90141722Y-132712895D01*
X89920531Y-132565099D01*
X89659617Y-132513200D01*
X89234135Y-132513200D01*
X87615968Y-130895032D01*
X87453107Y-130786212D01*
X87261000Y-130747999D01*
X87260995Y-130748000D01*
X85184386Y-130748000D01*
X85184386Y-130625000D01*
X85159732Y-130497935D01*
X85184386Y-130375000D01*
X85184386Y-130125000D01*
X85159732Y-129997935D01*
X85184386Y-129875000D01*
X85184386Y-129625000D01*
X85159732Y-129497935D01*
X85184386Y-129375000D01*
X85184386Y-129125000D01*
X85159732Y-128997935D01*
X85184386Y-128875000D01*
X85184386Y-128625000D01*
X85159732Y-128497935D01*
X85184386Y-128375000D01*
X85184386Y-128252000D01*
X85698925Y-128252000D01*
X85776498Y-128370091D01*
X85901788Y-128454663D01*
X86050000Y-128484386D01*
X86655678Y-128484386D01*
X86424450Y-128715614D01*
X86050000Y-128715614D01*
X85906251Y-128743505D01*
X85779909Y-128826498D01*
X85695337Y-128951788D01*
X85665614Y-129100000D01*
X85665614Y-129600000D01*
X85693505Y-129743749D01*
X85776498Y-129870091D01*
X85901788Y-129954663D01*
X86050000Y-129984386D01*
X86950000Y-129984386D01*
X87093749Y-129956495D01*
X87220091Y-129873502D01*
X87304663Y-129748212D01*
X87334386Y-129600000D01*
X87334386Y-129285750D01*
X88315000Y-129285750D01*
X88315000Y-129486527D01*
X88381225Y-129646408D01*
X88503592Y-129768775D01*
X88663473Y-129835000D01*
X89064250Y-129835000D01*
X89173000Y-129726250D01*
X89173000Y-129177000D01*
X88423750Y-129177000D01*
X88315000Y-129285750D01*
X87334386Y-129285750D01*
X87334386Y-129225550D01*
X87746463Y-128813473D01*
X88315000Y-128813473D01*
X88315000Y-129014250D01*
X88423750Y-129123000D01*
X89173000Y-129123000D01*
X89173000Y-128573750D01*
X89064250Y-128465000D01*
X88663473Y-128465000D01*
X88503592Y-128531225D01*
X88381225Y-128653592D01*
X88315000Y-128813473D01*
X87746463Y-128813473D01*
X87804968Y-128754968D01*
X87913788Y-128592107D01*
X87952001Y-128400000D01*
X87952000Y-128399995D01*
X87952000Y-127307936D01*
X88315000Y-126944936D01*
X88315000Y-126986527D01*
X88381225Y-127146408D01*
X88503592Y-127268775D01*
X88663473Y-127335000D01*
X89064250Y-127335000D01*
X89173000Y-127226250D01*
X89173000Y-126677000D01*
X89227000Y-126677000D01*
X89227000Y-127226250D01*
X89335750Y-127335000D01*
X89736527Y-127335000D01*
X89896408Y-127268775D01*
X90018775Y-127146408D01*
X90085000Y-126986527D01*
X90085000Y-126785750D01*
X89976250Y-126677000D01*
X89227000Y-126677000D01*
X89173000Y-126677000D01*
X89173000Y-126677000D01*
X89153000Y-126677000D01*
X89153000Y-126623000D01*
X89173000Y-126623000D01*
X89173000Y-126603000D01*
X89227000Y-126603000D01*
X89227000Y-126623000D01*
X89976250Y-126623000D01*
X90085000Y-126514250D01*
X90085000Y-126402000D01*
X90765614Y-126402000D01*
X90765614Y-126674451D01*
X90045032Y-127395032D01*
X89936212Y-127557893D01*
X89897999Y-127750000D01*
X89898000Y-127750005D01*
X89898000Y-128532817D01*
X89896408Y-128531225D01*
X89736527Y-128465000D01*
X89335750Y-128465000D01*
X89227000Y-128573750D01*
X89227000Y-129123000D01*
X89247000Y-129123000D01*
X89247000Y-129177000D01*
X89227000Y-129177000D01*
X89227000Y-129726250D01*
X89335750Y-129835000D01*
X89736527Y-129835000D01*
X89896408Y-129768775D01*
X89898000Y-129767183D01*
X89898000Y-130112695D01*
X89798212Y-130045337D01*
X89650000Y-130015614D01*
X88750000Y-130015614D01*
X88606251Y-130043505D01*
X88479909Y-130126498D01*
X88395337Y-130251788D01*
X88365614Y-130400000D01*
X88365614Y-130900000D01*
X88393505Y-131043749D01*
X88476498Y-131170091D01*
X88576044Y-131237286D01*
X88523118Y-131364746D01*
X88522883Y-131634073D01*
X88625733Y-131882989D01*
X88816010Y-132073598D01*
X89064746Y-132176882D01*
X89334073Y-132177117D01*
X89582989Y-132074267D01*
X89773598Y-131883990D01*
X89876882Y-131635254D01*
X89877117Y-131365927D01*
X89823756Y-131236784D01*
X89898000Y-131188013D01*
X89898000Y-131899995D01*
X89897999Y-131900000D01*
X89936212Y-132092107D01*
X90045032Y-132254968D01*
X93691736Y-135901672D01*
X93710482Y-135995914D01*
X93858278Y-136217105D01*
X94079469Y-136364901D01*
X94105103Y-136370000D01*
X94079469Y-136375099D01*
X93858278Y-136522895D01*
X93710482Y-136744086D01*
X93658583Y-137005000D01*
X93710482Y-137265914D01*
X93858278Y-137487105D01*
X94079469Y-137634901D01*
X94340383Y-137686800D01*
X95247617Y-137686800D01*
X95508531Y-137634901D01*
X95729722Y-137487105D01*
X95877518Y-137265914D01*
X95929417Y-137005000D01*
X95877518Y-136744086D01*
X95729722Y-136522895D01*
X95508531Y-136375099D01*
X95482897Y-136370000D01*
X95508531Y-136364901D01*
X95729722Y-136217105D01*
X95877518Y-135995914D01*
X95929417Y-135735000D01*
X95877518Y-135474086D01*
X95729722Y-135252895D01*
X95508531Y-135105099D01*
X95482897Y-135100000D01*
X95508531Y-135094901D01*
X95729722Y-134947105D01*
X95877518Y-134725914D01*
X95929417Y-134465000D01*
X95877518Y-134204086D01*
X95729722Y-133982895D01*
X95508531Y-133835099D01*
X95482897Y-133830000D01*
X95508531Y-133824901D01*
X95729722Y-133677105D01*
X95877518Y-133455914D01*
X95929417Y-133195000D01*
X95915245Y-133123750D01*
X97885000Y-133123750D01*
X97885000Y-133963527D01*
X97951225Y-134123408D01*
X98073592Y-134245775D01*
X98233473Y-134312000D01*
X100724250Y-134312000D01*
X100833000Y-134203250D01*
X100833000Y-133015000D01*
X97993750Y-133015000D01*
X97885000Y-133123750D01*
X95915245Y-133123750D01*
X95877518Y-132934086D01*
X95729722Y-132712895D01*
X95508531Y-132565099D01*
X95247617Y-132513200D01*
X94423135Y-132513200D01*
X93477029Y-131567093D01*
X93477117Y-131465927D01*
X93414666Y-131314783D01*
X93463473Y-131335000D01*
X93864250Y-131335000D01*
X93973000Y-131226250D01*
X93973000Y-130677000D01*
X94027000Y-130677000D01*
X94027000Y-131226250D01*
X94135750Y-131335000D01*
X94536527Y-131335000D01*
X94696408Y-131268775D01*
X94818775Y-131146408D01*
X94885000Y-130986527D01*
X94885000Y-130785750D01*
X94776250Y-130677000D01*
X94027000Y-130677000D01*
X93973000Y-130677000D01*
X93973000Y-130677000D01*
X93223750Y-130677000D01*
X93115000Y-130785750D01*
X93115000Y-130986527D01*
X93120617Y-131000087D01*
X92935254Y-130923118D01*
X92665927Y-130922883D01*
X92417011Y-131025733D01*
X92407209Y-131035518D01*
X92434386Y-130900000D01*
X92434386Y-130525549D01*
X92557935Y-130402000D01*
X93115000Y-130402000D01*
X93115000Y-130514250D01*
X93223750Y-130623000D01*
X93973000Y-130623000D01*
X93973000Y-130603000D01*
X94027000Y-130603000D01*
X94027000Y-130623000D01*
X94776250Y-130623000D01*
X94885000Y-130514250D01*
X94885000Y-130402000D01*
X95199995Y-130402000D01*
X95200000Y-130402001D01*
X95392107Y-130363788D01*
X95554968Y-130254968D01*
X95723000Y-130086936D01*
X95723000Y-131542608D01*
X95720494Y-131545110D01*
X95598140Y-131839772D01*
X95597861Y-132158828D01*
X95719701Y-132453703D01*
X95945110Y-132679506D01*
X96239772Y-132801860D01*
X96558828Y-132802139D01*
X96853703Y-132680299D01*
X97079506Y-132454890D01*
X97201860Y-132160228D01*
X97201989Y-132012473D01*
X97885000Y-132012473D01*
X97885000Y-132852250D01*
X97993750Y-132961000D01*
X100833000Y-132961000D01*
X100833000Y-131772750D01*
X100724250Y-131664000D01*
X98233473Y-131664000D01*
X98073592Y-131730225D01*
X97951225Y-131852592D01*
X97885000Y-132012473D01*
X97201989Y-132012473D01*
X97202139Y-131841172D01*
X97080299Y-131546297D01*
X97077000Y-131542992D01*
X97077000Y-127535750D01*
X97885000Y-127535750D01*
X97885000Y-128375527D01*
X97951225Y-128535408D01*
X98073592Y-128657775D01*
X98233473Y-128724000D01*
X100724250Y-128724000D01*
X100833000Y-128615250D01*
X100833000Y-127427000D01*
X97993750Y-127427000D01*
X97885000Y-127535750D01*
X97077000Y-127535750D01*
X97077000Y-126424473D01*
X97885000Y-126424473D01*
X97885000Y-127264250D01*
X97993750Y-127373000D01*
X100833000Y-127373000D01*
X100833000Y-126184750D01*
X100724250Y-126076000D01*
X98233473Y-126076000D01*
X98073592Y-126142225D01*
X97951225Y-126264592D01*
X97885000Y-126424473D01*
X97077000Y-126424473D01*
X97077000Y-125940447D01*
X97164746Y-125976882D01*
X97434073Y-125977117D01*
X97682989Y-125874267D01*
X97873598Y-125683990D01*
X97940856Y-125522015D01*
X97963505Y-125638749D01*
X97963505Y-125638749D01*
G37*
X97963505Y-125638749D02*
X98046498Y-125765091D01*
X98171788Y-125849663D01*
X98320000Y-125879386D01*
X102973000Y-125879386D01*
X102973000Y-126076000D01*
X100995750Y-126076000D01*
X100887000Y-126184750D01*
X100887000Y-127373000D01*
X100907000Y-127373000D01*
X100907000Y-127427000D01*
X100887000Y-127427000D01*
X100887000Y-128615250D01*
X100995750Y-128724000D01*
X102973000Y-128724000D01*
X102973000Y-128920614D01*
X98320000Y-128920614D01*
X98176251Y-128948505D01*
X98049909Y-129031498D01*
X97965337Y-129156788D01*
X97935614Y-129305000D01*
X97935614Y-131083000D01*
X97963505Y-131226749D01*
X98046498Y-131353091D01*
X98171788Y-131437663D01*
X98320000Y-131467386D01*
X102973000Y-131467386D01*
X102973000Y-131664000D01*
X100995750Y-131664000D01*
X100887000Y-131772750D01*
X100887000Y-132961000D01*
X100907000Y-132961000D01*
X100907000Y-133015000D01*
X100887000Y-133015000D01*
X100887000Y-134203250D01*
X100995750Y-134312000D01*
X102973000Y-134312000D01*
X102973000Y-136523131D01*
X100523130Y-138973000D01*
X84427981Y-138973000D01*
X84454968Y-138954968D01*
X85132907Y-138277029D01*
X85234073Y-138277117D01*
X85482989Y-138174267D01*
X85673598Y-137983990D01*
X85776882Y-137735254D01*
X85777117Y-137465927D01*
X85688724Y-137252000D01*
X85764614Y-137252000D01*
X85776498Y-137270091D01*
X85901788Y-137354663D01*
X86050000Y-137384386D01*
X86950000Y-137384386D01*
X87093749Y-137356495D01*
X87220091Y-137273502D01*
X87304663Y-137148212D01*
X87334386Y-137000000D01*
X87334386Y-136500000D01*
X87306495Y-136356251D01*
X87223502Y-136229909D01*
X87098212Y-136145337D01*
X86950000Y-136115614D01*
X86050000Y-136115614D01*
X85906251Y-136143505D01*
X85779909Y-136226498D01*
X85765395Y-136248000D01*
X83750005Y-136248000D01*
X83750000Y-136247999D01*
X83557893Y-136286212D01*
X83395032Y-136395032D01*
X83395030Y-136395035D01*
X82859386Y-136930678D01*
X82859386Y-136200000D01*
X82831495Y-136056251D01*
X82748502Y-135929909D01*
X82623212Y-135845337D01*
X82475000Y-135815614D01*
X82225000Y-135815614D01*
X82097935Y-135840268D01*
X81975000Y-135815614D01*
X81725000Y-135815614D01*
X81696888Y-135821068D01*
X81561527Y-135765000D01*
X81485750Y-135765000D01*
X81377000Y-135873750D01*
X81377000Y-136041917D01*
X81370337Y-136051788D01*
X81350155Y-136152424D01*
X81331495Y-136056251D01*
X81323000Y-136043319D01*
X81323000Y-135873750D01*
X81214250Y-135765000D01*
X81138473Y-135765000D01*
X81002814Y-135821192D01*
X80975000Y-135815614D01*
X80725000Y-135815614D01*
X80597935Y-135840268D01*
X80475000Y-135815614D01*
X80352000Y-135815614D01*
X80352000Y-135385750D01*
X85615000Y-135385750D01*
X85615000Y-135586527D01*
X85681225Y-135746408D01*
X85803592Y-135868775D01*
X85963473Y-135935000D01*
X86364250Y-135935000D01*
X86473000Y-135826250D01*
X86473000Y-135277000D01*
X86527000Y-135277000D01*
X86527000Y-135826250D01*
X86635750Y-135935000D01*
X87036527Y-135935000D01*
X87196408Y-135868775D01*
X87318775Y-135746408D01*
X87385000Y-135586527D01*
X87385000Y-135385750D01*
X87276250Y-135277000D01*
X86527000Y-135277000D01*
X86473000Y-135277000D01*
X86473000Y-135277000D01*
X85723750Y-135277000D01*
X85615000Y-135385750D01*
X80352000Y-135385750D01*
X80352000Y-135152000D01*
X82149995Y-135152000D01*
X82150000Y-135152001D01*
X82342107Y-135113788D01*
X82504968Y-135004968D01*
X83257935Y-134252000D01*
X83415614Y-134252000D01*
X83415614Y-134375000D01*
X83440268Y-134502065D01*
X83415614Y-134625000D01*
X83415614Y-134875000D01*
X83443505Y-135018749D01*
X83526498Y-135145091D01*
X83651788Y-135229663D01*
X83800000Y-135259386D01*
X84800000Y-135259386D01*
X84943749Y-135231495D01*
X85070091Y-135148502D01*
X85154663Y-135023212D01*
X85176670Y-134913473D01*
X85615000Y-134913473D01*
X85615000Y-135114250D01*
X85723750Y-135223000D01*
X86473000Y-135223000D01*
X86473000Y-134673750D01*
X86364250Y-134565000D01*
X85963473Y-134565000D01*
X85803592Y-134631225D01*
X85681225Y-134753592D01*
X85615000Y-134913473D01*
X85176670Y-134913473D01*
X85184386Y-134875000D01*
X85184386Y-134625000D01*
X85159732Y-134497935D01*
X85184386Y-134375000D01*
X85184386Y-134252000D01*
X86349995Y-134252000D01*
X86350000Y-134252001D01*
X86350005Y-134252000D01*
X86592064Y-134252000D01*
X86905064Y-134565000D01*
X86635750Y-134565000D01*
X86527000Y-134673750D01*
X86527000Y-135223000D01*
X87276250Y-135223000D01*
X87385000Y-135114250D01*
X87385000Y-135044936D01*
X88071326Y-135731262D01*
X88070583Y-135735000D01*
X88122482Y-135995914D01*
X88270278Y-136217105D01*
X88491469Y-136364901D01*
X88517103Y-136370000D01*
X88491469Y-136375099D01*
X88270278Y-136522895D01*
X88122482Y-136744086D01*
X88070583Y-137005000D01*
X88122482Y-137265914D01*
X88270278Y-137487105D01*
X88491469Y-137634901D01*
X88752383Y-137686800D01*
X89659617Y-137686800D01*
X89920531Y-137634901D01*
X90141722Y-137487105D01*
X90289518Y-137265914D01*
X90341417Y-137005000D01*
X90318773Y-136891162D01*
X90854965Y-136354970D01*
X90854968Y-136354968D01*
X90963788Y-136192107D01*
X90973091Y-136145337D01*
X91002001Y-136000000D01*
X91002000Y-135999995D01*
X91002000Y-134255463D01*
X91073598Y-134183990D01*
X91176882Y-133935254D01*
X91177117Y-133665927D01*
X91074267Y-133417011D01*
X90883990Y-133226402D01*
X90635254Y-133123118D01*
X90365927Y-133122883D01*
X90330023Y-133137718D01*
X90289518Y-132934086D01*
X90141722Y-132712895D01*
X89920531Y-132565099D01*
X89659617Y-132513200D01*
X89234135Y-132513200D01*
X87615968Y-130895032D01*
X87453107Y-130786212D01*
X87261000Y-130747999D01*
X87260995Y-130748000D01*
X85184386Y-130748000D01*
X85184386Y-130625000D01*
X85159732Y-130497935D01*
X85184386Y-130375000D01*
X85184386Y-130125000D01*
X85159732Y-129997935D01*
X85184386Y-129875000D01*
X85184386Y-129625000D01*
X85159732Y-129497935D01*
X85184386Y-129375000D01*
X85184386Y-129125000D01*
X85159732Y-128997935D01*
X85184386Y-128875000D01*
X85184386Y-128625000D01*
X85159732Y-128497935D01*
X85184386Y-128375000D01*
X85184386Y-128252000D01*
X85698925Y-128252000D01*
X85776498Y-128370091D01*
X85901788Y-128454663D01*
X86050000Y-128484386D01*
X86655678Y-128484386D01*
X86424450Y-128715614D01*
X86050000Y-128715614D01*
X85906251Y-128743505D01*
X85779909Y-128826498D01*
X85695337Y-128951788D01*
X85665614Y-129100000D01*
X85665614Y-129600000D01*
X85693505Y-129743749D01*
X85776498Y-129870091D01*
X85901788Y-129954663D01*
X86050000Y-129984386D01*
X86950000Y-129984386D01*
X87093749Y-129956495D01*
X87220091Y-129873502D01*
X87304663Y-129748212D01*
X87334386Y-129600000D01*
X87334386Y-129285750D01*
X88315000Y-129285750D01*
X88315000Y-129486527D01*
X88381225Y-129646408D01*
X88503592Y-129768775D01*
X88663473Y-129835000D01*
X89064250Y-129835000D01*
X89173000Y-129726250D01*
X89173000Y-129177000D01*
X88423750Y-129177000D01*
X88315000Y-129285750D01*
X87334386Y-129285750D01*
X87334386Y-129225550D01*
X87746463Y-128813473D01*
X88315000Y-128813473D01*
X88315000Y-129014250D01*
X88423750Y-129123000D01*
X89173000Y-129123000D01*
X89173000Y-128573750D01*
X89064250Y-128465000D01*
X88663473Y-128465000D01*
X88503592Y-128531225D01*
X88381225Y-128653592D01*
X88315000Y-128813473D01*
X87746463Y-128813473D01*
X87804968Y-128754968D01*
X87913788Y-128592107D01*
X87952001Y-128400000D01*
X87952000Y-128399995D01*
X87952000Y-127307936D01*
X88315000Y-126944936D01*
X88315000Y-126986527D01*
X88381225Y-127146408D01*
X88503592Y-127268775D01*
X88663473Y-127335000D01*
X89064250Y-127335000D01*
X89173000Y-127226250D01*
X89173000Y-126677000D01*
X89227000Y-126677000D01*
X89227000Y-127226250D01*
X89335750Y-127335000D01*
X89736527Y-127335000D01*
X89896408Y-127268775D01*
X90018775Y-127146408D01*
X90085000Y-126986527D01*
X90085000Y-126785750D01*
X89976250Y-126677000D01*
X89227000Y-126677000D01*
X89173000Y-126677000D01*
X89173000Y-126677000D01*
X89153000Y-126677000D01*
X89153000Y-126623000D01*
X89173000Y-126623000D01*
X89173000Y-126603000D01*
X89227000Y-126603000D01*
X89227000Y-126623000D01*
X89976250Y-126623000D01*
X90085000Y-126514250D01*
X90085000Y-126402000D01*
X90765614Y-126402000D01*
X90765614Y-126674451D01*
X90045032Y-127395032D01*
X89936212Y-127557893D01*
X89897999Y-127750000D01*
X89898000Y-127750005D01*
X89898000Y-128532817D01*
X89896408Y-128531225D01*
X89736527Y-128465000D01*
X89335750Y-128465000D01*
X89227000Y-128573750D01*
X89227000Y-129123000D01*
X89247000Y-129123000D01*
X89247000Y-129177000D01*
X89227000Y-129177000D01*
X89227000Y-129726250D01*
X89335750Y-129835000D01*
X89736527Y-129835000D01*
X89896408Y-129768775D01*
X89898000Y-129767183D01*
X89898000Y-130112695D01*
X89798212Y-130045337D01*
X89650000Y-130015614D01*
X88750000Y-130015614D01*
X88606251Y-130043505D01*
X88479909Y-130126498D01*
X88395337Y-130251788D01*
X88365614Y-130400000D01*
X88365614Y-130900000D01*
X88393505Y-131043749D01*
X88476498Y-131170091D01*
X88576044Y-131237286D01*
X88523118Y-131364746D01*
X88522883Y-131634073D01*
X88625733Y-131882989D01*
X88816010Y-132073598D01*
X89064746Y-132176882D01*
X89334073Y-132177117D01*
X89582989Y-132074267D01*
X89773598Y-131883990D01*
X89876882Y-131635254D01*
X89877117Y-131365927D01*
X89823756Y-131236784D01*
X89898000Y-131188013D01*
X89898000Y-131899995D01*
X89897999Y-131900000D01*
X89936212Y-132092107D01*
X90045032Y-132254968D01*
X93691736Y-135901672D01*
X93710482Y-135995914D01*
X93858278Y-136217105D01*
X94079469Y-136364901D01*
X94105103Y-136370000D01*
X94079469Y-136375099D01*
X93858278Y-136522895D01*
X93710482Y-136744086D01*
X93658583Y-137005000D01*
X93710482Y-137265914D01*
X93858278Y-137487105D01*
X94079469Y-137634901D01*
X94340383Y-137686800D01*
X95247617Y-137686800D01*
X95508531Y-137634901D01*
X95729722Y-137487105D01*
X95877518Y-137265914D01*
X95929417Y-137005000D01*
X95877518Y-136744086D01*
X95729722Y-136522895D01*
X95508531Y-136375099D01*
X95482897Y-136370000D01*
X95508531Y-136364901D01*
X95729722Y-136217105D01*
X95877518Y-135995914D01*
X95929417Y-135735000D01*
X95877518Y-135474086D01*
X95729722Y-135252895D01*
X95508531Y-135105099D01*
X95482897Y-135100000D01*
X95508531Y-135094901D01*
X95729722Y-134947105D01*
X95877518Y-134725914D01*
X95929417Y-134465000D01*
X95877518Y-134204086D01*
X95729722Y-133982895D01*
X95508531Y-133835099D01*
X95482897Y-133830000D01*
X95508531Y-133824901D01*
X95729722Y-133677105D01*
X95877518Y-133455914D01*
X95929417Y-133195000D01*
X95915245Y-133123750D01*
X97885000Y-133123750D01*
X97885000Y-133963527D01*
X97951225Y-134123408D01*
X98073592Y-134245775D01*
X98233473Y-134312000D01*
X100724250Y-134312000D01*
X100833000Y-134203250D01*
X100833000Y-133015000D01*
X97993750Y-133015000D01*
X97885000Y-133123750D01*
X95915245Y-133123750D01*
X95877518Y-132934086D01*
X95729722Y-132712895D01*
X95508531Y-132565099D01*
X95247617Y-132513200D01*
X94423135Y-132513200D01*
X93477029Y-131567093D01*
X93477117Y-131465927D01*
X93414666Y-131314783D01*
X93463473Y-131335000D01*
X93864250Y-131335000D01*
X93973000Y-131226250D01*
X93973000Y-130677000D01*
X94027000Y-130677000D01*
X94027000Y-131226250D01*
X94135750Y-131335000D01*
X94536527Y-131335000D01*
X94696408Y-131268775D01*
X94818775Y-131146408D01*
X94885000Y-130986527D01*
X94885000Y-130785750D01*
X94776250Y-130677000D01*
X94027000Y-130677000D01*
X93973000Y-130677000D01*
X93973000Y-130677000D01*
X93223750Y-130677000D01*
X93115000Y-130785750D01*
X93115000Y-130986527D01*
X93120617Y-131000087D01*
X92935254Y-130923118D01*
X92665927Y-130922883D01*
X92417011Y-131025733D01*
X92407209Y-131035518D01*
X92434386Y-130900000D01*
X92434386Y-130525549D01*
X92557935Y-130402000D01*
X93115000Y-130402000D01*
X93115000Y-130514250D01*
X93223750Y-130623000D01*
X93973000Y-130623000D01*
X93973000Y-130603000D01*
X94027000Y-130603000D01*
X94027000Y-130623000D01*
X94776250Y-130623000D01*
X94885000Y-130514250D01*
X94885000Y-130402000D01*
X95199995Y-130402000D01*
X95200000Y-130402001D01*
X95392107Y-130363788D01*
X95554968Y-130254968D01*
X95723000Y-130086936D01*
X95723000Y-131542608D01*
X95720494Y-131545110D01*
X95598140Y-131839772D01*
X95597861Y-132158828D01*
X95719701Y-132453703D01*
X95945110Y-132679506D01*
X96239772Y-132801860D01*
X96558828Y-132802139D01*
X96853703Y-132680299D01*
X97079506Y-132454890D01*
X97201860Y-132160228D01*
X97201989Y-132012473D01*
X97885000Y-132012473D01*
X97885000Y-132852250D01*
X97993750Y-132961000D01*
X100833000Y-132961000D01*
X100833000Y-131772750D01*
X100724250Y-131664000D01*
X98233473Y-131664000D01*
X98073592Y-131730225D01*
X97951225Y-131852592D01*
X97885000Y-132012473D01*
X97201989Y-132012473D01*
X97202139Y-131841172D01*
X97080299Y-131546297D01*
X97077000Y-131542992D01*
X97077000Y-127535750D01*
X97885000Y-127535750D01*
X97885000Y-128375527D01*
X97951225Y-128535408D01*
X98073592Y-128657775D01*
X98233473Y-128724000D01*
X100724250Y-128724000D01*
X100833000Y-128615250D01*
X100833000Y-127427000D01*
X97993750Y-127427000D01*
X97885000Y-127535750D01*
X97077000Y-127535750D01*
X97077000Y-126424473D01*
X97885000Y-126424473D01*
X97885000Y-127264250D01*
X97993750Y-127373000D01*
X100833000Y-127373000D01*
X100833000Y-126184750D01*
X100724250Y-126076000D01*
X98233473Y-126076000D01*
X98073592Y-126142225D01*
X97951225Y-126264592D01*
X97885000Y-126424473D01*
X97077000Y-126424473D01*
X97077000Y-125940447D01*
X97164746Y-125976882D01*
X97434073Y-125977117D01*
X97682989Y-125874267D01*
X97873598Y-125683990D01*
X97940856Y-125522015D01*
X97963505Y-125638749D01*
G36*
X70727000Y-133223000D02*
X70747000Y-133223000D01*
X70747000Y-133277000D01*
X70727000Y-133277000D01*
X70727000Y-133826250D01*
X70835750Y-133935000D01*
X71236527Y-133935000D01*
X71396408Y-133868775D01*
X71477624Y-133787560D01*
X71795032Y-134104968D01*
X71957892Y-134213788D01*
X72150000Y-134252000D01*
X72341317Y-134252000D01*
X72256251Y-134268505D01*
X72243319Y-134277000D01*
X72073750Y-134277000D01*
X71965000Y-134385750D01*
X71965000Y-134461527D01*
X72021192Y-134597186D01*
X72015614Y-134625000D01*
X72015614Y-134875000D01*
X72043505Y-135018749D01*
X72126498Y-135145091D01*
X72251788Y-135229663D01*
X72400000Y-135259386D01*
X73400000Y-135259386D01*
X73543749Y-135231495D01*
X73670091Y-135148502D01*
X73754663Y-135023212D01*
X73784386Y-134875000D01*
X73784386Y-134625000D01*
X73778932Y-134596888D01*
X73835000Y-134461527D01*
X73835000Y-134385750D01*
X73726252Y-134277002D01*
X73835000Y-134277002D01*
X73835000Y-134252000D01*
X74242064Y-134252000D01*
X74848000Y-134857935D01*
X74848000Y-135765000D01*
X74822998Y-135765000D01*
X74822998Y-135873748D01*
X74714250Y-135765000D01*
X74638473Y-135765000D01*
X74478592Y-135831225D01*
X74356225Y-135953592D01*
X74290000Y-136113473D01*
X74290000Y-136564250D01*
X74398750Y-136673000D01*
X74823000Y-136673000D01*
X74823000Y-136653000D01*
X74840614Y-136653000D01*
X74840614Y-136747000D01*
X74823000Y-136747000D01*
X74823000Y-136727000D01*
X74398750Y-136727000D01*
X74290000Y-136835750D01*
X74290000Y-137098000D01*
X71757935Y-137098000D01*
X71534386Y-136874451D01*
X71534386Y-136500000D01*
X71506495Y-136356251D01*
X71423502Y-136229909D01*
X71298212Y-136145337D01*
X71150000Y-136115614D01*
X70250000Y-136115614D01*
X70106251Y-136143505D01*
X69979909Y-136226498D01*
X69895337Y-136351788D01*
X69865614Y-136500000D01*
X69865614Y-137000000D01*
X69893505Y-137143749D01*
X69976498Y-137270091D01*
X70101788Y-137354663D01*
X70250000Y-137384386D01*
X70624450Y-137384386D01*
X70838065Y-137598000D01*
X69196935Y-137598000D01*
X68832389Y-137233454D01*
X68877518Y-137165914D01*
X68929417Y-136905000D01*
X68877518Y-136644086D01*
X68729722Y-136422895D01*
X68545458Y-136299773D01*
X68768010Y-136139026D01*
X68919619Y-135893165D01*
X68951781Y-135777321D01*
X68856272Y-135662000D01*
X67821000Y-135662000D01*
X67821000Y-135682000D01*
X67767000Y-135682000D01*
X67767000Y-135662000D01*
X67747000Y-135662000D01*
X67747000Y-135608000D01*
X67767000Y-135608000D01*
X67767000Y-135588000D01*
X67821000Y-135588000D01*
X67821000Y-135608000D01*
X68856272Y-135608000D01*
X68951781Y-135492679D01*
X68922095Y-135385750D01*
X69815000Y-135385750D01*
X69815000Y-135586527D01*
X69881225Y-135746408D01*
X70003592Y-135868775D01*
X70163473Y-135935000D01*
X70564250Y-135935000D01*
X70673000Y-135826250D01*
X70673000Y-135277000D01*
X70727000Y-135277000D01*
X70727000Y-135826250D01*
X70835750Y-135935000D01*
X71236527Y-135935000D01*
X71396408Y-135868775D01*
X71518775Y-135746408D01*
X71585000Y-135586527D01*
X71585000Y-135385750D01*
X71476250Y-135277000D01*
X70727000Y-135277000D01*
X70673000Y-135277000D01*
X70673000Y-135277000D01*
X69923750Y-135277000D01*
X69815000Y-135385750D01*
X68922095Y-135385750D01*
X68919619Y-135376835D01*
X68768010Y-135130974D01*
X68545458Y-134970227D01*
X68630395Y-134913473D01*
X69815000Y-134913473D01*
X69815000Y-135114250D01*
X69923750Y-135223000D01*
X70673000Y-135223000D01*
X70673000Y-134673750D01*
X70727000Y-134673750D01*
X70727000Y-135223000D01*
X71476250Y-135223000D01*
X71585000Y-135114250D01*
X71585000Y-134913473D01*
X71518775Y-134753592D01*
X71396408Y-134631225D01*
X71236527Y-134565000D01*
X70835750Y-134565000D01*
X70727000Y-134673750D01*
X70673000Y-134673750D01*
X70673000Y-134673750D01*
X70564250Y-134565000D01*
X70163473Y-134565000D01*
X70003592Y-134631225D01*
X69881225Y-134753592D01*
X69815000Y-134913473D01*
X68630395Y-134913473D01*
X68729722Y-134847105D01*
X68877518Y-134625914D01*
X68900733Y-134509203D01*
X69817463Y-133592473D01*
X69881225Y-133746408D01*
X70003592Y-133868775D01*
X70163473Y-133935000D01*
X70564250Y-133935000D01*
X70673000Y-133826250D01*
X70673000Y-133277000D01*
X70653000Y-133277000D01*
X70653000Y-133223000D01*
X70673000Y-133223000D01*
X70673000Y-133203000D01*
X70727000Y-133203000D01*
X70727000Y-133223000D01*
X70727000Y-133223000D01*
G37*
X70727000Y-133223000D02*
X70747000Y-133223000D01*
X70747000Y-133277000D01*
X70727000Y-133277000D01*
X70727000Y-133826250D01*
X70835750Y-133935000D01*
X71236527Y-133935000D01*
X71396408Y-133868775D01*
X71477624Y-133787560D01*
X71795032Y-134104968D01*
X71957892Y-134213788D01*
X72150000Y-134252000D01*
X72341317Y-134252000D01*
X72256251Y-134268505D01*
X72243319Y-134277000D01*
X72073750Y-134277000D01*
X71965000Y-134385750D01*
X71965000Y-134461527D01*
X72021192Y-134597186D01*
X72015614Y-134625000D01*
X72015614Y-134875000D01*
X72043505Y-135018749D01*
X72126498Y-135145091D01*
X72251788Y-135229663D01*
X72400000Y-135259386D01*
X73400000Y-135259386D01*
X73543749Y-135231495D01*
X73670091Y-135148502D01*
X73754663Y-135023212D01*
X73784386Y-134875000D01*
X73784386Y-134625000D01*
X73778932Y-134596888D01*
X73835000Y-134461527D01*
X73835000Y-134385750D01*
X73726252Y-134277002D01*
X73835000Y-134277002D01*
X73835000Y-134252000D01*
X74242064Y-134252000D01*
X74848000Y-134857935D01*
X74848000Y-135765000D01*
X74822998Y-135765000D01*
X74822998Y-135873748D01*
X74714250Y-135765000D01*
X74638473Y-135765000D01*
X74478592Y-135831225D01*
X74356225Y-135953592D01*
X74290000Y-136113473D01*
X74290000Y-136564250D01*
X74398750Y-136673000D01*
X74823000Y-136673000D01*
X74823000Y-136653000D01*
X74840614Y-136653000D01*
X74840614Y-136747000D01*
X74823000Y-136747000D01*
X74823000Y-136727000D01*
X74398750Y-136727000D01*
X74290000Y-136835750D01*
X74290000Y-137098000D01*
X71757935Y-137098000D01*
X71534386Y-136874451D01*
X71534386Y-136500000D01*
X71506495Y-136356251D01*
X71423502Y-136229909D01*
X71298212Y-136145337D01*
X71150000Y-136115614D01*
X70250000Y-136115614D01*
X70106251Y-136143505D01*
X69979909Y-136226498D01*
X69895337Y-136351788D01*
X69865614Y-136500000D01*
X69865614Y-137000000D01*
X69893505Y-137143749D01*
X69976498Y-137270091D01*
X70101788Y-137354663D01*
X70250000Y-137384386D01*
X70624450Y-137384386D01*
X70838065Y-137598000D01*
X69196935Y-137598000D01*
X68832389Y-137233454D01*
X68877518Y-137165914D01*
X68929417Y-136905000D01*
X68877518Y-136644086D01*
X68729722Y-136422895D01*
X68545458Y-136299773D01*
X68768010Y-136139026D01*
X68919619Y-135893165D01*
X68951781Y-135777321D01*
X68856272Y-135662000D01*
X67821000Y-135662000D01*
X67821000Y-135682000D01*
X67767000Y-135682000D01*
X67767000Y-135662000D01*
X67747000Y-135662000D01*
X67747000Y-135608000D01*
X67767000Y-135608000D01*
X67767000Y-135588000D01*
X67821000Y-135588000D01*
X67821000Y-135608000D01*
X68856272Y-135608000D01*
X68951781Y-135492679D01*
X68922095Y-135385750D01*
X69815000Y-135385750D01*
X69815000Y-135586527D01*
X69881225Y-135746408D01*
X70003592Y-135868775D01*
X70163473Y-135935000D01*
X70564250Y-135935000D01*
X70673000Y-135826250D01*
X70673000Y-135277000D01*
X70727000Y-135277000D01*
X70727000Y-135826250D01*
X70835750Y-135935000D01*
X71236527Y-135935000D01*
X71396408Y-135868775D01*
X71518775Y-135746408D01*
X71585000Y-135586527D01*
X71585000Y-135385750D01*
X71476250Y-135277000D01*
X70727000Y-135277000D01*
X70673000Y-135277000D01*
X70673000Y-135277000D01*
X69923750Y-135277000D01*
X69815000Y-135385750D01*
X68922095Y-135385750D01*
X68919619Y-135376835D01*
X68768010Y-135130974D01*
X68545458Y-134970227D01*
X68630395Y-134913473D01*
X69815000Y-134913473D01*
X69815000Y-135114250D01*
X69923750Y-135223000D01*
X70673000Y-135223000D01*
X70673000Y-134673750D01*
X70727000Y-134673750D01*
X70727000Y-135223000D01*
X71476250Y-135223000D01*
X71585000Y-135114250D01*
X71585000Y-134913473D01*
X71518775Y-134753592D01*
X71396408Y-134631225D01*
X71236527Y-134565000D01*
X70835750Y-134565000D01*
X70727000Y-134673750D01*
X70673000Y-134673750D01*
X70673000Y-134673750D01*
X70564250Y-134565000D01*
X70163473Y-134565000D01*
X70003592Y-134631225D01*
X69881225Y-134753592D01*
X69815000Y-134913473D01*
X68630395Y-134913473D01*
X68729722Y-134847105D01*
X68877518Y-134625914D01*
X68900733Y-134509203D01*
X69817463Y-133592473D01*
X69881225Y-133746408D01*
X70003592Y-133868775D01*
X70163473Y-133935000D01*
X70564250Y-133935000D01*
X70673000Y-133826250D01*
X70673000Y-133277000D01*
X70653000Y-133277000D01*
X70653000Y-133223000D01*
X70673000Y-133223000D01*
X70673000Y-133203000D01*
X70727000Y-133203000D01*
X70727000Y-133223000D01*
G36*
X79348000Y-135765000D02*
X79322998Y-135765000D01*
X79322998Y-135873748D01*
X79214250Y-135765000D01*
X79138473Y-135765000D01*
X79002814Y-135821192D01*
X78975000Y-135815614D01*
X78725000Y-135815614D01*
X78597935Y-135840268D01*
X78475000Y-135815614D01*
X78225000Y-135815614D01*
X78097935Y-135840268D01*
X77975000Y-135815614D01*
X77725000Y-135815614D01*
X77597935Y-135840268D01*
X77475000Y-135815614D01*
X77225000Y-135815614D01*
X77097935Y-135840268D01*
X76975000Y-135815614D01*
X76725000Y-135815614D01*
X76597935Y-135840268D01*
X76475000Y-135815614D01*
X76225000Y-135815614D01*
X76097935Y-135840268D01*
X75975000Y-135815614D01*
X75852000Y-135815614D01*
X75852000Y-135152000D01*
X79348000Y-135152000D01*
X79348000Y-135765000D01*
X79348000Y-135765000D01*
G37*
X79348000Y-135765000D02*
X79322998Y-135765000D01*
X79322998Y-135873748D01*
X79214250Y-135765000D01*
X79138473Y-135765000D01*
X79002814Y-135821192D01*
X78975000Y-135815614D01*
X78725000Y-135815614D01*
X78597935Y-135840268D01*
X78475000Y-135815614D01*
X78225000Y-135815614D01*
X78097935Y-135840268D01*
X77975000Y-135815614D01*
X77725000Y-135815614D01*
X77597935Y-135840268D01*
X77475000Y-135815614D01*
X77225000Y-135815614D01*
X77097935Y-135840268D01*
X76975000Y-135815614D01*
X76725000Y-135815614D01*
X76597935Y-135840268D01*
X76475000Y-135815614D01*
X76225000Y-135815614D01*
X76097935Y-135840268D01*
X75975000Y-135815614D01*
X75852000Y-135815614D01*
X75852000Y-135152000D01*
X79348000Y-135152000D01*
X79348000Y-135765000D01*
G36*
X89233000Y-134438000D02*
X89253000Y-134438000D01*
X89253000Y-134492000D01*
X89233000Y-134492000D01*
X89233000Y-134512000D01*
X89179000Y-134512000D01*
X89179000Y-134492000D01*
X89159000Y-134492000D01*
X89159000Y-134438000D01*
X89179000Y-134438000D01*
X89179000Y-134418000D01*
X89233000Y-134418000D01*
X89233000Y-134438000D01*
X89233000Y-134438000D01*
G37*
X89233000Y-134438000D02*
X89253000Y-134438000D01*
X89253000Y-134492000D01*
X89233000Y-134492000D01*
X89233000Y-134512000D01*
X89179000Y-134512000D01*
X89179000Y-134492000D01*
X89159000Y-134492000D01*
X89159000Y-134438000D01*
X89179000Y-134438000D01*
X89179000Y-134418000D01*
X89233000Y-134418000D01*
X89233000Y-134438000D01*
G36*
X85615000Y-131814250D02*
X85723750Y-131923000D01*
X86473000Y-131923000D01*
X86473000Y-131903000D01*
X86527000Y-131903000D01*
X86527000Y-131923000D01*
X86547000Y-131923000D01*
X86547000Y-131977000D01*
X86527000Y-131977000D01*
X86527000Y-132526250D01*
X86635750Y-132635000D01*
X87036527Y-132635000D01*
X87196408Y-132568775D01*
X87318775Y-132446408D01*
X87385000Y-132286527D01*
X87385000Y-132085750D01*
X87276252Y-131977002D01*
X87278066Y-131977002D01*
X88167611Y-132866546D01*
X88122482Y-132934086D01*
X88070583Y-133195000D01*
X88122482Y-133455914D01*
X88270278Y-133677105D01*
X88454542Y-133800227D01*
X88231990Y-133960974D01*
X88080381Y-134206835D01*
X88055693Y-134295757D01*
X87334386Y-133574450D01*
X87334386Y-133200000D01*
X87306495Y-133056251D01*
X87223502Y-132929909D01*
X87098212Y-132845337D01*
X86950000Y-132815614D01*
X86050000Y-132815614D01*
X85906251Y-132843505D01*
X85779909Y-132926498D01*
X85695337Y-133051788D01*
X85665614Y-133200000D01*
X85665614Y-133248000D01*
X85235000Y-133248000D01*
X85235000Y-133222998D01*
X85126252Y-133222998D01*
X85235000Y-133114250D01*
X85235000Y-133038473D01*
X85178808Y-132902814D01*
X85184386Y-132875000D01*
X85184386Y-132625000D01*
X85159732Y-132497935D01*
X85184386Y-132375000D01*
X85184386Y-132125000D01*
X85176771Y-132085750D01*
X85615000Y-132085750D01*
X85615000Y-132286527D01*
X85681225Y-132446408D01*
X85803592Y-132568775D01*
X85963473Y-132635000D01*
X86364250Y-132635000D01*
X86473000Y-132526250D01*
X86473000Y-131977000D01*
X85723750Y-131977000D01*
X85615000Y-132085750D01*
X85176771Y-132085750D01*
X85159732Y-131997935D01*
X85184386Y-131875000D01*
X85184386Y-131752000D01*
X85615000Y-131752000D01*
X85615000Y-131814250D01*
X85615000Y-131814250D01*
G37*
X85615000Y-131814250D02*
X85723750Y-131923000D01*
X86473000Y-131923000D01*
X86473000Y-131903000D01*
X86527000Y-131903000D01*
X86527000Y-131923000D01*
X86547000Y-131923000D01*
X86547000Y-131977000D01*
X86527000Y-131977000D01*
X86527000Y-132526250D01*
X86635750Y-132635000D01*
X87036527Y-132635000D01*
X87196408Y-132568775D01*
X87318775Y-132446408D01*
X87385000Y-132286527D01*
X87385000Y-132085750D01*
X87276252Y-131977002D01*
X87278066Y-131977002D01*
X88167611Y-132866546D01*
X88122482Y-132934086D01*
X88070583Y-133195000D01*
X88122482Y-133455914D01*
X88270278Y-133677105D01*
X88454542Y-133800227D01*
X88231990Y-133960974D01*
X88080381Y-134206835D01*
X88055693Y-134295757D01*
X87334386Y-133574450D01*
X87334386Y-133200000D01*
X87306495Y-133056251D01*
X87223502Y-132929909D01*
X87098212Y-132845337D01*
X86950000Y-132815614D01*
X86050000Y-132815614D01*
X85906251Y-132843505D01*
X85779909Y-132926498D01*
X85695337Y-133051788D01*
X85665614Y-133200000D01*
X85665614Y-133248000D01*
X85235000Y-133248000D01*
X85235000Y-133222998D01*
X85126252Y-133222998D01*
X85235000Y-133114250D01*
X85235000Y-133038473D01*
X85178808Y-132902814D01*
X85184386Y-132875000D01*
X85184386Y-132625000D01*
X85159732Y-132497935D01*
X85184386Y-132375000D01*
X85184386Y-132125000D01*
X85176771Y-132085750D01*
X85615000Y-132085750D01*
X85615000Y-132286527D01*
X85681225Y-132446408D01*
X85803592Y-132568775D01*
X85963473Y-132635000D01*
X86364250Y-132635000D01*
X86473000Y-132526250D01*
X86473000Y-131977000D01*
X85723750Y-131977000D01*
X85615000Y-132085750D01*
X85176771Y-132085750D01*
X85159732Y-131997935D01*
X85184386Y-131875000D01*
X85184386Y-131752000D01*
X85615000Y-131752000D01*
X85615000Y-131814250D01*
G36*
X83398000Y-125492065D02*
X82745032Y-126145032D01*
X82636212Y-126307893D01*
X82597999Y-126500000D01*
X82598000Y-126500005D01*
X82598000Y-127299995D01*
X82597999Y-127300000D01*
X82636212Y-127492107D01*
X82745032Y-127654968D01*
X82838064Y-127748000D01*
X82350000Y-127748000D01*
X82157892Y-127786212D01*
X82092660Y-127829800D01*
X81995032Y-127895032D01*
X81995030Y-127895035D01*
X80645032Y-129245032D01*
X80536212Y-129407893D01*
X80497999Y-129600000D01*
X80498000Y-129600005D01*
X80498000Y-133444537D01*
X80426402Y-133516010D01*
X80323118Y-133764746D01*
X80322883Y-134034073D01*
X80369957Y-134148000D01*
X79800005Y-134148000D01*
X79800000Y-134147999D01*
X79799995Y-134148000D01*
X75557935Y-134148000D01*
X74952000Y-133542064D01*
X74952000Y-129357936D01*
X75107936Y-129202000D01*
X79099995Y-129202000D01*
X79100000Y-129202001D01*
X79292107Y-129163788D01*
X79454968Y-129054968D01*
X81704965Y-126804970D01*
X81704968Y-126804968D01*
X81813788Y-126642107D01*
X81822164Y-126600000D01*
X81852001Y-126450000D01*
X81852000Y-126449995D01*
X81852000Y-126184386D01*
X81975000Y-126184386D01*
X82102065Y-126159732D01*
X82225000Y-126184386D01*
X82475000Y-126184386D01*
X82618749Y-126156495D01*
X82745091Y-126073502D01*
X82829663Y-125948212D01*
X82859386Y-125800000D01*
X82859386Y-124800000D01*
X82831495Y-124656251D01*
X82748502Y-124529909D01*
X82623212Y-124445337D01*
X82475000Y-124415614D01*
X82225000Y-124415614D01*
X82097935Y-124440268D01*
X81975000Y-124415614D01*
X81852000Y-124415614D01*
X81852000Y-123539386D01*
X83390000Y-123539386D01*
X83398000Y-123537834D01*
X83398000Y-125492065D01*
X83398000Y-125492065D01*
G37*
X83398000Y-125492065D02*
X82745032Y-126145032D01*
X82636212Y-126307893D01*
X82597999Y-126500000D01*
X82598000Y-126500005D01*
X82598000Y-127299995D01*
X82597999Y-127300000D01*
X82636212Y-127492107D01*
X82745032Y-127654968D01*
X82838064Y-127748000D01*
X82350000Y-127748000D01*
X82157892Y-127786212D01*
X82092660Y-127829800D01*
X81995032Y-127895032D01*
X81995030Y-127895035D01*
X80645032Y-129245032D01*
X80536212Y-129407893D01*
X80497999Y-129600000D01*
X80498000Y-129600005D01*
X80498000Y-133444537D01*
X80426402Y-133516010D01*
X80323118Y-133764746D01*
X80322883Y-134034073D01*
X80369957Y-134148000D01*
X79800005Y-134148000D01*
X79800000Y-134147999D01*
X79799995Y-134148000D01*
X75557935Y-134148000D01*
X74952000Y-133542064D01*
X74952000Y-129357936D01*
X75107936Y-129202000D01*
X79099995Y-129202000D01*
X79100000Y-129202001D01*
X79292107Y-129163788D01*
X79454968Y-129054968D01*
X81704965Y-126804970D01*
X81704968Y-126804968D01*
X81813788Y-126642107D01*
X81822164Y-126600000D01*
X81852001Y-126450000D01*
X81852000Y-126449995D01*
X81852000Y-126184386D01*
X81975000Y-126184386D01*
X82102065Y-126159732D01*
X82225000Y-126184386D01*
X82475000Y-126184386D01*
X82618749Y-126156495D01*
X82745091Y-126073502D01*
X82829663Y-125948212D01*
X82859386Y-125800000D01*
X82859386Y-124800000D01*
X82831495Y-124656251D01*
X82748502Y-124529909D01*
X82623212Y-124445337D01*
X82475000Y-124415614D01*
X82225000Y-124415614D01*
X82097935Y-124440268D01*
X81975000Y-124415614D01*
X81852000Y-124415614D01*
X81852000Y-123539386D01*
X83390000Y-123539386D01*
X83398000Y-123537834D01*
X83398000Y-125492065D01*
G36*
X83415614Y-129375000D02*
X83440268Y-129502065D01*
X83415614Y-129625000D01*
X83415614Y-129875000D01*
X83440268Y-130002065D01*
X83415614Y-130125000D01*
X83415614Y-130375000D01*
X83440268Y-130502065D01*
X83415614Y-130625000D01*
X83415614Y-130875000D01*
X83440268Y-131002065D01*
X83415614Y-131125000D01*
X83415614Y-131248000D01*
X83195177Y-131248000D01*
X83135254Y-131223118D01*
X82865927Y-131222883D01*
X82617011Y-131325733D01*
X82426402Y-131516010D01*
X82323118Y-131764746D01*
X82322883Y-132034073D01*
X82425733Y-132282989D01*
X82616010Y-132473598D01*
X82864746Y-132576882D01*
X83134073Y-132577117D01*
X83382989Y-132474267D01*
X83426455Y-132430876D01*
X83440268Y-132502065D01*
X83415614Y-132625000D01*
X83415614Y-132875000D01*
X83421068Y-132903112D01*
X83365000Y-133038473D01*
X83365000Y-133114250D01*
X83473748Y-133222998D01*
X83365000Y-133222998D01*
X83365000Y-133248000D01*
X83050000Y-133248000D01*
X82857892Y-133286212D01*
X82797744Y-133326402D01*
X82695032Y-133395032D01*
X82695030Y-133395035D01*
X82603150Y-133486914D01*
X82574267Y-133417011D01*
X82383990Y-133226402D01*
X82135254Y-133123118D01*
X82102000Y-133123089D01*
X82102000Y-129957938D01*
X82807937Y-129252000D01*
X83415614Y-129252000D01*
X83415614Y-129375000D01*
X83415614Y-129375000D01*
G37*
X83415614Y-129375000D02*
X83440268Y-129502065D01*
X83415614Y-129625000D01*
X83415614Y-129875000D01*
X83440268Y-130002065D01*
X83415614Y-130125000D01*
X83415614Y-130375000D01*
X83440268Y-130502065D01*
X83415614Y-130625000D01*
X83415614Y-130875000D01*
X83440268Y-131002065D01*
X83415614Y-131125000D01*
X83415614Y-131248000D01*
X83195177Y-131248000D01*
X83135254Y-131223118D01*
X82865927Y-131222883D01*
X82617011Y-131325733D01*
X82426402Y-131516010D01*
X82323118Y-131764746D01*
X82322883Y-132034073D01*
X82425733Y-132282989D01*
X82616010Y-132473598D01*
X82864746Y-132576882D01*
X83134073Y-132577117D01*
X83382989Y-132474267D01*
X83426455Y-132430876D01*
X83440268Y-132502065D01*
X83415614Y-132625000D01*
X83415614Y-132875000D01*
X83421068Y-132903112D01*
X83365000Y-133038473D01*
X83365000Y-133114250D01*
X83473748Y-133222998D01*
X83365000Y-133222998D01*
X83365000Y-133248000D01*
X83050000Y-133248000D01*
X82857892Y-133286212D01*
X82797744Y-133326402D01*
X82695032Y-133395032D01*
X82695030Y-133395035D01*
X82603150Y-133486914D01*
X82574267Y-133417011D01*
X82383990Y-133226402D01*
X82135254Y-133123118D01*
X82102000Y-133123089D01*
X82102000Y-129957938D01*
X82807937Y-129252000D01*
X83415614Y-129252000D01*
X83415614Y-129375000D01*
G36*
X58825733Y-125282989D02*
X59016010Y-125473598D01*
X59264746Y-125576882D01*
X59534073Y-125577117D01*
X59782989Y-125474267D01*
X59955557Y-125302000D01*
X61465614Y-125302000D01*
X61465614Y-125800000D01*
X61493505Y-125943749D01*
X61576498Y-126070091D01*
X61701788Y-126154663D01*
X61850000Y-126184386D01*
X62750000Y-126184386D01*
X62893749Y-126156495D01*
X63020091Y-126073502D01*
X63034605Y-126052000D01*
X63764614Y-126052000D01*
X63776498Y-126070091D01*
X63901788Y-126154663D01*
X64050000Y-126184386D01*
X64950000Y-126184386D01*
X65093749Y-126156495D01*
X65220091Y-126073502D01*
X65304663Y-125948212D01*
X65313603Y-125903633D01*
X65325733Y-125932989D01*
X65398000Y-126005382D01*
X65398000Y-131192064D01*
X65385000Y-131205064D01*
X65385000Y-131185750D01*
X65276250Y-131077000D01*
X64527000Y-131077000D01*
X64527000Y-131626250D01*
X64635750Y-131735000D01*
X64855064Y-131735000D01*
X63517093Y-133072971D01*
X63415927Y-133072883D01*
X63339538Y-133104446D01*
X63341417Y-133095000D01*
X63289518Y-132834086D01*
X63177649Y-132666664D01*
X63192107Y-132663788D01*
X63354968Y-132554968D01*
X63604965Y-132304970D01*
X63604968Y-132304968D01*
X63690552Y-132176882D01*
X63713788Y-132142108D01*
X63752000Y-131950000D01*
X63752000Y-131617183D01*
X63803592Y-131668775D01*
X63963473Y-131735000D01*
X64364250Y-131735000D01*
X64473000Y-131626250D01*
X64473000Y-131077000D01*
X64453000Y-131077000D01*
X64453000Y-131023000D01*
X64473000Y-131023000D01*
X64473000Y-130473750D01*
X64527000Y-130473750D01*
X64527000Y-131023000D01*
X65276250Y-131023000D01*
X65385000Y-130914250D01*
X65385000Y-130713473D01*
X65318775Y-130553592D01*
X65196408Y-130431225D01*
X65036527Y-130365000D01*
X64635750Y-130365000D01*
X64527000Y-130473750D01*
X64473000Y-130473750D01*
X64473000Y-130473750D01*
X64364250Y-130365000D01*
X63963473Y-130365000D01*
X63803592Y-130431225D01*
X63740854Y-130493963D01*
X63713788Y-130357893D01*
X63708514Y-130350000D01*
X63604968Y-130195032D01*
X63604965Y-130195030D01*
X63461936Y-130052000D01*
X63764614Y-130052000D01*
X63776498Y-130070091D01*
X63901788Y-130154663D01*
X64050000Y-130184386D01*
X64950000Y-130184386D01*
X65093749Y-130156495D01*
X65220091Y-130073502D01*
X65304663Y-129948212D01*
X65334386Y-129800000D01*
X65334386Y-129300000D01*
X65306495Y-129156251D01*
X65223502Y-129029909D01*
X65098212Y-128945337D01*
X64950000Y-128915614D01*
X64050000Y-128915614D01*
X63906251Y-128943505D01*
X63779909Y-129026498D01*
X63765395Y-129048000D01*
X63211936Y-129048000D01*
X64575549Y-127684386D01*
X64950000Y-127684386D01*
X65093749Y-127656495D01*
X65220091Y-127573502D01*
X65304663Y-127448212D01*
X65334386Y-127300000D01*
X65334386Y-126800000D01*
X65306495Y-126656251D01*
X65223502Y-126529909D01*
X65098212Y-126445337D01*
X64950000Y-126415614D01*
X64050000Y-126415614D01*
X63906251Y-126443505D01*
X63779909Y-126526498D01*
X63695337Y-126651788D01*
X63665614Y-126800000D01*
X63665614Y-127174451D01*
X62642064Y-128198000D01*
X60200005Y-128198000D01*
X60200000Y-128197999D01*
X60199995Y-128198000D01*
X59400005Y-128198000D01*
X59400000Y-128197999D01*
X59240817Y-128229663D01*
X59207893Y-128236212D01*
X59045032Y-128345032D01*
X59045030Y-128345035D01*
X58815000Y-128575065D01*
X58815000Y-127735750D01*
X58706250Y-127627000D01*
X55867000Y-127627000D01*
X55867000Y-128815250D01*
X55975750Y-128924000D01*
X58466065Y-128924000D01*
X58269451Y-129120614D01*
X53727000Y-129120614D01*
X53727000Y-128924000D01*
X55704250Y-128924000D01*
X55813000Y-128815250D01*
X55813000Y-127627000D01*
X55793000Y-127627000D01*
X55793000Y-127573000D01*
X55813000Y-127573000D01*
X55813000Y-126384750D01*
X55867000Y-126384750D01*
X55867000Y-127573000D01*
X58706250Y-127573000D01*
X58815000Y-127464250D01*
X58815000Y-127185750D01*
X61415000Y-127185750D01*
X61415000Y-127386527D01*
X61481225Y-127546408D01*
X61603592Y-127668775D01*
X61763473Y-127735000D01*
X62164250Y-127735000D01*
X62273000Y-127626250D01*
X62273000Y-127077000D01*
X62327000Y-127077000D01*
X62327000Y-127626250D01*
X62435750Y-127735000D01*
X62836527Y-127735000D01*
X62996408Y-127668775D01*
X63118775Y-127546408D01*
X63185000Y-127386527D01*
X63185000Y-127185750D01*
X63076250Y-127077000D01*
X62327000Y-127077000D01*
X62273000Y-127077000D01*
X62273000Y-127077000D01*
X61523750Y-127077000D01*
X61415000Y-127185750D01*
X58815000Y-127185750D01*
X58815000Y-126713473D01*
X61415000Y-126713473D01*
X61415000Y-126914250D01*
X61523750Y-127023000D01*
X62273000Y-127023000D01*
X62273000Y-126473750D01*
X62327000Y-126473750D01*
X62327000Y-127023000D01*
X63076250Y-127023000D01*
X63185000Y-126914250D01*
X63185000Y-126713473D01*
X63118775Y-126553592D01*
X62996408Y-126431225D01*
X62836527Y-126365000D01*
X62435750Y-126365000D01*
X62327000Y-126473750D01*
X62273000Y-126473750D01*
X62273000Y-126473750D01*
X62164250Y-126365000D01*
X61763473Y-126365000D01*
X61603592Y-126431225D01*
X61481225Y-126553592D01*
X61415000Y-126713473D01*
X58815000Y-126713473D01*
X58815000Y-126624473D01*
X58748775Y-126464592D01*
X58626408Y-126342225D01*
X58466527Y-126276000D01*
X55975750Y-126276000D01*
X55867000Y-126384750D01*
X55813000Y-126384750D01*
X55813000Y-126384750D01*
X55704250Y-126276000D01*
X53727000Y-126276000D01*
X53727000Y-126079386D01*
X58380000Y-126079386D01*
X58523749Y-126051495D01*
X58650091Y-125968502D01*
X58734663Y-125843212D01*
X58764386Y-125695000D01*
X58764386Y-125134518D01*
X58825733Y-125282989D01*
X58825733Y-125282989D01*
G37*
X58825733Y-125282989D02*
X59016010Y-125473598D01*
X59264746Y-125576882D01*
X59534073Y-125577117D01*
X59782989Y-125474267D01*
X59955557Y-125302000D01*
X61465614Y-125302000D01*
X61465614Y-125800000D01*
X61493505Y-125943749D01*
X61576498Y-126070091D01*
X61701788Y-126154663D01*
X61850000Y-126184386D01*
X62750000Y-126184386D01*
X62893749Y-126156495D01*
X63020091Y-126073502D01*
X63034605Y-126052000D01*
X63764614Y-126052000D01*
X63776498Y-126070091D01*
X63901788Y-126154663D01*
X64050000Y-126184386D01*
X64950000Y-126184386D01*
X65093749Y-126156495D01*
X65220091Y-126073502D01*
X65304663Y-125948212D01*
X65313603Y-125903633D01*
X65325733Y-125932989D01*
X65398000Y-126005382D01*
X65398000Y-131192064D01*
X65385000Y-131205064D01*
X65385000Y-131185750D01*
X65276250Y-131077000D01*
X64527000Y-131077000D01*
X64527000Y-131626250D01*
X64635750Y-131735000D01*
X64855064Y-131735000D01*
X63517093Y-133072971D01*
X63415927Y-133072883D01*
X63339538Y-133104446D01*
X63341417Y-133095000D01*
X63289518Y-132834086D01*
X63177649Y-132666664D01*
X63192107Y-132663788D01*
X63354968Y-132554968D01*
X63604965Y-132304970D01*
X63604968Y-132304968D01*
X63690552Y-132176882D01*
X63713788Y-132142108D01*
X63752000Y-131950000D01*
X63752000Y-131617183D01*
X63803592Y-131668775D01*
X63963473Y-131735000D01*
X64364250Y-131735000D01*
X64473000Y-131626250D01*
X64473000Y-131077000D01*
X64453000Y-131077000D01*
X64453000Y-131023000D01*
X64473000Y-131023000D01*
X64473000Y-130473750D01*
X64527000Y-130473750D01*
X64527000Y-131023000D01*
X65276250Y-131023000D01*
X65385000Y-130914250D01*
X65385000Y-130713473D01*
X65318775Y-130553592D01*
X65196408Y-130431225D01*
X65036527Y-130365000D01*
X64635750Y-130365000D01*
X64527000Y-130473750D01*
X64473000Y-130473750D01*
X64473000Y-130473750D01*
X64364250Y-130365000D01*
X63963473Y-130365000D01*
X63803592Y-130431225D01*
X63740854Y-130493963D01*
X63713788Y-130357893D01*
X63708514Y-130350000D01*
X63604968Y-130195032D01*
X63604965Y-130195030D01*
X63461936Y-130052000D01*
X63764614Y-130052000D01*
X63776498Y-130070091D01*
X63901788Y-130154663D01*
X64050000Y-130184386D01*
X64950000Y-130184386D01*
X65093749Y-130156495D01*
X65220091Y-130073502D01*
X65304663Y-129948212D01*
X65334386Y-129800000D01*
X65334386Y-129300000D01*
X65306495Y-129156251D01*
X65223502Y-129029909D01*
X65098212Y-128945337D01*
X64950000Y-128915614D01*
X64050000Y-128915614D01*
X63906251Y-128943505D01*
X63779909Y-129026498D01*
X63765395Y-129048000D01*
X63211936Y-129048000D01*
X64575549Y-127684386D01*
X64950000Y-127684386D01*
X65093749Y-127656495D01*
X65220091Y-127573502D01*
X65304663Y-127448212D01*
X65334386Y-127300000D01*
X65334386Y-126800000D01*
X65306495Y-126656251D01*
X65223502Y-126529909D01*
X65098212Y-126445337D01*
X64950000Y-126415614D01*
X64050000Y-126415614D01*
X63906251Y-126443505D01*
X63779909Y-126526498D01*
X63695337Y-126651788D01*
X63665614Y-126800000D01*
X63665614Y-127174451D01*
X62642064Y-128198000D01*
X60200005Y-128198000D01*
X60200000Y-128197999D01*
X60199995Y-128198000D01*
X59400005Y-128198000D01*
X59400000Y-128197999D01*
X59240817Y-128229663D01*
X59207893Y-128236212D01*
X59045032Y-128345032D01*
X59045030Y-128345035D01*
X58815000Y-128575065D01*
X58815000Y-127735750D01*
X58706250Y-127627000D01*
X55867000Y-127627000D01*
X55867000Y-128815250D01*
X55975750Y-128924000D01*
X58466065Y-128924000D01*
X58269451Y-129120614D01*
X53727000Y-129120614D01*
X53727000Y-128924000D01*
X55704250Y-128924000D01*
X55813000Y-128815250D01*
X55813000Y-127627000D01*
X55793000Y-127627000D01*
X55793000Y-127573000D01*
X55813000Y-127573000D01*
X55813000Y-126384750D01*
X55867000Y-126384750D01*
X55867000Y-127573000D01*
X58706250Y-127573000D01*
X58815000Y-127464250D01*
X58815000Y-127185750D01*
X61415000Y-127185750D01*
X61415000Y-127386527D01*
X61481225Y-127546408D01*
X61603592Y-127668775D01*
X61763473Y-127735000D01*
X62164250Y-127735000D01*
X62273000Y-127626250D01*
X62273000Y-127077000D01*
X62327000Y-127077000D01*
X62327000Y-127626250D01*
X62435750Y-127735000D01*
X62836527Y-127735000D01*
X62996408Y-127668775D01*
X63118775Y-127546408D01*
X63185000Y-127386527D01*
X63185000Y-127185750D01*
X63076250Y-127077000D01*
X62327000Y-127077000D01*
X62273000Y-127077000D01*
X62273000Y-127077000D01*
X61523750Y-127077000D01*
X61415000Y-127185750D01*
X58815000Y-127185750D01*
X58815000Y-126713473D01*
X61415000Y-126713473D01*
X61415000Y-126914250D01*
X61523750Y-127023000D01*
X62273000Y-127023000D01*
X62273000Y-126473750D01*
X62327000Y-126473750D01*
X62327000Y-127023000D01*
X63076250Y-127023000D01*
X63185000Y-126914250D01*
X63185000Y-126713473D01*
X63118775Y-126553592D01*
X62996408Y-126431225D01*
X62836527Y-126365000D01*
X62435750Y-126365000D01*
X62327000Y-126473750D01*
X62273000Y-126473750D01*
X62273000Y-126473750D01*
X62164250Y-126365000D01*
X61763473Y-126365000D01*
X61603592Y-126431225D01*
X61481225Y-126553592D01*
X61415000Y-126713473D01*
X58815000Y-126713473D01*
X58815000Y-126624473D01*
X58748775Y-126464592D01*
X58626408Y-126342225D01*
X58466527Y-126276000D01*
X55975750Y-126276000D01*
X55867000Y-126384750D01*
X55813000Y-126384750D01*
X55813000Y-126384750D01*
X55704250Y-126276000D01*
X53727000Y-126276000D01*
X53727000Y-126079386D01*
X58380000Y-126079386D01*
X58523749Y-126051495D01*
X58650091Y-125968502D01*
X58734663Y-125843212D01*
X58764386Y-125695000D01*
X58764386Y-125134518D01*
X58825733Y-125282989D01*
G36*
X66976498Y-127470091D02*
X67101788Y-127554663D01*
X67250000Y-127584386D01*
X67624450Y-127584386D01*
X68345030Y-128304965D01*
X68345032Y-128304968D01*
X68479823Y-128395032D01*
X68507893Y-128413788D01*
X68700000Y-128452001D01*
X68700005Y-128452000D01*
X69864614Y-128452000D01*
X69876498Y-128470091D01*
X70001788Y-128554663D01*
X70150000Y-128584386D01*
X70524450Y-128584386D01*
X70720407Y-128780343D01*
X70627000Y-128873750D01*
X70627000Y-129423000D01*
X71376250Y-129423000D01*
X71485000Y-129314250D01*
X71485000Y-129252000D01*
X72015614Y-129252000D01*
X72015614Y-129375000D01*
X72021068Y-129403112D01*
X71965000Y-129538473D01*
X71965000Y-129614250D01*
X72073750Y-129723000D01*
X72241917Y-129723000D01*
X72251788Y-129729663D01*
X72352424Y-129749845D01*
X72256251Y-129768505D01*
X72243319Y-129777000D01*
X72073750Y-129777000D01*
X71965000Y-129885750D01*
X71965000Y-129961527D01*
X72021192Y-130097186D01*
X72015614Y-130125000D01*
X72015614Y-130375000D01*
X72040268Y-130502065D01*
X72015614Y-130625000D01*
X72015614Y-130875000D01*
X72040268Y-131002065D01*
X72015614Y-131125000D01*
X72015614Y-131375000D01*
X72040268Y-131502065D01*
X72015614Y-131625000D01*
X72015614Y-131875000D01*
X72040268Y-132002065D01*
X72015614Y-132125000D01*
X72015614Y-132355679D01*
X71534386Y-131874450D01*
X71534386Y-131500000D01*
X71506495Y-131356251D01*
X71423502Y-131229909D01*
X71298212Y-131145337D01*
X71150000Y-131115614D01*
X70250000Y-131115614D01*
X70106251Y-131143505D01*
X69979909Y-131226498D01*
X69895337Y-131351788D01*
X69865614Y-131500000D01*
X69865614Y-132000000D01*
X69885837Y-132104227D01*
X68923717Y-133066347D01*
X68877518Y-132834086D01*
X68729722Y-132612895D01*
X68508531Y-132465099D01*
X68247617Y-132413200D01*
X67646735Y-132413200D01*
X68054965Y-132004970D01*
X68054968Y-132004968D01*
X68163788Y-131842107D01*
X68170594Y-131807893D01*
X68196974Y-131675272D01*
X68293749Y-131656495D01*
X68420091Y-131573502D01*
X68504663Y-131448212D01*
X68534386Y-131300000D01*
X68534386Y-130800000D01*
X68506495Y-130656251D01*
X68423502Y-130529909D01*
X68298212Y-130445337D01*
X68150000Y-130415614D01*
X67250000Y-130415614D01*
X67106251Y-130443505D01*
X66979909Y-130526498D01*
X66952000Y-130567844D01*
X66952000Y-130117183D01*
X67003592Y-130168775D01*
X67163473Y-130235000D01*
X67564250Y-130235000D01*
X67673000Y-130126250D01*
X67673000Y-129577000D01*
X67727000Y-129577000D01*
X67727000Y-130126250D01*
X67835750Y-130235000D01*
X68236527Y-130235000D01*
X68396408Y-130168775D01*
X68518775Y-130046408D01*
X68585000Y-129886527D01*
X68585000Y-129685750D01*
X68485000Y-129585750D01*
X69715000Y-129585750D01*
X69715000Y-129786527D01*
X69781225Y-129946408D01*
X69903592Y-130068775D01*
X70063473Y-130135000D01*
X70464250Y-130135000D01*
X70573000Y-130026250D01*
X70573000Y-129477000D01*
X70627000Y-129477000D01*
X70627000Y-130026250D01*
X70735750Y-130135000D01*
X71136527Y-130135000D01*
X71296408Y-130068775D01*
X71418775Y-129946408D01*
X71485000Y-129786527D01*
X71485000Y-129585750D01*
X71376250Y-129477000D01*
X70627000Y-129477000D01*
X70573000Y-129477000D01*
X70573000Y-129477000D01*
X69823750Y-129477000D01*
X69715000Y-129585750D01*
X68485000Y-129585750D01*
X68476250Y-129577000D01*
X67727000Y-129577000D01*
X67673000Y-129577000D01*
X67673000Y-129577000D01*
X67653000Y-129577000D01*
X67653000Y-129523000D01*
X67673000Y-129523000D01*
X67673000Y-128973750D01*
X67727000Y-128973750D01*
X67727000Y-129523000D01*
X68476250Y-129523000D01*
X68585000Y-129414250D01*
X68585000Y-129213473D01*
X68543579Y-129113473D01*
X69715000Y-129113473D01*
X69715000Y-129314250D01*
X69823750Y-129423000D01*
X70573000Y-129423000D01*
X70573000Y-128873750D01*
X70464250Y-128765000D01*
X70063473Y-128765000D01*
X69903592Y-128831225D01*
X69781225Y-128953592D01*
X69715000Y-129113473D01*
X68543579Y-129113473D01*
X68518775Y-129053592D01*
X68396408Y-128931225D01*
X68236527Y-128865000D01*
X67835750Y-128865000D01*
X67727000Y-128973750D01*
X67673000Y-128973750D01*
X67673000Y-128973750D01*
X67564250Y-128865000D01*
X67163473Y-128865000D01*
X67003592Y-128931225D01*
X66952000Y-128982817D01*
X66952000Y-127432797D01*
X66976498Y-127470091D01*
X66976498Y-127470091D01*
G37*
X66976498Y-127470091D02*
X67101788Y-127554663D01*
X67250000Y-127584386D01*
X67624450Y-127584386D01*
X68345030Y-128304965D01*
X68345032Y-128304968D01*
X68479823Y-128395032D01*
X68507893Y-128413788D01*
X68700000Y-128452001D01*
X68700005Y-128452000D01*
X69864614Y-128452000D01*
X69876498Y-128470091D01*
X70001788Y-128554663D01*
X70150000Y-128584386D01*
X70524450Y-128584386D01*
X70720407Y-128780343D01*
X70627000Y-128873750D01*
X70627000Y-129423000D01*
X71376250Y-129423000D01*
X71485000Y-129314250D01*
X71485000Y-129252000D01*
X72015614Y-129252000D01*
X72015614Y-129375000D01*
X72021068Y-129403112D01*
X71965000Y-129538473D01*
X71965000Y-129614250D01*
X72073750Y-129723000D01*
X72241917Y-129723000D01*
X72251788Y-129729663D01*
X72352424Y-129749845D01*
X72256251Y-129768505D01*
X72243319Y-129777000D01*
X72073750Y-129777000D01*
X71965000Y-129885750D01*
X71965000Y-129961527D01*
X72021192Y-130097186D01*
X72015614Y-130125000D01*
X72015614Y-130375000D01*
X72040268Y-130502065D01*
X72015614Y-130625000D01*
X72015614Y-130875000D01*
X72040268Y-131002065D01*
X72015614Y-131125000D01*
X72015614Y-131375000D01*
X72040268Y-131502065D01*
X72015614Y-131625000D01*
X72015614Y-131875000D01*
X72040268Y-132002065D01*
X72015614Y-132125000D01*
X72015614Y-132355679D01*
X71534386Y-131874450D01*
X71534386Y-131500000D01*
X71506495Y-131356251D01*
X71423502Y-131229909D01*
X71298212Y-131145337D01*
X71150000Y-131115614D01*
X70250000Y-131115614D01*
X70106251Y-131143505D01*
X69979909Y-131226498D01*
X69895337Y-131351788D01*
X69865614Y-131500000D01*
X69865614Y-132000000D01*
X69885837Y-132104227D01*
X68923717Y-133066347D01*
X68877518Y-132834086D01*
X68729722Y-132612895D01*
X68508531Y-132465099D01*
X68247617Y-132413200D01*
X67646735Y-132413200D01*
X68054965Y-132004970D01*
X68054968Y-132004968D01*
X68163788Y-131842107D01*
X68170594Y-131807893D01*
X68196974Y-131675272D01*
X68293749Y-131656495D01*
X68420091Y-131573502D01*
X68504663Y-131448212D01*
X68534386Y-131300000D01*
X68534386Y-130800000D01*
X68506495Y-130656251D01*
X68423502Y-130529909D01*
X68298212Y-130445337D01*
X68150000Y-130415614D01*
X67250000Y-130415614D01*
X67106251Y-130443505D01*
X66979909Y-130526498D01*
X66952000Y-130567844D01*
X66952000Y-130117183D01*
X67003592Y-130168775D01*
X67163473Y-130235000D01*
X67564250Y-130235000D01*
X67673000Y-130126250D01*
X67673000Y-129577000D01*
X67727000Y-129577000D01*
X67727000Y-130126250D01*
X67835750Y-130235000D01*
X68236527Y-130235000D01*
X68396408Y-130168775D01*
X68518775Y-130046408D01*
X68585000Y-129886527D01*
X68585000Y-129685750D01*
X68485000Y-129585750D01*
X69715000Y-129585750D01*
X69715000Y-129786527D01*
X69781225Y-129946408D01*
X69903592Y-130068775D01*
X70063473Y-130135000D01*
X70464250Y-130135000D01*
X70573000Y-130026250D01*
X70573000Y-129477000D01*
X70627000Y-129477000D01*
X70627000Y-130026250D01*
X70735750Y-130135000D01*
X71136527Y-130135000D01*
X71296408Y-130068775D01*
X71418775Y-129946408D01*
X71485000Y-129786527D01*
X71485000Y-129585750D01*
X71376250Y-129477000D01*
X70627000Y-129477000D01*
X70573000Y-129477000D01*
X70573000Y-129477000D01*
X69823750Y-129477000D01*
X69715000Y-129585750D01*
X68485000Y-129585750D01*
X68476250Y-129577000D01*
X67727000Y-129577000D01*
X67673000Y-129577000D01*
X67673000Y-129577000D01*
X67653000Y-129577000D01*
X67653000Y-129523000D01*
X67673000Y-129523000D01*
X67673000Y-128973750D01*
X67727000Y-128973750D01*
X67727000Y-129523000D01*
X68476250Y-129523000D01*
X68585000Y-129414250D01*
X68585000Y-129213473D01*
X68543579Y-129113473D01*
X69715000Y-129113473D01*
X69715000Y-129314250D01*
X69823750Y-129423000D01*
X70573000Y-129423000D01*
X70573000Y-128873750D01*
X70464250Y-128765000D01*
X70063473Y-128765000D01*
X69903592Y-128831225D01*
X69781225Y-128953592D01*
X69715000Y-129113473D01*
X68543579Y-129113473D01*
X68518775Y-129053592D01*
X68396408Y-128931225D01*
X68236527Y-128865000D01*
X67835750Y-128865000D01*
X67727000Y-128973750D01*
X67673000Y-128973750D01*
X67673000Y-128973750D01*
X67564250Y-128865000D01*
X67163473Y-128865000D01*
X67003592Y-128931225D01*
X66952000Y-128982817D01*
X66952000Y-127432797D01*
X66976498Y-127470091D01*
G36*
X94925733Y-126982989D02*
X94998000Y-127055382D01*
X94998000Y-129392064D01*
X94992064Y-129398000D01*
X94834386Y-129398000D01*
X94834386Y-128900000D01*
X94806495Y-128756251D01*
X94723502Y-128629909D01*
X94598212Y-128545337D01*
X94450000Y-128515614D01*
X93550000Y-128515614D01*
X93406251Y-128543505D01*
X93279909Y-128626498D01*
X93265395Y-128648000D01*
X92335386Y-128648000D01*
X92323502Y-128629909D01*
X92198212Y-128545337D01*
X92050000Y-128515614D01*
X91150000Y-128515614D01*
X91006251Y-128543505D01*
X90902000Y-128611987D01*
X90902000Y-127957936D01*
X91575549Y-127284386D01*
X92050000Y-127284386D01*
X92193749Y-127256495D01*
X92320091Y-127173502D01*
X92334605Y-127152000D01*
X94249995Y-127152000D01*
X94250000Y-127152001D01*
X94442107Y-127113788D01*
X94604968Y-127004968D01*
X94838373Y-126771562D01*
X94925733Y-126982989D01*
X94925733Y-126982989D01*
G37*
X94925733Y-126982989D02*
X94998000Y-127055382D01*
X94998000Y-129392064D01*
X94992064Y-129398000D01*
X94834386Y-129398000D01*
X94834386Y-128900000D01*
X94806495Y-128756251D01*
X94723502Y-128629909D01*
X94598212Y-128545337D01*
X94450000Y-128515614D01*
X93550000Y-128515614D01*
X93406251Y-128543505D01*
X93279909Y-128626498D01*
X93265395Y-128648000D01*
X92335386Y-128648000D01*
X92323502Y-128629909D01*
X92198212Y-128545337D01*
X92050000Y-128515614D01*
X91150000Y-128515614D01*
X91006251Y-128543505D01*
X90902000Y-128611987D01*
X90902000Y-127957936D01*
X91575549Y-127284386D01*
X92050000Y-127284386D01*
X92193749Y-127256495D01*
X92320091Y-127173502D01*
X92334605Y-127152000D01*
X94249995Y-127152000D01*
X94250000Y-127152001D01*
X94442107Y-127113788D01*
X94604968Y-127004968D01*
X94838373Y-126771562D01*
X94925733Y-126982989D01*
G36*
X74340614Y-125500550D02*
X74340614Y-125800000D01*
X74368505Y-125943749D01*
X74451498Y-126070091D01*
X74576788Y-126154663D01*
X74725000Y-126184386D01*
X74975000Y-126184386D01*
X75102065Y-126159732D01*
X75225000Y-126184386D01*
X75475000Y-126184386D01*
X75602065Y-126159732D01*
X75725000Y-126184386D01*
X75975000Y-126184386D01*
X76102065Y-126159732D01*
X76225000Y-126184386D01*
X76475000Y-126184386D01*
X76602065Y-126159732D01*
X76725000Y-126184386D01*
X76975000Y-126184386D01*
X77102065Y-126159732D01*
X77225000Y-126184386D01*
X77475000Y-126184386D01*
X77602065Y-126159732D01*
X77725000Y-126184386D01*
X77975000Y-126184386D01*
X78102065Y-126159732D01*
X78225000Y-126184386D01*
X78475000Y-126184386D01*
X78602065Y-126159732D01*
X78725000Y-126184386D01*
X78975000Y-126184386D01*
X79102065Y-126159732D01*
X79225000Y-126184386D01*
X79475000Y-126184386D01*
X79602065Y-126159732D01*
X79725000Y-126184386D01*
X79975000Y-126184386D01*
X80102065Y-126159732D01*
X80225000Y-126184386D01*
X80475000Y-126184386D01*
X80503112Y-126178932D01*
X80638473Y-126235000D01*
X80714250Y-126235000D01*
X80822998Y-126126252D01*
X80822998Y-126235000D01*
X80848000Y-126235000D01*
X80848000Y-126242065D01*
X78892064Y-128198000D01*
X74900000Y-128198000D01*
X74707892Y-128236212D01*
X74545032Y-128345032D01*
X74450000Y-128440064D01*
X74404968Y-128395032D01*
X74242107Y-128286212D01*
X74050000Y-128247999D01*
X74049995Y-128248000D01*
X73784386Y-128248000D01*
X73784386Y-128125000D01*
X73759732Y-127997935D01*
X73784386Y-127875000D01*
X73784386Y-127625000D01*
X73759732Y-127497935D01*
X73784386Y-127375000D01*
X73784386Y-127125000D01*
X73756495Y-126981251D01*
X73673502Y-126854909D01*
X73548212Y-126770337D01*
X73400000Y-126740614D01*
X72400000Y-126740614D01*
X72256251Y-126768505D01*
X72129909Y-126851498D01*
X72045337Y-126976788D01*
X72015614Y-127125000D01*
X72015614Y-127375000D01*
X72022999Y-127413064D01*
X69311936Y-124702000D01*
X73542064Y-124702000D01*
X74340614Y-125500550D01*
X74340614Y-125500550D01*
G37*
X74340614Y-125500550D02*
X74340614Y-125800000D01*
X74368505Y-125943749D01*
X74451498Y-126070091D01*
X74576788Y-126154663D01*
X74725000Y-126184386D01*
X74975000Y-126184386D01*
X75102065Y-126159732D01*
X75225000Y-126184386D01*
X75475000Y-126184386D01*
X75602065Y-126159732D01*
X75725000Y-126184386D01*
X75975000Y-126184386D01*
X76102065Y-126159732D01*
X76225000Y-126184386D01*
X76475000Y-126184386D01*
X76602065Y-126159732D01*
X76725000Y-126184386D01*
X76975000Y-126184386D01*
X77102065Y-126159732D01*
X77225000Y-126184386D01*
X77475000Y-126184386D01*
X77602065Y-126159732D01*
X77725000Y-126184386D01*
X77975000Y-126184386D01*
X78102065Y-126159732D01*
X78225000Y-126184386D01*
X78475000Y-126184386D01*
X78602065Y-126159732D01*
X78725000Y-126184386D01*
X78975000Y-126184386D01*
X79102065Y-126159732D01*
X79225000Y-126184386D01*
X79475000Y-126184386D01*
X79602065Y-126159732D01*
X79725000Y-126184386D01*
X79975000Y-126184386D01*
X80102065Y-126159732D01*
X80225000Y-126184386D01*
X80475000Y-126184386D01*
X80503112Y-126178932D01*
X80638473Y-126235000D01*
X80714250Y-126235000D01*
X80822998Y-126126252D01*
X80822998Y-126235000D01*
X80848000Y-126235000D01*
X80848000Y-126242065D01*
X78892064Y-128198000D01*
X74900000Y-128198000D01*
X74707892Y-128236212D01*
X74545032Y-128345032D01*
X74450000Y-128440064D01*
X74404968Y-128395032D01*
X74242107Y-128286212D01*
X74050000Y-128247999D01*
X74049995Y-128248000D01*
X73784386Y-128248000D01*
X73784386Y-128125000D01*
X73759732Y-127997935D01*
X73784386Y-127875000D01*
X73784386Y-127625000D01*
X73759732Y-127497935D01*
X73784386Y-127375000D01*
X73784386Y-127125000D01*
X73756495Y-126981251D01*
X73673502Y-126854909D01*
X73548212Y-126770337D01*
X73400000Y-126740614D01*
X72400000Y-126740614D01*
X72256251Y-126768505D01*
X72129909Y-126851498D01*
X72045337Y-126976788D01*
X72015614Y-127125000D01*
X72015614Y-127375000D01*
X72022999Y-127413064D01*
X69311936Y-124702000D01*
X73542064Y-124702000D01*
X74340614Y-125500550D01*
G36*
X102973000Y-118476869D02*
X102973000Y-120538614D01*
X98320000Y-120538614D01*
X98176251Y-120566505D01*
X98049909Y-120649498D01*
X97965337Y-120774788D01*
X97935614Y-120923000D01*
X97935614Y-121904451D01*
X97317093Y-122522971D01*
X97215927Y-122522883D01*
X97077000Y-122580286D01*
X97077000Y-119963204D01*
X97390275Y-120162384D01*
X97607519Y-120223335D01*
X97793000Y-120133402D01*
X97793000Y-118327000D01*
X97847000Y-118327000D01*
X97847000Y-120133402D01*
X98032481Y-120223335D01*
X98249725Y-120162384D01*
X98641029Y-119913593D01*
X98907338Y-119533995D01*
X99008110Y-119081380D01*
X99008110Y-118327000D01*
X97847000Y-118327000D01*
X97793000Y-118327000D01*
X97793000Y-118327000D01*
X96631890Y-118327000D01*
X96631890Y-118974468D01*
X96460110Y-118802688D01*
X96460110Y-117518620D01*
X96631890Y-117518620D01*
X96631890Y-118273000D01*
X97793000Y-118273000D01*
X97793000Y-116466598D01*
X97847000Y-116466598D01*
X97847000Y-118273000D01*
X99008110Y-118273000D01*
X99008110Y-117518620D01*
X98907338Y-117066005D01*
X98641029Y-116686407D01*
X98249725Y-116437616D01*
X98032481Y-116376665D01*
X97847000Y-116466598D01*
X97793000Y-116466598D01*
X97793000Y-116466598D01*
X97607519Y-116376665D01*
X97390275Y-116437616D01*
X96998971Y-116686407D01*
X96732662Y-117066005D01*
X96631890Y-117518620D01*
X96460110Y-117518620D01*
X96460110Y-117507721D01*
X96370279Y-117056112D01*
X96114464Y-116673257D01*
X95731609Y-116417442D01*
X95280000Y-116327611D01*
X94828391Y-116417442D01*
X94445536Y-116673257D01*
X94189721Y-117056112D01*
X94099890Y-117507721D01*
X94099890Y-119092279D01*
X94189721Y-119543888D01*
X94445536Y-119926743D01*
X94828391Y-120182558D01*
X95280000Y-120272389D01*
X95723000Y-120184270D01*
X95723000Y-122930315D01*
X95585254Y-122873118D01*
X95315927Y-122872883D01*
X95067011Y-122975733D01*
X94876402Y-123166010D01*
X94773118Y-123414746D01*
X94773072Y-123466992D01*
X94292064Y-123948000D01*
X92224137Y-123948000D01*
X92246408Y-123938775D01*
X92368775Y-123816408D01*
X92435000Y-123656527D01*
X92435000Y-120335750D01*
X92326250Y-120227000D01*
X88662000Y-120227000D01*
X88662000Y-120247000D01*
X88608000Y-120247000D01*
X88608000Y-120227000D01*
X88588000Y-120227000D01*
X88588000Y-120173000D01*
X88608000Y-120173000D01*
X88608000Y-116503750D01*
X88662000Y-116503750D01*
X88662000Y-120173000D01*
X92326250Y-120173000D01*
X92435000Y-120064250D01*
X92435000Y-116743473D01*
X92368775Y-116583592D01*
X92246408Y-116461225D01*
X92086527Y-116395000D01*
X88770750Y-116395000D01*
X88662000Y-116503750D01*
X88608000Y-116503750D01*
X88608000Y-116503750D01*
X88499250Y-116395000D01*
X85183473Y-116395000D01*
X85023592Y-116461225D01*
X84901225Y-116583592D01*
X84835000Y-116743473D01*
X84835000Y-118564536D01*
X84735254Y-118523118D01*
X84634490Y-118523030D01*
X84673598Y-118483990D01*
X84776882Y-118235254D01*
X84777117Y-117965927D01*
X84674267Y-117717011D01*
X84483990Y-117526402D01*
X84235254Y-117423118D01*
X83965927Y-117422883D01*
X83825365Y-117480962D01*
X83825365Y-117245000D01*
X83793776Y-117082186D01*
X83699776Y-116939088D01*
X83557868Y-116843300D01*
X83390000Y-116809635D01*
X81716439Y-116809635D01*
X81589077Y-116724534D01*
X81330000Y-116673000D01*
X78891711Y-116673000D01*
X78850000Y-116664635D01*
X77950000Y-116664635D01*
X77906886Y-116673000D01*
X77300000Y-116673000D01*
X77040923Y-116724534D01*
X76936262Y-116794466D01*
X76867868Y-116748300D01*
X76700000Y-116714635D01*
X75800000Y-116714635D01*
X75637186Y-116746224D01*
X75494088Y-116840224D01*
X75398300Y-116982132D01*
X75364635Y-117150000D01*
X75364635Y-119650000D01*
X75396224Y-119812814D01*
X75490224Y-119955912D01*
X75573000Y-120011786D01*
X75573000Y-120679578D01*
X75102943Y-121149635D01*
X74110000Y-121149635D01*
X73947186Y-121181224D01*
X73804088Y-121275224D01*
X73708300Y-121417132D01*
X73702757Y-121444773D01*
X73658775Y-121338592D01*
X73536408Y-121216225D01*
X73376527Y-121150000D01*
X72525750Y-121150000D01*
X72417000Y-121258750D01*
X72417000Y-122173000D01*
X72437000Y-122173000D01*
X72437000Y-122227000D01*
X72417000Y-122227000D01*
X72417000Y-123141250D01*
X72525750Y-123250000D01*
X73376527Y-123250000D01*
X73536408Y-123183775D01*
X73658775Y-123061408D01*
X73702134Y-122956731D01*
X73706224Y-122977814D01*
X73800224Y-123120912D01*
X73942132Y-123216700D01*
X74110000Y-123250365D01*
X75910000Y-123250365D01*
X76072814Y-123218776D01*
X76215912Y-123124776D01*
X76311700Y-122982868D01*
X76345365Y-122815000D01*
X76345365Y-121822057D01*
X76728711Y-121438711D01*
X76743130Y-121417132D01*
X76830916Y-121285750D01*
X77515000Y-121285750D01*
X77515000Y-121486527D01*
X77581225Y-121646408D01*
X77703592Y-121768775D01*
X77863473Y-121835000D01*
X78264250Y-121835000D01*
X78373000Y-121726250D01*
X78373000Y-121177000D01*
X78427000Y-121177000D01*
X78427000Y-121726250D01*
X78535750Y-121835000D01*
X78936527Y-121835000D01*
X79096408Y-121768775D01*
X79218775Y-121646408D01*
X79285000Y-121486527D01*
X79285000Y-121285750D01*
X79176250Y-121177000D01*
X78427000Y-121177000D01*
X78373000Y-121177000D01*
X78373000Y-121177000D01*
X77623750Y-121177000D01*
X77515000Y-121285750D01*
X76830916Y-121285750D01*
X76875466Y-121219077D01*
X76927000Y-120960000D01*
X76927000Y-120813473D01*
X77515000Y-120813473D01*
X77515000Y-121014250D01*
X77623750Y-121123000D01*
X78373000Y-121123000D01*
X78373000Y-120573750D01*
X78427000Y-120573750D01*
X78427000Y-121123000D01*
X79176250Y-121123000D01*
X79285000Y-121014250D01*
X79285000Y-120813473D01*
X79218775Y-120653592D01*
X79096408Y-120531225D01*
X78936527Y-120465000D01*
X78535750Y-120465000D01*
X78427000Y-120573750D01*
X78373000Y-120573750D01*
X78373000Y-120573750D01*
X78264250Y-120465000D01*
X77863473Y-120465000D01*
X77703592Y-120531225D01*
X77581225Y-120653592D01*
X77515000Y-120813473D01*
X76927000Y-120813473D01*
X76927000Y-120011613D01*
X77005912Y-119959776D01*
X77101700Y-119817868D01*
X77135365Y-119650000D01*
X77135365Y-118985750D01*
X77515000Y-118985750D01*
X77515000Y-119186527D01*
X77581225Y-119346408D01*
X77703592Y-119468775D01*
X77863473Y-119535000D01*
X78264250Y-119535000D01*
X78373000Y-119426250D01*
X78373000Y-118877000D01*
X78427000Y-118877000D01*
X78427000Y-119426250D01*
X78535750Y-119535000D01*
X78936527Y-119535000D01*
X79096408Y-119468775D01*
X79218775Y-119346408D01*
X79285000Y-119186527D01*
X79285000Y-118985750D01*
X79176250Y-118877000D01*
X78427000Y-118877000D01*
X78373000Y-118877000D01*
X78373000Y-118877000D01*
X77623750Y-118877000D01*
X77515000Y-118985750D01*
X77135365Y-118985750D01*
X77135365Y-118513473D01*
X77515000Y-118513473D01*
X77515000Y-118714250D01*
X77623750Y-118823000D01*
X78373000Y-118823000D01*
X78373000Y-118273750D01*
X78427000Y-118273750D01*
X78427000Y-118823000D01*
X79176250Y-118823000D01*
X79285000Y-118714250D01*
X79285000Y-118513473D01*
X79218775Y-118353592D01*
X79096408Y-118231225D01*
X78936527Y-118165000D01*
X78535750Y-118165000D01*
X78427000Y-118273750D01*
X78373000Y-118273750D01*
X78373000Y-118273750D01*
X78264250Y-118165000D01*
X77863473Y-118165000D01*
X77703592Y-118231225D01*
X77581225Y-118353592D01*
X77515000Y-118513473D01*
X77135365Y-118513473D01*
X77135365Y-118472057D01*
X77580422Y-118027000D01*
X77908289Y-118027000D01*
X77950000Y-118035365D01*
X78850000Y-118035365D01*
X78893114Y-118027000D01*
X80174635Y-118027000D01*
X80174635Y-118795000D01*
X80206224Y-118957814D01*
X80300224Y-119100912D01*
X80442132Y-119196700D01*
X80610000Y-119230365D01*
X83390000Y-119230365D01*
X83398000Y-119228813D01*
X83398000Y-121222218D01*
X83390000Y-121220614D01*
X80610000Y-121220614D01*
X80466251Y-121248505D01*
X80339909Y-121331498D01*
X80255337Y-121456788D01*
X80225614Y-121605000D01*
X80225614Y-121878000D01*
X78670005Y-121878000D01*
X78670000Y-121877999D01*
X78477893Y-121916212D01*
X78329127Y-122015614D01*
X77950000Y-122015614D01*
X77806251Y-122043505D01*
X77679909Y-122126498D01*
X77595337Y-122251788D01*
X77565614Y-122400000D01*
X77565614Y-122900000D01*
X77593505Y-123043749D01*
X77676498Y-123170091D01*
X77801788Y-123254663D01*
X77950000Y-123284386D01*
X78850000Y-123284386D01*
X78993749Y-123256495D01*
X79120091Y-123173502D01*
X79204663Y-123048212D01*
X79234386Y-122900000D01*
X79234386Y-122882000D01*
X80225614Y-122882000D01*
X80225614Y-123155000D01*
X80253505Y-123298749D01*
X80336498Y-123425091D01*
X80461788Y-123509663D01*
X80610000Y-123539386D01*
X80848000Y-123539386D01*
X80848000Y-124365000D01*
X80822998Y-124365000D01*
X80822998Y-124473748D01*
X80714250Y-124365000D01*
X80638473Y-124365000D01*
X80502814Y-124421192D01*
X80475000Y-124415614D01*
X80225000Y-124415614D01*
X80097935Y-124440268D01*
X79975000Y-124415614D01*
X79725000Y-124415614D01*
X79597935Y-124440268D01*
X79475000Y-124415614D01*
X79225000Y-124415614D01*
X79097935Y-124440268D01*
X78975000Y-124415614D01*
X78725000Y-124415614D01*
X78597935Y-124440268D01*
X78475000Y-124415614D01*
X78225000Y-124415614D01*
X78097935Y-124440268D01*
X77975000Y-124415614D01*
X77725000Y-124415614D01*
X77597935Y-124440268D01*
X77475000Y-124415614D01*
X77225000Y-124415614D01*
X77097935Y-124440268D01*
X76975000Y-124415614D01*
X76725000Y-124415614D01*
X76597935Y-124440268D01*
X76475000Y-124415614D01*
X76225000Y-124415614D01*
X76097935Y-124440268D01*
X75975000Y-124415614D01*
X75725000Y-124415614D01*
X75597935Y-124440268D01*
X75475000Y-124415614D01*
X75225000Y-124415614D01*
X75097935Y-124440268D01*
X74975000Y-124415614D01*
X74725000Y-124415614D01*
X74683585Y-124423649D01*
X74104968Y-123845032D01*
X73942107Y-123736212D01*
X73750000Y-123697999D01*
X73749995Y-123698000D01*
X69285620Y-123698000D01*
X69285620Y-122584590D01*
X69176870Y-122475840D01*
X67727000Y-122475840D01*
X67727000Y-122495840D01*
X67673000Y-122495840D01*
X67673000Y-122475840D01*
X66223130Y-122475840D01*
X66114380Y-122584590D01*
X66114380Y-123355974D01*
X66035254Y-123323118D01*
X65765927Y-123322883D01*
X65517011Y-123425733D01*
X65326402Y-123616010D01*
X65292357Y-123698000D01*
X64651960Y-123698000D01*
X64651960Y-121909307D01*
X64668359Y-121906125D01*
X64794701Y-121823132D01*
X64879273Y-121697842D01*
X64908996Y-121549630D01*
X64908996Y-121150850D01*
X64901581Y-121112633D01*
X66114380Y-121112633D01*
X66114380Y-122313090D01*
X66223130Y-122421840D01*
X67673000Y-122421840D01*
X67673000Y-120872910D01*
X67727000Y-120872910D01*
X67727000Y-122421840D01*
X69176870Y-122421840D01*
X69262960Y-122335750D01*
X71055000Y-122335750D01*
X71055000Y-122901527D01*
X71121225Y-123061408D01*
X71243592Y-123183775D01*
X71403473Y-123250000D01*
X72254250Y-123250000D01*
X72363000Y-123141250D01*
X72363000Y-122227000D01*
X71163750Y-122227000D01*
X71055000Y-122335750D01*
X69262960Y-122335750D01*
X69285620Y-122313090D01*
X69285620Y-121498473D01*
X71055000Y-121498473D01*
X71055000Y-122064250D01*
X71163750Y-122173000D01*
X72363000Y-122173000D01*
X72363000Y-121258750D01*
X72254250Y-121150000D01*
X71403473Y-121150000D01*
X71243592Y-121216225D01*
X71121225Y-121338592D01*
X71055000Y-121498473D01*
X69285620Y-121498473D01*
X69285620Y-121112633D01*
X69219395Y-120952752D01*
X69097028Y-120830385D01*
X68937147Y-120764160D01*
X67835750Y-120764160D01*
X67727000Y-120872910D01*
X67673000Y-120872910D01*
X67673000Y-120872910D01*
X67564250Y-120764160D01*
X66462853Y-120764160D01*
X66302972Y-120830385D01*
X66180605Y-120952752D01*
X66114380Y-121112633D01*
X64901581Y-121112633D01*
X64884198Y-121023043D01*
X64908996Y-120899390D01*
X64908996Y-120500610D01*
X64884198Y-120372803D01*
X64908996Y-120249150D01*
X64908996Y-119850370D01*
X64881105Y-119706621D01*
X64798112Y-119580279D01*
X64672822Y-119495707D01*
X64651960Y-119491523D01*
X64651960Y-119428407D01*
X64782989Y-119374267D01*
X64973598Y-119183990D01*
X65076882Y-118935254D01*
X65077117Y-118665927D01*
X64974267Y-118417011D01*
X64783990Y-118226402D01*
X64535254Y-118123118D01*
X64276980Y-118122893D01*
X64277117Y-117965927D01*
X64174267Y-117717011D01*
X63983990Y-117526402D01*
X63735254Y-117423118D01*
X63465927Y-117422883D01*
X63217011Y-117525733D01*
X63026402Y-117716010D01*
X62923118Y-117964746D01*
X62922883Y-118234073D01*
X63025733Y-118482989D01*
X63066269Y-118523596D01*
X62123880Y-119465984D01*
X61875390Y-119465984D01*
X61731641Y-119493875D01*
X61605299Y-119576868D01*
X61520727Y-119702158D01*
X61491004Y-119850370D01*
X61491004Y-120249150D01*
X61496651Y-120278256D01*
X61440390Y-120414083D01*
X61440390Y-120564250D01*
X61549140Y-120673000D01*
X62223040Y-120673000D01*
X62223040Y-120653000D01*
X62277040Y-120653000D01*
X62277040Y-120673000D01*
X62297040Y-120673000D01*
X62297040Y-120727000D01*
X62277040Y-120727000D01*
X62277040Y-120747000D01*
X62223040Y-120747000D01*
X62223040Y-120727000D01*
X61549140Y-120727000D01*
X61440390Y-120835750D01*
X61440390Y-120985917D01*
X61496779Y-121122052D01*
X61491004Y-121150850D01*
X61491004Y-121549630D01*
X61518895Y-121693379D01*
X61601888Y-121819721D01*
X61727178Y-121904293D01*
X61748040Y-121908477D01*
X61748040Y-123700035D01*
X61748039Y-123700040D01*
X61786252Y-123892147D01*
X61895072Y-124055008D01*
X61922971Y-124082907D01*
X61922883Y-124184073D01*
X61969957Y-124298000D01*
X59715590Y-124298000D01*
X59535254Y-124223118D01*
X59265927Y-124222883D01*
X59017011Y-124325733D01*
X58826402Y-124516010D01*
X58764386Y-124665361D01*
X58764386Y-123917000D01*
X58736495Y-123773251D01*
X58653502Y-123646909D01*
X58528212Y-123562337D01*
X58380000Y-123532614D01*
X53727000Y-123532614D01*
X53727000Y-123336000D01*
X55704250Y-123336000D01*
X55813000Y-123227250D01*
X55813000Y-122039000D01*
X55867000Y-122039000D01*
X55867000Y-123227250D01*
X55975750Y-123336000D01*
X58466527Y-123336000D01*
X58626408Y-123269775D01*
X58748775Y-123147408D01*
X58815000Y-122987527D01*
X58815000Y-122147750D01*
X58706250Y-122039000D01*
X55867000Y-122039000D01*
X55813000Y-122039000D01*
X55813000Y-122039000D01*
X55793000Y-122039000D01*
X55793000Y-121985000D01*
X55813000Y-121985000D01*
X55813000Y-120796750D01*
X55867000Y-120796750D01*
X55867000Y-121985000D01*
X58706250Y-121985000D01*
X58815000Y-121876250D01*
X58815000Y-121036473D01*
X58748775Y-120876592D01*
X58626408Y-120754225D01*
X58466527Y-120688000D01*
X55975750Y-120688000D01*
X55867000Y-120796750D01*
X55813000Y-120796750D01*
X55813000Y-120796750D01*
X55704250Y-120688000D01*
X53727000Y-120688000D01*
X53727000Y-118476870D01*
X55302389Y-116901480D01*
X66114015Y-116901480D01*
X66114015Y-119400840D01*
X66145604Y-119563654D01*
X66239604Y-119706752D01*
X66381512Y-119802540D01*
X66549380Y-119836205D01*
X68850620Y-119836205D01*
X69013434Y-119804616D01*
X69156532Y-119710616D01*
X69252320Y-119568708D01*
X69285985Y-119400840D01*
X69285985Y-118985750D01*
X70315000Y-118985750D01*
X70315000Y-119186527D01*
X70381225Y-119346408D01*
X70503592Y-119468775D01*
X70663473Y-119535000D01*
X71064250Y-119535000D01*
X71173000Y-119426250D01*
X71173000Y-118877000D01*
X71227000Y-118877000D01*
X71227000Y-119426250D01*
X71335750Y-119535000D01*
X71736527Y-119535000D01*
X71896408Y-119468775D01*
X72018775Y-119346408D01*
X72085000Y-119186527D01*
X72085000Y-118985750D01*
X71976250Y-118877000D01*
X71227000Y-118877000D01*
X71173000Y-118877000D01*
X71173000Y-118877000D01*
X70423750Y-118877000D01*
X70315000Y-118985750D01*
X69285985Y-118985750D01*
X69285985Y-118513473D01*
X70315000Y-118513473D01*
X70315000Y-118714250D01*
X70423750Y-118823000D01*
X71173000Y-118823000D01*
X71173000Y-118273750D01*
X71227000Y-118273750D01*
X71227000Y-118823000D01*
X71976250Y-118823000D01*
X72085000Y-118714250D01*
X72085000Y-118513473D01*
X72018775Y-118353592D01*
X71896408Y-118231225D01*
X71736527Y-118165000D01*
X71335750Y-118165000D01*
X71227000Y-118273750D01*
X71173000Y-118273750D01*
X71173000Y-118273750D01*
X71064250Y-118165000D01*
X70663473Y-118165000D01*
X70503592Y-118231225D01*
X70381225Y-118353592D01*
X70315000Y-118513473D01*
X69285985Y-118513473D01*
X69285985Y-117777000D01*
X69442608Y-117777000D01*
X69445110Y-117779506D01*
X69739772Y-117901860D01*
X69780818Y-117901896D01*
X69890923Y-117975466D01*
X70150000Y-118027000D01*
X70708289Y-118027000D01*
X70750000Y-118035365D01*
X71650000Y-118035365D01*
X71693114Y-118027000D01*
X72019578Y-118027000D01*
X72464635Y-118472057D01*
X72464635Y-119650000D01*
X72496224Y-119812814D01*
X72590224Y-119955912D01*
X72732132Y-120051700D01*
X72900000Y-120085365D01*
X73800000Y-120085365D01*
X73962814Y-120053776D01*
X74105912Y-119959776D01*
X74201700Y-119817868D01*
X74235365Y-119650000D01*
X74235365Y-117150000D01*
X74203776Y-116987186D01*
X74109776Y-116844088D01*
X73967868Y-116748300D01*
X73800000Y-116714635D01*
X72900000Y-116714635D01*
X72737186Y-116746224D01*
X72663742Y-116794469D01*
X72559077Y-116724534D01*
X72300000Y-116673000D01*
X71691711Y-116673000D01*
X71650000Y-116664635D01*
X70750000Y-116664635D01*
X70706886Y-116673000D01*
X70591332Y-116673000D01*
X70580299Y-116646297D01*
X70354890Y-116420494D01*
X70060228Y-116298140D01*
X69741172Y-116297861D01*
X69446297Y-116419701D01*
X69442992Y-116423000D01*
X68751160Y-116423000D01*
X68534404Y-116466115D01*
X66549380Y-116466115D01*
X66386566Y-116497704D01*
X66243468Y-116591704D01*
X66147680Y-116733612D01*
X66114015Y-116901480D01*
X55302389Y-116901480D01*
X56176869Y-116027000D01*
X100523130Y-116027000D01*
X102973000Y-118476869D01*
X102973000Y-118476869D01*
G37*
X102973000Y-118476869D02*
X102973000Y-120538614D01*
X98320000Y-120538614D01*
X98176251Y-120566505D01*
X98049909Y-120649498D01*
X97965337Y-120774788D01*
X97935614Y-120923000D01*
X97935614Y-121904451D01*
X97317093Y-122522971D01*
X97215927Y-122522883D01*
X97077000Y-122580286D01*
X97077000Y-119963204D01*
X97390275Y-120162384D01*
X97607519Y-120223335D01*
X97793000Y-120133402D01*
X97793000Y-118327000D01*
X97847000Y-118327000D01*
X97847000Y-120133402D01*
X98032481Y-120223335D01*
X98249725Y-120162384D01*
X98641029Y-119913593D01*
X98907338Y-119533995D01*
X99008110Y-119081380D01*
X99008110Y-118327000D01*
X97847000Y-118327000D01*
X97793000Y-118327000D01*
X97793000Y-118327000D01*
X96631890Y-118327000D01*
X96631890Y-118974468D01*
X96460110Y-118802688D01*
X96460110Y-117518620D01*
X96631890Y-117518620D01*
X96631890Y-118273000D01*
X97793000Y-118273000D01*
X97793000Y-116466598D01*
X97847000Y-116466598D01*
X97847000Y-118273000D01*
X99008110Y-118273000D01*
X99008110Y-117518620D01*
X98907338Y-117066005D01*
X98641029Y-116686407D01*
X98249725Y-116437616D01*
X98032481Y-116376665D01*
X97847000Y-116466598D01*
X97793000Y-116466598D01*
X97793000Y-116466598D01*
X97607519Y-116376665D01*
X97390275Y-116437616D01*
X96998971Y-116686407D01*
X96732662Y-117066005D01*
X96631890Y-117518620D01*
X96460110Y-117518620D01*
X96460110Y-117507721D01*
X96370279Y-117056112D01*
X96114464Y-116673257D01*
X95731609Y-116417442D01*
X95280000Y-116327611D01*
X94828391Y-116417442D01*
X94445536Y-116673257D01*
X94189721Y-117056112D01*
X94099890Y-117507721D01*
X94099890Y-119092279D01*
X94189721Y-119543888D01*
X94445536Y-119926743D01*
X94828391Y-120182558D01*
X95280000Y-120272389D01*
X95723000Y-120184270D01*
X95723000Y-122930315D01*
X95585254Y-122873118D01*
X95315927Y-122872883D01*
X95067011Y-122975733D01*
X94876402Y-123166010D01*
X94773118Y-123414746D01*
X94773072Y-123466992D01*
X94292064Y-123948000D01*
X92224137Y-123948000D01*
X92246408Y-123938775D01*
X92368775Y-123816408D01*
X92435000Y-123656527D01*
X92435000Y-120335750D01*
X92326250Y-120227000D01*
X88662000Y-120227000D01*
X88662000Y-120247000D01*
X88608000Y-120247000D01*
X88608000Y-120227000D01*
X88588000Y-120227000D01*
X88588000Y-120173000D01*
X88608000Y-120173000D01*
X88608000Y-116503750D01*
X88662000Y-116503750D01*
X88662000Y-120173000D01*
X92326250Y-120173000D01*
X92435000Y-120064250D01*
X92435000Y-116743473D01*
X92368775Y-116583592D01*
X92246408Y-116461225D01*
X92086527Y-116395000D01*
X88770750Y-116395000D01*
X88662000Y-116503750D01*
X88608000Y-116503750D01*
X88608000Y-116503750D01*
X88499250Y-116395000D01*
X85183473Y-116395000D01*
X85023592Y-116461225D01*
X84901225Y-116583592D01*
X84835000Y-116743473D01*
X84835000Y-118564536D01*
X84735254Y-118523118D01*
X84634490Y-118523030D01*
X84673598Y-118483990D01*
X84776882Y-118235254D01*
X84777117Y-117965927D01*
X84674267Y-117717011D01*
X84483990Y-117526402D01*
X84235254Y-117423118D01*
X83965927Y-117422883D01*
X83825365Y-117480962D01*
X83825365Y-117245000D01*
X83793776Y-117082186D01*
X83699776Y-116939088D01*
X83557868Y-116843300D01*
X83390000Y-116809635D01*
X81716439Y-116809635D01*
X81589077Y-116724534D01*
X81330000Y-116673000D01*
X78891711Y-116673000D01*
X78850000Y-116664635D01*
X77950000Y-116664635D01*
X77906886Y-116673000D01*
X77300000Y-116673000D01*
X77040923Y-116724534D01*
X76936262Y-116794466D01*
X76867868Y-116748300D01*
X76700000Y-116714635D01*
X75800000Y-116714635D01*
X75637186Y-116746224D01*
X75494088Y-116840224D01*
X75398300Y-116982132D01*
X75364635Y-117150000D01*
X75364635Y-119650000D01*
X75396224Y-119812814D01*
X75490224Y-119955912D01*
X75573000Y-120011786D01*
X75573000Y-120679578D01*
X75102943Y-121149635D01*
X74110000Y-121149635D01*
X73947186Y-121181224D01*
X73804088Y-121275224D01*
X73708300Y-121417132D01*
X73702757Y-121444773D01*
X73658775Y-121338592D01*
X73536408Y-121216225D01*
X73376527Y-121150000D01*
X72525750Y-121150000D01*
X72417000Y-121258750D01*
X72417000Y-122173000D01*
X72437000Y-122173000D01*
X72437000Y-122227000D01*
X72417000Y-122227000D01*
X72417000Y-123141250D01*
X72525750Y-123250000D01*
X73376527Y-123250000D01*
X73536408Y-123183775D01*
X73658775Y-123061408D01*
X73702134Y-122956731D01*
X73706224Y-122977814D01*
X73800224Y-123120912D01*
X73942132Y-123216700D01*
X74110000Y-123250365D01*
X75910000Y-123250365D01*
X76072814Y-123218776D01*
X76215912Y-123124776D01*
X76311700Y-122982868D01*
X76345365Y-122815000D01*
X76345365Y-121822057D01*
X76728711Y-121438711D01*
X76743130Y-121417132D01*
X76830916Y-121285750D01*
X77515000Y-121285750D01*
X77515000Y-121486527D01*
X77581225Y-121646408D01*
X77703592Y-121768775D01*
X77863473Y-121835000D01*
X78264250Y-121835000D01*
X78373000Y-121726250D01*
X78373000Y-121177000D01*
X78427000Y-121177000D01*
X78427000Y-121726250D01*
X78535750Y-121835000D01*
X78936527Y-121835000D01*
X79096408Y-121768775D01*
X79218775Y-121646408D01*
X79285000Y-121486527D01*
X79285000Y-121285750D01*
X79176250Y-121177000D01*
X78427000Y-121177000D01*
X78373000Y-121177000D01*
X78373000Y-121177000D01*
X77623750Y-121177000D01*
X77515000Y-121285750D01*
X76830916Y-121285750D01*
X76875466Y-121219077D01*
X76927000Y-120960000D01*
X76927000Y-120813473D01*
X77515000Y-120813473D01*
X77515000Y-121014250D01*
X77623750Y-121123000D01*
X78373000Y-121123000D01*
X78373000Y-120573750D01*
X78427000Y-120573750D01*
X78427000Y-121123000D01*
X79176250Y-121123000D01*
X79285000Y-121014250D01*
X79285000Y-120813473D01*
X79218775Y-120653592D01*
X79096408Y-120531225D01*
X78936527Y-120465000D01*
X78535750Y-120465000D01*
X78427000Y-120573750D01*
X78373000Y-120573750D01*
X78373000Y-120573750D01*
X78264250Y-120465000D01*
X77863473Y-120465000D01*
X77703592Y-120531225D01*
X77581225Y-120653592D01*
X77515000Y-120813473D01*
X76927000Y-120813473D01*
X76927000Y-120011613D01*
X77005912Y-119959776D01*
X77101700Y-119817868D01*
X77135365Y-119650000D01*
X77135365Y-118985750D01*
X77515000Y-118985750D01*
X77515000Y-119186527D01*
X77581225Y-119346408D01*
X77703592Y-119468775D01*
X77863473Y-119535000D01*
X78264250Y-119535000D01*
X78373000Y-119426250D01*
X78373000Y-118877000D01*
X78427000Y-118877000D01*
X78427000Y-119426250D01*
X78535750Y-119535000D01*
X78936527Y-119535000D01*
X79096408Y-119468775D01*
X79218775Y-119346408D01*
X79285000Y-119186527D01*
X79285000Y-118985750D01*
X79176250Y-118877000D01*
X78427000Y-118877000D01*
X78373000Y-118877000D01*
X78373000Y-118877000D01*
X77623750Y-118877000D01*
X77515000Y-118985750D01*
X77135365Y-118985750D01*
X77135365Y-118513473D01*
X77515000Y-118513473D01*
X77515000Y-118714250D01*
X77623750Y-118823000D01*
X78373000Y-118823000D01*
X78373000Y-118273750D01*
X78427000Y-118273750D01*
X78427000Y-118823000D01*
X79176250Y-118823000D01*
X79285000Y-118714250D01*
X79285000Y-118513473D01*
X79218775Y-118353592D01*
X79096408Y-118231225D01*
X78936527Y-118165000D01*
X78535750Y-118165000D01*
X78427000Y-118273750D01*
X78373000Y-118273750D01*
X78373000Y-118273750D01*
X78264250Y-118165000D01*
X77863473Y-118165000D01*
X77703592Y-118231225D01*
X77581225Y-118353592D01*
X77515000Y-118513473D01*
X77135365Y-118513473D01*
X77135365Y-118472057D01*
X77580422Y-118027000D01*
X77908289Y-118027000D01*
X77950000Y-118035365D01*
X78850000Y-118035365D01*
X78893114Y-118027000D01*
X80174635Y-118027000D01*
X80174635Y-118795000D01*
X80206224Y-118957814D01*
X80300224Y-119100912D01*
X80442132Y-119196700D01*
X80610000Y-119230365D01*
X83390000Y-119230365D01*
X83398000Y-119228813D01*
X83398000Y-121222218D01*
X83390000Y-121220614D01*
X80610000Y-121220614D01*
X80466251Y-121248505D01*
X80339909Y-121331498D01*
X80255337Y-121456788D01*
X80225614Y-121605000D01*
X80225614Y-121878000D01*
X78670005Y-121878000D01*
X78670000Y-121877999D01*
X78477893Y-121916212D01*
X78329127Y-122015614D01*
X77950000Y-122015614D01*
X77806251Y-122043505D01*
X77679909Y-122126498D01*
X77595337Y-122251788D01*
X77565614Y-122400000D01*
X77565614Y-122900000D01*
X77593505Y-123043749D01*
X77676498Y-123170091D01*
X77801788Y-123254663D01*
X77950000Y-123284386D01*
X78850000Y-123284386D01*
X78993749Y-123256495D01*
X79120091Y-123173502D01*
X79204663Y-123048212D01*
X79234386Y-122900000D01*
X79234386Y-122882000D01*
X80225614Y-122882000D01*
X80225614Y-123155000D01*
X80253505Y-123298749D01*
X80336498Y-123425091D01*
X80461788Y-123509663D01*
X80610000Y-123539386D01*
X80848000Y-123539386D01*
X80848000Y-124365000D01*
X80822998Y-124365000D01*
X80822998Y-124473748D01*
X80714250Y-124365000D01*
X80638473Y-124365000D01*
X80502814Y-124421192D01*
X80475000Y-124415614D01*
X80225000Y-124415614D01*
X80097935Y-124440268D01*
X79975000Y-124415614D01*
X79725000Y-124415614D01*
X79597935Y-124440268D01*
X79475000Y-124415614D01*
X79225000Y-124415614D01*
X79097935Y-124440268D01*
X78975000Y-124415614D01*
X78725000Y-124415614D01*
X78597935Y-124440268D01*
X78475000Y-124415614D01*
X78225000Y-124415614D01*
X78097935Y-124440268D01*
X77975000Y-124415614D01*
X77725000Y-124415614D01*
X77597935Y-124440268D01*
X77475000Y-124415614D01*
X77225000Y-124415614D01*
X77097935Y-124440268D01*
X76975000Y-124415614D01*
X76725000Y-124415614D01*
X76597935Y-124440268D01*
X76475000Y-124415614D01*
X76225000Y-124415614D01*
X76097935Y-124440268D01*
X75975000Y-124415614D01*
X75725000Y-124415614D01*
X75597935Y-124440268D01*
X75475000Y-124415614D01*
X75225000Y-124415614D01*
X75097935Y-124440268D01*
X74975000Y-124415614D01*
X74725000Y-124415614D01*
X74683585Y-124423649D01*
X74104968Y-123845032D01*
X73942107Y-123736212D01*
X73750000Y-123697999D01*
X73749995Y-123698000D01*
X69285620Y-123698000D01*
X69285620Y-122584590D01*
X69176870Y-122475840D01*
X67727000Y-122475840D01*
X67727000Y-122495840D01*
X67673000Y-122495840D01*
X67673000Y-122475840D01*
X66223130Y-122475840D01*
X66114380Y-122584590D01*
X66114380Y-123355974D01*
X66035254Y-123323118D01*
X65765927Y-123322883D01*
X65517011Y-123425733D01*
X65326402Y-123616010D01*
X65292357Y-123698000D01*
X64651960Y-123698000D01*
X64651960Y-121909307D01*
X64668359Y-121906125D01*
X64794701Y-121823132D01*
X64879273Y-121697842D01*
X64908996Y-121549630D01*
X64908996Y-121150850D01*
X64901581Y-121112633D01*
X66114380Y-121112633D01*
X66114380Y-122313090D01*
X66223130Y-122421840D01*
X67673000Y-122421840D01*
X67673000Y-120872910D01*
X67727000Y-120872910D01*
X67727000Y-122421840D01*
X69176870Y-122421840D01*
X69262960Y-122335750D01*
X71055000Y-122335750D01*
X71055000Y-122901527D01*
X71121225Y-123061408D01*
X71243592Y-123183775D01*
X71403473Y-123250000D01*
X72254250Y-123250000D01*
X72363000Y-123141250D01*
X72363000Y-122227000D01*
X71163750Y-122227000D01*
X71055000Y-122335750D01*
X69262960Y-122335750D01*
X69285620Y-122313090D01*
X69285620Y-121498473D01*
X71055000Y-121498473D01*
X71055000Y-122064250D01*
X71163750Y-122173000D01*
X72363000Y-122173000D01*
X72363000Y-121258750D01*
X72254250Y-121150000D01*
X71403473Y-121150000D01*
X71243592Y-121216225D01*
X71121225Y-121338592D01*
X71055000Y-121498473D01*
X69285620Y-121498473D01*
X69285620Y-121112633D01*
X69219395Y-120952752D01*
X69097028Y-120830385D01*
X68937147Y-120764160D01*
X67835750Y-120764160D01*
X67727000Y-120872910D01*
X67673000Y-120872910D01*
X67673000Y-120872910D01*
X67564250Y-120764160D01*
X66462853Y-120764160D01*
X66302972Y-120830385D01*
X66180605Y-120952752D01*
X66114380Y-121112633D01*
X64901581Y-121112633D01*
X64884198Y-121023043D01*
X64908996Y-120899390D01*
X64908996Y-120500610D01*
X64884198Y-120372803D01*
X64908996Y-120249150D01*
X64908996Y-119850370D01*
X64881105Y-119706621D01*
X64798112Y-119580279D01*
X64672822Y-119495707D01*
X64651960Y-119491523D01*
X64651960Y-119428407D01*
X64782989Y-119374267D01*
X64973598Y-119183990D01*
X65076882Y-118935254D01*
X65077117Y-118665927D01*
X64974267Y-118417011D01*
X64783990Y-118226402D01*
X64535254Y-118123118D01*
X64276980Y-118122893D01*
X64277117Y-117965927D01*
X64174267Y-117717011D01*
X63983990Y-117526402D01*
X63735254Y-117423118D01*
X63465927Y-117422883D01*
X63217011Y-117525733D01*
X63026402Y-117716010D01*
X62923118Y-117964746D01*
X62922883Y-118234073D01*
X63025733Y-118482989D01*
X63066269Y-118523596D01*
X62123880Y-119465984D01*
X61875390Y-119465984D01*
X61731641Y-119493875D01*
X61605299Y-119576868D01*
X61520727Y-119702158D01*
X61491004Y-119850370D01*
X61491004Y-120249150D01*
X61496651Y-120278256D01*
X61440390Y-120414083D01*
X61440390Y-120564250D01*
X61549140Y-120673000D01*
X62223040Y-120673000D01*
X62223040Y-120653000D01*
X62277040Y-120653000D01*
X62277040Y-120673000D01*
X62297040Y-120673000D01*
X62297040Y-120727000D01*
X62277040Y-120727000D01*
X62277040Y-120747000D01*
X62223040Y-120747000D01*
X62223040Y-120727000D01*
X61549140Y-120727000D01*
X61440390Y-120835750D01*
X61440390Y-120985917D01*
X61496779Y-121122052D01*
X61491004Y-121150850D01*
X61491004Y-121549630D01*
X61518895Y-121693379D01*
X61601888Y-121819721D01*
X61727178Y-121904293D01*
X61748040Y-121908477D01*
X61748040Y-123700035D01*
X61748039Y-123700040D01*
X61786252Y-123892147D01*
X61895072Y-124055008D01*
X61922971Y-124082907D01*
X61922883Y-124184073D01*
X61969957Y-124298000D01*
X59715590Y-124298000D01*
X59535254Y-124223118D01*
X59265927Y-124222883D01*
X59017011Y-124325733D01*
X58826402Y-124516010D01*
X58764386Y-124665361D01*
X58764386Y-123917000D01*
X58736495Y-123773251D01*
X58653502Y-123646909D01*
X58528212Y-123562337D01*
X58380000Y-123532614D01*
X53727000Y-123532614D01*
X53727000Y-123336000D01*
X55704250Y-123336000D01*
X55813000Y-123227250D01*
X55813000Y-122039000D01*
X55867000Y-122039000D01*
X55867000Y-123227250D01*
X55975750Y-123336000D01*
X58466527Y-123336000D01*
X58626408Y-123269775D01*
X58748775Y-123147408D01*
X58815000Y-122987527D01*
X58815000Y-122147750D01*
X58706250Y-122039000D01*
X55867000Y-122039000D01*
X55813000Y-122039000D01*
X55813000Y-122039000D01*
X55793000Y-122039000D01*
X55793000Y-121985000D01*
X55813000Y-121985000D01*
X55813000Y-120796750D01*
X55867000Y-120796750D01*
X55867000Y-121985000D01*
X58706250Y-121985000D01*
X58815000Y-121876250D01*
X58815000Y-121036473D01*
X58748775Y-120876592D01*
X58626408Y-120754225D01*
X58466527Y-120688000D01*
X55975750Y-120688000D01*
X55867000Y-120796750D01*
X55813000Y-120796750D01*
X55813000Y-120796750D01*
X55704250Y-120688000D01*
X53727000Y-120688000D01*
X53727000Y-118476870D01*
X55302389Y-116901480D01*
X66114015Y-116901480D01*
X66114015Y-119400840D01*
X66145604Y-119563654D01*
X66239604Y-119706752D01*
X66381512Y-119802540D01*
X66549380Y-119836205D01*
X68850620Y-119836205D01*
X69013434Y-119804616D01*
X69156532Y-119710616D01*
X69252320Y-119568708D01*
X69285985Y-119400840D01*
X69285985Y-118985750D01*
X70315000Y-118985750D01*
X70315000Y-119186527D01*
X70381225Y-119346408D01*
X70503592Y-119468775D01*
X70663473Y-119535000D01*
X71064250Y-119535000D01*
X71173000Y-119426250D01*
X71173000Y-118877000D01*
X71227000Y-118877000D01*
X71227000Y-119426250D01*
X71335750Y-119535000D01*
X71736527Y-119535000D01*
X71896408Y-119468775D01*
X72018775Y-119346408D01*
X72085000Y-119186527D01*
X72085000Y-118985750D01*
X71976250Y-118877000D01*
X71227000Y-118877000D01*
X71173000Y-118877000D01*
X71173000Y-118877000D01*
X70423750Y-118877000D01*
X70315000Y-118985750D01*
X69285985Y-118985750D01*
X69285985Y-118513473D01*
X70315000Y-118513473D01*
X70315000Y-118714250D01*
X70423750Y-118823000D01*
X71173000Y-118823000D01*
X71173000Y-118273750D01*
X71227000Y-118273750D01*
X71227000Y-118823000D01*
X71976250Y-118823000D01*
X72085000Y-118714250D01*
X72085000Y-118513473D01*
X72018775Y-118353592D01*
X71896408Y-118231225D01*
X71736527Y-118165000D01*
X71335750Y-118165000D01*
X71227000Y-118273750D01*
X71173000Y-118273750D01*
X71173000Y-118273750D01*
X71064250Y-118165000D01*
X70663473Y-118165000D01*
X70503592Y-118231225D01*
X70381225Y-118353592D01*
X70315000Y-118513473D01*
X69285985Y-118513473D01*
X69285985Y-117777000D01*
X69442608Y-117777000D01*
X69445110Y-117779506D01*
X69739772Y-117901860D01*
X69780818Y-117901896D01*
X69890923Y-117975466D01*
X70150000Y-118027000D01*
X70708289Y-118027000D01*
X70750000Y-118035365D01*
X71650000Y-118035365D01*
X71693114Y-118027000D01*
X72019578Y-118027000D01*
X72464635Y-118472057D01*
X72464635Y-119650000D01*
X72496224Y-119812814D01*
X72590224Y-119955912D01*
X72732132Y-120051700D01*
X72900000Y-120085365D01*
X73800000Y-120085365D01*
X73962814Y-120053776D01*
X74105912Y-119959776D01*
X74201700Y-119817868D01*
X74235365Y-119650000D01*
X74235365Y-117150000D01*
X74203776Y-116987186D01*
X74109776Y-116844088D01*
X73967868Y-116748300D01*
X73800000Y-116714635D01*
X72900000Y-116714635D01*
X72737186Y-116746224D01*
X72663742Y-116794469D01*
X72559077Y-116724534D01*
X72300000Y-116673000D01*
X71691711Y-116673000D01*
X71650000Y-116664635D01*
X70750000Y-116664635D01*
X70706886Y-116673000D01*
X70591332Y-116673000D01*
X70580299Y-116646297D01*
X70354890Y-116420494D01*
X70060228Y-116298140D01*
X69741172Y-116297861D01*
X69446297Y-116419701D01*
X69442992Y-116423000D01*
X68751160Y-116423000D01*
X68534404Y-116466115D01*
X66549380Y-116466115D01*
X66386566Y-116497704D01*
X66243468Y-116591704D01*
X66147680Y-116733612D01*
X66114015Y-116901480D01*
X55302389Y-116901480D01*
X56176869Y-116027000D01*
X100523130Y-116027000D01*
X102973000Y-118476869D01*
M02*
