G04 #@! TF.FileFunction,Legend,Top*
%FSLAX46Y46*%
G04 Gerber Fmt 4.6, Leading zero omitted, Abs format (unit mm)*
G04 Created by KiCad (PCBNEW (2015-07-11 BZR 5925, Git c291b88)-product) date 8/13/2015 2:59:00 PM*
%MOMM*%
G01*
G04 APERTURE LIST*
%ADD10C,0.100000*%
%ADD11C,0.300000*%
%ADD12C,0.150000*%
G04 APERTURE END LIST*
D10*
D11*
X55600000Y-117700000D02*
X56314286Y-117700000D01*
X55457143Y-118128571D02*
X55957143Y-116628571D01*
X56457143Y-118128571D01*
X56742857Y-116628571D02*
X57242857Y-118128571D01*
X57742857Y-116628571D01*
X59100000Y-118128571D02*
X58600000Y-117414286D01*
X58242857Y-118128571D02*
X58242857Y-116628571D01*
X58814285Y-116628571D01*
X58957143Y-116700000D01*
X59028571Y-116771429D01*
X59100000Y-116914286D01*
X59100000Y-117128571D01*
X59028571Y-117271429D01*
X58957143Y-117342857D01*
X58814285Y-117414286D01*
X58242857Y-117414286D01*
X54671429Y-120528571D02*
X54671429Y-119028571D01*
X55242857Y-119028571D01*
X55385715Y-119100000D01*
X55457143Y-119171429D01*
X55528572Y-119314286D01*
X55528572Y-119528571D01*
X55457143Y-119671429D01*
X55385715Y-119742857D01*
X55242857Y-119814286D01*
X54671429Y-119814286D01*
X57028572Y-120528571D02*
X56528572Y-119814286D01*
X56171429Y-120528571D02*
X56171429Y-119028571D01*
X56742857Y-119028571D01*
X56885715Y-119100000D01*
X56957143Y-119171429D01*
X57028572Y-119314286D01*
X57028572Y-119528571D01*
X56957143Y-119671429D01*
X56885715Y-119742857D01*
X56742857Y-119814286D01*
X56171429Y-119814286D01*
X57957143Y-119028571D02*
X58242857Y-119028571D01*
X58385715Y-119100000D01*
X58528572Y-119242857D01*
X58600000Y-119528571D01*
X58600000Y-120028571D01*
X58528572Y-120314286D01*
X58385715Y-120457143D01*
X58242857Y-120528571D01*
X57957143Y-120528571D01*
X57814286Y-120457143D01*
X57671429Y-120314286D01*
X57600000Y-120028571D01*
X57600000Y-119528571D01*
X57671429Y-119242857D01*
X57814286Y-119100000D01*
X57957143Y-119028571D01*
X60028572Y-119100000D02*
X59885715Y-119028571D01*
X59671429Y-119028571D01*
X59457144Y-119100000D01*
X59314286Y-119242857D01*
X59242858Y-119385714D01*
X59171429Y-119671429D01*
X59171429Y-119885714D01*
X59242858Y-120171429D01*
X59314286Y-120314286D01*
X59457144Y-120457143D01*
X59671429Y-120528571D01*
X59814286Y-120528571D01*
X60028572Y-120457143D01*
X60100001Y-120385714D01*
X60100001Y-119885714D01*
X59814286Y-119885714D01*
X97552382Y-136892857D02*
X97433334Y-137011905D01*
X97076191Y-137130952D01*
X96838096Y-137130952D01*
X96480953Y-137011905D01*
X96242858Y-136773810D01*
X96123810Y-136535714D01*
X96004762Y-136059524D01*
X96004762Y-135702381D01*
X96123810Y-135226190D01*
X96242858Y-134988095D01*
X96480953Y-134750000D01*
X96838096Y-134630952D01*
X97076191Y-134630952D01*
X97433334Y-134750000D01*
X97552382Y-134869048D01*
X98504762Y-136416667D02*
X99695239Y-136416667D01*
X98266667Y-137130952D02*
X99100001Y-134630952D01*
X99933334Y-137130952D01*
X102195239Y-137130952D02*
X101361905Y-135940476D01*
X100766667Y-137130952D02*
X100766667Y-134630952D01*
X101719048Y-134630952D01*
X101957143Y-134750000D01*
X102076191Y-134869048D01*
X102195239Y-135107143D01*
X102195239Y-135464286D01*
X102076191Y-135702381D01*
X101957143Y-135821429D01*
X101719048Y-135940476D01*
X100766667Y-135940476D01*
X54283334Y-136980952D02*
X54283334Y-134480952D01*
X55116667Y-134480952D02*
X55950001Y-136980952D01*
X56783334Y-134480952D01*
X57616667Y-136980952D02*
X57616667Y-134480952D01*
D12*
X86807142Y-138121429D02*
X86807142Y-138607143D01*
X86835714Y-138664286D01*
X86864285Y-138692857D01*
X86921428Y-138721429D01*
X87035714Y-138721429D01*
X87092856Y-138692857D01*
X87121428Y-138664286D01*
X87149999Y-138607143D01*
X87149999Y-138121429D01*
X87435713Y-138321429D02*
X87435713Y-138721429D01*
X87435713Y-138378571D02*
X87464285Y-138350000D01*
X87521427Y-138321429D01*
X87607142Y-138321429D01*
X87664285Y-138350000D01*
X87692856Y-138407143D01*
X87692856Y-138721429D01*
X88064284Y-138721429D02*
X88007142Y-138692857D01*
X87978570Y-138635714D01*
X87978570Y-138121429D01*
X88549999Y-138721429D02*
X88549999Y-138407143D01*
X88521428Y-138350000D01*
X88464285Y-138321429D01*
X88349999Y-138321429D01*
X88292856Y-138350000D01*
X88549999Y-138692857D02*
X88492856Y-138721429D01*
X88349999Y-138721429D01*
X88292856Y-138692857D01*
X88264285Y-138635714D01*
X88264285Y-138578571D01*
X88292856Y-138521429D01*
X88349999Y-138492857D01*
X88492856Y-138492857D01*
X88549999Y-138464286D01*
X88835713Y-138721429D02*
X88835713Y-138121429D01*
X88835713Y-138350000D02*
X88892856Y-138321429D01*
X89007142Y-138321429D01*
X89064285Y-138350000D01*
X89092856Y-138378571D01*
X89121427Y-138435714D01*
X89121427Y-138607143D01*
X89092856Y-138664286D01*
X89064285Y-138692857D01*
X89007142Y-138721429D01*
X88892856Y-138721429D01*
X88835713Y-138692857D01*
X89607142Y-138692857D02*
X89549999Y-138721429D01*
X89435713Y-138721429D01*
X89378570Y-138692857D01*
X89349999Y-138635714D01*
X89349999Y-138407143D01*
X89378570Y-138350000D01*
X89435713Y-138321429D01*
X89549999Y-138321429D01*
X89607142Y-138350000D01*
X89635713Y-138407143D01*
X89635713Y-138464286D01*
X89349999Y-138521429D01*
X89978570Y-138721429D02*
X89921428Y-138692857D01*
X89892856Y-138635714D01*
X89892856Y-138121429D01*
X90435714Y-138692857D02*
X90378571Y-138721429D01*
X90264285Y-138721429D01*
X90207142Y-138692857D01*
X90178571Y-138635714D01*
X90178571Y-138407143D01*
X90207142Y-138350000D01*
X90264285Y-138321429D01*
X90378571Y-138321429D01*
X90435714Y-138350000D01*
X90464285Y-138407143D01*
X90464285Y-138464286D01*
X90178571Y-138521429D01*
X90978571Y-138721429D02*
X90978571Y-138121429D01*
X90978571Y-138692857D02*
X90921428Y-138721429D01*
X90807142Y-138721429D01*
X90750000Y-138692857D01*
X90721428Y-138664286D01*
X90692857Y-138607143D01*
X90692857Y-138435714D01*
X90721428Y-138378571D01*
X90750000Y-138350000D01*
X90807142Y-138321429D01*
X90921428Y-138321429D01*
X90978571Y-138350000D01*
X92064285Y-138664286D02*
X92035714Y-138692857D01*
X91950000Y-138721429D01*
X91892857Y-138721429D01*
X91807142Y-138692857D01*
X91750000Y-138635714D01*
X91721428Y-138578571D01*
X91692857Y-138464286D01*
X91692857Y-138378571D01*
X91721428Y-138264286D01*
X91750000Y-138207143D01*
X91807142Y-138150000D01*
X91892857Y-138121429D01*
X91950000Y-138121429D01*
X92035714Y-138150000D01*
X92064285Y-138178571D01*
X92350000Y-138121429D02*
X92292857Y-138235714D01*
X92578571Y-138692857D02*
X92635714Y-138721429D01*
X92749999Y-138721429D01*
X92807142Y-138692857D01*
X92835714Y-138635714D01*
X92835714Y-138607143D01*
X92807142Y-138550000D01*
X92749999Y-138521429D01*
X92664285Y-138521429D01*
X92607142Y-138492857D01*
X92578571Y-138435714D01*
X92578571Y-138407143D01*
X92607142Y-138350000D01*
X92664285Y-138321429D01*
X92749999Y-138321429D01*
X92807142Y-138350000D01*
X93807142Y-138721429D02*
X93807142Y-138407143D01*
X93778571Y-138350000D01*
X93721428Y-138321429D01*
X93607142Y-138321429D01*
X93549999Y-138350000D01*
X93807142Y-138692857D02*
X93749999Y-138721429D01*
X93607142Y-138721429D01*
X93549999Y-138692857D01*
X93521428Y-138635714D01*
X93521428Y-138578571D01*
X93549999Y-138521429D01*
X93607142Y-138492857D01*
X93749999Y-138492857D01*
X93807142Y-138464286D01*
X94092856Y-138721429D02*
X94092856Y-138321429D01*
X94092856Y-138435714D02*
X94121428Y-138378571D01*
X94149999Y-138350000D01*
X94207142Y-138321429D01*
X94264285Y-138321429D01*
X94692857Y-138692857D02*
X94635714Y-138721429D01*
X94521428Y-138721429D01*
X94464285Y-138692857D01*
X94435714Y-138635714D01*
X94435714Y-138407143D01*
X94464285Y-138350000D01*
X94521428Y-138321429D01*
X94635714Y-138321429D01*
X94692857Y-138350000D01*
X94721428Y-138407143D01*
X94721428Y-138464286D01*
X94435714Y-138521429D01*
X95750000Y-138721429D02*
X95407143Y-138721429D01*
X95578571Y-138721429D02*
X95578571Y-138121429D01*
X95521428Y-138207143D01*
X95464286Y-138264286D01*
X95407143Y-138292857D01*
X96121429Y-138121429D02*
X96178572Y-138121429D01*
X96235715Y-138150000D01*
X96264286Y-138178571D01*
X96292857Y-138235714D01*
X96321429Y-138350000D01*
X96321429Y-138492857D01*
X96292857Y-138607143D01*
X96264286Y-138664286D01*
X96235715Y-138692857D01*
X96178572Y-138721429D01*
X96121429Y-138721429D01*
X96064286Y-138692857D01*
X96035715Y-138664286D01*
X96007143Y-138607143D01*
X95978572Y-138492857D01*
X95978572Y-138350000D01*
X96007143Y-138235714D01*
X96035715Y-138178571D01*
X96064286Y-138150000D01*
X96121429Y-138121429D01*
X96692858Y-138121429D02*
X96750001Y-138121429D01*
X96807144Y-138150000D01*
X96835715Y-138178571D01*
X96864286Y-138235714D01*
X96892858Y-138350000D01*
X96892858Y-138492857D01*
X96864286Y-138607143D01*
X96835715Y-138664286D01*
X96807144Y-138692857D01*
X96750001Y-138721429D01*
X96692858Y-138721429D01*
X96635715Y-138692857D01*
X96607144Y-138664286D01*
X96578572Y-138607143D01*
X96550001Y-138492857D01*
X96550001Y-138350000D01*
X96578572Y-138235714D01*
X96607144Y-138178571D01*
X96635715Y-138150000D01*
X96692858Y-138121429D01*
X97150001Y-138721429D02*
X97150001Y-138121429D01*
X97492858Y-138721429D01*
X97492858Y-138121429D01*
X63825000Y-130800000D02*
X63825000Y-129800000D01*
X65175000Y-129800000D02*
X65175000Y-130800000D01*
X61625000Y-126800000D02*
X61625000Y-125800000D01*
X62975000Y-125800000D02*
X62975000Y-126800000D01*
X88525000Y-126400000D02*
X88525000Y-125400000D01*
X89875000Y-125400000D02*
X89875000Y-126400000D01*
X93325000Y-130400000D02*
X93325000Y-129400000D01*
X94675000Y-129400000D02*
X94675000Y-130400000D01*
X70525000Y-118600000D02*
X70525000Y-117600000D01*
X71875000Y-117600000D02*
X71875000Y-118600000D01*
X72100000Y-121300000D02*
X75800000Y-121300000D01*
X72100000Y-123100000D02*
X75800000Y-123100000D01*
X77725000Y-118600000D02*
X77725000Y-117600000D01*
X79075000Y-117600000D02*
X79075000Y-118600000D01*
X79075000Y-121400000D02*
X79075000Y-122400000D01*
X77725000Y-122400000D02*
X77725000Y-121400000D01*
X87175000Y-132200000D02*
X87175000Y-133200000D01*
X85825000Y-133200000D02*
X85825000Y-132200000D01*
X70025000Y-133000000D02*
X70025000Y-132000000D01*
X71375000Y-132000000D02*
X71375000Y-133000000D01*
X69925000Y-129200000D02*
X69925000Y-128200000D01*
X71275000Y-128200000D02*
X71275000Y-129200000D01*
X71375000Y-135500000D02*
X71375000Y-136500000D01*
X70025000Y-136500000D02*
X70025000Y-135500000D01*
X65900000Y-117993680D02*
X66099800Y-117993680D01*
X65950000Y-118450720D02*
X66099000Y-118450720D01*
X65900000Y-122596160D02*
X66049000Y-122596160D01*
X69500000Y-117998760D02*
X69351000Y-117998760D01*
X69500000Y-118450720D02*
X69351000Y-118450720D01*
X69500000Y-122601240D02*
X69351000Y-122601240D01*
X65751020Y-118450720D02*
X65949140Y-118450720D01*
X69698980Y-118450720D02*
X69500860Y-118450720D01*
X65703560Y-122596160D02*
X65901680Y-122596160D01*
X65703560Y-117993680D02*
X65703560Y-122596160D01*
X65703560Y-117993680D02*
X65901680Y-117993680D01*
X69698980Y-117998760D02*
X69500860Y-117998760D01*
X69698980Y-117998760D02*
X69698980Y-122601240D01*
X69698980Y-122601240D02*
X69500860Y-122601240D01*
X75800000Y-119875000D02*
X73800000Y-119875000D01*
X73800000Y-116925000D02*
X75800000Y-116925000D01*
X68375000Y-125700000D02*
X68375000Y-126700000D01*
X67025000Y-126700000D02*
X67025000Y-125700000D01*
X62975000Y-129800000D02*
X62975000Y-130800000D01*
X61625000Y-130800000D02*
X61625000Y-129800000D01*
X65175000Y-125800000D02*
X65175000Y-126800000D01*
X63825000Y-126800000D02*
X63825000Y-125800000D01*
X92275000Y-125400000D02*
X92275000Y-126400000D01*
X90925000Y-126400000D02*
X90925000Y-125400000D01*
X92275000Y-129400000D02*
X92275000Y-130400000D01*
X90925000Y-130400000D02*
X90925000Y-129400000D01*
X68375000Y-129800000D02*
X68375000Y-130800000D01*
X67025000Y-130800000D02*
X67025000Y-129800000D01*
X89875000Y-129400000D02*
X89875000Y-130400000D01*
X88525000Y-130400000D02*
X88525000Y-129400000D01*
X87175000Y-128100000D02*
X87175000Y-129100000D01*
X85825000Y-129100000D02*
X85825000Y-128100000D01*
X65889000Y-136905000D02*
G75*
G03X65889000Y-136905000I-127000J0D01*
G01*
X66397000Y-137540000D02*
X66397000Y-132460000D01*
X63095000Y-137540000D02*
X63095000Y-132460000D01*
X66905000Y-137540000D02*
X66905000Y-132460000D01*
X66905000Y-137540000D02*
X63095000Y-137540000D01*
X66905000Y-132460000D02*
X63095000Y-132460000D01*
X91365000Y-133195000D02*
G75*
G03X91365000Y-133195000I-127000J0D01*
G01*
X90603000Y-132560000D02*
X90603000Y-137640000D01*
X93905000Y-132560000D02*
X93905000Y-137640000D01*
X90095000Y-132560000D02*
X90095000Y-137640000D01*
X90095000Y-132560000D02*
X93905000Y-132560000D01*
X90095000Y-137640000D02*
X93905000Y-137640000D01*
X62039220Y-119369040D02*
X61429620Y-119369040D01*
X61429620Y-119369040D02*
X61419460Y-119800840D01*
X87175000Y-135500000D02*
X87175000Y-136500000D01*
X85825000Y-136500000D02*
X85825000Y-135500000D01*
X41235000Y-136109000D02*
X41235000Y-118964000D01*
X52030000Y-118329000D02*
X52030000Y-136744000D01*
X52030000Y-117694000D02*
X52030000Y-118329000D01*
X48855000Y-117694000D02*
X48855000Y-137379000D01*
X48855000Y-111979000D02*
X48855000Y-117694000D01*
X47585000Y-143094000D02*
X47585000Y-111979000D01*
X47585000Y-118964000D02*
X41235000Y-118964000D01*
X48855000Y-111979000D02*
X47585000Y-111979000D01*
X52030000Y-117694000D02*
X48855000Y-117694000D01*
X53300000Y-120234000D02*
X53300000Y-118329000D01*
X53300000Y-118329000D02*
X52030000Y-118329000D01*
X47585000Y-136109000D02*
X41235000Y-136109000D01*
X48855000Y-137379000D02*
X48855000Y-143094000D01*
X48855000Y-143094000D02*
X47585000Y-143094000D01*
X52030000Y-136744000D02*
X52030000Y-137379000D01*
X52030000Y-137379000D02*
X48855000Y-137379000D01*
X53300000Y-134839000D02*
X53300000Y-136744000D01*
X53300000Y-136744000D02*
X52030000Y-136744000D01*
X115465000Y-118891000D02*
X115465000Y-136036000D01*
X104670000Y-136671000D02*
X104670000Y-118256000D01*
X104670000Y-137306000D02*
X104670000Y-136671000D01*
X107845000Y-137306000D02*
X107845000Y-117621000D01*
X107845000Y-143021000D02*
X107845000Y-137306000D01*
X109115000Y-111906000D02*
X109115000Y-143021000D01*
X109115000Y-136036000D02*
X115465000Y-136036000D01*
X107845000Y-143021000D02*
X109115000Y-143021000D01*
X104670000Y-137306000D02*
X107845000Y-137306000D01*
X103400000Y-134766000D02*
X103400000Y-136671000D01*
X103400000Y-136671000D02*
X104670000Y-136671000D01*
X109115000Y-118891000D02*
X115465000Y-118891000D01*
X107845000Y-117621000D02*
X107845000Y-111906000D01*
X107845000Y-111906000D02*
X109115000Y-111906000D01*
X104670000Y-118256000D02*
X104670000Y-117621000D01*
X104670000Y-117621000D02*
X107845000Y-117621000D01*
X103400000Y-120161000D02*
X103400000Y-118256000D01*
X103400000Y-118256000D02*
X104670000Y-118256000D01*
X73425000Y-125825000D02*
X73425000Y-126900000D01*
X83775000Y-125825000D02*
X83775000Y-126900000D01*
X83775000Y-136175000D02*
X83775000Y-135100000D01*
X73425000Y-136175000D02*
X73425000Y-135100000D01*
X73425000Y-125825000D02*
X74500000Y-125825000D01*
X73425000Y-136175000D02*
X74500000Y-136175000D01*
X83775000Y-136175000D02*
X82700000Y-136175000D01*
X83775000Y-125825000D02*
X82700000Y-125825000D01*
X73425000Y-126900000D02*
X72400000Y-126900000D01*
X99090000Y-117030000D02*
X94010000Y-117030000D01*
X99090000Y-121475000D02*
X94010000Y-121475000D01*
X94010000Y-115125000D02*
X99090000Y-115125000D01*
X94010000Y-115125000D02*
X94010000Y-121475000D01*
X99090000Y-115125000D02*
X99090000Y-121475000D01*
X64400000Y-128914286D02*
X64371429Y-128942857D01*
X64285715Y-128971429D01*
X64228572Y-128971429D01*
X64142857Y-128942857D01*
X64085715Y-128885714D01*
X64057143Y-128828571D01*
X64028572Y-128714286D01*
X64028572Y-128628571D01*
X64057143Y-128514286D01*
X64085715Y-128457143D01*
X64142857Y-128400000D01*
X64228572Y-128371429D01*
X64285715Y-128371429D01*
X64371429Y-128400000D01*
X64400000Y-128428571D01*
X64971429Y-128971429D02*
X64628572Y-128971429D01*
X64800000Y-128971429D02*
X64800000Y-128371429D01*
X64742857Y-128457143D01*
X64685715Y-128514286D01*
X64628572Y-128542857D01*
X63771428Y-131571429D02*
X63485714Y-131571429D01*
X63457143Y-131857143D01*
X63485714Y-131828571D01*
X63542857Y-131800000D01*
X63685714Y-131800000D01*
X63742857Y-131828571D01*
X63771428Y-131857143D01*
X63800000Y-131914286D01*
X63800000Y-132057143D01*
X63771428Y-132114286D01*
X63742857Y-132142857D01*
X63685714Y-132171429D01*
X63542857Y-132171429D01*
X63485714Y-132142857D01*
X63457143Y-132114286D01*
X64314286Y-131571429D02*
X64200000Y-131571429D01*
X64142857Y-131600000D01*
X64114286Y-131628571D01*
X64057143Y-131714286D01*
X64028572Y-131828571D01*
X64028572Y-132057143D01*
X64057143Y-132114286D01*
X64085715Y-132142857D01*
X64142857Y-132171429D01*
X64257143Y-132171429D01*
X64314286Y-132142857D01*
X64342857Y-132114286D01*
X64371429Y-132057143D01*
X64371429Y-131914286D01*
X64342857Y-131857143D01*
X64314286Y-131828571D01*
X64257143Y-131800000D01*
X64142857Y-131800000D01*
X64085715Y-131828571D01*
X64057143Y-131857143D01*
X64028572Y-131914286D01*
X64742858Y-131571429D02*
X64800001Y-131571429D01*
X64857144Y-131600000D01*
X64885715Y-131628571D01*
X64914286Y-131685714D01*
X64942858Y-131800000D01*
X64942858Y-131942857D01*
X64914286Y-132057143D01*
X64885715Y-132114286D01*
X64857144Y-132142857D01*
X64800001Y-132171429D01*
X64742858Y-132171429D01*
X64685715Y-132142857D01*
X64657144Y-132114286D01*
X64628572Y-132057143D01*
X64600001Y-131942857D01*
X64600001Y-131800000D01*
X64628572Y-131685714D01*
X64657144Y-131628571D01*
X64685715Y-131600000D01*
X64742858Y-131571429D01*
X65200001Y-132171429D02*
X65200001Y-131571429D01*
X65428573Y-131571429D01*
X65485715Y-131600000D01*
X65514287Y-131628571D01*
X65542858Y-131685714D01*
X65542858Y-131771429D01*
X65514287Y-131828571D01*
X65485715Y-131857143D01*
X65428573Y-131885714D01*
X65200001Y-131885714D01*
X62150000Y-124964286D02*
X62121429Y-124992857D01*
X62035715Y-125021429D01*
X61978572Y-125021429D01*
X61892857Y-124992857D01*
X61835715Y-124935714D01*
X61807143Y-124878571D01*
X61778572Y-124764286D01*
X61778572Y-124678571D01*
X61807143Y-124564286D01*
X61835715Y-124507143D01*
X61892857Y-124450000D01*
X61978572Y-124421429D01*
X62035715Y-124421429D01*
X62121429Y-124450000D01*
X62150000Y-124478571D01*
X62378572Y-124478571D02*
X62407143Y-124450000D01*
X62464286Y-124421429D01*
X62607143Y-124421429D01*
X62664286Y-124450000D01*
X62692857Y-124478571D01*
X62721429Y-124535714D01*
X62721429Y-124592857D01*
X62692857Y-124678571D01*
X62350000Y-125021429D01*
X62721429Y-125021429D01*
X61621428Y-127571429D02*
X61335714Y-127571429D01*
X61307143Y-127857143D01*
X61335714Y-127828571D01*
X61392857Y-127800000D01*
X61535714Y-127800000D01*
X61592857Y-127828571D01*
X61621428Y-127857143D01*
X61650000Y-127914286D01*
X61650000Y-128057143D01*
X61621428Y-128114286D01*
X61592857Y-128142857D01*
X61535714Y-128171429D01*
X61392857Y-128171429D01*
X61335714Y-128142857D01*
X61307143Y-128114286D01*
X62164286Y-127571429D02*
X62050000Y-127571429D01*
X61992857Y-127600000D01*
X61964286Y-127628571D01*
X61907143Y-127714286D01*
X61878572Y-127828571D01*
X61878572Y-128057143D01*
X61907143Y-128114286D01*
X61935715Y-128142857D01*
X61992857Y-128171429D01*
X62107143Y-128171429D01*
X62164286Y-128142857D01*
X62192857Y-128114286D01*
X62221429Y-128057143D01*
X62221429Y-127914286D01*
X62192857Y-127857143D01*
X62164286Y-127828571D01*
X62107143Y-127800000D01*
X61992857Y-127800000D01*
X61935715Y-127828571D01*
X61907143Y-127857143D01*
X61878572Y-127914286D01*
X62592858Y-127571429D02*
X62650001Y-127571429D01*
X62707144Y-127600000D01*
X62735715Y-127628571D01*
X62764286Y-127685714D01*
X62792858Y-127800000D01*
X62792858Y-127942857D01*
X62764286Y-128057143D01*
X62735715Y-128114286D01*
X62707144Y-128142857D01*
X62650001Y-128171429D01*
X62592858Y-128171429D01*
X62535715Y-128142857D01*
X62507144Y-128114286D01*
X62478572Y-128057143D01*
X62450001Y-127942857D01*
X62450001Y-127800000D01*
X62478572Y-127685714D01*
X62507144Y-127628571D01*
X62535715Y-127600000D01*
X62592858Y-127571429D01*
X63050001Y-128171429D02*
X63050001Y-127571429D01*
X63278573Y-127571429D01*
X63335715Y-127600000D01*
X63364287Y-127628571D01*
X63392858Y-127685714D01*
X63392858Y-127771429D01*
X63364287Y-127828571D01*
X63335715Y-127857143D01*
X63278573Y-127885714D01*
X63050001Y-127885714D01*
X89050000Y-124564286D02*
X89021429Y-124592857D01*
X88935715Y-124621429D01*
X88878572Y-124621429D01*
X88792857Y-124592857D01*
X88735715Y-124535714D01*
X88707143Y-124478571D01*
X88678572Y-124364286D01*
X88678572Y-124278571D01*
X88707143Y-124164286D01*
X88735715Y-124107143D01*
X88792857Y-124050000D01*
X88878572Y-124021429D01*
X88935715Y-124021429D01*
X89021429Y-124050000D01*
X89050000Y-124078571D01*
X89250000Y-124021429D02*
X89621429Y-124021429D01*
X89421429Y-124250000D01*
X89507143Y-124250000D01*
X89564286Y-124278571D01*
X89592857Y-124307143D01*
X89621429Y-124364286D01*
X89621429Y-124507143D01*
X89592857Y-124564286D01*
X89564286Y-124592857D01*
X89507143Y-124621429D01*
X89335715Y-124621429D01*
X89278572Y-124592857D01*
X89250000Y-124564286D01*
X88521428Y-127171429D02*
X88235714Y-127171429D01*
X88207143Y-127457143D01*
X88235714Y-127428571D01*
X88292857Y-127400000D01*
X88435714Y-127400000D01*
X88492857Y-127428571D01*
X88521428Y-127457143D01*
X88550000Y-127514286D01*
X88550000Y-127657143D01*
X88521428Y-127714286D01*
X88492857Y-127742857D01*
X88435714Y-127771429D01*
X88292857Y-127771429D01*
X88235714Y-127742857D01*
X88207143Y-127714286D01*
X89064286Y-127171429D02*
X88950000Y-127171429D01*
X88892857Y-127200000D01*
X88864286Y-127228571D01*
X88807143Y-127314286D01*
X88778572Y-127428571D01*
X88778572Y-127657143D01*
X88807143Y-127714286D01*
X88835715Y-127742857D01*
X88892857Y-127771429D01*
X89007143Y-127771429D01*
X89064286Y-127742857D01*
X89092857Y-127714286D01*
X89121429Y-127657143D01*
X89121429Y-127514286D01*
X89092857Y-127457143D01*
X89064286Y-127428571D01*
X89007143Y-127400000D01*
X88892857Y-127400000D01*
X88835715Y-127428571D01*
X88807143Y-127457143D01*
X88778572Y-127514286D01*
X89492858Y-127171429D02*
X89550001Y-127171429D01*
X89607144Y-127200000D01*
X89635715Y-127228571D01*
X89664286Y-127285714D01*
X89692858Y-127400000D01*
X89692858Y-127542857D01*
X89664286Y-127657143D01*
X89635715Y-127714286D01*
X89607144Y-127742857D01*
X89550001Y-127771429D01*
X89492858Y-127771429D01*
X89435715Y-127742857D01*
X89407144Y-127714286D01*
X89378572Y-127657143D01*
X89350001Y-127542857D01*
X89350001Y-127400000D01*
X89378572Y-127285714D01*
X89407144Y-127228571D01*
X89435715Y-127200000D01*
X89492858Y-127171429D01*
X89950001Y-127771429D02*
X89950001Y-127171429D01*
X90178573Y-127171429D01*
X90235715Y-127200000D01*
X90264287Y-127228571D01*
X90292858Y-127285714D01*
X90292858Y-127371429D01*
X90264287Y-127428571D01*
X90235715Y-127457143D01*
X90178573Y-127485714D01*
X89950001Y-127485714D01*
X93900000Y-128564286D02*
X93871429Y-128592857D01*
X93785715Y-128621429D01*
X93728572Y-128621429D01*
X93642857Y-128592857D01*
X93585715Y-128535714D01*
X93557143Y-128478571D01*
X93528572Y-128364286D01*
X93528572Y-128278571D01*
X93557143Y-128164286D01*
X93585715Y-128107143D01*
X93642857Y-128050000D01*
X93728572Y-128021429D01*
X93785715Y-128021429D01*
X93871429Y-128050000D01*
X93900000Y-128078571D01*
X94414286Y-128221429D02*
X94414286Y-128621429D01*
X94271429Y-127992857D02*
X94128572Y-128421429D01*
X94500000Y-128421429D01*
X93321428Y-131171429D02*
X93035714Y-131171429D01*
X93007143Y-131457143D01*
X93035714Y-131428571D01*
X93092857Y-131400000D01*
X93235714Y-131400000D01*
X93292857Y-131428571D01*
X93321428Y-131457143D01*
X93350000Y-131514286D01*
X93350000Y-131657143D01*
X93321428Y-131714286D01*
X93292857Y-131742857D01*
X93235714Y-131771429D01*
X93092857Y-131771429D01*
X93035714Y-131742857D01*
X93007143Y-131714286D01*
X93864286Y-131171429D02*
X93750000Y-131171429D01*
X93692857Y-131200000D01*
X93664286Y-131228571D01*
X93607143Y-131314286D01*
X93578572Y-131428571D01*
X93578572Y-131657143D01*
X93607143Y-131714286D01*
X93635715Y-131742857D01*
X93692857Y-131771429D01*
X93807143Y-131771429D01*
X93864286Y-131742857D01*
X93892857Y-131714286D01*
X93921429Y-131657143D01*
X93921429Y-131514286D01*
X93892857Y-131457143D01*
X93864286Y-131428571D01*
X93807143Y-131400000D01*
X93692857Y-131400000D01*
X93635715Y-131428571D01*
X93607143Y-131457143D01*
X93578572Y-131514286D01*
X94292858Y-131171429D02*
X94350001Y-131171429D01*
X94407144Y-131200000D01*
X94435715Y-131228571D01*
X94464286Y-131285714D01*
X94492858Y-131400000D01*
X94492858Y-131542857D01*
X94464286Y-131657143D01*
X94435715Y-131714286D01*
X94407144Y-131742857D01*
X94350001Y-131771429D01*
X94292858Y-131771429D01*
X94235715Y-131742857D01*
X94207144Y-131714286D01*
X94178572Y-131657143D01*
X94150001Y-131542857D01*
X94150001Y-131400000D01*
X94178572Y-131285714D01*
X94207144Y-131228571D01*
X94235715Y-131200000D01*
X94292858Y-131171429D01*
X94750001Y-131771429D02*
X94750001Y-131171429D01*
X94978573Y-131171429D01*
X95035715Y-131200000D01*
X95064287Y-131228571D01*
X95092858Y-131285714D01*
X95092858Y-131371429D01*
X95064287Y-131428571D01*
X95035715Y-131457143D01*
X94978573Y-131485714D01*
X94750001Y-131485714D01*
X71000000Y-116814286D02*
X70971429Y-116842857D01*
X70885715Y-116871429D01*
X70828572Y-116871429D01*
X70742857Y-116842857D01*
X70685715Y-116785714D01*
X70657143Y-116728571D01*
X70628572Y-116614286D01*
X70628572Y-116528571D01*
X70657143Y-116414286D01*
X70685715Y-116357143D01*
X70742857Y-116300000D01*
X70828572Y-116271429D01*
X70885715Y-116271429D01*
X70971429Y-116300000D01*
X71000000Y-116328571D01*
X71542857Y-116271429D02*
X71257143Y-116271429D01*
X71228572Y-116557143D01*
X71257143Y-116528571D01*
X71314286Y-116500000D01*
X71457143Y-116500000D01*
X71514286Y-116528571D01*
X71542857Y-116557143D01*
X71571429Y-116614286D01*
X71571429Y-116757143D01*
X71542857Y-116814286D01*
X71514286Y-116842857D01*
X71457143Y-116871429D01*
X71314286Y-116871429D01*
X71257143Y-116842857D01*
X71228572Y-116814286D01*
X70771429Y-119971429D02*
X70428572Y-119971429D01*
X70600000Y-119971429D02*
X70600000Y-119371429D01*
X70542857Y-119457143D01*
X70485715Y-119514286D01*
X70428572Y-119542857D01*
X71142858Y-119371429D02*
X71200001Y-119371429D01*
X71257144Y-119400000D01*
X71285715Y-119428571D01*
X71314286Y-119485714D01*
X71342858Y-119600000D01*
X71342858Y-119742857D01*
X71314286Y-119857143D01*
X71285715Y-119914286D01*
X71257144Y-119942857D01*
X71200001Y-119971429D01*
X71142858Y-119971429D01*
X71085715Y-119942857D01*
X71057144Y-119914286D01*
X71028572Y-119857143D01*
X71000001Y-119742857D01*
X71000001Y-119600000D01*
X71028572Y-119485714D01*
X71057144Y-119428571D01*
X71085715Y-119400000D01*
X71142858Y-119371429D01*
X71600001Y-119971429D02*
X71600001Y-119371429D01*
X71942858Y-119971429D01*
X71942858Y-119371429D01*
X71114286Y-122200000D02*
X71142857Y-122228571D01*
X71171429Y-122314285D01*
X71171429Y-122371428D01*
X71142857Y-122457143D01*
X71085714Y-122514285D01*
X71028571Y-122542857D01*
X70914286Y-122571428D01*
X70828571Y-122571428D01*
X70714286Y-122542857D01*
X70657143Y-122514285D01*
X70600000Y-122457143D01*
X70571429Y-122371428D01*
X70571429Y-122314285D01*
X70600000Y-122228571D01*
X70628571Y-122200000D01*
X70571429Y-121685714D02*
X70571429Y-121800000D01*
X70600000Y-121857143D01*
X70628571Y-121885714D01*
X70714286Y-121942857D01*
X70828571Y-121971428D01*
X71057143Y-121971428D01*
X71114286Y-121942857D01*
X71142857Y-121914285D01*
X71171429Y-121857143D01*
X71171429Y-121742857D01*
X71142857Y-121685714D01*
X71114286Y-121657143D01*
X71057143Y-121628571D01*
X70914286Y-121628571D01*
X70857143Y-121657143D01*
X70828571Y-121685714D01*
X70800000Y-121742857D01*
X70800000Y-121857143D01*
X70828571Y-121914285D01*
X70857143Y-121942857D01*
X70914286Y-121971428D01*
X76571429Y-122685714D02*
X76971429Y-122685714D01*
X76342857Y-122828571D02*
X76771429Y-122971428D01*
X76771429Y-122600000D01*
X76371429Y-122371428D02*
X76857143Y-122371428D01*
X76914286Y-122342856D01*
X76942857Y-122314285D01*
X76971429Y-122257142D01*
X76971429Y-122142856D01*
X76942857Y-122085714D01*
X76914286Y-122057142D01*
X76857143Y-122028571D01*
X76371429Y-122028571D01*
X76371429Y-121800000D02*
X76371429Y-121400000D01*
X76971429Y-121657143D01*
X78200000Y-116614286D02*
X78171429Y-116642857D01*
X78085715Y-116671429D01*
X78028572Y-116671429D01*
X77942857Y-116642857D01*
X77885715Y-116585714D01*
X77857143Y-116528571D01*
X77828572Y-116414286D01*
X77828572Y-116328571D01*
X77857143Y-116214286D01*
X77885715Y-116157143D01*
X77942857Y-116100000D01*
X78028572Y-116071429D01*
X78085715Y-116071429D01*
X78171429Y-116100000D01*
X78200000Y-116128571D01*
X78400000Y-116071429D02*
X78800000Y-116071429D01*
X78542857Y-116671429D01*
X78300000Y-120414286D02*
X78271429Y-120442857D01*
X78185715Y-120471429D01*
X78128572Y-120471429D01*
X78042857Y-120442857D01*
X77985715Y-120385714D01*
X77957143Y-120328571D01*
X77928572Y-120214286D01*
X77928572Y-120128571D01*
X77957143Y-120014286D01*
X77985715Y-119957143D01*
X78042857Y-119900000D01*
X78128572Y-119871429D01*
X78185715Y-119871429D01*
X78271429Y-119900000D01*
X78300000Y-119928571D01*
X78642857Y-120128571D02*
X78585715Y-120100000D01*
X78557143Y-120071429D01*
X78528572Y-120014286D01*
X78528572Y-119985714D01*
X78557143Y-119928571D01*
X78585715Y-119900000D01*
X78642857Y-119871429D01*
X78757143Y-119871429D01*
X78814286Y-119900000D01*
X78842857Y-119928571D01*
X78871429Y-119985714D01*
X78871429Y-120014286D01*
X78842857Y-120071429D01*
X78814286Y-120100000D01*
X78757143Y-120128571D01*
X78642857Y-120128571D01*
X78585715Y-120157143D01*
X78557143Y-120185714D01*
X78528572Y-120242857D01*
X78528572Y-120357143D01*
X78557143Y-120414286D01*
X78585715Y-120442857D01*
X78642857Y-120471429D01*
X78757143Y-120471429D01*
X78814286Y-120442857D01*
X78842857Y-120414286D01*
X78871429Y-120357143D01*
X78871429Y-120242857D01*
X78842857Y-120185714D01*
X78814286Y-120157143D01*
X78757143Y-120128571D01*
X86350000Y-131364286D02*
X86321429Y-131392857D01*
X86235715Y-131421429D01*
X86178572Y-131421429D01*
X86092857Y-131392857D01*
X86035715Y-131335714D01*
X86007143Y-131278571D01*
X85978572Y-131164286D01*
X85978572Y-131078571D01*
X86007143Y-130964286D01*
X86035715Y-130907143D01*
X86092857Y-130850000D01*
X86178572Y-130821429D01*
X86235715Y-130821429D01*
X86321429Y-130850000D01*
X86350000Y-130878571D01*
X86635715Y-131421429D02*
X86750000Y-131421429D01*
X86807143Y-131392857D01*
X86835715Y-131364286D01*
X86892857Y-131278571D01*
X86921429Y-131164286D01*
X86921429Y-130935714D01*
X86892857Y-130878571D01*
X86864286Y-130850000D01*
X86807143Y-130821429D01*
X86692857Y-130821429D01*
X86635715Y-130850000D01*
X86607143Y-130878571D01*
X86578572Y-130935714D01*
X86578572Y-131078571D01*
X86607143Y-131135714D01*
X86635715Y-131164286D01*
X86692857Y-131192857D01*
X86807143Y-131192857D01*
X86864286Y-131164286D01*
X86892857Y-131135714D01*
X86921429Y-131078571D01*
X70314285Y-131164286D02*
X70285714Y-131192857D01*
X70200000Y-131221429D01*
X70142857Y-131221429D01*
X70057142Y-131192857D01*
X70000000Y-131135714D01*
X69971428Y-131078571D01*
X69942857Y-130964286D01*
X69942857Y-130878571D01*
X69971428Y-130764286D01*
X70000000Y-130707143D01*
X70057142Y-130650000D01*
X70142857Y-130621429D01*
X70200000Y-130621429D01*
X70285714Y-130650000D01*
X70314285Y-130678571D01*
X70885714Y-131221429D02*
X70542857Y-131221429D01*
X70714285Y-131221429D02*
X70714285Y-130621429D01*
X70657142Y-130707143D01*
X70600000Y-130764286D01*
X70542857Y-130792857D01*
X71257143Y-130621429D02*
X71314286Y-130621429D01*
X71371429Y-130650000D01*
X71400000Y-130678571D01*
X71428571Y-130735714D01*
X71457143Y-130850000D01*
X71457143Y-130992857D01*
X71428571Y-131107143D01*
X71400000Y-131164286D01*
X71371429Y-131192857D01*
X71314286Y-131221429D01*
X71257143Y-131221429D01*
X71200000Y-131192857D01*
X71171429Y-131164286D01*
X71142857Y-131107143D01*
X71114286Y-130992857D01*
X71114286Y-130850000D01*
X71142857Y-130735714D01*
X71171429Y-130678571D01*
X71200000Y-130650000D01*
X71257143Y-130621429D01*
X70214285Y-127364286D02*
X70185714Y-127392857D01*
X70100000Y-127421429D01*
X70042857Y-127421429D01*
X69957142Y-127392857D01*
X69900000Y-127335714D01*
X69871428Y-127278571D01*
X69842857Y-127164286D01*
X69842857Y-127078571D01*
X69871428Y-126964286D01*
X69900000Y-126907143D01*
X69957142Y-126850000D01*
X70042857Y-126821429D01*
X70100000Y-126821429D01*
X70185714Y-126850000D01*
X70214285Y-126878571D01*
X70785714Y-127421429D02*
X70442857Y-127421429D01*
X70614285Y-127421429D02*
X70614285Y-126821429D01*
X70557142Y-126907143D01*
X70500000Y-126964286D01*
X70442857Y-126992857D01*
X71357143Y-127421429D02*
X71014286Y-127421429D01*
X71185714Y-127421429D02*
X71185714Y-126821429D01*
X71128571Y-126907143D01*
X71071429Y-126964286D01*
X71014286Y-126992857D01*
X70314285Y-134614286D02*
X70285714Y-134642857D01*
X70200000Y-134671429D01*
X70142857Y-134671429D01*
X70057142Y-134642857D01*
X70000000Y-134585714D01*
X69971428Y-134528571D01*
X69942857Y-134414286D01*
X69942857Y-134328571D01*
X69971428Y-134214286D01*
X70000000Y-134157143D01*
X70057142Y-134100000D01*
X70142857Y-134071429D01*
X70200000Y-134071429D01*
X70285714Y-134100000D01*
X70314285Y-134128571D01*
X70885714Y-134671429D02*
X70542857Y-134671429D01*
X70714285Y-134671429D02*
X70714285Y-134071429D01*
X70657142Y-134157143D01*
X70600000Y-134214286D01*
X70542857Y-134242857D01*
X71114286Y-134128571D02*
X71142857Y-134100000D01*
X71200000Y-134071429D01*
X71342857Y-134071429D01*
X71400000Y-134100000D01*
X71428571Y-134128571D01*
X71457143Y-134185714D01*
X71457143Y-134242857D01*
X71428571Y-134328571D01*
X71085714Y-134671429D01*
X71457143Y-134671429D01*
X65407143Y-117571429D02*
X65407143Y-116971429D01*
X65550000Y-116971429D01*
X65635715Y-117000000D01*
X65692857Y-117057143D01*
X65721429Y-117114286D01*
X65750000Y-117228571D01*
X65750000Y-117314286D01*
X65721429Y-117428571D01*
X65692857Y-117485714D01*
X65635715Y-117542857D01*
X65550000Y-117571429D01*
X65407143Y-117571429D01*
X66321429Y-117571429D02*
X65978572Y-117571429D01*
X66150000Y-117571429D02*
X66150000Y-116971429D01*
X66092857Y-117057143D01*
X66035715Y-117114286D01*
X65978572Y-117142857D01*
X74500000Y-116357143D02*
X74300000Y-116357143D01*
X74300000Y-116671429D02*
X74300000Y-116071429D01*
X74585714Y-116071429D01*
X75128572Y-116671429D02*
X74785715Y-116671429D01*
X74957143Y-116671429D02*
X74957143Y-116071429D01*
X74900000Y-116157143D01*
X74842858Y-116214286D01*
X74785715Y-116242857D01*
X74014286Y-120457143D02*
X73814286Y-120457143D01*
X73814286Y-120771429D02*
X73814286Y-120171429D01*
X74100000Y-120171429D01*
X74328572Y-120171429D02*
X74328572Y-120657143D01*
X74357144Y-120714286D01*
X74385715Y-120742857D01*
X74442858Y-120771429D01*
X74557144Y-120771429D01*
X74614286Y-120742857D01*
X74642858Y-120714286D01*
X74671429Y-120657143D01*
X74671429Y-120171429D01*
X74928572Y-120742857D02*
X75014286Y-120771429D01*
X75157143Y-120771429D01*
X75214286Y-120742857D01*
X75242857Y-120714286D01*
X75271429Y-120657143D01*
X75271429Y-120600000D01*
X75242857Y-120542857D01*
X75214286Y-120514286D01*
X75157143Y-120485714D01*
X75042857Y-120457143D01*
X74985715Y-120428571D01*
X74957143Y-120400000D01*
X74928572Y-120342857D01*
X74928572Y-120285714D01*
X74957143Y-120228571D01*
X74985715Y-120200000D01*
X75042857Y-120171429D01*
X75185715Y-120171429D01*
X75271429Y-120200000D01*
X75528572Y-120457143D02*
X75728572Y-120457143D01*
X75814286Y-120771429D02*
X75528572Y-120771429D01*
X75528572Y-120171429D01*
X75814286Y-120171429D01*
X67600000Y-124921429D02*
X67400000Y-124635714D01*
X67257143Y-124921429D02*
X67257143Y-124321429D01*
X67485715Y-124321429D01*
X67542857Y-124350000D01*
X67571429Y-124378571D01*
X67600000Y-124435714D01*
X67600000Y-124521429D01*
X67571429Y-124578571D01*
X67542857Y-124607143D01*
X67485715Y-124635714D01*
X67257143Y-124635714D01*
X68171429Y-124921429D02*
X67828572Y-124921429D01*
X68000000Y-124921429D02*
X68000000Y-124321429D01*
X67942857Y-124407143D01*
X67885715Y-124464286D01*
X67828572Y-124492857D01*
X67242857Y-127721429D02*
X67242857Y-128121429D01*
X67100000Y-127492857D02*
X66957143Y-127921429D01*
X67328571Y-127921429D01*
X67500000Y-127521429D02*
X67900000Y-127521429D01*
X67642857Y-128121429D01*
X68242858Y-127521429D02*
X68300001Y-127521429D01*
X68357144Y-127550000D01*
X68385715Y-127578571D01*
X68414286Y-127635714D01*
X68442858Y-127750000D01*
X68442858Y-127892857D01*
X68414286Y-128007143D01*
X68385715Y-128064286D01*
X68357144Y-128092857D01*
X68300001Y-128121429D01*
X68242858Y-128121429D01*
X68185715Y-128092857D01*
X68157144Y-128064286D01*
X68128572Y-128007143D01*
X68100001Y-127892857D01*
X68100001Y-127750000D01*
X68128572Y-127635714D01*
X68157144Y-127578571D01*
X68185715Y-127550000D01*
X68242858Y-127521429D01*
X62200000Y-129021429D02*
X62000000Y-128735714D01*
X61857143Y-129021429D02*
X61857143Y-128421429D01*
X62085715Y-128421429D01*
X62142857Y-128450000D01*
X62171429Y-128478571D01*
X62200000Y-128535714D01*
X62200000Y-128621429D01*
X62171429Y-128678571D01*
X62142857Y-128707143D01*
X62085715Y-128735714D01*
X61857143Y-128735714D01*
X62428572Y-128478571D02*
X62457143Y-128450000D01*
X62514286Y-128421429D01*
X62657143Y-128421429D01*
X62714286Y-128450000D01*
X62742857Y-128478571D01*
X62771429Y-128535714D01*
X62771429Y-128592857D01*
X62742857Y-128678571D01*
X62400000Y-129021429D01*
X62771429Y-129021429D01*
X61850000Y-132171429D02*
X61507143Y-132171429D01*
X61678571Y-132171429D02*
X61678571Y-131571429D01*
X61621428Y-131657143D01*
X61564286Y-131714286D01*
X61507143Y-131742857D01*
X62221429Y-131571429D02*
X62278572Y-131571429D01*
X62335715Y-131600000D01*
X62364286Y-131628571D01*
X62392857Y-131685714D01*
X62421429Y-131800000D01*
X62421429Y-131942857D01*
X62392857Y-132057143D01*
X62364286Y-132114286D01*
X62335715Y-132142857D01*
X62278572Y-132171429D01*
X62221429Y-132171429D01*
X62164286Y-132142857D01*
X62135715Y-132114286D01*
X62107143Y-132057143D01*
X62078572Y-131942857D01*
X62078572Y-131800000D01*
X62107143Y-131685714D01*
X62135715Y-131628571D01*
X62164286Y-131600000D01*
X62221429Y-131571429D01*
X62792858Y-131571429D02*
X62850001Y-131571429D01*
X62907144Y-131600000D01*
X62935715Y-131628571D01*
X62964286Y-131685714D01*
X62992858Y-131800000D01*
X62992858Y-131942857D01*
X62964286Y-132057143D01*
X62935715Y-132114286D01*
X62907144Y-132142857D01*
X62850001Y-132171429D01*
X62792858Y-132171429D01*
X62735715Y-132142857D01*
X62707144Y-132114286D01*
X62678572Y-132057143D01*
X62650001Y-131942857D01*
X62650001Y-131800000D01*
X62678572Y-131685714D01*
X62707144Y-131628571D01*
X62735715Y-131600000D01*
X62792858Y-131571429D01*
X64400000Y-125021429D02*
X64200000Y-124735714D01*
X64057143Y-125021429D02*
X64057143Y-124421429D01*
X64285715Y-124421429D01*
X64342857Y-124450000D01*
X64371429Y-124478571D01*
X64400000Y-124535714D01*
X64400000Y-124621429D01*
X64371429Y-124678571D01*
X64342857Y-124707143D01*
X64285715Y-124735714D01*
X64057143Y-124735714D01*
X64600000Y-124421429D02*
X64971429Y-124421429D01*
X64771429Y-124650000D01*
X64857143Y-124650000D01*
X64914286Y-124678571D01*
X64942857Y-124707143D01*
X64971429Y-124764286D01*
X64971429Y-124907143D01*
X64942857Y-124964286D01*
X64914286Y-124992857D01*
X64857143Y-125021429D01*
X64685715Y-125021429D01*
X64628572Y-124992857D01*
X64600000Y-124964286D01*
X64100000Y-128171429D02*
X63757143Y-128171429D01*
X63928571Y-128171429D02*
X63928571Y-127571429D01*
X63871428Y-127657143D01*
X63814286Y-127714286D01*
X63757143Y-127742857D01*
X64471429Y-127571429D02*
X64528572Y-127571429D01*
X64585715Y-127600000D01*
X64614286Y-127628571D01*
X64642857Y-127685714D01*
X64671429Y-127800000D01*
X64671429Y-127942857D01*
X64642857Y-128057143D01*
X64614286Y-128114286D01*
X64585715Y-128142857D01*
X64528572Y-128171429D01*
X64471429Y-128171429D01*
X64414286Y-128142857D01*
X64385715Y-128114286D01*
X64357143Y-128057143D01*
X64328572Y-127942857D01*
X64328572Y-127800000D01*
X64357143Y-127685714D01*
X64385715Y-127628571D01*
X64414286Y-127600000D01*
X64471429Y-127571429D01*
X65042858Y-127571429D02*
X65100001Y-127571429D01*
X65157144Y-127600000D01*
X65185715Y-127628571D01*
X65214286Y-127685714D01*
X65242858Y-127800000D01*
X65242858Y-127942857D01*
X65214286Y-128057143D01*
X65185715Y-128114286D01*
X65157144Y-128142857D01*
X65100001Y-128171429D01*
X65042858Y-128171429D01*
X64985715Y-128142857D01*
X64957144Y-128114286D01*
X64928572Y-128057143D01*
X64900001Y-127942857D01*
X64900001Y-127800000D01*
X64928572Y-127685714D01*
X64957144Y-127628571D01*
X64985715Y-127600000D01*
X65042858Y-127571429D01*
X91500000Y-124571429D02*
X91300000Y-124285714D01*
X91157143Y-124571429D02*
X91157143Y-123971429D01*
X91385715Y-123971429D01*
X91442857Y-124000000D01*
X91471429Y-124028571D01*
X91500000Y-124085714D01*
X91500000Y-124171429D01*
X91471429Y-124228571D01*
X91442857Y-124257143D01*
X91385715Y-124285714D01*
X91157143Y-124285714D01*
X92014286Y-124171429D02*
X92014286Y-124571429D01*
X91871429Y-123942857D02*
X91728572Y-124371429D01*
X92100000Y-124371429D01*
X91200000Y-127771429D02*
X90857143Y-127771429D01*
X91028571Y-127771429D02*
X91028571Y-127171429D01*
X90971428Y-127257143D01*
X90914286Y-127314286D01*
X90857143Y-127342857D01*
X91571429Y-127171429D02*
X91628572Y-127171429D01*
X91685715Y-127200000D01*
X91714286Y-127228571D01*
X91742857Y-127285714D01*
X91771429Y-127400000D01*
X91771429Y-127542857D01*
X91742857Y-127657143D01*
X91714286Y-127714286D01*
X91685715Y-127742857D01*
X91628572Y-127771429D01*
X91571429Y-127771429D01*
X91514286Y-127742857D01*
X91485715Y-127714286D01*
X91457143Y-127657143D01*
X91428572Y-127542857D01*
X91428572Y-127400000D01*
X91457143Y-127285714D01*
X91485715Y-127228571D01*
X91514286Y-127200000D01*
X91571429Y-127171429D01*
X92142858Y-127171429D02*
X92200001Y-127171429D01*
X92257144Y-127200000D01*
X92285715Y-127228571D01*
X92314286Y-127285714D01*
X92342858Y-127400000D01*
X92342858Y-127542857D01*
X92314286Y-127657143D01*
X92285715Y-127714286D01*
X92257144Y-127742857D01*
X92200001Y-127771429D01*
X92142858Y-127771429D01*
X92085715Y-127742857D01*
X92057144Y-127714286D01*
X92028572Y-127657143D01*
X92000001Y-127542857D01*
X92000001Y-127400000D01*
X92028572Y-127285714D01*
X92057144Y-127228571D01*
X92085715Y-127200000D01*
X92142858Y-127171429D01*
X91500000Y-128571429D02*
X91300000Y-128285714D01*
X91157143Y-128571429D02*
X91157143Y-127971429D01*
X91385715Y-127971429D01*
X91442857Y-128000000D01*
X91471429Y-128028571D01*
X91500000Y-128085714D01*
X91500000Y-128171429D01*
X91471429Y-128228571D01*
X91442857Y-128257143D01*
X91385715Y-128285714D01*
X91157143Y-128285714D01*
X92042857Y-127971429D02*
X91757143Y-127971429D01*
X91728572Y-128257143D01*
X91757143Y-128228571D01*
X91814286Y-128200000D01*
X91957143Y-128200000D01*
X92014286Y-128228571D01*
X92042857Y-128257143D01*
X92071429Y-128314286D01*
X92071429Y-128457143D01*
X92042857Y-128514286D01*
X92014286Y-128542857D01*
X91957143Y-128571429D01*
X91814286Y-128571429D01*
X91757143Y-128542857D01*
X91728572Y-128514286D01*
X91200000Y-131771429D02*
X90857143Y-131771429D01*
X91028571Y-131771429D02*
X91028571Y-131171429D01*
X90971428Y-131257143D01*
X90914286Y-131314286D01*
X90857143Y-131342857D01*
X91571429Y-131171429D02*
X91628572Y-131171429D01*
X91685715Y-131200000D01*
X91714286Y-131228571D01*
X91742857Y-131285714D01*
X91771429Y-131400000D01*
X91771429Y-131542857D01*
X91742857Y-131657143D01*
X91714286Y-131714286D01*
X91685715Y-131742857D01*
X91628572Y-131771429D01*
X91571429Y-131771429D01*
X91514286Y-131742857D01*
X91485715Y-131714286D01*
X91457143Y-131657143D01*
X91428572Y-131542857D01*
X91428572Y-131400000D01*
X91457143Y-131285714D01*
X91485715Y-131228571D01*
X91514286Y-131200000D01*
X91571429Y-131171429D01*
X92142858Y-131171429D02*
X92200001Y-131171429D01*
X92257144Y-131200000D01*
X92285715Y-131228571D01*
X92314286Y-131285714D01*
X92342858Y-131400000D01*
X92342858Y-131542857D01*
X92314286Y-131657143D01*
X92285715Y-131714286D01*
X92257144Y-131742857D01*
X92200001Y-131771429D01*
X92142858Y-131771429D01*
X92085715Y-131742857D01*
X92057144Y-131714286D01*
X92028572Y-131657143D01*
X92000001Y-131542857D01*
X92000001Y-131400000D01*
X92028572Y-131285714D01*
X92057144Y-131228571D01*
X92085715Y-131200000D01*
X92142858Y-131171429D01*
X67600000Y-128971429D02*
X67400000Y-128685714D01*
X67257143Y-128971429D02*
X67257143Y-128371429D01*
X67485715Y-128371429D01*
X67542857Y-128400000D01*
X67571429Y-128428571D01*
X67600000Y-128485714D01*
X67600000Y-128571429D01*
X67571429Y-128628571D01*
X67542857Y-128657143D01*
X67485715Y-128685714D01*
X67257143Y-128685714D01*
X68114286Y-128371429D02*
X68000000Y-128371429D01*
X67942857Y-128400000D01*
X67914286Y-128428571D01*
X67857143Y-128514286D01*
X67828572Y-128628571D01*
X67828572Y-128857143D01*
X67857143Y-128914286D01*
X67885715Y-128942857D01*
X67942857Y-128971429D01*
X68057143Y-128971429D01*
X68114286Y-128942857D01*
X68142857Y-128914286D01*
X68171429Y-128857143D01*
X68171429Y-128714286D01*
X68142857Y-128657143D01*
X68114286Y-128628571D01*
X68057143Y-128600000D01*
X67942857Y-128600000D01*
X67885715Y-128628571D01*
X67857143Y-128657143D01*
X67828572Y-128714286D01*
X67228571Y-131771429D02*
X67228571Y-132171429D01*
X67085714Y-131542857D02*
X66942857Y-131971429D01*
X67314285Y-131971429D01*
X67542857Y-132171429D02*
X67542857Y-131571429D01*
X67885714Y-132171429D02*
X67628571Y-131828571D01*
X67885714Y-131571429D02*
X67542857Y-131914286D01*
X68085714Y-131571429D02*
X68485714Y-131571429D01*
X68228571Y-132171429D01*
X89100000Y-128621429D02*
X88900000Y-128335714D01*
X88757143Y-128621429D02*
X88757143Y-128021429D01*
X88985715Y-128021429D01*
X89042857Y-128050000D01*
X89071429Y-128078571D01*
X89100000Y-128135714D01*
X89100000Y-128221429D01*
X89071429Y-128278571D01*
X89042857Y-128307143D01*
X88985715Y-128335714D01*
X88757143Y-128335714D01*
X89300000Y-128021429D02*
X89700000Y-128021429D01*
X89442857Y-128621429D01*
X88678571Y-131421429D02*
X88678571Y-131821429D01*
X88535714Y-131192857D02*
X88392857Y-131621429D01*
X88764285Y-131621429D01*
X88992857Y-131821429D02*
X88992857Y-131221429D01*
X89335714Y-131821429D02*
X89078571Y-131478571D01*
X89335714Y-131221429D02*
X88992857Y-131564286D01*
X89535714Y-131221429D02*
X89935714Y-131221429D01*
X89678571Y-131821429D01*
X86400000Y-127321429D02*
X86200000Y-127035714D01*
X86057143Y-127321429D02*
X86057143Y-126721429D01*
X86285715Y-126721429D01*
X86342857Y-126750000D01*
X86371429Y-126778571D01*
X86400000Y-126835714D01*
X86400000Y-126921429D01*
X86371429Y-126978571D01*
X86342857Y-127007143D01*
X86285715Y-127035714D01*
X86057143Y-127035714D01*
X86742857Y-126978571D02*
X86685715Y-126950000D01*
X86657143Y-126921429D01*
X86628572Y-126864286D01*
X86628572Y-126835714D01*
X86657143Y-126778571D01*
X86685715Y-126750000D01*
X86742857Y-126721429D01*
X86857143Y-126721429D01*
X86914286Y-126750000D01*
X86942857Y-126778571D01*
X86971429Y-126835714D01*
X86971429Y-126864286D01*
X86942857Y-126921429D01*
X86914286Y-126950000D01*
X86857143Y-126978571D01*
X86742857Y-126978571D01*
X86685715Y-127007143D01*
X86657143Y-127035714D01*
X86628572Y-127092857D01*
X86628572Y-127207143D01*
X86657143Y-127264286D01*
X86685715Y-127292857D01*
X86742857Y-127321429D01*
X86857143Y-127321429D01*
X86914286Y-127292857D01*
X86942857Y-127264286D01*
X86971429Y-127207143D01*
X86971429Y-127092857D01*
X86942857Y-127035714D01*
X86914286Y-127007143D01*
X86857143Y-126978571D01*
X86042857Y-130121429D02*
X86042857Y-130521429D01*
X85900000Y-129892857D02*
X85757143Y-130321429D01*
X86128571Y-130321429D01*
X86300000Y-129921429D02*
X86700000Y-129921429D01*
X86442857Y-130521429D01*
X87042858Y-129921429D02*
X87100001Y-129921429D01*
X87157144Y-129950000D01*
X87185715Y-129978571D01*
X87214286Y-130035714D01*
X87242858Y-130150000D01*
X87242858Y-130292857D01*
X87214286Y-130407143D01*
X87185715Y-130464286D01*
X87157144Y-130492857D01*
X87100001Y-130521429D01*
X87042858Y-130521429D01*
X86985715Y-130492857D01*
X86957144Y-130464286D01*
X86928572Y-130407143D01*
X86900001Y-130292857D01*
X86900001Y-130150000D01*
X86928572Y-130035714D01*
X86957144Y-129978571D01*
X86985715Y-129950000D01*
X87042858Y-129921429D01*
X67242857Y-137571429D02*
X67242857Y-138057143D01*
X67271429Y-138114286D01*
X67300000Y-138142857D01*
X67357143Y-138171429D01*
X67471429Y-138171429D01*
X67528571Y-138142857D01*
X67557143Y-138114286D01*
X67585714Y-138057143D01*
X67585714Y-137571429D01*
X68185714Y-138171429D02*
X67842857Y-138171429D01*
X68014285Y-138171429D02*
X68014285Y-137571429D01*
X67957142Y-137657143D01*
X67900000Y-137714286D01*
X67842857Y-137742857D01*
X88742857Y-131971429D02*
X88742857Y-132457143D01*
X88771429Y-132514286D01*
X88800000Y-132542857D01*
X88857143Y-132571429D01*
X88971429Y-132571429D01*
X89028571Y-132542857D01*
X89057143Y-132514286D01*
X89085714Y-132457143D01*
X89085714Y-131971429D01*
X89342857Y-132028571D02*
X89371428Y-132000000D01*
X89428571Y-131971429D01*
X89571428Y-131971429D01*
X89628571Y-132000000D01*
X89657142Y-132028571D01*
X89685714Y-132085714D01*
X89685714Y-132142857D01*
X89657142Y-132228571D01*
X89314285Y-132571429D01*
X89685714Y-132571429D01*
X80952857Y-119261429D02*
X80952857Y-119747143D01*
X80981429Y-119804286D01*
X81010000Y-119832857D01*
X81067143Y-119861429D01*
X81181429Y-119861429D01*
X81238571Y-119832857D01*
X81267143Y-119804286D01*
X81295714Y-119747143D01*
X81295714Y-119261429D01*
X81524285Y-119261429D02*
X81895714Y-119261429D01*
X81695714Y-119490000D01*
X81781428Y-119490000D01*
X81838571Y-119518571D01*
X81867142Y-119547143D01*
X81895714Y-119604286D01*
X81895714Y-119747143D01*
X81867142Y-119804286D01*
X81838571Y-119832857D01*
X81781428Y-119861429D01*
X81610000Y-119861429D01*
X81552857Y-119832857D01*
X81524285Y-119804286D01*
X61442857Y-118571429D02*
X61442857Y-119057143D01*
X61471429Y-119114286D01*
X61500000Y-119142857D01*
X61557143Y-119171429D01*
X61671429Y-119171429D01*
X61728571Y-119142857D01*
X61757143Y-119114286D01*
X61785714Y-119057143D01*
X61785714Y-118571429D01*
X62357142Y-118571429D02*
X62071428Y-118571429D01*
X62042857Y-118857143D01*
X62071428Y-118828571D01*
X62128571Y-118800000D01*
X62271428Y-118800000D01*
X62328571Y-118828571D01*
X62357142Y-118857143D01*
X62385714Y-118914286D01*
X62385714Y-119057143D01*
X62357142Y-119114286D01*
X62328571Y-119142857D01*
X62271428Y-119171429D01*
X62128571Y-119171429D01*
X62071428Y-119142857D01*
X62042857Y-119114286D01*
X86114285Y-134664286D02*
X86085714Y-134692857D01*
X86000000Y-134721429D01*
X85942857Y-134721429D01*
X85857142Y-134692857D01*
X85800000Y-134635714D01*
X85771428Y-134578571D01*
X85742857Y-134464286D01*
X85742857Y-134378571D01*
X85771428Y-134264286D01*
X85800000Y-134207143D01*
X85857142Y-134150000D01*
X85942857Y-134121429D01*
X86000000Y-134121429D01*
X86085714Y-134150000D01*
X86114285Y-134178571D01*
X86685714Y-134721429D02*
X86342857Y-134721429D01*
X86514285Y-134721429D02*
X86514285Y-134121429D01*
X86457142Y-134207143D01*
X86400000Y-134264286D01*
X86342857Y-134292857D01*
X86885714Y-134121429D02*
X87257143Y-134121429D01*
X87057143Y-134350000D01*
X87142857Y-134350000D01*
X87200000Y-134378571D01*
X87228571Y-134407143D01*
X87257143Y-134464286D01*
X87257143Y-134607143D01*
X87228571Y-134664286D01*
X87200000Y-134692857D01*
X87142857Y-134721429D01*
X86971429Y-134721429D01*
X86914286Y-134692857D01*
X86885714Y-134664286D01*
X43608381Y-127933333D02*
X44322667Y-127933333D01*
X44465524Y-127980953D01*
X44560762Y-128076191D01*
X44608381Y-128219048D01*
X44608381Y-128314286D01*
X44608381Y-126933333D02*
X44608381Y-127504762D01*
X44608381Y-127219048D02*
X43608381Y-127219048D01*
X43751238Y-127314286D01*
X43846476Y-127409524D01*
X43894095Y-127504762D01*
X111996381Y-127733333D02*
X112710667Y-127733333D01*
X112853524Y-127780953D01*
X112948762Y-127876191D01*
X112996381Y-128019048D01*
X112996381Y-128114286D01*
X112091619Y-127304762D02*
X112044000Y-127257143D01*
X111996381Y-127161905D01*
X111996381Y-126923809D01*
X112044000Y-126828571D01*
X112091619Y-126780952D01*
X112186857Y-126733333D01*
X112282095Y-126733333D01*
X112424952Y-126780952D01*
X112996381Y-127352381D01*
X112996381Y-126733333D01*
X72742857Y-124871429D02*
X72742857Y-125357143D01*
X72771429Y-125414286D01*
X72800000Y-125442857D01*
X72857143Y-125471429D01*
X72971429Y-125471429D01*
X73028571Y-125442857D01*
X73057143Y-125414286D01*
X73085714Y-125357143D01*
X73085714Y-124871429D01*
X73628571Y-125071429D02*
X73628571Y-125471429D01*
X73485714Y-124842857D02*
X73342857Y-125271429D01*
X73714285Y-125271429D01*
X95980953Y-122752381D02*
X95409524Y-122752381D01*
X95695238Y-122752381D02*
X95695238Y-121752381D01*
X95600000Y-121895238D01*
X95504762Y-121990476D01*
X95409524Y-122038095D01*
X96361905Y-121847619D02*
X96409524Y-121800000D01*
X96504762Y-121752381D01*
X96742858Y-121752381D01*
X96838096Y-121800000D01*
X96885715Y-121847619D01*
X96933334Y-121942857D01*
X96933334Y-122038095D01*
X96885715Y-122180952D01*
X96314286Y-122752381D01*
X96933334Y-122752381D01*
X97219048Y-121752381D02*
X97552381Y-122752381D01*
X97885715Y-121752381D01*
M02*
