M48
;DRILL file {KiCad (2015-07-11 BZR 5925, Git c291b88)-product} date 8/13/2015 2:59:01 PM
;FORMAT={-:-/ absolute / inch / decimal}
FMAT,2
INCH,TZ
T1C0.016
T2C0.020
T3C0.039
%
G90
G05
M72
T1
X2.1614Y-5.3346
X2.3386Y-4.9173
X2.3386Y-4.9567
X2.3386Y-4.9961
X2.3386Y-5.0394
X2.3504Y-5.0984
X2.378Y-5.3543
X2.3819Y-4.7244
X2.4646Y-4.8839
X2.502Y-5.2657
X2.5039Y-4.6496
X2.5059Y-5.3051
X2.5354Y-4.6772
X2.5433Y-5.4449
X2.5945Y-4.8819
X2.5945Y-4.9429
X2.624Y-4.9705
X2.7205Y-5.0984
X2.7323Y-5.3268
X2.7441Y-4.8307
X2.8031Y-4.748
X2.8543Y-4.8622
X2.9291Y-5.311
X2.9921Y-5.2559
X3.063Y-5.0157
X3.0866Y-4.878
X3.1063Y-5.3307
X3.1378Y-4.7244
X3.189Y-5.2717
X3.2087Y-5.3346
X3.2283Y-5.0118
X3.2283Y-5.2677
X3.252Y-5.2323
X3.2677Y-5.1929
X3.311Y-4.6496
X3.311Y-5.4173
X3.3307Y-4.6929
X3.3504Y-5.4173
X3.4528Y-5.2362
X3.4567Y-5.3661
X3.5118Y-5.0472
X3.5118Y-5.1772
X3.563Y-5.2677
X3.6535Y-5.1811
X3.6693Y-4.6496
X3.6693Y-4.7559
X3.6772Y-4.8661
X3.6772Y-5.0315
X3.7559Y-4.9409
X3.7559Y-5.2008
X3.7579Y-4.8642
X3.7579Y-4.9055
X3.7598Y-4.9843
X3.8228Y-5.2559
X3.8307Y-4.9331
X3.8307Y-4.9882
X3.8307Y-5.0276
X3.8307Y-5.0709
X3.8327Y-4.8504
X3.9035Y-5.311
X4.0217Y-5.3051
T2
X2.752Y-4.6102
X3.7953Y-5.1969
T3
X3.7512Y-4.6575
X3.8512Y-4.6575
T0
M30
