G04 #@! TF.FileFunction,Copper,L2,Bot,Signal*
%FSLAX46Y46*%
G04 Gerber Fmt 4.6, Leading zero omitted, Abs format (unit mm)*
G04 Created by KiCad (PCBNEW (2015-07-11 BZR 5925, Git c291b88)-product) date 8/13/2015 2:59:00 PM*
%MOMM*%
G01*
G04 APERTURE LIST*
%ADD10C,0.100000*%
%ADD11R,5.080000X1.778000*%
%ADD12O,1.506220X3.014980*%
%ADD13C,0.600000*%
%ADD14C,0.750000*%
%ADD15C,0.250000*%
%ADD16C,0.500000*%
%ADD17C,0.254000*%
G04 APERTURE END LIST*
D10*
D11*
X55840000Y-131791000D03*
X55840000Y-128997000D03*
X55840000Y-126203000D03*
X55840000Y-123409000D03*
X100860000Y-123209000D03*
X100860000Y-126003000D03*
X100860000Y-128797000D03*
X100860000Y-131591000D03*
D12*
X95280000Y-118300000D03*
X97820000Y-118300000D03*
D13*
X93400000Y-123600000D03*
X93200000Y-120800000D03*
X93200000Y-118100000D03*
X93400000Y-127800000D03*
X54900000Y-135500000D03*
X64600000Y-138300000D03*
X97100000Y-133500000D03*
X99150000Y-134900000D03*
X102150000Y-134750000D03*
X81500000Y-135500000D03*
X82000000Y-127300000D03*
X76000000Y-133500000D03*
X78900000Y-135400000D03*
X78400000Y-123900000D03*
X77800000Y-127400000D03*
X79700000Y-120000000D03*
X71200000Y-120600000D03*
X60500000Y-120000000D03*
X59400000Y-125900000D03*
X59400000Y-126900000D03*
X59400000Y-128000000D03*
X72500000Y-123500000D03*
X69700000Y-122700000D03*
X87800000Y-136300000D03*
X89200000Y-128200000D03*
X95400000Y-132100000D03*
X97300000Y-126700000D03*
X97300000Y-127700000D03*
X97300000Y-128800000D03*
X87700000Y-133000000D03*
X82600000Y-132900000D03*
X74400000Y-134900000D03*
X69400000Y-135300000D03*
X69100000Y-129500000D03*
D14*
X96400000Y-132000000D03*
X69900000Y-117100000D03*
D13*
X63600000Y-118100000D03*
X84100000Y-118100000D03*
X97350000Y-123200000D03*
X95450000Y-123550000D03*
X84600000Y-119200000D03*
X64400000Y-118800000D03*
X85100000Y-137600000D03*
X82000000Y-133800000D03*
X84100000Y-137600000D03*
X81000000Y-133900000D03*
X90500000Y-133800000D03*
X83000000Y-131900000D03*
X59700000Y-129500000D03*
X95500000Y-126600000D03*
X97300000Y-125300000D03*
X95400000Y-125500000D03*
X92800000Y-131600000D03*
X89200000Y-131500000D03*
X95450000Y-124600000D03*
X63550000Y-133750000D03*
X65900000Y-125550000D03*
X65900000Y-124000000D03*
X59400000Y-124900000D03*
X62600000Y-124050000D03*
X66650000Y-126250000D03*
X60400000Y-136000000D03*
X63650000Y-134750000D03*
D15*
X93400000Y-123600000D02*
X92000000Y-125000000D01*
X93200000Y-118100000D02*
X93200000Y-120800000D01*
X97300000Y-127700000D02*
X97200000Y-127800000D01*
X97200000Y-127800000D02*
X93400000Y-127800000D01*
X69400000Y-135300000D02*
X67600000Y-135300000D01*
X55850000Y-135500000D02*
X55900000Y-135550000D01*
X54900000Y-135500000D02*
X55850000Y-135500000D01*
X67600000Y-135300000D02*
X64600000Y-138300000D01*
X96900000Y-133300000D02*
X96650000Y-133300000D01*
X97100000Y-133500000D02*
X96900000Y-133300000D01*
X102000000Y-134900000D02*
X99150000Y-134900000D01*
X102150000Y-134750000D02*
X102000000Y-134900000D01*
X81500000Y-135500000D02*
X81800000Y-135500000D01*
X81500000Y-127800000D02*
X81400000Y-127800000D01*
X82000000Y-127300000D02*
X81500000Y-127800000D01*
X77000000Y-133500000D02*
X76000000Y-133500000D01*
X78900000Y-135400000D02*
X77000000Y-133500000D01*
X72500000Y-123500000D02*
X72900000Y-123900000D01*
X72900000Y-123900000D02*
X78400000Y-123900000D01*
X77800000Y-127400000D02*
X77900000Y-127500000D01*
X77900000Y-127500000D02*
X78000000Y-127500000D01*
X71200000Y-120600000D02*
X71800000Y-120600000D01*
X60500000Y-120000000D02*
X60400000Y-119900000D01*
X60400000Y-119900000D02*
X60400000Y-119600000D01*
X59400000Y-125900000D02*
X59400000Y-126900000D01*
X72500000Y-123500000D02*
X72700000Y-123700000D01*
X72700000Y-123700000D02*
X73100000Y-123700000D01*
X69700000Y-122700000D02*
X69700000Y-122900000D01*
X87800000Y-136300000D02*
X87800000Y-136600000D01*
X89200000Y-128200000D02*
X89700000Y-128200000D01*
X95400000Y-132100000D02*
X95200000Y-131900000D01*
X95200000Y-131900000D02*
X95000000Y-131900000D01*
X97300000Y-126700000D02*
X97300000Y-127700000D01*
X97300000Y-128800000D02*
X97700000Y-128800000D01*
X82400000Y-132700000D02*
X82400000Y-132600000D01*
X82600000Y-132900000D02*
X82400000Y-132700000D01*
X74100000Y-135200000D02*
X74100000Y-135500000D01*
X74400000Y-134900000D02*
X74100000Y-135200000D01*
X69500000Y-135400000D02*
X69500000Y-135800000D01*
X69400000Y-135300000D02*
X69500000Y-135400000D01*
X69000000Y-129600000D02*
X69000000Y-130100000D01*
X69100000Y-129500000D02*
X69000000Y-129600000D01*
D16*
X95000000Y-118300000D02*
X93800000Y-117100000D01*
X93800000Y-117100000D02*
X93600000Y-117100000D01*
X100860000Y-131591000D02*
X96809000Y-131591000D01*
X96809000Y-131591000D02*
X96400000Y-132000000D01*
X55840000Y-123409000D02*
X55840000Y-121460000D01*
X60200000Y-117100000D02*
X69900000Y-117100000D01*
X55840000Y-121460000D02*
X60200000Y-117100000D01*
X93600000Y-117100000D02*
X69900000Y-117100000D01*
D15*
X82800000Y-118100000D02*
X84100000Y-118100000D01*
X63600000Y-118100000D02*
X82800000Y-118100000D01*
X97000000Y-123550000D02*
X97350000Y-123200000D01*
X95450000Y-123550000D02*
X97000000Y-123550000D01*
X84200000Y-118800000D02*
X84600000Y-119200000D01*
X64400000Y-118800000D02*
X84200000Y-118800000D01*
X82000000Y-133800000D02*
X82000000Y-134200000D01*
X85050000Y-137200000D02*
X85100000Y-137200000D01*
X85100000Y-137250000D02*
X85050000Y-137200000D01*
X85100000Y-137300000D02*
X85100000Y-137250000D01*
X82000000Y-134200000D02*
X85100000Y-137300000D01*
X85100000Y-137200000D02*
X85100000Y-137600000D01*
X84100000Y-137600000D02*
X84100000Y-137000000D01*
X84100000Y-137000000D02*
X81000000Y-133900000D01*
X84900000Y-133800000D02*
X90500000Y-133800000D01*
X83000000Y-131900000D02*
X84900000Y-133800000D01*
X55840000Y-128997000D02*
X59197000Y-128997000D01*
X59197000Y-128997000D02*
X59700000Y-129500000D01*
X100860000Y-126003000D02*
X96097000Y-126003000D01*
X96097000Y-126003000D02*
X95500000Y-126600000D01*
X97300000Y-125300000D02*
X97100000Y-125500000D01*
X97100000Y-125500000D02*
X95400000Y-125500000D01*
X99503000Y-128797000D02*
X100860000Y-128797000D01*
X92800000Y-131600000D02*
X92400000Y-131200000D01*
X89500000Y-131200000D02*
X89200000Y-131500000D01*
X92400000Y-131200000D02*
X89500000Y-131200000D01*
X100860000Y-123209000D02*
X98441000Y-123209000D01*
X98441000Y-123209000D02*
X97050000Y-124600000D01*
X97050000Y-124600000D02*
X95450000Y-124600000D01*
X55840000Y-131791000D02*
X57691000Y-131791000D01*
X57691000Y-131791000D02*
X59650000Y-133750000D01*
X59650000Y-133750000D02*
X63550000Y-133750000D01*
X65900000Y-125550000D02*
X65900000Y-124000000D01*
X59400000Y-124900000D02*
X58097000Y-126203000D01*
X58097000Y-126203000D02*
X55840000Y-126203000D01*
X57697000Y-126203000D02*
X55840000Y-126203000D01*
X63400000Y-124050000D02*
X62600000Y-124050000D01*
X65600000Y-126250000D02*
X63400000Y-124050000D01*
X66650000Y-126250000D02*
X65600000Y-126250000D01*
X61650000Y-134750000D02*
X63650000Y-134750000D01*
X60400000Y-136000000D02*
X61650000Y-134750000D01*
D17*
G36*
X61457893Y-134286212D02*
X61295032Y-134395032D01*
X60367093Y-135322971D01*
X60265927Y-135322883D01*
X60017011Y-135425733D01*
X59826402Y-135616010D01*
X59723118Y-135864746D01*
X59722883Y-136134073D01*
X59825733Y-136382989D01*
X60016010Y-136573598D01*
X60264746Y-136676882D01*
X60534073Y-136677117D01*
X60782989Y-136574267D01*
X60973598Y-136383990D01*
X61076882Y-136135254D01*
X61076971Y-136032965D01*
X61857936Y-135252000D01*
X63194537Y-135252000D01*
X63266010Y-135323598D01*
X63514746Y-135426882D01*
X63784073Y-135427117D01*
X64032989Y-135324267D01*
X64223598Y-135133990D01*
X64326882Y-134885254D01*
X64327117Y-134615927D01*
X64224267Y-134367011D01*
X64057510Y-134199963D01*
X64123598Y-134133990D01*
X64165087Y-134034073D01*
X80322883Y-134034073D01*
X80425733Y-134282989D01*
X80616010Y-134473598D01*
X80864746Y-134576882D01*
X80967035Y-134576971D01*
X83566273Y-137176209D01*
X83526402Y-137216010D01*
X83423118Y-137464746D01*
X83422883Y-137734073D01*
X83525733Y-137982989D01*
X83716010Y-138173598D01*
X83964746Y-138276882D01*
X84234073Y-138277117D01*
X84482989Y-138174267D01*
X84600037Y-138057423D01*
X84716010Y-138173598D01*
X84964746Y-138276882D01*
X85234073Y-138277117D01*
X85482989Y-138174267D01*
X85673598Y-137983990D01*
X85776882Y-137735254D01*
X85777117Y-137465927D01*
X85674267Y-137217011D01*
X85588243Y-137130837D01*
X85563788Y-137007893D01*
X85454968Y-136845032D01*
X85292107Y-136736212D01*
X85234736Y-136724800D01*
X82608903Y-134098967D01*
X82676882Y-133935254D01*
X82677117Y-133665927D01*
X82574267Y-133417011D01*
X82383990Y-133226402D01*
X82135254Y-133123118D01*
X81865927Y-133122883D01*
X81617011Y-133225733D01*
X81449963Y-133392490D01*
X81383990Y-133326402D01*
X81135254Y-133223118D01*
X80865927Y-133222883D01*
X80617011Y-133325733D01*
X80426402Y-133516010D01*
X80323118Y-133764746D01*
X80322883Y-134034073D01*
X64165087Y-134034073D01*
X64226882Y-133885254D01*
X64227117Y-133615927D01*
X64124267Y-133367011D01*
X63933990Y-133176402D01*
X63685254Y-133073118D01*
X63415927Y-133072883D01*
X63167011Y-133175733D01*
X63094618Y-133248000D01*
X59857935Y-133248000D01*
X58764386Y-132154450D01*
X58764386Y-132034073D01*
X82322883Y-132034073D01*
X82425733Y-132282989D01*
X82616010Y-132473598D01*
X82864746Y-132576882D01*
X82967035Y-132576971D01*
X84545030Y-134154965D01*
X84545032Y-134154968D01*
X84633063Y-134213788D01*
X84707893Y-134263788D01*
X84900000Y-134302001D01*
X84900005Y-134302000D01*
X90044537Y-134302000D01*
X90116010Y-134373598D01*
X90364746Y-134476882D01*
X90634073Y-134477117D01*
X90882989Y-134374267D01*
X91073598Y-134183990D01*
X91176882Y-133935254D01*
X91177117Y-133665927D01*
X91074267Y-133417011D01*
X90883990Y-133226402D01*
X90635254Y-133123118D01*
X90365927Y-133122883D01*
X90117011Y-133225733D01*
X90044618Y-133298000D01*
X85107935Y-133298000D01*
X83677029Y-131867093D01*
X83677117Y-131765927D01*
X83622637Y-131634073D01*
X88522883Y-131634073D01*
X88625733Y-131882989D01*
X88816010Y-132073598D01*
X89064746Y-132176882D01*
X89334073Y-132177117D01*
X89582989Y-132074267D01*
X89773598Y-131883990D01*
X89849167Y-131702000D01*
X92122911Y-131702000D01*
X92122883Y-131734073D01*
X92225733Y-131982989D01*
X92416010Y-132173598D01*
X92664746Y-132276882D01*
X92934073Y-132277117D01*
X93182989Y-132174267D01*
X93373598Y-131983990D01*
X93476882Y-131735254D01*
X93477117Y-131465927D01*
X93374267Y-131217011D01*
X93183990Y-131026402D01*
X92935254Y-130923118D01*
X92832965Y-130923029D01*
X92754968Y-130845032D01*
X92592107Y-130736212D01*
X92400000Y-130697999D01*
X92399995Y-130698000D01*
X89500005Y-130698000D01*
X89500000Y-130697999D01*
X89307892Y-130736212D01*
X89178034Y-130822981D01*
X89065927Y-130822883D01*
X88817011Y-130925733D01*
X88626402Y-131116010D01*
X88523118Y-131364746D01*
X88522883Y-131634073D01*
X83622637Y-131634073D01*
X83574267Y-131517011D01*
X83383990Y-131326402D01*
X83135254Y-131223118D01*
X82865927Y-131222883D01*
X82617011Y-131325733D01*
X82426402Y-131516010D01*
X82323118Y-131764746D01*
X82322883Y-132034073D01*
X58764386Y-132034073D01*
X58764386Y-130902000D01*
X58736495Y-130758251D01*
X58653502Y-130631909D01*
X58528212Y-130547337D01*
X58380000Y-130517614D01*
X53727000Y-130517614D01*
X53727000Y-130270386D01*
X58380000Y-130270386D01*
X58523749Y-130242495D01*
X58650091Y-130159502D01*
X58734663Y-130034212D01*
X58764386Y-129886000D01*
X58764386Y-129499000D01*
X58989064Y-129499000D01*
X59022971Y-129532907D01*
X59022883Y-129634073D01*
X59125733Y-129882989D01*
X59316010Y-130073598D01*
X59564746Y-130176882D01*
X59834073Y-130177117D01*
X60082989Y-130074267D01*
X60273598Y-129883990D01*
X60376882Y-129635254D01*
X60377117Y-129365927D01*
X60274267Y-129117011D01*
X60083990Y-128926402D01*
X59835254Y-128823118D01*
X59732964Y-128823029D01*
X59551968Y-128642032D01*
X59389107Y-128533212D01*
X59197000Y-128494999D01*
X59196995Y-128495000D01*
X58764386Y-128495000D01*
X58764386Y-128108000D01*
X58736495Y-127964251D01*
X58653502Y-127837909D01*
X58528212Y-127753337D01*
X58380000Y-127723614D01*
X53727000Y-127723614D01*
X53727000Y-127476386D01*
X58380000Y-127476386D01*
X58523749Y-127448495D01*
X58650091Y-127365502D01*
X58734663Y-127240212D01*
X58764386Y-127092000D01*
X58764386Y-126245550D01*
X59432907Y-125577029D01*
X59534073Y-125577117D01*
X59782989Y-125474267D01*
X59973598Y-125283990D01*
X60076882Y-125035254D01*
X60077117Y-124765927D01*
X59974267Y-124517011D01*
X59783990Y-124326402D01*
X59535254Y-124223118D01*
X59265927Y-124222883D01*
X59017011Y-124325733D01*
X58826402Y-124516010D01*
X58723118Y-124764746D01*
X58723029Y-124867036D01*
X58589415Y-125000650D01*
X58528212Y-124959337D01*
X58380000Y-124929614D01*
X53727000Y-124929614D01*
X53727000Y-124733365D01*
X58380000Y-124733365D01*
X58542814Y-124701776D01*
X58685912Y-124607776D01*
X58781700Y-124465868D01*
X58815365Y-124298000D01*
X58815365Y-124184073D01*
X61922883Y-124184073D01*
X62025733Y-124432989D01*
X62216010Y-124623598D01*
X62464746Y-124726882D01*
X62734073Y-124727117D01*
X62982989Y-124624267D01*
X63055382Y-124552000D01*
X63192064Y-124552000D01*
X65245030Y-126604965D01*
X65245032Y-126604968D01*
X65394741Y-126705000D01*
X65407893Y-126713788D01*
X65600000Y-126752001D01*
X65600005Y-126752000D01*
X66194537Y-126752000D01*
X66266010Y-126823598D01*
X66514746Y-126926882D01*
X66784073Y-126927117D01*
X67032989Y-126824267D01*
X67223598Y-126633990D01*
X67326882Y-126385254D01*
X67327117Y-126115927D01*
X67224267Y-125867011D01*
X67033990Y-125676402D01*
X66785254Y-125573118D01*
X66576980Y-125572936D01*
X66577117Y-125415927D01*
X66474267Y-125167011D01*
X66402000Y-125094618D01*
X66402000Y-124455463D01*
X66473598Y-124383990D01*
X66576882Y-124135254D01*
X66577117Y-123865927D01*
X66474267Y-123617011D01*
X66283990Y-123426402D01*
X66035254Y-123323118D01*
X65765927Y-123322883D01*
X65517011Y-123425733D01*
X65326402Y-123616010D01*
X65223118Y-123864746D01*
X65222883Y-124134073D01*
X65325733Y-124382989D01*
X65398000Y-124455382D01*
X65398000Y-125094537D01*
X65326402Y-125166010D01*
X65296928Y-125236992D01*
X63754968Y-123695032D01*
X63592107Y-123586212D01*
X63400000Y-123547999D01*
X63399995Y-123548000D01*
X63055463Y-123548000D01*
X62983990Y-123476402D01*
X62735254Y-123373118D01*
X62465927Y-123372883D01*
X62217011Y-123475733D01*
X62026402Y-123666010D01*
X61923118Y-123914746D01*
X61922883Y-124184073D01*
X58815365Y-124184073D01*
X58815365Y-122520000D01*
X58783776Y-122357186D01*
X58689776Y-122214088D01*
X58547868Y-122118300D01*
X58380000Y-122084635D01*
X56517000Y-122084635D01*
X56517000Y-121740422D01*
X60480422Y-117777000D01*
X63001077Y-117777000D01*
X62923118Y-117964746D01*
X62922883Y-118234073D01*
X63025733Y-118482989D01*
X63216010Y-118673598D01*
X63464746Y-118776882D01*
X63723020Y-118777107D01*
X63722883Y-118934073D01*
X63825733Y-119182989D01*
X64016010Y-119373598D01*
X64264746Y-119476882D01*
X64534073Y-119477117D01*
X64782989Y-119374267D01*
X64855382Y-119302000D01*
X83922911Y-119302000D01*
X83922883Y-119334073D01*
X84025733Y-119582989D01*
X84216010Y-119773598D01*
X84464746Y-119876882D01*
X84734073Y-119877117D01*
X84982989Y-119774267D01*
X85173598Y-119583990D01*
X85276882Y-119335254D01*
X85277117Y-119065927D01*
X85174267Y-118817011D01*
X84983990Y-118626402D01*
X84735254Y-118523118D01*
X84634490Y-118523030D01*
X84673598Y-118483990D01*
X84776882Y-118235254D01*
X84777117Y-117965927D01*
X84699054Y-117777000D01*
X93519578Y-117777000D01*
X94099890Y-118357312D01*
X94099890Y-119092279D01*
X94189721Y-119543888D01*
X94445536Y-119926743D01*
X94828391Y-120182558D01*
X95280000Y-120272389D01*
X95731609Y-120182558D01*
X96114464Y-119926743D01*
X96370279Y-119543888D01*
X96460110Y-119092279D01*
X96460110Y-118327000D01*
X96631890Y-118327000D01*
X96631890Y-119081380D01*
X96732662Y-119533995D01*
X96998971Y-119913593D01*
X97390275Y-120162384D01*
X97607519Y-120223335D01*
X97793000Y-120133402D01*
X97793000Y-118327000D01*
X97847000Y-118327000D01*
X97847000Y-120133402D01*
X98032481Y-120223335D01*
X98249725Y-120162384D01*
X98641029Y-119913593D01*
X98907338Y-119533995D01*
X99008110Y-119081380D01*
X99008110Y-118327000D01*
X97847000Y-118327000D01*
X97793000Y-118327000D01*
X97793000Y-118327000D01*
X96631890Y-118327000D01*
X96460110Y-118327000D01*
X96460110Y-117518620D01*
X96631890Y-117518620D01*
X96631890Y-118273000D01*
X97793000Y-118273000D01*
X97793000Y-116466598D01*
X97847000Y-116466598D01*
X97847000Y-118273000D01*
X99008110Y-118273000D01*
X99008110Y-117518620D01*
X98907338Y-117066005D01*
X98641029Y-116686407D01*
X98249725Y-116437616D01*
X98032481Y-116376665D01*
X97847000Y-116466598D01*
X97793000Y-116466598D01*
X97793000Y-116466598D01*
X97607519Y-116376665D01*
X97390275Y-116437616D01*
X96998971Y-116686407D01*
X96732662Y-117066005D01*
X96631890Y-117518620D01*
X96460110Y-117518620D01*
X96460110Y-117507721D01*
X96370279Y-117056112D01*
X96114464Y-116673257D01*
X95731609Y-116417442D01*
X95280000Y-116327611D01*
X94828391Y-116417442D01*
X94445536Y-116673257D01*
X94399531Y-116742109D01*
X94278711Y-116621289D01*
X94059077Y-116474534D01*
X93800000Y-116423000D01*
X70357392Y-116423000D01*
X70354890Y-116420494D01*
X70060228Y-116298140D01*
X69741172Y-116297861D01*
X69446297Y-116419701D01*
X69442992Y-116423000D01*
X60200000Y-116423000D01*
X59940923Y-116474534D01*
X59721289Y-116621289D01*
X55361289Y-120981289D01*
X55214534Y-121200923D01*
X55163000Y-121460000D01*
X55163000Y-122084635D01*
X53727000Y-122084635D01*
X53727000Y-118476870D01*
X56176869Y-116027000D01*
X100523130Y-116027000D01*
X102973000Y-118476869D01*
X102973000Y-121935614D01*
X98320000Y-121935614D01*
X98176251Y-121963505D01*
X98049909Y-122046498D01*
X97965337Y-122171788D01*
X97935614Y-122320000D01*
X97935614Y-122844473D01*
X97924267Y-122817011D01*
X97733990Y-122626402D01*
X97485254Y-122523118D01*
X97215927Y-122522883D01*
X96967011Y-122625733D01*
X96776402Y-122816010D01*
X96680072Y-123048000D01*
X95905463Y-123048000D01*
X95833990Y-122976402D01*
X95585254Y-122873118D01*
X95315927Y-122872883D01*
X95067011Y-122975733D01*
X94876402Y-123166010D01*
X94773118Y-123414746D01*
X94772883Y-123684073D01*
X94875733Y-123932989D01*
X95017577Y-124075081D01*
X94876402Y-124216010D01*
X94773118Y-124464746D01*
X94772883Y-124734073D01*
X94875733Y-124982989D01*
X94917621Y-125024950D01*
X94826402Y-125116010D01*
X94723118Y-125364746D01*
X94722883Y-125634073D01*
X94825733Y-125882989D01*
X95016010Y-126073598D01*
X95053478Y-126089156D01*
X94926402Y-126216010D01*
X94823118Y-126464746D01*
X94822883Y-126734073D01*
X94925733Y-126982989D01*
X95116010Y-127173598D01*
X95364746Y-127276882D01*
X95634073Y-127277117D01*
X95882989Y-127174267D01*
X96073598Y-126983990D01*
X96176882Y-126735254D01*
X96176971Y-126632964D01*
X96304935Y-126505000D01*
X97935614Y-126505000D01*
X97935614Y-126892000D01*
X97963505Y-127035749D01*
X98046498Y-127162091D01*
X98171788Y-127246663D01*
X98320000Y-127276386D01*
X102973000Y-127276386D01*
X102973000Y-127523614D01*
X98320000Y-127523614D01*
X98176251Y-127551505D01*
X98049909Y-127634498D01*
X97965337Y-127759788D01*
X97935614Y-127908000D01*
X97935614Y-129686000D01*
X97963505Y-129829749D01*
X98046498Y-129956091D01*
X98171788Y-130040663D01*
X98320000Y-130070386D01*
X102973000Y-130070386D01*
X102973000Y-130266635D01*
X98320000Y-130266635D01*
X98157186Y-130298224D01*
X98014088Y-130392224D01*
X97918300Y-130534132D01*
X97884635Y-130702000D01*
X97884635Y-130914000D01*
X96809000Y-130914000D01*
X96549923Y-130965534D01*
X96459829Y-131025733D01*
X96330288Y-131112289D01*
X96244713Y-131197864D01*
X96241172Y-131197861D01*
X95946297Y-131319701D01*
X95720494Y-131545110D01*
X95598140Y-131839772D01*
X95597861Y-132158828D01*
X95719701Y-132453703D01*
X95945110Y-132679506D01*
X96239772Y-132801860D01*
X96558828Y-132802139D01*
X96853703Y-132680299D01*
X97079506Y-132454890D01*
X97157109Y-132268000D01*
X97884635Y-132268000D01*
X97884635Y-132480000D01*
X97916224Y-132642814D01*
X98010224Y-132785912D01*
X98152132Y-132881700D01*
X98320000Y-132915365D01*
X102973000Y-132915365D01*
X102973000Y-136523131D01*
X100523130Y-138973000D01*
X56176869Y-138973000D01*
X53727000Y-136523130D01*
X53727000Y-133064386D01*
X58254450Y-133064386D01*
X59295030Y-134104965D01*
X59295032Y-134104968D01*
X59392660Y-134170200D01*
X59457892Y-134213788D01*
X59650000Y-134252000D01*
X61629886Y-134252000D01*
X61457893Y-134286212D01*
X61457893Y-134286212D01*
G37*
X61457893Y-134286212D02*
X61295032Y-134395032D01*
X60367093Y-135322971D01*
X60265927Y-135322883D01*
X60017011Y-135425733D01*
X59826402Y-135616010D01*
X59723118Y-135864746D01*
X59722883Y-136134073D01*
X59825733Y-136382989D01*
X60016010Y-136573598D01*
X60264746Y-136676882D01*
X60534073Y-136677117D01*
X60782989Y-136574267D01*
X60973598Y-136383990D01*
X61076882Y-136135254D01*
X61076971Y-136032965D01*
X61857936Y-135252000D01*
X63194537Y-135252000D01*
X63266010Y-135323598D01*
X63514746Y-135426882D01*
X63784073Y-135427117D01*
X64032989Y-135324267D01*
X64223598Y-135133990D01*
X64326882Y-134885254D01*
X64327117Y-134615927D01*
X64224267Y-134367011D01*
X64057510Y-134199963D01*
X64123598Y-134133990D01*
X64165087Y-134034073D01*
X80322883Y-134034073D01*
X80425733Y-134282989D01*
X80616010Y-134473598D01*
X80864746Y-134576882D01*
X80967035Y-134576971D01*
X83566273Y-137176209D01*
X83526402Y-137216010D01*
X83423118Y-137464746D01*
X83422883Y-137734073D01*
X83525733Y-137982989D01*
X83716010Y-138173598D01*
X83964746Y-138276882D01*
X84234073Y-138277117D01*
X84482989Y-138174267D01*
X84600037Y-138057423D01*
X84716010Y-138173598D01*
X84964746Y-138276882D01*
X85234073Y-138277117D01*
X85482989Y-138174267D01*
X85673598Y-137983990D01*
X85776882Y-137735254D01*
X85777117Y-137465927D01*
X85674267Y-137217011D01*
X85588243Y-137130837D01*
X85563788Y-137007893D01*
X85454968Y-136845032D01*
X85292107Y-136736212D01*
X85234736Y-136724800D01*
X82608903Y-134098967D01*
X82676882Y-133935254D01*
X82677117Y-133665927D01*
X82574267Y-133417011D01*
X82383990Y-133226402D01*
X82135254Y-133123118D01*
X81865927Y-133122883D01*
X81617011Y-133225733D01*
X81449963Y-133392490D01*
X81383990Y-133326402D01*
X81135254Y-133223118D01*
X80865927Y-133222883D01*
X80617011Y-133325733D01*
X80426402Y-133516010D01*
X80323118Y-133764746D01*
X80322883Y-134034073D01*
X64165087Y-134034073D01*
X64226882Y-133885254D01*
X64227117Y-133615927D01*
X64124267Y-133367011D01*
X63933990Y-133176402D01*
X63685254Y-133073118D01*
X63415927Y-133072883D01*
X63167011Y-133175733D01*
X63094618Y-133248000D01*
X59857935Y-133248000D01*
X58764386Y-132154450D01*
X58764386Y-132034073D01*
X82322883Y-132034073D01*
X82425733Y-132282989D01*
X82616010Y-132473598D01*
X82864746Y-132576882D01*
X82967035Y-132576971D01*
X84545030Y-134154965D01*
X84545032Y-134154968D01*
X84633063Y-134213788D01*
X84707893Y-134263788D01*
X84900000Y-134302001D01*
X84900005Y-134302000D01*
X90044537Y-134302000D01*
X90116010Y-134373598D01*
X90364746Y-134476882D01*
X90634073Y-134477117D01*
X90882989Y-134374267D01*
X91073598Y-134183990D01*
X91176882Y-133935254D01*
X91177117Y-133665927D01*
X91074267Y-133417011D01*
X90883990Y-133226402D01*
X90635254Y-133123118D01*
X90365927Y-133122883D01*
X90117011Y-133225733D01*
X90044618Y-133298000D01*
X85107935Y-133298000D01*
X83677029Y-131867093D01*
X83677117Y-131765927D01*
X83622637Y-131634073D01*
X88522883Y-131634073D01*
X88625733Y-131882989D01*
X88816010Y-132073598D01*
X89064746Y-132176882D01*
X89334073Y-132177117D01*
X89582989Y-132074267D01*
X89773598Y-131883990D01*
X89849167Y-131702000D01*
X92122911Y-131702000D01*
X92122883Y-131734073D01*
X92225733Y-131982989D01*
X92416010Y-132173598D01*
X92664746Y-132276882D01*
X92934073Y-132277117D01*
X93182989Y-132174267D01*
X93373598Y-131983990D01*
X93476882Y-131735254D01*
X93477117Y-131465927D01*
X93374267Y-131217011D01*
X93183990Y-131026402D01*
X92935254Y-130923118D01*
X92832965Y-130923029D01*
X92754968Y-130845032D01*
X92592107Y-130736212D01*
X92400000Y-130697999D01*
X92399995Y-130698000D01*
X89500005Y-130698000D01*
X89500000Y-130697999D01*
X89307892Y-130736212D01*
X89178034Y-130822981D01*
X89065927Y-130822883D01*
X88817011Y-130925733D01*
X88626402Y-131116010D01*
X88523118Y-131364746D01*
X88522883Y-131634073D01*
X83622637Y-131634073D01*
X83574267Y-131517011D01*
X83383990Y-131326402D01*
X83135254Y-131223118D01*
X82865927Y-131222883D01*
X82617011Y-131325733D01*
X82426402Y-131516010D01*
X82323118Y-131764746D01*
X82322883Y-132034073D01*
X58764386Y-132034073D01*
X58764386Y-130902000D01*
X58736495Y-130758251D01*
X58653502Y-130631909D01*
X58528212Y-130547337D01*
X58380000Y-130517614D01*
X53727000Y-130517614D01*
X53727000Y-130270386D01*
X58380000Y-130270386D01*
X58523749Y-130242495D01*
X58650091Y-130159502D01*
X58734663Y-130034212D01*
X58764386Y-129886000D01*
X58764386Y-129499000D01*
X58989064Y-129499000D01*
X59022971Y-129532907D01*
X59022883Y-129634073D01*
X59125733Y-129882989D01*
X59316010Y-130073598D01*
X59564746Y-130176882D01*
X59834073Y-130177117D01*
X60082989Y-130074267D01*
X60273598Y-129883990D01*
X60376882Y-129635254D01*
X60377117Y-129365927D01*
X60274267Y-129117011D01*
X60083990Y-128926402D01*
X59835254Y-128823118D01*
X59732964Y-128823029D01*
X59551968Y-128642032D01*
X59389107Y-128533212D01*
X59197000Y-128494999D01*
X59196995Y-128495000D01*
X58764386Y-128495000D01*
X58764386Y-128108000D01*
X58736495Y-127964251D01*
X58653502Y-127837909D01*
X58528212Y-127753337D01*
X58380000Y-127723614D01*
X53727000Y-127723614D01*
X53727000Y-127476386D01*
X58380000Y-127476386D01*
X58523749Y-127448495D01*
X58650091Y-127365502D01*
X58734663Y-127240212D01*
X58764386Y-127092000D01*
X58764386Y-126245550D01*
X59432907Y-125577029D01*
X59534073Y-125577117D01*
X59782989Y-125474267D01*
X59973598Y-125283990D01*
X60076882Y-125035254D01*
X60077117Y-124765927D01*
X59974267Y-124517011D01*
X59783990Y-124326402D01*
X59535254Y-124223118D01*
X59265927Y-124222883D01*
X59017011Y-124325733D01*
X58826402Y-124516010D01*
X58723118Y-124764746D01*
X58723029Y-124867036D01*
X58589415Y-125000650D01*
X58528212Y-124959337D01*
X58380000Y-124929614D01*
X53727000Y-124929614D01*
X53727000Y-124733365D01*
X58380000Y-124733365D01*
X58542814Y-124701776D01*
X58685912Y-124607776D01*
X58781700Y-124465868D01*
X58815365Y-124298000D01*
X58815365Y-124184073D01*
X61922883Y-124184073D01*
X62025733Y-124432989D01*
X62216010Y-124623598D01*
X62464746Y-124726882D01*
X62734073Y-124727117D01*
X62982989Y-124624267D01*
X63055382Y-124552000D01*
X63192064Y-124552000D01*
X65245030Y-126604965D01*
X65245032Y-126604968D01*
X65394741Y-126705000D01*
X65407893Y-126713788D01*
X65600000Y-126752001D01*
X65600005Y-126752000D01*
X66194537Y-126752000D01*
X66266010Y-126823598D01*
X66514746Y-126926882D01*
X66784073Y-126927117D01*
X67032989Y-126824267D01*
X67223598Y-126633990D01*
X67326882Y-126385254D01*
X67327117Y-126115927D01*
X67224267Y-125867011D01*
X67033990Y-125676402D01*
X66785254Y-125573118D01*
X66576980Y-125572936D01*
X66577117Y-125415927D01*
X66474267Y-125167011D01*
X66402000Y-125094618D01*
X66402000Y-124455463D01*
X66473598Y-124383990D01*
X66576882Y-124135254D01*
X66577117Y-123865927D01*
X66474267Y-123617011D01*
X66283990Y-123426402D01*
X66035254Y-123323118D01*
X65765927Y-123322883D01*
X65517011Y-123425733D01*
X65326402Y-123616010D01*
X65223118Y-123864746D01*
X65222883Y-124134073D01*
X65325733Y-124382989D01*
X65398000Y-124455382D01*
X65398000Y-125094537D01*
X65326402Y-125166010D01*
X65296928Y-125236992D01*
X63754968Y-123695032D01*
X63592107Y-123586212D01*
X63400000Y-123547999D01*
X63399995Y-123548000D01*
X63055463Y-123548000D01*
X62983990Y-123476402D01*
X62735254Y-123373118D01*
X62465927Y-123372883D01*
X62217011Y-123475733D01*
X62026402Y-123666010D01*
X61923118Y-123914746D01*
X61922883Y-124184073D01*
X58815365Y-124184073D01*
X58815365Y-122520000D01*
X58783776Y-122357186D01*
X58689776Y-122214088D01*
X58547868Y-122118300D01*
X58380000Y-122084635D01*
X56517000Y-122084635D01*
X56517000Y-121740422D01*
X60480422Y-117777000D01*
X63001077Y-117777000D01*
X62923118Y-117964746D01*
X62922883Y-118234073D01*
X63025733Y-118482989D01*
X63216010Y-118673598D01*
X63464746Y-118776882D01*
X63723020Y-118777107D01*
X63722883Y-118934073D01*
X63825733Y-119182989D01*
X64016010Y-119373598D01*
X64264746Y-119476882D01*
X64534073Y-119477117D01*
X64782989Y-119374267D01*
X64855382Y-119302000D01*
X83922911Y-119302000D01*
X83922883Y-119334073D01*
X84025733Y-119582989D01*
X84216010Y-119773598D01*
X84464746Y-119876882D01*
X84734073Y-119877117D01*
X84982989Y-119774267D01*
X85173598Y-119583990D01*
X85276882Y-119335254D01*
X85277117Y-119065927D01*
X85174267Y-118817011D01*
X84983990Y-118626402D01*
X84735254Y-118523118D01*
X84634490Y-118523030D01*
X84673598Y-118483990D01*
X84776882Y-118235254D01*
X84777117Y-117965927D01*
X84699054Y-117777000D01*
X93519578Y-117777000D01*
X94099890Y-118357312D01*
X94099890Y-119092279D01*
X94189721Y-119543888D01*
X94445536Y-119926743D01*
X94828391Y-120182558D01*
X95280000Y-120272389D01*
X95731609Y-120182558D01*
X96114464Y-119926743D01*
X96370279Y-119543888D01*
X96460110Y-119092279D01*
X96460110Y-118327000D01*
X96631890Y-118327000D01*
X96631890Y-119081380D01*
X96732662Y-119533995D01*
X96998971Y-119913593D01*
X97390275Y-120162384D01*
X97607519Y-120223335D01*
X97793000Y-120133402D01*
X97793000Y-118327000D01*
X97847000Y-118327000D01*
X97847000Y-120133402D01*
X98032481Y-120223335D01*
X98249725Y-120162384D01*
X98641029Y-119913593D01*
X98907338Y-119533995D01*
X99008110Y-119081380D01*
X99008110Y-118327000D01*
X97847000Y-118327000D01*
X97793000Y-118327000D01*
X97793000Y-118327000D01*
X96631890Y-118327000D01*
X96460110Y-118327000D01*
X96460110Y-117518620D01*
X96631890Y-117518620D01*
X96631890Y-118273000D01*
X97793000Y-118273000D01*
X97793000Y-116466598D01*
X97847000Y-116466598D01*
X97847000Y-118273000D01*
X99008110Y-118273000D01*
X99008110Y-117518620D01*
X98907338Y-117066005D01*
X98641029Y-116686407D01*
X98249725Y-116437616D01*
X98032481Y-116376665D01*
X97847000Y-116466598D01*
X97793000Y-116466598D01*
X97793000Y-116466598D01*
X97607519Y-116376665D01*
X97390275Y-116437616D01*
X96998971Y-116686407D01*
X96732662Y-117066005D01*
X96631890Y-117518620D01*
X96460110Y-117518620D01*
X96460110Y-117507721D01*
X96370279Y-117056112D01*
X96114464Y-116673257D01*
X95731609Y-116417442D01*
X95280000Y-116327611D01*
X94828391Y-116417442D01*
X94445536Y-116673257D01*
X94399531Y-116742109D01*
X94278711Y-116621289D01*
X94059077Y-116474534D01*
X93800000Y-116423000D01*
X70357392Y-116423000D01*
X70354890Y-116420494D01*
X70060228Y-116298140D01*
X69741172Y-116297861D01*
X69446297Y-116419701D01*
X69442992Y-116423000D01*
X60200000Y-116423000D01*
X59940923Y-116474534D01*
X59721289Y-116621289D01*
X55361289Y-120981289D01*
X55214534Y-121200923D01*
X55163000Y-121460000D01*
X55163000Y-122084635D01*
X53727000Y-122084635D01*
X53727000Y-118476870D01*
X56176869Y-116027000D01*
X100523130Y-116027000D01*
X102973000Y-118476869D01*
X102973000Y-121935614D01*
X98320000Y-121935614D01*
X98176251Y-121963505D01*
X98049909Y-122046498D01*
X97965337Y-122171788D01*
X97935614Y-122320000D01*
X97935614Y-122844473D01*
X97924267Y-122817011D01*
X97733990Y-122626402D01*
X97485254Y-122523118D01*
X97215927Y-122522883D01*
X96967011Y-122625733D01*
X96776402Y-122816010D01*
X96680072Y-123048000D01*
X95905463Y-123048000D01*
X95833990Y-122976402D01*
X95585254Y-122873118D01*
X95315927Y-122872883D01*
X95067011Y-122975733D01*
X94876402Y-123166010D01*
X94773118Y-123414746D01*
X94772883Y-123684073D01*
X94875733Y-123932989D01*
X95017577Y-124075081D01*
X94876402Y-124216010D01*
X94773118Y-124464746D01*
X94772883Y-124734073D01*
X94875733Y-124982989D01*
X94917621Y-125024950D01*
X94826402Y-125116010D01*
X94723118Y-125364746D01*
X94722883Y-125634073D01*
X94825733Y-125882989D01*
X95016010Y-126073598D01*
X95053478Y-126089156D01*
X94926402Y-126216010D01*
X94823118Y-126464746D01*
X94822883Y-126734073D01*
X94925733Y-126982989D01*
X95116010Y-127173598D01*
X95364746Y-127276882D01*
X95634073Y-127277117D01*
X95882989Y-127174267D01*
X96073598Y-126983990D01*
X96176882Y-126735254D01*
X96176971Y-126632964D01*
X96304935Y-126505000D01*
X97935614Y-126505000D01*
X97935614Y-126892000D01*
X97963505Y-127035749D01*
X98046498Y-127162091D01*
X98171788Y-127246663D01*
X98320000Y-127276386D01*
X102973000Y-127276386D01*
X102973000Y-127523614D01*
X98320000Y-127523614D01*
X98176251Y-127551505D01*
X98049909Y-127634498D01*
X97965337Y-127759788D01*
X97935614Y-127908000D01*
X97935614Y-129686000D01*
X97963505Y-129829749D01*
X98046498Y-129956091D01*
X98171788Y-130040663D01*
X98320000Y-130070386D01*
X102973000Y-130070386D01*
X102973000Y-130266635D01*
X98320000Y-130266635D01*
X98157186Y-130298224D01*
X98014088Y-130392224D01*
X97918300Y-130534132D01*
X97884635Y-130702000D01*
X97884635Y-130914000D01*
X96809000Y-130914000D01*
X96549923Y-130965534D01*
X96459829Y-131025733D01*
X96330288Y-131112289D01*
X96244713Y-131197864D01*
X96241172Y-131197861D01*
X95946297Y-131319701D01*
X95720494Y-131545110D01*
X95598140Y-131839772D01*
X95597861Y-132158828D01*
X95719701Y-132453703D01*
X95945110Y-132679506D01*
X96239772Y-132801860D01*
X96558828Y-132802139D01*
X96853703Y-132680299D01*
X97079506Y-132454890D01*
X97157109Y-132268000D01*
X97884635Y-132268000D01*
X97884635Y-132480000D01*
X97916224Y-132642814D01*
X98010224Y-132785912D01*
X98152132Y-132881700D01*
X98320000Y-132915365D01*
X102973000Y-132915365D01*
X102973000Y-136523131D01*
X100523130Y-138973000D01*
X56176869Y-138973000D01*
X53727000Y-136523130D01*
X53727000Y-133064386D01*
X58254450Y-133064386D01*
X59295030Y-134104965D01*
X59295032Y-134104968D01*
X59392660Y-134170200D01*
X59457892Y-134213788D01*
X59650000Y-134252000D01*
X61629886Y-134252000D01*
X61457893Y-134286212D01*
M02*
