G04 #@! TF.FileFunction,Legend,Top*
%FSLAX46Y46*%
G04 Gerber Fmt 4.6, Leading zero omitted, Abs format (unit mm)*
G04 Created by KiCad (PCBNEW (2015-07-11 BZR 5925, Git c291b88)-product) date 9/14/2015 2:45:29 PM*
%MOMM*%
G01*
G04 APERTURE LIST*
%ADD10C,0.100000*%
%ADD11C,0.300000*%
%ADD12C,0.175000*%
%ADD13C,0.375000*%
%ADD14C,0.250000*%
%ADD15C,0.150000*%
G04 APERTURE END LIST*
D10*
D11*
X82021429Y-131278571D02*
X81307143Y-131278571D01*
X81307143Y-129778571D01*
X82521429Y-130492857D02*
X83021429Y-130492857D01*
X83235715Y-131278571D02*
X82521429Y-131278571D01*
X82521429Y-129778571D01*
X83235715Y-129778571D01*
X83878572Y-131278571D02*
X83878572Y-129778571D01*
X84235715Y-129778571D01*
X84450000Y-129850000D01*
X84592858Y-129992857D01*
X84664286Y-130135714D01*
X84735715Y-130421429D01*
X84735715Y-130635714D01*
X84664286Y-130921429D01*
X84592858Y-131064286D01*
X84450000Y-131207143D01*
X84235715Y-131278571D01*
X83878572Y-131278571D01*
X85307143Y-129921429D02*
X85378572Y-129850000D01*
X85521429Y-129778571D01*
X85878572Y-129778571D01*
X86021429Y-129850000D01*
X86092858Y-129921429D01*
X86164286Y-130064286D01*
X86164286Y-130207143D01*
X86092858Y-130421429D01*
X85235715Y-131278571D01*
X86164286Y-131278571D01*
X81921429Y-138978571D02*
X81207143Y-138978571D01*
X81207143Y-137478571D01*
X82421429Y-138192857D02*
X82921429Y-138192857D01*
X83135715Y-138978571D02*
X82421429Y-138978571D01*
X82421429Y-137478571D01*
X83135715Y-137478571D01*
X83778572Y-138978571D02*
X83778572Y-137478571D01*
X84135715Y-137478571D01*
X84350000Y-137550000D01*
X84492858Y-137692857D01*
X84564286Y-137835714D01*
X84635715Y-138121429D01*
X84635715Y-138335714D01*
X84564286Y-138621429D01*
X84492858Y-138764286D01*
X84350000Y-138907143D01*
X84135715Y-138978571D01*
X83778572Y-138978571D01*
X86064286Y-138978571D02*
X85207143Y-138978571D01*
X85635715Y-138978571D02*
X85635715Y-137478571D01*
X85492858Y-137692857D01*
X85350000Y-137835714D01*
X85207143Y-137907143D01*
D12*
X102666667Y-134439167D02*
X102266667Y-134439167D01*
X102466667Y-134439167D02*
X102466667Y-133739167D01*
X102400001Y-133839167D01*
X102333334Y-133905833D01*
X102266667Y-133939167D01*
X102933334Y-133805833D02*
X102966668Y-133772500D01*
X103033334Y-133739167D01*
X103200001Y-133739167D01*
X103266668Y-133772500D01*
X103300001Y-133805833D01*
X103333334Y-133872500D01*
X103333334Y-133939167D01*
X103300001Y-134039167D01*
X102900001Y-134439167D01*
X103333334Y-134439167D01*
X103766668Y-133739167D02*
X103833335Y-133739167D01*
X103900001Y-133772500D01*
X103933335Y-133805833D01*
X103966668Y-133872500D01*
X104000001Y-134005833D01*
X104000001Y-134172500D01*
X103966668Y-134305833D01*
X103933335Y-134372500D01*
X103900001Y-134405833D01*
X103833335Y-134439167D01*
X103766668Y-134439167D01*
X103700001Y-134405833D01*
X103666668Y-134372500D01*
X103633335Y-134305833D01*
X103600001Y-134172500D01*
X103600001Y-134005833D01*
X103633335Y-133872500D01*
X103666668Y-133805833D01*
X103700001Y-133772500D01*
X103766668Y-133739167D01*
X104933335Y-134439167D02*
X104866668Y-134405833D01*
X104833335Y-134372500D01*
X104800001Y-134305833D01*
X104800001Y-134105833D01*
X104833335Y-134039167D01*
X104866668Y-134005833D01*
X104933335Y-133972500D01*
X105033335Y-133972500D01*
X105100001Y-134005833D01*
X105133335Y-134039167D01*
X105166668Y-134105833D01*
X105166668Y-134305833D01*
X105133335Y-134372500D01*
X105100001Y-134405833D01*
X105033335Y-134439167D01*
X104933335Y-134439167D01*
X105466668Y-134439167D02*
X105466668Y-133739167D01*
X105766668Y-134439167D02*
X105766668Y-134072500D01*
X105733334Y-134005833D01*
X105666668Y-133972500D01*
X105566668Y-133972500D01*
X105500001Y-134005833D01*
X105466668Y-134039167D01*
X106100001Y-134439167D02*
X106100001Y-133972500D01*
X106100001Y-134039167D02*
X106133334Y-134005833D01*
X106200001Y-133972500D01*
X106300001Y-133972500D01*
X106366667Y-134005833D01*
X106400001Y-134072500D01*
X106400001Y-134439167D01*
X106400001Y-134072500D02*
X106433334Y-134005833D01*
X106500001Y-133972500D01*
X106600001Y-133972500D01*
X106666667Y-134005833D01*
X106700001Y-134072500D01*
X106700001Y-134439167D01*
X101783335Y-134894167D02*
X102183335Y-134894167D01*
X101983335Y-135594167D02*
X101983335Y-134894167D01*
X102683334Y-135560833D02*
X102616668Y-135594167D01*
X102483334Y-135594167D01*
X102416668Y-135560833D01*
X102383334Y-135494167D01*
X102383334Y-135227500D01*
X102416668Y-135160833D01*
X102483334Y-135127500D01*
X102616668Y-135127500D01*
X102683334Y-135160833D01*
X102716668Y-135227500D01*
X102716668Y-135294167D01*
X102383334Y-135360833D01*
X103016668Y-135594167D02*
X103016668Y-135127500D01*
X103016668Y-135260833D02*
X103050001Y-135194167D01*
X103083334Y-135160833D01*
X103150001Y-135127500D01*
X103216668Y-135127500D01*
X103450001Y-135594167D02*
X103450001Y-135127500D01*
X103450001Y-135194167D02*
X103483334Y-135160833D01*
X103550001Y-135127500D01*
X103650001Y-135127500D01*
X103716667Y-135160833D01*
X103750001Y-135227500D01*
X103750001Y-135594167D01*
X103750001Y-135227500D02*
X103783334Y-135160833D01*
X103850001Y-135127500D01*
X103950001Y-135127500D01*
X104016667Y-135160833D01*
X104050001Y-135227500D01*
X104050001Y-135594167D01*
X104383334Y-135594167D02*
X104383334Y-135127500D01*
X104383334Y-134894167D02*
X104350000Y-134927500D01*
X104383334Y-134960833D01*
X104416667Y-134927500D01*
X104383334Y-134894167D01*
X104383334Y-134960833D01*
X104716667Y-135127500D02*
X104716667Y-135594167D01*
X104716667Y-135194167D02*
X104750000Y-135160833D01*
X104816667Y-135127500D01*
X104916667Y-135127500D01*
X104983333Y-135160833D01*
X105016667Y-135227500D01*
X105016667Y-135594167D01*
X105650000Y-135594167D02*
X105650000Y-135227500D01*
X105616666Y-135160833D01*
X105550000Y-135127500D01*
X105416666Y-135127500D01*
X105350000Y-135160833D01*
X105650000Y-135560833D02*
X105583333Y-135594167D01*
X105416666Y-135594167D01*
X105350000Y-135560833D01*
X105316666Y-135494167D01*
X105316666Y-135427500D01*
X105350000Y-135360833D01*
X105416666Y-135327500D01*
X105583333Y-135327500D01*
X105650000Y-135294167D01*
X105883333Y-135127500D02*
X106149999Y-135127500D01*
X105983333Y-134894167D02*
X105983333Y-135494167D01*
X106016666Y-135560833D01*
X106083333Y-135594167D01*
X106149999Y-135594167D01*
X106483333Y-135594167D02*
X106416666Y-135560833D01*
X106383333Y-135527500D01*
X106349999Y-135460833D01*
X106349999Y-135260833D01*
X106383333Y-135194167D01*
X106416666Y-135160833D01*
X106483333Y-135127500D01*
X106583333Y-135127500D01*
X106649999Y-135160833D01*
X106683333Y-135194167D01*
X106716666Y-135260833D01*
X106716666Y-135460833D01*
X106683333Y-135527500D01*
X106649999Y-135560833D01*
X106583333Y-135594167D01*
X106483333Y-135594167D01*
X107016666Y-135594167D02*
X107016666Y-135127500D01*
X107016666Y-135260833D02*
X107049999Y-135194167D01*
X107083332Y-135160833D01*
X107149999Y-135127500D01*
X107216666Y-135127500D01*
X56366667Y-130239167D02*
X55966667Y-130239167D01*
X56166667Y-130239167D02*
X56166667Y-129539167D01*
X56100001Y-129639167D01*
X56033334Y-129705833D01*
X55966667Y-129739167D01*
X56633334Y-129605833D02*
X56666668Y-129572500D01*
X56733334Y-129539167D01*
X56900001Y-129539167D01*
X56966668Y-129572500D01*
X57000001Y-129605833D01*
X57033334Y-129672500D01*
X57033334Y-129739167D01*
X57000001Y-129839167D01*
X56600001Y-130239167D01*
X57033334Y-130239167D01*
X57466668Y-129539167D02*
X57533335Y-129539167D01*
X57600001Y-129572500D01*
X57633335Y-129605833D01*
X57666668Y-129672500D01*
X57700001Y-129805833D01*
X57700001Y-129972500D01*
X57666668Y-130105833D01*
X57633335Y-130172500D01*
X57600001Y-130205833D01*
X57533335Y-130239167D01*
X57466668Y-130239167D01*
X57400001Y-130205833D01*
X57366668Y-130172500D01*
X57333335Y-130105833D01*
X57300001Y-129972500D01*
X57300001Y-129805833D01*
X57333335Y-129672500D01*
X57366668Y-129605833D01*
X57400001Y-129572500D01*
X57466668Y-129539167D01*
X58633335Y-130239167D02*
X58566668Y-130205833D01*
X58533335Y-130172500D01*
X58500001Y-130105833D01*
X58500001Y-129905833D01*
X58533335Y-129839167D01*
X58566668Y-129805833D01*
X58633335Y-129772500D01*
X58733335Y-129772500D01*
X58800001Y-129805833D01*
X58833335Y-129839167D01*
X58866668Y-129905833D01*
X58866668Y-130105833D01*
X58833335Y-130172500D01*
X58800001Y-130205833D01*
X58733335Y-130239167D01*
X58633335Y-130239167D01*
X59166668Y-130239167D02*
X59166668Y-129539167D01*
X59466668Y-130239167D02*
X59466668Y-129872500D01*
X59433334Y-129805833D01*
X59366668Y-129772500D01*
X59266668Y-129772500D01*
X59200001Y-129805833D01*
X59166668Y-129839167D01*
X59800001Y-130239167D02*
X59800001Y-129772500D01*
X59800001Y-129839167D02*
X59833334Y-129805833D01*
X59900001Y-129772500D01*
X60000001Y-129772500D01*
X60066667Y-129805833D01*
X60100001Y-129872500D01*
X60100001Y-130239167D01*
X60100001Y-129872500D02*
X60133334Y-129805833D01*
X60200001Y-129772500D01*
X60300001Y-129772500D01*
X60366667Y-129805833D01*
X60400001Y-129872500D01*
X60400001Y-130239167D01*
X55483335Y-130694167D02*
X55883335Y-130694167D01*
X55683335Y-131394167D02*
X55683335Y-130694167D01*
X56383334Y-131360833D02*
X56316668Y-131394167D01*
X56183334Y-131394167D01*
X56116668Y-131360833D01*
X56083334Y-131294167D01*
X56083334Y-131027500D01*
X56116668Y-130960833D01*
X56183334Y-130927500D01*
X56316668Y-130927500D01*
X56383334Y-130960833D01*
X56416668Y-131027500D01*
X56416668Y-131094167D01*
X56083334Y-131160833D01*
X56716668Y-131394167D02*
X56716668Y-130927500D01*
X56716668Y-131060833D02*
X56750001Y-130994167D01*
X56783334Y-130960833D01*
X56850001Y-130927500D01*
X56916668Y-130927500D01*
X57150001Y-131394167D02*
X57150001Y-130927500D01*
X57150001Y-130994167D02*
X57183334Y-130960833D01*
X57250001Y-130927500D01*
X57350001Y-130927500D01*
X57416667Y-130960833D01*
X57450001Y-131027500D01*
X57450001Y-131394167D01*
X57450001Y-131027500D02*
X57483334Y-130960833D01*
X57550001Y-130927500D01*
X57650001Y-130927500D01*
X57716667Y-130960833D01*
X57750001Y-131027500D01*
X57750001Y-131394167D01*
X58083334Y-131394167D02*
X58083334Y-130927500D01*
X58083334Y-130694167D02*
X58050000Y-130727500D01*
X58083334Y-130760833D01*
X58116667Y-130727500D01*
X58083334Y-130694167D01*
X58083334Y-130760833D01*
X58416667Y-130927500D02*
X58416667Y-131394167D01*
X58416667Y-130994167D02*
X58450000Y-130960833D01*
X58516667Y-130927500D01*
X58616667Y-130927500D01*
X58683333Y-130960833D01*
X58716667Y-131027500D01*
X58716667Y-131394167D01*
X59350000Y-131394167D02*
X59350000Y-131027500D01*
X59316666Y-130960833D01*
X59250000Y-130927500D01*
X59116666Y-130927500D01*
X59050000Y-130960833D01*
X59350000Y-131360833D02*
X59283333Y-131394167D01*
X59116666Y-131394167D01*
X59050000Y-131360833D01*
X59016666Y-131294167D01*
X59016666Y-131227500D01*
X59050000Y-131160833D01*
X59116666Y-131127500D01*
X59283333Y-131127500D01*
X59350000Y-131094167D01*
X59583333Y-130927500D02*
X59849999Y-130927500D01*
X59683333Y-130694167D02*
X59683333Y-131294167D01*
X59716666Y-131360833D01*
X59783333Y-131394167D01*
X59849999Y-131394167D01*
X60183333Y-131394167D02*
X60116666Y-131360833D01*
X60083333Y-131327500D01*
X60049999Y-131260833D01*
X60049999Y-131060833D01*
X60083333Y-130994167D01*
X60116666Y-130960833D01*
X60183333Y-130927500D01*
X60283333Y-130927500D01*
X60349999Y-130960833D01*
X60383333Y-130994167D01*
X60416666Y-131060833D01*
X60416666Y-131260833D01*
X60383333Y-131327500D01*
X60349999Y-131360833D01*
X60283333Y-131394167D01*
X60183333Y-131394167D01*
X60716666Y-131394167D02*
X60716666Y-130927500D01*
X60716666Y-131060833D02*
X60749999Y-130994167D01*
X60783332Y-130960833D01*
X60849999Y-130927500D01*
X60916666Y-130927500D01*
D13*
X106314286Y-160004762D02*
X106409524Y-160100000D01*
X106504762Y-160385715D01*
X106504762Y-160576191D01*
X106409524Y-160861905D01*
X106219048Y-161052381D01*
X106028571Y-161147620D01*
X105647619Y-161242858D01*
X105361905Y-161242858D01*
X104980952Y-161147620D01*
X104790476Y-161052381D01*
X104600000Y-160861905D01*
X104504762Y-160576191D01*
X104504762Y-160385715D01*
X104600000Y-160100000D01*
X104695238Y-160004762D01*
X105933333Y-159242858D02*
X105933333Y-158290477D01*
X106504762Y-159433334D02*
X104504762Y-158766667D01*
X106504762Y-158100000D01*
X106504762Y-156290476D02*
X105552381Y-156957143D01*
X106504762Y-157433334D02*
X104504762Y-157433334D01*
X104504762Y-156671429D01*
X104600000Y-156480953D01*
X104695238Y-156385714D01*
X104885714Y-156290476D01*
X105171429Y-156290476D01*
X105361905Y-156385714D01*
X105457143Y-156480953D01*
X105552381Y-156671429D01*
X105552381Y-157433334D01*
X106314286Y-152766666D02*
X106409524Y-152861904D01*
X106504762Y-153147619D01*
X106504762Y-153338095D01*
X106409524Y-153623809D01*
X106219048Y-153814285D01*
X106028571Y-153909524D01*
X105647619Y-154004762D01*
X105361905Y-154004762D01*
X104980952Y-153909524D01*
X104790476Y-153814285D01*
X104600000Y-153623809D01*
X104504762Y-153338095D01*
X104504762Y-153147619D01*
X104600000Y-152861904D01*
X104695238Y-152766666D01*
X105933333Y-152004762D02*
X105933333Y-151052381D01*
X106504762Y-152195238D02*
X104504762Y-151528571D01*
X106504762Y-150861904D01*
X106504762Y-150195238D02*
X104504762Y-150195238D01*
X106504762Y-149052380D01*
X104504762Y-149052380D01*
D11*
X54850000Y-109142857D02*
X54778571Y-109285714D01*
X54778571Y-109500000D01*
X54850000Y-109714285D01*
X54992857Y-109857143D01*
X55135714Y-109928571D01*
X55421429Y-110000000D01*
X55635714Y-110000000D01*
X55921429Y-109928571D01*
X56064286Y-109857143D01*
X56207143Y-109714285D01*
X56278571Y-109500000D01*
X56278571Y-109357143D01*
X56207143Y-109142857D01*
X56135714Y-109071428D01*
X55635714Y-109071428D01*
X55635714Y-109357143D01*
X56278571Y-108428571D02*
X54778571Y-108428571D01*
X56278571Y-107571428D01*
X54778571Y-107571428D01*
X56278571Y-106857142D02*
X54778571Y-106857142D01*
X54778571Y-106499999D01*
X54850000Y-106285714D01*
X54992857Y-106142856D01*
X55135714Y-106071428D01*
X55421429Y-105999999D01*
X55635714Y-105999999D01*
X55921429Y-106071428D01*
X56064286Y-106142856D01*
X56207143Y-106285714D01*
X56278571Y-106499999D01*
X56278571Y-106857142D01*
D14*
X73142857Y-109302381D02*
X73142857Y-108302381D01*
X73523810Y-108302381D01*
X73619048Y-108350000D01*
X73666667Y-108397619D01*
X73714286Y-108492857D01*
X73714286Y-108635714D01*
X73666667Y-108730952D01*
X73619048Y-108778571D01*
X73523810Y-108826190D01*
X73142857Y-108826190D01*
X74285714Y-109302381D02*
X74190476Y-109254762D01*
X74142857Y-109207143D01*
X74095238Y-109111905D01*
X74095238Y-108826190D01*
X74142857Y-108730952D01*
X74190476Y-108683333D01*
X74285714Y-108635714D01*
X74428572Y-108635714D01*
X74523810Y-108683333D01*
X74571429Y-108730952D01*
X74619048Y-108826190D01*
X74619048Y-109111905D01*
X74571429Y-109207143D01*
X74523810Y-109254762D01*
X74428572Y-109302381D01*
X74285714Y-109302381D01*
X74952381Y-108635714D02*
X75142857Y-109302381D01*
X75333334Y-108826190D01*
X75523810Y-109302381D01*
X75714286Y-108635714D01*
X76476191Y-109254762D02*
X76380953Y-109302381D01*
X76190476Y-109302381D01*
X76095238Y-109254762D01*
X76047619Y-109159524D01*
X76047619Y-108778571D01*
X76095238Y-108683333D01*
X76190476Y-108635714D01*
X76380953Y-108635714D01*
X76476191Y-108683333D01*
X76523810Y-108778571D01*
X76523810Y-108873810D01*
X76047619Y-108969048D01*
X76952381Y-109302381D02*
X76952381Y-108635714D01*
X76952381Y-108826190D02*
X77000000Y-108730952D01*
X77047619Y-108683333D01*
X77142857Y-108635714D01*
X77238096Y-108635714D01*
X73880952Y-109952381D02*
X73880952Y-110142857D01*
X74261905Y-109952381D02*
X74261905Y-110142857D01*
X74880952Y-109952381D02*
X75071429Y-109952381D01*
X75166667Y-110000000D01*
X75261905Y-110095238D01*
X75309524Y-110285714D01*
X75309524Y-110619048D01*
X75261905Y-110809524D01*
X75166667Y-110904762D01*
X75071429Y-110952381D01*
X74880952Y-110952381D01*
X74785714Y-110904762D01*
X74690476Y-110809524D01*
X74642857Y-110619048D01*
X74642857Y-110285714D01*
X74690476Y-110095238D01*
X74785714Y-110000000D01*
X74880952Y-109952381D01*
X75738095Y-110952381D02*
X75738095Y-109952381D01*
X76309524Y-110952381D01*
X76309524Y-109952381D01*
X76738095Y-109952381D02*
X76738095Y-110142857D01*
X77119048Y-109952381D02*
X77119048Y-110142857D01*
X74857143Y-112602381D02*
X74380952Y-112602381D01*
X74380952Y-111602381D01*
X75190476Y-112078571D02*
X75523810Y-112078571D01*
X75666667Y-112602381D02*
X75190476Y-112602381D01*
X75190476Y-111602381D01*
X75666667Y-111602381D01*
X76095238Y-112602381D02*
X76095238Y-111602381D01*
X76333333Y-111602381D01*
X76476191Y-111650000D01*
X76571429Y-111745238D01*
X76619048Y-111840476D01*
X76666667Y-112030952D01*
X76666667Y-112173810D01*
X76619048Y-112364286D01*
X76571429Y-112459524D01*
X76476191Y-112554762D01*
X76333333Y-112602381D01*
X76095238Y-112602381D01*
D13*
X43704762Y-160500001D02*
X41704762Y-160500001D01*
X41704762Y-159833334D02*
X43704762Y-159166667D01*
X41704762Y-158500000D01*
X43704762Y-157833334D02*
X41704762Y-157833334D01*
X43514286Y-154214285D02*
X43609524Y-154309523D01*
X43704762Y-154595238D01*
X43704762Y-154785714D01*
X43609524Y-155071428D01*
X43419048Y-155261904D01*
X43228571Y-155357143D01*
X42847619Y-155452381D01*
X42561905Y-155452381D01*
X42180952Y-155357143D01*
X41990476Y-155261904D01*
X41800000Y-155071428D01*
X41704762Y-154785714D01*
X41704762Y-154595238D01*
X41800000Y-154309523D01*
X41895238Y-154214285D01*
X43133333Y-153452381D02*
X43133333Y-152500000D01*
X43704762Y-153642857D02*
X41704762Y-152976190D01*
X43704762Y-152309523D01*
X43704762Y-151642857D02*
X41704762Y-151642857D01*
X43704762Y-150499999D01*
X41704762Y-150499999D01*
D12*
X91666668Y-154616667D02*
X92000002Y-154616667D01*
X91600002Y-154816667D02*
X91833335Y-154116667D01*
X92066668Y-154816667D01*
X92800002Y-154083333D02*
X92200002Y-154983333D01*
X93266668Y-154450000D02*
X93366668Y-154483333D01*
X93400001Y-154516667D01*
X93433335Y-154583333D01*
X93433335Y-154683333D01*
X93400001Y-154750000D01*
X93366668Y-154783333D01*
X93300001Y-154816667D01*
X93033335Y-154816667D01*
X93033335Y-154116667D01*
X93266668Y-154116667D01*
X93333335Y-154150000D01*
X93366668Y-154183333D01*
X93400001Y-154250000D01*
X93400001Y-154316667D01*
X93366668Y-154383333D01*
X93333335Y-154416667D01*
X93266668Y-154450000D01*
X93033335Y-154450000D01*
X94600001Y-154816667D02*
X94266668Y-154816667D01*
X94266668Y-154116667D01*
X94966668Y-154116667D02*
X95100001Y-154116667D01*
X95166668Y-154150000D01*
X95233335Y-154216667D01*
X95266668Y-154350000D01*
X95266668Y-154583333D01*
X95233335Y-154716667D01*
X95166668Y-154783333D01*
X95100001Y-154816667D01*
X94966668Y-154816667D01*
X94900001Y-154783333D01*
X94833335Y-154716667D01*
X94800001Y-154583333D01*
X94800001Y-154350000D01*
X94833335Y-154216667D01*
X94900001Y-154150000D01*
X94966668Y-154116667D01*
X95700001Y-154116667D02*
X95833334Y-154116667D01*
X95900001Y-154150000D01*
X95966668Y-154216667D01*
X96000001Y-154350000D01*
X96000001Y-154583333D01*
X95966668Y-154716667D01*
X95900001Y-154783333D01*
X95833334Y-154816667D01*
X95700001Y-154816667D01*
X95633334Y-154783333D01*
X95566668Y-154716667D01*
X95533334Y-154583333D01*
X95533334Y-154350000D01*
X95566668Y-154216667D01*
X95633334Y-154150000D01*
X95700001Y-154116667D01*
X96300001Y-154816667D02*
X96300001Y-154116667D01*
X96566667Y-154116667D01*
X96633334Y-154150000D01*
X96666667Y-154183333D01*
X96700001Y-154250000D01*
X96700001Y-154350000D01*
X96666667Y-154416667D01*
X96633334Y-154450000D01*
X96566667Y-154483333D01*
X96300001Y-154483333D01*
X97733334Y-154116667D02*
X97733334Y-154616667D01*
X97700000Y-154716667D01*
X97633334Y-154783333D01*
X97533334Y-154816667D01*
X97466667Y-154816667D01*
X98066667Y-154116667D02*
X98066667Y-154683333D01*
X98100000Y-154750000D01*
X98133333Y-154783333D01*
X98200000Y-154816667D01*
X98333333Y-154816667D01*
X98400000Y-154783333D01*
X98433333Y-154750000D01*
X98466667Y-154683333D01*
X98466667Y-154116667D01*
X98800000Y-154816667D02*
X98800000Y-154116667D01*
X99033333Y-154616667D01*
X99266666Y-154116667D01*
X99266666Y-154816667D01*
X99600000Y-154816667D02*
X99600000Y-154116667D01*
X99866666Y-154116667D01*
X99933333Y-154150000D01*
X99966666Y-154183333D01*
X100000000Y-154250000D01*
X100000000Y-154350000D01*
X99966666Y-154416667D01*
X99933333Y-154450000D01*
X99866666Y-154483333D01*
X99600000Y-154483333D01*
X100300000Y-154450000D02*
X100533333Y-154450000D01*
X100633333Y-154816667D02*
X100300000Y-154816667D01*
X100300000Y-154116667D01*
X100633333Y-154116667D01*
X101333333Y-154816667D02*
X101099999Y-154483333D01*
X100933333Y-154816667D02*
X100933333Y-154116667D01*
X101199999Y-154116667D01*
X101266666Y-154150000D01*
X101299999Y-154183333D01*
X101333333Y-154250000D01*
X101333333Y-154350000D01*
X101299999Y-154416667D01*
X101266666Y-154450000D01*
X101199999Y-154483333D01*
X100933333Y-154483333D01*
D11*
X92150001Y-113278571D02*
X91650001Y-112564286D01*
X91292858Y-113278571D02*
X91292858Y-111778571D01*
X91864286Y-111778571D01*
X92007144Y-111850000D01*
X92078572Y-111921429D01*
X92150001Y-112064286D01*
X92150001Y-112278571D01*
X92078572Y-112421429D01*
X92007144Y-112492857D01*
X91864286Y-112564286D01*
X91292858Y-112564286D01*
X92650001Y-111778571D02*
X93650001Y-113278571D01*
X93650001Y-111778571D02*
X92650001Y-113278571D01*
X97957143Y-111678571D02*
X98814286Y-111678571D01*
X98385715Y-113178571D02*
X98385715Y-111678571D01*
X99171429Y-111678571D02*
X100171429Y-113178571D01*
X100171429Y-111678571D02*
X99171429Y-113178571D01*
D12*
X99735714Y-107669643D02*
X99950000Y-107741071D01*
X100307143Y-107741071D01*
X100450000Y-107669643D01*
X100521429Y-107598214D01*
X100592857Y-107455357D01*
X100592857Y-107312500D01*
X100521429Y-107169643D01*
X100450000Y-107098214D01*
X100307143Y-107026786D01*
X100021429Y-106955357D01*
X99878571Y-106883929D01*
X99807143Y-106812500D01*
X99735714Y-106669643D01*
X99735714Y-106526786D01*
X99807143Y-106383929D01*
X99878571Y-106312500D01*
X100021429Y-106241071D01*
X100378571Y-106241071D01*
X100592857Y-106312500D01*
X101235714Y-106955357D02*
X101735714Y-106955357D01*
X101950000Y-107741071D02*
X101235714Y-107741071D01*
X101235714Y-106241071D01*
X101950000Y-106241071D01*
X103450000Y-107741071D02*
X102950000Y-107026786D01*
X102592857Y-107741071D02*
X102592857Y-106241071D01*
X103164285Y-106241071D01*
X103307143Y-106312500D01*
X103378571Y-106383929D01*
X103450000Y-106526786D01*
X103450000Y-106741071D01*
X103378571Y-106883929D01*
X103307143Y-106955357D01*
X103164285Y-107026786D01*
X102592857Y-107026786D01*
X104092857Y-107741071D02*
X104092857Y-106241071D01*
X104735714Y-107312500D02*
X105450000Y-107312500D01*
X104592857Y-107741071D02*
X105092857Y-106241071D01*
X105592857Y-107741071D01*
X106807143Y-107741071D02*
X106092857Y-107741071D01*
X106092857Y-106241071D01*
X99842857Y-110016071D02*
X99842857Y-108516071D01*
X100200000Y-108516071D01*
X100414285Y-108587500D01*
X100557143Y-108730357D01*
X100628571Y-108873214D01*
X100700000Y-109158929D01*
X100700000Y-109373214D01*
X100628571Y-109658929D01*
X100557143Y-109801786D01*
X100414285Y-109944643D01*
X100200000Y-110016071D01*
X99842857Y-110016071D01*
X101342857Y-109230357D02*
X101842857Y-109230357D01*
X102057143Y-110016071D02*
X101342857Y-110016071D01*
X101342857Y-108516071D01*
X102057143Y-108516071D01*
X103200000Y-109230357D02*
X103414286Y-109301786D01*
X103485714Y-109373214D01*
X103557143Y-109516071D01*
X103557143Y-109730357D01*
X103485714Y-109873214D01*
X103414286Y-109944643D01*
X103271428Y-110016071D01*
X102700000Y-110016071D01*
X102700000Y-108516071D01*
X103200000Y-108516071D01*
X103342857Y-108587500D01*
X103414286Y-108658929D01*
X103485714Y-108801786D01*
X103485714Y-108944643D01*
X103414286Y-109087500D01*
X103342857Y-109158929D01*
X103200000Y-109230357D01*
X102700000Y-109230357D01*
X104200000Y-108516071D02*
X104200000Y-109730357D01*
X104271428Y-109873214D01*
X104342857Y-109944643D01*
X104485714Y-110016071D01*
X104771428Y-110016071D01*
X104914286Y-109944643D01*
X104985714Y-109873214D01*
X105057143Y-109730357D01*
X105057143Y-108516071D01*
X106557143Y-108587500D02*
X106414286Y-108516071D01*
X106200000Y-108516071D01*
X105985715Y-108587500D01*
X105842857Y-108730357D01*
X105771429Y-108873214D01*
X105700000Y-109158929D01*
X105700000Y-109373214D01*
X105771429Y-109658929D01*
X105842857Y-109801786D01*
X105985715Y-109944643D01*
X106200000Y-110016071D01*
X106342857Y-110016071D01*
X106557143Y-109944643D01*
X106628572Y-109873214D01*
X106628572Y-109373214D01*
X106342857Y-109373214D01*
D11*
X41164286Y-108892857D02*
X41378572Y-108964286D01*
X41450000Y-109035714D01*
X41521429Y-109178571D01*
X41521429Y-109392857D01*
X41450000Y-109535714D01*
X41378572Y-109607143D01*
X41235714Y-109678571D01*
X40664286Y-109678571D01*
X40664286Y-108178571D01*
X41164286Y-108178571D01*
X41307143Y-108250000D01*
X41378572Y-108321429D01*
X41450000Y-108464286D01*
X41450000Y-108607143D01*
X41378572Y-108750000D01*
X41307143Y-108821429D01*
X41164286Y-108892857D01*
X40664286Y-108892857D01*
X42450000Y-108178571D02*
X42735714Y-108178571D01*
X42878572Y-108250000D01*
X43021429Y-108392857D01*
X43092857Y-108678571D01*
X43092857Y-109178571D01*
X43021429Y-109464286D01*
X42878572Y-109607143D01*
X42735714Y-109678571D01*
X42450000Y-109678571D01*
X42307143Y-109607143D01*
X42164286Y-109464286D01*
X42092857Y-109178571D01*
X42092857Y-108678571D01*
X42164286Y-108392857D01*
X42307143Y-108250000D01*
X42450000Y-108178571D01*
X44021429Y-108178571D02*
X44307143Y-108178571D01*
X44450001Y-108250000D01*
X44592858Y-108392857D01*
X44664286Y-108678571D01*
X44664286Y-109178571D01*
X44592858Y-109464286D01*
X44450001Y-109607143D01*
X44307143Y-109678571D01*
X44021429Y-109678571D01*
X43878572Y-109607143D01*
X43735715Y-109464286D01*
X43664286Y-109178571D01*
X43664286Y-108678571D01*
X43735715Y-108392857D01*
X43878572Y-108250000D01*
X44021429Y-108178571D01*
X45092858Y-108178571D02*
X45950001Y-108178571D01*
X45521430Y-109678571D02*
X45521430Y-108178571D01*
X79607143Y-111642856D02*
X79607143Y-110499999D01*
X80178571Y-111071428D02*
X79035714Y-111071428D01*
X80178571Y-108999999D02*
X80178571Y-109857142D01*
X80178571Y-109428570D02*
X78678571Y-109428570D01*
X78892857Y-109571427D01*
X79035714Y-109714285D01*
X79107143Y-109857142D01*
X78821429Y-108428571D02*
X78750000Y-108357142D01*
X78678571Y-108214285D01*
X78678571Y-107857142D01*
X78750000Y-107714285D01*
X78821429Y-107642856D01*
X78964286Y-107571428D01*
X79107143Y-107571428D01*
X79321429Y-107642856D01*
X80178571Y-108499999D01*
X80178571Y-107571428D01*
X78678571Y-107142857D02*
X80178571Y-106642857D01*
X78678571Y-106142857D01*
X64050000Y-119278571D02*
X64050000Y-120350000D01*
X63978572Y-120564286D01*
X63835715Y-120707143D01*
X63621429Y-120778571D01*
X63478572Y-120778571D01*
X64550000Y-119278571D02*
X65407143Y-119278571D01*
X64978572Y-120778571D02*
X64978572Y-119278571D01*
X65835714Y-120350000D02*
X66550000Y-120350000D01*
X65692857Y-120778571D02*
X66192857Y-119278571D01*
X66692857Y-120778571D01*
X67978571Y-119350000D02*
X67835714Y-119278571D01*
X67621428Y-119278571D01*
X67407143Y-119350000D01*
X67264285Y-119492857D01*
X67192857Y-119635714D01*
X67121428Y-119921429D01*
X67121428Y-120135714D01*
X67192857Y-120421429D01*
X67264285Y-120564286D01*
X67407143Y-120707143D01*
X67621428Y-120778571D01*
X67764285Y-120778571D01*
X67978571Y-120707143D01*
X68050000Y-120635714D01*
X68050000Y-120135714D01*
X67764285Y-120135714D01*
X63471428Y-112450000D02*
X64185714Y-112450000D01*
X63328571Y-112878571D02*
X63828571Y-111378571D01*
X64328571Y-112878571D01*
X64828571Y-112307143D02*
X65971428Y-112307143D01*
X66542857Y-111378571D02*
X66900000Y-112878571D01*
X67185714Y-111807143D01*
X67471428Y-112878571D01*
X67828571Y-111378571D01*
X68400000Y-112878571D02*
X68400000Y-111378571D01*
X69971429Y-112878571D02*
X69471429Y-112164286D01*
X69114286Y-112878571D02*
X69114286Y-111378571D01*
X69685714Y-111378571D01*
X69828572Y-111450000D01*
X69900000Y-111521429D01*
X69971429Y-111664286D01*
X69971429Y-111878571D01*
X69900000Y-112021429D01*
X69828572Y-112092857D01*
X69685714Y-112164286D01*
X69114286Y-112164286D01*
X70614286Y-112092857D02*
X71114286Y-112092857D01*
X71328572Y-112878571D02*
X70614286Y-112878571D01*
X70614286Y-111378571D01*
X71328572Y-111378571D01*
D12*
X61216548Y-159519048D02*
X59516548Y-159519048D01*
X61378452Y-159114286D02*
X61378452Y-157819048D01*
X61216548Y-156442858D02*
X60407024Y-157009524D01*
X61216548Y-157414286D02*
X59516548Y-157414286D01*
X59516548Y-156766667D01*
X59597500Y-156604762D01*
X59678452Y-156523810D01*
X59840357Y-156442858D01*
X60083214Y-156442858D01*
X60245119Y-156523810D01*
X60326071Y-156604762D01*
X60407024Y-156766667D01*
X60407024Y-157414286D01*
X59516548Y-155876191D02*
X61216548Y-154742858D01*
X59516548Y-154742858D02*
X61216548Y-155876191D01*
X63771548Y-159114286D02*
X62071548Y-159114286D01*
X63933452Y-158709524D02*
X63933452Y-157414286D01*
X62071548Y-157252381D02*
X62071548Y-156280953D01*
X63771548Y-156766667D02*
X62071548Y-156766667D01*
X62071548Y-155876191D02*
X63771548Y-154742858D01*
X62071548Y-154742858D02*
X63771548Y-155876191D01*
X66326548Y-160247619D02*
X64626548Y-160247619D01*
X65840833Y-159680952D01*
X64626548Y-159114286D01*
X66326548Y-159114286D01*
X64626548Y-157980953D02*
X64626548Y-157657143D01*
X64707500Y-157495238D01*
X64869405Y-157333334D01*
X65193214Y-157252381D01*
X65759881Y-157252381D01*
X66083690Y-157333334D01*
X66245595Y-157495238D01*
X66326548Y-157657143D01*
X66326548Y-157980953D01*
X66245595Y-158142857D01*
X66083690Y-158304762D01*
X65759881Y-158385714D01*
X65193214Y-158385714D01*
X64869405Y-158304762D01*
X64707500Y-158142857D01*
X64626548Y-157980953D01*
X66245595Y-156604762D02*
X66326548Y-156361905D01*
X66326548Y-155957143D01*
X66245595Y-155795239D01*
X66164643Y-155714286D01*
X66002738Y-155633334D01*
X65840833Y-155633334D01*
X65678929Y-155714286D01*
X65597976Y-155795239D01*
X65517024Y-155957143D01*
X65436071Y-156280953D01*
X65355119Y-156442858D01*
X65274167Y-156523810D01*
X65112262Y-156604762D01*
X64950357Y-156604762D01*
X64788452Y-156523810D01*
X64707500Y-156442858D01*
X64626548Y-156280953D01*
X64626548Y-155876191D01*
X64707500Y-155633334D01*
X66326548Y-154904762D02*
X64626548Y-154904762D01*
X68881548Y-160247619D02*
X67181548Y-160247619D01*
X68395833Y-159680952D01*
X67181548Y-159114286D01*
X68881548Y-159114286D01*
X68881548Y-158304762D02*
X67181548Y-158304762D01*
X68800595Y-157576190D02*
X68881548Y-157333333D01*
X68881548Y-156928571D01*
X68800595Y-156766667D01*
X68719643Y-156685714D01*
X68557738Y-156604762D01*
X68395833Y-156604762D01*
X68233929Y-156685714D01*
X68152976Y-156766667D01*
X68072024Y-156928571D01*
X67991071Y-157252381D01*
X67910119Y-157414286D01*
X67829167Y-157495238D01*
X67667262Y-157576190D01*
X67505357Y-157576190D01*
X67343452Y-157495238D01*
X67262500Y-157414286D01*
X67181548Y-157252381D01*
X67181548Y-156847619D01*
X67262500Y-156604762D01*
X67181548Y-155552381D02*
X67181548Y-155228571D01*
X67262500Y-155066666D01*
X67424405Y-154904762D01*
X67748214Y-154823809D01*
X68314881Y-154823809D01*
X68638690Y-154904762D01*
X68800595Y-155066666D01*
X68881548Y-155228571D01*
X68881548Y-155552381D01*
X68800595Y-155714285D01*
X68638690Y-155876190D01*
X68314881Y-155957142D01*
X67748214Y-155957142D01*
X67424405Y-155876190D01*
X67262500Y-155714285D01*
X67181548Y-155552381D01*
X71355595Y-160571428D02*
X71436548Y-160328571D01*
X71436548Y-159923809D01*
X71355595Y-159761905D01*
X71274643Y-159680952D01*
X71112738Y-159600000D01*
X70950833Y-159600000D01*
X70788929Y-159680952D01*
X70707976Y-159761905D01*
X70627024Y-159923809D01*
X70546071Y-160247619D01*
X70465119Y-160409524D01*
X70384167Y-160490476D01*
X70222262Y-160571428D01*
X70060357Y-160571428D01*
X69898452Y-160490476D01*
X69817500Y-160409524D01*
X69736548Y-160247619D01*
X69736548Y-159842857D01*
X69817500Y-159600000D01*
X71274643Y-157900000D02*
X71355595Y-157980952D01*
X71436548Y-158223809D01*
X71436548Y-158385714D01*
X71355595Y-158628571D01*
X71193690Y-158790476D01*
X71031786Y-158871428D01*
X70707976Y-158952380D01*
X70465119Y-158952380D01*
X70141310Y-158871428D01*
X69979405Y-158790476D01*
X69817500Y-158628571D01*
X69736548Y-158385714D01*
X69736548Y-158223809D01*
X69817500Y-157980952D01*
X69898452Y-157900000D01*
X71436548Y-156361904D02*
X71436548Y-157171428D01*
X69736548Y-157171428D01*
X71436548Y-155795238D02*
X69736548Y-155795238D01*
X71436548Y-154823810D02*
X70465119Y-155552381D01*
X69736548Y-154823810D02*
X70707976Y-155795238D01*
X73991548Y-158223810D02*
X72291548Y-158223810D01*
X73829643Y-156442858D02*
X73910595Y-156523810D01*
X73991548Y-156766667D01*
X73991548Y-156928572D01*
X73910595Y-157171429D01*
X73748690Y-157333334D01*
X73586786Y-157414286D01*
X73262976Y-157495238D01*
X73020119Y-157495238D01*
X72696310Y-157414286D01*
X72534405Y-157333334D01*
X72372500Y-157171429D01*
X72291548Y-156928572D01*
X72291548Y-156766667D01*
X72372500Y-156523810D01*
X72453452Y-156442858D01*
X73910595Y-155795238D02*
X73991548Y-155552381D01*
X73991548Y-155147619D01*
X73910595Y-154985715D01*
X73829643Y-154904762D01*
X73667738Y-154823810D01*
X73505833Y-154823810D01*
X73343929Y-154904762D01*
X73262976Y-154985715D01*
X73182024Y-155147619D01*
X73101071Y-155471429D01*
X73020119Y-155633334D01*
X72939167Y-155714286D01*
X72777262Y-155795238D01*
X72615357Y-155795238D01*
X72453452Y-155714286D01*
X72372500Y-155633334D01*
X72291548Y-155471429D01*
X72291548Y-155066667D01*
X72372500Y-154823810D01*
X76384643Y-158142858D02*
X76465595Y-158223810D01*
X76546548Y-158466667D01*
X76546548Y-158628572D01*
X76465595Y-158871429D01*
X76303690Y-159033334D01*
X76141786Y-159114286D01*
X75817976Y-159195238D01*
X75575119Y-159195238D01*
X75251310Y-159114286D01*
X75089405Y-159033334D01*
X74927500Y-158871429D01*
X74846548Y-158628572D01*
X74846548Y-158466667D01*
X74927500Y-158223810D01*
X75008452Y-158142858D01*
X76384643Y-156442858D02*
X76465595Y-156523810D01*
X76546548Y-156766667D01*
X76546548Y-156928572D01*
X76465595Y-157171429D01*
X76303690Y-157333334D01*
X76141786Y-157414286D01*
X75817976Y-157495238D01*
X75575119Y-157495238D01*
X75251310Y-157414286D01*
X75089405Y-157333334D01*
X74927500Y-157171429D01*
X74846548Y-156928572D01*
X74846548Y-156766667D01*
X74927500Y-156523810D01*
X75008452Y-156442858D01*
X76465595Y-155795238D02*
X76546548Y-155552381D01*
X76546548Y-155147619D01*
X76465595Y-154985715D01*
X76384643Y-154904762D01*
X76222738Y-154823810D01*
X76060833Y-154823810D01*
X75898929Y-154904762D01*
X75817976Y-154985715D01*
X75737024Y-155147619D01*
X75656071Y-155471429D01*
X75575119Y-155633334D01*
X75494167Y-155714286D01*
X75332262Y-155795238D01*
X75170357Y-155795238D01*
X75008452Y-155714286D01*
X74927500Y-155633334D01*
X74846548Y-155471429D01*
X74846548Y-155066667D01*
X74927500Y-154823810D01*
X79101548Y-158142858D02*
X78292024Y-158709524D01*
X79101548Y-159114286D02*
X77401548Y-159114286D01*
X77401548Y-158466667D01*
X77482500Y-158304762D01*
X77563452Y-158223810D01*
X77725357Y-158142858D01*
X77968214Y-158142858D01*
X78130119Y-158223810D01*
X78211071Y-158304762D01*
X78292024Y-158466667D01*
X78292024Y-159114286D01*
X77401548Y-157576191D02*
X79101548Y-156442858D01*
X77401548Y-156442858D02*
X79101548Y-157576191D01*
X79101548Y-155795238D02*
X77401548Y-155795238D01*
X77401548Y-155390476D01*
X77482500Y-155147619D01*
X77644405Y-154985714D01*
X77806310Y-154904762D01*
X78130119Y-154823810D01*
X78372976Y-154823810D01*
X78696786Y-154904762D01*
X78858690Y-154985714D01*
X79020595Y-155147619D01*
X79101548Y-155390476D01*
X79101548Y-155795238D01*
X79956548Y-158952381D02*
X79956548Y-157980953D01*
X81656548Y-158466667D02*
X79956548Y-158466667D01*
X79956548Y-157576191D02*
X81656548Y-156442858D01*
X79956548Y-156442858D02*
X81656548Y-157576191D01*
X81656548Y-155795238D02*
X79956548Y-155795238D01*
X79956548Y-155390476D01*
X80037500Y-155147619D01*
X80199405Y-154985714D01*
X80361310Y-154904762D01*
X80685119Y-154823810D01*
X80927976Y-154823810D01*
X81251786Y-154904762D01*
X81413690Y-154985714D01*
X81575595Y-155147619D01*
X81656548Y-155390476D01*
X81656548Y-155795238D01*
X84049643Y-159033334D02*
X84130595Y-159114286D01*
X84211548Y-159357143D01*
X84211548Y-159519048D01*
X84130595Y-159761905D01*
X83968690Y-159923810D01*
X83806786Y-160004762D01*
X83482976Y-160085714D01*
X83240119Y-160085714D01*
X82916310Y-160004762D01*
X82754405Y-159923810D01*
X82592500Y-159761905D01*
X82511548Y-159519048D01*
X82511548Y-159357143D01*
X82592500Y-159114286D01*
X82673452Y-159033334D01*
X84373452Y-158709524D02*
X84373452Y-157414286D01*
X82511548Y-157252381D02*
X82511548Y-156280953D01*
X84211548Y-156766667D02*
X82511548Y-156766667D01*
X82511548Y-155876191D02*
X84211548Y-154742858D01*
X82511548Y-154742858D02*
X84211548Y-155876191D01*
X86604643Y-159438096D02*
X86685595Y-159519048D01*
X86766548Y-159761905D01*
X86766548Y-159923810D01*
X86685595Y-160166667D01*
X86523690Y-160328572D01*
X86361786Y-160409524D01*
X86037976Y-160490476D01*
X85795119Y-160490476D01*
X85471310Y-160409524D01*
X85309405Y-160328572D01*
X85147500Y-160166667D01*
X85066548Y-159923810D01*
X85066548Y-159761905D01*
X85147500Y-159519048D01*
X85228452Y-159438096D01*
X86928452Y-159114286D02*
X86928452Y-157819048D01*
X86766548Y-156442858D02*
X85957024Y-157009524D01*
X86766548Y-157414286D02*
X85066548Y-157414286D01*
X85066548Y-156766667D01*
X85147500Y-156604762D01*
X85228452Y-156523810D01*
X85390357Y-156442858D01*
X85633214Y-156442858D01*
X85795119Y-156523810D01*
X85876071Y-156604762D01*
X85957024Y-156766667D01*
X85957024Y-157414286D01*
X85066548Y-155876191D02*
X86766548Y-154742858D01*
X85066548Y-154742858D02*
X86766548Y-155876191D01*
X87702500Y-158385714D02*
X87621548Y-158547619D01*
X87621548Y-158790476D01*
X87702500Y-159033333D01*
X87864405Y-159195238D01*
X88026310Y-159276190D01*
X88350119Y-159357142D01*
X88592976Y-159357142D01*
X88916786Y-159276190D01*
X89078690Y-159195238D01*
X89240595Y-159033333D01*
X89321548Y-158790476D01*
X89321548Y-158628571D01*
X89240595Y-158385714D01*
X89159643Y-158304762D01*
X88592976Y-158304762D01*
X88592976Y-158628571D01*
X89321548Y-157576190D02*
X87621548Y-157576190D01*
X89321548Y-156604762D01*
X87621548Y-156604762D01*
X89321548Y-155795238D02*
X87621548Y-155795238D01*
X87621548Y-155390476D01*
X87702500Y-155147619D01*
X87864405Y-154985714D01*
X88026310Y-154904762D01*
X88350119Y-154823810D01*
X88592976Y-154823810D01*
X88916786Y-154904762D01*
X89078690Y-154985714D01*
X89240595Y-155147619D01*
X89321548Y-155390476D01*
X89321548Y-155795238D01*
D15*
X27935000Y-151509000D02*
X27935000Y-134364000D01*
X38730000Y-133729000D02*
X38730000Y-152144000D01*
X38730000Y-133094000D02*
X38730000Y-133729000D01*
X35555000Y-133094000D02*
X35555000Y-152779000D01*
X35555000Y-127379000D02*
X35555000Y-133094000D01*
X34285000Y-158494000D02*
X34285000Y-127379000D01*
X34285000Y-134364000D02*
X27935000Y-134364000D01*
X35555000Y-127379000D02*
X34285000Y-127379000D01*
X38730000Y-133094000D02*
X35555000Y-133094000D01*
X40000000Y-135634000D02*
X40000000Y-133729000D01*
X40000000Y-133729000D02*
X38730000Y-133729000D01*
X34285000Y-151509000D02*
X27935000Y-151509000D01*
X35555000Y-152779000D02*
X35555000Y-158494000D01*
X35555000Y-158494000D02*
X34285000Y-158494000D01*
X38730000Y-152144000D02*
X38730000Y-152779000D01*
X38730000Y-152779000D02*
X35555000Y-152779000D01*
X40000000Y-150239000D02*
X40000000Y-152144000D01*
X40000000Y-152144000D02*
X38730000Y-152144000D01*
X50500000Y-114675000D02*
X49500000Y-114675000D01*
X49500000Y-113325000D02*
X50500000Y-113325000D01*
X105500000Y-125175000D02*
X104500000Y-125175000D01*
X104500000Y-123825000D02*
X105500000Y-123825000D01*
X105500000Y-122675000D02*
X104500000Y-122675000D01*
X104500000Y-121325000D02*
X105500000Y-121325000D01*
X61000000Y-135825000D02*
X62000000Y-135825000D01*
X62000000Y-137175000D02*
X61000000Y-137175000D01*
X61000000Y-138325000D02*
X62000000Y-138325000D01*
X62000000Y-139675000D02*
X61000000Y-139675000D01*
X44100000Y-134675000D02*
X43100000Y-134675000D01*
X43100000Y-133325000D02*
X44100000Y-133325000D01*
X48900000Y-115850000D02*
X52600000Y-115850000D01*
X48900000Y-117650000D02*
X52600000Y-117650000D01*
X50000000Y-118575000D02*
X51000000Y-118575000D01*
X51000000Y-119925000D02*
X50000000Y-119925000D01*
X97500000Y-145325000D02*
X98500000Y-145325000D01*
X98500000Y-146675000D02*
X97500000Y-146675000D01*
X71000000Y-147175000D02*
X70000000Y-147175000D01*
X70000000Y-145825000D02*
X71000000Y-145825000D01*
X87000000Y-126325000D02*
X88000000Y-126325000D01*
X88000000Y-127675000D02*
X87000000Y-127675000D01*
X85000000Y-142175000D02*
X84000000Y-142175000D01*
X84000000Y-140825000D02*
X85000000Y-140825000D01*
X45000000Y-123975000D02*
X43000000Y-123975000D01*
X43000000Y-121025000D02*
X45000000Y-121025000D01*
X106475000Y-127500000D02*
X106475000Y-129500000D01*
X103525000Y-129500000D02*
X103525000Y-127500000D01*
X45000000Y-127975000D02*
X43000000Y-127975000D01*
X43000000Y-125025000D02*
X45000000Y-125025000D01*
X84000000Y-143325000D02*
X85000000Y-143325000D01*
X85000000Y-144675000D02*
X84000000Y-144675000D01*
X84000000Y-145825000D02*
X85000000Y-145825000D01*
X85000000Y-147175000D02*
X84000000Y-147175000D01*
X79500000Y-121825000D02*
X80500000Y-121825000D01*
X80500000Y-123175000D02*
X79500000Y-123175000D01*
X85500000Y-123175000D02*
X84500000Y-123175000D01*
X84500000Y-121825000D02*
X85500000Y-121825000D01*
X94000000Y-118175000D02*
X93000000Y-118175000D01*
X93000000Y-116825000D02*
X94000000Y-116825000D01*
X97500000Y-116825000D02*
X98500000Y-116825000D01*
X98500000Y-118175000D02*
X97500000Y-118175000D01*
X44000000Y-132175000D02*
X43000000Y-132175000D01*
X43000000Y-130825000D02*
X44000000Y-130825000D01*
X88000000Y-136675000D02*
X87000000Y-136675000D01*
X87000000Y-135325000D02*
X88000000Y-135325000D01*
X88000000Y-133675000D02*
X87000000Y-133675000D01*
X87000000Y-132325000D02*
X88000000Y-132325000D01*
X75000000Y-116825000D02*
X76000000Y-116825000D01*
X76000000Y-118175000D02*
X75000000Y-118175000D01*
X96839220Y-147169040D02*
X96229620Y-147169040D01*
X96229620Y-147169040D02*
X96219460Y-147600840D01*
X76070000Y-121190000D02*
X63370000Y-121190000D01*
X63370000Y-121190000D02*
X63370000Y-126270000D01*
X63370000Y-126270000D02*
X73530000Y-126270000D01*
X76070000Y-121190000D02*
X76070000Y-123730000D01*
X74800000Y-126550000D02*
X76350000Y-126550000D01*
X76070000Y-123730000D02*
X73530000Y-123730000D01*
X73530000Y-123730000D02*
X73530000Y-126270000D01*
X76350000Y-126550000D02*
X76350000Y-125000000D01*
X63450000Y-118370000D02*
X68530000Y-118370000D01*
X71350000Y-118650000D02*
X69800000Y-118650000D01*
X71070000Y-115830000D02*
X68530000Y-115830000D01*
X68530000Y-115830000D02*
X68530000Y-118370000D01*
X63450000Y-118370000D02*
X63450000Y-113290000D01*
X63450000Y-113290000D02*
X68530000Y-113290000D01*
X71350000Y-118650000D02*
X71350000Y-117100000D01*
X71070000Y-113290000D02*
X71070000Y-115830000D01*
X68530000Y-113290000D02*
X71070000Y-113290000D01*
X94000000Y-115250000D02*
X94000000Y-113750000D01*
X94000000Y-113750000D02*
X93750000Y-113750000D01*
X93750000Y-113750000D02*
X93750000Y-115250000D01*
X93750000Y-115250000D02*
X94000000Y-115250000D01*
X92900000Y-113625000D02*
X94100000Y-113625000D01*
X94100000Y-115375000D02*
X92900000Y-115375000D01*
X97500000Y-113750000D02*
X97500000Y-115250000D01*
X97500000Y-115250000D02*
X97750000Y-115250000D01*
X97750000Y-115250000D02*
X97750000Y-113750000D01*
X97750000Y-113750000D02*
X97500000Y-113750000D01*
X98600000Y-115375000D02*
X97400000Y-115375000D01*
X97400000Y-113625000D02*
X98600000Y-113625000D01*
X82500000Y-135250000D02*
X82500000Y-136750000D01*
X82500000Y-136750000D02*
X82750000Y-136750000D01*
X82750000Y-136750000D02*
X82750000Y-135250000D01*
X82750000Y-135250000D02*
X82500000Y-135250000D01*
X83600000Y-136875000D02*
X82400000Y-136875000D01*
X82400000Y-135125000D02*
X83600000Y-135125000D01*
X82500000Y-132250000D02*
X82500000Y-133750000D01*
X82500000Y-133750000D02*
X82750000Y-133750000D01*
X82750000Y-133750000D02*
X82750000Y-132250000D01*
X82750000Y-132250000D02*
X82500000Y-132250000D01*
X83600000Y-133875000D02*
X82400000Y-133875000D01*
X82400000Y-132125000D02*
X83600000Y-132125000D01*
X76000000Y-114750000D02*
X76000000Y-113250000D01*
X76000000Y-113250000D02*
X75750000Y-113250000D01*
X75750000Y-113250000D02*
X75750000Y-114750000D01*
X75750000Y-114750000D02*
X76000000Y-114750000D01*
X74900000Y-113125000D02*
X76100000Y-113125000D01*
X76100000Y-114875000D02*
X74900000Y-114875000D01*
X50000000Y-127750000D02*
X50000000Y-126250000D01*
X50000000Y-126250000D02*
X49750000Y-126250000D01*
X49750000Y-126250000D02*
X49750000Y-127750000D01*
X49750000Y-127750000D02*
X50000000Y-127750000D01*
X48900000Y-126125000D02*
X50100000Y-126125000D01*
X50100000Y-127875000D02*
X48900000Y-127875000D01*
X79400000Y-124350000D02*
X79400000Y-125850000D01*
X79400000Y-125850000D02*
X79650000Y-125850000D01*
X79650000Y-125850000D02*
X79650000Y-124350000D01*
X79650000Y-124350000D02*
X79400000Y-124350000D01*
X80500000Y-125975000D02*
X79300000Y-125975000D01*
X79300000Y-124225000D02*
X80500000Y-124225000D01*
X59500000Y-128050000D02*
X61050000Y-128050000D01*
X61050000Y-128050000D02*
X61050000Y-124950000D01*
X61050000Y-124950000D02*
X59500000Y-124950000D01*
X58230000Y-127770000D02*
X53150000Y-127770000D01*
X53150000Y-127770000D02*
X53150000Y-125230000D01*
X53150000Y-125230000D02*
X58230000Y-125230000D01*
X58230000Y-125230000D02*
X58230000Y-127770000D01*
X39282540Y-110649100D02*
X39282540Y-119349100D01*
X45687540Y-110649100D02*
X45687540Y-119349100D01*
X45687540Y-119349100D02*
X39282540Y-119349100D01*
X40512540Y-119349100D02*
X40512540Y-110649100D01*
X39282540Y-110649100D02*
X45687540Y-110649100D01*
X108717460Y-119350900D02*
X108717460Y-110650900D01*
X102312460Y-119350900D02*
X102312460Y-110650900D01*
X102312460Y-110650900D02*
X108717460Y-110650900D01*
X107487460Y-110650900D02*
X107487460Y-119350900D01*
X108717460Y-119350900D02*
X102312460Y-119350900D01*
X87330000Y-150930000D02*
X59390000Y-150930000D01*
X59390000Y-150930000D02*
X59390000Y-153470000D01*
X59390000Y-153470000D02*
X87330000Y-153470000D01*
X90150000Y-150650000D02*
X88600000Y-150650000D01*
X87330000Y-150930000D02*
X87330000Y-153470000D01*
X88600000Y-153750000D02*
X90150000Y-153750000D01*
X90150000Y-153750000D02*
X90150000Y-150650000D01*
X65500000Y-143325000D02*
X66500000Y-143325000D01*
X66500000Y-144675000D02*
X65500000Y-144675000D01*
X62500000Y-128825000D02*
X63500000Y-128825000D01*
X63500000Y-130175000D02*
X62500000Y-130175000D01*
X61000000Y-140825000D02*
X62000000Y-140825000D01*
X62000000Y-142175000D02*
X61000000Y-142175000D01*
X65500000Y-145825000D02*
X66500000Y-145825000D01*
X66500000Y-147175000D02*
X65500000Y-147175000D01*
X62000000Y-144675000D02*
X61000000Y-144675000D01*
X61000000Y-143325000D02*
X62000000Y-143325000D01*
X79175000Y-132825000D02*
X78100000Y-132825000D01*
X79175000Y-143175000D02*
X78100000Y-143175000D01*
X68825000Y-143175000D02*
X69900000Y-143175000D01*
X68825000Y-132825000D02*
X69900000Y-132825000D01*
X79175000Y-132825000D02*
X79175000Y-133900000D01*
X68825000Y-132825000D02*
X68825000Y-133900000D01*
X68825000Y-143175000D02*
X68825000Y-142100000D01*
X79175000Y-143175000D02*
X79175000Y-142100000D01*
X78100000Y-132825000D02*
X78100000Y-131800000D01*
X91175000Y-127875000D02*
X91825000Y-127875000D01*
X91175000Y-122125000D02*
X91825000Y-122125000D01*
X101825000Y-122125000D02*
X101175000Y-122125000D01*
X101825000Y-127875000D02*
X101175000Y-127875000D01*
X91175000Y-127875000D02*
X91175000Y-122125000D01*
X101825000Y-127875000D02*
X101825000Y-122125000D01*
X91825000Y-127875000D02*
X91825000Y-129475000D01*
X50625000Y-136175000D02*
X50625000Y-136825000D01*
X56375000Y-136175000D02*
X56375000Y-136825000D01*
X56375000Y-146825000D02*
X56375000Y-146175000D01*
X50625000Y-146825000D02*
X50625000Y-146175000D01*
X50625000Y-136175000D02*
X56375000Y-136175000D01*
X50625000Y-146825000D02*
X56375000Y-146825000D01*
X50625000Y-136825000D02*
X49025000Y-136825000D01*
X99925000Y-137025000D02*
X99275000Y-137025000D01*
X99925000Y-142775000D02*
X99275000Y-142775000D01*
X89275000Y-142775000D02*
X89925000Y-142775000D01*
X89275000Y-137025000D02*
X89925000Y-137025000D01*
X99925000Y-137025000D02*
X99925000Y-142775000D01*
X89275000Y-137025000D02*
X89275000Y-142775000D01*
X99275000Y-137025000D02*
X99275000Y-135425000D01*
X63300000Y-135000000D02*
X64600000Y-135000000D01*
X64600000Y-135000000D02*
X64700000Y-134900000D01*
X64700000Y-134900000D02*
X64700000Y-133400000D01*
X61700000Y-134600000D02*
X61700000Y-131400000D01*
X61700000Y-131400000D02*
X64300000Y-131400000D01*
X64300000Y-131400000D02*
X64300000Y-134600000D01*
X64300000Y-134600000D02*
X61700000Y-134600000D01*
X95260110Y-151449780D02*
X97760110Y-151449780D01*
X97760110Y-151449780D02*
X97760110Y-152549780D01*
X97760110Y-152549780D02*
X95260110Y-152549780D01*
X95260110Y-152549780D02*
X95260110Y-151449780D01*
X95010110Y-152799780D02*
X98010110Y-152799780D01*
X95010110Y-151199780D02*
X98010110Y-151199780D01*
X98010110Y-151199780D02*
X98010110Y-152799780D01*
X95010110Y-151199780D02*
X95010110Y-152799780D01*
X93510110Y-153749780D02*
X99510110Y-153749780D01*
X93510110Y-150249780D02*
X99510110Y-150249780D01*
X93510110Y-150249780D02*
X93510110Y-153749780D01*
X99510110Y-150249780D02*
X99510110Y-153749780D01*
X70500000Y-128825000D02*
X71500000Y-128825000D01*
X71500000Y-130175000D02*
X70500000Y-130175000D01*
X52500000Y-129325000D02*
X53500000Y-129325000D01*
X53500000Y-130675000D02*
X52500000Y-130675000D01*
X52500000Y-149175000D02*
X51500000Y-149175000D01*
X51500000Y-147825000D02*
X52500000Y-147825000D01*
X93000000Y-147825000D02*
X94000000Y-147825000D01*
X94000000Y-149175000D02*
X93000000Y-149175000D01*
X52500000Y-151675000D02*
X51500000Y-151675000D01*
X51500000Y-150325000D02*
X52500000Y-150325000D01*
X93000000Y-145325000D02*
X94000000Y-145325000D01*
X94000000Y-146675000D02*
X93000000Y-146675000D01*
X90000000Y-119500000D02*
X90000000Y-105000000D01*
X90000000Y-105000000D02*
X81000000Y-105000000D01*
X81000000Y-105000000D02*
X81000000Y-119500000D01*
X81000000Y-119500000D02*
X90000000Y-119500000D01*
X51760110Y-132949780D02*
X54260110Y-132949780D01*
X54260110Y-132949780D02*
X54260110Y-134049780D01*
X54260110Y-134049780D02*
X51760110Y-134049780D01*
X51760110Y-134049780D02*
X51760110Y-132949780D01*
X51510110Y-134299780D02*
X54510110Y-134299780D01*
X51510110Y-132699780D02*
X54510110Y-132699780D01*
X54510110Y-132699780D02*
X54510110Y-134299780D01*
X51510110Y-132699780D02*
X51510110Y-134299780D01*
X50010110Y-135249780D02*
X56010110Y-135249780D01*
X50010110Y-131749780D02*
X56010110Y-131749780D01*
X50010110Y-131749780D02*
X50010110Y-135249780D01*
X56010110Y-131749780D02*
X56010110Y-135249780D01*
X97239890Y-133050220D02*
X94739890Y-133050220D01*
X94739890Y-133050220D02*
X94739890Y-131950220D01*
X94739890Y-131950220D02*
X97239890Y-131950220D01*
X97239890Y-131950220D02*
X97239890Y-133050220D01*
X97489890Y-131700220D02*
X94489890Y-131700220D01*
X97489890Y-133300220D02*
X94489890Y-133300220D01*
X94489890Y-133300220D02*
X94489890Y-131700220D01*
X97489890Y-133300220D02*
X97489890Y-131700220D01*
X98989890Y-130750220D02*
X92989890Y-130750220D01*
X98989890Y-134250220D02*
X92989890Y-134250220D01*
X98989890Y-134250220D02*
X98989890Y-130750220D01*
X92989890Y-134250220D02*
X92989890Y-130750220D01*
X49000000Y-130675000D02*
X48000000Y-130675000D01*
X48000000Y-129325000D02*
X49000000Y-129325000D01*
X105500000Y-133175000D02*
X104500000Y-133175000D01*
X104500000Y-131825000D02*
X105500000Y-131825000D01*
X53056320Y-120700000D02*
X53056320Y-120899800D01*
X52599280Y-120750000D02*
X52599280Y-120899000D01*
X48453840Y-120700000D02*
X48453840Y-120849000D01*
X53051240Y-124300000D02*
X53051240Y-124151000D01*
X52599280Y-124300000D02*
X52599280Y-124151000D01*
X48448760Y-124300000D02*
X48448760Y-124151000D01*
X52599280Y-120551020D02*
X52599280Y-120749140D01*
X52599280Y-124498980D02*
X52599280Y-124300860D01*
X48453840Y-120503560D02*
X48453840Y-120701680D01*
X53056320Y-120503560D02*
X48453840Y-120503560D01*
X53056320Y-120503560D02*
X53056320Y-120701680D01*
X53051240Y-124498980D02*
X53051240Y-124300860D01*
X53051240Y-124498980D02*
X48448760Y-124498980D01*
X48448760Y-124498980D02*
X48448760Y-124300860D01*
X30308381Y-143333333D02*
X31022667Y-143333333D01*
X31165524Y-143380953D01*
X31260762Y-143476191D01*
X31308381Y-143619048D01*
X31308381Y-143714286D01*
X30403619Y-142904762D02*
X30356000Y-142857143D01*
X30308381Y-142761905D01*
X30308381Y-142523809D01*
X30356000Y-142428571D01*
X30403619Y-142380952D01*
X30498857Y-142333333D01*
X30594095Y-142333333D01*
X30736952Y-142380952D01*
X31308381Y-142952381D01*
X31308381Y-142333333D01*
X48414286Y-114100000D02*
X48442857Y-114128571D01*
X48471429Y-114214285D01*
X48471429Y-114271428D01*
X48442857Y-114357143D01*
X48385714Y-114414285D01*
X48328571Y-114442857D01*
X48214286Y-114471428D01*
X48128571Y-114471428D01*
X48014286Y-114442857D01*
X47957143Y-114414285D01*
X47900000Y-114357143D01*
X47871429Y-114271428D01*
X47871429Y-114214285D01*
X47900000Y-114128571D01*
X47928571Y-114100000D01*
X48471429Y-113528571D02*
X48471429Y-113871428D01*
X48471429Y-113700000D02*
X47871429Y-113700000D01*
X47957143Y-113757143D01*
X48014286Y-113814285D01*
X48042857Y-113871428D01*
X52071429Y-114428571D02*
X52071429Y-114771428D01*
X52071429Y-114600000D02*
X51471429Y-114600000D01*
X51557143Y-114657143D01*
X51614286Y-114714285D01*
X51642857Y-114771428D01*
X51471429Y-114057142D02*
X51471429Y-113999999D01*
X51500000Y-113942856D01*
X51528571Y-113914285D01*
X51585714Y-113885714D01*
X51700000Y-113857142D01*
X51842857Y-113857142D01*
X51957143Y-113885714D01*
X52014286Y-113914285D01*
X52042857Y-113942856D01*
X52071429Y-113999999D01*
X52071429Y-114057142D01*
X52042857Y-114114285D01*
X52014286Y-114142856D01*
X51957143Y-114171428D01*
X51842857Y-114199999D01*
X51700000Y-114199999D01*
X51585714Y-114171428D01*
X51528571Y-114142856D01*
X51500000Y-114114285D01*
X51471429Y-114057142D01*
X52071429Y-113599999D02*
X51471429Y-113599999D01*
X52071429Y-113257142D01*
X51471429Y-113257142D01*
X107014286Y-124600000D02*
X107042857Y-124628571D01*
X107071429Y-124714285D01*
X107071429Y-124771428D01*
X107042857Y-124857143D01*
X106985714Y-124914285D01*
X106928571Y-124942857D01*
X106814286Y-124971428D01*
X106728571Y-124971428D01*
X106614286Y-124942857D01*
X106557143Y-124914285D01*
X106500000Y-124857143D01*
X106471429Y-124771428D01*
X106471429Y-124714285D01*
X106500000Y-124628571D01*
X106528571Y-124600000D01*
X106528571Y-124371428D02*
X106500000Y-124342857D01*
X106471429Y-124285714D01*
X106471429Y-124142857D01*
X106500000Y-124085714D01*
X106528571Y-124057143D01*
X106585714Y-124028571D01*
X106642857Y-124028571D01*
X106728571Y-124057143D01*
X107071429Y-124400000D01*
X107071429Y-124028571D01*
X103471429Y-125028571D02*
X103471429Y-125371428D01*
X103471429Y-125200000D02*
X102871429Y-125200000D01*
X102957143Y-125257143D01*
X103014286Y-125314285D01*
X103042857Y-125371428D01*
X102871429Y-124657142D02*
X102871429Y-124599999D01*
X102900000Y-124542856D01*
X102928571Y-124514285D01*
X102985714Y-124485714D01*
X103100000Y-124457142D01*
X103242857Y-124457142D01*
X103357143Y-124485714D01*
X103414286Y-124514285D01*
X103442857Y-124542856D01*
X103471429Y-124599999D01*
X103471429Y-124657142D01*
X103442857Y-124714285D01*
X103414286Y-124742856D01*
X103357143Y-124771428D01*
X103242857Y-124799999D01*
X103100000Y-124799999D01*
X102985714Y-124771428D01*
X102928571Y-124742856D01*
X102900000Y-124714285D01*
X102871429Y-124657142D01*
X103471429Y-124199999D02*
X102871429Y-124199999D01*
X103471429Y-123857142D01*
X102871429Y-123857142D01*
X107014286Y-122100000D02*
X107042857Y-122128571D01*
X107071429Y-122214285D01*
X107071429Y-122271428D01*
X107042857Y-122357143D01*
X106985714Y-122414285D01*
X106928571Y-122442857D01*
X106814286Y-122471428D01*
X106728571Y-122471428D01*
X106614286Y-122442857D01*
X106557143Y-122414285D01*
X106500000Y-122357143D01*
X106471429Y-122271428D01*
X106471429Y-122214285D01*
X106500000Y-122128571D01*
X106528571Y-122100000D01*
X106471429Y-121900000D02*
X106471429Y-121528571D01*
X106700000Y-121728571D01*
X106700000Y-121642857D01*
X106728571Y-121585714D01*
X106757143Y-121557143D01*
X106814286Y-121528571D01*
X106957143Y-121528571D01*
X107014286Y-121557143D01*
X107042857Y-121585714D01*
X107071429Y-121642857D01*
X107071429Y-121814285D01*
X107042857Y-121871428D01*
X107014286Y-121900000D01*
X103471429Y-122614286D02*
X103471429Y-122957143D01*
X103471429Y-122785715D02*
X102871429Y-122785715D01*
X102957143Y-122842858D01*
X103014286Y-122900000D01*
X103042857Y-122957143D01*
X102871429Y-122242857D02*
X102871429Y-122185714D01*
X102900000Y-122128571D01*
X102928571Y-122100000D01*
X102985714Y-122071429D01*
X103100000Y-122042857D01*
X103242857Y-122042857D01*
X103357143Y-122071429D01*
X103414286Y-122100000D01*
X103442857Y-122128571D01*
X103471429Y-122185714D01*
X103471429Y-122242857D01*
X103442857Y-122300000D01*
X103414286Y-122328571D01*
X103357143Y-122357143D01*
X103242857Y-122385714D01*
X103100000Y-122385714D01*
X102985714Y-122357143D01*
X102928571Y-122328571D01*
X102900000Y-122300000D01*
X102871429Y-122242857D01*
X102871429Y-121671428D02*
X102871429Y-121614285D01*
X102900000Y-121557142D01*
X102928571Y-121528571D01*
X102985714Y-121500000D01*
X103100000Y-121471428D01*
X103242857Y-121471428D01*
X103357143Y-121500000D01*
X103414286Y-121528571D01*
X103442857Y-121557142D01*
X103471429Y-121614285D01*
X103471429Y-121671428D01*
X103442857Y-121728571D01*
X103414286Y-121757142D01*
X103357143Y-121785714D01*
X103242857Y-121814285D01*
X103100000Y-121814285D01*
X102985714Y-121785714D01*
X102928571Y-121757142D01*
X102900000Y-121728571D01*
X102871429Y-121671428D01*
X103471429Y-121214285D02*
X102871429Y-121214285D01*
X103471429Y-120871428D01*
X102871429Y-120871428D01*
X59914286Y-136600000D02*
X59942857Y-136628571D01*
X59971429Y-136714285D01*
X59971429Y-136771428D01*
X59942857Y-136857143D01*
X59885714Y-136914285D01*
X59828571Y-136942857D01*
X59714286Y-136971428D01*
X59628571Y-136971428D01*
X59514286Y-136942857D01*
X59457143Y-136914285D01*
X59400000Y-136857143D01*
X59371429Y-136771428D01*
X59371429Y-136714285D01*
X59400000Y-136628571D01*
X59428571Y-136600000D01*
X59571429Y-136085714D02*
X59971429Y-136085714D01*
X59342857Y-136228571D02*
X59771429Y-136371428D01*
X59771429Y-136000000D01*
X63571429Y-137314286D02*
X63571429Y-137657143D01*
X63571429Y-137485715D02*
X62971429Y-137485715D01*
X63057143Y-137542858D01*
X63114286Y-137600000D01*
X63142857Y-137657143D01*
X62971429Y-136942857D02*
X62971429Y-136885714D01*
X63000000Y-136828571D01*
X63028571Y-136800000D01*
X63085714Y-136771429D01*
X63200000Y-136742857D01*
X63342857Y-136742857D01*
X63457143Y-136771429D01*
X63514286Y-136800000D01*
X63542857Y-136828571D01*
X63571429Y-136885714D01*
X63571429Y-136942857D01*
X63542857Y-137000000D01*
X63514286Y-137028571D01*
X63457143Y-137057143D01*
X63342857Y-137085714D01*
X63200000Y-137085714D01*
X63085714Y-137057143D01*
X63028571Y-137028571D01*
X63000000Y-137000000D01*
X62971429Y-136942857D01*
X62971429Y-136371428D02*
X62971429Y-136314285D01*
X63000000Y-136257142D01*
X63028571Y-136228571D01*
X63085714Y-136200000D01*
X63200000Y-136171428D01*
X63342857Y-136171428D01*
X63457143Y-136200000D01*
X63514286Y-136228571D01*
X63542857Y-136257142D01*
X63571429Y-136314285D01*
X63571429Y-136371428D01*
X63542857Y-136428571D01*
X63514286Y-136457142D01*
X63457143Y-136485714D01*
X63342857Y-136514285D01*
X63200000Y-136514285D01*
X63085714Y-136485714D01*
X63028571Y-136457142D01*
X63000000Y-136428571D01*
X62971429Y-136371428D01*
X63571429Y-135914285D02*
X62971429Y-135914285D01*
X63571429Y-135571428D01*
X62971429Y-135571428D01*
X59914286Y-139100000D02*
X59942857Y-139128571D01*
X59971429Y-139214285D01*
X59971429Y-139271428D01*
X59942857Y-139357143D01*
X59885714Y-139414285D01*
X59828571Y-139442857D01*
X59714286Y-139471428D01*
X59628571Y-139471428D01*
X59514286Y-139442857D01*
X59457143Y-139414285D01*
X59400000Y-139357143D01*
X59371429Y-139271428D01*
X59371429Y-139214285D01*
X59400000Y-139128571D01*
X59428571Y-139100000D01*
X59371429Y-138557143D02*
X59371429Y-138842857D01*
X59657143Y-138871428D01*
X59628571Y-138842857D01*
X59600000Y-138785714D01*
X59600000Y-138642857D01*
X59628571Y-138585714D01*
X59657143Y-138557143D01*
X59714286Y-138528571D01*
X59857143Y-138528571D01*
X59914286Y-138557143D01*
X59942857Y-138585714D01*
X59971429Y-138642857D01*
X59971429Y-138785714D01*
X59942857Y-138842857D01*
X59914286Y-138871428D01*
X63571429Y-139714286D02*
X63571429Y-140057143D01*
X63571429Y-139885715D02*
X62971429Y-139885715D01*
X63057143Y-139942858D01*
X63114286Y-140000000D01*
X63142857Y-140057143D01*
X62971429Y-139342857D02*
X62971429Y-139285714D01*
X63000000Y-139228571D01*
X63028571Y-139200000D01*
X63085714Y-139171429D01*
X63200000Y-139142857D01*
X63342857Y-139142857D01*
X63457143Y-139171429D01*
X63514286Y-139200000D01*
X63542857Y-139228571D01*
X63571429Y-139285714D01*
X63571429Y-139342857D01*
X63542857Y-139400000D01*
X63514286Y-139428571D01*
X63457143Y-139457143D01*
X63342857Y-139485714D01*
X63200000Y-139485714D01*
X63085714Y-139457143D01*
X63028571Y-139428571D01*
X63000000Y-139400000D01*
X62971429Y-139342857D01*
X62971429Y-138771428D02*
X62971429Y-138714285D01*
X63000000Y-138657142D01*
X63028571Y-138628571D01*
X63085714Y-138600000D01*
X63200000Y-138571428D01*
X63342857Y-138571428D01*
X63457143Y-138600000D01*
X63514286Y-138628571D01*
X63542857Y-138657142D01*
X63571429Y-138714285D01*
X63571429Y-138771428D01*
X63542857Y-138828571D01*
X63514286Y-138857142D01*
X63457143Y-138885714D01*
X63342857Y-138914285D01*
X63200000Y-138914285D01*
X63085714Y-138885714D01*
X63028571Y-138857142D01*
X63000000Y-138828571D01*
X62971429Y-138771428D01*
X63571429Y-138314285D02*
X62971429Y-138314285D01*
X63571429Y-137971428D01*
X62971429Y-137971428D01*
X41914286Y-134100000D02*
X41942857Y-134128571D01*
X41971429Y-134214285D01*
X41971429Y-134271428D01*
X41942857Y-134357143D01*
X41885714Y-134414285D01*
X41828571Y-134442857D01*
X41714286Y-134471428D01*
X41628571Y-134471428D01*
X41514286Y-134442857D01*
X41457143Y-134414285D01*
X41400000Y-134357143D01*
X41371429Y-134271428D01*
X41371429Y-134214285D01*
X41400000Y-134128571D01*
X41428571Y-134100000D01*
X41371429Y-133585714D02*
X41371429Y-133700000D01*
X41400000Y-133757143D01*
X41428571Y-133785714D01*
X41514286Y-133842857D01*
X41628571Y-133871428D01*
X41857143Y-133871428D01*
X41914286Y-133842857D01*
X41942857Y-133814285D01*
X41971429Y-133757143D01*
X41971429Y-133642857D01*
X41942857Y-133585714D01*
X41914286Y-133557143D01*
X41857143Y-133528571D01*
X41714286Y-133528571D01*
X41657143Y-133557143D01*
X41628571Y-133585714D01*
X41600000Y-133642857D01*
X41600000Y-133757143D01*
X41628571Y-133814285D01*
X41657143Y-133842857D01*
X41714286Y-133871428D01*
X45771429Y-134428571D02*
X45771429Y-134771428D01*
X45771429Y-134600000D02*
X45171429Y-134600000D01*
X45257143Y-134657143D01*
X45314286Y-134714285D01*
X45342857Y-134771428D01*
X45171429Y-134057142D02*
X45171429Y-133999999D01*
X45200000Y-133942856D01*
X45228571Y-133914285D01*
X45285714Y-133885714D01*
X45400000Y-133857142D01*
X45542857Y-133857142D01*
X45657143Y-133885714D01*
X45714286Y-133914285D01*
X45742857Y-133942856D01*
X45771429Y-133999999D01*
X45771429Y-134057142D01*
X45742857Y-134114285D01*
X45714286Y-134142856D01*
X45657143Y-134171428D01*
X45542857Y-134199999D01*
X45400000Y-134199999D01*
X45285714Y-134171428D01*
X45228571Y-134142856D01*
X45200000Y-134114285D01*
X45171429Y-134057142D01*
X45771429Y-133599999D02*
X45171429Y-133599999D01*
X45771429Y-133257142D01*
X45171429Y-133257142D01*
X48014286Y-116850000D02*
X48042857Y-116878571D01*
X48071429Y-116964285D01*
X48071429Y-117021428D01*
X48042857Y-117107143D01*
X47985714Y-117164285D01*
X47928571Y-117192857D01*
X47814286Y-117221428D01*
X47728571Y-117221428D01*
X47614286Y-117192857D01*
X47557143Y-117164285D01*
X47500000Y-117107143D01*
X47471429Y-117021428D01*
X47471429Y-116964285D01*
X47500000Y-116878571D01*
X47528571Y-116850000D01*
X47471429Y-116650000D02*
X47471429Y-116250000D01*
X48071429Y-116507143D01*
X53171429Y-117235714D02*
X53571429Y-117235714D01*
X52942857Y-117378571D02*
X53371429Y-117521428D01*
X53371429Y-117150000D01*
X52971429Y-116921428D02*
X53457143Y-116921428D01*
X53514286Y-116892856D01*
X53542857Y-116864285D01*
X53571429Y-116807142D01*
X53571429Y-116692856D01*
X53542857Y-116635714D01*
X53514286Y-116607142D01*
X53457143Y-116578571D01*
X52971429Y-116578571D01*
X52971429Y-116350000D02*
X52971429Y-115950000D01*
X53571429Y-116207143D01*
X48914286Y-119350000D02*
X48942857Y-119378571D01*
X48971429Y-119464285D01*
X48971429Y-119521428D01*
X48942857Y-119607143D01*
X48885714Y-119664285D01*
X48828571Y-119692857D01*
X48714286Y-119721428D01*
X48628571Y-119721428D01*
X48514286Y-119692857D01*
X48457143Y-119664285D01*
X48400000Y-119607143D01*
X48371429Y-119521428D01*
X48371429Y-119464285D01*
X48400000Y-119378571D01*
X48428571Y-119350000D01*
X48628571Y-119007143D02*
X48600000Y-119064285D01*
X48571429Y-119092857D01*
X48514286Y-119121428D01*
X48485714Y-119121428D01*
X48428571Y-119092857D01*
X48400000Y-119064285D01*
X48371429Y-119007143D01*
X48371429Y-118892857D01*
X48400000Y-118835714D01*
X48428571Y-118807143D01*
X48485714Y-118778571D01*
X48514286Y-118778571D01*
X48571429Y-118807143D01*
X48600000Y-118835714D01*
X48628571Y-118892857D01*
X48628571Y-119007143D01*
X48657143Y-119064285D01*
X48685714Y-119092857D01*
X48742857Y-119121428D01*
X48857143Y-119121428D01*
X48914286Y-119092857D01*
X48942857Y-119064285D01*
X48971429Y-119007143D01*
X48971429Y-118892857D01*
X48942857Y-118835714D01*
X48914286Y-118807143D01*
X48857143Y-118778571D01*
X48742857Y-118778571D01*
X48685714Y-118807143D01*
X48657143Y-118835714D01*
X48628571Y-118892857D01*
X52571429Y-119964286D02*
X52571429Y-120307143D01*
X52571429Y-120135715D02*
X51971429Y-120135715D01*
X52057143Y-120192858D01*
X52114286Y-120250000D01*
X52142857Y-120307143D01*
X51971429Y-119592857D02*
X51971429Y-119535714D01*
X52000000Y-119478571D01*
X52028571Y-119450000D01*
X52085714Y-119421429D01*
X52200000Y-119392857D01*
X52342857Y-119392857D01*
X52457143Y-119421429D01*
X52514286Y-119450000D01*
X52542857Y-119478571D01*
X52571429Y-119535714D01*
X52571429Y-119592857D01*
X52542857Y-119650000D01*
X52514286Y-119678571D01*
X52457143Y-119707143D01*
X52342857Y-119735714D01*
X52200000Y-119735714D01*
X52085714Y-119707143D01*
X52028571Y-119678571D01*
X52000000Y-119650000D01*
X51971429Y-119592857D01*
X51971429Y-119021428D02*
X51971429Y-118964285D01*
X52000000Y-118907142D01*
X52028571Y-118878571D01*
X52085714Y-118850000D01*
X52200000Y-118821428D01*
X52342857Y-118821428D01*
X52457143Y-118850000D01*
X52514286Y-118878571D01*
X52542857Y-118907142D01*
X52571429Y-118964285D01*
X52571429Y-119021428D01*
X52542857Y-119078571D01*
X52514286Y-119107142D01*
X52457143Y-119135714D01*
X52342857Y-119164285D01*
X52200000Y-119164285D01*
X52085714Y-119135714D01*
X52028571Y-119107142D01*
X52000000Y-119078571D01*
X51971429Y-119021428D01*
X52571429Y-118564285D02*
X51971429Y-118564285D01*
X52571429Y-118221428D01*
X51971429Y-118221428D01*
X96414286Y-146100000D02*
X96442857Y-146128571D01*
X96471429Y-146214285D01*
X96471429Y-146271428D01*
X96442857Y-146357143D01*
X96385714Y-146414285D01*
X96328571Y-146442857D01*
X96214286Y-146471428D01*
X96128571Y-146471428D01*
X96014286Y-146442857D01*
X95957143Y-146414285D01*
X95900000Y-146357143D01*
X95871429Y-146271428D01*
X95871429Y-146214285D01*
X95900000Y-146128571D01*
X95928571Y-146100000D01*
X96471429Y-145814285D02*
X96471429Y-145700000D01*
X96442857Y-145642857D01*
X96414286Y-145614285D01*
X96328571Y-145557143D01*
X96214286Y-145528571D01*
X95985714Y-145528571D01*
X95928571Y-145557143D01*
X95900000Y-145585714D01*
X95871429Y-145642857D01*
X95871429Y-145757143D01*
X95900000Y-145814285D01*
X95928571Y-145842857D01*
X95985714Y-145871428D01*
X96128571Y-145871428D01*
X96185714Y-145842857D01*
X96214286Y-145814285D01*
X96242857Y-145757143D01*
X96242857Y-145642857D01*
X96214286Y-145585714D01*
X96185714Y-145557143D01*
X96128571Y-145528571D01*
X100171429Y-146714286D02*
X100171429Y-147057143D01*
X100171429Y-146885715D02*
X99571429Y-146885715D01*
X99657143Y-146942858D01*
X99714286Y-147000000D01*
X99742857Y-147057143D01*
X99571429Y-146342857D02*
X99571429Y-146285714D01*
X99600000Y-146228571D01*
X99628571Y-146200000D01*
X99685714Y-146171429D01*
X99800000Y-146142857D01*
X99942857Y-146142857D01*
X100057143Y-146171429D01*
X100114286Y-146200000D01*
X100142857Y-146228571D01*
X100171429Y-146285714D01*
X100171429Y-146342857D01*
X100142857Y-146400000D01*
X100114286Y-146428571D01*
X100057143Y-146457143D01*
X99942857Y-146485714D01*
X99800000Y-146485714D01*
X99685714Y-146457143D01*
X99628571Y-146428571D01*
X99600000Y-146400000D01*
X99571429Y-146342857D01*
X99571429Y-145771428D02*
X99571429Y-145714285D01*
X99600000Y-145657142D01*
X99628571Y-145628571D01*
X99685714Y-145600000D01*
X99800000Y-145571428D01*
X99942857Y-145571428D01*
X100057143Y-145600000D01*
X100114286Y-145628571D01*
X100142857Y-145657142D01*
X100171429Y-145714285D01*
X100171429Y-145771428D01*
X100142857Y-145828571D01*
X100114286Y-145857142D01*
X100057143Y-145885714D01*
X99942857Y-145914285D01*
X99800000Y-145914285D01*
X99685714Y-145885714D01*
X99628571Y-145857142D01*
X99600000Y-145828571D01*
X99571429Y-145771428D01*
X100171429Y-145314285D02*
X99571429Y-145314285D01*
X100171429Y-144971428D01*
X99571429Y-144971428D01*
X68914286Y-146985715D02*
X68942857Y-147014286D01*
X68971429Y-147100000D01*
X68971429Y-147157143D01*
X68942857Y-147242858D01*
X68885714Y-147300000D01*
X68828571Y-147328572D01*
X68714286Y-147357143D01*
X68628571Y-147357143D01*
X68514286Y-147328572D01*
X68457143Y-147300000D01*
X68400000Y-147242858D01*
X68371429Y-147157143D01*
X68371429Y-147100000D01*
X68400000Y-147014286D01*
X68428571Y-146985715D01*
X68971429Y-146414286D02*
X68971429Y-146757143D01*
X68971429Y-146585715D02*
X68371429Y-146585715D01*
X68457143Y-146642858D01*
X68514286Y-146700000D01*
X68542857Y-146757143D01*
X68371429Y-146042857D02*
X68371429Y-145985714D01*
X68400000Y-145928571D01*
X68428571Y-145900000D01*
X68485714Y-145871429D01*
X68600000Y-145842857D01*
X68742857Y-145842857D01*
X68857143Y-145871429D01*
X68914286Y-145900000D01*
X68942857Y-145928571D01*
X68971429Y-145985714D01*
X68971429Y-146042857D01*
X68942857Y-146100000D01*
X68914286Y-146128571D01*
X68857143Y-146157143D01*
X68742857Y-146185714D01*
X68600000Y-146185714D01*
X68485714Y-146157143D01*
X68428571Y-146128571D01*
X68400000Y-146100000D01*
X68371429Y-146042857D01*
X72571429Y-147214286D02*
X72571429Y-147557143D01*
X72571429Y-147385715D02*
X71971429Y-147385715D01*
X72057143Y-147442858D01*
X72114286Y-147500000D01*
X72142857Y-147557143D01*
X71971429Y-146842857D02*
X71971429Y-146785714D01*
X72000000Y-146728571D01*
X72028571Y-146700000D01*
X72085714Y-146671429D01*
X72200000Y-146642857D01*
X72342857Y-146642857D01*
X72457143Y-146671429D01*
X72514286Y-146700000D01*
X72542857Y-146728571D01*
X72571429Y-146785714D01*
X72571429Y-146842857D01*
X72542857Y-146900000D01*
X72514286Y-146928571D01*
X72457143Y-146957143D01*
X72342857Y-146985714D01*
X72200000Y-146985714D01*
X72085714Y-146957143D01*
X72028571Y-146928571D01*
X72000000Y-146900000D01*
X71971429Y-146842857D01*
X71971429Y-146271428D02*
X71971429Y-146214285D01*
X72000000Y-146157142D01*
X72028571Y-146128571D01*
X72085714Y-146100000D01*
X72200000Y-146071428D01*
X72342857Y-146071428D01*
X72457143Y-146100000D01*
X72514286Y-146128571D01*
X72542857Y-146157142D01*
X72571429Y-146214285D01*
X72571429Y-146271428D01*
X72542857Y-146328571D01*
X72514286Y-146357142D01*
X72457143Y-146385714D01*
X72342857Y-146414285D01*
X72200000Y-146414285D01*
X72085714Y-146385714D01*
X72028571Y-146357142D01*
X72000000Y-146328571D01*
X71971429Y-146271428D01*
X72571429Y-145814285D02*
X71971429Y-145814285D01*
X72571429Y-145471428D01*
X71971429Y-145471428D01*
X85914286Y-127385715D02*
X85942857Y-127414286D01*
X85971429Y-127500000D01*
X85971429Y-127557143D01*
X85942857Y-127642858D01*
X85885714Y-127700000D01*
X85828571Y-127728572D01*
X85714286Y-127757143D01*
X85628571Y-127757143D01*
X85514286Y-127728572D01*
X85457143Y-127700000D01*
X85400000Y-127642858D01*
X85371429Y-127557143D01*
X85371429Y-127500000D01*
X85400000Y-127414286D01*
X85428571Y-127385715D01*
X85971429Y-126814286D02*
X85971429Y-127157143D01*
X85971429Y-126985715D02*
X85371429Y-126985715D01*
X85457143Y-127042858D01*
X85514286Y-127100000D01*
X85542857Y-127157143D01*
X85971429Y-126242857D02*
X85971429Y-126585714D01*
X85971429Y-126414286D02*
X85371429Y-126414286D01*
X85457143Y-126471429D01*
X85514286Y-126528571D01*
X85542857Y-126585714D01*
X89571429Y-127714286D02*
X89571429Y-128057143D01*
X89571429Y-127885715D02*
X88971429Y-127885715D01*
X89057143Y-127942858D01*
X89114286Y-128000000D01*
X89142857Y-128057143D01*
X88971429Y-127342857D02*
X88971429Y-127285714D01*
X89000000Y-127228571D01*
X89028571Y-127200000D01*
X89085714Y-127171429D01*
X89200000Y-127142857D01*
X89342857Y-127142857D01*
X89457143Y-127171429D01*
X89514286Y-127200000D01*
X89542857Y-127228571D01*
X89571429Y-127285714D01*
X89571429Y-127342857D01*
X89542857Y-127400000D01*
X89514286Y-127428571D01*
X89457143Y-127457143D01*
X89342857Y-127485714D01*
X89200000Y-127485714D01*
X89085714Y-127457143D01*
X89028571Y-127428571D01*
X89000000Y-127400000D01*
X88971429Y-127342857D01*
X88971429Y-126771428D02*
X88971429Y-126714285D01*
X89000000Y-126657142D01*
X89028571Y-126628571D01*
X89085714Y-126600000D01*
X89200000Y-126571428D01*
X89342857Y-126571428D01*
X89457143Y-126600000D01*
X89514286Y-126628571D01*
X89542857Y-126657142D01*
X89571429Y-126714285D01*
X89571429Y-126771428D01*
X89542857Y-126828571D01*
X89514286Y-126857142D01*
X89457143Y-126885714D01*
X89342857Y-126914285D01*
X89200000Y-126914285D01*
X89085714Y-126885714D01*
X89028571Y-126857142D01*
X89000000Y-126828571D01*
X88971429Y-126771428D01*
X89571429Y-126314285D02*
X88971429Y-126314285D01*
X89571429Y-125971428D01*
X88971429Y-125971428D01*
X82914286Y-141885715D02*
X82942857Y-141914286D01*
X82971429Y-142000000D01*
X82971429Y-142057143D01*
X82942857Y-142142858D01*
X82885714Y-142200000D01*
X82828571Y-142228572D01*
X82714286Y-142257143D01*
X82628571Y-142257143D01*
X82514286Y-142228572D01*
X82457143Y-142200000D01*
X82400000Y-142142858D01*
X82371429Y-142057143D01*
X82371429Y-142000000D01*
X82400000Y-141914286D01*
X82428571Y-141885715D01*
X82971429Y-141314286D02*
X82971429Y-141657143D01*
X82971429Y-141485715D02*
X82371429Y-141485715D01*
X82457143Y-141542858D01*
X82514286Y-141600000D01*
X82542857Y-141657143D01*
X82428571Y-141085714D02*
X82400000Y-141057143D01*
X82371429Y-141000000D01*
X82371429Y-140857143D01*
X82400000Y-140800000D01*
X82428571Y-140771429D01*
X82485714Y-140742857D01*
X82542857Y-140742857D01*
X82628571Y-140771429D01*
X82971429Y-141114286D01*
X82971429Y-140742857D01*
X86671429Y-142214286D02*
X86671429Y-142557143D01*
X86671429Y-142385715D02*
X86071429Y-142385715D01*
X86157143Y-142442858D01*
X86214286Y-142500000D01*
X86242857Y-142557143D01*
X86071429Y-141842857D02*
X86071429Y-141785714D01*
X86100000Y-141728571D01*
X86128571Y-141700000D01*
X86185714Y-141671429D01*
X86300000Y-141642857D01*
X86442857Y-141642857D01*
X86557143Y-141671429D01*
X86614286Y-141700000D01*
X86642857Y-141728571D01*
X86671429Y-141785714D01*
X86671429Y-141842857D01*
X86642857Y-141900000D01*
X86614286Y-141928571D01*
X86557143Y-141957143D01*
X86442857Y-141985714D01*
X86300000Y-141985714D01*
X86185714Y-141957143D01*
X86128571Y-141928571D01*
X86100000Y-141900000D01*
X86071429Y-141842857D01*
X86071429Y-141271428D02*
X86071429Y-141214285D01*
X86100000Y-141157142D01*
X86128571Y-141128571D01*
X86185714Y-141100000D01*
X86300000Y-141071428D01*
X86442857Y-141071428D01*
X86557143Y-141100000D01*
X86614286Y-141128571D01*
X86642857Y-141157142D01*
X86671429Y-141214285D01*
X86671429Y-141271428D01*
X86642857Y-141328571D01*
X86614286Y-141357142D01*
X86557143Y-141385714D01*
X86442857Y-141414285D01*
X86300000Y-141414285D01*
X86185714Y-141385714D01*
X86128571Y-141357142D01*
X86100000Y-141328571D01*
X86071429Y-141271428D01*
X86671429Y-140814285D02*
X86071429Y-140814285D01*
X86671429Y-140471428D01*
X86071429Y-140471428D01*
X41457143Y-122700000D02*
X41457143Y-122900000D01*
X41771429Y-122900000D02*
X41171429Y-122900000D01*
X41171429Y-122614286D01*
X41771429Y-122071428D02*
X41771429Y-122414285D01*
X41771429Y-122242857D02*
X41171429Y-122242857D01*
X41257143Y-122300000D01*
X41314286Y-122357142D01*
X41342857Y-122414285D01*
X104800000Y-130997143D02*
X104600000Y-130997143D01*
X104600000Y-131311429D02*
X104600000Y-130711429D01*
X104885714Y-130711429D01*
X105085715Y-130768571D02*
X105114286Y-130740000D01*
X105171429Y-130711429D01*
X105314286Y-130711429D01*
X105371429Y-130740000D01*
X105400000Y-130768571D01*
X105428572Y-130825714D01*
X105428572Y-130882857D01*
X105400000Y-130968571D01*
X105057143Y-131311429D01*
X105428572Y-131311429D01*
X41457143Y-126700000D02*
X41457143Y-126900000D01*
X41771429Y-126900000D02*
X41171429Y-126900000D01*
X41171429Y-126614286D01*
X41171429Y-126442857D02*
X41171429Y-126071428D01*
X41400000Y-126271428D01*
X41400000Y-126185714D01*
X41428571Y-126128571D01*
X41457143Y-126100000D01*
X41514286Y-126071428D01*
X41657143Y-126071428D01*
X41714286Y-126100000D01*
X41742857Y-126128571D01*
X41771429Y-126185714D01*
X41771429Y-126357142D01*
X41742857Y-126414285D01*
X41714286Y-126442857D01*
X82971429Y-144100000D02*
X82685714Y-144300000D01*
X82971429Y-144442857D02*
X82371429Y-144442857D01*
X82371429Y-144214285D01*
X82400000Y-144157143D01*
X82428571Y-144128571D01*
X82485714Y-144100000D01*
X82571429Y-144100000D01*
X82628571Y-144128571D01*
X82657143Y-144157143D01*
X82685714Y-144214285D01*
X82685714Y-144442857D01*
X82371429Y-143585714D02*
X82371429Y-143700000D01*
X82400000Y-143757143D01*
X82428571Y-143785714D01*
X82514286Y-143842857D01*
X82628571Y-143871428D01*
X82857143Y-143871428D01*
X82914286Y-143842857D01*
X82942857Y-143814285D01*
X82971429Y-143757143D01*
X82971429Y-143642857D01*
X82942857Y-143585714D01*
X82914286Y-143557143D01*
X82857143Y-143528571D01*
X82714286Y-143528571D01*
X82657143Y-143557143D01*
X82628571Y-143585714D01*
X82600000Y-143642857D01*
X82600000Y-143757143D01*
X82628571Y-143814285D01*
X82657143Y-143842857D01*
X82714286Y-143871428D01*
X86271429Y-144457143D02*
X86671429Y-144457143D01*
X86042857Y-144600000D02*
X86471429Y-144742857D01*
X86471429Y-144371429D01*
X86071429Y-144200000D02*
X86071429Y-143800000D01*
X86671429Y-144057143D01*
X86071429Y-143457142D02*
X86071429Y-143399999D01*
X86100000Y-143342856D01*
X86128571Y-143314285D01*
X86185714Y-143285714D01*
X86300000Y-143257142D01*
X86442857Y-143257142D01*
X86557143Y-143285714D01*
X86614286Y-143314285D01*
X86642857Y-143342856D01*
X86671429Y-143399999D01*
X86671429Y-143457142D01*
X86642857Y-143514285D01*
X86614286Y-143542856D01*
X86557143Y-143571428D01*
X86442857Y-143599999D01*
X86300000Y-143599999D01*
X86185714Y-143571428D01*
X86128571Y-143542856D01*
X86100000Y-143514285D01*
X86071429Y-143457142D01*
X82971429Y-146600000D02*
X82685714Y-146800000D01*
X82971429Y-146942857D02*
X82371429Y-146942857D01*
X82371429Y-146714285D01*
X82400000Y-146657143D01*
X82428571Y-146628571D01*
X82485714Y-146600000D01*
X82571429Y-146600000D01*
X82628571Y-146628571D01*
X82657143Y-146657143D01*
X82685714Y-146714285D01*
X82685714Y-146942857D01*
X82371429Y-146400000D02*
X82371429Y-146000000D01*
X82971429Y-146257143D01*
X86271429Y-146957143D02*
X86671429Y-146957143D01*
X86042857Y-147100000D02*
X86471429Y-147242857D01*
X86471429Y-146871429D01*
X86071429Y-146700000D02*
X86071429Y-146300000D01*
X86671429Y-146557143D01*
X86071429Y-145957142D02*
X86071429Y-145899999D01*
X86100000Y-145842856D01*
X86128571Y-145814285D01*
X86185714Y-145785714D01*
X86300000Y-145757142D01*
X86442857Y-145757142D01*
X86557143Y-145785714D01*
X86614286Y-145814285D01*
X86642857Y-145842856D01*
X86671429Y-145899999D01*
X86671429Y-145957142D01*
X86642857Y-146014285D01*
X86614286Y-146042856D01*
X86557143Y-146071428D01*
X86442857Y-146099999D01*
X86300000Y-146099999D01*
X86185714Y-146071428D01*
X86128571Y-146042856D01*
X86100000Y-146014285D01*
X86071429Y-145957142D01*
X78471429Y-122600000D02*
X78185714Y-122800000D01*
X78471429Y-122942857D02*
X77871429Y-122942857D01*
X77871429Y-122714285D01*
X77900000Y-122657143D01*
X77928571Y-122628571D01*
X77985714Y-122600000D01*
X78071429Y-122600000D01*
X78128571Y-122628571D01*
X78157143Y-122657143D01*
X78185714Y-122714285D01*
X78185714Y-122942857D01*
X78128571Y-122257143D02*
X78100000Y-122314285D01*
X78071429Y-122342857D01*
X78014286Y-122371428D01*
X77985714Y-122371428D01*
X77928571Y-122342857D01*
X77900000Y-122314285D01*
X77871429Y-122257143D01*
X77871429Y-122142857D01*
X77900000Y-122085714D01*
X77928571Y-122057143D01*
X77985714Y-122028571D01*
X78014286Y-122028571D01*
X78071429Y-122057143D01*
X78100000Y-122085714D01*
X78128571Y-122142857D01*
X78128571Y-122257143D01*
X78157143Y-122314285D01*
X78185714Y-122342857D01*
X78242857Y-122371428D01*
X78357143Y-122371428D01*
X78414286Y-122342857D01*
X78442857Y-122314285D01*
X78471429Y-122257143D01*
X78471429Y-122142857D01*
X78442857Y-122085714D01*
X78414286Y-122057143D01*
X78357143Y-122028571D01*
X78242857Y-122028571D01*
X78185714Y-122057143D01*
X78157143Y-122085714D01*
X78128571Y-122142857D01*
X81771429Y-122957143D02*
X82171429Y-122957143D01*
X81542857Y-123100000D02*
X81971429Y-123242857D01*
X81971429Y-122871429D01*
X81571429Y-122700000D02*
X81571429Y-122300000D01*
X82171429Y-122557143D01*
X81571429Y-121957142D02*
X81571429Y-121899999D01*
X81600000Y-121842856D01*
X81628571Y-121814285D01*
X81685714Y-121785714D01*
X81800000Y-121757142D01*
X81942857Y-121757142D01*
X82057143Y-121785714D01*
X82114286Y-121814285D01*
X82142857Y-121842856D01*
X82171429Y-121899999D01*
X82171429Y-121957142D01*
X82142857Y-122014285D01*
X82114286Y-122042856D01*
X82057143Y-122071428D01*
X81942857Y-122099999D01*
X81800000Y-122099999D01*
X81685714Y-122071428D01*
X81628571Y-122042856D01*
X81600000Y-122014285D01*
X81571429Y-121957142D01*
X83471429Y-122500000D02*
X83185714Y-122700000D01*
X83471429Y-122842857D02*
X82871429Y-122842857D01*
X82871429Y-122614285D01*
X82900000Y-122557143D01*
X82928571Y-122528571D01*
X82985714Y-122500000D01*
X83071429Y-122500000D01*
X83128571Y-122528571D01*
X83157143Y-122557143D01*
X83185714Y-122614285D01*
X83185714Y-122842857D01*
X83471429Y-122214285D02*
X83471429Y-122100000D01*
X83442857Y-122042857D01*
X83414286Y-122014285D01*
X83328571Y-121957143D01*
X83214286Y-121928571D01*
X82985714Y-121928571D01*
X82928571Y-121957143D01*
X82900000Y-121985714D01*
X82871429Y-122042857D01*
X82871429Y-122157143D01*
X82900000Y-122214285D01*
X82928571Y-122242857D01*
X82985714Y-122271428D01*
X83128571Y-122271428D01*
X83185714Y-122242857D01*
X83214286Y-122214285D01*
X83242857Y-122157143D01*
X83242857Y-122042857D01*
X83214286Y-121985714D01*
X83185714Y-121957143D01*
X83128571Y-121928571D01*
X86771429Y-122971429D02*
X87171429Y-122971429D01*
X86542857Y-123114286D02*
X86971429Y-123257143D01*
X86971429Y-122885715D01*
X87171429Y-122657143D02*
X86571429Y-122657143D01*
X87171429Y-122314286D02*
X86828571Y-122571429D01*
X86571429Y-122314286D02*
X86914286Y-122657143D01*
X86571429Y-122114286D02*
X86571429Y-121714286D01*
X87171429Y-121971429D01*
X91971429Y-117885715D02*
X91685714Y-118085715D01*
X91971429Y-118228572D02*
X91371429Y-118228572D01*
X91371429Y-118000000D01*
X91400000Y-117942858D01*
X91428571Y-117914286D01*
X91485714Y-117885715D01*
X91571429Y-117885715D01*
X91628571Y-117914286D01*
X91657143Y-117942858D01*
X91685714Y-118000000D01*
X91685714Y-118228572D01*
X91971429Y-117314286D02*
X91971429Y-117657143D01*
X91971429Y-117485715D02*
X91371429Y-117485715D01*
X91457143Y-117542858D01*
X91514286Y-117600000D01*
X91542857Y-117657143D01*
X91371429Y-116942857D02*
X91371429Y-116885714D01*
X91400000Y-116828571D01*
X91428571Y-116800000D01*
X91485714Y-116771429D01*
X91600000Y-116742857D01*
X91742857Y-116742857D01*
X91857143Y-116771429D01*
X91914286Y-116800000D01*
X91942857Y-116828571D01*
X91971429Y-116885714D01*
X91971429Y-116942857D01*
X91942857Y-117000000D01*
X91914286Y-117028571D01*
X91857143Y-117057143D01*
X91742857Y-117085714D01*
X91600000Y-117085714D01*
X91485714Y-117057143D01*
X91428571Y-117028571D01*
X91400000Y-117000000D01*
X91371429Y-116942857D01*
X95271429Y-117957143D02*
X95671429Y-117957143D01*
X95042857Y-118100000D02*
X95471429Y-118242857D01*
X95471429Y-117871429D01*
X95071429Y-117700000D02*
X95071429Y-117300000D01*
X95671429Y-117557143D01*
X95071429Y-116957142D02*
X95071429Y-116899999D01*
X95100000Y-116842856D01*
X95128571Y-116814285D01*
X95185714Y-116785714D01*
X95300000Y-116757142D01*
X95442857Y-116757142D01*
X95557143Y-116785714D01*
X95614286Y-116814285D01*
X95642857Y-116842856D01*
X95671429Y-116899999D01*
X95671429Y-116957142D01*
X95642857Y-117014285D01*
X95614286Y-117042856D01*
X95557143Y-117071428D01*
X95442857Y-117099999D01*
X95300000Y-117099999D01*
X95185714Y-117071428D01*
X95128571Y-117042856D01*
X95100000Y-117014285D01*
X95071429Y-116957142D01*
X96471429Y-117785715D02*
X96185714Y-117985715D01*
X96471429Y-118128572D02*
X95871429Y-118128572D01*
X95871429Y-117900000D01*
X95900000Y-117842858D01*
X95928571Y-117814286D01*
X95985714Y-117785715D01*
X96071429Y-117785715D01*
X96128571Y-117814286D01*
X96157143Y-117842858D01*
X96185714Y-117900000D01*
X96185714Y-118128572D01*
X96471429Y-117214286D02*
X96471429Y-117557143D01*
X96471429Y-117385715D02*
X95871429Y-117385715D01*
X95957143Y-117442858D01*
X96014286Y-117500000D01*
X96042857Y-117557143D01*
X96471429Y-116642857D02*
X96471429Y-116985714D01*
X96471429Y-116814286D02*
X95871429Y-116814286D01*
X95957143Y-116871429D01*
X96014286Y-116928571D01*
X96042857Y-116985714D01*
X99771429Y-117957143D02*
X100171429Y-117957143D01*
X99542857Y-118100000D02*
X99971429Y-118242857D01*
X99971429Y-117871429D01*
X99571429Y-117700000D02*
X99571429Y-117300000D01*
X100171429Y-117557143D01*
X99571429Y-116957142D02*
X99571429Y-116899999D01*
X99600000Y-116842856D01*
X99628571Y-116814285D01*
X99685714Y-116785714D01*
X99800000Y-116757142D01*
X99942857Y-116757142D01*
X100057143Y-116785714D01*
X100114286Y-116814285D01*
X100142857Y-116842856D01*
X100171429Y-116899999D01*
X100171429Y-116957142D01*
X100142857Y-117014285D01*
X100114286Y-117042856D01*
X100057143Y-117071428D01*
X99942857Y-117099999D01*
X99800000Y-117099999D01*
X99685714Y-117071428D01*
X99628571Y-117042856D01*
X99600000Y-117014285D01*
X99571429Y-116957142D01*
X41871429Y-131885715D02*
X41585714Y-132085715D01*
X41871429Y-132228572D02*
X41271429Y-132228572D01*
X41271429Y-132000000D01*
X41300000Y-131942858D01*
X41328571Y-131914286D01*
X41385714Y-131885715D01*
X41471429Y-131885715D01*
X41528571Y-131914286D01*
X41557143Y-131942858D01*
X41585714Y-132000000D01*
X41585714Y-132228572D01*
X41871429Y-131314286D02*
X41871429Y-131657143D01*
X41871429Y-131485715D02*
X41271429Y-131485715D01*
X41357143Y-131542858D01*
X41414286Y-131600000D01*
X41442857Y-131657143D01*
X41328571Y-131085714D02*
X41300000Y-131057143D01*
X41271429Y-131000000D01*
X41271429Y-130857143D01*
X41300000Y-130800000D01*
X41328571Y-130771429D01*
X41385714Y-130742857D01*
X41442857Y-130742857D01*
X41528571Y-130771429D01*
X41871429Y-131114286D01*
X41871429Y-130742857D01*
X45271429Y-131957143D02*
X45671429Y-131957143D01*
X45042857Y-132100000D02*
X45471429Y-132242857D01*
X45471429Y-131871429D01*
X45071429Y-131700000D02*
X45071429Y-131300000D01*
X45671429Y-131557143D01*
X45071429Y-130957142D02*
X45071429Y-130899999D01*
X45100000Y-130842856D01*
X45128571Y-130814285D01*
X45185714Y-130785714D01*
X45300000Y-130757142D01*
X45442857Y-130757142D01*
X45557143Y-130785714D01*
X45614286Y-130814285D01*
X45642857Y-130842856D01*
X45671429Y-130899999D01*
X45671429Y-130957142D01*
X45642857Y-131014285D01*
X45614286Y-131042856D01*
X45557143Y-131071428D01*
X45442857Y-131099999D01*
X45300000Y-131099999D01*
X45185714Y-131071428D01*
X45128571Y-131042856D01*
X45100000Y-131014285D01*
X45071429Y-130957142D01*
X85971429Y-136385715D02*
X85685714Y-136585715D01*
X85971429Y-136728572D02*
X85371429Y-136728572D01*
X85371429Y-136500000D01*
X85400000Y-136442858D01*
X85428571Y-136414286D01*
X85485714Y-136385715D01*
X85571429Y-136385715D01*
X85628571Y-136414286D01*
X85657143Y-136442858D01*
X85685714Y-136500000D01*
X85685714Y-136728572D01*
X85971429Y-135814286D02*
X85971429Y-136157143D01*
X85971429Y-135985715D02*
X85371429Y-135985715D01*
X85457143Y-136042858D01*
X85514286Y-136100000D01*
X85542857Y-136157143D01*
X85371429Y-135614286D02*
X85371429Y-135242857D01*
X85600000Y-135442857D01*
X85600000Y-135357143D01*
X85628571Y-135300000D01*
X85657143Y-135271429D01*
X85714286Y-135242857D01*
X85857143Y-135242857D01*
X85914286Y-135271429D01*
X85942857Y-135300000D01*
X85971429Y-135357143D01*
X85971429Y-135528571D01*
X85942857Y-135585714D01*
X85914286Y-135614286D01*
X89271429Y-136457143D02*
X89671429Y-136457143D01*
X89042857Y-136600000D02*
X89471429Y-136742857D01*
X89471429Y-136371429D01*
X89071429Y-136200000D02*
X89071429Y-135800000D01*
X89671429Y-136057143D01*
X89071429Y-135457142D02*
X89071429Y-135399999D01*
X89100000Y-135342856D01*
X89128571Y-135314285D01*
X89185714Y-135285714D01*
X89300000Y-135257142D01*
X89442857Y-135257142D01*
X89557143Y-135285714D01*
X89614286Y-135314285D01*
X89642857Y-135342856D01*
X89671429Y-135399999D01*
X89671429Y-135457142D01*
X89642857Y-135514285D01*
X89614286Y-135542856D01*
X89557143Y-135571428D01*
X89442857Y-135599999D01*
X89300000Y-135599999D01*
X89185714Y-135571428D01*
X89128571Y-135542856D01*
X89100000Y-135514285D01*
X89071429Y-135457142D01*
X85971429Y-133285715D02*
X85685714Y-133485715D01*
X85971429Y-133628572D02*
X85371429Y-133628572D01*
X85371429Y-133400000D01*
X85400000Y-133342858D01*
X85428571Y-133314286D01*
X85485714Y-133285715D01*
X85571429Y-133285715D01*
X85628571Y-133314286D01*
X85657143Y-133342858D01*
X85685714Y-133400000D01*
X85685714Y-133628572D01*
X85971429Y-132714286D02*
X85971429Y-133057143D01*
X85971429Y-132885715D02*
X85371429Y-132885715D01*
X85457143Y-132942858D01*
X85514286Y-133000000D01*
X85542857Y-133057143D01*
X85571429Y-132200000D02*
X85971429Y-132200000D01*
X85342857Y-132342857D02*
X85771429Y-132485714D01*
X85771429Y-132114286D01*
X89271429Y-133457143D02*
X89671429Y-133457143D01*
X89042857Y-133600000D02*
X89471429Y-133742857D01*
X89471429Y-133371429D01*
X89071429Y-133200000D02*
X89071429Y-132800000D01*
X89671429Y-133057143D01*
X89071429Y-132457142D02*
X89071429Y-132399999D01*
X89100000Y-132342856D01*
X89128571Y-132314285D01*
X89185714Y-132285714D01*
X89300000Y-132257142D01*
X89442857Y-132257142D01*
X89557143Y-132285714D01*
X89614286Y-132314285D01*
X89642857Y-132342856D01*
X89671429Y-132399999D01*
X89671429Y-132457142D01*
X89642857Y-132514285D01*
X89614286Y-132542856D01*
X89557143Y-132571428D01*
X89442857Y-132599999D01*
X89300000Y-132599999D01*
X89185714Y-132571428D01*
X89128571Y-132542856D01*
X89100000Y-132514285D01*
X89071429Y-132457142D01*
X73971429Y-117885715D02*
X73685714Y-118085715D01*
X73971429Y-118228572D02*
X73371429Y-118228572D01*
X73371429Y-118000000D01*
X73400000Y-117942858D01*
X73428571Y-117914286D01*
X73485714Y-117885715D01*
X73571429Y-117885715D01*
X73628571Y-117914286D01*
X73657143Y-117942858D01*
X73685714Y-118000000D01*
X73685714Y-118228572D01*
X73971429Y-117314286D02*
X73971429Y-117657143D01*
X73971429Y-117485715D02*
X73371429Y-117485715D01*
X73457143Y-117542858D01*
X73514286Y-117600000D01*
X73542857Y-117657143D01*
X73371429Y-116771429D02*
X73371429Y-117057143D01*
X73657143Y-117085714D01*
X73628571Y-117057143D01*
X73600000Y-117000000D01*
X73600000Y-116857143D01*
X73628571Y-116800000D01*
X73657143Y-116771429D01*
X73714286Y-116742857D01*
X73857143Y-116742857D01*
X73914286Y-116771429D01*
X73942857Y-116800000D01*
X73971429Y-116857143D01*
X73971429Y-117000000D01*
X73942857Y-117057143D01*
X73914286Y-117085714D01*
X77271429Y-117957143D02*
X77671429Y-117957143D01*
X77042857Y-118100000D02*
X77471429Y-118242857D01*
X77471429Y-117871429D01*
X77071429Y-117700000D02*
X77071429Y-117300000D01*
X77671429Y-117557143D01*
X77071429Y-116957142D02*
X77071429Y-116899999D01*
X77100000Y-116842856D01*
X77128571Y-116814285D01*
X77185714Y-116785714D01*
X77300000Y-116757142D01*
X77442857Y-116757142D01*
X77557143Y-116785714D01*
X77614286Y-116814285D01*
X77642857Y-116842856D01*
X77671429Y-116899999D01*
X77671429Y-116957142D01*
X77642857Y-117014285D01*
X77614286Y-117042856D01*
X77557143Y-117071428D01*
X77442857Y-117099999D01*
X77300000Y-117099999D01*
X77185714Y-117071428D01*
X77128571Y-117042856D01*
X77100000Y-117014285D01*
X77071429Y-116957142D01*
X53952381Y-114261905D02*
X54761905Y-114261905D01*
X54857143Y-114214286D01*
X54904762Y-114166667D01*
X54952381Y-114071429D01*
X54952381Y-113880952D01*
X54904762Y-113785714D01*
X54857143Y-113738095D01*
X54761905Y-113690476D01*
X53952381Y-113690476D01*
X53952381Y-113309524D02*
X53952381Y-112690476D01*
X54333333Y-113023810D01*
X54333333Y-112880952D01*
X54380952Y-112785714D01*
X54428571Y-112738095D01*
X54523810Y-112690476D01*
X54761905Y-112690476D01*
X54857143Y-112738095D01*
X54904762Y-112785714D01*
X54952381Y-112880952D01*
X54952381Y-113166667D01*
X54904762Y-113261905D01*
X54857143Y-113309524D01*
X95771429Y-148857143D02*
X96257143Y-148857143D01*
X96314286Y-148828571D01*
X96342857Y-148800000D01*
X96371429Y-148742857D01*
X96371429Y-148628571D01*
X96342857Y-148571429D01*
X96314286Y-148542857D01*
X96257143Y-148514286D01*
X95771429Y-148514286D01*
X95971429Y-147971429D02*
X96371429Y-147971429D01*
X95742857Y-148114286D02*
X96171429Y-148257143D01*
X96171429Y-147885715D01*
X91771429Y-114942857D02*
X91171429Y-114942857D01*
X91171429Y-114800000D01*
X91200000Y-114714285D01*
X91257143Y-114657143D01*
X91314286Y-114628571D01*
X91428571Y-114600000D01*
X91514286Y-114600000D01*
X91628571Y-114628571D01*
X91685714Y-114657143D01*
X91742857Y-114714285D01*
X91771429Y-114800000D01*
X91771429Y-114942857D01*
X91771429Y-114028571D02*
X91771429Y-114371428D01*
X91771429Y-114200000D02*
X91171429Y-114200000D01*
X91257143Y-114257143D01*
X91314286Y-114314285D01*
X91342857Y-114371428D01*
X96271429Y-114942857D02*
X95671429Y-114942857D01*
X95671429Y-114800000D01*
X95700000Y-114714285D01*
X95757143Y-114657143D01*
X95814286Y-114628571D01*
X95928571Y-114600000D01*
X96014286Y-114600000D01*
X96128571Y-114628571D01*
X96185714Y-114657143D01*
X96242857Y-114714285D01*
X96271429Y-114800000D01*
X96271429Y-114942857D01*
X95728571Y-114371428D02*
X95700000Y-114342857D01*
X95671429Y-114285714D01*
X95671429Y-114142857D01*
X95700000Y-114085714D01*
X95728571Y-114057143D01*
X95785714Y-114028571D01*
X95842857Y-114028571D01*
X95928571Y-114057143D01*
X96271429Y-114400000D01*
X96271429Y-114028571D01*
X81371429Y-136342857D02*
X80771429Y-136342857D01*
X80771429Y-136200000D01*
X80800000Y-136114285D01*
X80857143Y-136057143D01*
X80914286Y-136028571D01*
X81028571Y-136000000D01*
X81114286Y-136000000D01*
X81228571Y-136028571D01*
X81285714Y-136057143D01*
X81342857Y-136114285D01*
X81371429Y-136200000D01*
X81371429Y-136342857D01*
X80971429Y-135485714D02*
X81371429Y-135485714D01*
X80742857Y-135628571D02*
X81171429Y-135771428D01*
X81171429Y-135400000D01*
X81371429Y-133442857D02*
X80771429Y-133442857D01*
X80771429Y-133300000D01*
X80800000Y-133214285D01*
X80857143Y-133157143D01*
X80914286Y-133128571D01*
X81028571Y-133100000D01*
X81114286Y-133100000D01*
X81228571Y-133128571D01*
X81285714Y-133157143D01*
X81342857Y-133214285D01*
X81371429Y-133300000D01*
X81371429Y-133442857D01*
X80771429Y-132557143D02*
X80771429Y-132842857D01*
X81057143Y-132871428D01*
X81028571Y-132842857D01*
X81000000Y-132785714D01*
X81000000Y-132642857D01*
X81028571Y-132585714D01*
X81057143Y-132557143D01*
X81114286Y-132528571D01*
X81257143Y-132528571D01*
X81314286Y-132557143D01*
X81342857Y-132585714D01*
X81371429Y-132642857D01*
X81371429Y-132785714D01*
X81342857Y-132842857D01*
X81314286Y-132871428D01*
X73971429Y-114442857D02*
X73371429Y-114442857D01*
X73371429Y-114300000D01*
X73400000Y-114214285D01*
X73457143Y-114157143D01*
X73514286Y-114128571D01*
X73628571Y-114100000D01*
X73714286Y-114100000D01*
X73828571Y-114128571D01*
X73885714Y-114157143D01*
X73942857Y-114214285D01*
X73971429Y-114300000D01*
X73971429Y-114442857D01*
X73371429Y-113585714D02*
X73371429Y-113700000D01*
X73400000Y-113757143D01*
X73428571Y-113785714D01*
X73514286Y-113842857D01*
X73628571Y-113871428D01*
X73857143Y-113871428D01*
X73914286Y-113842857D01*
X73942857Y-113814285D01*
X73971429Y-113757143D01*
X73971429Y-113642857D01*
X73942857Y-113585714D01*
X73914286Y-113557143D01*
X73857143Y-113528571D01*
X73714286Y-113528571D01*
X73657143Y-113557143D01*
X73628571Y-113585714D01*
X73600000Y-113642857D01*
X73600000Y-113757143D01*
X73628571Y-113814285D01*
X73657143Y-113842857D01*
X73714286Y-113871428D01*
X47657143Y-127500000D02*
X47657143Y-127700000D01*
X47971429Y-127700000D02*
X47371429Y-127700000D01*
X47371429Y-127414286D01*
X47657143Y-126985714D02*
X47685714Y-126900000D01*
X47714286Y-126871428D01*
X47771429Y-126842857D01*
X47857143Y-126842857D01*
X47914286Y-126871428D01*
X47942857Y-126900000D01*
X47971429Y-126957142D01*
X47971429Y-127185714D01*
X47371429Y-127185714D01*
X47371429Y-126985714D01*
X47400000Y-126928571D01*
X47428571Y-126900000D01*
X47485714Y-126871428D01*
X47542857Y-126871428D01*
X47600000Y-126900000D01*
X47628571Y-126928571D01*
X47657143Y-126985714D01*
X47657143Y-127185714D01*
X47971429Y-126271428D02*
X47971429Y-126614285D01*
X47971429Y-126442857D02*
X47371429Y-126442857D01*
X47457143Y-126500000D01*
X47514286Y-126557142D01*
X47542857Y-126614285D01*
X51128571Y-127742857D02*
X51100000Y-127714286D01*
X51071429Y-127657143D01*
X51071429Y-127514286D01*
X51100000Y-127457143D01*
X51128571Y-127428572D01*
X51185714Y-127400000D01*
X51242857Y-127400000D01*
X51328571Y-127428572D01*
X51671429Y-127771429D01*
X51671429Y-127400000D01*
X51128571Y-127171428D02*
X51100000Y-127142857D01*
X51071429Y-127085714D01*
X51071429Y-126942857D01*
X51100000Y-126885714D01*
X51128571Y-126857143D01*
X51185714Y-126828571D01*
X51242857Y-126828571D01*
X51328571Y-126857143D01*
X51671429Y-127200000D01*
X51671429Y-126828571D01*
X51071429Y-126457142D02*
X51071429Y-126399999D01*
X51100000Y-126342856D01*
X51128571Y-126314285D01*
X51185714Y-126285714D01*
X51300000Y-126257142D01*
X51442857Y-126257142D01*
X51557143Y-126285714D01*
X51614286Y-126314285D01*
X51642857Y-126342856D01*
X51671429Y-126399999D01*
X51671429Y-126457142D01*
X51642857Y-126514285D01*
X51614286Y-126542856D01*
X51557143Y-126571428D01*
X51442857Y-126599999D01*
X51300000Y-126599999D01*
X51185714Y-126571428D01*
X51128571Y-126542856D01*
X51100000Y-126514285D01*
X51071429Y-126457142D01*
X77957143Y-125600000D02*
X77957143Y-125800000D01*
X78271429Y-125800000D02*
X77671429Y-125800000D01*
X77671429Y-125514286D01*
X77957143Y-125085714D02*
X77985714Y-125000000D01*
X78014286Y-124971428D01*
X78071429Y-124942857D01*
X78157143Y-124942857D01*
X78214286Y-124971428D01*
X78242857Y-125000000D01*
X78271429Y-125057142D01*
X78271429Y-125285714D01*
X77671429Y-125285714D01*
X77671429Y-125085714D01*
X77700000Y-125028571D01*
X77728571Y-125000000D01*
X77785714Y-124971428D01*
X77842857Y-124971428D01*
X77900000Y-125000000D01*
X77928571Y-125028571D01*
X77957143Y-125085714D01*
X77957143Y-125285714D01*
X77728571Y-124714285D02*
X77700000Y-124685714D01*
X77671429Y-124628571D01*
X77671429Y-124485714D01*
X77700000Y-124428571D01*
X77728571Y-124400000D01*
X77785714Y-124371428D01*
X77842857Y-124371428D01*
X77928571Y-124400000D01*
X78271429Y-124742857D01*
X78271429Y-124371428D01*
X81528571Y-125842857D02*
X81500000Y-125814286D01*
X81471429Y-125757143D01*
X81471429Y-125614286D01*
X81500000Y-125557143D01*
X81528571Y-125528572D01*
X81585714Y-125500000D01*
X81642857Y-125500000D01*
X81728571Y-125528572D01*
X82071429Y-125871429D01*
X82071429Y-125500000D01*
X81528571Y-125271428D02*
X81500000Y-125242857D01*
X81471429Y-125185714D01*
X81471429Y-125042857D01*
X81500000Y-124985714D01*
X81528571Y-124957143D01*
X81585714Y-124928571D01*
X81642857Y-124928571D01*
X81728571Y-124957143D01*
X82071429Y-125300000D01*
X82071429Y-124928571D01*
X81471429Y-124557142D02*
X81471429Y-124499999D01*
X81500000Y-124442856D01*
X81528571Y-124414285D01*
X81585714Y-124385714D01*
X81700000Y-124357142D01*
X81842857Y-124357142D01*
X81957143Y-124385714D01*
X82014286Y-124414285D01*
X82042857Y-124442856D01*
X82071429Y-124499999D01*
X82071429Y-124557142D01*
X82042857Y-124614285D01*
X82014286Y-124642856D01*
X81957143Y-124671428D01*
X81842857Y-124699999D01*
X81700000Y-124699999D01*
X81585714Y-124671428D01*
X81528571Y-124642856D01*
X81500000Y-124614285D01*
X81471429Y-124557142D01*
X61252381Y-127633333D02*
X61966667Y-127633333D01*
X62109524Y-127680953D01*
X62204762Y-127776191D01*
X62252381Y-127919048D01*
X62252381Y-128014286D01*
X62252381Y-126633333D02*
X62252381Y-127204762D01*
X62252381Y-126919048D02*
X61252381Y-126919048D01*
X61395238Y-127014286D01*
X61490476Y-127109524D01*
X61538095Y-127204762D01*
X52042857Y-153452381D02*
X52042857Y-152452381D01*
X52280952Y-152452381D01*
X52423810Y-152500000D01*
X52519048Y-152595238D01*
X52566667Y-152690476D01*
X52614286Y-152880952D01*
X52614286Y-153023810D01*
X52566667Y-153214286D01*
X52519048Y-153309524D01*
X52423810Y-153404762D01*
X52280952Y-153452381D01*
X52042857Y-153452381D01*
X53042857Y-153452381D02*
X53042857Y-152452381D01*
X53471428Y-153166667D02*
X53947619Y-153166667D01*
X53376190Y-153452381D02*
X53709523Y-152452381D01*
X54042857Y-153452381D01*
X54900000Y-152500000D02*
X54804762Y-152452381D01*
X54661905Y-152452381D01*
X54519047Y-152500000D01*
X54423809Y-152595238D01*
X54376190Y-152690476D01*
X54328571Y-152880952D01*
X54328571Y-153023810D01*
X54376190Y-153214286D01*
X54423809Y-153309524D01*
X54519047Y-153404762D01*
X54661905Y-153452381D01*
X54757143Y-153452381D01*
X54900000Y-153404762D01*
X54947619Y-153357143D01*
X54947619Y-153023810D01*
X54757143Y-153023810D01*
X56138095Y-153452381D02*
X56138095Y-152452381D01*
X56519048Y-152452381D01*
X56614286Y-152500000D01*
X56661905Y-152547619D01*
X56709524Y-152642857D01*
X56709524Y-152785714D01*
X56661905Y-152880952D01*
X56614286Y-152928571D01*
X56519048Y-152976190D01*
X56138095Y-152976190D01*
X57280952Y-153452381D02*
X57185714Y-153404762D01*
X57138095Y-153357143D01*
X57090476Y-153261905D01*
X57090476Y-152976190D01*
X57138095Y-152880952D01*
X57185714Y-152833333D01*
X57280952Y-152785714D01*
X57423810Y-152785714D01*
X57519048Y-152833333D01*
X57566667Y-152880952D01*
X57614286Y-152976190D01*
X57614286Y-153261905D01*
X57566667Y-153357143D01*
X57519048Y-153404762D01*
X57423810Y-153452381D01*
X57280952Y-153452381D01*
X58042857Y-153452381D02*
X58042857Y-152785714D01*
X58042857Y-152976190D02*
X58090476Y-152880952D01*
X58138095Y-152833333D01*
X58233333Y-152785714D01*
X58328572Y-152785714D01*
X58519048Y-152785714D02*
X58900000Y-152785714D01*
X58661905Y-152452381D02*
X58661905Y-153309524D01*
X58709524Y-153404762D01*
X58804762Y-153452381D01*
X58900000Y-153452381D01*
X64471429Y-144100000D02*
X64185714Y-144300000D01*
X64471429Y-144442857D02*
X63871429Y-144442857D01*
X63871429Y-144214285D01*
X63900000Y-144157143D01*
X63928571Y-144128571D01*
X63985714Y-144100000D01*
X64071429Y-144100000D01*
X64128571Y-144128571D01*
X64157143Y-144157143D01*
X64185714Y-144214285D01*
X64185714Y-144442857D01*
X64471429Y-143528571D02*
X64471429Y-143871428D01*
X64471429Y-143700000D02*
X63871429Y-143700000D01*
X63957143Y-143757143D01*
X64014286Y-143814285D01*
X64042857Y-143871428D01*
X67628571Y-144457143D02*
X67600000Y-144428572D01*
X67571429Y-144371429D01*
X67571429Y-144228572D01*
X67600000Y-144171429D01*
X67628571Y-144142858D01*
X67685714Y-144114286D01*
X67742857Y-144114286D01*
X67828571Y-144142858D01*
X68171429Y-144485715D01*
X68171429Y-144114286D01*
X67628571Y-143885714D02*
X67600000Y-143857143D01*
X67571429Y-143800000D01*
X67571429Y-143657143D01*
X67600000Y-143600000D01*
X67628571Y-143571429D01*
X67685714Y-143542857D01*
X67742857Y-143542857D01*
X67828571Y-143571429D01*
X68171429Y-143914286D01*
X68171429Y-143542857D01*
X61471429Y-129600000D02*
X61185714Y-129800000D01*
X61471429Y-129942857D02*
X60871429Y-129942857D01*
X60871429Y-129714285D01*
X60900000Y-129657143D01*
X60928571Y-129628571D01*
X60985714Y-129600000D01*
X61071429Y-129600000D01*
X61128571Y-129628571D01*
X61157143Y-129657143D01*
X61185714Y-129714285D01*
X61185714Y-129942857D01*
X60928571Y-129371428D02*
X60900000Y-129342857D01*
X60871429Y-129285714D01*
X60871429Y-129142857D01*
X60900000Y-129085714D01*
X60928571Y-129057143D01*
X60985714Y-129028571D01*
X61042857Y-129028571D01*
X61128571Y-129057143D01*
X61471429Y-129400000D01*
X61471429Y-129028571D01*
X64628571Y-129957143D02*
X64600000Y-129928572D01*
X64571429Y-129871429D01*
X64571429Y-129728572D01*
X64600000Y-129671429D01*
X64628571Y-129642858D01*
X64685714Y-129614286D01*
X64742857Y-129614286D01*
X64828571Y-129642858D01*
X65171429Y-129985715D01*
X65171429Y-129614286D01*
X64628571Y-129385714D02*
X64600000Y-129357143D01*
X64571429Y-129300000D01*
X64571429Y-129157143D01*
X64600000Y-129100000D01*
X64628571Y-129071429D01*
X64685714Y-129042857D01*
X64742857Y-129042857D01*
X64828571Y-129071429D01*
X65171429Y-129414286D01*
X65171429Y-129042857D01*
X59971429Y-141600000D02*
X59685714Y-141800000D01*
X59971429Y-141942857D02*
X59371429Y-141942857D01*
X59371429Y-141714285D01*
X59400000Y-141657143D01*
X59428571Y-141628571D01*
X59485714Y-141600000D01*
X59571429Y-141600000D01*
X59628571Y-141628571D01*
X59657143Y-141657143D01*
X59685714Y-141714285D01*
X59685714Y-141942857D01*
X59371429Y-141400000D02*
X59371429Y-141028571D01*
X59600000Y-141228571D01*
X59600000Y-141142857D01*
X59628571Y-141085714D01*
X59657143Y-141057143D01*
X59714286Y-141028571D01*
X59857143Y-141028571D01*
X59914286Y-141057143D01*
X59942857Y-141085714D01*
X59971429Y-141142857D01*
X59971429Y-141314285D01*
X59942857Y-141371428D01*
X59914286Y-141400000D01*
X63028571Y-141957143D02*
X63000000Y-141928572D01*
X62971429Y-141871429D01*
X62971429Y-141728572D01*
X63000000Y-141671429D01*
X63028571Y-141642858D01*
X63085714Y-141614286D01*
X63142857Y-141614286D01*
X63228571Y-141642858D01*
X63571429Y-141985715D01*
X63571429Y-141614286D01*
X63028571Y-141385714D02*
X63000000Y-141357143D01*
X62971429Y-141300000D01*
X62971429Y-141157143D01*
X63000000Y-141100000D01*
X63028571Y-141071429D01*
X63085714Y-141042857D01*
X63142857Y-141042857D01*
X63228571Y-141071429D01*
X63571429Y-141414286D01*
X63571429Y-141042857D01*
X64671429Y-146600000D02*
X64385714Y-146800000D01*
X64671429Y-146942857D02*
X64071429Y-146942857D01*
X64071429Y-146714285D01*
X64100000Y-146657143D01*
X64128571Y-146628571D01*
X64185714Y-146600000D01*
X64271429Y-146600000D01*
X64328571Y-146628571D01*
X64357143Y-146657143D01*
X64385714Y-146714285D01*
X64385714Y-146942857D01*
X64271429Y-146085714D02*
X64671429Y-146085714D01*
X64042857Y-146228571D02*
X64471429Y-146371428D01*
X64471429Y-146000000D01*
X67871429Y-147257143D02*
X67271429Y-147257143D01*
X67271429Y-147114286D01*
X67300000Y-147028571D01*
X67357143Y-146971429D01*
X67414286Y-146942857D01*
X67528571Y-146914286D01*
X67614286Y-146914286D01*
X67728571Y-146942857D01*
X67785714Y-146971429D01*
X67842857Y-147028571D01*
X67871429Y-147114286D01*
X67871429Y-147257143D01*
X67871429Y-146657143D02*
X67271429Y-146657143D01*
X67871429Y-146314286D01*
X67271429Y-146314286D01*
X67842857Y-146057143D02*
X67871429Y-145971429D01*
X67871429Y-145828572D01*
X67842857Y-145771429D01*
X67814286Y-145742858D01*
X67757143Y-145714286D01*
X67700000Y-145714286D01*
X67642857Y-145742858D01*
X67614286Y-145771429D01*
X67585714Y-145828572D01*
X67557143Y-145942858D01*
X67528571Y-146000000D01*
X67500000Y-146028572D01*
X67442857Y-146057143D01*
X67385714Y-146057143D01*
X67328571Y-146028572D01*
X67300000Y-146000000D01*
X67271429Y-145942858D01*
X67271429Y-145800000D01*
X67300000Y-145714286D01*
X60071429Y-144100000D02*
X59785714Y-144300000D01*
X60071429Y-144442857D02*
X59471429Y-144442857D01*
X59471429Y-144214285D01*
X59500000Y-144157143D01*
X59528571Y-144128571D01*
X59585714Y-144100000D01*
X59671429Y-144100000D01*
X59728571Y-144128571D01*
X59757143Y-144157143D01*
X59785714Y-144214285D01*
X59785714Y-144442857D01*
X59471429Y-143557143D02*
X59471429Y-143842857D01*
X59757143Y-143871428D01*
X59728571Y-143842857D01*
X59700000Y-143785714D01*
X59700000Y-143642857D01*
X59728571Y-143585714D01*
X59757143Y-143557143D01*
X59814286Y-143528571D01*
X59957143Y-143528571D01*
X60014286Y-143557143D01*
X60042857Y-143585714D01*
X60071429Y-143642857D01*
X60071429Y-143785714D01*
X60042857Y-143842857D01*
X60014286Y-143871428D01*
X63471429Y-144757143D02*
X62871429Y-144757143D01*
X62871429Y-144614286D01*
X62900000Y-144528571D01*
X62957143Y-144471429D01*
X63014286Y-144442857D01*
X63128571Y-144414286D01*
X63214286Y-144414286D01*
X63328571Y-144442857D01*
X63385714Y-144471429D01*
X63442857Y-144528571D01*
X63471429Y-144614286D01*
X63471429Y-144757143D01*
X63471429Y-144157143D02*
X62871429Y-144157143D01*
X63471429Y-143814286D01*
X62871429Y-143814286D01*
X63442857Y-143557143D02*
X63471429Y-143471429D01*
X63471429Y-143328572D01*
X63442857Y-143271429D01*
X63414286Y-143242858D01*
X63357143Y-143214286D01*
X63300000Y-143214286D01*
X63242857Y-143242858D01*
X63214286Y-143271429D01*
X63185714Y-143328572D01*
X63157143Y-143442858D01*
X63128571Y-143500000D01*
X63100000Y-143528572D01*
X63042857Y-143557143D01*
X62985714Y-143557143D01*
X62928571Y-143528572D01*
X62900000Y-143500000D01*
X62871429Y-143442858D01*
X62871429Y-143300000D01*
X62900000Y-143214286D01*
X78452381Y-132261905D02*
X79261905Y-132261905D01*
X79357143Y-132214286D01*
X79404762Y-132166667D01*
X79452381Y-132071429D01*
X79452381Y-131880952D01*
X79404762Y-131785714D01*
X79357143Y-131738095D01*
X79261905Y-131690476D01*
X78452381Y-131690476D01*
X79452381Y-130690476D02*
X79452381Y-131261905D01*
X79452381Y-130976191D02*
X78452381Y-130976191D01*
X78595238Y-131071429D01*
X78690476Y-131166667D01*
X78738095Y-131261905D01*
X90452381Y-129761905D02*
X91261905Y-129761905D01*
X91357143Y-129714286D01*
X91404762Y-129666667D01*
X91452381Y-129571429D01*
X91452381Y-129380952D01*
X91404762Y-129285714D01*
X91357143Y-129238095D01*
X91261905Y-129190476D01*
X90452381Y-129190476D01*
X90547619Y-128761905D02*
X90500000Y-128714286D01*
X90452381Y-128619048D01*
X90452381Y-128380952D01*
X90500000Y-128285714D01*
X90547619Y-128238095D01*
X90642857Y-128190476D01*
X90738095Y-128190476D01*
X90880952Y-128238095D01*
X91452381Y-128809524D01*
X91452381Y-128190476D01*
X48738095Y-135452381D02*
X48738095Y-136261905D01*
X48785714Y-136357143D01*
X48833333Y-136404762D01*
X48928571Y-136452381D01*
X49119048Y-136452381D01*
X49214286Y-136404762D01*
X49261905Y-136357143D01*
X49309524Y-136261905D01*
X49309524Y-135452381D01*
X50261905Y-135452381D02*
X49785714Y-135452381D01*
X49738095Y-135928571D01*
X49785714Y-135880952D01*
X49880952Y-135833333D01*
X50119048Y-135833333D01*
X50214286Y-135880952D01*
X50261905Y-135928571D01*
X50309524Y-136023810D01*
X50309524Y-136261905D01*
X50261905Y-136357143D01*
X50214286Y-136404762D01*
X50119048Y-136452381D01*
X49880952Y-136452381D01*
X49785714Y-136404762D01*
X49738095Y-136357143D01*
X99652381Y-136561905D02*
X100461905Y-136561905D01*
X100557143Y-136514286D01*
X100604762Y-136466667D01*
X100652381Y-136371429D01*
X100652381Y-136180952D01*
X100604762Y-136085714D01*
X100557143Y-136038095D01*
X100461905Y-135990476D01*
X99652381Y-135990476D01*
X99652381Y-135085714D02*
X99652381Y-135276191D01*
X99700000Y-135371429D01*
X99747619Y-135419048D01*
X99890476Y-135514286D01*
X100080952Y-135561905D01*
X100461905Y-135561905D01*
X100557143Y-135514286D01*
X100604762Y-135466667D01*
X100652381Y-135371429D01*
X100652381Y-135180952D01*
X100604762Y-135085714D01*
X100557143Y-135038095D01*
X100461905Y-134990476D01*
X100223810Y-134990476D01*
X100128571Y-135038095D01*
X100080952Y-135085714D01*
X100033333Y-135180952D01*
X100033333Y-135371429D01*
X100080952Y-135466667D01*
X100128571Y-135514286D01*
X100223810Y-135561905D01*
X64871429Y-134685715D02*
X65471429Y-134285715D01*
X64871429Y-134285715D02*
X65471429Y-134685715D01*
X65471429Y-133742857D02*
X65471429Y-134085714D01*
X65471429Y-133914286D02*
X64871429Y-133914286D01*
X64957143Y-133971429D01*
X65014286Y-134028571D01*
X65042857Y-134085714D01*
X91200000Y-150742857D02*
X91285714Y-150771429D01*
X91428571Y-150771429D01*
X91485714Y-150742857D01*
X91514285Y-150714286D01*
X91542857Y-150657143D01*
X91542857Y-150600000D01*
X91514285Y-150542857D01*
X91485714Y-150514286D01*
X91428571Y-150485714D01*
X91314285Y-150457143D01*
X91257143Y-150428571D01*
X91228571Y-150400000D01*
X91200000Y-150342857D01*
X91200000Y-150285714D01*
X91228571Y-150228571D01*
X91257143Y-150200000D01*
X91314285Y-150171429D01*
X91457143Y-150171429D01*
X91542857Y-150200000D01*
X91742857Y-150171429D02*
X91885714Y-150771429D01*
X92000000Y-150342857D01*
X92114286Y-150771429D01*
X92257143Y-150171429D01*
X92800000Y-150771429D02*
X92457143Y-150771429D01*
X92628571Y-150771429D02*
X92628571Y-150171429D01*
X92571428Y-150257143D01*
X92514286Y-150314286D01*
X92457143Y-150342857D01*
X69414286Y-129885715D02*
X69442857Y-129914286D01*
X69471429Y-130000000D01*
X69471429Y-130057143D01*
X69442857Y-130142858D01*
X69385714Y-130200000D01*
X69328571Y-130228572D01*
X69214286Y-130257143D01*
X69128571Y-130257143D01*
X69014286Y-130228572D01*
X68957143Y-130200000D01*
X68900000Y-130142858D01*
X68871429Y-130057143D01*
X68871429Y-130000000D01*
X68900000Y-129914286D01*
X68928571Y-129885715D01*
X69471429Y-129314286D02*
X69471429Y-129657143D01*
X69471429Y-129485715D02*
X68871429Y-129485715D01*
X68957143Y-129542858D01*
X69014286Y-129600000D01*
X69042857Y-129657143D01*
X68871429Y-129114286D02*
X68871429Y-128742857D01*
X69100000Y-128942857D01*
X69100000Y-128857143D01*
X69128571Y-128800000D01*
X69157143Y-128771429D01*
X69214286Y-128742857D01*
X69357143Y-128742857D01*
X69414286Y-128771429D01*
X69442857Y-128800000D01*
X69471429Y-128857143D01*
X69471429Y-129028571D01*
X69442857Y-129085714D01*
X69414286Y-129114286D01*
X73071429Y-130214286D02*
X73071429Y-130557143D01*
X73071429Y-130385715D02*
X72471429Y-130385715D01*
X72557143Y-130442858D01*
X72614286Y-130500000D01*
X72642857Y-130557143D01*
X72471429Y-129842857D02*
X72471429Y-129785714D01*
X72500000Y-129728571D01*
X72528571Y-129700000D01*
X72585714Y-129671429D01*
X72700000Y-129642857D01*
X72842857Y-129642857D01*
X72957143Y-129671429D01*
X73014286Y-129700000D01*
X73042857Y-129728571D01*
X73071429Y-129785714D01*
X73071429Y-129842857D01*
X73042857Y-129900000D01*
X73014286Y-129928571D01*
X72957143Y-129957143D01*
X72842857Y-129985714D01*
X72700000Y-129985714D01*
X72585714Y-129957143D01*
X72528571Y-129928571D01*
X72500000Y-129900000D01*
X72471429Y-129842857D01*
X72471429Y-129271428D02*
X72471429Y-129214285D01*
X72500000Y-129157142D01*
X72528571Y-129128571D01*
X72585714Y-129100000D01*
X72700000Y-129071428D01*
X72842857Y-129071428D01*
X72957143Y-129100000D01*
X73014286Y-129128571D01*
X73042857Y-129157142D01*
X73071429Y-129214285D01*
X73071429Y-129271428D01*
X73042857Y-129328571D01*
X73014286Y-129357142D01*
X72957143Y-129385714D01*
X72842857Y-129414285D01*
X72700000Y-129414285D01*
X72585714Y-129385714D01*
X72528571Y-129357142D01*
X72500000Y-129328571D01*
X72471429Y-129271428D01*
X73071429Y-128814285D02*
X72471429Y-128814285D01*
X73071429Y-128471428D01*
X72471429Y-128471428D01*
X51414286Y-130385715D02*
X51442857Y-130414286D01*
X51471429Y-130500000D01*
X51471429Y-130557143D01*
X51442857Y-130642858D01*
X51385714Y-130700000D01*
X51328571Y-130728572D01*
X51214286Y-130757143D01*
X51128571Y-130757143D01*
X51014286Y-130728572D01*
X50957143Y-130700000D01*
X50900000Y-130642858D01*
X50871429Y-130557143D01*
X50871429Y-130500000D01*
X50900000Y-130414286D01*
X50928571Y-130385715D01*
X51471429Y-129814286D02*
X51471429Y-130157143D01*
X51471429Y-129985715D02*
X50871429Y-129985715D01*
X50957143Y-130042858D01*
X51014286Y-130100000D01*
X51042857Y-130157143D01*
X51071429Y-129300000D02*
X51471429Y-129300000D01*
X50842857Y-129442857D02*
X51271429Y-129585714D01*
X51271429Y-129214286D01*
X55171429Y-130714286D02*
X55171429Y-131057143D01*
X55171429Y-130885715D02*
X54571429Y-130885715D01*
X54657143Y-130942858D01*
X54714286Y-131000000D01*
X54742857Y-131057143D01*
X54571429Y-130342857D02*
X54571429Y-130285714D01*
X54600000Y-130228571D01*
X54628571Y-130200000D01*
X54685714Y-130171429D01*
X54800000Y-130142857D01*
X54942857Y-130142857D01*
X55057143Y-130171429D01*
X55114286Y-130200000D01*
X55142857Y-130228571D01*
X55171429Y-130285714D01*
X55171429Y-130342857D01*
X55142857Y-130400000D01*
X55114286Y-130428571D01*
X55057143Y-130457143D01*
X54942857Y-130485714D01*
X54800000Y-130485714D01*
X54685714Y-130457143D01*
X54628571Y-130428571D01*
X54600000Y-130400000D01*
X54571429Y-130342857D01*
X54571429Y-129771428D02*
X54571429Y-129714285D01*
X54600000Y-129657142D01*
X54628571Y-129628571D01*
X54685714Y-129600000D01*
X54800000Y-129571428D01*
X54942857Y-129571428D01*
X55057143Y-129600000D01*
X55114286Y-129628571D01*
X55142857Y-129657142D01*
X55171429Y-129714285D01*
X55171429Y-129771428D01*
X55142857Y-129828571D01*
X55114286Y-129857142D01*
X55057143Y-129885714D01*
X54942857Y-129914285D01*
X54800000Y-129914285D01*
X54685714Y-129885714D01*
X54628571Y-129857142D01*
X54600000Y-129828571D01*
X54571429Y-129771428D01*
X55171429Y-129314285D02*
X54571429Y-129314285D01*
X55171429Y-128971428D01*
X54571429Y-128971428D01*
X50471429Y-148885715D02*
X50185714Y-149085715D01*
X50471429Y-149228572D02*
X49871429Y-149228572D01*
X49871429Y-149000000D01*
X49900000Y-148942858D01*
X49928571Y-148914286D01*
X49985714Y-148885715D01*
X50071429Y-148885715D01*
X50128571Y-148914286D01*
X50157143Y-148942858D01*
X50185714Y-149000000D01*
X50185714Y-149228572D01*
X50471429Y-148314286D02*
X50471429Y-148657143D01*
X50471429Y-148485715D02*
X49871429Y-148485715D01*
X49957143Y-148542858D01*
X50014286Y-148600000D01*
X50042857Y-148657143D01*
X49871429Y-147800000D02*
X49871429Y-147914286D01*
X49900000Y-147971429D01*
X49928571Y-148000000D01*
X50014286Y-148057143D01*
X50128571Y-148085714D01*
X50357143Y-148085714D01*
X50414286Y-148057143D01*
X50442857Y-148028571D01*
X50471429Y-147971429D01*
X50471429Y-147857143D01*
X50442857Y-147800000D01*
X50414286Y-147771429D01*
X50357143Y-147742857D01*
X50214286Y-147742857D01*
X50157143Y-147771429D01*
X50128571Y-147800000D01*
X50100000Y-147857143D01*
X50100000Y-147971429D01*
X50128571Y-148028571D01*
X50157143Y-148057143D01*
X50214286Y-148085714D01*
X53871429Y-148528571D02*
X53871429Y-148471428D01*
X53900000Y-148414285D01*
X53928571Y-148385714D01*
X53985714Y-148357143D01*
X54100000Y-148328571D01*
X54242857Y-148328571D01*
X54357143Y-148357143D01*
X54414286Y-148385714D01*
X54442857Y-148414285D01*
X54471429Y-148471428D01*
X54471429Y-148528571D01*
X54442857Y-148585714D01*
X54414286Y-148614285D01*
X54357143Y-148642857D01*
X54242857Y-148671428D01*
X54100000Y-148671428D01*
X53985714Y-148642857D01*
X53928571Y-148614285D01*
X53900000Y-148585714D01*
X53871429Y-148528571D01*
X91971429Y-148885715D02*
X91685714Y-149085715D01*
X91971429Y-149228572D02*
X91371429Y-149228572D01*
X91371429Y-149000000D01*
X91400000Y-148942858D01*
X91428571Y-148914286D01*
X91485714Y-148885715D01*
X91571429Y-148885715D01*
X91628571Y-148914286D01*
X91657143Y-148942858D01*
X91685714Y-149000000D01*
X91685714Y-149228572D01*
X91971429Y-148314286D02*
X91971429Y-148657143D01*
X91971429Y-148485715D02*
X91371429Y-148485715D01*
X91457143Y-148542858D01*
X91514286Y-148600000D01*
X91542857Y-148657143D01*
X91371429Y-148114286D02*
X91371429Y-147714286D01*
X91971429Y-147971429D01*
X94971429Y-148528571D02*
X94971429Y-148471428D01*
X95000000Y-148414285D01*
X95028571Y-148385714D01*
X95085714Y-148357143D01*
X95200000Y-148328571D01*
X95342857Y-148328571D01*
X95457143Y-148357143D01*
X95514286Y-148385714D01*
X95542857Y-148414285D01*
X95571429Y-148471428D01*
X95571429Y-148528571D01*
X95542857Y-148585714D01*
X95514286Y-148614285D01*
X95457143Y-148642857D01*
X95342857Y-148671428D01*
X95200000Y-148671428D01*
X95085714Y-148642857D01*
X95028571Y-148614285D01*
X95000000Y-148585714D01*
X94971429Y-148528571D01*
X50471429Y-151385715D02*
X50185714Y-151585715D01*
X50471429Y-151728572D02*
X49871429Y-151728572D01*
X49871429Y-151500000D01*
X49900000Y-151442858D01*
X49928571Y-151414286D01*
X49985714Y-151385715D01*
X50071429Y-151385715D01*
X50128571Y-151414286D01*
X50157143Y-151442858D01*
X50185714Y-151500000D01*
X50185714Y-151728572D01*
X50471429Y-150814286D02*
X50471429Y-151157143D01*
X50471429Y-150985715D02*
X49871429Y-150985715D01*
X49957143Y-151042858D01*
X50014286Y-151100000D01*
X50042857Y-151157143D01*
X50128571Y-150471429D02*
X50100000Y-150528571D01*
X50071429Y-150557143D01*
X50014286Y-150585714D01*
X49985714Y-150585714D01*
X49928571Y-150557143D01*
X49900000Y-150528571D01*
X49871429Y-150471429D01*
X49871429Y-150357143D01*
X49900000Y-150300000D01*
X49928571Y-150271429D01*
X49985714Y-150242857D01*
X50014286Y-150242857D01*
X50071429Y-150271429D01*
X50100000Y-150300000D01*
X50128571Y-150357143D01*
X50128571Y-150471429D01*
X50157143Y-150528571D01*
X50185714Y-150557143D01*
X50242857Y-150585714D01*
X50357143Y-150585714D01*
X50414286Y-150557143D01*
X50442857Y-150528571D01*
X50471429Y-150471429D01*
X50471429Y-150357143D01*
X50442857Y-150300000D01*
X50414286Y-150271429D01*
X50357143Y-150242857D01*
X50242857Y-150242857D01*
X50185714Y-150271429D01*
X50157143Y-150300000D01*
X50128571Y-150357143D01*
X53471429Y-151028571D02*
X53471429Y-150971428D01*
X53500000Y-150914285D01*
X53528571Y-150885714D01*
X53585714Y-150857143D01*
X53700000Y-150828571D01*
X53842857Y-150828571D01*
X53957143Y-150857143D01*
X54014286Y-150885714D01*
X54042857Y-150914285D01*
X54071429Y-150971428D01*
X54071429Y-151028571D01*
X54042857Y-151085714D01*
X54014286Y-151114285D01*
X53957143Y-151142857D01*
X53842857Y-151171428D01*
X53700000Y-151171428D01*
X53585714Y-151142857D01*
X53528571Y-151114285D01*
X53500000Y-151085714D01*
X53471429Y-151028571D01*
X91971429Y-146385715D02*
X91685714Y-146585715D01*
X91971429Y-146728572D02*
X91371429Y-146728572D01*
X91371429Y-146500000D01*
X91400000Y-146442858D01*
X91428571Y-146414286D01*
X91485714Y-146385715D01*
X91571429Y-146385715D01*
X91628571Y-146414286D01*
X91657143Y-146442858D01*
X91685714Y-146500000D01*
X91685714Y-146728572D01*
X91971429Y-145814286D02*
X91971429Y-146157143D01*
X91971429Y-145985715D02*
X91371429Y-145985715D01*
X91457143Y-146042858D01*
X91514286Y-146100000D01*
X91542857Y-146157143D01*
X91971429Y-145528571D02*
X91971429Y-145414286D01*
X91942857Y-145357143D01*
X91914286Y-145328571D01*
X91828571Y-145271429D01*
X91714286Y-145242857D01*
X91485714Y-145242857D01*
X91428571Y-145271429D01*
X91400000Y-145300000D01*
X91371429Y-145357143D01*
X91371429Y-145471429D01*
X91400000Y-145528571D01*
X91428571Y-145557143D01*
X91485714Y-145585714D01*
X91628571Y-145585714D01*
X91685714Y-145557143D01*
X91714286Y-145528571D01*
X91742857Y-145471429D01*
X91742857Y-145357143D01*
X91714286Y-145300000D01*
X91685714Y-145271429D01*
X91628571Y-145242857D01*
X94971429Y-146028571D02*
X94971429Y-145971428D01*
X95000000Y-145914285D01*
X95028571Y-145885714D01*
X95085714Y-145857143D01*
X95200000Y-145828571D01*
X95342857Y-145828571D01*
X95457143Y-145857143D01*
X95514286Y-145885714D01*
X95542857Y-145914285D01*
X95571429Y-145971428D01*
X95571429Y-146028571D01*
X95542857Y-146085714D01*
X95514286Y-146114285D01*
X95457143Y-146142857D01*
X95342857Y-146171428D01*
X95200000Y-146171428D01*
X95085714Y-146142857D01*
X95028571Y-146114285D01*
X95000000Y-146085714D01*
X94971429Y-146028571D01*
X48200000Y-132242857D02*
X48285714Y-132271429D01*
X48428571Y-132271429D01*
X48485714Y-132242857D01*
X48514285Y-132214286D01*
X48542857Y-132157143D01*
X48542857Y-132100000D01*
X48514285Y-132042857D01*
X48485714Y-132014286D01*
X48428571Y-131985714D01*
X48314285Y-131957143D01*
X48257143Y-131928571D01*
X48228571Y-131900000D01*
X48200000Y-131842857D01*
X48200000Y-131785714D01*
X48228571Y-131728571D01*
X48257143Y-131700000D01*
X48314285Y-131671429D01*
X48457143Y-131671429D01*
X48542857Y-131700000D01*
X48742857Y-131671429D02*
X48885714Y-132271429D01*
X49000000Y-131842857D01*
X49114286Y-132271429D01*
X49257143Y-131671429D01*
X49457143Y-131728571D02*
X49485714Y-131700000D01*
X49542857Y-131671429D01*
X49685714Y-131671429D01*
X49742857Y-131700000D01*
X49771428Y-131728571D01*
X49800000Y-131785714D01*
X49800000Y-131842857D01*
X49771428Y-131928571D01*
X49428571Y-132271429D01*
X49800000Y-132271429D01*
X90700000Y-131342857D02*
X90785714Y-131371429D01*
X90928571Y-131371429D01*
X90985714Y-131342857D01*
X91014285Y-131314286D01*
X91042857Y-131257143D01*
X91042857Y-131200000D01*
X91014285Y-131142857D01*
X90985714Y-131114286D01*
X90928571Y-131085714D01*
X90814285Y-131057143D01*
X90757143Y-131028571D01*
X90728571Y-131000000D01*
X90700000Y-130942857D01*
X90700000Y-130885714D01*
X90728571Y-130828571D01*
X90757143Y-130800000D01*
X90814285Y-130771429D01*
X90957143Y-130771429D01*
X91042857Y-130800000D01*
X91242857Y-130771429D02*
X91385714Y-131371429D01*
X91500000Y-130942857D01*
X91614286Y-131371429D01*
X91757143Y-130771429D01*
X91928571Y-130771429D02*
X92300000Y-130771429D01*
X92100000Y-131000000D01*
X92185714Y-131000000D01*
X92242857Y-131028571D01*
X92271428Y-131057143D01*
X92300000Y-131114286D01*
X92300000Y-131257143D01*
X92271428Y-131314286D01*
X92242857Y-131342857D01*
X92185714Y-131371429D01*
X92014286Y-131371429D01*
X91957143Y-131342857D01*
X91928571Y-131314286D01*
X46971429Y-130385715D02*
X46685714Y-130585715D01*
X46971429Y-130728572D02*
X46371429Y-130728572D01*
X46371429Y-130500000D01*
X46400000Y-130442858D01*
X46428571Y-130414286D01*
X46485714Y-130385715D01*
X46571429Y-130385715D01*
X46628571Y-130414286D01*
X46657143Y-130442858D01*
X46685714Y-130500000D01*
X46685714Y-130728572D01*
X46428571Y-130157143D02*
X46400000Y-130128572D01*
X46371429Y-130071429D01*
X46371429Y-129928572D01*
X46400000Y-129871429D01*
X46428571Y-129842858D01*
X46485714Y-129814286D01*
X46542857Y-129814286D01*
X46628571Y-129842858D01*
X46971429Y-130185715D01*
X46971429Y-129814286D01*
X46371429Y-129442857D02*
X46371429Y-129385714D01*
X46400000Y-129328571D01*
X46428571Y-129300000D01*
X46485714Y-129271429D01*
X46600000Y-129242857D01*
X46742857Y-129242857D01*
X46857143Y-129271429D01*
X46914286Y-129300000D01*
X46942857Y-129328571D01*
X46971429Y-129385714D01*
X46971429Y-129442857D01*
X46942857Y-129500000D01*
X46914286Y-129528571D01*
X46857143Y-129557143D01*
X46742857Y-129585714D01*
X46600000Y-129585714D01*
X46485714Y-129557143D01*
X46428571Y-129528571D01*
X46400000Y-129500000D01*
X46371429Y-129442857D01*
X50571429Y-130300000D02*
X50571429Y-130642857D01*
X50571429Y-130471429D02*
X49971429Y-130471429D01*
X50057143Y-130528572D01*
X50114286Y-130585714D01*
X50142857Y-130642857D01*
X50028571Y-130071428D02*
X50000000Y-130042857D01*
X49971429Y-129985714D01*
X49971429Y-129842857D01*
X50000000Y-129785714D01*
X50028571Y-129757143D01*
X50085714Y-129728571D01*
X50142857Y-129728571D01*
X50228571Y-129757143D01*
X50571429Y-130100000D01*
X50571429Y-129728571D01*
X49971429Y-129357142D02*
X49971429Y-129299999D01*
X50000000Y-129242856D01*
X50028571Y-129214285D01*
X50085714Y-129185714D01*
X50200000Y-129157142D01*
X50342857Y-129157142D01*
X50457143Y-129185714D01*
X50514286Y-129214285D01*
X50542857Y-129242856D01*
X50571429Y-129299999D01*
X50571429Y-129357142D01*
X50542857Y-129414285D01*
X50514286Y-129442856D01*
X50457143Y-129471428D01*
X50342857Y-129499999D01*
X50200000Y-129499999D01*
X50085714Y-129471428D01*
X50028571Y-129442856D01*
X50000000Y-129414285D01*
X49971429Y-129357142D01*
X103471429Y-132785715D02*
X103185714Y-132985715D01*
X103471429Y-133128572D02*
X102871429Y-133128572D01*
X102871429Y-132900000D01*
X102900000Y-132842858D01*
X102928571Y-132814286D01*
X102985714Y-132785715D01*
X103071429Y-132785715D01*
X103128571Y-132814286D01*
X103157143Y-132842858D01*
X103185714Y-132900000D01*
X103185714Y-133128572D01*
X102928571Y-132557143D02*
X102900000Y-132528572D01*
X102871429Y-132471429D01*
X102871429Y-132328572D01*
X102900000Y-132271429D01*
X102928571Y-132242858D01*
X102985714Y-132214286D01*
X103042857Y-132214286D01*
X103128571Y-132242858D01*
X103471429Y-132585715D01*
X103471429Y-132214286D01*
X103471429Y-131642857D02*
X103471429Y-131985714D01*
X103471429Y-131814286D02*
X102871429Y-131814286D01*
X102957143Y-131871429D01*
X103014286Y-131928571D01*
X103042857Y-131985714D01*
X107171429Y-132900000D02*
X107171429Y-133242857D01*
X107171429Y-133071429D02*
X106571429Y-133071429D01*
X106657143Y-133128572D01*
X106714286Y-133185714D01*
X106742857Y-133242857D01*
X106628571Y-132671428D02*
X106600000Y-132642857D01*
X106571429Y-132585714D01*
X106571429Y-132442857D01*
X106600000Y-132385714D01*
X106628571Y-132357143D01*
X106685714Y-132328571D01*
X106742857Y-132328571D01*
X106828571Y-132357143D01*
X107171429Y-132700000D01*
X107171429Y-132328571D01*
X106571429Y-131957142D02*
X106571429Y-131899999D01*
X106600000Y-131842856D01*
X106628571Y-131814285D01*
X106685714Y-131785714D01*
X106800000Y-131757142D01*
X106942857Y-131757142D01*
X107057143Y-131785714D01*
X107114286Y-131814285D01*
X107142857Y-131842856D01*
X107171429Y-131899999D01*
X107171429Y-131957142D01*
X107142857Y-132014285D01*
X107114286Y-132042856D01*
X107057143Y-132071428D01*
X106942857Y-132099999D01*
X106800000Y-132099999D01*
X106685714Y-132071428D01*
X106628571Y-132042856D01*
X106600000Y-132014285D01*
X106571429Y-131957142D01*
X47066667Y-122766666D02*
X46366667Y-122766666D01*
X46366667Y-122600000D01*
X46400000Y-122500000D01*
X46466667Y-122433333D01*
X46533333Y-122400000D01*
X46666667Y-122366666D01*
X46766667Y-122366666D01*
X46900000Y-122400000D01*
X46966667Y-122433333D01*
X47033333Y-122500000D01*
X47066667Y-122600000D01*
X47066667Y-122766666D01*
X46366667Y-122133333D02*
X46366667Y-121700000D01*
X46633333Y-121933333D01*
X46633333Y-121833333D01*
X46666667Y-121766666D01*
X46700000Y-121733333D01*
X46766667Y-121700000D01*
X46933333Y-121700000D01*
X47000000Y-121733333D01*
X47033333Y-121766666D01*
X47066667Y-121833333D01*
X47066667Y-122033333D01*
X47033333Y-122100000D01*
X47000000Y-122133333D01*
M02*
