M48
;DRILL file {KiCad (2015-07-11 BZR 5925, Git c291b88)-product} date 9/14/2015 2:45:28 PM
;FORMAT={-:-/ absolute / inch / decimal}
FMAT,2
INCH,TZ
T1C0.016
T2C0.020
T3C0.033
T4C0.040
T5C0.051
T6C0.120
T7C0.138
T8C0.140
%
G90
G05
M72
T1
X1.6299Y-4.8819
X1.6693Y-5.9921
X1.6772Y-5.1181
X1.7165Y-5.3189
X1.7559Y-6.3189
X1.7677Y-4.6378
X1.7677Y-5.3189
X1.7992Y-5.685
X1.811Y-5.122
X1.8228Y-5.622
X1.8346Y-5.8465
X1.8543Y-5.4094
X1.874Y-5.0039
X1.8996Y-4.6654
X1.8996Y-4.7343
X1.9882Y-5.2598
X2.0315Y-5.3346
X2.0315Y-5.4291
X2.0472Y-5.6535
X2.0551Y-5.7087
X2.0551Y-5.811
X2.0748Y-5.8976
X2.0787Y-5.4094
X2.0866Y-4.4488
X2.0866Y-4.5276
X2.0866Y-5.189
X2.1024Y-5.5157
X2.1024Y-5.6024
X2.1063Y-5.8465
X2.1299Y-5.6654
X2.1339Y-5.8701
X2.1358Y-4.3799
X2.1378Y-5.5236
X2.1417Y-5.0748
X2.1575Y-5.0472
X2.1654Y-5.689
X2.1732Y-5.2008
X2.1772Y-5.4606
X2.1772Y-5.5591
X2.1811Y-5.3583
X2.189Y-5.7205
X2.2008Y-6.0039
X2.2323Y-6.3228
X2.2402Y-5.9055
X2.2441Y-6.063
X2.2559Y-5.311
X2.2717Y-5.9173
X2.2933Y-4.3799
X2.3071Y-5.9094
X2.3307Y-5.6575
X2.3504Y-5.0827
X2.3583Y-5.6339
X2.3661Y-5.3189
X2.3858Y-5.4213
X2.4449Y-5.7953
X2.4567Y-5.622
X2.4961Y-5.7402
X2.5315Y-5.8228
X2.5709Y-5.1929
X2.5866Y-5.3268
X2.6024Y-5.4646
X2.6063Y-5.5866
X2.6181Y-5.315
X2.622Y-5.2795
X2.685Y-5.0866
X2.7126Y-5.2244
X2.7362Y-6.3268
X2.7598Y-5.0039
X2.7598Y-5.1535
X2.7677Y-5.5945
X2.815Y-5.3071
X2.8307Y-5.5866
X2.8465Y-5.9055
X2.8701Y-5.8307
X2.8858Y-5.6063
X2.8898Y-5.1457
X2.8898Y-5.9016
X2.9055Y-5.8465
X2.9173Y-5.878
X2.937Y-5.8189
X2.9528Y-5.7362
X2.9606Y-5.2638
X2.9803Y-5.7559
X3.0039Y-4.5512
X3.0118Y-4.8701
X3.0118Y-5.7559
X3.0236Y-5.9213
X3.0354Y-5.
X3.0472Y-5.0512
X3.0512Y-5.3976
X3.063Y-5.9213
X3.0669Y-5.8346
X3.0748Y-5.0866
X3.0748Y-5.5591
X3.0748Y-5.5945
X3.0945Y-5.5315
X3.1102Y-5.7677
X3.1299Y-5.7047
X3.1339Y-5.6181
X3.1693Y-5.6299
X3.189Y-5.748
X3.1969Y-5.8268
X3.2008Y-5.6535
X3.2047Y-5.5709
X3.2283Y-5.8031
X3.2913Y-6.3268
X3.311Y-5.5315
X3.3189Y-5.7205
X3.3268Y-5.0394
X3.3386Y-5.3937
X3.3976Y-5.4528
X3.4528Y-5.5669
X3.4646Y-5.685
X3.4724Y-5.7874
X3.4843Y-5.7559
X3.4961Y-5.5669
X3.5315Y-5.5551
X3.5315Y-5.8386
X3.5512Y-5.5276
X3.563Y-5.3031
X3.6102Y-5.7126
X3.6457Y-5.4252
X3.6535Y-5.9449
X3.6654Y-5.5748
X3.6732Y-5.2283
X3.685Y-4.7008
X3.689Y-5.2638
X3.7244Y-6.0354
X3.748Y-5.7087
X3.7756Y-5.8268
X3.7835Y-5.9409
X3.7874Y-5.1575
X3.7913Y-4.8504
X3.7913Y-5.5866
X3.811Y-5.4764
X3.8307Y-4.9961
X3.8386Y-4.8425
X3.8543Y-5.8465
X3.8622Y-5.9055
X3.8661Y-4.9685
X3.878Y-4.8504
X3.878Y-5.3031
X3.8937Y-4.6929
X3.9134Y-5.9409
X3.9646Y-5.374
X3.9724Y-5.2874
X3.9921Y-6.3583
X4.Y-5.4134
X4.Y-5.5472
X4.0118Y-5.6535
X4.0315Y-5.878
X4.1575Y-5.9567
X4.1693Y-4.8543
T2
X1.622Y-5.3071
X1.6693Y-4.9213
X1.9016Y-4.9449
X2.8228Y-5.0433
X3.5157Y-5.3819
T3
X1.7584Y-4.4291
X1.7584Y-4.6259
X4.0684Y-4.4292
X4.0684Y-4.626
T4
X2.1425Y-4.9803
X2.2425Y-4.9803
X2.3425Y-4.9803
X2.3882Y-5.9921
X2.4882Y-5.9921
X2.5449Y-4.8213
X2.5449Y-4.9213
X2.548Y-4.5102
X2.548Y-4.6102
X2.5882Y-5.9921
X2.6449Y-4.8213
X2.6449Y-4.9213
X2.648Y-4.5102
X2.648Y-4.6102
X2.6882Y-5.9921
X2.7449Y-4.8213
X2.7449Y-4.9213
X2.748Y-4.5102
X2.748Y-4.6102
X2.7882Y-5.9921
X2.8449Y-4.8213
X2.8449Y-4.9213
X2.8882Y-5.9921
X2.9449Y-4.8213
X2.9449Y-4.9213
X2.9882Y-5.9921
X3.0882Y-5.9921
X3.1882Y-5.9921
X3.2882Y-5.9921
X3.3882Y-5.9921
X3.4882Y-5.9921
T5
X1.6442Y-4.3897
X1.6442Y-4.6653
X4.1826Y-4.3898
X4.1826Y-4.6654
T6
X3.1772Y-4.5571
X3.3661Y-4.4291
T7
X1.9882Y-4.2913
X1.9882Y-6.2638
X3.7598Y-4.2913
X3.7598Y-6.2598
T8
X3.3661Y-4.6748
T0
M30
