G04 #@! TF.FileFunction,Legend,Bot*
%FSLAX46Y46*%
G04 Gerber Fmt 4.6, Leading zero omitted, Abs format (unit mm)*
G04 Created by KiCad (PCBNEW (2015-07-11 BZR 5925, Git c291b88)-product) date 9/14/2015 2:45:29 PM*
%MOMM*%
G01*
G04 APERTURE LIST*
%ADD10C,0.100000*%
%ADD11C,0.150000*%
%ADD12C,0.700000*%
%ADD13C,0.162500*%
G04 APERTURE END LIST*
D10*
D11*
X46657143Y-114014286D02*
X46657143Y-115157143D01*
X47228571Y-114585714D02*
X46085714Y-114585714D01*
X45728571Y-116585715D02*
X45728571Y-115871429D01*
X46442857Y-115800000D01*
X46371429Y-115871429D01*
X46300000Y-116014286D01*
X46300000Y-116371429D01*
X46371429Y-116514286D01*
X46442857Y-116585715D01*
X46585714Y-116657143D01*
X46942857Y-116657143D01*
X47085714Y-116585715D01*
X47157143Y-116514286D01*
X47228571Y-116371429D01*
X47228571Y-116014286D01*
X47157143Y-115871429D01*
X47085714Y-115800000D01*
X45728571Y-117085714D02*
X47228571Y-117585714D01*
X45728571Y-118085714D01*
X47157143Y-119657142D02*
X47228571Y-119871428D01*
X47228571Y-120228571D01*
X47157143Y-120371428D01*
X47085714Y-120442857D01*
X46942857Y-120514285D01*
X46800000Y-120514285D01*
X46657143Y-120442857D01*
X46585714Y-120371428D01*
X46514286Y-120228571D01*
X46442857Y-119942857D01*
X46371429Y-119799999D01*
X46300000Y-119728571D01*
X46157143Y-119657142D01*
X46014286Y-119657142D01*
X45871429Y-119728571D01*
X45800000Y-119799999D01*
X45728571Y-119942857D01*
X45728571Y-120299999D01*
X45800000Y-120514285D01*
X45728571Y-121442856D02*
X45728571Y-121728570D01*
X45800000Y-121871428D01*
X45942857Y-122014285D01*
X46228571Y-122085713D01*
X46728571Y-122085713D01*
X47014286Y-122014285D01*
X47157143Y-121871428D01*
X47228571Y-121728570D01*
X47228571Y-121442856D01*
X47157143Y-121299999D01*
X47014286Y-121157142D01*
X46728571Y-121085713D01*
X46228571Y-121085713D01*
X45942857Y-121157142D01*
X45800000Y-121299999D01*
X45728571Y-121442856D01*
X45728571Y-122728571D02*
X46942857Y-122728571D01*
X47085714Y-122799999D01*
X47157143Y-122871428D01*
X47228571Y-123014285D01*
X47228571Y-123299999D01*
X47157143Y-123442857D01*
X47085714Y-123514285D01*
X46942857Y-123585714D01*
X45728571Y-123585714D01*
X47228571Y-125157143D02*
X46514286Y-124657143D01*
X47228571Y-124300000D02*
X45728571Y-124300000D01*
X45728571Y-124871428D01*
X45800000Y-125014286D01*
X45871429Y-125085714D01*
X46014286Y-125157143D01*
X46228571Y-125157143D01*
X46371429Y-125085714D01*
X46442857Y-125014286D01*
X46514286Y-124871428D01*
X46514286Y-124300000D01*
X47085714Y-126657143D02*
X47157143Y-126585714D01*
X47228571Y-126371428D01*
X47228571Y-126228571D01*
X47157143Y-126014286D01*
X47014286Y-125871428D01*
X46871429Y-125800000D01*
X46585714Y-125728571D01*
X46371429Y-125728571D01*
X46085714Y-125800000D01*
X45942857Y-125871428D01*
X45800000Y-126014286D01*
X45728571Y-126228571D01*
X45728571Y-126371428D01*
X45800000Y-126585714D01*
X45871429Y-126657143D01*
X46442857Y-127300000D02*
X46442857Y-127800000D01*
X47228571Y-128014286D02*
X47228571Y-127300000D01*
X45728571Y-127300000D01*
X45728571Y-128014286D01*
X47978571Y-111871427D02*
X49192857Y-111871427D01*
X49335714Y-111942855D01*
X49407143Y-112014284D01*
X49478571Y-112157141D01*
X49478571Y-112442855D01*
X49407143Y-112585713D01*
X49335714Y-112657141D01*
X49192857Y-112728570D01*
X47978571Y-112728570D01*
X49407143Y-113371427D02*
X49478571Y-113585713D01*
X49478571Y-113942856D01*
X49407143Y-114085713D01*
X49335714Y-114157142D01*
X49192857Y-114228570D01*
X49050000Y-114228570D01*
X48907143Y-114157142D01*
X48835714Y-114085713D01*
X48764286Y-113942856D01*
X48692857Y-113657142D01*
X48621429Y-113514284D01*
X48550000Y-113442856D01*
X48407143Y-113371427D01*
X48264286Y-113371427D01*
X48121429Y-113442856D01*
X48050000Y-113514284D01*
X47978571Y-113657142D01*
X47978571Y-114014284D01*
X48050000Y-114228570D01*
X48692857Y-114871427D02*
X48692857Y-115371427D01*
X49478571Y-115585713D02*
X49478571Y-114871427D01*
X47978571Y-114871427D01*
X47978571Y-115585713D01*
X47978571Y-117657141D02*
X47978571Y-117942855D01*
X48050000Y-118085713D01*
X48192857Y-118228570D01*
X48478571Y-118299998D01*
X48978571Y-118299998D01*
X49264286Y-118228570D01*
X49407143Y-118085713D01*
X49478571Y-117942855D01*
X49478571Y-117657141D01*
X49407143Y-117514284D01*
X49264286Y-117371427D01*
X48978571Y-117299998D01*
X48478571Y-117299998D01*
X48192857Y-117371427D01*
X48050000Y-117514284D01*
X47978571Y-117657141D01*
X49478571Y-118942856D02*
X47978571Y-118942856D01*
X49478571Y-119799999D01*
X47978571Y-119799999D01*
X49478571Y-121228571D02*
X49478571Y-120514285D01*
X47978571Y-120514285D01*
X48764286Y-122014285D02*
X49478571Y-122014285D01*
X47978571Y-121514285D02*
X48764286Y-122014285D01*
X47978571Y-122514285D01*
X47978571Y-124442856D02*
X47978571Y-124728570D01*
X48050000Y-124871428D01*
X48192857Y-125014285D01*
X48478571Y-125085713D01*
X48978571Y-125085713D01*
X49264286Y-125014285D01*
X49407143Y-124871428D01*
X49478571Y-124728570D01*
X49478571Y-124442856D01*
X49407143Y-124299999D01*
X49264286Y-124157142D01*
X48978571Y-124085713D01*
X48478571Y-124085713D01*
X48192857Y-124157142D01*
X48050000Y-124299999D01*
X47978571Y-124442856D01*
X49478571Y-125728571D02*
X47978571Y-125728571D01*
X49478571Y-126585714D01*
X47978571Y-126585714D01*
X48692857Y-127300000D02*
X48692857Y-127800000D01*
X49478571Y-128014286D02*
X49478571Y-127300000D01*
X47978571Y-127300000D01*
X47978571Y-128014286D01*
X51728571Y-112942858D02*
X50228571Y-112942858D01*
X51728571Y-113800001D01*
X50228571Y-113800001D01*
X51585714Y-115371430D02*
X51657143Y-115300001D01*
X51728571Y-115085715D01*
X51728571Y-114942858D01*
X51657143Y-114728573D01*
X51514286Y-114585715D01*
X51371429Y-114514287D01*
X51085714Y-114442858D01*
X50871429Y-114442858D01*
X50585714Y-114514287D01*
X50442857Y-114585715D01*
X50300000Y-114728573D01*
X50228571Y-114942858D01*
X50228571Y-115085715D01*
X50300000Y-115300001D01*
X50371429Y-115371430D01*
X50942857Y-117657144D02*
X50942857Y-117157144D01*
X51728571Y-117157144D02*
X50228571Y-117157144D01*
X50228571Y-117871430D01*
X50228571Y-118728572D02*
X50228571Y-119014286D01*
X50300000Y-119157144D01*
X50442857Y-119300001D01*
X50728571Y-119371429D01*
X51228571Y-119371429D01*
X51514286Y-119300001D01*
X51657143Y-119157144D01*
X51728571Y-119014286D01*
X51728571Y-118728572D01*
X51657143Y-118585715D01*
X51514286Y-118442858D01*
X51228571Y-118371429D01*
X50728571Y-118371429D01*
X50442857Y-118442858D01*
X50300000Y-118585715D01*
X50228571Y-118728572D01*
X51728571Y-120871430D02*
X51014286Y-120371430D01*
X51728571Y-120014287D02*
X50228571Y-120014287D01*
X50228571Y-120585715D01*
X50300000Y-120728573D01*
X50371429Y-120800001D01*
X50514286Y-120871430D01*
X50728571Y-120871430D01*
X50871429Y-120800001D01*
X50942857Y-120728573D01*
X51014286Y-120585715D01*
X51014286Y-120014287D01*
X51157143Y-122657144D02*
X51157143Y-123800001D01*
X51728571Y-123228572D02*
X50585714Y-123228572D01*
X51728571Y-125300001D02*
X51728571Y-124442858D01*
X51728571Y-124871430D02*
X50228571Y-124871430D01*
X50442857Y-124728573D01*
X50585714Y-124585715D01*
X50657143Y-124442858D01*
X50371429Y-125871429D02*
X50300000Y-125942858D01*
X50228571Y-126085715D01*
X50228571Y-126442858D01*
X50300000Y-126585715D01*
X50371429Y-126657144D01*
X50514286Y-126728572D01*
X50657143Y-126728572D01*
X50871429Y-126657144D01*
X51728571Y-125800001D01*
X51728571Y-126728572D01*
X50228571Y-127157143D02*
X51728571Y-127657143D01*
X50228571Y-128157143D01*
D12*
X95657143Y-132307143D02*
X95657143Y-134450000D01*
X95800001Y-134878571D01*
X96085715Y-135164286D01*
X96514286Y-135307143D01*
X96800001Y-135307143D01*
X92942858Y-135307143D02*
X92942858Y-133735714D01*
X93085715Y-133450000D01*
X93371429Y-133307143D01*
X93942858Y-133307143D01*
X94228572Y-133450000D01*
X92942858Y-135164286D02*
X93228572Y-135307143D01*
X93942858Y-135307143D01*
X94228572Y-135164286D01*
X94371429Y-134878571D01*
X94371429Y-134592857D01*
X94228572Y-134307143D01*
X93942858Y-134164286D01*
X93228572Y-134164286D01*
X92942858Y-134021429D01*
X90228572Y-133307143D02*
X90228572Y-135735714D01*
X90371429Y-136021429D01*
X90514286Y-136164286D01*
X90800001Y-136307143D01*
X91228572Y-136307143D01*
X91514286Y-136164286D01*
X90228572Y-135164286D02*
X90514286Y-135307143D01*
X91085715Y-135307143D01*
X91371429Y-135164286D01*
X91514286Y-135021429D01*
X91657143Y-134735714D01*
X91657143Y-133878571D01*
X91514286Y-133592857D01*
X91371429Y-133450000D01*
X91085715Y-133307143D01*
X90514286Y-133307143D01*
X90228572Y-133450000D01*
X87514286Y-133307143D02*
X87514286Y-135307143D01*
X88800000Y-133307143D02*
X88800000Y-134878571D01*
X88657143Y-135164286D01*
X88371429Y-135307143D01*
X87942857Y-135307143D01*
X87657143Y-135164286D01*
X87514286Y-135021429D01*
X84800000Y-135307143D02*
X84800000Y-133735714D01*
X84942857Y-133450000D01*
X85228571Y-133307143D01*
X85800000Y-133307143D01*
X86085714Y-133450000D01*
X84800000Y-135164286D02*
X85085714Y-135307143D01*
X85800000Y-135307143D01*
X86085714Y-135164286D01*
X86228571Y-134878571D01*
X86228571Y-134592857D01*
X86085714Y-134307143D01*
X85800000Y-134164286D01*
X85085714Y-134164286D01*
X84800000Y-134021429D01*
X83371428Y-135307143D02*
X83371428Y-133307143D01*
X83371428Y-133878571D02*
X83228571Y-133592857D01*
X83085714Y-133450000D01*
X82800000Y-133307143D01*
X82514285Y-133307143D01*
X77800000Y-135307143D02*
X79228571Y-135307143D01*
X79228571Y-132307143D01*
X75514286Y-135307143D02*
X75514286Y-133735714D01*
X75657143Y-133450000D01*
X75942857Y-133307143D01*
X76514286Y-133307143D01*
X76800000Y-133450000D01*
X75514286Y-135164286D02*
X75800000Y-135307143D01*
X76514286Y-135307143D01*
X76800000Y-135164286D01*
X76942857Y-134878571D01*
X76942857Y-134592857D01*
X76800000Y-134307143D01*
X76514286Y-134164286D01*
X75800000Y-134164286D01*
X75514286Y-134021429D01*
X74085714Y-133307143D02*
X74085714Y-135307143D01*
X74085714Y-133592857D02*
X73942857Y-133450000D01*
X73657143Y-133307143D01*
X73228571Y-133307143D01*
X72942857Y-133450000D01*
X72800000Y-133735714D01*
X72800000Y-135307143D01*
X70085714Y-135307143D02*
X70085714Y-132307143D01*
X70085714Y-135164286D02*
X70371428Y-135307143D01*
X70942857Y-135307143D01*
X71228571Y-135164286D01*
X71371428Y-135021429D01*
X71514285Y-134735714D01*
X71514285Y-133878571D01*
X71371428Y-133592857D01*
X71228571Y-133450000D01*
X70942857Y-133307143D01*
X70371428Y-133307143D01*
X70085714Y-133450000D01*
X64657143Y-135307143D02*
X65657143Y-133878571D01*
X66371428Y-135307143D02*
X66371428Y-132307143D01*
X65228571Y-132307143D01*
X64942857Y-132450000D01*
X64800000Y-132592857D01*
X64657143Y-132878571D01*
X64657143Y-133307143D01*
X64800000Y-133592857D01*
X64942857Y-133735714D01*
X65228571Y-133878571D01*
X66371428Y-133878571D01*
X62942857Y-135307143D02*
X63228571Y-135164286D01*
X63371428Y-135021429D01*
X63514285Y-134735714D01*
X63514285Y-133878571D01*
X63371428Y-133592857D01*
X63228571Y-133450000D01*
X62942857Y-133307143D01*
X62514285Y-133307143D01*
X62228571Y-133450000D01*
X62085714Y-133592857D01*
X61942857Y-133878571D01*
X61942857Y-134735714D01*
X62085714Y-135021429D01*
X62228571Y-135164286D01*
X62514285Y-135307143D01*
X62942857Y-135307143D01*
X60942857Y-133307143D02*
X60228571Y-135307143D01*
X59514285Y-133307143D01*
X58657143Y-133307143D02*
X57942857Y-135307143D01*
X57228571Y-133307143D01*
X54942857Y-135164286D02*
X55228571Y-135307143D01*
X55800000Y-135307143D01*
X56085714Y-135164286D01*
X56228571Y-134878571D01*
X56228571Y-133735714D01*
X56085714Y-133450000D01*
X55800000Y-133307143D01*
X55228571Y-133307143D01*
X54942857Y-133450000D01*
X54800000Y-133735714D01*
X54800000Y-134021429D01*
X56228571Y-134307143D01*
X53514285Y-135307143D02*
X53514285Y-133307143D01*
X53514285Y-133878571D02*
X53371428Y-133592857D01*
X53228571Y-133450000D01*
X52942857Y-133307143D01*
X52657142Y-133307143D01*
X98514287Y-139921429D02*
X98657144Y-140064286D01*
X99085715Y-140207143D01*
X99371429Y-140207143D01*
X99800001Y-140064286D01*
X100085715Y-139778571D01*
X100228572Y-139492857D01*
X100371429Y-138921429D01*
X100371429Y-138492857D01*
X100228572Y-137921429D01*
X100085715Y-137635714D01*
X99800001Y-137350000D01*
X99371429Y-137207143D01*
X99085715Y-137207143D01*
X98657144Y-137350000D01*
X98514287Y-137492857D01*
X97371429Y-139350000D02*
X95942858Y-139350000D01*
X97657144Y-140207143D02*
X96657144Y-137207143D01*
X95657144Y-140207143D01*
X94657143Y-140207143D02*
X94657143Y-137207143D01*
X92942858Y-140207143D01*
X92942858Y-137207143D01*
X90514286Y-138635714D02*
X90085715Y-138778571D01*
X89942858Y-138921429D01*
X89800001Y-139207143D01*
X89800001Y-139635714D01*
X89942858Y-139921429D01*
X90085715Y-140064286D01*
X90371429Y-140207143D01*
X91514286Y-140207143D01*
X91514286Y-137207143D01*
X90514286Y-137207143D01*
X90228572Y-137350000D01*
X90085715Y-137492857D01*
X89942858Y-137778571D01*
X89942858Y-138064286D01*
X90085715Y-138350000D01*
X90228572Y-138492857D01*
X90514286Y-138635714D01*
X91514286Y-138635714D01*
X88514286Y-137207143D02*
X88514286Y-139635714D01*
X88371429Y-139921429D01*
X88228572Y-140064286D01*
X87942858Y-140207143D01*
X87371429Y-140207143D01*
X87085715Y-140064286D01*
X86942858Y-139921429D01*
X86800001Y-139635714D01*
X86800001Y-137207143D01*
X85514286Y-140064286D02*
X85085715Y-140207143D01*
X84371429Y-140207143D01*
X84085715Y-140064286D01*
X83942858Y-139921429D01*
X83800001Y-139635714D01*
X83800001Y-139350000D01*
X83942858Y-139064286D01*
X84085715Y-138921429D01*
X84371429Y-138778571D01*
X84942858Y-138635714D01*
X85228572Y-138492857D01*
X85371429Y-138350000D01*
X85514286Y-138064286D01*
X85514286Y-137778571D01*
X85371429Y-137492857D01*
X85228572Y-137350000D01*
X84942858Y-137207143D01*
X84228572Y-137207143D01*
X83800001Y-137350000D01*
X79228572Y-138635714D02*
X80228572Y-138635714D01*
X80228572Y-140207143D02*
X80228572Y-137207143D01*
X78800001Y-137207143D01*
X77657143Y-140207143D02*
X77657143Y-138207143D01*
X77657143Y-137207143D02*
X77800000Y-137350000D01*
X77657143Y-137492857D01*
X77514286Y-137350000D01*
X77657143Y-137207143D01*
X77657143Y-137492857D01*
X76228572Y-140207143D02*
X76228572Y-138207143D01*
X76228572Y-138778571D02*
X76085715Y-138492857D01*
X75942858Y-138350000D01*
X75657144Y-138207143D01*
X75371429Y-138207143D01*
X73228572Y-140064286D02*
X73514286Y-140207143D01*
X74085715Y-140207143D01*
X74371429Y-140064286D01*
X74514286Y-139778571D01*
X74514286Y-138635714D01*
X74371429Y-138350000D01*
X74085715Y-138207143D01*
X73514286Y-138207143D01*
X73228572Y-138350000D01*
X73085715Y-138635714D01*
X73085715Y-138921429D01*
X74514286Y-139207143D01*
X72085715Y-138207143D02*
X71514286Y-140207143D01*
X70942857Y-138778571D01*
X70371429Y-140207143D01*
X69800000Y-138207143D01*
X67371429Y-140207143D02*
X67371429Y-138635714D01*
X67514286Y-138350000D01*
X67800000Y-138207143D01*
X68371429Y-138207143D01*
X68657143Y-138350000D01*
X67371429Y-140064286D02*
X67657143Y-140207143D01*
X68371429Y-140207143D01*
X68657143Y-140064286D01*
X68800000Y-139778571D01*
X68800000Y-139492857D01*
X68657143Y-139207143D01*
X68371429Y-139064286D01*
X67657143Y-139064286D01*
X67371429Y-138921429D01*
X65514286Y-140207143D02*
X65800000Y-140064286D01*
X65942857Y-139778571D01*
X65942857Y-137207143D01*
X63942857Y-140207143D02*
X64228571Y-140064286D01*
X64371428Y-139778571D01*
X64371428Y-137207143D01*
X60942857Y-137207143D02*
X59942857Y-140207143D01*
X58942857Y-137207143D01*
X56371428Y-140207143D02*
X58085713Y-140207143D01*
X57228571Y-140207143D02*
X57228571Y-137207143D01*
X57514285Y-137635714D01*
X57799999Y-137921429D01*
X58085713Y-138064286D01*
X55085713Y-139921429D02*
X54942856Y-140064286D01*
X55085713Y-140207143D01*
X55228570Y-140064286D01*
X55085713Y-139921429D01*
X55085713Y-140207143D01*
X52085714Y-140207143D02*
X53799999Y-140207143D01*
X52942857Y-140207143D02*
X52942857Y-137207143D01*
X53228571Y-137635714D01*
X53514285Y-137921429D01*
X53799999Y-138064286D01*
X49228571Y-140207143D02*
X50942856Y-140207143D01*
X50085714Y-140207143D02*
X50085714Y-137207143D01*
X50371428Y-137635714D01*
X50657142Y-137921429D01*
X50942856Y-138064286D01*
X99371430Y-142107143D02*
X98800001Y-142107143D01*
X98514287Y-142250000D01*
X98228573Y-142535714D01*
X98085715Y-143107143D01*
X98085715Y-144107143D01*
X98228573Y-144678571D01*
X98514287Y-144964286D01*
X98800001Y-145107143D01*
X99371430Y-145107143D01*
X99657144Y-144964286D01*
X99942858Y-144678571D01*
X100085715Y-144107143D01*
X100085715Y-143107143D01*
X99942858Y-142535714D01*
X99657144Y-142250000D01*
X99371430Y-142107143D01*
X96800001Y-143107143D02*
X96800001Y-146107143D01*
X96800001Y-143250000D02*
X96514287Y-143107143D01*
X95942858Y-143107143D01*
X95657144Y-143250000D01*
X95514287Y-143392857D01*
X95371430Y-143678571D01*
X95371430Y-144535714D01*
X95514287Y-144821429D01*
X95657144Y-144964286D01*
X95942858Y-145107143D01*
X96514287Y-145107143D01*
X96800001Y-144964286D01*
X92942858Y-144964286D02*
X93228572Y-145107143D01*
X93800001Y-145107143D01*
X94085715Y-144964286D01*
X94228572Y-144678571D01*
X94228572Y-143535714D01*
X94085715Y-143250000D01*
X93800001Y-143107143D01*
X93228572Y-143107143D01*
X92942858Y-143250000D01*
X92800001Y-143535714D01*
X92800001Y-143821429D01*
X94228572Y-144107143D01*
X91514286Y-143107143D02*
X91514286Y-145107143D01*
X91514286Y-143392857D02*
X91371429Y-143250000D01*
X91085715Y-143107143D01*
X90657143Y-143107143D01*
X90371429Y-143250000D01*
X90228572Y-143535714D01*
X90228572Y-145107143D01*
X86657143Y-144964286D02*
X86228572Y-145107143D01*
X85514286Y-145107143D01*
X85228572Y-144964286D01*
X85085715Y-144821429D01*
X84942858Y-144535714D01*
X84942858Y-144250000D01*
X85085715Y-143964286D01*
X85228572Y-143821429D01*
X85514286Y-143678571D01*
X86085715Y-143535714D01*
X86371429Y-143392857D01*
X86514286Y-143250000D01*
X86657143Y-142964286D01*
X86657143Y-142678571D01*
X86514286Y-142392857D01*
X86371429Y-142250000D01*
X86085715Y-142107143D01*
X85371429Y-142107143D01*
X84942858Y-142250000D01*
X83228572Y-145107143D02*
X83514286Y-144964286D01*
X83657143Y-144821429D01*
X83800000Y-144535714D01*
X83800000Y-143678571D01*
X83657143Y-143392857D01*
X83514286Y-143250000D01*
X83228572Y-143107143D01*
X82800000Y-143107143D01*
X82514286Y-143250000D01*
X82371429Y-143392857D01*
X82228572Y-143678571D01*
X82228572Y-144535714D01*
X82371429Y-144821429D01*
X82514286Y-144964286D01*
X82800000Y-145107143D01*
X83228572Y-145107143D01*
X79657143Y-143107143D02*
X79657143Y-145107143D01*
X80942857Y-143107143D02*
X80942857Y-144678571D01*
X80800000Y-144964286D01*
X80514286Y-145107143D01*
X80085714Y-145107143D01*
X79800000Y-144964286D01*
X79657143Y-144821429D01*
X78228571Y-145107143D02*
X78228571Y-143107143D01*
X78228571Y-143678571D02*
X78085714Y-143392857D01*
X77942857Y-143250000D01*
X77657143Y-143107143D01*
X77371428Y-143107143D01*
X75085714Y-144964286D02*
X75371428Y-145107143D01*
X75942857Y-145107143D01*
X76228571Y-144964286D01*
X76371428Y-144821429D01*
X76514285Y-144535714D01*
X76514285Y-143678571D01*
X76371428Y-143392857D01*
X76228571Y-143250000D01*
X75942857Y-143107143D01*
X75371428Y-143107143D01*
X75085714Y-143250000D01*
X72657142Y-144964286D02*
X72942856Y-145107143D01*
X73514285Y-145107143D01*
X73799999Y-144964286D01*
X73942856Y-144678571D01*
X73942856Y-143535714D01*
X73799999Y-143250000D01*
X73514285Y-143107143D01*
X72942856Y-143107143D01*
X72657142Y-143250000D01*
X72514285Y-143535714D01*
X72514285Y-143821429D01*
X73942856Y-144107143D01*
X68942856Y-145107143D02*
X68942856Y-142107143D01*
X68942856Y-143535714D02*
X67228571Y-143535714D01*
X67228571Y-145107143D02*
X67228571Y-142107143D01*
X64514285Y-145107143D02*
X64514285Y-143535714D01*
X64657142Y-143250000D01*
X64942856Y-143107143D01*
X65514285Y-143107143D01*
X65799999Y-143250000D01*
X64514285Y-144964286D02*
X64799999Y-145107143D01*
X65514285Y-145107143D01*
X65799999Y-144964286D01*
X65942856Y-144678571D01*
X65942856Y-144392857D01*
X65799999Y-144107143D01*
X65514285Y-143964286D01*
X64799999Y-143964286D01*
X64514285Y-143821429D01*
X63085713Y-145107143D02*
X63085713Y-143107143D01*
X63085713Y-143678571D02*
X62942856Y-143392857D01*
X62799999Y-143250000D01*
X62514285Y-143107143D01*
X62228570Y-143107143D01*
X59942856Y-145107143D02*
X59942856Y-142107143D01*
X59942856Y-144964286D02*
X60228570Y-145107143D01*
X60799999Y-145107143D01*
X61085713Y-144964286D01*
X61228570Y-144821429D01*
X61371427Y-144535714D01*
X61371427Y-143678571D01*
X61228570Y-143392857D01*
X61085713Y-143250000D01*
X60799999Y-143107143D01*
X60228570Y-143107143D01*
X59942856Y-143250000D01*
X58799999Y-143107143D02*
X58228570Y-145107143D01*
X57657141Y-143678571D01*
X57085713Y-145107143D01*
X56514284Y-143107143D01*
X54085713Y-145107143D02*
X54085713Y-143535714D01*
X54228570Y-143250000D01*
X54514284Y-143107143D01*
X55085713Y-143107143D01*
X55371427Y-143250000D01*
X54085713Y-144964286D02*
X54371427Y-145107143D01*
X55085713Y-145107143D01*
X55371427Y-144964286D01*
X55514284Y-144678571D01*
X55514284Y-144392857D01*
X55371427Y-144107143D01*
X55085713Y-143964286D01*
X54371427Y-143964286D01*
X54085713Y-143821429D01*
X52657141Y-145107143D02*
X52657141Y-143107143D01*
X52657141Y-143678571D02*
X52514284Y-143392857D01*
X52371427Y-143250000D01*
X52085713Y-143107143D01*
X51799998Y-143107143D01*
X49657141Y-144964286D02*
X49942855Y-145107143D01*
X50514284Y-145107143D01*
X50799998Y-144964286D01*
X50942855Y-144678571D01*
X50942855Y-143535714D01*
X50799998Y-143250000D01*
X50514284Y-143107143D01*
X49942855Y-143107143D01*
X49657141Y-143250000D01*
X49514284Y-143535714D01*
X49514284Y-143821429D01*
X50942855Y-144107143D01*
X94014285Y-147007143D02*
X94014285Y-149150000D01*
X94157143Y-149578571D01*
X94442857Y-149864286D01*
X94871428Y-150007143D01*
X95157143Y-150007143D01*
X91442857Y-149864286D02*
X91728571Y-150007143D01*
X92300000Y-150007143D01*
X92585714Y-149864286D01*
X92728571Y-149578571D01*
X92728571Y-148435714D01*
X92585714Y-148150000D01*
X92300000Y-148007143D01*
X91728571Y-148007143D01*
X91442857Y-148150000D01*
X91300000Y-148435714D01*
X91300000Y-148721429D01*
X92728571Y-149007143D01*
X90157142Y-149864286D02*
X89871428Y-150007143D01*
X89300000Y-150007143D01*
X89014285Y-149864286D01*
X88871428Y-149578571D01*
X88871428Y-149435714D01*
X89014285Y-149150000D01*
X89300000Y-149007143D01*
X89728571Y-149007143D01*
X90014285Y-148864286D01*
X90157142Y-148578571D01*
X90157142Y-148435714D01*
X90014285Y-148150000D01*
X89728571Y-148007143D01*
X89300000Y-148007143D01*
X89014285Y-148150000D01*
X87728571Y-149864286D02*
X87442857Y-150007143D01*
X86871429Y-150007143D01*
X86585714Y-149864286D01*
X86442857Y-149578571D01*
X86442857Y-149435714D01*
X86585714Y-149150000D01*
X86871429Y-149007143D01*
X87300000Y-149007143D01*
X87585714Y-148864286D01*
X87728571Y-148578571D01*
X87728571Y-148435714D01*
X87585714Y-148150000D01*
X87300000Y-148007143D01*
X86871429Y-148007143D01*
X86585714Y-148150000D01*
X84014286Y-149864286D02*
X84300000Y-150007143D01*
X84871429Y-150007143D01*
X85157143Y-149864286D01*
X85300000Y-149578571D01*
X85300000Y-148435714D01*
X85157143Y-148150000D01*
X84871429Y-148007143D01*
X84300000Y-148007143D01*
X84014286Y-148150000D01*
X83871429Y-148435714D01*
X83871429Y-148721429D01*
X85300000Y-149007143D01*
X79300000Y-148435714D02*
X78871429Y-148578571D01*
X78728572Y-148721429D01*
X78585715Y-149007143D01*
X78585715Y-149435714D01*
X78728572Y-149721429D01*
X78871429Y-149864286D01*
X79157143Y-150007143D01*
X80300000Y-150007143D01*
X80300000Y-147007143D01*
X79300000Y-147007143D01*
X79014286Y-147150000D01*
X78871429Y-147292857D01*
X78728572Y-147578571D01*
X78728572Y-147864286D01*
X78871429Y-148150000D01*
X79014286Y-148292857D01*
X79300000Y-148435714D01*
X80300000Y-148435714D01*
X76014286Y-150007143D02*
X76014286Y-148435714D01*
X76157143Y-148150000D01*
X76442857Y-148007143D01*
X77014286Y-148007143D01*
X77300000Y-148150000D01*
X76014286Y-149864286D02*
X76300000Y-150007143D01*
X77014286Y-150007143D01*
X77300000Y-149864286D01*
X77442857Y-149578571D01*
X77442857Y-149292857D01*
X77300000Y-149007143D01*
X77014286Y-148864286D01*
X76300000Y-148864286D01*
X76014286Y-148721429D01*
X74585714Y-148007143D02*
X74585714Y-150007143D01*
X74585714Y-148292857D02*
X74442857Y-148150000D01*
X74157143Y-148007143D01*
X73728571Y-148007143D01*
X73442857Y-148150000D01*
X73300000Y-148435714D01*
X73300000Y-150007143D01*
X71871428Y-150007143D02*
X71871428Y-147007143D01*
X71585714Y-148864286D02*
X70728571Y-150007143D01*
X70728571Y-148007143D02*
X71871428Y-149150000D01*
X69585714Y-149864286D02*
X69300000Y-150007143D01*
X68728572Y-150007143D01*
X68442857Y-149864286D01*
X68300000Y-149578571D01*
X68300000Y-149435714D01*
X68442857Y-149150000D01*
X68728572Y-149007143D01*
X69157143Y-149007143D01*
X69442857Y-148864286D01*
X69585714Y-148578571D01*
X69585714Y-148435714D01*
X69442857Y-148150000D01*
X69157143Y-148007143D01*
X68728572Y-148007143D01*
X68442857Y-148150000D01*
X64871429Y-147292857D02*
X64728572Y-147150000D01*
X64442858Y-147007143D01*
X63728572Y-147007143D01*
X63442858Y-147150000D01*
X63300001Y-147292857D01*
X63157144Y-147578571D01*
X63157144Y-147864286D01*
X63300001Y-148292857D01*
X65014287Y-150007143D01*
X63157144Y-150007143D01*
X61300001Y-147007143D02*
X61014286Y-147007143D01*
X60728572Y-147150000D01*
X60585715Y-147292857D01*
X60442858Y-147578571D01*
X60300001Y-148150000D01*
X60300001Y-148864286D01*
X60442858Y-149435714D01*
X60585715Y-149721429D01*
X60728572Y-149864286D01*
X61014286Y-150007143D01*
X61300001Y-150007143D01*
X61585715Y-149864286D01*
X61728572Y-149721429D01*
X61871429Y-149435714D01*
X62014286Y-148864286D01*
X62014286Y-148150000D01*
X61871429Y-147578571D01*
X61728572Y-147292857D01*
X61585715Y-147150000D01*
X61300001Y-147007143D01*
X57442858Y-150007143D02*
X59157143Y-150007143D01*
X58300001Y-150007143D02*
X58300001Y-147007143D01*
X58585715Y-147435714D01*
X58871429Y-147721429D01*
X59157143Y-147864286D01*
X54728572Y-147007143D02*
X56157143Y-147007143D01*
X56300000Y-148435714D01*
X56157143Y-148292857D01*
X55871429Y-148150000D01*
X55157143Y-148150000D01*
X54871429Y-148292857D01*
X54728572Y-148435714D01*
X54585715Y-148721429D01*
X54585715Y-149435714D01*
X54728572Y-149721429D01*
X54871429Y-149864286D01*
X55157143Y-150007143D01*
X55871429Y-150007143D01*
X56157143Y-149864286D01*
X56300000Y-149721429D01*
D13*
X54436071Y-114228571D02*
X54517024Y-114442857D01*
X54597976Y-114514285D01*
X54759881Y-114585714D01*
X55002738Y-114585714D01*
X55164643Y-114514285D01*
X55245595Y-114442857D01*
X55326548Y-114299999D01*
X55326548Y-113728571D01*
X53626548Y-113728571D01*
X53626548Y-114228571D01*
X53707500Y-114371428D01*
X53788452Y-114442857D01*
X53950357Y-114514285D01*
X54112262Y-114514285D01*
X54274167Y-114442857D01*
X54355119Y-114371428D01*
X54436071Y-114228571D01*
X54436071Y-113728571D01*
X53626548Y-115514285D02*
X53626548Y-115799999D01*
X53707500Y-115942857D01*
X53869405Y-116085714D01*
X54193214Y-116157142D01*
X54759881Y-116157142D01*
X55083690Y-116085714D01*
X55245595Y-115942857D01*
X55326548Y-115799999D01*
X55326548Y-115514285D01*
X55245595Y-115371428D01*
X55083690Y-115228571D01*
X54759881Y-115157142D01*
X54193214Y-115157142D01*
X53869405Y-115228571D01*
X53707500Y-115371428D01*
X53626548Y-115514285D01*
X53626548Y-117085714D02*
X53626548Y-117371428D01*
X53707500Y-117514286D01*
X53869405Y-117657143D01*
X54193214Y-117728571D01*
X54759881Y-117728571D01*
X55083690Y-117657143D01*
X55245595Y-117514286D01*
X55326548Y-117371428D01*
X55326548Y-117085714D01*
X55245595Y-116942857D01*
X55083690Y-116800000D01*
X54759881Y-116728571D01*
X54193214Y-116728571D01*
X53869405Y-116800000D01*
X53707500Y-116942857D01*
X53626548Y-117085714D01*
X53626548Y-118157143D02*
X53626548Y-119014286D01*
X55326548Y-118585715D02*
X53626548Y-118585715D01*
X53626548Y-120657143D02*
X55002738Y-120657143D01*
X55164643Y-120728571D01*
X55245595Y-120800000D01*
X55326548Y-120942857D01*
X55326548Y-121228571D01*
X55245595Y-121371429D01*
X55164643Y-121442857D01*
X55002738Y-121514286D01*
X53626548Y-121514286D01*
X55245595Y-122157143D02*
X55326548Y-122371429D01*
X55326548Y-122728572D01*
X55245595Y-122871429D01*
X55164643Y-122942858D01*
X55002738Y-123014286D01*
X54840833Y-123014286D01*
X54678929Y-122942858D01*
X54597976Y-122871429D01*
X54517024Y-122728572D01*
X54436071Y-122442858D01*
X54355119Y-122300000D01*
X54274167Y-122228572D01*
X54112262Y-122157143D01*
X53950357Y-122157143D01*
X53788452Y-122228572D01*
X53707500Y-122300000D01*
X53626548Y-122442858D01*
X53626548Y-122800000D01*
X53707500Y-123014286D01*
X54436071Y-124157143D02*
X54517024Y-124371429D01*
X54597976Y-124442857D01*
X54759881Y-124514286D01*
X55002738Y-124514286D01*
X55164643Y-124442857D01*
X55245595Y-124371429D01*
X55326548Y-124228571D01*
X55326548Y-123657143D01*
X53626548Y-123657143D01*
X53626548Y-124157143D01*
X53707500Y-124300000D01*
X53788452Y-124371429D01*
X53950357Y-124442857D01*
X54112262Y-124442857D01*
X54274167Y-124371429D01*
X54355119Y-124300000D01*
X54436071Y-124157143D01*
X54436071Y-123657143D01*
X57869048Y-113800001D02*
X57059524Y-113300001D01*
X57869048Y-112942858D02*
X56169048Y-112942858D01*
X56169048Y-113514286D01*
X56250000Y-113657144D01*
X56330952Y-113728572D01*
X56492857Y-113800001D01*
X56735714Y-113800001D01*
X56897619Y-113728572D01*
X56978571Y-113657144D01*
X57059524Y-113514286D01*
X57059524Y-112942858D01*
X56978571Y-114442858D02*
X56978571Y-114942858D01*
X57869048Y-115157144D02*
X57869048Y-114442858D01*
X56169048Y-114442858D01*
X56169048Y-115157144D01*
X56250000Y-116585715D02*
X56169048Y-116442858D01*
X56169048Y-116228572D01*
X56250000Y-116014287D01*
X56411905Y-115871429D01*
X56573810Y-115800001D01*
X56897619Y-115728572D01*
X57140476Y-115728572D01*
X57464286Y-115800001D01*
X57626190Y-115871429D01*
X57788095Y-116014287D01*
X57869048Y-116228572D01*
X57869048Y-116371429D01*
X57788095Y-116585715D01*
X57707143Y-116657144D01*
X57140476Y-116657144D01*
X57140476Y-116371429D01*
X57707143Y-117300001D02*
X57788095Y-117371429D01*
X57869048Y-117300001D01*
X57788095Y-117228572D01*
X57707143Y-117300001D01*
X57869048Y-117300001D01*
X57221429Y-119157144D02*
X57221429Y-120300001D01*
X57869048Y-119728572D02*
X56573810Y-119728572D01*
X57869048Y-121800001D02*
X57869048Y-120942858D01*
X57869048Y-121371430D02*
X56169048Y-121371430D01*
X56411905Y-121228573D01*
X56573810Y-121085715D01*
X56654762Y-120942858D01*
X56330952Y-122371429D02*
X56250000Y-122442858D01*
X56169048Y-122585715D01*
X56169048Y-122942858D01*
X56250000Y-123085715D01*
X56330952Y-123157144D01*
X56492857Y-123228572D01*
X56654762Y-123228572D01*
X56897619Y-123157144D01*
X57869048Y-122300001D01*
X57869048Y-123228572D01*
X56169048Y-123657143D02*
X57869048Y-124157143D01*
X56169048Y-124657143D01*
X60411548Y-112085714D02*
X58711548Y-112085714D01*
X58711548Y-112442857D01*
X58792500Y-112657142D01*
X58954405Y-112800000D01*
X59116310Y-112871428D01*
X59440119Y-112942857D01*
X59682976Y-112942857D01*
X60006786Y-112871428D01*
X60168690Y-112800000D01*
X60330595Y-112657142D01*
X60411548Y-112442857D01*
X60411548Y-112085714D01*
X59521071Y-113585714D02*
X59521071Y-114085714D01*
X60411548Y-114300000D02*
X60411548Y-113585714D01*
X58711548Y-113585714D01*
X58711548Y-114300000D01*
X59521071Y-115442857D02*
X59602024Y-115657143D01*
X59682976Y-115728571D01*
X59844881Y-115800000D01*
X60087738Y-115800000D01*
X60249643Y-115728571D01*
X60330595Y-115657143D01*
X60411548Y-115514285D01*
X60411548Y-114942857D01*
X58711548Y-114942857D01*
X58711548Y-115442857D01*
X58792500Y-115585714D01*
X58873452Y-115657143D01*
X59035357Y-115728571D01*
X59197262Y-115728571D01*
X59359167Y-115657143D01*
X59440119Y-115585714D01*
X59521071Y-115442857D01*
X59521071Y-114942857D01*
X58711548Y-116442857D02*
X60087738Y-116442857D01*
X60249643Y-116514285D01*
X60330595Y-116585714D01*
X60411548Y-116728571D01*
X60411548Y-117014285D01*
X60330595Y-117157143D01*
X60249643Y-117228571D01*
X60087738Y-117300000D01*
X58711548Y-117300000D01*
X58792500Y-118800000D02*
X58711548Y-118657143D01*
X58711548Y-118442857D01*
X58792500Y-118228572D01*
X58954405Y-118085714D01*
X59116310Y-118014286D01*
X59440119Y-117942857D01*
X59682976Y-117942857D01*
X60006786Y-118014286D01*
X60168690Y-118085714D01*
X60330595Y-118228572D01*
X60411548Y-118442857D01*
X60411548Y-118585714D01*
X60330595Y-118800000D01*
X60249643Y-118871429D01*
X59682976Y-118871429D01*
X59682976Y-118585714D01*
X58711548Y-120657143D02*
X60087738Y-120657143D01*
X60249643Y-120728571D01*
X60330595Y-120800000D01*
X60411548Y-120942857D01*
X60411548Y-121228571D01*
X60330595Y-121371429D01*
X60249643Y-121442857D01*
X60087738Y-121514286D01*
X58711548Y-121514286D01*
X60330595Y-122157143D02*
X60411548Y-122371429D01*
X60411548Y-122728572D01*
X60330595Y-122871429D01*
X60249643Y-122942858D01*
X60087738Y-123014286D01*
X59925833Y-123014286D01*
X59763929Y-122942858D01*
X59682976Y-122871429D01*
X59602024Y-122728572D01*
X59521071Y-122442858D01*
X59440119Y-122300000D01*
X59359167Y-122228572D01*
X59197262Y-122157143D01*
X59035357Y-122157143D01*
X58873452Y-122228572D01*
X58792500Y-122300000D01*
X58711548Y-122442858D01*
X58711548Y-122800000D01*
X58792500Y-123014286D01*
X59521071Y-124157143D02*
X59602024Y-124371429D01*
X59682976Y-124442857D01*
X59844881Y-124514286D01*
X60087738Y-124514286D01*
X60249643Y-124442857D01*
X60330595Y-124371429D01*
X60411548Y-124228571D01*
X60411548Y-123657143D01*
X58711548Y-123657143D01*
X58711548Y-124157143D01*
X58792500Y-124300000D01*
X58873452Y-124371429D01*
X59035357Y-124442857D01*
X59197262Y-124442857D01*
X59359167Y-124371429D01*
X59440119Y-124300000D01*
X59521071Y-124157143D01*
X59521071Y-123657143D01*
D11*
X120065000Y-151509000D02*
X120065000Y-134364000D01*
X109270000Y-133729000D02*
X109270000Y-152144000D01*
X109270000Y-133094000D02*
X109270000Y-133729000D01*
X112445000Y-133094000D02*
X112445000Y-152779000D01*
X112445000Y-127379000D02*
X112445000Y-133094000D01*
X113715000Y-158494000D02*
X113715000Y-127379000D01*
X113715000Y-134364000D02*
X120065000Y-134364000D01*
X112445000Y-127379000D02*
X113715000Y-127379000D01*
X109270000Y-133094000D02*
X112445000Y-133094000D01*
X108000000Y-135634000D02*
X108000000Y-133729000D01*
X108000000Y-133729000D02*
X109270000Y-133729000D01*
X113715000Y-151509000D02*
X120065000Y-151509000D01*
X112445000Y-152779000D02*
X112445000Y-158494000D01*
X112445000Y-158494000D02*
X113715000Y-158494000D01*
X109270000Y-152144000D02*
X109270000Y-152779000D01*
X109270000Y-152779000D02*
X112445000Y-152779000D01*
X108000000Y-150239000D02*
X108000000Y-152144000D01*
X108000000Y-152144000D02*
X109270000Y-152144000D01*
X94799620Y-115000480D02*
X100700040Y-120900900D01*
X100400320Y-119600420D02*
X99899940Y-119100040D01*
X95800380Y-118000220D02*
X96100100Y-118299940D01*
X97799360Y-120999960D02*
X97601240Y-120799300D01*
X98800120Y-116001240D02*
X98599460Y-115800580D01*
X99300500Y-116499080D02*
X99699280Y-116900400D01*
X98299740Y-116499080D02*
X98000020Y-116199360D01*
X97298980Y-116499080D02*
X96801140Y-116001240D01*
X95300000Y-114500100D02*
X95099340Y-114299440D01*
X94799620Y-115000480D02*
X94499900Y-114700760D01*
X94799620Y-116001240D02*
X94299240Y-115500860D01*
X93301020Y-116499080D02*
X93199420Y-116400020D01*
X94299240Y-116499080D02*
X93900460Y-116100300D01*
X91799880Y-116001240D02*
X91500160Y-115698980D01*
X91299500Y-116499080D02*
X90999780Y-116199360D01*
X99300500Y-121500340D02*
X99600220Y-121800060D01*
X97799360Y-119999200D02*
X97499640Y-119699480D01*
X99899940Y-123999700D02*
X100100600Y-124200360D01*
X97799360Y-122000720D02*
X97298980Y-121500340D01*
X99300500Y-124500080D02*
X99501160Y-124700740D01*
X97298980Y-122501100D02*
X96801140Y-122000720D01*
X97298980Y-123499320D02*
X96900200Y-123100540D01*
X91799880Y-119000980D02*
X91299500Y-118500600D01*
X91299500Y-119498820D02*
X90999780Y-119199100D01*
X91799880Y-122998940D02*
X91401100Y-122600160D01*
X89800900Y-119999200D02*
X89399580Y-119600420D01*
X91299500Y-123499320D02*
X92300260Y-124500080D01*
X91799880Y-122998940D02*
X92800640Y-123999700D01*
X89800900Y-119999200D02*
X93798860Y-123999700D01*
X90298740Y-119498820D02*
X93798860Y-122998940D01*
X91299500Y-119498820D02*
X94299240Y-122501100D01*
X97298980Y-123499320D02*
X97799360Y-123999700D01*
X97298980Y-122501100D02*
X99300500Y-124500080D01*
X97799360Y-122000720D02*
X99800880Y-123999700D01*
X97799360Y-120999960D02*
X99300500Y-122501100D01*
X97799360Y-119999200D02*
X99300500Y-121500340D01*
X95300000Y-114500100D02*
X96300760Y-115500860D01*
X98800120Y-116001240D02*
X99300500Y-116499080D01*
X98299740Y-116499080D02*
X99300500Y-117499840D01*
X100301260Y-119498820D02*
X101299480Y-120499580D01*
X97298980Y-116499080D02*
X99800880Y-119000980D01*
X94799620Y-116001240D02*
X99800880Y-120999960D01*
X91799880Y-119000980D02*
X93301020Y-120499580D01*
X91799880Y-118000220D02*
X93301020Y-119498820D01*
X94299240Y-116499080D02*
X95800380Y-118000220D01*
X91299500Y-116499080D02*
X93798860Y-119000980D01*
X91799880Y-116001240D02*
X94299240Y-118500600D01*
X93301020Y-116499080D02*
X94799620Y-118000220D01*
X90499400Y-128299920D02*
X90499400Y-128899360D01*
X92000540Y-127200100D02*
X91200440Y-130499560D01*
X91200440Y-130499560D02*
X90999780Y-130499560D01*
X90999780Y-130499560D02*
X90601000Y-129100020D01*
X90601000Y-129100020D02*
X90499400Y-129100020D01*
X90499400Y-129100020D02*
X89999020Y-130499560D01*
X89999020Y-130499560D02*
X89899960Y-130499560D01*
X89899960Y-130499560D02*
X89099860Y-127299160D01*
X89099860Y-127299160D02*
X89300520Y-127299160D01*
X89300520Y-127299160D02*
X89999020Y-129900120D01*
X89999020Y-129900120D02*
X90400340Y-128099260D01*
X90400340Y-128099260D02*
X90601000Y-128099260D01*
X90601000Y-128099260D02*
X91200440Y-129900120D01*
X91200440Y-129900120D02*
X91799880Y-127200100D01*
X91799880Y-127200100D02*
X92000540Y-127200100D01*
X94700560Y-128701240D02*
X93199420Y-128701240D01*
X93199420Y-128701240D02*
X93199420Y-128899360D01*
X93199420Y-128899360D02*
X94598960Y-128899360D01*
X93100360Y-127299160D02*
X93100360Y-130499560D01*
X93100360Y-130499560D02*
X92899700Y-130499560D01*
X92899700Y-130499560D02*
X92899700Y-127299160D01*
X92899700Y-127299160D02*
X93100360Y-127299160D01*
X94598960Y-127200100D02*
X94700560Y-127200100D01*
X94799620Y-127200100D02*
X94799620Y-130499560D01*
X94799620Y-130499560D02*
X94598960Y-130499560D01*
X94598960Y-130499560D02*
X94598960Y-127200100D01*
X95698780Y-127499820D02*
X95800380Y-127400760D01*
X95800380Y-127400760D02*
X96199160Y-127299160D01*
X96199160Y-127299160D02*
X96699540Y-127200100D01*
X96699540Y-127200100D02*
X97400580Y-127400760D01*
X97400580Y-127400760D02*
X97700300Y-127700480D01*
X97700300Y-127700480D02*
X97799360Y-128200860D01*
X97799360Y-128200860D02*
X97700300Y-128599640D01*
X97700300Y-128599640D02*
X97298980Y-128899360D01*
X97298980Y-128899360D02*
X96801140Y-129100020D01*
X96801140Y-129100020D02*
X96399820Y-129199080D01*
X96399820Y-129199080D02*
X96199160Y-129399740D01*
X96199160Y-129399740D02*
X96100100Y-129699460D01*
X96100100Y-129699460D02*
X96199160Y-129999180D01*
X96199160Y-129999180D02*
X96498880Y-130199840D01*
X96498880Y-130199840D02*
X96900200Y-130199840D01*
X96900200Y-130199840D02*
X97400580Y-130199840D01*
X97400580Y-130199840D02*
X97700300Y-130100780D01*
X97700300Y-130100780D02*
X97900960Y-130199840D01*
X97900960Y-130199840D02*
X97601240Y-130400500D01*
X97601240Y-130400500D02*
X96999260Y-130499560D01*
X96999260Y-130499560D02*
X96399820Y-130499560D01*
X96399820Y-130499560D02*
X96001040Y-130199840D01*
X96001040Y-130199840D02*
X95899440Y-129699460D01*
X95899440Y-129699460D02*
X95899440Y-129399740D01*
X95899440Y-129399740D02*
X96100100Y-129100020D01*
X96100100Y-129100020D02*
X96600480Y-128899360D01*
X96600480Y-128899360D02*
X97100860Y-128701240D01*
X97100860Y-128701240D02*
X97499640Y-128398980D01*
X97499640Y-128398980D02*
X97601240Y-128099260D01*
X97601240Y-128099260D02*
X97400580Y-127799540D01*
X97400580Y-127799540D02*
X96999260Y-127499820D01*
X96999260Y-127499820D02*
X96399820Y-127499820D01*
X96399820Y-127499820D02*
X96001040Y-127598880D01*
X96001040Y-127598880D02*
X95698780Y-127700480D01*
X99800880Y-127598880D02*
X100100600Y-127598880D01*
X100100600Y-127598880D02*
X100499380Y-127901140D01*
X100499380Y-127901140D02*
X100600980Y-128398980D01*
X100600980Y-128398980D02*
X100600980Y-129199080D01*
X100600980Y-129199080D02*
X100499380Y-129699460D01*
X100499380Y-129699460D02*
X100301260Y-129999180D01*
X100301260Y-129999180D02*
X99899940Y-130199840D01*
X99899940Y-130199840D02*
X99501160Y-130199840D01*
X99501160Y-130199840D02*
X99099840Y-129900120D01*
X99099840Y-129900120D02*
X98899180Y-129199080D01*
X98899180Y-129199080D02*
X98899180Y-128398980D01*
X98899180Y-128398980D02*
X99099840Y-128000200D01*
X99099840Y-128000200D02*
X99300500Y-127799540D01*
X99300500Y-127799540D02*
X99699280Y-127598880D01*
X99800880Y-127299160D02*
X100199660Y-127400760D01*
X100199660Y-127400760D02*
X100499380Y-127499820D01*
X100499380Y-127499820D02*
X100799100Y-128000200D01*
X100799100Y-128000200D02*
X100900700Y-128599640D01*
X100900700Y-128599640D02*
X100799100Y-129699460D01*
X100799100Y-129699460D02*
X100499380Y-130298900D01*
X100499380Y-130298900D02*
X99899940Y-130499560D01*
X99899940Y-130499560D02*
X99198900Y-130400500D01*
X99198900Y-130400500D02*
X98800120Y-129801060D01*
X98800120Y-129801060D02*
X98701060Y-129100020D01*
X98701060Y-129100020D02*
X98701060Y-128398980D01*
X98701060Y-128398980D02*
X98899180Y-127799540D01*
X98899180Y-127799540D02*
X99300500Y-127400760D01*
X99300500Y-127400760D02*
X99800880Y-127299160D01*
X96399820Y-122201380D02*
X96900200Y-121800060D01*
X96900200Y-121800060D02*
X97298980Y-121299680D01*
X97298980Y-121299680D02*
X97499640Y-120799300D01*
X97499640Y-120799300D02*
X97499640Y-120100800D01*
X97499640Y-120100800D02*
X97398040Y-119501360D01*
X97398040Y-119501360D02*
X96999260Y-118899380D01*
X96999260Y-118899380D02*
X96199160Y-118299940D01*
X96199160Y-118299940D02*
X95399060Y-118200880D01*
X95399060Y-118200880D02*
X94698020Y-118200880D01*
X94698020Y-118200880D02*
X93999520Y-118701260D01*
X93999520Y-118701260D02*
X93499140Y-119399760D01*
X93499140Y-119399760D02*
X93298480Y-119999200D01*
X93298480Y-119999200D02*
X93298480Y-120700240D01*
X93298480Y-120700240D02*
X93598200Y-121500340D01*
X93598200Y-121500340D02*
X94098580Y-122000720D01*
X94098580Y-122000720D02*
X94398300Y-122201380D01*
X94398300Y-122300440D02*
X93649000Y-124550880D01*
X93649000Y-124550880D02*
X92798100Y-124101300D01*
X92798100Y-124101300D02*
X91500160Y-125099520D01*
X91500160Y-125099520D02*
X90499400Y-123999700D01*
X90499400Y-123999700D02*
X91398560Y-122699220D01*
X91398560Y-122699220D02*
X90898180Y-121401280D01*
X90898180Y-121401280D02*
X90898180Y-121200620D01*
X90898180Y-121200620D02*
X89297980Y-120900900D01*
X89297980Y-120900900D02*
X89297980Y-119399760D01*
X89297980Y-119399760D02*
X90898180Y-119201640D01*
X90898180Y-119201640D02*
X91500160Y-117799560D01*
X91500160Y-117799560D02*
X90598460Y-116400020D01*
X90598460Y-116400020D02*
X91698280Y-115399260D01*
X91698280Y-115399260D02*
X92998760Y-116300960D01*
X92998760Y-116300960D02*
X94200180Y-115800580D01*
X94200180Y-115800580D02*
X94598960Y-114200380D01*
X94598960Y-114200380D02*
X96100100Y-114200380D01*
X96100100Y-114200380D02*
X96399820Y-115800580D01*
X96399820Y-115800580D02*
X97700300Y-116300960D01*
X97700300Y-116300960D02*
X99099840Y-115300200D01*
X99099840Y-115300200D02*
X100199660Y-116400020D01*
X100199660Y-116400020D02*
X99198900Y-117700500D01*
X99198900Y-117700500D02*
X99899940Y-119201640D01*
X99899940Y-119201640D02*
X101500140Y-119399760D01*
X101500140Y-119399760D02*
X101599200Y-120799300D01*
X101599200Y-120799300D02*
X99999000Y-121101560D01*
X99999000Y-121101560D02*
X99399560Y-122699220D01*
X99399560Y-122699220D02*
X100298720Y-123999700D01*
X100298720Y-123999700D02*
X99297960Y-125099520D01*
X99297960Y-125099520D02*
X98000020Y-124200360D01*
X98000020Y-124200360D02*
X97298980Y-124500080D01*
X97298980Y-124500080D02*
X96399820Y-122201380D01*
X116596381Y-142666667D02*
X117310667Y-142666667D01*
X117453524Y-142619047D01*
X117548762Y-142523809D01*
X117596381Y-142380952D01*
X117596381Y-142285714D01*
X116596381Y-143047619D02*
X116596381Y-143666667D01*
X116977333Y-143333333D01*
X116977333Y-143476191D01*
X117024952Y-143571429D01*
X117072571Y-143619048D01*
X117167810Y-143666667D01*
X117405905Y-143666667D01*
X117501143Y-143619048D01*
X117548762Y-143571429D01*
X117596381Y-143476191D01*
X117596381Y-143190476D01*
X117548762Y-143095238D01*
X117501143Y-143047619D01*
M02*
