G04 #@! TF.FileFunction,Soldermask,Top*
%FSLAX46Y46*%
G04 Gerber Fmt 4.6, Leading zero omitted, Abs format (unit mm)*
G04 Created by KiCad (PCBNEW (2015-07-11 BZR 5925, Git c291b88)-product) date 9/14/2015 2:45:30 PM*
%MOMM*%
G01*
G04 APERTURE LIST*
%ADD10C,0.100000*%
%ADD11R,5.080000X1.778000*%
%ADD12R,0.800000X0.900000*%
%ADD13R,1.800000X1.230000*%
%ADD14R,0.900000X2.500000*%
%ADD15R,2.500000X0.900000*%
%ADD16R,1.550000X2.780000*%
%ADD17R,6.740000X6.730000*%
%ADD18R,0.749300X0.398780*%
%ADD19R,1.727200X1.727200*%
%ADD20O,1.727200X1.727200*%
%ADD21R,0.700000X1.300000*%
%ADD22R,1.727200X2.032000*%
%ADD23O,1.727200X2.032000*%
%ADD24C,1.800000*%
%ADD25R,1.350000X0.400000*%
%ADD26C,1.250000*%
%ADD27R,2.100000X1.100000*%
%ADD28R,0.250000X1.000000*%
%ADD29R,1.000000X0.250000*%
%ADD30R,0.450000X1.750000*%
%ADD31R,1.750000X0.450000*%
%ADD32R,1.200000X1.400000*%
%ADD33R,2.180000X1.600000*%
%ADD34C,3.750000*%
%ADD35C,4.250000*%
%ADD36R,2.499360X2.301240*%
%ADD37C,0.254000*%
G04 APERTURE END LIST*
D10*
D11*
X42540000Y-140206000D03*
X42540000Y-143000000D03*
X42540000Y-145794000D03*
X42540000Y-148588000D03*
X42540000Y-137412000D03*
D12*
X49100000Y-114000000D03*
X50900000Y-114000000D03*
X104100000Y-124500000D03*
X105900000Y-124500000D03*
X104100000Y-122000000D03*
X105900000Y-122000000D03*
X62400000Y-136500000D03*
X60600000Y-136500000D03*
X62400000Y-139000000D03*
X60600000Y-139000000D03*
X42700000Y-134000000D03*
X44500000Y-134000000D03*
D13*
X49190000Y-116750000D03*
X51810000Y-116750000D03*
D12*
X51400000Y-119250000D03*
X49600000Y-119250000D03*
X98900000Y-146000000D03*
X97100000Y-146000000D03*
X69600000Y-146500000D03*
X71400000Y-146500000D03*
X88400000Y-127000000D03*
X86600000Y-127000000D03*
X83600000Y-141500000D03*
X85400000Y-141500000D03*
D14*
X42550000Y-122500000D03*
X45450000Y-122500000D03*
D15*
X105000000Y-129950000D03*
X105000000Y-127050000D03*
D14*
X42550000Y-126500000D03*
X45450000Y-126500000D03*
D12*
X85400000Y-144000000D03*
X83600000Y-144000000D03*
X85400000Y-146500000D03*
X83600000Y-146500000D03*
X80900000Y-122500000D03*
X79100000Y-122500000D03*
X84100000Y-122500000D03*
X85900000Y-122500000D03*
X92600000Y-117500000D03*
X94400000Y-117500000D03*
X98900000Y-117500000D03*
X97100000Y-117500000D03*
X42600000Y-131500000D03*
X44400000Y-131500000D03*
X86600000Y-136000000D03*
X88400000Y-136000000D03*
X86600000Y-133000000D03*
X88400000Y-133000000D03*
X76400000Y-117500000D03*
X74600000Y-117500000D03*
D16*
X60680000Y-122300000D03*
D17*
X58500000Y-115665000D03*
D16*
X56320000Y-122300000D03*
D18*
X97050040Y-147849760D03*
X97050040Y-148500000D03*
X97050040Y-149150240D03*
X98949960Y-149150240D03*
X98949960Y-148500000D03*
X98949960Y-147849760D03*
D19*
X74800000Y-125000000D03*
D20*
X74800000Y-122460000D03*
X72260000Y-125000000D03*
X72260000Y-122460000D03*
X69720000Y-125000000D03*
X69720000Y-122460000D03*
X67180000Y-125000000D03*
X67180000Y-122460000D03*
X64640000Y-125000000D03*
X64640000Y-122460000D03*
D19*
X69800000Y-117100000D03*
D20*
X69800000Y-114560000D03*
X67260000Y-117100000D03*
X67260000Y-114560000D03*
X64720000Y-117100000D03*
X64720000Y-114560000D03*
D21*
X94450000Y-114500000D03*
X92550000Y-114500000D03*
X97050000Y-114500000D03*
X98950000Y-114500000D03*
X82050000Y-136000000D03*
X83950000Y-136000000D03*
X82050000Y-133000000D03*
X83950000Y-133000000D03*
X76450000Y-114000000D03*
X74550000Y-114000000D03*
X50450000Y-127000000D03*
X48550000Y-127000000D03*
X78950000Y-125100000D03*
X80850000Y-125100000D03*
D22*
X59500000Y-126500000D03*
D23*
X56960000Y-126500000D03*
X54420000Y-126500000D03*
D24*
X41762540Y-111499100D03*
D25*
X44662540Y-113699100D03*
X44662540Y-114349100D03*
X44662540Y-114999100D03*
X44662540Y-115649100D03*
X44662540Y-116299100D03*
D26*
X44662540Y-112499100D03*
X44662540Y-117499100D03*
D24*
X41762540Y-118499100D03*
D27*
X41950000Y-113350000D03*
X41950000Y-116650000D03*
D24*
X106237460Y-118500900D03*
D25*
X103337460Y-116300900D03*
X103337460Y-115650900D03*
X103337460Y-115000900D03*
X103337460Y-114350900D03*
X103337460Y-113700900D03*
D26*
X103337460Y-117500900D03*
X103337460Y-112500900D03*
D24*
X106237460Y-111500900D03*
D27*
X106050000Y-116650000D03*
X106050000Y-113350000D03*
D22*
X88600000Y-152200000D03*
D23*
X86060000Y-152200000D03*
X83520000Y-152200000D03*
X80980000Y-152200000D03*
X78440000Y-152200000D03*
X75900000Y-152200000D03*
X73360000Y-152200000D03*
X70820000Y-152200000D03*
X68280000Y-152200000D03*
X65740000Y-152200000D03*
X63200000Y-152200000D03*
X60660000Y-152200000D03*
D12*
X66900000Y-144000000D03*
X65100000Y-144000000D03*
X63900000Y-129500000D03*
X62100000Y-129500000D03*
X62400000Y-141500000D03*
X60600000Y-141500000D03*
X66900000Y-146500000D03*
X65100000Y-146500000D03*
X60600000Y-144000000D03*
X62400000Y-144000000D03*
D28*
X77750000Y-132300000D03*
X77250000Y-132300000D03*
X76750000Y-132300000D03*
X76250000Y-132300000D03*
X75750000Y-132300000D03*
X75250000Y-132300000D03*
X74750000Y-132300000D03*
X74250000Y-132300000D03*
X73750000Y-132300000D03*
X73250000Y-132300000D03*
X72750000Y-132300000D03*
X72250000Y-132300000D03*
X71750000Y-132300000D03*
X71250000Y-132300000D03*
X70750000Y-132300000D03*
X70250000Y-132300000D03*
D29*
X68300000Y-134250000D03*
X68300000Y-134750000D03*
X68300000Y-135250000D03*
X68300000Y-135750000D03*
X68300000Y-136250000D03*
X68300000Y-136750000D03*
X68300000Y-137250000D03*
X68300000Y-137750000D03*
X68300000Y-138250000D03*
X68300000Y-138750000D03*
X68300000Y-139250000D03*
X68300000Y-139750000D03*
X68300000Y-140250000D03*
X68300000Y-140750000D03*
X68300000Y-141250000D03*
X68300000Y-141750000D03*
D28*
X70250000Y-143700000D03*
X70750000Y-143700000D03*
X71250000Y-143700000D03*
X71750000Y-143700000D03*
X72250000Y-143700000D03*
X72750000Y-143700000D03*
X73250000Y-143700000D03*
X73750000Y-143700000D03*
X74250000Y-143700000D03*
X74750000Y-143700000D03*
X75250000Y-143700000D03*
X75750000Y-143700000D03*
X76250000Y-143700000D03*
X76750000Y-143700000D03*
X77250000Y-143700000D03*
X77750000Y-143700000D03*
D29*
X79700000Y-141750000D03*
X79700000Y-141250000D03*
X79700000Y-140750000D03*
X79700000Y-140250000D03*
X79700000Y-139750000D03*
X79700000Y-139250000D03*
X79700000Y-138750000D03*
X79700000Y-138250000D03*
X79700000Y-137750000D03*
X79700000Y-137250000D03*
X79700000Y-136750000D03*
X79700000Y-136250000D03*
X79700000Y-135750000D03*
X79700000Y-135250000D03*
X79700000Y-134750000D03*
X79700000Y-134250000D03*
D30*
X92275000Y-128600000D03*
X92925000Y-128600000D03*
X93575000Y-128600000D03*
X94225000Y-128600000D03*
X94875000Y-128600000D03*
X95525000Y-128600000D03*
X96175000Y-128600000D03*
X96825000Y-128600000D03*
X97475000Y-128600000D03*
X98125000Y-128600000D03*
X98775000Y-128600000D03*
X99425000Y-128600000D03*
X100075000Y-128600000D03*
X100725000Y-128600000D03*
X100725000Y-121400000D03*
X100075000Y-121400000D03*
X99425000Y-121400000D03*
X98775000Y-121400000D03*
X98125000Y-121400000D03*
X97475000Y-121400000D03*
X96825000Y-121400000D03*
X96175000Y-121400000D03*
X95525000Y-121400000D03*
X94875000Y-121400000D03*
X94225000Y-121400000D03*
X93575000Y-121400000D03*
X92925000Y-121400000D03*
X92275000Y-121400000D03*
D31*
X49900000Y-137275000D03*
X49900000Y-137925000D03*
X49900000Y-138575000D03*
X49900000Y-139225000D03*
X49900000Y-139875000D03*
X49900000Y-140525000D03*
X49900000Y-141175000D03*
X49900000Y-141825000D03*
X49900000Y-142475000D03*
X49900000Y-143125000D03*
X49900000Y-143775000D03*
X49900000Y-144425000D03*
X49900000Y-145075000D03*
X49900000Y-145725000D03*
X57100000Y-145725000D03*
X57100000Y-145075000D03*
X57100000Y-144425000D03*
X57100000Y-143775000D03*
X57100000Y-143125000D03*
X57100000Y-142475000D03*
X57100000Y-141825000D03*
X57100000Y-141175000D03*
X57100000Y-140525000D03*
X57100000Y-139875000D03*
X57100000Y-139225000D03*
X57100000Y-138575000D03*
X57100000Y-137925000D03*
X57100000Y-137275000D03*
D30*
X98825000Y-136300000D03*
X98175000Y-136300000D03*
X97525000Y-136300000D03*
X96875000Y-136300000D03*
X96225000Y-136300000D03*
X95575000Y-136300000D03*
X94925000Y-136300000D03*
X94275000Y-136300000D03*
X93625000Y-136300000D03*
X92975000Y-136300000D03*
X92325000Y-136300000D03*
X91675000Y-136300000D03*
X91025000Y-136300000D03*
X90375000Y-136300000D03*
X90375000Y-143500000D03*
X91025000Y-143500000D03*
X91675000Y-143500000D03*
X92325000Y-143500000D03*
X92975000Y-143500000D03*
X93625000Y-143500000D03*
X94275000Y-143500000D03*
X94925000Y-143500000D03*
X95575000Y-143500000D03*
X96225000Y-143500000D03*
X96875000Y-143500000D03*
X97525000Y-143500000D03*
X98175000Y-143500000D03*
X98825000Y-143500000D03*
D32*
X63900000Y-134100000D03*
X63900000Y-131900000D03*
X62100000Y-131900000D03*
X62100000Y-134100000D03*
D33*
X91897570Y-151997680D03*
X101102430Y-152002320D03*
D12*
X71900000Y-129500000D03*
X70100000Y-129500000D03*
X53900000Y-130000000D03*
X52100000Y-130000000D03*
X51100000Y-148500000D03*
X52900000Y-148500000D03*
X94400000Y-148500000D03*
X92600000Y-148500000D03*
X51100000Y-151000000D03*
X52900000Y-151000000D03*
X94400000Y-146000000D03*
X92600000Y-146000000D03*
D34*
X85500000Y-112500000D03*
D35*
X85500000Y-118740000D03*
D34*
X80700000Y-115750000D03*
D33*
X48397570Y-133497680D03*
X57602430Y-133502320D03*
X100602430Y-132502320D03*
X91397570Y-132497680D03*
D12*
X47600000Y-130000000D03*
X49400000Y-130000000D03*
X104100000Y-132500000D03*
X105900000Y-132500000D03*
D11*
X105460000Y-147191000D03*
X105460000Y-144397000D03*
X105460000Y-141603000D03*
X105460000Y-138809000D03*
D36*
X52898840Y-122500000D03*
X48601160Y-122500000D03*
D37*
G36*
X71873000Y-110873000D02*
X56627000Y-110873000D01*
X56627000Y-105127000D01*
X71873000Y-105127000D01*
X71873000Y-110873000D01*
X71873000Y-110873000D01*
G37*
X71873000Y-110873000D02*
X56627000Y-110873000D01*
X56627000Y-105127000D01*
X71873000Y-105127000D01*
X71873000Y-110873000D01*
M02*
