G04 #@! TF.FileFunction,Soldermask,Bot*
%FSLAX46Y46*%
G04 Gerber Fmt 4.6, Leading zero omitted, Abs format (unit mm)*
G04 Created by KiCad (PCBNEW (2015-07-11 BZR 5925, Git c291b88)-product) date 9/14/2015 2:45:30 PM*
%MOMM*%
G01*
G04 APERTURE LIST*
%ADD10C,0.100000*%
%ADD11R,5.080000X1.778000*%
%ADD12R,1.727200X1.727200*%
%ADD13O,1.727200X1.727200*%
%ADD14R,1.727200X2.032000*%
%ADD15O,1.727200X2.032000*%
%ADD16C,1.800000*%
%ADD17C,1.250000*%
%ADD18C,3.750000*%
%ADD19C,4.250000*%
%ADD20C,0.254000*%
G04 APERTURE END LIST*
D10*
D11*
X42540000Y-147191000D03*
X42540000Y-144397000D03*
X42540000Y-141603000D03*
X42540000Y-138809000D03*
D12*
X74800000Y-125000000D03*
D13*
X74800000Y-122460000D03*
X72260000Y-125000000D03*
X72260000Y-122460000D03*
X69720000Y-125000000D03*
X69720000Y-122460000D03*
X67180000Y-125000000D03*
X67180000Y-122460000D03*
X64640000Y-125000000D03*
X64640000Y-122460000D03*
D12*
X69800000Y-117100000D03*
D13*
X69800000Y-114560000D03*
X67260000Y-117100000D03*
X67260000Y-114560000D03*
X64720000Y-117100000D03*
X64720000Y-114560000D03*
D14*
X59500000Y-126500000D03*
D15*
X56960000Y-126500000D03*
X54420000Y-126500000D03*
D16*
X41762540Y-111499100D03*
D17*
X44662540Y-112499100D03*
X44662540Y-117499100D03*
D16*
X41762540Y-118499100D03*
X106237460Y-118500900D03*
D17*
X103337460Y-117500900D03*
X103337460Y-112500900D03*
D16*
X106237460Y-111500900D03*
D14*
X88600000Y-152200000D03*
D15*
X86060000Y-152200000D03*
X83520000Y-152200000D03*
X80980000Y-152200000D03*
X78440000Y-152200000D03*
X75900000Y-152200000D03*
X73360000Y-152200000D03*
X70820000Y-152200000D03*
X68280000Y-152200000D03*
X65740000Y-152200000D03*
X63200000Y-152200000D03*
X60660000Y-152200000D03*
D18*
X85500000Y-112500000D03*
D19*
X85500000Y-118740000D03*
D18*
X80700000Y-115750000D03*
D11*
X105460000Y-140206000D03*
X105460000Y-143000000D03*
X105460000Y-145794000D03*
X105460000Y-148588000D03*
X105460000Y-137412000D03*
D20*
G36*
X71873000Y-110873000D02*
X56627000Y-110873000D01*
X56627000Y-105127000D01*
X71873000Y-105127000D01*
X71873000Y-110873000D01*
X71873000Y-110873000D01*
G37*
X71873000Y-110873000D02*
X56627000Y-110873000D01*
X56627000Y-105127000D01*
X71873000Y-105127000D01*
X71873000Y-110873000D01*
M02*
