G04 #@! TF.FileFunction,Copper,L2,Bot,Signal*
%FSLAX46Y46*%
G04 Gerber Fmt 4.6, Leading zero omitted, Abs format (unit mm)*
G04 Created by KiCad (PCBNEW (2015-07-11 BZR 5925, Git c291b88)-product) date 9/14/2015 2:45:29 PM*
%MOMM*%
G01*
G04 APERTURE LIST*
%ADD10C,0.100000*%
%ADD11R,5.080000X1.778000*%
%ADD12R,1.727200X1.727200*%
%ADD13O,1.727200X1.727200*%
%ADD14R,1.727200X2.032000*%
%ADD15O,1.727200X2.032000*%
%ADD16C,1.800000*%
%ADD17C,1.250000*%
%ADD18C,3.750000*%
%ADD19C,4.250000*%
%ADD20C,0.600000*%
%ADD21C,0.750000*%
%ADD22C,0.250000*%
%ADD23C,0.500000*%
%ADD24C,0.254000*%
G04 APERTURE END LIST*
D10*
D11*
X42540000Y-147191000D03*
X42540000Y-144397000D03*
X42540000Y-141603000D03*
X42540000Y-138809000D03*
D12*
X74800000Y-125000000D03*
D13*
X74800000Y-122460000D03*
X72260000Y-125000000D03*
X72260000Y-122460000D03*
X69720000Y-125000000D03*
X69720000Y-122460000D03*
X67180000Y-125000000D03*
X67180000Y-122460000D03*
X64640000Y-125000000D03*
X64640000Y-122460000D03*
D12*
X69800000Y-117100000D03*
D13*
X69800000Y-114560000D03*
X67260000Y-117100000D03*
X67260000Y-114560000D03*
X64720000Y-117100000D03*
X64720000Y-114560000D03*
D14*
X59500000Y-126500000D03*
D15*
X56960000Y-126500000D03*
X54420000Y-126500000D03*
D16*
X41762540Y-111499100D03*
D17*
X44662540Y-112499100D03*
X44662540Y-117499100D03*
D16*
X41762540Y-118499100D03*
X106237460Y-118500900D03*
D17*
X103337460Y-117500900D03*
X103337460Y-112500900D03*
D16*
X106237460Y-111500900D03*
D14*
X88600000Y-152200000D03*
D15*
X86060000Y-152200000D03*
X83520000Y-152200000D03*
X80980000Y-152200000D03*
X78440000Y-152200000D03*
X75900000Y-152200000D03*
X73360000Y-152200000D03*
X70820000Y-152200000D03*
X68280000Y-152200000D03*
X65740000Y-152200000D03*
X63200000Y-152200000D03*
X60660000Y-152200000D03*
D18*
X85500000Y-112500000D03*
D19*
X85500000Y-118740000D03*
D18*
X80700000Y-115750000D03*
D11*
X105460000Y-140206000D03*
X105460000Y-143000000D03*
X105460000Y-145794000D03*
X105460000Y-148588000D03*
X105460000Y-137412000D03*
D20*
X58250000Y-111250000D03*
X54250000Y-111250000D03*
X53000000Y-113000000D03*
X53000000Y-115000000D03*
X48250000Y-118500000D03*
X48250000Y-120250000D03*
X44600000Y-160500000D03*
X56700000Y-160600000D03*
X69500000Y-160700000D03*
X83600000Y-160700000D03*
X101400000Y-161500000D03*
X105600000Y-151300000D03*
X59700000Y-129100000D03*
X55200000Y-132100000D03*
X70100000Y-130900000D03*
X100900000Y-134300000D03*
X101600000Y-137500000D03*
X101600000Y-140900000D03*
X105900000Y-123300000D03*
X98900000Y-119200000D03*
X44900000Y-117800000D03*
X97900000Y-148500000D03*
X50500000Y-133600000D03*
X42600000Y-130000000D03*
X46000000Y-130100000D03*
X96200000Y-131000000D03*
X84500000Y-128000000D03*
X96300000Y-123200000D03*
X93600000Y-119400000D03*
X53000000Y-131800000D03*
X52800000Y-137400000D03*
X73400000Y-130700000D03*
X60100000Y-135100000D03*
X65300000Y-131900000D03*
X81000000Y-146000000D03*
X84300000Y-145300000D03*
X88000000Y-144400000D03*
X96300000Y-141900000D03*
X84100000Y-140500000D03*
X78600000Y-140500000D03*
X96800000Y-139100000D03*
X76300000Y-115600000D03*
X92600000Y-137800000D03*
X47100000Y-137400000D03*
X62400000Y-142800000D03*
X70300000Y-142100000D03*
X66200000Y-141900000D03*
X66100000Y-138800000D03*
X75200000Y-133700000D03*
X68900000Y-132700000D03*
X71500000Y-134800000D03*
X77500000Y-137100000D03*
X71900000Y-141900000D03*
X44900000Y-135100000D03*
X43600000Y-135100000D03*
X55300000Y-138700000D03*
X60600000Y-137700000D03*
X52000000Y-143600000D03*
X42400000Y-152200000D03*
X55900000Y-152500000D03*
X46600000Y-148500000D03*
D21*
X48300000Y-125600000D03*
X42400000Y-125000000D03*
X41200000Y-134800000D03*
D20*
X97300000Y-126900000D03*
X97500000Y-123000000D03*
X93100000Y-141600000D03*
D21*
X89300000Y-136700000D03*
X71700000Y-128100000D03*
D20*
X77400000Y-128300000D03*
X87700000Y-141400000D03*
X96100000Y-150900000D03*
X99400000Y-150900000D03*
X88200000Y-147000000D03*
X95900000Y-148000000D03*
X88500000Y-146200000D03*
X92800000Y-151000000D03*
X102400000Y-149300000D03*
X45700000Y-144400000D03*
X51600000Y-137900000D03*
X51600000Y-135500000D03*
X55400000Y-136100000D03*
X57300000Y-134900000D03*
X98500000Y-134700000D03*
X100700000Y-136500000D03*
X101900000Y-143600000D03*
X46300000Y-142800000D03*
X98100000Y-150000000D03*
X76500000Y-123700000D03*
X73300000Y-142400000D03*
X57000000Y-154000000D03*
X41400000Y-124000000D03*
X47600000Y-127100000D03*
X78100000Y-142100000D03*
X79600000Y-142700000D03*
X78100000Y-141200000D03*
X80500000Y-143000000D03*
X98500000Y-123200000D03*
X98200000Y-126200000D03*
X70100000Y-127100000D03*
X77100000Y-127000000D03*
X66600000Y-134100000D03*
X54800000Y-128200000D03*
X66500000Y-135000000D03*
X65700000Y-135300000D03*
X54400000Y-128900000D03*
X74600000Y-147800000D03*
X89700000Y-148300000D03*
X91700000Y-145100000D03*
X79000000Y-146500000D03*
X77900000Y-148200000D03*
X72300000Y-150000000D03*
X73400000Y-149900000D03*
X90500000Y-134700000D03*
X76500000Y-146200000D03*
X88800000Y-141400000D03*
X79500000Y-144900000D03*
X81300000Y-143600000D03*
X81400000Y-141500000D03*
X74100000Y-149300000D03*
X72900000Y-148100000D03*
X52200000Y-147600000D03*
X52200000Y-145000000D03*
X53400000Y-142300000D03*
X53400000Y-140100000D03*
X73800000Y-148500000D03*
X54100000Y-143900000D03*
X52700000Y-149800000D03*
X75000000Y-145700000D03*
X76800000Y-150400000D03*
X77800000Y-150400000D03*
X75700000Y-146200000D03*
X89700000Y-141100000D03*
X93700000Y-133700000D03*
X82000000Y-147400000D03*
X93300000Y-132800000D03*
X90200000Y-140400000D03*
X81200000Y-148000000D03*
X68200000Y-129200000D03*
X78100000Y-129200000D03*
X86300000Y-138500000D03*
X84800000Y-137000000D03*
X54300000Y-140300000D03*
X59900000Y-143100000D03*
X55300000Y-141200000D03*
X59200000Y-143700000D03*
X94600000Y-153300000D03*
X95200000Y-145000000D03*
X56900000Y-150000000D03*
X63400000Y-145800000D03*
X57700000Y-150300000D03*
X62100000Y-147200000D03*
X58600000Y-150100000D03*
X64300000Y-147900000D03*
X53500000Y-148500000D03*
X55000000Y-144500000D03*
X54200000Y-149100000D03*
X55600000Y-145300000D03*
D22*
X54250000Y-111250000D02*
X58250000Y-111250000D01*
X53000000Y-115000000D02*
X53000000Y-113000000D01*
X48250000Y-120250000D02*
X48250000Y-118500000D01*
X44600000Y-160500000D02*
X45800000Y-161700000D01*
X55600000Y-161700000D02*
X56700000Y-160600000D01*
X45800000Y-161700000D02*
X55600000Y-161700000D01*
X69500000Y-160700000D02*
X83600000Y-160700000D01*
X101400000Y-161500000D02*
X105600000Y-157300000D01*
X105600000Y-157300000D02*
X105600000Y-151300000D01*
X53000000Y-131800000D02*
X54900000Y-131800000D01*
X59700000Y-129100000D02*
X60100000Y-129100000D01*
X54900000Y-131800000D02*
X55200000Y-132100000D01*
X70100000Y-130900000D02*
X69600000Y-130900000D01*
X105460000Y-143000000D02*
X102400000Y-143000000D01*
X101600000Y-142200000D02*
X101600000Y-141600000D01*
X102400000Y-143000000D02*
X101600000Y-142200000D01*
X101600000Y-141200000D02*
X101600000Y-140900000D01*
X101800000Y-135200000D02*
X100900000Y-134300000D01*
X101800000Y-137300000D02*
X101800000Y-135200000D01*
X101600000Y-137500000D02*
X101800000Y-137300000D01*
X101600000Y-141600000D02*
X101600000Y-141200000D01*
X105900000Y-123300000D02*
X105900000Y-121900000D01*
X99000000Y-119300000D02*
X99400000Y-119300000D01*
X98900000Y-119200000D02*
X99000000Y-119300000D01*
X97900000Y-148500000D02*
X97900000Y-148300000D01*
X47100000Y-137400000D02*
X48200000Y-136900000D01*
X50500000Y-134600000D02*
X50500000Y-133600000D01*
X48200000Y-136900000D02*
X50500000Y-134600000D01*
X44900000Y-135100000D02*
X44900000Y-132300000D01*
X42600000Y-130000000D02*
X42600000Y-129300000D01*
X44900000Y-132300000D02*
X46000000Y-130100000D01*
X96200000Y-131000000D02*
X96800000Y-131000000D01*
X84400000Y-127900000D02*
X83500000Y-127900000D01*
X84500000Y-128000000D02*
X84400000Y-127900000D01*
X96200000Y-123300000D02*
X95800000Y-123300000D01*
X96300000Y-123200000D02*
X96200000Y-123300000D01*
X93600000Y-119400000D02*
X94000000Y-119400000D01*
X53000000Y-131800000D02*
X52800000Y-132000000D01*
X52800000Y-132000000D02*
X52800000Y-137400000D01*
X75200000Y-133700000D02*
X75200000Y-132500000D01*
X75200000Y-132500000D02*
X73400000Y-130700000D01*
X60131801Y-135068199D02*
X60131801Y-134768199D01*
X60100000Y-135100000D02*
X60131801Y-135068199D01*
X66100000Y-138800000D02*
X68900000Y-136000000D01*
X68900000Y-136000000D02*
X68900000Y-132700000D01*
X84300000Y-145300000D02*
X81700000Y-145300000D01*
X81700000Y-145300000D02*
X81000000Y-146000000D01*
X88000000Y-144400000D02*
X85400000Y-144400000D01*
X84500000Y-145300000D02*
X84300000Y-145300000D01*
X85400000Y-144400000D02*
X84500000Y-145300000D01*
X86800000Y-141800000D02*
X86800000Y-143200000D01*
X84100000Y-140500000D02*
X85400000Y-141800000D01*
X86800000Y-141800000D02*
X85400000Y-141800000D01*
X86800000Y-143200000D02*
X88000000Y-144400000D01*
X96300000Y-141900000D02*
X96100000Y-141900000D01*
X84100000Y-140500000D02*
X83600000Y-140500000D01*
X78700000Y-140400000D02*
X78700000Y-140300000D01*
X78600000Y-140500000D02*
X78700000Y-140400000D01*
X92600000Y-137800000D02*
X95500000Y-137800000D01*
X95500000Y-137800000D02*
X96800000Y-139100000D01*
X76200000Y-115700000D02*
X75900000Y-115700000D01*
X76300000Y-115600000D02*
X76200000Y-115700000D01*
X92600000Y-137800000D02*
X92300000Y-137800000D01*
X44900000Y-135100000D02*
X46000000Y-135100000D01*
X46000000Y-135100000D02*
X47100000Y-137400000D01*
X66200000Y-141900000D02*
X63300000Y-141900000D01*
X63300000Y-141900000D02*
X62400000Y-142800000D01*
X70300000Y-142100000D02*
X70100000Y-142300000D01*
X66100000Y-138800000D02*
X66100000Y-141800000D01*
X66100000Y-141800000D02*
X66200000Y-141900000D01*
X65900000Y-138600000D02*
X65800000Y-138600000D01*
X66100000Y-138800000D02*
X65900000Y-138600000D01*
X75200000Y-133700000D02*
X75700000Y-133700000D01*
X69400000Y-132700000D02*
X68900000Y-132700000D01*
X71500000Y-134800000D02*
X69400000Y-132700000D01*
X76700000Y-137100000D02*
X77500000Y-137100000D01*
X71900000Y-141900000D02*
X76700000Y-137100000D01*
X43600000Y-135100000D02*
X44900000Y-135100000D01*
X55300000Y-138700000D02*
X55300000Y-139100000D01*
X60600000Y-137700000D02*
X61000000Y-137700000D01*
X52000000Y-143600000D02*
X51500000Y-143600000D01*
X51500000Y-143600000D02*
X46600000Y-148500000D01*
X52100000Y-143700000D02*
X52100000Y-143900000D01*
X52000000Y-143600000D02*
X52100000Y-143700000D01*
X46600000Y-148500000D02*
X46100000Y-148500000D01*
X46100000Y-148500000D02*
X42400000Y-152200000D01*
X55900000Y-152500000D02*
X55900000Y-152100000D01*
D23*
X43000000Y-125600000D02*
X42400000Y-125000000D01*
X48300000Y-125600000D02*
X43000000Y-125600000D01*
X42540000Y-138809000D02*
X42540000Y-136140000D01*
X42540000Y-136140000D02*
X41200000Y-134800000D01*
X42300000Y-138569000D02*
X42540000Y-138809000D01*
X97300000Y-123200000D02*
X97500000Y-123000000D01*
X97300000Y-126900000D02*
X97300000Y-123200000D01*
X87700000Y-141400000D02*
X87700000Y-141600000D01*
X87700000Y-141600000D02*
X88400000Y-142300000D01*
X88400000Y-142300000D02*
X89300000Y-142300000D01*
X89300000Y-142300000D02*
X89600000Y-142000000D01*
X89600000Y-142000000D02*
X92700000Y-142000000D01*
X92700000Y-142000000D02*
X93100000Y-141600000D01*
X87700000Y-140800000D02*
X87700000Y-141400000D01*
X89300000Y-139200000D02*
X87700000Y-140800000D01*
X89300000Y-136700000D02*
X89300000Y-139200000D01*
X77400000Y-128300000D02*
X77200000Y-128100000D01*
X77200000Y-128100000D02*
X71700000Y-128100000D01*
D22*
X72260000Y-122460000D02*
X71100000Y-121300000D01*
X71100000Y-115860000D02*
X69800000Y-114560000D01*
X71100000Y-121300000D02*
X71100000Y-115860000D01*
X96100000Y-150900000D02*
X99400000Y-150900000D01*
X88200000Y-147800000D02*
X88200000Y-147000000D01*
X89400000Y-149000000D02*
X88200000Y-147800000D01*
X94900000Y-149000000D02*
X89400000Y-149000000D01*
X95900000Y-148000000D02*
X96000000Y-147900000D01*
X95900000Y-148000000D02*
X94900000Y-149000000D01*
X90700000Y-149500000D02*
X91300000Y-149500000D01*
X88500000Y-146200000D02*
X88000000Y-146200000D01*
X88000000Y-146200000D02*
X87500000Y-146700000D01*
X87500000Y-146700000D02*
X87500000Y-147900000D01*
X87500000Y-147900000D02*
X89100000Y-149500000D01*
X89100000Y-149500000D02*
X90700000Y-149500000D01*
X91300000Y-149500000D02*
X92800000Y-151000000D01*
X105460000Y-148588000D02*
X103612000Y-148588000D01*
X103612000Y-148588000D02*
X102400000Y-149300000D01*
X42540000Y-144397000D02*
X45697000Y-144397000D01*
X45697000Y-144397000D02*
X45700000Y-144400000D01*
X51600000Y-137900000D02*
X51600000Y-135500000D01*
X42540000Y-144397000D02*
X42543000Y-144400000D01*
X55400000Y-136100000D02*
X56600000Y-134900000D01*
X56600000Y-134900000D02*
X57300000Y-134900000D01*
X100300000Y-136500000D02*
X100700000Y-136500000D01*
X98500000Y-134700000D02*
X100300000Y-136500000D01*
X105460000Y-145794000D02*
X104094000Y-145794000D01*
X104094000Y-145794000D02*
X101900000Y-143600000D01*
X105460000Y-145794000D02*
X104194000Y-145794000D01*
X105460000Y-145794000D02*
X104294000Y-145794000D01*
X46500000Y-145200000D02*
X46500000Y-143000000D01*
X46500000Y-143000000D02*
X46300000Y-142800000D01*
X44509000Y-147191000D02*
X46500000Y-145200000D01*
X42540000Y-147191000D02*
X44509000Y-147191000D01*
X42540000Y-147191000D02*
X44009000Y-147191000D01*
X95900000Y-150000000D02*
X95300000Y-150600000D01*
X94900000Y-154000000D02*
X94000000Y-154000000D01*
X95300000Y-153600000D02*
X94900000Y-154000000D01*
X95300000Y-150600000D02*
X95300000Y-153600000D01*
X98100000Y-150000000D02*
X95900000Y-150000000D01*
X90700000Y-154000000D02*
X94000000Y-154000000D01*
X90000000Y-154000000D02*
X74600000Y-154000000D01*
X90000000Y-154000000D02*
X90700000Y-154000000D01*
X69720000Y-122460000D02*
X69800000Y-122380000D01*
X69800000Y-122380000D02*
X69800000Y-117100000D01*
X70960000Y-123700000D02*
X69720000Y-122460000D01*
X76500000Y-123700000D02*
X70960000Y-123700000D01*
X74600000Y-154000000D02*
X74600000Y-151300000D01*
X73300000Y-145500000D02*
X73300000Y-142400000D01*
X75300000Y-147500000D02*
X73300000Y-145500000D01*
X75300000Y-150600000D02*
X75300000Y-147500000D01*
X74600000Y-151300000D02*
X75300000Y-150600000D01*
X74600000Y-154000000D02*
X74700000Y-154000000D01*
X74700000Y-154000000D02*
X74500000Y-154000000D01*
X74500000Y-154000000D02*
X57000000Y-154000000D01*
D23*
X41400000Y-125400000D02*
X41400000Y-124000000D01*
X42500000Y-126500000D02*
X41400000Y-125400000D01*
X46400000Y-126500000D02*
X42500000Y-126500000D01*
X47600000Y-127100000D02*
X46400000Y-126500000D01*
D22*
X78100000Y-142100000D02*
X78700000Y-142700000D01*
X78700000Y-142700000D02*
X79600000Y-142700000D01*
X78100000Y-141200000D02*
X78900000Y-142000000D01*
X78900000Y-142000000D02*
X80000000Y-142000000D01*
X80000000Y-142000000D02*
X80500000Y-142500000D01*
X80500000Y-142500000D02*
X80500000Y-143000000D01*
X98200000Y-123500000D02*
X98500000Y-123200000D01*
X98200000Y-126200000D02*
X98200000Y-123500000D01*
D23*
X77100000Y-127000000D02*
X77000000Y-127100000D01*
X77000000Y-127100000D02*
X70100000Y-127100000D01*
D22*
X58700000Y-131100000D02*
X54420000Y-126820000D01*
X54420000Y-126820000D02*
X54420000Y-126500000D01*
X58700000Y-131100000D02*
X61600000Y-134000000D01*
X61600000Y-134000000D02*
X66500000Y-134000000D01*
X66500000Y-134000000D02*
X66600000Y-134100000D01*
X55200000Y-128400000D02*
X55000000Y-128400000D01*
X55000000Y-128400000D02*
X54800000Y-128200000D01*
X58000000Y-131200000D02*
X55200000Y-128400000D01*
X61400000Y-134600000D02*
X58000000Y-131200000D01*
X64400000Y-134600000D02*
X61400000Y-134600000D01*
X64500000Y-134600000D02*
X64400000Y-134600000D01*
X66500000Y-135000000D02*
X66100000Y-134600000D01*
X66100000Y-134600000D02*
X64500000Y-134600000D01*
X54600000Y-129100000D02*
X55100000Y-129100000D01*
X65700000Y-135300000D02*
X64000000Y-135300000D01*
X61300000Y-135300000D02*
X64000000Y-135300000D01*
X57900000Y-131900000D02*
X57100000Y-131100000D01*
X57900000Y-131900000D02*
X61300000Y-135300000D01*
X57100000Y-131100000D02*
X55100000Y-129100000D01*
X54400000Y-128900000D02*
X54600000Y-129100000D01*
X74600000Y-147800000D02*
X74800000Y-148000000D01*
X74800000Y-148000000D02*
X74800000Y-150300000D01*
X73360000Y-151740000D02*
X74800000Y-150300000D01*
X73360000Y-152200000D02*
X73360000Y-151740000D01*
X89700000Y-148300000D02*
X91700000Y-146300000D01*
X91700000Y-146300000D02*
X91700000Y-145100000D01*
X79000000Y-147100000D02*
X79000000Y-146500000D01*
X77900000Y-148200000D02*
X79000000Y-147100000D01*
X68280000Y-152200000D02*
X70180000Y-150300000D01*
X70180000Y-150300000D02*
X72000000Y-150300000D01*
X72000000Y-150300000D02*
X72300000Y-150000000D01*
X65740000Y-152200000D02*
X67140000Y-150800000D01*
X72800000Y-149300000D02*
X73400000Y-149900000D01*
X70400000Y-149300000D02*
X72800000Y-149300000D01*
X68900000Y-150800000D02*
X70400000Y-149300000D01*
X67140000Y-150800000D02*
X68900000Y-150800000D01*
X90200000Y-136500000D02*
X90200000Y-135000000D01*
X90200000Y-135000000D02*
X90500000Y-134700000D01*
X77800000Y-144900000D02*
X79500000Y-144900000D01*
X76500000Y-146200000D02*
X77800000Y-144900000D01*
X90200000Y-136500000D02*
X90200000Y-139300000D01*
X88800000Y-141400000D02*
X88800000Y-140700000D01*
X88800000Y-140700000D02*
X90200000Y-139300000D01*
X72210000Y-150810000D02*
X73590000Y-150810000D01*
X81300000Y-143600000D02*
X81400000Y-143500000D01*
X81400000Y-143500000D02*
X81400000Y-141500000D01*
X74100000Y-150300000D02*
X74100000Y-149300000D01*
X73590000Y-150810000D02*
X74100000Y-150300000D01*
X70820000Y-152200000D02*
X72210000Y-150810000D01*
X72210000Y-150810000D02*
X72220000Y-150800000D01*
X60660000Y-152200000D02*
X61300000Y-152200000D01*
X61300000Y-152200000D02*
X63700000Y-149800000D01*
X72700000Y-148300000D02*
X72900000Y-148100000D01*
X70000000Y-148300000D02*
X72700000Y-148300000D01*
X68500000Y-149800000D02*
X70000000Y-148300000D01*
X63700000Y-149800000D02*
X68500000Y-149800000D01*
X52200000Y-147600000D02*
X52300000Y-147500000D01*
X52300000Y-147500000D02*
X52300000Y-145100000D01*
X52300000Y-145100000D02*
X52200000Y-145000000D01*
X53400000Y-142300000D02*
X53400000Y-140100000D01*
X72700000Y-148800000D02*
X73500000Y-148800000D01*
X73500000Y-148800000D02*
X73800000Y-148500000D01*
X63200000Y-152200000D02*
X63600000Y-152200000D01*
X63600000Y-152200000D02*
X65500000Y-150300000D01*
X73500000Y-148800000D02*
X73900000Y-148400000D01*
X70200000Y-148800000D02*
X72700000Y-148800000D01*
X68700000Y-150300000D02*
X70200000Y-148800000D01*
X65500000Y-150300000D02*
X68700000Y-150300000D01*
X54100000Y-143900000D02*
X54100000Y-144763602D01*
X52900000Y-145963602D02*
X52900000Y-146000000D01*
X54100000Y-144763602D02*
X52900000Y-145963602D01*
X52700000Y-148300000D02*
X52700000Y-149800000D01*
X52900000Y-148100000D02*
X52700000Y-148300000D01*
X52900000Y-146000000D02*
X52900000Y-148100000D01*
X75000000Y-146500000D02*
X75000000Y-145700000D01*
X75800000Y-147300000D02*
X75000000Y-146500000D01*
X75800000Y-149400000D02*
X75800000Y-147300000D01*
X76800000Y-150400000D02*
X75800000Y-149400000D01*
X76300000Y-148900000D02*
X77800000Y-150400000D01*
X76300000Y-147100000D02*
X76300000Y-148900000D01*
X75700000Y-146500000D02*
X76300000Y-147100000D01*
X75700000Y-146200000D02*
X75700000Y-146500000D01*
X90700000Y-141100000D02*
X89700000Y-141100000D01*
X91100000Y-140700000D02*
X90700000Y-141100000D01*
X91800000Y-135300000D02*
X91150002Y-135949998D01*
X91150002Y-135949998D02*
X91150002Y-140649998D01*
X91150002Y-140649998D02*
X91100000Y-140700000D01*
X93400000Y-133700000D02*
X91800000Y-135300000D01*
X93700000Y-133700000D02*
X93400000Y-133700000D01*
X80980000Y-149220000D02*
X80980000Y-152200000D01*
X81900000Y-148300000D02*
X80980000Y-149220000D01*
X81900000Y-147500000D02*
X81900000Y-148300000D01*
X82000000Y-147400000D02*
X81900000Y-147500000D01*
X91700000Y-134600000D02*
X93300000Y-133000000D01*
X91700000Y-134600000D02*
X90700000Y-135600000D01*
X90700000Y-135600000D02*
X90700000Y-138700000D01*
X90200000Y-140400000D02*
X90700000Y-139900000D01*
X90700000Y-138700000D02*
X90700000Y-139900000D01*
X93300000Y-133000000D02*
X93300000Y-132800000D01*
X90200000Y-140400000D02*
X90600000Y-140000000D01*
X78440000Y-150760000D02*
X78440000Y-152200000D01*
X81200000Y-148000000D02*
X78440000Y-150760000D01*
X74600000Y-129200000D02*
X68200000Y-129200000D01*
X78100000Y-129200000D02*
X74600000Y-129200000D01*
X86300000Y-138500000D02*
X84800000Y-137000000D01*
X57100000Y-140300000D02*
X54300000Y-140300000D01*
X59900000Y-143100000D02*
X57100000Y-140300000D01*
X55300000Y-141200000D02*
X55700000Y-140800000D01*
X59200000Y-143100000D02*
X59200000Y-143700000D01*
X56900000Y-140800000D02*
X59200000Y-143100000D01*
X55700000Y-140800000D02*
X56900000Y-140800000D01*
X94700000Y-153200000D02*
X94700000Y-150200000D01*
X94600000Y-153300000D02*
X94700000Y-153200000D01*
X95000000Y-145700000D02*
X95000000Y-146100000D01*
X95000000Y-145700000D02*
X95000000Y-145200000D01*
X95200000Y-145000000D02*
X95000000Y-145200000D01*
X95000000Y-146100000D02*
X96600000Y-147700000D01*
X96600000Y-147700000D02*
X96600000Y-148300000D01*
X96600000Y-148300000D02*
X94700000Y-150200000D01*
X56900000Y-150000000D02*
X60400000Y-146500000D01*
X60400000Y-146500000D02*
X62700000Y-146500000D01*
X62700000Y-146500000D02*
X63400000Y-145800000D01*
X57700000Y-150300000D02*
X57700000Y-150000000D01*
X57700000Y-150000000D02*
X60500000Y-147200000D01*
X60500000Y-147200000D02*
X62100000Y-147200000D01*
X58600000Y-150100000D02*
X58600000Y-149800000D01*
X61700000Y-147700000D02*
X61900000Y-147900000D01*
X60700000Y-147700000D02*
X61700000Y-147700000D01*
X58600000Y-149800000D02*
X60700000Y-147700000D01*
X61900000Y-147900000D02*
X64300000Y-147900000D01*
X53500000Y-146000000D02*
X53500000Y-148500000D01*
X55000000Y-144500000D02*
X53500000Y-146000000D01*
X55600000Y-145300000D02*
X55000000Y-145300000D01*
X54000000Y-147900000D02*
X54200000Y-148100000D01*
X54000000Y-146300000D02*
X54000000Y-147900000D01*
X55000000Y-145300000D02*
X54000000Y-146300000D01*
X54200000Y-148100000D02*
X54200000Y-149100000D01*
D24*
G36*
X105364126Y-105706707D02*
X106520577Y-106479423D01*
X107293293Y-107635874D01*
X107573000Y-109042055D01*
X107573000Y-111250190D01*
X107383699Y-110766818D01*
X107354310Y-110722834D01*
X107141929Y-110634614D01*
X106275644Y-111500900D01*
X107141929Y-112367186D01*
X107354310Y-112278966D01*
X107567048Y-111792339D01*
X107573000Y-111486091D01*
X107573000Y-118250190D01*
X107383699Y-117766818D01*
X107354310Y-117722834D01*
X107141929Y-117634614D01*
X106275644Y-118500900D01*
X107141929Y-119367186D01*
X107354310Y-119278966D01*
X107567048Y-118792339D01*
X107573000Y-118486091D01*
X107573000Y-136088000D01*
X105595750Y-136088000D01*
X105487000Y-136196750D01*
X105487000Y-137385000D01*
X105507000Y-137385000D01*
X105507000Y-137439000D01*
X105487000Y-137439000D01*
X105487000Y-138627250D01*
X105595750Y-138736000D01*
X107573000Y-138736000D01*
X107573000Y-138932614D01*
X102920000Y-138932614D01*
X102776251Y-138960505D01*
X102649909Y-139043498D01*
X102565337Y-139168788D01*
X102535614Y-139317000D01*
X102535614Y-141095000D01*
X102563505Y-141238749D01*
X102646498Y-141365091D01*
X102771788Y-141449663D01*
X102920000Y-141479386D01*
X107573000Y-141479386D01*
X107573000Y-141676000D01*
X105595750Y-141676000D01*
X105487000Y-141784750D01*
X105487000Y-142973000D01*
X105507000Y-142973000D01*
X105507000Y-143027000D01*
X105487000Y-143027000D01*
X105487000Y-144215250D01*
X105595750Y-144324000D01*
X107573000Y-144324000D01*
X107573000Y-144520614D01*
X103530549Y-144520614D01*
X103333936Y-144324000D01*
X105324250Y-144324000D01*
X105433000Y-144215250D01*
X105433000Y-143027000D01*
X102593750Y-143027000D01*
X102485000Y-143135750D01*
X102485000Y-143242987D01*
X102474267Y-143217011D01*
X102283990Y-143026402D01*
X102035254Y-142923118D01*
X101765927Y-142922883D01*
X101517011Y-143025733D01*
X101326402Y-143216010D01*
X101223118Y-143464746D01*
X101222883Y-143734073D01*
X101325733Y-143982989D01*
X101516010Y-144173598D01*
X101764746Y-144276882D01*
X101867035Y-144276971D01*
X102535614Y-144945550D01*
X102535614Y-146683000D01*
X102563505Y-146826749D01*
X102646498Y-146953091D01*
X102771788Y-147037663D01*
X102920000Y-147067386D01*
X107573000Y-147067386D01*
X107573000Y-147314614D01*
X102920000Y-147314614D01*
X102776251Y-147342505D01*
X102649909Y-147425498D01*
X102565337Y-147550788D01*
X102535614Y-147699000D01*
X102535614Y-148623267D01*
X102535254Y-148623118D01*
X102265927Y-148622883D01*
X102017011Y-148725733D01*
X101826402Y-148916010D01*
X101723118Y-149164746D01*
X101722883Y-149434073D01*
X101825733Y-149682989D01*
X102016010Y-149873598D01*
X102264746Y-149976882D01*
X102534073Y-149977117D01*
X102782989Y-149874267D01*
X102816654Y-149840661D01*
X102920000Y-149861386D01*
X107573000Y-149861386D01*
X107573000Y-158957945D01*
X107293293Y-160364126D01*
X106520577Y-161520577D01*
X105364126Y-162293293D01*
X103957945Y-162573000D01*
X44042055Y-162573000D01*
X42635874Y-162293293D01*
X41479423Y-161520577D01*
X40706707Y-160364126D01*
X40539045Y-159521230D01*
X48372632Y-159521230D01*
X48695766Y-160303274D01*
X49293578Y-160902131D01*
X50075057Y-161226630D01*
X50921230Y-161227368D01*
X51703274Y-160904234D01*
X52302131Y-160306422D01*
X52626630Y-159524943D01*
X52626720Y-159421230D01*
X93372632Y-159421230D01*
X93695766Y-160203274D01*
X94293578Y-160802131D01*
X95075057Y-161126630D01*
X95921230Y-161127368D01*
X96703274Y-160804234D01*
X97302131Y-160206422D01*
X97626630Y-159424943D01*
X97627368Y-158578770D01*
X97304234Y-157796726D01*
X96706422Y-157197869D01*
X95924943Y-156873370D01*
X95078770Y-156872632D01*
X94296726Y-157195766D01*
X93697869Y-157793578D01*
X93373370Y-158575057D01*
X93372632Y-159421230D01*
X52626720Y-159421230D01*
X52627368Y-158678770D01*
X52304234Y-157896726D01*
X51706422Y-157297869D01*
X50924943Y-156973370D01*
X50078770Y-156972632D01*
X49296726Y-157295766D01*
X48697869Y-157893578D01*
X48373370Y-158675057D01*
X48372632Y-159521230D01*
X40539045Y-159521230D01*
X40427000Y-158957945D01*
X40427000Y-154134073D01*
X56322883Y-154134073D01*
X56425733Y-154382989D01*
X56616010Y-154573598D01*
X56864746Y-154676882D01*
X57134073Y-154677117D01*
X57382989Y-154574267D01*
X57455382Y-154502000D01*
X94899995Y-154502000D01*
X94900000Y-154502001D01*
X95092107Y-154463788D01*
X95254968Y-154354968D01*
X95654965Y-153954970D01*
X95654968Y-153954968D01*
X95720200Y-153857340D01*
X95763788Y-153792108D01*
X95802000Y-153600000D01*
X95802000Y-151509304D01*
X95964746Y-151576882D01*
X96234073Y-151577117D01*
X96482989Y-151474267D01*
X96555382Y-151402000D01*
X98944537Y-151402000D01*
X99016010Y-151473598D01*
X99264746Y-151576882D01*
X99534073Y-151577117D01*
X99782989Y-151474267D01*
X99973598Y-151283990D01*
X100076882Y-151035254D01*
X100077117Y-150765927D01*
X99974267Y-150517011D01*
X99783990Y-150326402D01*
X99535254Y-150223118D01*
X99265927Y-150222883D01*
X99017011Y-150325733D01*
X98944618Y-150398000D01*
X98659564Y-150398000D01*
X98673598Y-150383990D01*
X98776882Y-150135254D01*
X98777117Y-149865927D01*
X98674267Y-149617011D01*
X98483990Y-149426402D01*
X98235254Y-149323118D01*
X97965927Y-149322883D01*
X97717011Y-149425733D01*
X97644618Y-149498000D01*
X96111935Y-149498000D01*
X96954965Y-148654970D01*
X96954968Y-148654968D01*
X97063788Y-148492107D01*
X97069421Y-148463788D01*
X97102001Y-148300000D01*
X97102000Y-148299995D01*
X97102000Y-147700005D01*
X97102001Y-147700000D01*
X97063788Y-147507893D01*
X97028425Y-147454968D01*
X96954968Y-147345032D01*
X96954965Y-147345030D01*
X95502000Y-145892064D01*
X95502000Y-145607731D01*
X95582989Y-145574267D01*
X95773598Y-145383990D01*
X95876882Y-145135254D01*
X95877117Y-144865927D01*
X95774267Y-144617011D01*
X95583990Y-144426402D01*
X95335254Y-144323118D01*
X95065927Y-144322883D01*
X94817011Y-144425733D01*
X94626402Y-144616010D01*
X94523118Y-144864746D01*
X94522935Y-145074641D01*
X94497999Y-145200000D01*
X94498000Y-145200005D01*
X94498000Y-146099995D01*
X94497999Y-146100000D01*
X94536212Y-146292107D01*
X94645032Y-146454968D01*
X95586914Y-147396850D01*
X95517011Y-147425733D01*
X95326402Y-147616010D01*
X95223118Y-147864746D01*
X95223029Y-147967036D01*
X94692064Y-148498000D01*
X90350828Y-148498000D01*
X90376882Y-148435254D01*
X90376971Y-148332965D01*
X92054968Y-146654968D01*
X92163788Y-146492108D01*
X92202000Y-146300000D01*
X92202000Y-145555463D01*
X92273598Y-145483990D01*
X92376882Y-145235254D01*
X92377117Y-144965927D01*
X92274267Y-144717011D01*
X92083990Y-144526402D01*
X91835254Y-144423118D01*
X91565927Y-144422883D01*
X91317011Y-144525733D01*
X91126402Y-144716010D01*
X91023118Y-144964746D01*
X91022883Y-145234073D01*
X91125733Y-145482989D01*
X91198000Y-145555382D01*
X91198000Y-146092064D01*
X89667093Y-147622971D01*
X89565927Y-147622883D01*
X89317011Y-147725733D01*
X89126402Y-147916010D01*
X89096928Y-147986992D01*
X88702000Y-147592064D01*
X88702000Y-147455463D01*
X88773598Y-147383990D01*
X88876882Y-147135254D01*
X88877117Y-146865927D01*
X88845623Y-146789706D01*
X88882989Y-146774267D01*
X89073598Y-146583990D01*
X89176882Y-146335254D01*
X89177117Y-146065927D01*
X89074267Y-145817011D01*
X88883990Y-145626402D01*
X88635254Y-145523118D01*
X88365927Y-145522883D01*
X88117011Y-145625733D01*
X88044618Y-145698000D01*
X88000005Y-145698000D01*
X88000000Y-145697999D01*
X87807893Y-145736212D01*
X87645032Y-145845032D01*
X87645030Y-145845035D01*
X87145032Y-146345032D01*
X87036212Y-146507893D01*
X86997999Y-146700000D01*
X86998000Y-146700005D01*
X86998000Y-147899995D01*
X86997999Y-147900000D01*
X87036212Y-148092107D01*
X87145032Y-148254968D01*
X88745030Y-149854965D01*
X88745032Y-149854968D01*
X88865189Y-149935254D01*
X88907893Y-149963788D01*
X89100000Y-150002001D01*
X89100005Y-150002000D01*
X91092064Y-150002000D01*
X92122971Y-151032906D01*
X92122883Y-151134073D01*
X92225733Y-151382989D01*
X92416010Y-151573598D01*
X92664746Y-151676882D01*
X92934073Y-151677117D01*
X93182989Y-151574267D01*
X93373598Y-151383990D01*
X93476882Y-151135254D01*
X93477117Y-150865927D01*
X93374267Y-150617011D01*
X93183990Y-150426402D01*
X92935254Y-150323118D01*
X92832964Y-150323029D01*
X92011936Y-149502000D01*
X94688064Y-149502000D01*
X94345032Y-149845032D01*
X94236212Y-150007893D01*
X94197999Y-150200000D01*
X94198000Y-150200005D01*
X94198000Y-152744711D01*
X94026402Y-152916010D01*
X93923118Y-153164746D01*
X93922883Y-153434073D01*
X93949297Y-153498000D01*
X89796783Y-153498000D01*
X89832375Y-153462408D01*
X89898600Y-153302527D01*
X89898600Y-152335750D01*
X89789850Y-152227000D01*
X88627000Y-152227000D01*
X88627000Y-152247000D01*
X88573000Y-152247000D01*
X88573000Y-152227000D01*
X87410150Y-152227000D01*
X87301400Y-152335750D01*
X87301400Y-153302527D01*
X87367625Y-153462408D01*
X87403217Y-153498000D01*
X86576445Y-153498000D01*
X86937237Y-153256927D01*
X87206165Y-152854447D01*
X87300600Y-152379690D01*
X87300600Y-152020310D01*
X87206165Y-151545553D01*
X86937237Y-151143073D01*
X86868992Y-151097473D01*
X87301400Y-151097473D01*
X87301400Y-152064250D01*
X87410150Y-152173000D01*
X88573000Y-152173000D01*
X88573000Y-150857750D01*
X88627000Y-150857750D01*
X88627000Y-152173000D01*
X89789850Y-152173000D01*
X89898600Y-152064250D01*
X89898600Y-151097473D01*
X89832375Y-150937592D01*
X89710008Y-150815225D01*
X89550127Y-150749000D01*
X88735750Y-150749000D01*
X88627000Y-150857750D01*
X88573000Y-150857750D01*
X88573000Y-150857750D01*
X88464250Y-150749000D01*
X87649873Y-150749000D01*
X87489992Y-150815225D01*
X87367625Y-150937592D01*
X87301400Y-151097473D01*
X86868992Y-151097473D01*
X86534757Y-150874145D01*
X86060000Y-150779710D01*
X85585243Y-150874145D01*
X85182763Y-151143073D01*
X84913835Y-151545553D01*
X84819400Y-152020310D01*
X84819400Y-152379690D01*
X84913835Y-152854447D01*
X85182763Y-153256927D01*
X85543555Y-153498000D01*
X84036445Y-153498000D01*
X84397237Y-153256927D01*
X84666165Y-152854447D01*
X84760600Y-152379690D01*
X84760600Y-152020310D01*
X84666165Y-151545553D01*
X84397237Y-151143073D01*
X83994757Y-150874145D01*
X83520000Y-150779710D01*
X83045243Y-150874145D01*
X82642763Y-151143073D01*
X82373835Y-151545553D01*
X82279400Y-152020310D01*
X82279400Y-152379690D01*
X82373835Y-152854447D01*
X82642763Y-153256927D01*
X83003555Y-153498000D01*
X81496445Y-153498000D01*
X81857237Y-153256927D01*
X82126165Y-152854447D01*
X82220600Y-152379690D01*
X82220600Y-152020310D01*
X82126165Y-151545553D01*
X81857237Y-151143073D01*
X81482000Y-150892348D01*
X81482000Y-149427936D01*
X82254965Y-148654970D01*
X82254968Y-148654968D01*
X82363788Y-148492107D01*
X82402000Y-148300000D01*
X82402000Y-147955289D01*
X82573598Y-147783990D01*
X82676882Y-147535254D01*
X82677117Y-147265927D01*
X82574267Y-147017011D01*
X82383990Y-146826402D01*
X82135254Y-146723118D01*
X81865927Y-146722883D01*
X81617011Y-146825733D01*
X81426402Y-147016010D01*
X81323118Y-147264746D01*
X81323067Y-147323107D01*
X81065927Y-147322883D01*
X80817011Y-147425733D01*
X80626402Y-147616010D01*
X80523118Y-147864746D01*
X80523029Y-147967036D01*
X78403150Y-150086914D01*
X78374267Y-150017011D01*
X78183990Y-149826402D01*
X77935254Y-149723118D01*
X77832964Y-149723029D01*
X76802000Y-148692064D01*
X76802000Y-148334073D01*
X77222883Y-148334073D01*
X77325733Y-148582989D01*
X77516010Y-148773598D01*
X77764746Y-148876882D01*
X78034073Y-148877117D01*
X78282989Y-148774267D01*
X78473598Y-148583990D01*
X78576882Y-148335254D01*
X78576971Y-148232965D01*
X79354968Y-147454968D01*
X79463788Y-147292107D01*
X79502001Y-147100000D01*
X79502000Y-147099995D01*
X79502000Y-146955463D01*
X79573598Y-146883990D01*
X79676882Y-146635254D01*
X79677117Y-146365927D01*
X79574267Y-146117011D01*
X79383990Y-145926402D01*
X79135254Y-145823118D01*
X78865927Y-145822883D01*
X78617011Y-145925733D01*
X78426402Y-146116010D01*
X78323118Y-146364746D01*
X78322883Y-146634073D01*
X78425733Y-146882989D01*
X78466369Y-146923695D01*
X77867093Y-147522971D01*
X77765927Y-147522883D01*
X77517011Y-147625733D01*
X77326402Y-147816010D01*
X77223118Y-148064746D01*
X77222883Y-148334073D01*
X76802000Y-148334073D01*
X76802000Y-147100000D01*
X76769421Y-146936212D01*
X76763788Y-146907892D01*
X76719609Y-146841774D01*
X76882989Y-146774267D01*
X77073598Y-146583990D01*
X77176882Y-146335254D01*
X77176971Y-146232965D01*
X78007935Y-145402000D01*
X79044537Y-145402000D01*
X79116010Y-145473598D01*
X79364746Y-145576882D01*
X79634073Y-145577117D01*
X79882989Y-145474267D01*
X80073598Y-145283990D01*
X80176882Y-145035254D01*
X80177117Y-144765927D01*
X80074267Y-144517011D01*
X79883990Y-144326402D01*
X79635254Y-144223118D01*
X79365927Y-144222883D01*
X79117011Y-144325733D01*
X79044618Y-144398000D01*
X77800005Y-144398000D01*
X77800000Y-144397999D01*
X77607893Y-144436212D01*
X77445032Y-144545032D01*
X77445030Y-144545035D01*
X76467093Y-145522971D01*
X76365927Y-145522883D01*
X76117011Y-145625733D01*
X76100137Y-145642577D01*
X76083990Y-145626402D01*
X75835254Y-145523118D01*
X75659365Y-145522965D01*
X75574267Y-145317011D01*
X75383990Y-145126402D01*
X75135254Y-145023118D01*
X74865927Y-145022883D01*
X74617011Y-145125733D01*
X74426402Y-145316010D01*
X74323118Y-145564746D01*
X74322901Y-145812965D01*
X73802000Y-145292064D01*
X73802000Y-142855463D01*
X73873598Y-142783990D01*
X73976882Y-142535254D01*
X73977117Y-142265927D01*
X73874267Y-142017011D01*
X73683990Y-141826402D01*
X73435254Y-141723118D01*
X73165927Y-141722883D01*
X72917011Y-141825733D01*
X72726402Y-142016010D01*
X72623118Y-142264746D01*
X72622883Y-142534073D01*
X72725733Y-142782989D01*
X72798000Y-142855382D01*
X72798000Y-145499995D01*
X72797999Y-145500000D01*
X72836212Y-145692107D01*
X72945032Y-145854968D01*
X74286914Y-147196850D01*
X74217011Y-147225733D01*
X74026402Y-147416010D01*
X73923118Y-147664746D01*
X73922980Y-147823107D01*
X73665927Y-147822883D01*
X73539583Y-147875087D01*
X73474267Y-147717011D01*
X73283990Y-147526402D01*
X73035254Y-147423118D01*
X72765927Y-147422883D01*
X72517011Y-147525733D01*
X72326402Y-147716010D01*
X72292357Y-147798000D01*
X70000000Y-147798000D01*
X69807892Y-147836212D01*
X69763421Y-147865927D01*
X69645032Y-147945032D01*
X69645030Y-147945035D01*
X68292064Y-149298000D01*
X63700005Y-149298000D01*
X63700000Y-149297999D01*
X63507893Y-149336212D01*
X63345032Y-149445032D01*
X63345030Y-149445035D01*
X61581198Y-151208866D01*
X61537237Y-151143073D01*
X61134757Y-150874145D01*
X60660000Y-150779710D01*
X60185243Y-150874145D01*
X59782763Y-151143073D01*
X59513835Y-151545553D01*
X59419400Y-152020310D01*
X59419400Y-152379690D01*
X59513835Y-152854447D01*
X59782763Y-153256927D01*
X60143555Y-153498000D01*
X57455463Y-153498000D01*
X57383990Y-153426402D01*
X57135254Y-153323118D01*
X56865927Y-153322883D01*
X56617011Y-153425733D01*
X56426402Y-153616010D01*
X56323118Y-153864746D01*
X56322883Y-154134073D01*
X40427000Y-154134073D01*
X40427000Y-148464386D01*
X45080000Y-148464386D01*
X45223749Y-148436495D01*
X45350091Y-148353502D01*
X45434663Y-148228212D01*
X45464386Y-148080000D01*
X45464386Y-146945550D01*
X46854965Y-145554970D01*
X46854968Y-145554968D01*
X46934958Y-145435254D01*
X46963788Y-145392108D01*
X47002000Y-145200000D01*
X47002000Y-145134073D01*
X51522883Y-145134073D01*
X51625733Y-145382989D01*
X51798000Y-145555557D01*
X51798000Y-147044711D01*
X51626402Y-147216010D01*
X51523118Y-147464746D01*
X51522883Y-147734073D01*
X51625733Y-147982989D01*
X51816010Y-148173598D01*
X52064746Y-148276882D01*
X52202574Y-148277002D01*
X52197999Y-148300000D01*
X52198000Y-148300005D01*
X52198000Y-149344537D01*
X52126402Y-149416010D01*
X52023118Y-149664746D01*
X52022883Y-149934073D01*
X52125733Y-150182989D01*
X52316010Y-150373598D01*
X52564746Y-150476882D01*
X52834073Y-150477117D01*
X53082989Y-150374267D01*
X53273598Y-150183990D01*
X53294325Y-150134073D01*
X56222883Y-150134073D01*
X56325733Y-150382989D01*
X56516010Y-150573598D01*
X56764746Y-150676882D01*
X57034073Y-150677117D01*
X57110294Y-150645623D01*
X57125733Y-150682989D01*
X57316010Y-150873598D01*
X57564746Y-150976882D01*
X57834073Y-150977117D01*
X58082989Y-150874267D01*
X58264033Y-150693539D01*
X58464746Y-150776882D01*
X58734073Y-150777117D01*
X58982989Y-150674267D01*
X59173598Y-150483990D01*
X59276882Y-150235254D01*
X59277117Y-149965927D01*
X59238199Y-149871737D01*
X60907935Y-148202000D01*
X61492065Y-148202000D01*
X61545030Y-148254965D01*
X61545032Y-148254968D01*
X61665189Y-148335254D01*
X61707893Y-148363788D01*
X61900000Y-148402001D01*
X61900005Y-148402000D01*
X63844537Y-148402000D01*
X63916010Y-148473598D01*
X64164746Y-148576882D01*
X64434073Y-148577117D01*
X64682989Y-148474267D01*
X64873598Y-148283990D01*
X64976882Y-148035254D01*
X64977117Y-147765927D01*
X64874267Y-147517011D01*
X64683990Y-147326402D01*
X64435254Y-147223118D01*
X64165927Y-147222883D01*
X63917011Y-147325733D01*
X63844618Y-147398000D01*
X62750828Y-147398000D01*
X62776882Y-147335254D01*
X62777117Y-147065927D01*
X62746853Y-146992681D01*
X62892107Y-146963788D01*
X63054968Y-146854968D01*
X63432907Y-146477029D01*
X63534073Y-146477117D01*
X63782989Y-146374267D01*
X63973598Y-146183990D01*
X64076882Y-145935254D01*
X64077117Y-145665927D01*
X63974267Y-145417011D01*
X63783990Y-145226402D01*
X63535254Y-145123118D01*
X63265927Y-145122883D01*
X63017011Y-145225733D01*
X62826402Y-145416010D01*
X62723118Y-145664746D01*
X62723029Y-145767036D01*
X62492064Y-145998000D01*
X60400000Y-145998000D01*
X60207893Y-146036212D01*
X60045032Y-146145032D01*
X60045030Y-146145035D01*
X56867093Y-149322971D01*
X56765927Y-149322883D01*
X56517011Y-149425733D01*
X56326402Y-149616010D01*
X56223118Y-149864746D01*
X56222883Y-150134073D01*
X53294325Y-150134073D01*
X53376882Y-149935254D01*
X53377117Y-149665927D01*
X53274267Y-149417011D01*
X53202000Y-149344618D01*
X53202000Y-149109304D01*
X53364746Y-149176882D01*
X53522933Y-149177020D01*
X53522883Y-149234073D01*
X53625733Y-149482989D01*
X53816010Y-149673598D01*
X54064746Y-149776882D01*
X54334073Y-149777117D01*
X54582989Y-149674267D01*
X54773598Y-149483990D01*
X54876882Y-149235254D01*
X54877117Y-148965927D01*
X54774267Y-148717011D01*
X54702000Y-148644618D01*
X54702000Y-148100005D01*
X54702001Y-148100000D01*
X54663788Y-147907893D01*
X54628425Y-147854968D01*
X54554968Y-147745032D01*
X54554965Y-147745030D01*
X54502000Y-147692065D01*
X54502000Y-146507936D01*
X55176208Y-145833727D01*
X55216010Y-145873598D01*
X55464746Y-145976882D01*
X55734073Y-145977117D01*
X55982989Y-145874267D01*
X56173598Y-145683990D01*
X56276882Y-145435254D01*
X56277117Y-145165927D01*
X56174267Y-144917011D01*
X55983990Y-144726402D01*
X55735254Y-144623118D01*
X55676893Y-144623067D01*
X55677117Y-144365927D01*
X55574267Y-144117011D01*
X55383990Y-143926402D01*
X55135254Y-143823118D01*
X54865927Y-143822883D01*
X54777035Y-143859612D01*
X54777117Y-143765927D01*
X54674267Y-143517011D01*
X54483990Y-143326402D01*
X54235254Y-143223118D01*
X53965927Y-143222883D01*
X53717011Y-143325733D01*
X53526402Y-143516010D01*
X53423118Y-143764746D01*
X53422883Y-144034073D01*
X53525733Y-144282989D01*
X53598000Y-144355382D01*
X53598000Y-144555667D01*
X52802000Y-145351666D01*
X52802000Y-145315590D01*
X52876882Y-145135254D01*
X52877117Y-144865927D01*
X52774267Y-144617011D01*
X52583990Y-144426402D01*
X52335254Y-144323118D01*
X52065927Y-144322883D01*
X51817011Y-144425733D01*
X51626402Y-144616010D01*
X51523118Y-144864746D01*
X51522883Y-145134073D01*
X47002000Y-145134073D01*
X47002000Y-143000005D01*
X47002001Y-143000000D01*
X46976935Y-142873989D01*
X46977117Y-142665927D01*
X46874267Y-142417011D01*
X46683990Y-142226402D01*
X46435254Y-142123118D01*
X46165927Y-142122883D01*
X45917011Y-142225733D01*
X45726402Y-142416010D01*
X45623118Y-142664746D01*
X45622883Y-142934073D01*
X45725733Y-143182989D01*
X45916010Y-143373598D01*
X45998000Y-143407643D01*
X45998000Y-143790696D01*
X45835254Y-143723118D01*
X45565927Y-143722883D01*
X45464386Y-143764839D01*
X45464386Y-143508000D01*
X45436495Y-143364251D01*
X45353502Y-143237909D01*
X45228212Y-143153337D01*
X45080000Y-143123614D01*
X40427000Y-143123614D01*
X40427000Y-142876386D01*
X45080000Y-142876386D01*
X45223749Y-142848495D01*
X45350091Y-142765502D01*
X45434663Y-142640212D01*
X45464386Y-142492000D01*
X45464386Y-140714000D01*
X45436495Y-140570251D01*
X45353502Y-140443909D01*
X45228212Y-140359337D01*
X45080000Y-140329614D01*
X40427000Y-140329614D01*
X40427000Y-140234073D01*
X52722883Y-140234073D01*
X52825733Y-140482989D01*
X52898000Y-140555382D01*
X52898000Y-141844537D01*
X52826402Y-141916010D01*
X52723118Y-142164746D01*
X52722883Y-142434073D01*
X52825733Y-142682989D01*
X53016010Y-142873598D01*
X53264746Y-142976882D01*
X53534073Y-142977117D01*
X53782989Y-142874267D01*
X53973598Y-142683990D01*
X54076882Y-142435254D01*
X54077117Y-142165927D01*
X53974267Y-141917011D01*
X53902000Y-141844618D01*
X53902000Y-140859564D01*
X53916010Y-140873598D01*
X54164746Y-140976882D01*
X54434073Y-140977117D01*
X54682989Y-140874267D01*
X54715821Y-140841492D01*
X54623118Y-141064746D01*
X54622883Y-141334073D01*
X54725733Y-141582989D01*
X54916010Y-141773598D01*
X55164746Y-141876882D01*
X55434073Y-141877117D01*
X55682989Y-141774267D01*
X55873598Y-141583990D01*
X55976882Y-141335254D01*
X55976911Y-141302000D01*
X56692064Y-141302000D01*
X58666273Y-143276208D01*
X58626402Y-143316010D01*
X58523118Y-143564746D01*
X58522883Y-143834073D01*
X58625733Y-144082989D01*
X58816010Y-144273598D01*
X59064746Y-144376882D01*
X59334073Y-144377117D01*
X59582989Y-144274267D01*
X59773598Y-144083990D01*
X59876882Y-143835254D01*
X59876933Y-143776980D01*
X60034073Y-143777117D01*
X60282989Y-143674267D01*
X60473598Y-143483990D01*
X60576882Y-143235254D01*
X60577117Y-142965927D01*
X60474267Y-142717011D01*
X60283990Y-142526402D01*
X60035254Y-142423118D01*
X59932965Y-142423029D01*
X58844009Y-141334073D01*
X77422883Y-141334073D01*
X77525733Y-141582989D01*
X77592577Y-141649950D01*
X77526402Y-141716010D01*
X77423118Y-141964746D01*
X77422883Y-142234073D01*
X77525733Y-142482989D01*
X77716010Y-142673598D01*
X77964746Y-142776882D01*
X78067035Y-142776971D01*
X78345032Y-143054968D01*
X78507892Y-143163788D01*
X78700000Y-143202000D01*
X79144537Y-143202000D01*
X79216010Y-143273598D01*
X79464746Y-143376882D01*
X79734073Y-143377117D01*
X79895711Y-143310330D01*
X79925733Y-143382989D01*
X80116010Y-143573598D01*
X80364746Y-143676882D01*
X80622933Y-143677107D01*
X80622883Y-143734073D01*
X80725733Y-143982989D01*
X80916010Y-144173598D01*
X81164746Y-144276882D01*
X81434073Y-144277117D01*
X81682989Y-144174267D01*
X81873598Y-143983990D01*
X81976882Y-143735254D01*
X81977117Y-143465927D01*
X81902000Y-143284130D01*
X81902000Y-141955463D01*
X81973598Y-141883990D01*
X82076882Y-141635254D01*
X82076970Y-141534073D01*
X87022883Y-141534073D01*
X87094236Y-141706761D01*
X87120728Y-141839943D01*
X87238372Y-142016010D01*
X87256644Y-142043356D01*
X87956644Y-142743356D01*
X88160057Y-142879272D01*
X88400000Y-142927000D01*
X89300000Y-142927000D01*
X89539943Y-142879272D01*
X89743356Y-142743356D01*
X89859712Y-142627000D01*
X92700000Y-142627000D01*
X92939943Y-142579272D01*
X93143356Y-142443356D01*
X93362773Y-142223939D01*
X93482989Y-142174267D01*
X93633044Y-142024473D01*
X102485000Y-142024473D01*
X102485000Y-142864250D01*
X102593750Y-142973000D01*
X105433000Y-142973000D01*
X105433000Y-141784750D01*
X105324250Y-141676000D01*
X102833473Y-141676000D01*
X102673592Y-141742225D01*
X102551225Y-141864592D01*
X102485000Y-142024473D01*
X93633044Y-142024473D01*
X93673598Y-141983990D01*
X93776882Y-141735254D01*
X93777117Y-141465927D01*
X93674267Y-141217011D01*
X93483990Y-141026402D01*
X93235254Y-140923118D01*
X92965927Y-140922883D01*
X92717011Y-141025733D01*
X92526402Y-141216010D01*
X92476074Y-141337214D01*
X92440288Y-141373000D01*
X91136936Y-141373000D01*
X91454965Y-141054970D01*
X91454968Y-141054968D01*
X91504967Y-141004968D01*
X91504970Y-141004966D01*
X91613790Y-140842105D01*
X91652003Y-140649998D01*
X91652002Y-140649993D01*
X91652002Y-137547750D01*
X102485000Y-137547750D01*
X102485000Y-138387527D01*
X102551225Y-138547408D01*
X102673592Y-138669775D01*
X102833473Y-138736000D01*
X105324250Y-138736000D01*
X105433000Y-138627250D01*
X105433000Y-137439000D01*
X102593750Y-137439000D01*
X102485000Y-137547750D01*
X91652002Y-137547750D01*
X91652002Y-136157934D01*
X92154968Y-135654968D01*
X92975862Y-134834073D01*
X97822883Y-134834073D01*
X97925733Y-135082989D01*
X98116010Y-135273598D01*
X98364746Y-135376882D01*
X98467035Y-135376971D01*
X99945030Y-136854965D01*
X99945032Y-136854968D01*
X99988467Y-136883990D01*
X100107892Y-136963788D01*
X100230795Y-136988235D01*
X100316010Y-137073598D01*
X100564746Y-137176882D01*
X100834073Y-137177117D01*
X101082989Y-137074267D01*
X101273598Y-136883990D01*
X101376882Y-136635254D01*
X101377055Y-136436473D01*
X102485000Y-136436473D01*
X102485000Y-137276250D01*
X102593750Y-137385000D01*
X105433000Y-137385000D01*
X105433000Y-136196750D01*
X105324250Y-136088000D01*
X102833473Y-136088000D01*
X102673592Y-136154225D01*
X102551225Y-136276592D01*
X102485000Y-136436473D01*
X101377055Y-136436473D01*
X101377117Y-136365927D01*
X101274267Y-136117011D01*
X101083990Y-135926402D01*
X100835254Y-135823118D01*
X100565927Y-135822883D01*
X100400975Y-135891040D01*
X99177029Y-134667093D01*
X99177117Y-134565927D01*
X99074267Y-134317011D01*
X98883990Y-134126402D01*
X98635254Y-134023118D01*
X98365927Y-134022883D01*
X98117011Y-134125733D01*
X97926402Y-134316010D01*
X97823118Y-134564746D01*
X97822883Y-134834073D01*
X92975862Y-134834073D01*
X93471692Y-134338243D01*
X93564746Y-134376882D01*
X93834073Y-134377117D01*
X94082989Y-134274267D01*
X94273598Y-134083990D01*
X94376882Y-133835254D01*
X94377117Y-133565927D01*
X94274267Y-133317011D01*
X94083990Y-133126402D01*
X93924935Y-133060357D01*
X93976882Y-132935254D01*
X93977117Y-132665927D01*
X93874267Y-132417011D01*
X93683990Y-132226402D01*
X93435254Y-132123118D01*
X93165927Y-132122883D01*
X92917011Y-132225733D01*
X92726402Y-132416010D01*
X92623118Y-132664746D01*
X92622883Y-132934073D01*
X92632563Y-132957501D01*
X91345032Y-134245032D01*
X91345030Y-134245035D01*
X91132389Y-134457676D01*
X91074267Y-134317011D01*
X90883990Y-134126402D01*
X90635254Y-134023118D01*
X90365927Y-134022883D01*
X90117011Y-134125733D01*
X89926402Y-134316010D01*
X89823118Y-134564746D01*
X89823019Y-134677977D01*
X89736212Y-134807893D01*
X89697999Y-135000000D01*
X89698000Y-135000005D01*
X89698000Y-136051010D01*
X89450238Y-135948130D01*
X89151074Y-135947869D01*
X88874582Y-136062113D01*
X88662857Y-136273470D01*
X88548130Y-136549762D01*
X88547869Y-136848926D01*
X88662113Y-137125418D01*
X88673000Y-137136324D01*
X88673000Y-138940288D01*
X87256644Y-140356644D01*
X87120728Y-140560057D01*
X87073000Y-140800000D01*
X87073000Y-141144617D01*
X87023118Y-141264746D01*
X87022883Y-141534073D01*
X82076970Y-141534073D01*
X82077117Y-141365927D01*
X81974267Y-141117011D01*
X81783990Y-140926402D01*
X81535254Y-140823118D01*
X81265927Y-140822883D01*
X81017011Y-140925733D01*
X80826402Y-141116010D01*
X80723118Y-141364746D01*
X80722883Y-141634073D01*
X80825733Y-141882989D01*
X80898000Y-141955382D01*
X80898000Y-142209434D01*
X80854968Y-142145032D01*
X80854965Y-142145030D01*
X80354968Y-141645032D01*
X80192107Y-141536212D01*
X80000000Y-141497999D01*
X79999995Y-141498000D01*
X79107935Y-141498000D01*
X78777029Y-141167093D01*
X78777117Y-141065927D01*
X78674267Y-140817011D01*
X78483990Y-140626402D01*
X78235254Y-140523118D01*
X77965927Y-140522883D01*
X77717011Y-140625733D01*
X77526402Y-140816010D01*
X77423118Y-141064746D01*
X77422883Y-141334073D01*
X58844009Y-141334073D01*
X57454968Y-139945032D01*
X57292107Y-139836212D01*
X57100000Y-139797999D01*
X57099995Y-139798000D01*
X54755463Y-139798000D01*
X54683990Y-139726402D01*
X54435254Y-139623118D01*
X54165927Y-139622883D01*
X53963711Y-139706437D01*
X53783990Y-139526402D01*
X53535254Y-139423118D01*
X53265927Y-139422883D01*
X53017011Y-139525733D01*
X52826402Y-139716010D01*
X52723118Y-139964746D01*
X52722883Y-140234073D01*
X40427000Y-140234073D01*
X40427000Y-140133365D01*
X45080000Y-140133365D01*
X45242814Y-140101776D01*
X45385912Y-140007776D01*
X45481700Y-139865868D01*
X45515365Y-139698000D01*
X45515365Y-137920000D01*
X45483776Y-137757186D01*
X45389776Y-137614088D01*
X45247868Y-137518300D01*
X45080000Y-137484635D01*
X43217000Y-137484635D01*
X43217000Y-136140000D01*
X43165466Y-135880923D01*
X43018711Y-135661289D01*
X42991495Y-135634073D01*
X50922883Y-135634073D01*
X51025733Y-135882989D01*
X51098000Y-135955382D01*
X51098000Y-137444537D01*
X51026402Y-137516010D01*
X50923118Y-137764746D01*
X50922883Y-138034073D01*
X51025733Y-138282989D01*
X51216010Y-138473598D01*
X51464746Y-138576882D01*
X51734073Y-138577117D01*
X51982989Y-138474267D01*
X52173598Y-138283990D01*
X52276882Y-138035254D01*
X52277117Y-137765927D01*
X52174267Y-137517011D01*
X52102000Y-137444618D01*
X52102000Y-137134073D01*
X84122883Y-137134073D01*
X84225733Y-137382989D01*
X84416010Y-137573598D01*
X84664746Y-137676882D01*
X84767035Y-137676971D01*
X85622971Y-138532906D01*
X85622883Y-138634073D01*
X85725733Y-138882989D01*
X85916010Y-139073598D01*
X86164746Y-139176882D01*
X86434073Y-139177117D01*
X86682989Y-139074267D01*
X86873598Y-138883990D01*
X86976882Y-138635254D01*
X86977117Y-138365927D01*
X86874267Y-138117011D01*
X86683990Y-137926402D01*
X86435254Y-137823118D01*
X86332964Y-137823029D01*
X85477029Y-136967093D01*
X85477117Y-136865927D01*
X85374267Y-136617011D01*
X85183990Y-136426402D01*
X84935254Y-136323118D01*
X84665927Y-136322883D01*
X84417011Y-136425733D01*
X84226402Y-136616010D01*
X84123118Y-136864746D01*
X84122883Y-137134073D01*
X52102000Y-137134073D01*
X52102000Y-136234073D01*
X54722883Y-136234073D01*
X54825733Y-136482989D01*
X55016010Y-136673598D01*
X55264746Y-136776882D01*
X55534073Y-136777117D01*
X55782989Y-136674267D01*
X55973598Y-136483990D01*
X56076882Y-136235254D01*
X56076971Y-136132964D01*
X56807935Y-135402000D01*
X56844537Y-135402000D01*
X56916010Y-135473598D01*
X57164746Y-135576882D01*
X57434073Y-135577117D01*
X57682989Y-135474267D01*
X57873598Y-135283990D01*
X57976882Y-135035254D01*
X57977117Y-134765927D01*
X57874267Y-134517011D01*
X57683990Y-134326402D01*
X57435254Y-134223118D01*
X57165927Y-134222883D01*
X56917011Y-134325733D01*
X56844618Y-134398000D01*
X56600000Y-134398000D01*
X56407892Y-134436212D01*
X56342660Y-134479800D01*
X56245032Y-134545032D01*
X56245030Y-134545035D01*
X55367093Y-135422971D01*
X55265927Y-135422883D01*
X55017011Y-135525733D01*
X54826402Y-135716010D01*
X54723118Y-135964746D01*
X54722883Y-136234073D01*
X52102000Y-136234073D01*
X52102000Y-135955463D01*
X52173598Y-135883990D01*
X52276882Y-135635254D01*
X52277117Y-135365927D01*
X52174267Y-135117011D01*
X51983990Y-134926402D01*
X51735254Y-134823118D01*
X51465927Y-134822883D01*
X51217011Y-134925733D01*
X51026402Y-135116010D01*
X50923118Y-135364746D01*
X50922883Y-135634073D01*
X42991495Y-135634073D01*
X42002136Y-134644714D01*
X42002139Y-134641172D01*
X41880299Y-134346297D01*
X41654890Y-134120494D01*
X41360228Y-133998140D01*
X41041172Y-133997861D01*
X40746297Y-134119701D01*
X40520494Y-134345110D01*
X40427000Y-134570269D01*
X40427000Y-124134073D01*
X40722883Y-124134073D01*
X40773000Y-124255365D01*
X40773000Y-125400000D01*
X40820728Y-125639943D01*
X40901100Y-125760228D01*
X40956644Y-125843356D01*
X42056644Y-126943356D01*
X42260058Y-127079273D01*
X42500000Y-127127000D01*
X46251985Y-127127000D01*
X47087288Y-127544652D01*
X47216010Y-127673598D01*
X47464746Y-127776882D01*
X47734073Y-127777117D01*
X47982989Y-127674267D01*
X48173598Y-127483990D01*
X48276882Y-127235254D01*
X48277117Y-126965927D01*
X48174267Y-126717011D01*
X47983990Y-126526402D01*
X47735254Y-126423118D01*
X47648099Y-126423042D01*
X47356015Y-126277000D01*
X47842608Y-126277000D01*
X47845110Y-126279506D01*
X48139772Y-126401860D01*
X48458828Y-126402139D01*
X48656869Y-126320310D01*
X53179400Y-126320310D01*
X53179400Y-126679690D01*
X53273835Y-127154447D01*
X53542763Y-127556927D01*
X53945243Y-127825855D01*
X54201175Y-127876763D01*
X54123118Y-128064746D01*
X54122928Y-128281969D01*
X54017011Y-128325733D01*
X53826402Y-128516010D01*
X53723118Y-128764746D01*
X53722883Y-129034073D01*
X53825733Y-129282989D01*
X54016010Y-129473598D01*
X54264746Y-129576882D01*
X54474641Y-129577065D01*
X54600000Y-129602001D01*
X54600005Y-129602000D01*
X54892064Y-129602000D01*
X56745032Y-131454968D01*
X57545030Y-132254965D01*
X57545032Y-132254968D01*
X60945032Y-135654968D01*
X61107892Y-135763788D01*
X61300000Y-135802000D01*
X65244537Y-135802000D01*
X65316010Y-135873598D01*
X65564746Y-135976882D01*
X65834073Y-135977117D01*
X66082989Y-135874267D01*
X66273598Y-135683990D01*
X66289520Y-135645645D01*
X66364746Y-135676882D01*
X66634073Y-135677117D01*
X66882989Y-135574267D01*
X67073598Y-135383990D01*
X67176882Y-135135254D01*
X67177117Y-134865927D01*
X67074267Y-134617011D01*
X67057336Y-134600050D01*
X67173598Y-134483990D01*
X67276882Y-134235254D01*
X67277117Y-133965927D01*
X67174267Y-133717011D01*
X66983990Y-133526402D01*
X66735254Y-133423118D01*
X66465927Y-133422883D01*
X66284130Y-133498000D01*
X61807935Y-133498000D01*
X59054968Y-130745032D01*
X57644009Y-129334073D01*
X67522883Y-129334073D01*
X67625733Y-129582989D01*
X67816010Y-129773598D01*
X68064746Y-129876882D01*
X68334073Y-129877117D01*
X68582989Y-129774267D01*
X68655382Y-129702000D01*
X77644537Y-129702000D01*
X77716010Y-129773598D01*
X77964746Y-129876882D01*
X78234073Y-129877117D01*
X78482989Y-129774267D01*
X78673598Y-129583990D01*
X78776882Y-129335254D01*
X78777117Y-129065927D01*
X78674267Y-128817011D01*
X78483990Y-128626402D01*
X78235254Y-128523118D01*
X78040468Y-128522948D01*
X78076882Y-128435254D01*
X78077117Y-128165927D01*
X77974267Y-127917011D01*
X77783990Y-127726402D01*
X77662786Y-127676074D01*
X77643356Y-127656644D01*
X77497857Y-127559425D01*
X77673598Y-127383990D01*
X77776882Y-127135254D01*
X77776970Y-127034073D01*
X96622883Y-127034073D01*
X96725733Y-127282989D01*
X96916010Y-127473598D01*
X97164746Y-127576882D01*
X97434073Y-127577117D01*
X97682989Y-127474267D01*
X97873598Y-127283990D01*
X97976882Y-127035254D01*
X97977052Y-126840468D01*
X98064746Y-126876882D01*
X98334073Y-126877117D01*
X98582989Y-126774267D01*
X98773598Y-126583990D01*
X98876882Y-126335254D01*
X98877117Y-126065927D01*
X98774267Y-125817011D01*
X98702000Y-125744618D01*
X98702000Y-123849050D01*
X98882989Y-123774267D01*
X99073598Y-123583990D01*
X99176882Y-123335254D01*
X99177117Y-123065927D01*
X99074267Y-122817011D01*
X98883990Y-122626402D01*
X98635254Y-122523118D01*
X98365927Y-122522883D01*
X98117011Y-122625733D01*
X98089301Y-122653395D01*
X98074267Y-122617011D01*
X97883990Y-122426402D01*
X97635254Y-122323118D01*
X97365927Y-122322883D01*
X97117011Y-122425733D01*
X96926402Y-122616010D01*
X96876074Y-122737214D01*
X96856644Y-122756644D01*
X96720728Y-122960057D01*
X96673000Y-123200000D01*
X96673000Y-126644617D01*
X96623118Y-126764746D01*
X96622883Y-127034073D01*
X77776970Y-127034073D01*
X77777117Y-126865927D01*
X77674267Y-126617011D01*
X77483990Y-126426402D01*
X77235254Y-126323118D01*
X76965927Y-126322883D01*
X76717011Y-126425733D01*
X76669662Y-126473000D01*
X70355383Y-126473000D01*
X70235254Y-126423118D01*
X69965927Y-126422883D01*
X69717011Y-126525733D01*
X69526402Y-126716010D01*
X69423118Y-126964746D01*
X69422883Y-127234073D01*
X69525733Y-127482989D01*
X69716010Y-127673598D01*
X69964746Y-127776882D01*
X70234073Y-127777117D01*
X70355365Y-127727000D01*
X71040629Y-127727000D01*
X70948130Y-127949762D01*
X70947869Y-128248926D01*
X71062113Y-128525418D01*
X71234395Y-128698000D01*
X68655463Y-128698000D01*
X68583990Y-128626402D01*
X68335254Y-128523118D01*
X68065927Y-128522883D01*
X67817011Y-128625733D01*
X67626402Y-128816010D01*
X67523118Y-129064746D01*
X67522883Y-129334073D01*
X57644009Y-129334073D01*
X55525397Y-127215461D01*
X55566165Y-127154447D01*
X55660600Y-126679690D01*
X55660600Y-126320310D01*
X55719400Y-126320310D01*
X55719400Y-126679690D01*
X55813835Y-127154447D01*
X56082763Y-127556927D01*
X56485243Y-127825855D01*
X56960000Y-127920290D01*
X57434757Y-127825855D01*
X57837237Y-127556927D01*
X58106165Y-127154447D01*
X58200600Y-126679690D01*
X58200600Y-126320310D01*
X58106165Y-125845553D01*
X57864584Y-125484000D01*
X58252014Y-125484000D01*
X58252014Y-127516000D01*
X58279905Y-127659749D01*
X58362898Y-127786091D01*
X58488188Y-127870663D01*
X58636400Y-127900386D01*
X60363600Y-127900386D01*
X60507349Y-127872495D01*
X60633691Y-127789502D01*
X60718263Y-127664212D01*
X60747986Y-127516000D01*
X60747986Y-125484000D01*
X60720095Y-125340251D01*
X60637102Y-125213909D01*
X60511812Y-125129337D01*
X60363600Y-125099614D01*
X58636400Y-125099614D01*
X58492651Y-125127505D01*
X58366309Y-125210498D01*
X58281737Y-125335788D01*
X58252014Y-125484000D01*
X57864584Y-125484000D01*
X57837237Y-125443073D01*
X57434757Y-125174145D01*
X56960000Y-125079710D01*
X56485243Y-125174145D01*
X56082763Y-125443073D01*
X55813835Y-125845553D01*
X55719400Y-126320310D01*
X55660600Y-126320310D01*
X55660600Y-126320310D01*
X55566165Y-125845553D01*
X55297237Y-125443073D01*
X54894757Y-125174145D01*
X54420000Y-125079710D01*
X53945243Y-125174145D01*
X53542763Y-125443073D01*
X53273835Y-125845553D01*
X53179400Y-126320310D01*
X48656869Y-126320310D01*
X48753703Y-126280299D01*
X48979506Y-126054890D01*
X49101860Y-125760228D01*
X49102139Y-125441172D01*
X48980299Y-125146297D01*
X48834258Y-125000000D01*
X63375095Y-125000000D01*
X63469530Y-125474757D01*
X63738458Y-125877237D01*
X64140938Y-126146165D01*
X64615695Y-126240600D01*
X64664305Y-126240600D01*
X65139062Y-126146165D01*
X65541542Y-125877237D01*
X65810470Y-125474757D01*
X65904905Y-125000000D01*
X65915095Y-125000000D01*
X66009530Y-125474757D01*
X66278458Y-125877237D01*
X66680938Y-126146165D01*
X67155695Y-126240600D01*
X67204305Y-126240600D01*
X67679062Y-126146165D01*
X68081542Y-125877237D01*
X68350470Y-125474757D01*
X68444905Y-125000000D01*
X68455095Y-125000000D01*
X68549530Y-125474757D01*
X68818458Y-125877237D01*
X69220938Y-126146165D01*
X69695695Y-126240600D01*
X69744305Y-126240600D01*
X70219062Y-126146165D01*
X70621542Y-125877237D01*
X70890470Y-125474757D01*
X70984905Y-125000000D01*
X70890470Y-124525243D01*
X70621542Y-124122763D01*
X70219062Y-123853835D01*
X69744305Y-123759400D01*
X69695695Y-123759400D01*
X69220938Y-123853835D01*
X68818458Y-124122763D01*
X68549530Y-124525243D01*
X68455095Y-125000000D01*
X68444905Y-125000000D01*
X68444905Y-125000000D01*
X68350470Y-124525243D01*
X68081542Y-124122763D01*
X67679062Y-123853835D01*
X67204305Y-123759400D01*
X67155695Y-123759400D01*
X66680938Y-123853835D01*
X66278458Y-124122763D01*
X66009530Y-124525243D01*
X65915095Y-125000000D01*
X65904905Y-125000000D01*
X65904905Y-125000000D01*
X65810470Y-124525243D01*
X65541542Y-124122763D01*
X65139062Y-123853835D01*
X64664305Y-123759400D01*
X64615695Y-123759400D01*
X64140938Y-123853835D01*
X63738458Y-124122763D01*
X63469530Y-124525243D01*
X63375095Y-125000000D01*
X48834258Y-125000000D01*
X48754890Y-124920494D01*
X48460228Y-124798140D01*
X48141172Y-124797861D01*
X47846297Y-124919701D01*
X47842992Y-124923000D01*
X43280422Y-124923000D01*
X43202136Y-124844714D01*
X43202139Y-124841172D01*
X43080299Y-124546297D01*
X42854890Y-124320494D01*
X42560228Y-124198140D01*
X42241172Y-124197861D01*
X42027000Y-124286355D01*
X42027000Y-124255383D01*
X42076882Y-124135254D01*
X42077117Y-123865927D01*
X41974267Y-123617011D01*
X41783990Y-123426402D01*
X41535254Y-123323118D01*
X41265927Y-123322883D01*
X41017011Y-123425733D01*
X40826402Y-123616010D01*
X40723118Y-123864746D01*
X40722883Y-124134073D01*
X40427000Y-124134073D01*
X40427000Y-122689769D01*
X63361889Y-122689769D01*
X63371248Y-122736833D01*
X63573765Y-123201291D01*
X63938607Y-123552894D01*
X64410230Y-123738114D01*
X64613000Y-123649572D01*
X64613000Y-122487000D01*
X63450456Y-122487000D01*
X63361889Y-122689769D01*
X40427000Y-122689769D01*
X40427000Y-122230231D01*
X63361889Y-122230231D01*
X63450456Y-122433000D01*
X64613000Y-122433000D01*
X64613000Y-121270428D01*
X64667000Y-121270428D01*
X64667000Y-122433000D01*
X64687000Y-122433000D01*
X64687000Y-122487000D01*
X64667000Y-122487000D01*
X64667000Y-123649572D01*
X64869770Y-123738114D01*
X65341393Y-123552894D01*
X65706235Y-123201291D01*
X65908752Y-122736833D01*
X65918111Y-122689769D01*
X65829545Y-122487002D01*
X65920466Y-122487002D01*
X66009530Y-122934757D01*
X66278458Y-123337237D01*
X66680938Y-123606165D01*
X67155695Y-123700600D01*
X67204305Y-123700600D01*
X67679062Y-123606165D01*
X68081542Y-123337237D01*
X68350470Y-122934757D01*
X68444905Y-122460000D01*
X68455095Y-122460000D01*
X68549530Y-122934757D01*
X68818458Y-123337237D01*
X69220938Y-123606165D01*
X69695695Y-123700600D01*
X69744305Y-123700600D01*
X70166654Y-123616590D01*
X70605030Y-124054965D01*
X70605032Y-124054968D01*
X70725189Y-124135254D01*
X70767893Y-124163788D01*
X70960000Y-124202001D01*
X70960005Y-124202000D01*
X71305514Y-124202000D01*
X71089530Y-124525243D01*
X70995095Y-125000000D01*
X71089530Y-125474757D01*
X71358458Y-125877237D01*
X71760938Y-126146165D01*
X72235695Y-126240600D01*
X72284305Y-126240600D01*
X72759062Y-126146165D01*
X73161542Y-125877237D01*
X73430470Y-125474757D01*
X73524905Y-125000000D01*
X73430470Y-124525243D01*
X73214486Y-124202000D01*
X73552014Y-124202000D01*
X73552014Y-125863600D01*
X73579905Y-126007349D01*
X73662898Y-126133691D01*
X73788188Y-126218263D01*
X73936400Y-126247986D01*
X75663600Y-126247986D01*
X75807349Y-126220095D01*
X75933691Y-126137102D01*
X76018263Y-126011812D01*
X76047986Y-125863600D01*
X76047986Y-124205455D01*
X76116010Y-124273598D01*
X76364746Y-124376882D01*
X76634073Y-124377117D01*
X76882989Y-124274267D01*
X77073598Y-124083990D01*
X77176882Y-123835254D01*
X77177117Y-123565927D01*
X77074267Y-123317011D01*
X76883990Y-123126402D01*
X76635254Y-123023118D01*
X76365927Y-123022883D01*
X76117011Y-123125733D01*
X76044618Y-123198000D01*
X75867670Y-123198000D01*
X76068752Y-122736833D01*
X76078111Y-122689769D01*
X75989544Y-122487000D01*
X74827000Y-122487000D01*
X74827000Y-122507000D01*
X74773000Y-122507000D01*
X74773000Y-122487000D01*
X74753000Y-122487000D01*
X74753000Y-122433000D01*
X74773000Y-122433000D01*
X74773000Y-121270428D01*
X74827000Y-121270428D01*
X74827000Y-122433000D01*
X75989544Y-122433000D01*
X76078111Y-122230231D01*
X76068752Y-122183167D01*
X75866235Y-121718709D01*
X75501393Y-121367106D01*
X75029770Y-121181886D01*
X74827000Y-121270428D01*
X74773000Y-121270428D01*
X74773000Y-121270428D01*
X74570230Y-121181886D01*
X74098607Y-121367106D01*
X73733765Y-121718709D01*
X73531248Y-122183167D01*
X73521889Y-122230231D01*
X73610455Y-122432998D01*
X73519534Y-122432998D01*
X73430470Y-121985243D01*
X73161542Y-121582763D01*
X72759062Y-121313835D01*
X72284305Y-121219400D01*
X72235695Y-121219400D01*
X71813346Y-121303410D01*
X71602000Y-121092064D01*
X71602000Y-119245397D01*
X82947558Y-119245397D01*
X83335258Y-120183704D01*
X84052520Y-120902219D01*
X84990149Y-121291556D01*
X86005397Y-121292442D01*
X86943704Y-120904742D01*
X87662219Y-120187480D01*
X87986979Y-119405369D01*
X105371174Y-119405369D01*
X105459394Y-119617750D01*
X105946021Y-119830488D01*
X106477016Y-119840808D01*
X106971542Y-119647139D01*
X107015526Y-119617750D01*
X107103746Y-119405369D01*
X106237460Y-118539084D01*
X105371174Y-119405369D01*
X87986979Y-119405369D01*
X88051556Y-119249851D01*
X88052000Y-118740456D01*
X104897552Y-118740456D01*
X105091221Y-119234982D01*
X105120610Y-119278966D01*
X105332991Y-119367186D01*
X106199276Y-118500900D01*
X105332991Y-117634614D01*
X105120610Y-117722834D01*
X104907872Y-118209461D01*
X104897552Y-118740456D01*
X88052000Y-118740456D01*
X88052442Y-118234603D01*
X88041057Y-118207047D01*
X102669497Y-118207047D01*
X102724243Y-118390856D01*
X103111493Y-118557780D01*
X103533144Y-118563804D01*
X103925004Y-118408010D01*
X103950677Y-118390856D01*
X104005423Y-118207047D01*
X103337460Y-117539084D01*
X102669497Y-118207047D01*
X88041057Y-118207047D01*
X87830138Y-117696584D01*
X102274556Y-117696584D01*
X102430350Y-118088444D01*
X102447504Y-118114117D01*
X102631313Y-118168863D01*
X103299276Y-117500900D01*
X103375644Y-117500900D01*
X104043607Y-118168863D01*
X104227416Y-118114117D01*
X104394340Y-117726867D01*
X104396203Y-117596431D01*
X105371174Y-117596431D01*
X106237460Y-118462716D01*
X107103746Y-117596431D01*
X107015526Y-117384050D01*
X106528899Y-117171312D01*
X105997904Y-117160992D01*
X105503378Y-117354661D01*
X105459394Y-117384050D01*
X105371174Y-117596431D01*
X104396203Y-117596431D01*
X104400364Y-117305216D01*
X104244570Y-116913356D01*
X104227416Y-116887683D01*
X104043607Y-116832937D01*
X103375644Y-117500900D01*
X103299276Y-117500900D01*
X103299276Y-117500900D01*
X102631313Y-116832937D01*
X102447504Y-116887683D01*
X102280580Y-117274933D01*
X102274556Y-117696584D01*
X87830138Y-117696584D01*
X87664742Y-117296296D01*
X87164074Y-116794753D01*
X102669497Y-116794753D01*
X103337460Y-117462716D01*
X104005423Y-116794753D01*
X103950677Y-116610944D01*
X103563427Y-116444020D01*
X103141776Y-116437996D01*
X102749916Y-116593790D01*
X102724243Y-116610944D01*
X102669497Y-116794753D01*
X87164074Y-116794753D01*
X86947480Y-116577781D01*
X86009851Y-116188444D01*
X84994603Y-116187558D01*
X84056296Y-116575258D01*
X83337781Y-117292520D01*
X82948444Y-118230149D01*
X82947558Y-119245397D01*
X71602000Y-119245397D01*
X71602000Y-116195985D01*
X78447610Y-116195985D01*
X78789734Y-117023989D01*
X79422679Y-117658039D01*
X80250084Y-118001608D01*
X81145985Y-118002390D01*
X81973989Y-117660266D01*
X82608039Y-117027321D01*
X82951608Y-116199916D01*
X82952390Y-115304015D01*
X82610266Y-114476011D01*
X82242395Y-114107497D01*
X83930687Y-114107497D01*
X84137550Y-114421187D01*
X84976467Y-114796333D01*
X85895087Y-114821883D01*
X86753559Y-114493946D01*
X86862450Y-114421187D01*
X87069313Y-114107497D01*
X85500000Y-112538184D01*
X83930687Y-114107497D01*
X82242395Y-114107497D01*
X81977321Y-113841961D01*
X81149916Y-113498392D01*
X80254015Y-113497610D01*
X79426011Y-113839734D01*
X78791961Y-114472679D01*
X78448392Y-115300084D01*
X78447610Y-116195985D01*
X71602000Y-116195985D01*
X71602000Y-115860005D01*
X71602001Y-115860000D01*
X71563788Y-115667893D01*
X71553766Y-115652894D01*
X71454968Y-115505032D01*
X71454965Y-115505030D01*
X70972830Y-115022894D01*
X71064905Y-114560000D01*
X70970470Y-114085243D01*
X70701542Y-113682763D01*
X70299062Y-113413835D01*
X69824305Y-113319400D01*
X69775695Y-113319400D01*
X69300938Y-113413835D01*
X68898458Y-113682763D01*
X68629530Y-114085243D01*
X68535095Y-114560000D01*
X68629530Y-115034757D01*
X68898458Y-115437237D01*
X69300938Y-115706165D01*
X69775695Y-115800600D01*
X69824305Y-115800600D01*
X70246654Y-115716590D01*
X70382079Y-115852014D01*
X68936400Y-115852014D01*
X68792651Y-115879905D01*
X68666309Y-115962898D01*
X68581737Y-116088188D01*
X68552014Y-116236400D01*
X68552014Y-117963600D01*
X68579905Y-118107349D01*
X68662898Y-118233691D01*
X68788188Y-118318263D01*
X68936400Y-118347986D01*
X69298000Y-118347986D01*
X69298000Y-121298506D01*
X69220938Y-121313835D01*
X68818458Y-121582763D01*
X68549530Y-121985243D01*
X68455095Y-122460000D01*
X68444905Y-122460000D01*
X68444905Y-122460000D01*
X68350470Y-121985243D01*
X68081542Y-121582763D01*
X67679062Y-121313835D01*
X67204305Y-121219400D01*
X67155695Y-121219400D01*
X66680938Y-121313835D01*
X66278458Y-121582763D01*
X66009530Y-121985243D01*
X65920466Y-122432998D01*
X65829545Y-122432998D01*
X65918111Y-122230231D01*
X65908752Y-122183167D01*
X65706235Y-121718709D01*
X65341393Y-121367106D01*
X64869770Y-121181886D01*
X64667000Y-121270428D01*
X64613000Y-121270428D01*
X64613000Y-121270428D01*
X64410230Y-121181886D01*
X63938607Y-121367106D01*
X63573765Y-121718709D01*
X63371248Y-122183167D01*
X63361889Y-122230231D01*
X40427000Y-122230231D01*
X40427000Y-119403569D01*
X40896254Y-119403569D01*
X40984474Y-119615950D01*
X41471101Y-119828688D01*
X42002096Y-119839008D01*
X42496622Y-119645339D01*
X42540606Y-119615950D01*
X42628826Y-119403569D01*
X41762540Y-118537284D01*
X40896254Y-119403569D01*
X40427000Y-119403569D01*
X40427000Y-118749810D01*
X40616301Y-119233182D01*
X40645690Y-119277166D01*
X40858071Y-119365386D01*
X41724356Y-118499100D01*
X41800724Y-118499100D01*
X42667009Y-119365386D01*
X42879390Y-119277166D01*
X43092128Y-118790539D01*
X43102448Y-118259544D01*
X43081184Y-118205247D01*
X43994577Y-118205247D01*
X44049323Y-118389056D01*
X44436573Y-118555980D01*
X44858224Y-118562004D01*
X45250084Y-118406210D01*
X45275757Y-118389056D01*
X45330503Y-118205247D01*
X44662540Y-117537284D01*
X43994577Y-118205247D01*
X43081184Y-118205247D01*
X42908779Y-117765018D01*
X42879390Y-117721034D01*
X42816196Y-117694784D01*
X43599636Y-117694784D01*
X43755430Y-118086644D01*
X43772584Y-118112317D01*
X43956393Y-118167063D01*
X44624356Y-117499100D01*
X44700724Y-117499100D01*
X45368687Y-118167063D01*
X45552496Y-118112317D01*
X45719420Y-117725067D01*
X45725444Y-117303416D01*
X45644571Y-117100000D01*
X63455095Y-117100000D01*
X63549530Y-117574757D01*
X63818458Y-117977237D01*
X64220938Y-118246165D01*
X64695695Y-118340600D01*
X64744305Y-118340600D01*
X65219062Y-118246165D01*
X65621542Y-117977237D01*
X65890470Y-117574757D01*
X65984905Y-117100000D01*
X65995095Y-117100000D01*
X66089530Y-117574757D01*
X66358458Y-117977237D01*
X66760938Y-118246165D01*
X67235695Y-118340600D01*
X67284305Y-118340600D01*
X67759062Y-118246165D01*
X68161542Y-117977237D01*
X68430470Y-117574757D01*
X68524905Y-117100000D01*
X68430470Y-116625243D01*
X68161542Y-116222763D01*
X67759062Y-115953835D01*
X67284305Y-115859400D01*
X67235695Y-115859400D01*
X66760938Y-115953835D01*
X66358458Y-116222763D01*
X66089530Y-116625243D01*
X65995095Y-117100000D01*
X65984905Y-117100000D01*
X65984905Y-117100000D01*
X65890470Y-116625243D01*
X65621542Y-116222763D01*
X65219062Y-115953835D01*
X64744305Y-115859400D01*
X64695695Y-115859400D01*
X64220938Y-115953835D01*
X63818458Y-116222763D01*
X63549530Y-116625243D01*
X63455095Y-117100000D01*
X45644571Y-117100000D01*
X45569650Y-116911556D01*
X45552496Y-116885883D01*
X45368687Y-116831137D01*
X44700724Y-117499100D01*
X44624356Y-117499100D01*
X44624356Y-117499100D01*
X43956393Y-116831137D01*
X43772584Y-116885883D01*
X43605660Y-117273133D01*
X43599636Y-117694784D01*
X42816196Y-117694784D01*
X42667009Y-117632814D01*
X41800724Y-118499100D01*
X41724356Y-118499100D01*
X41724356Y-118499100D01*
X40858071Y-117632814D01*
X40645690Y-117721034D01*
X40432952Y-118207661D01*
X40427000Y-118513909D01*
X40427000Y-117594631D01*
X40896254Y-117594631D01*
X41762540Y-118460916D01*
X42628826Y-117594631D01*
X42540606Y-117382250D01*
X42053979Y-117169512D01*
X41522984Y-117159192D01*
X41028458Y-117352861D01*
X40984474Y-117382250D01*
X40896254Y-117594631D01*
X40427000Y-117594631D01*
X40427000Y-116792953D01*
X43994577Y-116792953D01*
X44662540Y-117460916D01*
X45330503Y-116792953D01*
X45275757Y-116609144D01*
X44888507Y-116442220D01*
X44466856Y-116436196D01*
X44074996Y-116591990D01*
X44049323Y-116609144D01*
X43994577Y-116792953D01*
X40427000Y-116792953D01*
X40427000Y-114789769D01*
X63441889Y-114789769D01*
X63451248Y-114836833D01*
X63653765Y-115301291D01*
X64018607Y-115652894D01*
X64490230Y-115838114D01*
X64693000Y-115749572D01*
X64693000Y-114587000D01*
X63530456Y-114587000D01*
X63441889Y-114789769D01*
X40427000Y-114789769D01*
X40427000Y-114330231D01*
X63441889Y-114330231D01*
X63530456Y-114533000D01*
X64693000Y-114533000D01*
X64693000Y-113370428D01*
X64747000Y-113370428D01*
X64747000Y-114533000D01*
X64767000Y-114533000D01*
X64767000Y-114587000D01*
X64747000Y-114587000D01*
X64747000Y-115749572D01*
X64949770Y-115838114D01*
X65421393Y-115652894D01*
X65786235Y-115301291D01*
X65988752Y-114836833D01*
X65998111Y-114789769D01*
X65909545Y-114587002D01*
X66000466Y-114587002D01*
X66089530Y-115034757D01*
X66358458Y-115437237D01*
X66760938Y-115706165D01*
X67235695Y-115800600D01*
X67284305Y-115800600D01*
X67759062Y-115706165D01*
X68161542Y-115437237D01*
X68430470Y-115034757D01*
X68524905Y-114560000D01*
X68430470Y-114085243D01*
X68161542Y-113682763D01*
X67759062Y-113413835D01*
X67284305Y-113319400D01*
X67235695Y-113319400D01*
X66760938Y-113413835D01*
X66358458Y-113682763D01*
X66089530Y-114085243D01*
X66000466Y-114532998D01*
X65909545Y-114532998D01*
X65998111Y-114330231D01*
X65988752Y-114283167D01*
X65786235Y-113818709D01*
X65421393Y-113467106D01*
X64949770Y-113281886D01*
X64747000Y-113370428D01*
X64693000Y-113370428D01*
X64693000Y-113370428D01*
X64490230Y-113281886D01*
X64018607Y-113467106D01*
X63653765Y-113818709D01*
X63451248Y-114283167D01*
X63441889Y-114330231D01*
X40427000Y-114330231D01*
X40427000Y-113205247D01*
X43994577Y-113205247D01*
X44049323Y-113389056D01*
X44436573Y-113555980D01*
X44858224Y-113562004D01*
X45250084Y-113406210D01*
X45275757Y-113389056D01*
X45330503Y-113205247D01*
X44662540Y-112537284D01*
X43994577Y-113205247D01*
X40427000Y-113205247D01*
X40427000Y-112403569D01*
X40896254Y-112403569D01*
X40984474Y-112615950D01*
X41471101Y-112828688D01*
X42002096Y-112839008D01*
X42370366Y-112694784D01*
X43599636Y-112694784D01*
X43755430Y-113086644D01*
X43772584Y-113112317D01*
X43956393Y-113167063D01*
X44624356Y-112499100D01*
X44700724Y-112499100D01*
X45368687Y-113167063D01*
X45552496Y-113112317D01*
X45646132Y-112895087D01*
X83178117Y-112895087D01*
X83506054Y-113753559D01*
X83578813Y-113862450D01*
X83892503Y-114069313D01*
X85461816Y-112500000D01*
X85538184Y-112500000D01*
X87107497Y-114069313D01*
X87421187Y-113862450D01*
X87714269Y-113207047D01*
X102669497Y-113207047D01*
X102724243Y-113390856D01*
X103111493Y-113557780D01*
X103533144Y-113563804D01*
X103925004Y-113408010D01*
X103950677Y-113390856D01*
X104005423Y-113207047D01*
X103337460Y-112539084D01*
X102669497Y-113207047D01*
X87714269Y-113207047D01*
X87796333Y-113023533D01*
X87805426Y-112696584D01*
X102274556Y-112696584D01*
X102430350Y-113088444D01*
X102447504Y-113114117D01*
X102631313Y-113168863D01*
X103299276Y-112500900D01*
X103375644Y-112500900D01*
X104043607Y-113168863D01*
X104227416Y-113114117D01*
X104394340Y-112726867D01*
X104398933Y-112405369D01*
X105371174Y-112405369D01*
X105459394Y-112617750D01*
X105946021Y-112830488D01*
X106477016Y-112840808D01*
X106971542Y-112647139D01*
X107015526Y-112617750D01*
X107103746Y-112405369D01*
X106237460Y-111539084D01*
X105371174Y-112405369D01*
X104398933Y-112405369D01*
X104400364Y-112305216D01*
X104244570Y-111913356D01*
X104227416Y-111887683D01*
X104043607Y-111832937D01*
X103375644Y-112500900D01*
X103299276Y-112500900D01*
X103299276Y-112500900D01*
X102631313Y-111832937D01*
X102447504Y-111887683D01*
X102280580Y-112274933D01*
X102274556Y-112696584D01*
X87805426Y-112696584D01*
X87821883Y-112104913D01*
X87703402Y-111794753D01*
X102669497Y-111794753D01*
X103337460Y-112462716D01*
X104005423Y-111794753D01*
X103989252Y-111740456D01*
X104897552Y-111740456D01*
X105091221Y-112234982D01*
X105120610Y-112278966D01*
X105332991Y-112367186D01*
X106199276Y-111500900D01*
X105332991Y-110634614D01*
X105120610Y-110722834D01*
X104907872Y-111209461D01*
X104897552Y-111740456D01*
X103989252Y-111740456D01*
X103950677Y-111610944D01*
X103563427Y-111444020D01*
X103141776Y-111437996D01*
X102749916Y-111593790D01*
X102724243Y-111610944D01*
X102669497Y-111794753D01*
X87703402Y-111794753D01*
X87493946Y-111246441D01*
X87421187Y-111137550D01*
X87107497Y-110930687D01*
X85538184Y-112500000D01*
X85461816Y-112500000D01*
X85461816Y-112500000D01*
X83892503Y-110930687D01*
X83578813Y-111137550D01*
X83203667Y-111976467D01*
X83178117Y-112895087D01*
X45646132Y-112895087D01*
X45719420Y-112725067D01*
X45725444Y-112303416D01*
X45569650Y-111911556D01*
X45552496Y-111885883D01*
X45368687Y-111831137D01*
X44700724Y-112499100D01*
X44624356Y-112499100D01*
X44624356Y-112499100D01*
X43956393Y-111831137D01*
X43772584Y-111885883D01*
X43605660Y-112273133D01*
X43599636Y-112694784D01*
X42370366Y-112694784D01*
X42496622Y-112645339D01*
X42540606Y-112615950D01*
X42628826Y-112403569D01*
X41762540Y-111537284D01*
X40896254Y-112403569D01*
X40427000Y-112403569D01*
X40427000Y-111749810D01*
X40616301Y-112233182D01*
X40645690Y-112277166D01*
X40858071Y-112365386D01*
X41724356Y-111499100D01*
X41800724Y-111499100D01*
X42667009Y-112365386D01*
X42879390Y-112277166D01*
X43091072Y-111792953D01*
X43994577Y-111792953D01*
X44662540Y-112460916D01*
X45330503Y-111792953D01*
X45275757Y-111609144D01*
X44888507Y-111442220D01*
X44466856Y-111436196D01*
X44074996Y-111591990D01*
X44049323Y-111609144D01*
X43994577Y-111792953D01*
X43091072Y-111792953D01*
X43092128Y-111790539D01*
X43102448Y-111259544D01*
X42908779Y-110765018D01*
X42879390Y-110721034D01*
X42667009Y-110632814D01*
X41800724Y-111499100D01*
X41724356Y-111499100D01*
X41724356Y-111499100D01*
X40858071Y-110632814D01*
X40645690Y-110721034D01*
X40432952Y-111207661D01*
X40427000Y-111513909D01*
X40427000Y-110594631D01*
X40896254Y-110594631D01*
X41762540Y-111460916D01*
X42628826Y-110594631D01*
X42540606Y-110382250D01*
X42053979Y-110169512D01*
X41522984Y-110159192D01*
X41028458Y-110352861D01*
X40984474Y-110382250D01*
X40896254Y-110594631D01*
X40427000Y-110594631D01*
X40427000Y-109421230D01*
X48372632Y-109421230D01*
X48695766Y-110203274D01*
X49293578Y-110802131D01*
X50075057Y-111126630D01*
X50921230Y-111127368D01*
X51489646Y-110892503D01*
X83930687Y-110892503D01*
X85500000Y-112461816D01*
X87069313Y-110892503D01*
X86862450Y-110578813D01*
X86023533Y-110203667D01*
X85104913Y-110178117D01*
X84246441Y-110506054D01*
X84137550Y-110578813D01*
X83930687Y-110892503D01*
X51489646Y-110892503D01*
X51703274Y-110804234D01*
X52302131Y-110206422D01*
X52626630Y-109424943D01*
X52626633Y-109421230D01*
X93372632Y-109421230D01*
X93695766Y-110203274D01*
X94293578Y-110802131D01*
X95075057Y-111126630D01*
X95921230Y-111127368D01*
X96703274Y-110804234D01*
X96911440Y-110596431D01*
X105371174Y-110596431D01*
X106237460Y-111462716D01*
X107103746Y-110596431D01*
X107015526Y-110384050D01*
X106528899Y-110171312D01*
X105997904Y-110160992D01*
X105503378Y-110354661D01*
X105459394Y-110384050D01*
X105371174Y-110596431D01*
X96911440Y-110596431D01*
X97302131Y-110206422D01*
X97626630Y-109424943D01*
X97627368Y-108578770D01*
X97304234Y-107796726D01*
X96706422Y-107197869D01*
X95924943Y-106873370D01*
X95078770Y-106872632D01*
X94296726Y-107195766D01*
X93697869Y-107793578D01*
X93373370Y-108575057D01*
X93372632Y-109421230D01*
X52626633Y-109421230D01*
X52627368Y-108578770D01*
X52304234Y-107796726D01*
X51706422Y-107197869D01*
X50924943Y-106873370D01*
X50078770Y-106872632D01*
X49296726Y-107195766D01*
X48697869Y-107793578D01*
X48373370Y-108575057D01*
X48372632Y-109421230D01*
X40427000Y-109421230D01*
X40427000Y-109042055D01*
X40706707Y-107635874D01*
X41479423Y-106479423D01*
X42635874Y-105706707D01*
X44042055Y-105427000D01*
X103957945Y-105427000D01*
X105364126Y-105706707D01*
X105364126Y-105706707D01*
G37*
X105364126Y-105706707D02*
X106520577Y-106479423D01*
X107293293Y-107635874D01*
X107573000Y-109042055D01*
X107573000Y-111250190D01*
X107383699Y-110766818D01*
X107354310Y-110722834D01*
X107141929Y-110634614D01*
X106275644Y-111500900D01*
X107141929Y-112367186D01*
X107354310Y-112278966D01*
X107567048Y-111792339D01*
X107573000Y-111486091D01*
X107573000Y-118250190D01*
X107383699Y-117766818D01*
X107354310Y-117722834D01*
X107141929Y-117634614D01*
X106275644Y-118500900D01*
X107141929Y-119367186D01*
X107354310Y-119278966D01*
X107567048Y-118792339D01*
X107573000Y-118486091D01*
X107573000Y-136088000D01*
X105595750Y-136088000D01*
X105487000Y-136196750D01*
X105487000Y-137385000D01*
X105507000Y-137385000D01*
X105507000Y-137439000D01*
X105487000Y-137439000D01*
X105487000Y-138627250D01*
X105595750Y-138736000D01*
X107573000Y-138736000D01*
X107573000Y-138932614D01*
X102920000Y-138932614D01*
X102776251Y-138960505D01*
X102649909Y-139043498D01*
X102565337Y-139168788D01*
X102535614Y-139317000D01*
X102535614Y-141095000D01*
X102563505Y-141238749D01*
X102646498Y-141365091D01*
X102771788Y-141449663D01*
X102920000Y-141479386D01*
X107573000Y-141479386D01*
X107573000Y-141676000D01*
X105595750Y-141676000D01*
X105487000Y-141784750D01*
X105487000Y-142973000D01*
X105507000Y-142973000D01*
X105507000Y-143027000D01*
X105487000Y-143027000D01*
X105487000Y-144215250D01*
X105595750Y-144324000D01*
X107573000Y-144324000D01*
X107573000Y-144520614D01*
X103530549Y-144520614D01*
X103333936Y-144324000D01*
X105324250Y-144324000D01*
X105433000Y-144215250D01*
X105433000Y-143027000D01*
X102593750Y-143027000D01*
X102485000Y-143135750D01*
X102485000Y-143242987D01*
X102474267Y-143217011D01*
X102283990Y-143026402D01*
X102035254Y-142923118D01*
X101765927Y-142922883D01*
X101517011Y-143025733D01*
X101326402Y-143216010D01*
X101223118Y-143464746D01*
X101222883Y-143734073D01*
X101325733Y-143982989D01*
X101516010Y-144173598D01*
X101764746Y-144276882D01*
X101867035Y-144276971D01*
X102535614Y-144945550D01*
X102535614Y-146683000D01*
X102563505Y-146826749D01*
X102646498Y-146953091D01*
X102771788Y-147037663D01*
X102920000Y-147067386D01*
X107573000Y-147067386D01*
X107573000Y-147314614D01*
X102920000Y-147314614D01*
X102776251Y-147342505D01*
X102649909Y-147425498D01*
X102565337Y-147550788D01*
X102535614Y-147699000D01*
X102535614Y-148623267D01*
X102535254Y-148623118D01*
X102265927Y-148622883D01*
X102017011Y-148725733D01*
X101826402Y-148916010D01*
X101723118Y-149164746D01*
X101722883Y-149434073D01*
X101825733Y-149682989D01*
X102016010Y-149873598D01*
X102264746Y-149976882D01*
X102534073Y-149977117D01*
X102782989Y-149874267D01*
X102816654Y-149840661D01*
X102920000Y-149861386D01*
X107573000Y-149861386D01*
X107573000Y-158957945D01*
X107293293Y-160364126D01*
X106520577Y-161520577D01*
X105364126Y-162293293D01*
X103957945Y-162573000D01*
X44042055Y-162573000D01*
X42635874Y-162293293D01*
X41479423Y-161520577D01*
X40706707Y-160364126D01*
X40539045Y-159521230D01*
X48372632Y-159521230D01*
X48695766Y-160303274D01*
X49293578Y-160902131D01*
X50075057Y-161226630D01*
X50921230Y-161227368D01*
X51703274Y-160904234D01*
X52302131Y-160306422D01*
X52626630Y-159524943D01*
X52626720Y-159421230D01*
X93372632Y-159421230D01*
X93695766Y-160203274D01*
X94293578Y-160802131D01*
X95075057Y-161126630D01*
X95921230Y-161127368D01*
X96703274Y-160804234D01*
X97302131Y-160206422D01*
X97626630Y-159424943D01*
X97627368Y-158578770D01*
X97304234Y-157796726D01*
X96706422Y-157197869D01*
X95924943Y-156873370D01*
X95078770Y-156872632D01*
X94296726Y-157195766D01*
X93697869Y-157793578D01*
X93373370Y-158575057D01*
X93372632Y-159421230D01*
X52626720Y-159421230D01*
X52627368Y-158678770D01*
X52304234Y-157896726D01*
X51706422Y-157297869D01*
X50924943Y-156973370D01*
X50078770Y-156972632D01*
X49296726Y-157295766D01*
X48697869Y-157893578D01*
X48373370Y-158675057D01*
X48372632Y-159521230D01*
X40539045Y-159521230D01*
X40427000Y-158957945D01*
X40427000Y-154134073D01*
X56322883Y-154134073D01*
X56425733Y-154382989D01*
X56616010Y-154573598D01*
X56864746Y-154676882D01*
X57134073Y-154677117D01*
X57382989Y-154574267D01*
X57455382Y-154502000D01*
X94899995Y-154502000D01*
X94900000Y-154502001D01*
X95092107Y-154463788D01*
X95254968Y-154354968D01*
X95654965Y-153954970D01*
X95654968Y-153954968D01*
X95720200Y-153857340D01*
X95763788Y-153792108D01*
X95802000Y-153600000D01*
X95802000Y-151509304D01*
X95964746Y-151576882D01*
X96234073Y-151577117D01*
X96482989Y-151474267D01*
X96555382Y-151402000D01*
X98944537Y-151402000D01*
X99016010Y-151473598D01*
X99264746Y-151576882D01*
X99534073Y-151577117D01*
X99782989Y-151474267D01*
X99973598Y-151283990D01*
X100076882Y-151035254D01*
X100077117Y-150765927D01*
X99974267Y-150517011D01*
X99783990Y-150326402D01*
X99535254Y-150223118D01*
X99265927Y-150222883D01*
X99017011Y-150325733D01*
X98944618Y-150398000D01*
X98659564Y-150398000D01*
X98673598Y-150383990D01*
X98776882Y-150135254D01*
X98777117Y-149865927D01*
X98674267Y-149617011D01*
X98483990Y-149426402D01*
X98235254Y-149323118D01*
X97965927Y-149322883D01*
X97717011Y-149425733D01*
X97644618Y-149498000D01*
X96111935Y-149498000D01*
X96954965Y-148654970D01*
X96954968Y-148654968D01*
X97063788Y-148492107D01*
X97069421Y-148463788D01*
X97102001Y-148300000D01*
X97102000Y-148299995D01*
X97102000Y-147700005D01*
X97102001Y-147700000D01*
X97063788Y-147507893D01*
X97028425Y-147454968D01*
X96954968Y-147345032D01*
X96954965Y-147345030D01*
X95502000Y-145892064D01*
X95502000Y-145607731D01*
X95582989Y-145574267D01*
X95773598Y-145383990D01*
X95876882Y-145135254D01*
X95877117Y-144865927D01*
X95774267Y-144617011D01*
X95583990Y-144426402D01*
X95335254Y-144323118D01*
X95065927Y-144322883D01*
X94817011Y-144425733D01*
X94626402Y-144616010D01*
X94523118Y-144864746D01*
X94522935Y-145074641D01*
X94497999Y-145200000D01*
X94498000Y-145200005D01*
X94498000Y-146099995D01*
X94497999Y-146100000D01*
X94536212Y-146292107D01*
X94645032Y-146454968D01*
X95586914Y-147396850D01*
X95517011Y-147425733D01*
X95326402Y-147616010D01*
X95223118Y-147864746D01*
X95223029Y-147967036D01*
X94692064Y-148498000D01*
X90350828Y-148498000D01*
X90376882Y-148435254D01*
X90376971Y-148332965D01*
X92054968Y-146654968D01*
X92163788Y-146492108D01*
X92202000Y-146300000D01*
X92202000Y-145555463D01*
X92273598Y-145483990D01*
X92376882Y-145235254D01*
X92377117Y-144965927D01*
X92274267Y-144717011D01*
X92083990Y-144526402D01*
X91835254Y-144423118D01*
X91565927Y-144422883D01*
X91317011Y-144525733D01*
X91126402Y-144716010D01*
X91023118Y-144964746D01*
X91022883Y-145234073D01*
X91125733Y-145482989D01*
X91198000Y-145555382D01*
X91198000Y-146092064D01*
X89667093Y-147622971D01*
X89565927Y-147622883D01*
X89317011Y-147725733D01*
X89126402Y-147916010D01*
X89096928Y-147986992D01*
X88702000Y-147592064D01*
X88702000Y-147455463D01*
X88773598Y-147383990D01*
X88876882Y-147135254D01*
X88877117Y-146865927D01*
X88845623Y-146789706D01*
X88882989Y-146774267D01*
X89073598Y-146583990D01*
X89176882Y-146335254D01*
X89177117Y-146065927D01*
X89074267Y-145817011D01*
X88883990Y-145626402D01*
X88635254Y-145523118D01*
X88365927Y-145522883D01*
X88117011Y-145625733D01*
X88044618Y-145698000D01*
X88000005Y-145698000D01*
X88000000Y-145697999D01*
X87807893Y-145736212D01*
X87645032Y-145845032D01*
X87645030Y-145845035D01*
X87145032Y-146345032D01*
X87036212Y-146507893D01*
X86997999Y-146700000D01*
X86998000Y-146700005D01*
X86998000Y-147899995D01*
X86997999Y-147900000D01*
X87036212Y-148092107D01*
X87145032Y-148254968D01*
X88745030Y-149854965D01*
X88745032Y-149854968D01*
X88865189Y-149935254D01*
X88907893Y-149963788D01*
X89100000Y-150002001D01*
X89100005Y-150002000D01*
X91092064Y-150002000D01*
X92122971Y-151032906D01*
X92122883Y-151134073D01*
X92225733Y-151382989D01*
X92416010Y-151573598D01*
X92664746Y-151676882D01*
X92934073Y-151677117D01*
X93182989Y-151574267D01*
X93373598Y-151383990D01*
X93476882Y-151135254D01*
X93477117Y-150865927D01*
X93374267Y-150617011D01*
X93183990Y-150426402D01*
X92935254Y-150323118D01*
X92832964Y-150323029D01*
X92011936Y-149502000D01*
X94688064Y-149502000D01*
X94345032Y-149845032D01*
X94236212Y-150007893D01*
X94197999Y-150200000D01*
X94198000Y-150200005D01*
X94198000Y-152744711D01*
X94026402Y-152916010D01*
X93923118Y-153164746D01*
X93922883Y-153434073D01*
X93949297Y-153498000D01*
X89796783Y-153498000D01*
X89832375Y-153462408D01*
X89898600Y-153302527D01*
X89898600Y-152335750D01*
X89789850Y-152227000D01*
X88627000Y-152227000D01*
X88627000Y-152247000D01*
X88573000Y-152247000D01*
X88573000Y-152227000D01*
X87410150Y-152227000D01*
X87301400Y-152335750D01*
X87301400Y-153302527D01*
X87367625Y-153462408D01*
X87403217Y-153498000D01*
X86576445Y-153498000D01*
X86937237Y-153256927D01*
X87206165Y-152854447D01*
X87300600Y-152379690D01*
X87300600Y-152020310D01*
X87206165Y-151545553D01*
X86937237Y-151143073D01*
X86868992Y-151097473D01*
X87301400Y-151097473D01*
X87301400Y-152064250D01*
X87410150Y-152173000D01*
X88573000Y-152173000D01*
X88573000Y-150857750D01*
X88627000Y-150857750D01*
X88627000Y-152173000D01*
X89789850Y-152173000D01*
X89898600Y-152064250D01*
X89898600Y-151097473D01*
X89832375Y-150937592D01*
X89710008Y-150815225D01*
X89550127Y-150749000D01*
X88735750Y-150749000D01*
X88627000Y-150857750D01*
X88573000Y-150857750D01*
X88573000Y-150857750D01*
X88464250Y-150749000D01*
X87649873Y-150749000D01*
X87489992Y-150815225D01*
X87367625Y-150937592D01*
X87301400Y-151097473D01*
X86868992Y-151097473D01*
X86534757Y-150874145D01*
X86060000Y-150779710D01*
X85585243Y-150874145D01*
X85182763Y-151143073D01*
X84913835Y-151545553D01*
X84819400Y-152020310D01*
X84819400Y-152379690D01*
X84913835Y-152854447D01*
X85182763Y-153256927D01*
X85543555Y-153498000D01*
X84036445Y-153498000D01*
X84397237Y-153256927D01*
X84666165Y-152854447D01*
X84760600Y-152379690D01*
X84760600Y-152020310D01*
X84666165Y-151545553D01*
X84397237Y-151143073D01*
X83994757Y-150874145D01*
X83520000Y-150779710D01*
X83045243Y-150874145D01*
X82642763Y-151143073D01*
X82373835Y-151545553D01*
X82279400Y-152020310D01*
X82279400Y-152379690D01*
X82373835Y-152854447D01*
X82642763Y-153256927D01*
X83003555Y-153498000D01*
X81496445Y-153498000D01*
X81857237Y-153256927D01*
X82126165Y-152854447D01*
X82220600Y-152379690D01*
X82220600Y-152020310D01*
X82126165Y-151545553D01*
X81857237Y-151143073D01*
X81482000Y-150892348D01*
X81482000Y-149427936D01*
X82254965Y-148654970D01*
X82254968Y-148654968D01*
X82363788Y-148492107D01*
X82402000Y-148300000D01*
X82402000Y-147955289D01*
X82573598Y-147783990D01*
X82676882Y-147535254D01*
X82677117Y-147265927D01*
X82574267Y-147017011D01*
X82383990Y-146826402D01*
X82135254Y-146723118D01*
X81865927Y-146722883D01*
X81617011Y-146825733D01*
X81426402Y-147016010D01*
X81323118Y-147264746D01*
X81323067Y-147323107D01*
X81065927Y-147322883D01*
X80817011Y-147425733D01*
X80626402Y-147616010D01*
X80523118Y-147864746D01*
X80523029Y-147967036D01*
X78403150Y-150086914D01*
X78374267Y-150017011D01*
X78183990Y-149826402D01*
X77935254Y-149723118D01*
X77832964Y-149723029D01*
X76802000Y-148692064D01*
X76802000Y-148334073D01*
X77222883Y-148334073D01*
X77325733Y-148582989D01*
X77516010Y-148773598D01*
X77764746Y-148876882D01*
X78034073Y-148877117D01*
X78282989Y-148774267D01*
X78473598Y-148583990D01*
X78576882Y-148335254D01*
X78576971Y-148232965D01*
X79354968Y-147454968D01*
X79463788Y-147292107D01*
X79502001Y-147100000D01*
X79502000Y-147099995D01*
X79502000Y-146955463D01*
X79573598Y-146883990D01*
X79676882Y-146635254D01*
X79677117Y-146365927D01*
X79574267Y-146117011D01*
X79383990Y-145926402D01*
X79135254Y-145823118D01*
X78865927Y-145822883D01*
X78617011Y-145925733D01*
X78426402Y-146116010D01*
X78323118Y-146364746D01*
X78322883Y-146634073D01*
X78425733Y-146882989D01*
X78466369Y-146923695D01*
X77867093Y-147522971D01*
X77765927Y-147522883D01*
X77517011Y-147625733D01*
X77326402Y-147816010D01*
X77223118Y-148064746D01*
X77222883Y-148334073D01*
X76802000Y-148334073D01*
X76802000Y-147100000D01*
X76769421Y-146936212D01*
X76763788Y-146907892D01*
X76719609Y-146841774D01*
X76882989Y-146774267D01*
X77073598Y-146583990D01*
X77176882Y-146335254D01*
X77176971Y-146232965D01*
X78007935Y-145402000D01*
X79044537Y-145402000D01*
X79116010Y-145473598D01*
X79364746Y-145576882D01*
X79634073Y-145577117D01*
X79882989Y-145474267D01*
X80073598Y-145283990D01*
X80176882Y-145035254D01*
X80177117Y-144765927D01*
X80074267Y-144517011D01*
X79883990Y-144326402D01*
X79635254Y-144223118D01*
X79365927Y-144222883D01*
X79117011Y-144325733D01*
X79044618Y-144398000D01*
X77800005Y-144398000D01*
X77800000Y-144397999D01*
X77607893Y-144436212D01*
X77445032Y-144545032D01*
X77445030Y-144545035D01*
X76467093Y-145522971D01*
X76365927Y-145522883D01*
X76117011Y-145625733D01*
X76100137Y-145642577D01*
X76083990Y-145626402D01*
X75835254Y-145523118D01*
X75659365Y-145522965D01*
X75574267Y-145317011D01*
X75383990Y-145126402D01*
X75135254Y-145023118D01*
X74865927Y-145022883D01*
X74617011Y-145125733D01*
X74426402Y-145316010D01*
X74323118Y-145564746D01*
X74322901Y-145812965D01*
X73802000Y-145292064D01*
X73802000Y-142855463D01*
X73873598Y-142783990D01*
X73976882Y-142535254D01*
X73977117Y-142265927D01*
X73874267Y-142017011D01*
X73683990Y-141826402D01*
X73435254Y-141723118D01*
X73165927Y-141722883D01*
X72917011Y-141825733D01*
X72726402Y-142016010D01*
X72623118Y-142264746D01*
X72622883Y-142534073D01*
X72725733Y-142782989D01*
X72798000Y-142855382D01*
X72798000Y-145499995D01*
X72797999Y-145500000D01*
X72836212Y-145692107D01*
X72945032Y-145854968D01*
X74286914Y-147196850D01*
X74217011Y-147225733D01*
X74026402Y-147416010D01*
X73923118Y-147664746D01*
X73922980Y-147823107D01*
X73665927Y-147822883D01*
X73539583Y-147875087D01*
X73474267Y-147717011D01*
X73283990Y-147526402D01*
X73035254Y-147423118D01*
X72765927Y-147422883D01*
X72517011Y-147525733D01*
X72326402Y-147716010D01*
X72292357Y-147798000D01*
X70000000Y-147798000D01*
X69807892Y-147836212D01*
X69763421Y-147865927D01*
X69645032Y-147945032D01*
X69645030Y-147945035D01*
X68292064Y-149298000D01*
X63700005Y-149298000D01*
X63700000Y-149297999D01*
X63507893Y-149336212D01*
X63345032Y-149445032D01*
X63345030Y-149445035D01*
X61581198Y-151208866D01*
X61537237Y-151143073D01*
X61134757Y-150874145D01*
X60660000Y-150779710D01*
X60185243Y-150874145D01*
X59782763Y-151143073D01*
X59513835Y-151545553D01*
X59419400Y-152020310D01*
X59419400Y-152379690D01*
X59513835Y-152854447D01*
X59782763Y-153256927D01*
X60143555Y-153498000D01*
X57455463Y-153498000D01*
X57383990Y-153426402D01*
X57135254Y-153323118D01*
X56865927Y-153322883D01*
X56617011Y-153425733D01*
X56426402Y-153616010D01*
X56323118Y-153864746D01*
X56322883Y-154134073D01*
X40427000Y-154134073D01*
X40427000Y-148464386D01*
X45080000Y-148464386D01*
X45223749Y-148436495D01*
X45350091Y-148353502D01*
X45434663Y-148228212D01*
X45464386Y-148080000D01*
X45464386Y-146945550D01*
X46854965Y-145554970D01*
X46854968Y-145554968D01*
X46934958Y-145435254D01*
X46963788Y-145392108D01*
X47002000Y-145200000D01*
X47002000Y-145134073D01*
X51522883Y-145134073D01*
X51625733Y-145382989D01*
X51798000Y-145555557D01*
X51798000Y-147044711D01*
X51626402Y-147216010D01*
X51523118Y-147464746D01*
X51522883Y-147734073D01*
X51625733Y-147982989D01*
X51816010Y-148173598D01*
X52064746Y-148276882D01*
X52202574Y-148277002D01*
X52197999Y-148300000D01*
X52198000Y-148300005D01*
X52198000Y-149344537D01*
X52126402Y-149416010D01*
X52023118Y-149664746D01*
X52022883Y-149934073D01*
X52125733Y-150182989D01*
X52316010Y-150373598D01*
X52564746Y-150476882D01*
X52834073Y-150477117D01*
X53082989Y-150374267D01*
X53273598Y-150183990D01*
X53294325Y-150134073D01*
X56222883Y-150134073D01*
X56325733Y-150382989D01*
X56516010Y-150573598D01*
X56764746Y-150676882D01*
X57034073Y-150677117D01*
X57110294Y-150645623D01*
X57125733Y-150682989D01*
X57316010Y-150873598D01*
X57564746Y-150976882D01*
X57834073Y-150977117D01*
X58082989Y-150874267D01*
X58264033Y-150693539D01*
X58464746Y-150776882D01*
X58734073Y-150777117D01*
X58982989Y-150674267D01*
X59173598Y-150483990D01*
X59276882Y-150235254D01*
X59277117Y-149965927D01*
X59238199Y-149871737D01*
X60907935Y-148202000D01*
X61492065Y-148202000D01*
X61545030Y-148254965D01*
X61545032Y-148254968D01*
X61665189Y-148335254D01*
X61707893Y-148363788D01*
X61900000Y-148402001D01*
X61900005Y-148402000D01*
X63844537Y-148402000D01*
X63916010Y-148473598D01*
X64164746Y-148576882D01*
X64434073Y-148577117D01*
X64682989Y-148474267D01*
X64873598Y-148283990D01*
X64976882Y-148035254D01*
X64977117Y-147765927D01*
X64874267Y-147517011D01*
X64683990Y-147326402D01*
X64435254Y-147223118D01*
X64165927Y-147222883D01*
X63917011Y-147325733D01*
X63844618Y-147398000D01*
X62750828Y-147398000D01*
X62776882Y-147335254D01*
X62777117Y-147065927D01*
X62746853Y-146992681D01*
X62892107Y-146963788D01*
X63054968Y-146854968D01*
X63432907Y-146477029D01*
X63534073Y-146477117D01*
X63782989Y-146374267D01*
X63973598Y-146183990D01*
X64076882Y-145935254D01*
X64077117Y-145665927D01*
X63974267Y-145417011D01*
X63783990Y-145226402D01*
X63535254Y-145123118D01*
X63265927Y-145122883D01*
X63017011Y-145225733D01*
X62826402Y-145416010D01*
X62723118Y-145664746D01*
X62723029Y-145767036D01*
X62492064Y-145998000D01*
X60400000Y-145998000D01*
X60207893Y-146036212D01*
X60045032Y-146145032D01*
X60045030Y-146145035D01*
X56867093Y-149322971D01*
X56765927Y-149322883D01*
X56517011Y-149425733D01*
X56326402Y-149616010D01*
X56223118Y-149864746D01*
X56222883Y-150134073D01*
X53294325Y-150134073D01*
X53376882Y-149935254D01*
X53377117Y-149665927D01*
X53274267Y-149417011D01*
X53202000Y-149344618D01*
X53202000Y-149109304D01*
X53364746Y-149176882D01*
X53522933Y-149177020D01*
X53522883Y-149234073D01*
X53625733Y-149482989D01*
X53816010Y-149673598D01*
X54064746Y-149776882D01*
X54334073Y-149777117D01*
X54582989Y-149674267D01*
X54773598Y-149483990D01*
X54876882Y-149235254D01*
X54877117Y-148965927D01*
X54774267Y-148717011D01*
X54702000Y-148644618D01*
X54702000Y-148100005D01*
X54702001Y-148100000D01*
X54663788Y-147907893D01*
X54628425Y-147854968D01*
X54554968Y-147745032D01*
X54554965Y-147745030D01*
X54502000Y-147692065D01*
X54502000Y-146507936D01*
X55176208Y-145833727D01*
X55216010Y-145873598D01*
X55464746Y-145976882D01*
X55734073Y-145977117D01*
X55982989Y-145874267D01*
X56173598Y-145683990D01*
X56276882Y-145435254D01*
X56277117Y-145165927D01*
X56174267Y-144917011D01*
X55983990Y-144726402D01*
X55735254Y-144623118D01*
X55676893Y-144623067D01*
X55677117Y-144365927D01*
X55574267Y-144117011D01*
X55383990Y-143926402D01*
X55135254Y-143823118D01*
X54865927Y-143822883D01*
X54777035Y-143859612D01*
X54777117Y-143765927D01*
X54674267Y-143517011D01*
X54483990Y-143326402D01*
X54235254Y-143223118D01*
X53965927Y-143222883D01*
X53717011Y-143325733D01*
X53526402Y-143516010D01*
X53423118Y-143764746D01*
X53422883Y-144034073D01*
X53525733Y-144282989D01*
X53598000Y-144355382D01*
X53598000Y-144555667D01*
X52802000Y-145351666D01*
X52802000Y-145315590D01*
X52876882Y-145135254D01*
X52877117Y-144865927D01*
X52774267Y-144617011D01*
X52583990Y-144426402D01*
X52335254Y-144323118D01*
X52065927Y-144322883D01*
X51817011Y-144425733D01*
X51626402Y-144616010D01*
X51523118Y-144864746D01*
X51522883Y-145134073D01*
X47002000Y-145134073D01*
X47002000Y-143000005D01*
X47002001Y-143000000D01*
X46976935Y-142873989D01*
X46977117Y-142665927D01*
X46874267Y-142417011D01*
X46683990Y-142226402D01*
X46435254Y-142123118D01*
X46165927Y-142122883D01*
X45917011Y-142225733D01*
X45726402Y-142416010D01*
X45623118Y-142664746D01*
X45622883Y-142934073D01*
X45725733Y-143182989D01*
X45916010Y-143373598D01*
X45998000Y-143407643D01*
X45998000Y-143790696D01*
X45835254Y-143723118D01*
X45565927Y-143722883D01*
X45464386Y-143764839D01*
X45464386Y-143508000D01*
X45436495Y-143364251D01*
X45353502Y-143237909D01*
X45228212Y-143153337D01*
X45080000Y-143123614D01*
X40427000Y-143123614D01*
X40427000Y-142876386D01*
X45080000Y-142876386D01*
X45223749Y-142848495D01*
X45350091Y-142765502D01*
X45434663Y-142640212D01*
X45464386Y-142492000D01*
X45464386Y-140714000D01*
X45436495Y-140570251D01*
X45353502Y-140443909D01*
X45228212Y-140359337D01*
X45080000Y-140329614D01*
X40427000Y-140329614D01*
X40427000Y-140234073D01*
X52722883Y-140234073D01*
X52825733Y-140482989D01*
X52898000Y-140555382D01*
X52898000Y-141844537D01*
X52826402Y-141916010D01*
X52723118Y-142164746D01*
X52722883Y-142434073D01*
X52825733Y-142682989D01*
X53016010Y-142873598D01*
X53264746Y-142976882D01*
X53534073Y-142977117D01*
X53782989Y-142874267D01*
X53973598Y-142683990D01*
X54076882Y-142435254D01*
X54077117Y-142165927D01*
X53974267Y-141917011D01*
X53902000Y-141844618D01*
X53902000Y-140859564D01*
X53916010Y-140873598D01*
X54164746Y-140976882D01*
X54434073Y-140977117D01*
X54682989Y-140874267D01*
X54715821Y-140841492D01*
X54623118Y-141064746D01*
X54622883Y-141334073D01*
X54725733Y-141582989D01*
X54916010Y-141773598D01*
X55164746Y-141876882D01*
X55434073Y-141877117D01*
X55682989Y-141774267D01*
X55873598Y-141583990D01*
X55976882Y-141335254D01*
X55976911Y-141302000D01*
X56692064Y-141302000D01*
X58666273Y-143276208D01*
X58626402Y-143316010D01*
X58523118Y-143564746D01*
X58522883Y-143834073D01*
X58625733Y-144082989D01*
X58816010Y-144273598D01*
X59064746Y-144376882D01*
X59334073Y-144377117D01*
X59582989Y-144274267D01*
X59773598Y-144083990D01*
X59876882Y-143835254D01*
X59876933Y-143776980D01*
X60034073Y-143777117D01*
X60282989Y-143674267D01*
X60473598Y-143483990D01*
X60576882Y-143235254D01*
X60577117Y-142965927D01*
X60474267Y-142717011D01*
X60283990Y-142526402D01*
X60035254Y-142423118D01*
X59932965Y-142423029D01*
X58844009Y-141334073D01*
X77422883Y-141334073D01*
X77525733Y-141582989D01*
X77592577Y-141649950D01*
X77526402Y-141716010D01*
X77423118Y-141964746D01*
X77422883Y-142234073D01*
X77525733Y-142482989D01*
X77716010Y-142673598D01*
X77964746Y-142776882D01*
X78067035Y-142776971D01*
X78345032Y-143054968D01*
X78507892Y-143163788D01*
X78700000Y-143202000D01*
X79144537Y-143202000D01*
X79216010Y-143273598D01*
X79464746Y-143376882D01*
X79734073Y-143377117D01*
X79895711Y-143310330D01*
X79925733Y-143382989D01*
X80116010Y-143573598D01*
X80364746Y-143676882D01*
X80622933Y-143677107D01*
X80622883Y-143734073D01*
X80725733Y-143982989D01*
X80916010Y-144173598D01*
X81164746Y-144276882D01*
X81434073Y-144277117D01*
X81682989Y-144174267D01*
X81873598Y-143983990D01*
X81976882Y-143735254D01*
X81977117Y-143465927D01*
X81902000Y-143284130D01*
X81902000Y-141955463D01*
X81973598Y-141883990D01*
X82076882Y-141635254D01*
X82076970Y-141534073D01*
X87022883Y-141534073D01*
X87094236Y-141706761D01*
X87120728Y-141839943D01*
X87238372Y-142016010D01*
X87256644Y-142043356D01*
X87956644Y-142743356D01*
X88160057Y-142879272D01*
X88400000Y-142927000D01*
X89300000Y-142927000D01*
X89539943Y-142879272D01*
X89743356Y-142743356D01*
X89859712Y-142627000D01*
X92700000Y-142627000D01*
X92939943Y-142579272D01*
X93143356Y-142443356D01*
X93362773Y-142223939D01*
X93482989Y-142174267D01*
X93633044Y-142024473D01*
X102485000Y-142024473D01*
X102485000Y-142864250D01*
X102593750Y-142973000D01*
X105433000Y-142973000D01*
X105433000Y-141784750D01*
X105324250Y-141676000D01*
X102833473Y-141676000D01*
X102673592Y-141742225D01*
X102551225Y-141864592D01*
X102485000Y-142024473D01*
X93633044Y-142024473D01*
X93673598Y-141983990D01*
X93776882Y-141735254D01*
X93777117Y-141465927D01*
X93674267Y-141217011D01*
X93483990Y-141026402D01*
X93235254Y-140923118D01*
X92965927Y-140922883D01*
X92717011Y-141025733D01*
X92526402Y-141216010D01*
X92476074Y-141337214D01*
X92440288Y-141373000D01*
X91136936Y-141373000D01*
X91454965Y-141054970D01*
X91454968Y-141054968D01*
X91504967Y-141004968D01*
X91504970Y-141004966D01*
X91613790Y-140842105D01*
X91652003Y-140649998D01*
X91652002Y-140649993D01*
X91652002Y-137547750D01*
X102485000Y-137547750D01*
X102485000Y-138387527D01*
X102551225Y-138547408D01*
X102673592Y-138669775D01*
X102833473Y-138736000D01*
X105324250Y-138736000D01*
X105433000Y-138627250D01*
X105433000Y-137439000D01*
X102593750Y-137439000D01*
X102485000Y-137547750D01*
X91652002Y-137547750D01*
X91652002Y-136157934D01*
X92154968Y-135654968D01*
X92975862Y-134834073D01*
X97822883Y-134834073D01*
X97925733Y-135082989D01*
X98116010Y-135273598D01*
X98364746Y-135376882D01*
X98467035Y-135376971D01*
X99945030Y-136854965D01*
X99945032Y-136854968D01*
X99988467Y-136883990D01*
X100107892Y-136963788D01*
X100230795Y-136988235D01*
X100316010Y-137073598D01*
X100564746Y-137176882D01*
X100834073Y-137177117D01*
X101082989Y-137074267D01*
X101273598Y-136883990D01*
X101376882Y-136635254D01*
X101377055Y-136436473D01*
X102485000Y-136436473D01*
X102485000Y-137276250D01*
X102593750Y-137385000D01*
X105433000Y-137385000D01*
X105433000Y-136196750D01*
X105324250Y-136088000D01*
X102833473Y-136088000D01*
X102673592Y-136154225D01*
X102551225Y-136276592D01*
X102485000Y-136436473D01*
X101377055Y-136436473D01*
X101377117Y-136365927D01*
X101274267Y-136117011D01*
X101083990Y-135926402D01*
X100835254Y-135823118D01*
X100565927Y-135822883D01*
X100400975Y-135891040D01*
X99177029Y-134667093D01*
X99177117Y-134565927D01*
X99074267Y-134317011D01*
X98883990Y-134126402D01*
X98635254Y-134023118D01*
X98365927Y-134022883D01*
X98117011Y-134125733D01*
X97926402Y-134316010D01*
X97823118Y-134564746D01*
X97822883Y-134834073D01*
X92975862Y-134834073D01*
X93471692Y-134338243D01*
X93564746Y-134376882D01*
X93834073Y-134377117D01*
X94082989Y-134274267D01*
X94273598Y-134083990D01*
X94376882Y-133835254D01*
X94377117Y-133565927D01*
X94274267Y-133317011D01*
X94083990Y-133126402D01*
X93924935Y-133060357D01*
X93976882Y-132935254D01*
X93977117Y-132665927D01*
X93874267Y-132417011D01*
X93683990Y-132226402D01*
X93435254Y-132123118D01*
X93165927Y-132122883D01*
X92917011Y-132225733D01*
X92726402Y-132416010D01*
X92623118Y-132664746D01*
X92622883Y-132934073D01*
X92632563Y-132957501D01*
X91345032Y-134245032D01*
X91345030Y-134245035D01*
X91132389Y-134457676D01*
X91074267Y-134317011D01*
X90883990Y-134126402D01*
X90635254Y-134023118D01*
X90365927Y-134022883D01*
X90117011Y-134125733D01*
X89926402Y-134316010D01*
X89823118Y-134564746D01*
X89823019Y-134677977D01*
X89736212Y-134807893D01*
X89697999Y-135000000D01*
X89698000Y-135000005D01*
X89698000Y-136051010D01*
X89450238Y-135948130D01*
X89151074Y-135947869D01*
X88874582Y-136062113D01*
X88662857Y-136273470D01*
X88548130Y-136549762D01*
X88547869Y-136848926D01*
X88662113Y-137125418D01*
X88673000Y-137136324D01*
X88673000Y-138940288D01*
X87256644Y-140356644D01*
X87120728Y-140560057D01*
X87073000Y-140800000D01*
X87073000Y-141144617D01*
X87023118Y-141264746D01*
X87022883Y-141534073D01*
X82076970Y-141534073D01*
X82077117Y-141365927D01*
X81974267Y-141117011D01*
X81783990Y-140926402D01*
X81535254Y-140823118D01*
X81265927Y-140822883D01*
X81017011Y-140925733D01*
X80826402Y-141116010D01*
X80723118Y-141364746D01*
X80722883Y-141634073D01*
X80825733Y-141882989D01*
X80898000Y-141955382D01*
X80898000Y-142209434D01*
X80854968Y-142145032D01*
X80854965Y-142145030D01*
X80354968Y-141645032D01*
X80192107Y-141536212D01*
X80000000Y-141497999D01*
X79999995Y-141498000D01*
X79107935Y-141498000D01*
X78777029Y-141167093D01*
X78777117Y-141065927D01*
X78674267Y-140817011D01*
X78483990Y-140626402D01*
X78235254Y-140523118D01*
X77965927Y-140522883D01*
X77717011Y-140625733D01*
X77526402Y-140816010D01*
X77423118Y-141064746D01*
X77422883Y-141334073D01*
X58844009Y-141334073D01*
X57454968Y-139945032D01*
X57292107Y-139836212D01*
X57100000Y-139797999D01*
X57099995Y-139798000D01*
X54755463Y-139798000D01*
X54683990Y-139726402D01*
X54435254Y-139623118D01*
X54165927Y-139622883D01*
X53963711Y-139706437D01*
X53783990Y-139526402D01*
X53535254Y-139423118D01*
X53265927Y-139422883D01*
X53017011Y-139525733D01*
X52826402Y-139716010D01*
X52723118Y-139964746D01*
X52722883Y-140234073D01*
X40427000Y-140234073D01*
X40427000Y-140133365D01*
X45080000Y-140133365D01*
X45242814Y-140101776D01*
X45385912Y-140007776D01*
X45481700Y-139865868D01*
X45515365Y-139698000D01*
X45515365Y-137920000D01*
X45483776Y-137757186D01*
X45389776Y-137614088D01*
X45247868Y-137518300D01*
X45080000Y-137484635D01*
X43217000Y-137484635D01*
X43217000Y-136140000D01*
X43165466Y-135880923D01*
X43018711Y-135661289D01*
X42991495Y-135634073D01*
X50922883Y-135634073D01*
X51025733Y-135882989D01*
X51098000Y-135955382D01*
X51098000Y-137444537D01*
X51026402Y-137516010D01*
X50923118Y-137764746D01*
X50922883Y-138034073D01*
X51025733Y-138282989D01*
X51216010Y-138473598D01*
X51464746Y-138576882D01*
X51734073Y-138577117D01*
X51982989Y-138474267D01*
X52173598Y-138283990D01*
X52276882Y-138035254D01*
X52277117Y-137765927D01*
X52174267Y-137517011D01*
X52102000Y-137444618D01*
X52102000Y-137134073D01*
X84122883Y-137134073D01*
X84225733Y-137382989D01*
X84416010Y-137573598D01*
X84664746Y-137676882D01*
X84767035Y-137676971D01*
X85622971Y-138532906D01*
X85622883Y-138634073D01*
X85725733Y-138882989D01*
X85916010Y-139073598D01*
X86164746Y-139176882D01*
X86434073Y-139177117D01*
X86682989Y-139074267D01*
X86873598Y-138883990D01*
X86976882Y-138635254D01*
X86977117Y-138365927D01*
X86874267Y-138117011D01*
X86683990Y-137926402D01*
X86435254Y-137823118D01*
X86332964Y-137823029D01*
X85477029Y-136967093D01*
X85477117Y-136865927D01*
X85374267Y-136617011D01*
X85183990Y-136426402D01*
X84935254Y-136323118D01*
X84665927Y-136322883D01*
X84417011Y-136425733D01*
X84226402Y-136616010D01*
X84123118Y-136864746D01*
X84122883Y-137134073D01*
X52102000Y-137134073D01*
X52102000Y-136234073D01*
X54722883Y-136234073D01*
X54825733Y-136482989D01*
X55016010Y-136673598D01*
X55264746Y-136776882D01*
X55534073Y-136777117D01*
X55782989Y-136674267D01*
X55973598Y-136483990D01*
X56076882Y-136235254D01*
X56076971Y-136132964D01*
X56807935Y-135402000D01*
X56844537Y-135402000D01*
X56916010Y-135473598D01*
X57164746Y-135576882D01*
X57434073Y-135577117D01*
X57682989Y-135474267D01*
X57873598Y-135283990D01*
X57976882Y-135035254D01*
X57977117Y-134765927D01*
X57874267Y-134517011D01*
X57683990Y-134326402D01*
X57435254Y-134223118D01*
X57165927Y-134222883D01*
X56917011Y-134325733D01*
X56844618Y-134398000D01*
X56600000Y-134398000D01*
X56407892Y-134436212D01*
X56342660Y-134479800D01*
X56245032Y-134545032D01*
X56245030Y-134545035D01*
X55367093Y-135422971D01*
X55265927Y-135422883D01*
X55017011Y-135525733D01*
X54826402Y-135716010D01*
X54723118Y-135964746D01*
X54722883Y-136234073D01*
X52102000Y-136234073D01*
X52102000Y-135955463D01*
X52173598Y-135883990D01*
X52276882Y-135635254D01*
X52277117Y-135365927D01*
X52174267Y-135117011D01*
X51983990Y-134926402D01*
X51735254Y-134823118D01*
X51465927Y-134822883D01*
X51217011Y-134925733D01*
X51026402Y-135116010D01*
X50923118Y-135364746D01*
X50922883Y-135634073D01*
X42991495Y-135634073D01*
X42002136Y-134644714D01*
X42002139Y-134641172D01*
X41880299Y-134346297D01*
X41654890Y-134120494D01*
X41360228Y-133998140D01*
X41041172Y-133997861D01*
X40746297Y-134119701D01*
X40520494Y-134345110D01*
X40427000Y-134570269D01*
X40427000Y-124134073D01*
X40722883Y-124134073D01*
X40773000Y-124255365D01*
X40773000Y-125400000D01*
X40820728Y-125639943D01*
X40901100Y-125760228D01*
X40956644Y-125843356D01*
X42056644Y-126943356D01*
X42260058Y-127079273D01*
X42500000Y-127127000D01*
X46251985Y-127127000D01*
X47087288Y-127544652D01*
X47216010Y-127673598D01*
X47464746Y-127776882D01*
X47734073Y-127777117D01*
X47982989Y-127674267D01*
X48173598Y-127483990D01*
X48276882Y-127235254D01*
X48277117Y-126965927D01*
X48174267Y-126717011D01*
X47983990Y-126526402D01*
X47735254Y-126423118D01*
X47648099Y-126423042D01*
X47356015Y-126277000D01*
X47842608Y-126277000D01*
X47845110Y-126279506D01*
X48139772Y-126401860D01*
X48458828Y-126402139D01*
X48656869Y-126320310D01*
X53179400Y-126320310D01*
X53179400Y-126679690D01*
X53273835Y-127154447D01*
X53542763Y-127556927D01*
X53945243Y-127825855D01*
X54201175Y-127876763D01*
X54123118Y-128064746D01*
X54122928Y-128281969D01*
X54017011Y-128325733D01*
X53826402Y-128516010D01*
X53723118Y-128764746D01*
X53722883Y-129034073D01*
X53825733Y-129282989D01*
X54016010Y-129473598D01*
X54264746Y-129576882D01*
X54474641Y-129577065D01*
X54600000Y-129602001D01*
X54600005Y-129602000D01*
X54892064Y-129602000D01*
X56745032Y-131454968D01*
X57545030Y-132254965D01*
X57545032Y-132254968D01*
X60945032Y-135654968D01*
X61107892Y-135763788D01*
X61300000Y-135802000D01*
X65244537Y-135802000D01*
X65316010Y-135873598D01*
X65564746Y-135976882D01*
X65834073Y-135977117D01*
X66082989Y-135874267D01*
X66273598Y-135683990D01*
X66289520Y-135645645D01*
X66364746Y-135676882D01*
X66634073Y-135677117D01*
X66882989Y-135574267D01*
X67073598Y-135383990D01*
X67176882Y-135135254D01*
X67177117Y-134865927D01*
X67074267Y-134617011D01*
X67057336Y-134600050D01*
X67173598Y-134483990D01*
X67276882Y-134235254D01*
X67277117Y-133965927D01*
X67174267Y-133717011D01*
X66983990Y-133526402D01*
X66735254Y-133423118D01*
X66465927Y-133422883D01*
X66284130Y-133498000D01*
X61807935Y-133498000D01*
X59054968Y-130745032D01*
X57644009Y-129334073D01*
X67522883Y-129334073D01*
X67625733Y-129582989D01*
X67816010Y-129773598D01*
X68064746Y-129876882D01*
X68334073Y-129877117D01*
X68582989Y-129774267D01*
X68655382Y-129702000D01*
X77644537Y-129702000D01*
X77716010Y-129773598D01*
X77964746Y-129876882D01*
X78234073Y-129877117D01*
X78482989Y-129774267D01*
X78673598Y-129583990D01*
X78776882Y-129335254D01*
X78777117Y-129065927D01*
X78674267Y-128817011D01*
X78483990Y-128626402D01*
X78235254Y-128523118D01*
X78040468Y-128522948D01*
X78076882Y-128435254D01*
X78077117Y-128165927D01*
X77974267Y-127917011D01*
X77783990Y-127726402D01*
X77662786Y-127676074D01*
X77643356Y-127656644D01*
X77497857Y-127559425D01*
X77673598Y-127383990D01*
X77776882Y-127135254D01*
X77776970Y-127034073D01*
X96622883Y-127034073D01*
X96725733Y-127282989D01*
X96916010Y-127473598D01*
X97164746Y-127576882D01*
X97434073Y-127577117D01*
X97682989Y-127474267D01*
X97873598Y-127283990D01*
X97976882Y-127035254D01*
X97977052Y-126840468D01*
X98064746Y-126876882D01*
X98334073Y-126877117D01*
X98582989Y-126774267D01*
X98773598Y-126583990D01*
X98876882Y-126335254D01*
X98877117Y-126065927D01*
X98774267Y-125817011D01*
X98702000Y-125744618D01*
X98702000Y-123849050D01*
X98882989Y-123774267D01*
X99073598Y-123583990D01*
X99176882Y-123335254D01*
X99177117Y-123065927D01*
X99074267Y-122817011D01*
X98883990Y-122626402D01*
X98635254Y-122523118D01*
X98365927Y-122522883D01*
X98117011Y-122625733D01*
X98089301Y-122653395D01*
X98074267Y-122617011D01*
X97883990Y-122426402D01*
X97635254Y-122323118D01*
X97365927Y-122322883D01*
X97117011Y-122425733D01*
X96926402Y-122616010D01*
X96876074Y-122737214D01*
X96856644Y-122756644D01*
X96720728Y-122960057D01*
X96673000Y-123200000D01*
X96673000Y-126644617D01*
X96623118Y-126764746D01*
X96622883Y-127034073D01*
X77776970Y-127034073D01*
X77777117Y-126865927D01*
X77674267Y-126617011D01*
X77483990Y-126426402D01*
X77235254Y-126323118D01*
X76965927Y-126322883D01*
X76717011Y-126425733D01*
X76669662Y-126473000D01*
X70355383Y-126473000D01*
X70235254Y-126423118D01*
X69965927Y-126422883D01*
X69717011Y-126525733D01*
X69526402Y-126716010D01*
X69423118Y-126964746D01*
X69422883Y-127234073D01*
X69525733Y-127482989D01*
X69716010Y-127673598D01*
X69964746Y-127776882D01*
X70234073Y-127777117D01*
X70355365Y-127727000D01*
X71040629Y-127727000D01*
X70948130Y-127949762D01*
X70947869Y-128248926D01*
X71062113Y-128525418D01*
X71234395Y-128698000D01*
X68655463Y-128698000D01*
X68583990Y-128626402D01*
X68335254Y-128523118D01*
X68065927Y-128522883D01*
X67817011Y-128625733D01*
X67626402Y-128816010D01*
X67523118Y-129064746D01*
X67522883Y-129334073D01*
X57644009Y-129334073D01*
X55525397Y-127215461D01*
X55566165Y-127154447D01*
X55660600Y-126679690D01*
X55660600Y-126320310D01*
X55719400Y-126320310D01*
X55719400Y-126679690D01*
X55813835Y-127154447D01*
X56082763Y-127556927D01*
X56485243Y-127825855D01*
X56960000Y-127920290D01*
X57434757Y-127825855D01*
X57837237Y-127556927D01*
X58106165Y-127154447D01*
X58200600Y-126679690D01*
X58200600Y-126320310D01*
X58106165Y-125845553D01*
X57864584Y-125484000D01*
X58252014Y-125484000D01*
X58252014Y-127516000D01*
X58279905Y-127659749D01*
X58362898Y-127786091D01*
X58488188Y-127870663D01*
X58636400Y-127900386D01*
X60363600Y-127900386D01*
X60507349Y-127872495D01*
X60633691Y-127789502D01*
X60718263Y-127664212D01*
X60747986Y-127516000D01*
X60747986Y-125484000D01*
X60720095Y-125340251D01*
X60637102Y-125213909D01*
X60511812Y-125129337D01*
X60363600Y-125099614D01*
X58636400Y-125099614D01*
X58492651Y-125127505D01*
X58366309Y-125210498D01*
X58281737Y-125335788D01*
X58252014Y-125484000D01*
X57864584Y-125484000D01*
X57837237Y-125443073D01*
X57434757Y-125174145D01*
X56960000Y-125079710D01*
X56485243Y-125174145D01*
X56082763Y-125443073D01*
X55813835Y-125845553D01*
X55719400Y-126320310D01*
X55660600Y-126320310D01*
X55660600Y-126320310D01*
X55566165Y-125845553D01*
X55297237Y-125443073D01*
X54894757Y-125174145D01*
X54420000Y-125079710D01*
X53945243Y-125174145D01*
X53542763Y-125443073D01*
X53273835Y-125845553D01*
X53179400Y-126320310D01*
X48656869Y-126320310D01*
X48753703Y-126280299D01*
X48979506Y-126054890D01*
X49101860Y-125760228D01*
X49102139Y-125441172D01*
X48980299Y-125146297D01*
X48834258Y-125000000D01*
X63375095Y-125000000D01*
X63469530Y-125474757D01*
X63738458Y-125877237D01*
X64140938Y-126146165D01*
X64615695Y-126240600D01*
X64664305Y-126240600D01*
X65139062Y-126146165D01*
X65541542Y-125877237D01*
X65810470Y-125474757D01*
X65904905Y-125000000D01*
X65915095Y-125000000D01*
X66009530Y-125474757D01*
X66278458Y-125877237D01*
X66680938Y-126146165D01*
X67155695Y-126240600D01*
X67204305Y-126240600D01*
X67679062Y-126146165D01*
X68081542Y-125877237D01*
X68350470Y-125474757D01*
X68444905Y-125000000D01*
X68455095Y-125000000D01*
X68549530Y-125474757D01*
X68818458Y-125877237D01*
X69220938Y-126146165D01*
X69695695Y-126240600D01*
X69744305Y-126240600D01*
X70219062Y-126146165D01*
X70621542Y-125877237D01*
X70890470Y-125474757D01*
X70984905Y-125000000D01*
X70890470Y-124525243D01*
X70621542Y-124122763D01*
X70219062Y-123853835D01*
X69744305Y-123759400D01*
X69695695Y-123759400D01*
X69220938Y-123853835D01*
X68818458Y-124122763D01*
X68549530Y-124525243D01*
X68455095Y-125000000D01*
X68444905Y-125000000D01*
X68444905Y-125000000D01*
X68350470Y-124525243D01*
X68081542Y-124122763D01*
X67679062Y-123853835D01*
X67204305Y-123759400D01*
X67155695Y-123759400D01*
X66680938Y-123853835D01*
X66278458Y-124122763D01*
X66009530Y-124525243D01*
X65915095Y-125000000D01*
X65904905Y-125000000D01*
X65904905Y-125000000D01*
X65810470Y-124525243D01*
X65541542Y-124122763D01*
X65139062Y-123853835D01*
X64664305Y-123759400D01*
X64615695Y-123759400D01*
X64140938Y-123853835D01*
X63738458Y-124122763D01*
X63469530Y-124525243D01*
X63375095Y-125000000D01*
X48834258Y-125000000D01*
X48754890Y-124920494D01*
X48460228Y-124798140D01*
X48141172Y-124797861D01*
X47846297Y-124919701D01*
X47842992Y-124923000D01*
X43280422Y-124923000D01*
X43202136Y-124844714D01*
X43202139Y-124841172D01*
X43080299Y-124546297D01*
X42854890Y-124320494D01*
X42560228Y-124198140D01*
X42241172Y-124197861D01*
X42027000Y-124286355D01*
X42027000Y-124255383D01*
X42076882Y-124135254D01*
X42077117Y-123865927D01*
X41974267Y-123617011D01*
X41783990Y-123426402D01*
X41535254Y-123323118D01*
X41265927Y-123322883D01*
X41017011Y-123425733D01*
X40826402Y-123616010D01*
X40723118Y-123864746D01*
X40722883Y-124134073D01*
X40427000Y-124134073D01*
X40427000Y-122689769D01*
X63361889Y-122689769D01*
X63371248Y-122736833D01*
X63573765Y-123201291D01*
X63938607Y-123552894D01*
X64410230Y-123738114D01*
X64613000Y-123649572D01*
X64613000Y-122487000D01*
X63450456Y-122487000D01*
X63361889Y-122689769D01*
X40427000Y-122689769D01*
X40427000Y-122230231D01*
X63361889Y-122230231D01*
X63450456Y-122433000D01*
X64613000Y-122433000D01*
X64613000Y-121270428D01*
X64667000Y-121270428D01*
X64667000Y-122433000D01*
X64687000Y-122433000D01*
X64687000Y-122487000D01*
X64667000Y-122487000D01*
X64667000Y-123649572D01*
X64869770Y-123738114D01*
X65341393Y-123552894D01*
X65706235Y-123201291D01*
X65908752Y-122736833D01*
X65918111Y-122689769D01*
X65829545Y-122487002D01*
X65920466Y-122487002D01*
X66009530Y-122934757D01*
X66278458Y-123337237D01*
X66680938Y-123606165D01*
X67155695Y-123700600D01*
X67204305Y-123700600D01*
X67679062Y-123606165D01*
X68081542Y-123337237D01*
X68350470Y-122934757D01*
X68444905Y-122460000D01*
X68455095Y-122460000D01*
X68549530Y-122934757D01*
X68818458Y-123337237D01*
X69220938Y-123606165D01*
X69695695Y-123700600D01*
X69744305Y-123700600D01*
X70166654Y-123616590D01*
X70605030Y-124054965D01*
X70605032Y-124054968D01*
X70725189Y-124135254D01*
X70767893Y-124163788D01*
X70960000Y-124202001D01*
X70960005Y-124202000D01*
X71305514Y-124202000D01*
X71089530Y-124525243D01*
X70995095Y-125000000D01*
X71089530Y-125474757D01*
X71358458Y-125877237D01*
X71760938Y-126146165D01*
X72235695Y-126240600D01*
X72284305Y-126240600D01*
X72759062Y-126146165D01*
X73161542Y-125877237D01*
X73430470Y-125474757D01*
X73524905Y-125000000D01*
X73430470Y-124525243D01*
X73214486Y-124202000D01*
X73552014Y-124202000D01*
X73552014Y-125863600D01*
X73579905Y-126007349D01*
X73662898Y-126133691D01*
X73788188Y-126218263D01*
X73936400Y-126247986D01*
X75663600Y-126247986D01*
X75807349Y-126220095D01*
X75933691Y-126137102D01*
X76018263Y-126011812D01*
X76047986Y-125863600D01*
X76047986Y-124205455D01*
X76116010Y-124273598D01*
X76364746Y-124376882D01*
X76634073Y-124377117D01*
X76882989Y-124274267D01*
X77073598Y-124083990D01*
X77176882Y-123835254D01*
X77177117Y-123565927D01*
X77074267Y-123317011D01*
X76883990Y-123126402D01*
X76635254Y-123023118D01*
X76365927Y-123022883D01*
X76117011Y-123125733D01*
X76044618Y-123198000D01*
X75867670Y-123198000D01*
X76068752Y-122736833D01*
X76078111Y-122689769D01*
X75989544Y-122487000D01*
X74827000Y-122487000D01*
X74827000Y-122507000D01*
X74773000Y-122507000D01*
X74773000Y-122487000D01*
X74753000Y-122487000D01*
X74753000Y-122433000D01*
X74773000Y-122433000D01*
X74773000Y-121270428D01*
X74827000Y-121270428D01*
X74827000Y-122433000D01*
X75989544Y-122433000D01*
X76078111Y-122230231D01*
X76068752Y-122183167D01*
X75866235Y-121718709D01*
X75501393Y-121367106D01*
X75029770Y-121181886D01*
X74827000Y-121270428D01*
X74773000Y-121270428D01*
X74773000Y-121270428D01*
X74570230Y-121181886D01*
X74098607Y-121367106D01*
X73733765Y-121718709D01*
X73531248Y-122183167D01*
X73521889Y-122230231D01*
X73610455Y-122432998D01*
X73519534Y-122432998D01*
X73430470Y-121985243D01*
X73161542Y-121582763D01*
X72759062Y-121313835D01*
X72284305Y-121219400D01*
X72235695Y-121219400D01*
X71813346Y-121303410D01*
X71602000Y-121092064D01*
X71602000Y-119245397D01*
X82947558Y-119245397D01*
X83335258Y-120183704D01*
X84052520Y-120902219D01*
X84990149Y-121291556D01*
X86005397Y-121292442D01*
X86943704Y-120904742D01*
X87662219Y-120187480D01*
X87986979Y-119405369D01*
X105371174Y-119405369D01*
X105459394Y-119617750D01*
X105946021Y-119830488D01*
X106477016Y-119840808D01*
X106971542Y-119647139D01*
X107015526Y-119617750D01*
X107103746Y-119405369D01*
X106237460Y-118539084D01*
X105371174Y-119405369D01*
X87986979Y-119405369D01*
X88051556Y-119249851D01*
X88052000Y-118740456D01*
X104897552Y-118740456D01*
X105091221Y-119234982D01*
X105120610Y-119278966D01*
X105332991Y-119367186D01*
X106199276Y-118500900D01*
X105332991Y-117634614D01*
X105120610Y-117722834D01*
X104907872Y-118209461D01*
X104897552Y-118740456D01*
X88052000Y-118740456D01*
X88052442Y-118234603D01*
X88041057Y-118207047D01*
X102669497Y-118207047D01*
X102724243Y-118390856D01*
X103111493Y-118557780D01*
X103533144Y-118563804D01*
X103925004Y-118408010D01*
X103950677Y-118390856D01*
X104005423Y-118207047D01*
X103337460Y-117539084D01*
X102669497Y-118207047D01*
X88041057Y-118207047D01*
X87830138Y-117696584D01*
X102274556Y-117696584D01*
X102430350Y-118088444D01*
X102447504Y-118114117D01*
X102631313Y-118168863D01*
X103299276Y-117500900D01*
X103375644Y-117500900D01*
X104043607Y-118168863D01*
X104227416Y-118114117D01*
X104394340Y-117726867D01*
X104396203Y-117596431D01*
X105371174Y-117596431D01*
X106237460Y-118462716D01*
X107103746Y-117596431D01*
X107015526Y-117384050D01*
X106528899Y-117171312D01*
X105997904Y-117160992D01*
X105503378Y-117354661D01*
X105459394Y-117384050D01*
X105371174Y-117596431D01*
X104396203Y-117596431D01*
X104400364Y-117305216D01*
X104244570Y-116913356D01*
X104227416Y-116887683D01*
X104043607Y-116832937D01*
X103375644Y-117500900D01*
X103299276Y-117500900D01*
X103299276Y-117500900D01*
X102631313Y-116832937D01*
X102447504Y-116887683D01*
X102280580Y-117274933D01*
X102274556Y-117696584D01*
X87830138Y-117696584D01*
X87664742Y-117296296D01*
X87164074Y-116794753D01*
X102669497Y-116794753D01*
X103337460Y-117462716D01*
X104005423Y-116794753D01*
X103950677Y-116610944D01*
X103563427Y-116444020D01*
X103141776Y-116437996D01*
X102749916Y-116593790D01*
X102724243Y-116610944D01*
X102669497Y-116794753D01*
X87164074Y-116794753D01*
X86947480Y-116577781D01*
X86009851Y-116188444D01*
X84994603Y-116187558D01*
X84056296Y-116575258D01*
X83337781Y-117292520D01*
X82948444Y-118230149D01*
X82947558Y-119245397D01*
X71602000Y-119245397D01*
X71602000Y-116195985D01*
X78447610Y-116195985D01*
X78789734Y-117023989D01*
X79422679Y-117658039D01*
X80250084Y-118001608D01*
X81145985Y-118002390D01*
X81973989Y-117660266D01*
X82608039Y-117027321D01*
X82951608Y-116199916D01*
X82952390Y-115304015D01*
X82610266Y-114476011D01*
X82242395Y-114107497D01*
X83930687Y-114107497D01*
X84137550Y-114421187D01*
X84976467Y-114796333D01*
X85895087Y-114821883D01*
X86753559Y-114493946D01*
X86862450Y-114421187D01*
X87069313Y-114107497D01*
X85500000Y-112538184D01*
X83930687Y-114107497D01*
X82242395Y-114107497D01*
X81977321Y-113841961D01*
X81149916Y-113498392D01*
X80254015Y-113497610D01*
X79426011Y-113839734D01*
X78791961Y-114472679D01*
X78448392Y-115300084D01*
X78447610Y-116195985D01*
X71602000Y-116195985D01*
X71602000Y-115860005D01*
X71602001Y-115860000D01*
X71563788Y-115667893D01*
X71553766Y-115652894D01*
X71454968Y-115505032D01*
X71454965Y-115505030D01*
X70972830Y-115022894D01*
X71064905Y-114560000D01*
X70970470Y-114085243D01*
X70701542Y-113682763D01*
X70299062Y-113413835D01*
X69824305Y-113319400D01*
X69775695Y-113319400D01*
X69300938Y-113413835D01*
X68898458Y-113682763D01*
X68629530Y-114085243D01*
X68535095Y-114560000D01*
X68629530Y-115034757D01*
X68898458Y-115437237D01*
X69300938Y-115706165D01*
X69775695Y-115800600D01*
X69824305Y-115800600D01*
X70246654Y-115716590D01*
X70382079Y-115852014D01*
X68936400Y-115852014D01*
X68792651Y-115879905D01*
X68666309Y-115962898D01*
X68581737Y-116088188D01*
X68552014Y-116236400D01*
X68552014Y-117963600D01*
X68579905Y-118107349D01*
X68662898Y-118233691D01*
X68788188Y-118318263D01*
X68936400Y-118347986D01*
X69298000Y-118347986D01*
X69298000Y-121298506D01*
X69220938Y-121313835D01*
X68818458Y-121582763D01*
X68549530Y-121985243D01*
X68455095Y-122460000D01*
X68444905Y-122460000D01*
X68444905Y-122460000D01*
X68350470Y-121985243D01*
X68081542Y-121582763D01*
X67679062Y-121313835D01*
X67204305Y-121219400D01*
X67155695Y-121219400D01*
X66680938Y-121313835D01*
X66278458Y-121582763D01*
X66009530Y-121985243D01*
X65920466Y-122432998D01*
X65829545Y-122432998D01*
X65918111Y-122230231D01*
X65908752Y-122183167D01*
X65706235Y-121718709D01*
X65341393Y-121367106D01*
X64869770Y-121181886D01*
X64667000Y-121270428D01*
X64613000Y-121270428D01*
X64613000Y-121270428D01*
X64410230Y-121181886D01*
X63938607Y-121367106D01*
X63573765Y-121718709D01*
X63371248Y-122183167D01*
X63361889Y-122230231D01*
X40427000Y-122230231D01*
X40427000Y-119403569D01*
X40896254Y-119403569D01*
X40984474Y-119615950D01*
X41471101Y-119828688D01*
X42002096Y-119839008D01*
X42496622Y-119645339D01*
X42540606Y-119615950D01*
X42628826Y-119403569D01*
X41762540Y-118537284D01*
X40896254Y-119403569D01*
X40427000Y-119403569D01*
X40427000Y-118749810D01*
X40616301Y-119233182D01*
X40645690Y-119277166D01*
X40858071Y-119365386D01*
X41724356Y-118499100D01*
X41800724Y-118499100D01*
X42667009Y-119365386D01*
X42879390Y-119277166D01*
X43092128Y-118790539D01*
X43102448Y-118259544D01*
X43081184Y-118205247D01*
X43994577Y-118205247D01*
X44049323Y-118389056D01*
X44436573Y-118555980D01*
X44858224Y-118562004D01*
X45250084Y-118406210D01*
X45275757Y-118389056D01*
X45330503Y-118205247D01*
X44662540Y-117537284D01*
X43994577Y-118205247D01*
X43081184Y-118205247D01*
X42908779Y-117765018D01*
X42879390Y-117721034D01*
X42816196Y-117694784D01*
X43599636Y-117694784D01*
X43755430Y-118086644D01*
X43772584Y-118112317D01*
X43956393Y-118167063D01*
X44624356Y-117499100D01*
X44700724Y-117499100D01*
X45368687Y-118167063D01*
X45552496Y-118112317D01*
X45719420Y-117725067D01*
X45725444Y-117303416D01*
X45644571Y-117100000D01*
X63455095Y-117100000D01*
X63549530Y-117574757D01*
X63818458Y-117977237D01*
X64220938Y-118246165D01*
X64695695Y-118340600D01*
X64744305Y-118340600D01*
X65219062Y-118246165D01*
X65621542Y-117977237D01*
X65890470Y-117574757D01*
X65984905Y-117100000D01*
X65995095Y-117100000D01*
X66089530Y-117574757D01*
X66358458Y-117977237D01*
X66760938Y-118246165D01*
X67235695Y-118340600D01*
X67284305Y-118340600D01*
X67759062Y-118246165D01*
X68161542Y-117977237D01*
X68430470Y-117574757D01*
X68524905Y-117100000D01*
X68430470Y-116625243D01*
X68161542Y-116222763D01*
X67759062Y-115953835D01*
X67284305Y-115859400D01*
X67235695Y-115859400D01*
X66760938Y-115953835D01*
X66358458Y-116222763D01*
X66089530Y-116625243D01*
X65995095Y-117100000D01*
X65984905Y-117100000D01*
X65984905Y-117100000D01*
X65890470Y-116625243D01*
X65621542Y-116222763D01*
X65219062Y-115953835D01*
X64744305Y-115859400D01*
X64695695Y-115859400D01*
X64220938Y-115953835D01*
X63818458Y-116222763D01*
X63549530Y-116625243D01*
X63455095Y-117100000D01*
X45644571Y-117100000D01*
X45569650Y-116911556D01*
X45552496Y-116885883D01*
X45368687Y-116831137D01*
X44700724Y-117499100D01*
X44624356Y-117499100D01*
X44624356Y-117499100D01*
X43956393Y-116831137D01*
X43772584Y-116885883D01*
X43605660Y-117273133D01*
X43599636Y-117694784D01*
X42816196Y-117694784D01*
X42667009Y-117632814D01*
X41800724Y-118499100D01*
X41724356Y-118499100D01*
X41724356Y-118499100D01*
X40858071Y-117632814D01*
X40645690Y-117721034D01*
X40432952Y-118207661D01*
X40427000Y-118513909D01*
X40427000Y-117594631D01*
X40896254Y-117594631D01*
X41762540Y-118460916D01*
X42628826Y-117594631D01*
X42540606Y-117382250D01*
X42053979Y-117169512D01*
X41522984Y-117159192D01*
X41028458Y-117352861D01*
X40984474Y-117382250D01*
X40896254Y-117594631D01*
X40427000Y-117594631D01*
X40427000Y-116792953D01*
X43994577Y-116792953D01*
X44662540Y-117460916D01*
X45330503Y-116792953D01*
X45275757Y-116609144D01*
X44888507Y-116442220D01*
X44466856Y-116436196D01*
X44074996Y-116591990D01*
X44049323Y-116609144D01*
X43994577Y-116792953D01*
X40427000Y-116792953D01*
X40427000Y-114789769D01*
X63441889Y-114789769D01*
X63451248Y-114836833D01*
X63653765Y-115301291D01*
X64018607Y-115652894D01*
X64490230Y-115838114D01*
X64693000Y-115749572D01*
X64693000Y-114587000D01*
X63530456Y-114587000D01*
X63441889Y-114789769D01*
X40427000Y-114789769D01*
X40427000Y-114330231D01*
X63441889Y-114330231D01*
X63530456Y-114533000D01*
X64693000Y-114533000D01*
X64693000Y-113370428D01*
X64747000Y-113370428D01*
X64747000Y-114533000D01*
X64767000Y-114533000D01*
X64767000Y-114587000D01*
X64747000Y-114587000D01*
X64747000Y-115749572D01*
X64949770Y-115838114D01*
X65421393Y-115652894D01*
X65786235Y-115301291D01*
X65988752Y-114836833D01*
X65998111Y-114789769D01*
X65909545Y-114587002D01*
X66000466Y-114587002D01*
X66089530Y-115034757D01*
X66358458Y-115437237D01*
X66760938Y-115706165D01*
X67235695Y-115800600D01*
X67284305Y-115800600D01*
X67759062Y-115706165D01*
X68161542Y-115437237D01*
X68430470Y-115034757D01*
X68524905Y-114560000D01*
X68430470Y-114085243D01*
X68161542Y-113682763D01*
X67759062Y-113413835D01*
X67284305Y-113319400D01*
X67235695Y-113319400D01*
X66760938Y-113413835D01*
X66358458Y-113682763D01*
X66089530Y-114085243D01*
X66000466Y-114532998D01*
X65909545Y-114532998D01*
X65998111Y-114330231D01*
X65988752Y-114283167D01*
X65786235Y-113818709D01*
X65421393Y-113467106D01*
X64949770Y-113281886D01*
X64747000Y-113370428D01*
X64693000Y-113370428D01*
X64693000Y-113370428D01*
X64490230Y-113281886D01*
X64018607Y-113467106D01*
X63653765Y-113818709D01*
X63451248Y-114283167D01*
X63441889Y-114330231D01*
X40427000Y-114330231D01*
X40427000Y-113205247D01*
X43994577Y-113205247D01*
X44049323Y-113389056D01*
X44436573Y-113555980D01*
X44858224Y-113562004D01*
X45250084Y-113406210D01*
X45275757Y-113389056D01*
X45330503Y-113205247D01*
X44662540Y-112537284D01*
X43994577Y-113205247D01*
X40427000Y-113205247D01*
X40427000Y-112403569D01*
X40896254Y-112403569D01*
X40984474Y-112615950D01*
X41471101Y-112828688D01*
X42002096Y-112839008D01*
X42370366Y-112694784D01*
X43599636Y-112694784D01*
X43755430Y-113086644D01*
X43772584Y-113112317D01*
X43956393Y-113167063D01*
X44624356Y-112499100D01*
X44700724Y-112499100D01*
X45368687Y-113167063D01*
X45552496Y-113112317D01*
X45646132Y-112895087D01*
X83178117Y-112895087D01*
X83506054Y-113753559D01*
X83578813Y-113862450D01*
X83892503Y-114069313D01*
X85461816Y-112500000D01*
X85538184Y-112500000D01*
X87107497Y-114069313D01*
X87421187Y-113862450D01*
X87714269Y-113207047D01*
X102669497Y-113207047D01*
X102724243Y-113390856D01*
X103111493Y-113557780D01*
X103533144Y-113563804D01*
X103925004Y-113408010D01*
X103950677Y-113390856D01*
X104005423Y-113207047D01*
X103337460Y-112539084D01*
X102669497Y-113207047D01*
X87714269Y-113207047D01*
X87796333Y-113023533D01*
X87805426Y-112696584D01*
X102274556Y-112696584D01*
X102430350Y-113088444D01*
X102447504Y-113114117D01*
X102631313Y-113168863D01*
X103299276Y-112500900D01*
X103375644Y-112500900D01*
X104043607Y-113168863D01*
X104227416Y-113114117D01*
X104394340Y-112726867D01*
X104398933Y-112405369D01*
X105371174Y-112405369D01*
X105459394Y-112617750D01*
X105946021Y-112830488D01*
X106477016Y-112840808D01*
X106971542Y-112647139D01*
X107015526Y-112617750D01*
X107103746Y-112405369D01*
X106237460Y-111539084D01*
X105371174Y-112405369D01*
X104398933Y-112405369D01*
X104400364Y-112305216D01*
X104244570Y-111913356D01*
X104227416Y-111887683D01*
X104043607Y-111832937D01*
X103375644Y-112500900D01*
X103299276Y-112500900D01*
X103299276Y-112500900D01*
X102631313Y-111832937D01*
X102447504Y-111887683D01*
X102280580Y-112274933D01*
X102274556Y-112696584D01*
X87805426Y-112696584D01*
X87821883Y-112104913D01*
X87703402Y-111794753D01*
X102669497Y-111794753D01*
X103337460Y-112462716D01*
X104005423Y-111794753D01*
X103989252Y-111740456D01*
X104897552Y-111740456D01*
X105091221Y-112234982D01*
X105120610Y-112278966D01*
X105332991Y-112367186D01*
X106199276Y-111500900D01*
X105332991Y-110634614D01*
X105120610Y-110722834D01*
X104907872Y-111209461D01*
X104897552Y-111740456D01*
X103989252Y-111740456D01*
X103950677Y-111610944D01*
X103563427Y-111444020D01*
X103141776Y-111437996D01*
X102749916Y-111593790D01*
X102724243Y-111610944D01*
X102669497Y-111794753D01*
X87703402Y-111794753D01*
X87493946Y-111246441D01*
X87421187Y-111137550D01*
X87107497Y-110930687D01*
X85538184Y-112500000D01*
X85461816Y-112500000D01*
X85461816Y-112500000D01*
X83892503Y-110930687D01*
X83578813Y-111137550D01*
X83203667Y-111976467D01*
X83178117Y-112895087D01*
X45646132Y-112895087D01*
X45719420Y-112725067D01*
X45725444Y-112303416D01*
X45569650Y-111911556D01*
X45552496Y-111885883D01*
X45368687Y-111831137D01*
X44700724Y-112499100D01*
X44624356Y-112499100D01*
X44624356Y-112499100D01*
X43956393Y-111831137D01*
X43772584Y-111885883D01*
X43605660Y-112273133D01*
X43599636Y-112694784D01*
X42370366Y-112694784D01*
X42496622Y-112645339D01*
X42540606Y-112615950D01*
X42628826Y-112403569D01*
X41762540Y-111537284D01*
X40896254Y-112403569D01*
X40427000Y-112403569D01*
X40427000Y-111749810D01*
X40616301Y-112233182D01*
X40645690Y-112277166D01*
X40858071Y-112365386D01*
X41724356Y-111499100D01*
X41800724Y-111499100D01*
X42667009Y-112365386D01*
X42879390Y-112277166D01*
X43091072Y-111792953D01*
X43994577Y-111792953D01*
X44662540Y-112460916D01*
X45330503Y-111792953D01*
X45275757Y-111609144D01*
X44888507Y-111442220D01*
X44466856Y-111436196D01*
X44074996Y-111591990D01*
X44049323Y-111609144D01*
X43994577Y-111792953D01*
X43091072Y-111792953D01*
X43092128Y-111790539D01*
X43102448Y-111259544D01*
X42908779Y-110765018D01*
X42879390Y-110721034D01*
X42667009Y-110632814D01*
X41800724Y-111499100D01*
X41724356Y-111499100D01*
X41724356Y-111499100D01*
X40858071Y-110632814D01*
X40645690Y-110721034D01*
X40432952Y-111207661D01*
X40427000Y-111513909D01*
X40427000Y-110594631D01*
X40896254Y-110594631D01*
X41762540Y-111460916D01*
X42628826Y-110594631D01*
X42540606Y-110382250D01*
X42053979Y-110169512D01*
X41522984Y-110159192D01*
X41028458Y-110352861D01*
X40984474Y-110382250D01*
X40896254Y-110594631D01*
X40427000Y-110594631D01*
X40427000Y-109421230D01*
X48372632Y-109421230D01*
X48695766Y-110203274D01*
X49293578Y-110802131D01*
X50075057Y-111126630D01*
X50921230Y-111127368D01*
X51489646Y-110892503D01*
X83930687Y-110892503D01*
X85500000Y-112461816D01*
X87069313Y-110892503D01*
X86862450Y-110578813D01*
X86023533Y-110203667D01*
X85104913Y-110178117D01*
X84246441Y-110506054D01*
X84137550Y-110578813D01*
X83930687Y-110892503D01*
X51489646Y-110892503D01*
X51703274Y-110804234D01*
X52302131Y-110206422D01*
X52626630Y-109424943D01*
X52626633Y-109421230D01*
X93372632Y-109421230D01*
X93695766Y-110203274D01*
X94293578Y-110802131D01*
X95075057Y-111126630D01*
X95921230Y-111127368D01*
X96703274Y-110804234D01*
X96911440Y-110596431D01*
X105371174Y-110596431D01*
X106237460Y-111462716D01*
X107103746Y-110596431D01*
X107015526Y-110384050D01*
X106528899Y-110171312D01*
X105997904Y-110160992D01*
X105503378Y-110354661D01*
X105459394Y-110384050D01*
X105371174Y-110596431D01*
X96911440Y-110596431D01*
X97302131Y-110206422D01*
X97626630Y-109424943D01*
X97627368Y-108578770D01*
X97304234Y-107796726D01*
X96706422Y-107197869D01*
X95924943Y-106873370D01*
X95078770Y-106872632D01*
X94296726Y-107195766D01*
X93697869Y-107793578D01*
X93373370Y-108575057D01*
X93372632Y-109421230D01*
X52626633Y-109421230D01*
X52627368Y-108578770D01*
X52304234Y-107796726D01*
X51706422Y-107197869D01*
X50924943Y-106873370D01*
X50078770Y-106872632D01*
X49296726Y-107195766D01*
X48697869Y-107793578D01*
X48373370Y-108575057D01*
X48372632Y-109421230D01*
X40427000Y-109421230D01*
X40427000Y-109042055D01*
X40706707Y-107635874D01*
X41479423Y-106479423D01*
X42635874Y-105706707D01*
X44042055Y-105427000D01*
X103957945Y-105427000D01*
X105364126Y-105706707D01*
M02*
